%TF.GenerationSoftware,KiCad,Pcbnew,8.0.2-8.0.2-0~ubuntu22.04.1*%
%TF.CreationDate,2024-05-24T15:24:21-07:00*%
%TF.ProjectId,YamhillFrontPanel,59616d68-696c-46c4-9672-6f6e7450616e,B*%
%TF.SameCoordinates,Original*%
%TF.FileFunction,Soldermask,Top*%
%TF.FilePolarity,Negative*%
%FSLAX46Y46*%
G04 Gerber Fmt 4.6, Leading zero omitted, Abs format (unit mm)*
G04 Created by KiCad (PCBNEW 8.0.2-8.0.2-0~ubuntu22.04.1) date 2024-05-24 15:24:21*
%MOMM*%
%LPD*%
G01*
G04 APERTURE LIST*
G04 Aperture macros list*
%AMRoundRect*
0 Rectangle with rounded corners*
0 $1 Rounding radius*
0 $2 $3 $4 $5 $6 $7 $8 $9 X,Y pos of 4 corners*
0 Add a 4 corners polygon primitive as box body*
4,1,4,$2,$3,$4,$5,$6,$7,$8,$9,$2,$3,0*
0 Add four circle primitives for the rounded corners*
1,1,$1+$1,$2,$3*
1,1,$1+$1,$4,$5*
1,1,$1+$1,$6,$7*
1,1,$1+$1,$8,$9*
0 Add four rect primitives between the rounded corners*
20,1,$1+$1,$2,$3,$4,$5,0*
20,1,$1+$1,$4,$5,$6,$7,0*
20,1,$1+$1,$6,$7,$8,$9,0*
20,1,$1+$1,$8,$9,$2,$3,0*%
G04 Aperture macros list end*
%ADD10O,2.000000X2.800000*%
%ADD11C,2.000000*%
%ADD12RoundRect,0.250000X-0.262500X-0.450000X0.262500X-0.450000X0.262500X0.450000X-0.262500X0.450000X0*%
%ADD13RoundRect,0.250000X-0.450000X0.262500X-0.450000X-0.262500X0.450000X-0.262500X0.450000X0.262500X0*%
%ADD14RoundRect,0.250000X0.450000X-0.262500X0.450000X0.262500X-0.450000X0.262500X-0.450000X-0.262500X0*%
%ADD15RoundRect,0.250000X0.262500X0.450000X-0.262500X0.450000X-0.262500X-0.450000X0.262500X-0.450000X0*%
%ADD16RoundRect,0.250000X-0.250000X-0.475000X0.250000X-0.475000X0.250000X0.475000X-0.250000X0.475000X0*%
%ADD17R,1.700000X1.700000*%
%ADD18O,1.700000X1.700000*%
%ADD19RoundRect,0.150000X-0.825000X-0.150000X0.825000X-0.150000X0.825000X0.150000X-0.825000X0.150000X0*%
%ADD20C,0.800000*%
%ADD21C,6.400000*%
%ADD22RoundRect,0.150000X-0.587500X-0.150000X0.587500X-0.150000X0.587500X0.150000X-0.587500X0.150000X0*%
%ADD23RoundRect,0.250000X-0.475000X0.250000X-0.475000X-0.250000X0.475000X-0.250000X0.475000X0.250000X0*%
%ADD24RoundRect,0.250000X0.350000X-0.850000X0.350000X0.850000X-0.350000X0.850000X-0.350000X-0.850000X0*%
%ADD25RoundRect,0.249997X2.650003X-2.950003X2.650003X2.950003X-2.650003X2.950003X-2.650003X-2.950003X0*%
%ADD26RoundRect,0.250000X0.250000X0.475000X-0.250000X0.475000X-0.250000X-0.475000X0.250000X-0.475000X0*%
%ADD27O,1.800000X1.800000*%
%ADD28O,1.500000X1.500000*%
%ADD29R,1.700000X3.500000*%
%ADD30R,3.500000X1.700000*%
%ADD31RoundRect,0.150000X-0.512500X-0.150000X0.512500X-0.150000X0.512500X0.150000X-0.512500X0.150000X0*%
%ADD32RoundRect,0.250000X0.550000X-1.050000X0.550000X1.050000X-0.550000X1.050000X-0.550000X-1.050000X0*%
%ADD33RoundRect,0.225000X0.375000X-0.225000X0.375000X0.225000X-0.375000X0.225000X-0.375000X-0.225000X0*%
%ADD34RoundRect,0.250000X0.475000X-0.250000X0.475000X0.250000X-0.475000X0.250000X-0.475000X-0.250000X0*%
%ADD35R,1.100000X0.250000*%
%ADD36RoundRect,0.250000X-0.550000X1.050000X-0.550000X-1.050000X0.550000X-1.050000X0.550000X1.050000X0*%
%ADD37C,2.500000*%
%ADD38C,2.600000*%
%ADD39RoundRect,0.225000X-0.375000X0.225000X-0.375000X-0.225000X0.375000X-0.225000X0.375000X0.225000X0*%
%ADD40RoundRect,0.250000X-1.050000X-0.550000X1.050000X-0.550000X1.050000X0.550000X-1.050000X0.550000X0*%
%ADD41R,1.300000X1.100000*%
%ADD42RoundRect,0.062500X-0.337500X-0.062500X0.337500X-0.062500X0.337500X0.062500X-0.337500X0.062500X0*%
%ADD43RoundRect,0.062500X-0.062500X-0.337500X0.062500X-0.337500X0.062500X0.337500X-0.062500X0.337500X0*%
%ADD44R,2.700000X2.700000*%
%ADD45O,2.800000X3.200000*%
%ADD46RoundRect,0.250000X-1.500000X-0.550000X1.500000X-0.550000X1.500000X0.550000X-1.500000X0.550000X0*%
%ADD47RoundRect,0.100000X-0.637500X-0.100000X0.637500X-0.100000X0.637500X0.100000X-0.637500X0.100000X0*%
%ADD48RoundRect,0.250001X-0.624999X0.462499X-0.624999X-0.462499X0.624999X-0.462499X0.624999X0.462499X0*%
%ADD49C,3.650000*%
%ADD50R,1.500000X1.500000*%
%ADD51C,1.500000*%
%ADD52O,2.000000X1.300000*%
%ADD53C,3.400000*%
G04 APERTURE END LIST*
D10*
%TO.C,SW1*%
X77700000Y-101000000D03*
X66300000Y-101000000D03*
D11*
X74500000Y-108500000D03*
X69500000Y-108500000D03*
X72000000Y-108500000D03*
X74500000Y-94000000D03*
X69500000Y-94000000D03*
%TD*%
D10*
%TO.C,SW2*%
X77700000Y-68000000D03*
X66300000Y-68000000D03*
D11*
X74500000Y-75500000D03*
X69500000Y-75500000D03*
X72000000Y-75500000D03*
X74500000Y-61000000D03*
X69500000Y-61000000D03*
%TD*%
D12*
%TO.C,R63*%
X114962500Y-103890000D03*
X116787500Y-103890000D03*
%TD*%
D13*
%TO.C,R65*%
X117900000Y-116987500D03*
X117900000Y-118812500D03*
%TD*%
D12*
%TO.C,R52*%
X139922500Y-102100000D03*
X141747500Y-102100000D03*
%TD*%
D14*
%TO.C,R32*%
X128735000Y-105612500D03*
X128735000Y-103787500D03*
%TD*%
D13*
%TO.C,R33*%
X132435000Y-103787500D03*
X132435000Y-105612500D03*
%TD*%
D14*
%TO.C,R27*%
X136035000Y-105625000D03*
X136035000Y-103800000D03*
%TD*%
D12*
%TO.C,R28*%
X130422500Y-109800000D03*
X132247500Y-109800000D03*
%TD*%
%TO.C,R17*%
X117287500Y-130800000D03*
X119112500Y-130800000D03*
%TD*%
%TO.C,R14*%
X126687500Y-136900000D03*
X128512500Y-136900000D03*
%TD*%
D14*
%TO.C,R8*%
X164000000Y-135912500D03*
X164000000Y-134087500D03*
%TD*%
%TO.C,R61*%
X147300000Y-68912500D03*
X147300000Y-67087500D03*
%TD*%
%TO.C,R43*%
X132435000Y-94512500D03*
X132435000Y-92687500D03*
%TD*%
D12*
%TO.C,R42*%
X102487500Y-68800000D03*
X104312500Y-68800000D03*
%TD*%
D14*
%TO.C,R46*%
X120375000Y-81517500D03*
X120375000Y-79692500D03*
%TD*%
%TO.C,R37*%
X128735000Y-94512500D03*
X128735000Y-92687500D03*
%TD*%
D12*
%TO.C,R15*%
X126587500Y-140300000D03*
X128412500Y-140300000D03*
%TD*%
%TO.C,R45*%
X111062500Y-68805000D03*
X112887500Y-68805000D03*
%TD*%
%TO.C,R59*%
X131687500Y-62400000D03*
X133512500Y-62400000D03*
%TD*%
D14*
%TO.C,R40*%
X109100000Y-75312500D03*
X109100000Y-73487500D03*
%TD*%
D13*
%TO.C,R10*%
X203000000Y-64087500D03*
X203000000Y-65912500D03*
%TD*%
D12*
%TO.C,R30*%
X89287500Y-90000000D03*
X91112500Y-90000000D03*
%TD*%
D15*
%TO.C,R38*%
X118412500Y-70400000D03*
X116587500Y-70400000D03*
%TD*%
D13*
%TO.C,R7*%
X161000000Y-134087500D03*
X161000000Y-135912500D03*
%TD*%
D12*
%TO.C,R21*%
X112887500Y-132900000D03*
X114712500Y-132900000D03*
%TD*%
D15*
%TO.C,R24*%
X122712500Y-142100000D03*
X120887500Y-142100000D03*
%TD*%
D13*
%TO.C,R11*%
X203000000Y-76087500D03*
X203000000Y-77912500D03*
%TD*%
D12*
%TO.C,R25*%
X81487500Y-90000000D03*
X83312500Y-90000000D03*
%TD*%
%TO.C,R48*%
X132422500Y-88200000D03*
X134247500Y-88200000D03*
%TD*%
%TO.C,R18*%
X101687500Y-142100000D03*
X103512500Y-142100000D03*
%TD*%
D13*
%TO.C,R13*%
X203000000Y-100087500D03*
X203000000Y-101912500D03*
%TD*%
D15*
%TO.C,R53*%
X136212500Y-72100000D03*
X134387500Y-72100000D03*
%TD*%
%TO.C,R56*%
X140512500Y-60900000D03*
X138687500Y-60900000D03*
%TD*%
%TO.C,R66*%
X144412500Y-75600000D03*
X142587500Y-75600000D03*
%TD*%
%TO.C,R23*%
X122712500Y-138600000D03*
X120887500Y-138600000D03*
%TD*%
D12*
%TO.C,R22*%
X105587500Y-138500000D03*
X107412500Y-138500000D03*
%TD*%
%TO.C,R19*%
X117287500Y-134300000D03*
X119112500Y-134300000D03*
%TD*%
D15*
%TO.C,R35*%
X105812500Y-78800000D03*
X103987500Y-78800000D03*
%TD*%
%TO.C,R16*%
X102512500Y-138700000D03*
X100687500Y-138700000D03*
%TD*%
D14*
%TO.C,R5*%
X164000000Y-130912500D03*
X164000000Y-129087500D03*
%TD*%
D15*
%TO.C,R20*%
X110812500Y-132900000D03*
X108987500Y-132900000D03*
%TD*%
D14*
%TO.C,R55*%
X128300000Y-66112500D03*
X128300000Y-64287500D03*
%TD*%
D13*
%TO.C,R4*%
X161000000Y-129087500D03*
X161000000Y-130912500D03*
%TD*%
%TO.C,R36*%
X132435000Y-98387500D03*
X132435000Y-100212500D03*
%TD*%
D14*
%TO.C,R51*%
X121700000Y-76312500D03*
X121700000Y-74487500D03*
%TD*%
D15*
%TO.C,R41*%
X146247500Y-90300000D03*
X144422500Y-90300000D03*
%TD*%
D14*
%TO.C,R34*%
X100300000Y-83812500D03*
X100300000Y-81987500D03*
%TD*%
D13*
%TO.C,R29*%
X102500000Y-89887500D03*
X102500000Y-91712500D03*
%TD*%
%TO.C,R2*%
X161000000Y-124087500D03*
X161000000Y-125912500D03*
%TD*%
D14*
%TO.C,R44*%
X106400000Y-89912500D03*
X106400000Y-88087500D03*
%TD*%
D12*
%TO.C,R58*%
X138387500Y-72100000D03*
X140212500Y-72100000D03*
%TD*%
D13*
%TO.C,R12*%
X203000000Y-88087500D03*
X203000000Y-89912500D03*
%TD*%
%TO.C,R26*%
X94400000Y-102187500D03*
X94400000Y-104012500D03*
%TD*%
D12*
%TO.C,R60*%
X138387500Y-79000000D03*
X140212500Y-79000000D03*
%TD*%
D14*
%TO.C,R54*%
X128300000Y-76412500D03*
X128300000Y-74587500D03*
%TD*%
D15*
%TO.C,R62*%
X112387500Y-101590000D03*
X110562500Y-101590000D03*
%TD*%
D12*
%TO.C,R1*%
X176687500Y-105300000D03*
X178512500Y-105300000D03*
%TD*%
D14*
%TO.C,R49*%
X106400000Y-85012500D03*
X106400000Y-83187500D03*
%TD*%
D12*
%TO.C,R47*%
X123587500Y-70000000D03*
X125412500Y-70000000D03*
%TD*%
D15*
%TO.C,R39*%
X99312500Y-70600000D03*
X97487500Y-70600000D03*
%TD*%
%TO.C,R50*%
X125412500Y-66500000D03*
X123587500Y-66500000D03*
%TD*%
D14*
%TO.C,R3*%
X164000000Y-125912500D03*
X164000000Y-124087500D03*
%TD*%
D15*
%TO.C,R6*%
X178512500Y-98400000D03*
X176687500Y-98400000D03*
%TD*%
%TO.C,R9*%
X177412500Y-143400000D03*
X175587500Y-143400000D03*
%TD*%
D14*
%TO.C,R64*%
X101400000Y-105012500D03*
X101400000Y-103187500D03*
%TD*%
D16*
%TO.C,C49*%
X145685000Y-102100000D03*
X147585000Y-102100000D03*
%TD*%
%TO.C,C23*%
X65250000Y-125400000D03*
X67150000Y-125400000D03*
%TD*%
%TO.C,C33*%
X157250000Y-110800000D03*
X159150000Y-110800000D03*
%TD*%
%TO.C,C48*%
X123450000Y-81500000D03*
X125350000Y-81500000D03*
%TD*%
D17*
%TO.C,J3*%
X109060000Y-147000000D03*
D18*
X111600000Y-147000000D03*
%TD*%
D19*
%TO.C,U10*%
X95525000Y-95095000D03*
X95525000Y-96365000D03*
X95525000Y-97635000D03*
X95525000Y-98905000D03*
X100475000Y-98905000D03*
X100475000Y-97635000D03*
X100475000Y-96365000D03*
X100475000Y-95095000D03*
%TD*%
D17*
%TO.C,J35*%
X150425000Y-137900000D03*
D18*
X152965000Y-137900000D03*
%TD*%
D16*
%TO.C,C6*%
X89050000Y-117000000D03*
X90950000Y-117000000D03*
%TD*%
D17*
%TO.C,J26*%
X83600000Y-147000000D03*
D18*
X86140000Y-147000000D03*
%TD*%
D17*
%TO.C,J33*%
X137960000Y-109800000D03*
D18*
X140500000Y-109800000D03*
%TD*%
D17*
%TO.C,J5*%
X143900000Y-147000000D03*
D18*
X146440000Y-147000000D03*
%TD*%
D17*
%TO.C,J20*%
X64200000Y-147000000D03*
D18*
X66740000Y-147000000D03*
%TD*%
D20*
%TO.C,H2*%
X52600000Y-145000000D03*
X53302944Y-143302944D03*
X53302944Y-146697056D03*
X55000000Y-142600000D03*
D21*
X55000000Y-145000000D03*
D20*
X55000000Y-147400000D03*
X56697056Y-143302944D03*
X56697056Y-146697056D03*
X57400000Y-145000000D03*
%TD*%
D22*
%TO.C,Q3*%
X101425000Y-72850000D03*
X101425000Y-74750000D03*
X103300000Y-73800000D03*
%TD*%
D16*
%TO.C,C18*%
X70950000Y-59400000D03*
X72850000Y-59400000D03*
%TD*%
D23*
%TO.C,C11*%
X166700000Y-95900000D03*
X166700000Y-97800000D03*
%TD*%
D24*
%TO.C,U7*%
X67120000Y-121540000D03*
D25*
X69400000Y-115240000D03*
D24*
X71680000Y-121540000D03*
%TD*%
D17*
%TO.C,J36*%
X82700000Y-115200000D03*
D18*
X85240000Y-115200000D03*
%TD*%
D26*
%TO.C,C35*%
X144050000Y-136000000D03*
X142150000Y-136000000D03*
%TD*%
D17*
%TO.C,J23*%
X166100000Y-147000000D03*
D18*
X168640000Y-147000000D03*
%TD*%
D23*
%TO.C,C43*%
X106000000Y-73450000D03*
X106000000Y-75350000D03*
%TD*%
D27*
%TO.C,U3*%
X217970000Y-123985000D03*
D28*
X214940000Y-124285000D03*
X214940000Y-129135000D03*
D27*
X217970000Y-129435000D03*
D18*
X218100000Y-117820000D03*
D29*
X218100000Y-116920000D03*
D18*
X215560000Y-117820000D03*
D29*
X215560000Y-116920000D03*
D17*
X213020000Y-117820000D03*
D29*
X213020000Y-116920000D03*
D18*
X210480000Y-117820000D03*
D29*
X210480000Y-116920000D03*
D18*
X207940000Y-117820000D03*
D29*
X207940000Y-116920000D03*
D18*
X205400000Y-117820000D03*
D29*
X205400000Y-116920000D03*
D18*
X202860000Y-117820000D03*
D29*
X202860000Y-116920000D03*
D17*
X200320000Y-117820000D03*
D29*
X200320000Y-116920000D03*
D18*
X197780000Y-117820000D03*
D29*
X197780000Y-116920000D03*
D18*
X195240000Y-117820000D03*
D29*
X195240000Y-116920000D03*
D18*
X192700000Y-117820000D03*
D29*
X192700000Y-116920000D03*
D18*
X190160000Y-117820000D03*
D29*
X190160000Y-116920000D03*
D17*
X187620000Y-117820000D03*
D29*
X187620000Y-116920000D03*
D18*
X185080000Y-117820000D03*
D29*
X185080000Y-116920000D03*
D18*
X182540000Y-117820000D03*
D29*
X182540000Y-116920000D03*
D18*
X180000000Y-117820000D03*
D29*
X180000000Y-116920000D03*
D18*
X177460000Y-117820000D03*
D29*
X177460000Y-116920000D03*
D17*
X174920000Y-117820000D03*
D29*
X174920000Y-116920000D03*
D18*
X172380000Y-117820000D03*
D29*
X172380000Y-116920000D03*
D18*
X169840000Y-117820000D03*
D29*
X169840000Y-116920000D03*
D18*
X169840000Y-135600000D03*
D29*
X169840000Y-136500000D03*
D18*
X172380000Y-135600000D03*
D29*
X172380000Y-136500000D03*
D17*
X174920000Y-135600000D03*
D29*
X174920000Y-136500000D03*
D18*
X177460000Y-135600000D03*
D29*
X177460000Y-136500000D03*
D18*
X180000000Y-135600000D03*
D29*
X180000000Y-136500000D03*
D18*
X182540000Y-135600000D03*
D29*
X182540000Y-136500000D03*
D18*
X185080000Y-135600000D03*
D29*
X185080000Y-136500000D03*
D17*
X187620000Y-135600000D03*
D29*
X187620000Y-136500000D03*
D18*
X190160000Y-135600000D03*
D29*
X190160000Y-136500000D03*
D18*
X192700000Y-135600000D03*
D29*
X192700000Y-136500000D03*
D18*
X195240000Y-135600000D03*
D29*
X195240000Y-136500000D03*
D18*
X197780000Y-135600000D03*
D29*
X197780000Y-136500000D03*
D17*
X200320000Y-135600000D03*
D29*
X200320000Y-136500000D03*
D18*
X202860000Y-135600000D03*
D29*
X202860000Y-136500000D03*
D18*
X205400000Y-135600000D03*
D29*
X205400000Y-136500000D03*
D18*
X207940000Y-135600000D03*
D29*
X207940000Y-136500000D03*
D18*
X210480000Y-135600000D03*
D29*
X210480000Y-136500000D03*
D17*
X213020000Y-135600000D03*
D29*
X213020000Y-136500000D03*
D18*
X215560000Y-135600000D03*
D29*
X215560000Y-136500000D03*
D18*
X218100000Y-135600000D03*
D29*
X218100000Y-136500000D03*
D18*
X170070000Y-124170000D03*
D30*
X169170000Y-124170000D03*
D17*
X170070000Y-126710000D03*
D30*
X169170000Y-126710000D03*
D18*
X170070000Y-129250000D03*
D30*
X169170000Y-129250000D03*
%TD*%
D23*
%TO.C,C45*%
X119300000Y-74450000D03*
X119300000Y-76350000D03*
%TD*%
D26*
%TO.C,C60*%
X116425000Y-93290000D03*
X114525000Y-93290000D03*
%TD*%
D31*
%TO.C,U2*%
X170100000Y-95850000D03*
X170100000Y-96800000D03*
X170100000Y-97750000D03*
X172375000Y-97750000D03*
X172375000Y-96800000D03*
X172375000Y-95850000D03*
%TD*%
D32*
%TO.C,C42*%
X139235000Y-87700000D03*
X139235000Y-84100000D03*
%TD*%
D16*
%TO.C,C57*%
X138350000Y-75500000D03*
X140250000Y-75500000D03*
%TD*%
D32*
%TO.C,C41*%
X116600000Y-66200000D03*
X116600000Y-62600000D03*
%TD*%
D33*
%TO.C,D8*%
X134700000Y-82250000D03*
X134700000Y-78950000D03*
%TD*%
D34*
%TO.C,C2*%
X207000000Y-77950000D03*
X207000000Y-76050000D03*
%TD*%
D33*
%TO.C,D9*%
X144100000Y-82250000D03*
X144100000Y-78950000D03*
%TD*%
D26*
%TO.C,C40*%
X99350000Y-74500000D03*
X97450000Y-74500000D03*
%TD*%
D23*
%TO.C,C38*%
X108800000Y-78650000D03*
X108800000Y-80550000D03*
%TD*%
D35*
%TO.C,U5*%
X160050000Y-140300000D03*
X160050000Y-140800000D03*
X160050000Y-141300000D03*
X160050000Y-141800000D03*
X160050000Y-142300000D03*
X164350000Y-142300000D03*
X164350000Y-141800000D03*
X164350000Y-141300000D03*
X164350000Y-140800000D03*
X164350000Y-140300000D03*
%TD*%
D36*
%TO.C,C47*%
X111875000Y-84205000D03*
X111875000Y-87805000D03*
%TD*%
D17*
%TO.C,J4*%
X115300000Y-147000000D03*
D18*
X117840000Y-147000000D03*
%TD*%
D37*
%TO.C,J27*%
X55000000Y-136000000D03*
D38*
X52450000Y-133450000D03*
X52450000Y-138550000D03*
X57550000Y-133450000D03*
X57550000Y-138550000D03*
%TD*%
D34*
%TO.C,C62*%
X147300000Y-73950000D03*
X147300000Y-72050000D03*
%TD*%
D17*
%TO.C,J22*%
X159800000Y-147000000D03*
D18*
X162340000Y-147000000D03*
%TD*%
D16*
%TO.C,C8*%
X151935000Y-107000000D03*
X153835000Y-107000000D03*
%TD*%
%TO.C,C50*%
X127550000Y-81500000D03*
X129450000Y-81500000D03*
%TD*%
D39*
%TO.C,D7*%
X200000000Y-144850000D03*
X200000000Y-148150000D03*
%TD*%
D16*
%TO.C,C58*%
X142650000Y-70400000D03*
X144550000Y-70400000D03*
%TD*%
D17*
%TO.C,J18*%
X170000000Y-102700000D03*
D18*
X172540000Y-102700000D03*
%TD*%
D40*
%TO.C,C34*%
X104000000Y-95000000D03*
X107600000Y-95000000D03*
%TD*%
D17*
%TO.C,J19*%
X205000000Y-147000000D03*
D18*
X207540000Y-147000000D03*
%TD*%
D17*
%TO.C,J34*%
X123360000Y-86460000D03*
D18*
X125900000Y-86460000D03*
X123360000Y-89000000D03*
X125900000Y-89000000D03*
%TD*%
D40*
%TO.C,C61*%
X104800000Y-103900000D03*
X108400000Y-103900000D03*
%TD*%
D16*
%TO.C,C31*%
X81450000Y-93400000D03*
X83350000Y-93400000D03*
%TD*%
D23*
%TO.C,C20*%
X106600000Y-133050000D03*
X106600000Y-134950000D03*
%TD*%
D16*
%TO.C,C22*%
X53450000Y-125400000D03*
X55350000Y-125400000D03*
%TD*%
D26*
%TO.C,C12*%
X178550000Y-101800000D03*
X176650000Y-101800000D03*
%TD*%
D20*
%TO.C,H4*%
X212600000Y-145000000D03*
X213302944Y-143302944D03*
X213302944Y-146697056D03*
X215000000Y-142600000D03*
D21*
X215000000Y-145000000D03*
D20*
X215000000Y-147400000D03*
X216697056Y-143302944D03*
X216697056Y-146697056D03*
X217400000Y-145000000D03*
%TD*%
D41*
%TO.C,U4*%
X100219978Y-135580022D03*
X102519978Y-135580022D03*
X102519978Y-133680022D03*
X100219978Y-133680022D03*
%TD*%
D26*
%TO.C,C30*%
X118650000Y-142100000D03*
X116750000Y-142100000D03*
%TD*%
D17*
%TO.C,J16*%
X185700000Y-91800000D03*
D18*
X188240000Y-91800000D03*
%TD*%
D17*
%TO.C,J8*%
X125025000Y-147000000D03*
D18*
X127565000Y-147000000D03*
%TD*%
D17*
%TO.C,J21*%
X153500000Y-147000000D03*
D18*
X156040000Y-147000000D03*
%TD*%
D26*
%TO.C,C52*%
X147585000Y-95000000D03*
X145685000Y-95000000D03*
%TD*%
D42*
%TO.C,U8*%
X110000000Y-139900000D03*
X110000000Y-140400000D03*
X110000000Y-140900000D03*
X110000000Y-141400000D03*
X110000000Y-141900000D03*
D43*
X110950000Y-142850000D03*
X111450000Y-142850000D03*
X111950000Y-142850000D03*
X112450000Y-142850000D03*
X112950000Y-142850000D03*
D42*
X113900000Y-141900000D03*
X113900000Y-141400000D03*
X113900000Y-140900000D03*
X113900000Y-140400000D03*
X113900000Y-139900000D03*
D43*
X112950000Y-138950000D03*
X112450000Y-138950000D03*
X111950000Y-138950000D03*
X111450000Y-138950000D03*
X110950000Y-138950000D03*
D44*
X111950000Y-140900000D03*
%TD*%
D26*
%TO.C,C51*%
X132050000Y-68900000D03*
X130150000Y-68900000D03*
%TD*%
D17*
%TO.C,J10*%
X152460000Y-102700000D03*
D18*
X155000000Y-102700000D03*
X157540000Y-102700000D03*
%TD*%
D34*
%TO.C,C37*%
X128735000Y-100250000D03*
X128735000Y-98350000D03*
%TD*%
D16*
%TO.C,C1*%
X89050000Y-126100000D03*
X90950000Y-126100000D03*
%TD*%
D17*
%TO.C,J11*%
X154200000Y-91800000D03*
D18*
X156740000Y-91800000D03*
%TD*%
D45*
%TO.C,R31*%
X130700000Y-132000000D03*
X141300000Y-132000000D03*
D11*
X138500000Y-139000000D03*
X136000000Y-139000000D03*
X133500000Y-139000000D03*
%TD*%
D20*
%TO.C,H1*%
X52600000Y-55000000D03*
X53302944Y-53302944D03*
X53302944Y-56697056D03*
X55000000Y-52600000D03*
D21*
X55000000Y-55000000D03*
D20*
X55000000Y-57400000D03*
X56697056Y-53302944D03*
X56697056Y-56697056D03*
X57400000Y-55000000D03*
%TD*%
D17*
%TO.C,J13*%
X166800000Y-91800000D03*
D18*
X169340000Y-91800000D03*
%TD*%
D19*
%TO.C,U12*%
X136785000Y-93700000D03*
X136785000Y-94970000D03*
X136785000Y-96240000D03*
X136785000Y-97510000D03*
X141735000Y-97510000D03*
X141735000Y-96240000D03*
X141735000Y-94970000D03*
X141735000Y-93700000D03*
%TD*%
D16*
%TO.C,C26*%
X69750000Y-125400000D03*
X71650000Y-125400000D03*
%TD*%
%TO.C,C16*%
X67650000Y-80000000D03*
X69550000Y-80000000D03*
%TD*%
D17*
%TO.C,J12*%
X160500000Y-91800000D03*
D18*
X163040000Y-91800000D03*
%TD*%
D46*
%TO.C,C63*%
X112300000Y-110200000D03*
X117900000Y-110200000D03*
%TD*%
D34*
%TO.C,C17*%
X78900000Y-55250000D03*
X78900000Y-53350000D03*
%TD*%
D17*
%TO.C,J2*%
X102800000Y-147000000D03*
D18*
X105340000Y-147000000D03*
%TD*%
D17*
%TO.C,J30*%
X84300000Y-104200000D03*
D18*
X86840000Y-104200000D03*
%TD*%
D17*
%TO.C,J7*%
X131325000Y-147000000D03*
D18*
X133865000Y-147000000D03*
%TD*%
D17*
%TO.C,J37*%
X102125000Y-110500000D03*
D18*
X104665000Y-110500000D03*
%TD*%
D16*
%TO.C,C9*%
X156535000Y-107000000D03*
X158435000Y-107000000D03*
%TD*%
D37*
%TO.C,J29*%
X81000000Y-136000000D03*
D38*
X78450000Y-133450000D03*
X78450000Y-138550000D03*
X83550000Y-133450000D03*
X83550000Y-138550000D03*
%TD*%
D16*
%TO.C,C56*%
X110525000Y-93290000D03*
X112425000Y-93290000D03*
%TD*%
D34*
%TO.C,C4*%
X207000000Y-101950000D03*
X207000000Y-100050000D03*
%TD*%
D11*
%TO.C,TP2*%
X187100000Y-147000000D03*
%TD*%
D22*
%TO.C,Q2*%
X122225000Y-133450000D03*
X122225000Y-135350000D03*
X124100000Y-134400000D03*
%TD*%
D16*
%TO.C,C7*%
X73350000Y-105400000D03*
X75250000Y-105400000D03*
%TD*%
%TO.C,C13*%
X70950000Y-92400000D03*
X72850000Y-92400000D03*
%TD*%
D24*
%TO.C,U6*%
X55320000Y-121540000D03*
D25*
X57600000Y-115240000D03*
D24*
X59880000Y-121540000D03*
%TD*%
D34*
%TO.C,C5*%
X207000000Y-65950000D03*
X207000000Y-64050000D03*
%TD*%
%TO.C,C3*%
X207000000Y-89950000D03*
X207000000Y-88050000D03*
%TD*%
D37*
%TO.C,J28*%
X68000000Y-136000000D03*
D38*
X65450000Y-133450000D03*
X65450000Y-138550000D03*
X70550000Y-133450000D03*
X70550000Y-138550000D03*
%TD*%
D26*
%TO.C,C24*%
X110950000Y-136300000D03*
X109050000Y-136300000D03*
%TD*%
D17*
%TO.C,J15*%
X179400000Y-91800000D03*
D18*
X181940000Y-91800000D03*
%TD*%
D16*
%TO.C,C44*%
X115450000Y-81100000D03*
X117350000Y-81100000D03*
%TD*%
D17*
%TO.C,J31*%
X82700000Y-125800000D03*
D18*
X85240000Y-125800000D03*
%TD*%
D16*
%TO.C,C54*%
X145685000Y-98400000D03*
X147585000Y-98400000D03*
%TD*%
D19*
%TO.C,U14*%
X114550000Y-96360000D03*
X114550000Y-97630000D03*
X114550000Y-98900000D03*
X114550000Y-100170000D03*
X119500000Y-100170000D03*
X119500000Y-98900000D03*
X119500000Y-97630000D03*
X119500000Y-96360000D03*
%TD*%
D16*
%TO.C,C15*%
X74850000Y-80000000D03*
X76750000Y-80000000D03*
%TD*%
D17*
%TO.C,J6*%
X137600000Y-147000000D03*
D18*
X140140000Y-147000000D03*
%TD*%
D22*
%TO.C,Q1*%
X117225000Y-124650000D03*
X117225000Y-126550000D03*
X119100000Y-125600000D03*
%TD*%
D17*
%TO.C,J1*%
X96500000Y-147000000D03*
D18*
X99040000Y-147000000D03*
%TD*%
D26*
%TO.C,C55*%
X112425000Y-97890000D03*
X110525000Y-97890000D03*
%TD*%
D23*
%TO.C,C59*%
X122275000Y-96040000D03*
X122275000Y-97940000D03*
%TD*%
D11*
%TO.C,TP1*%
X150000000Y-112000000D03*
%TD*%
D16*
%TO.C,C27*%
X112850000Y-136300000D03*
X114750000Y-136300000D03*
%TD*%
D22*
%TO.C,Q4*%
X124025000Y-74550000D03*
X124025000Y-76450000D03*
X125900000Y-75500000D03*
%TD*%
D26*
%TO.C,C10*%
X71050000Y-105400000D03*
X69150000Y-105400000D03*
%TD*%
D17*
%TO.C,J14*%
X173100000Y-91800000D03*
D18*
X175640000Y-91800000D03*
%TD*%
D19*
%TO.C,U13*%
X134925000Y-64595000D03*
X134925000Y-65865000D03*
X134925000Y-67135000D03*
X134925000Y-68405000D03*
X139875000Y-68405000D03*
X139875000Y-67135000D03*
X139875000Y-65865000D03*
X139875000Y-64595000D03*
%TD*%
D16*
%TO.C,C25*%
X57950000Y-125400000D03*
X59850000Y-125400000D03*
%TD*%
D47*
%TO.C,U1*%
X184387500Y-100625000D03*
X184387500Y-101275000D03*
X184387500Y-101925000D03*
X184387500Y-102575000D03*
X184387500Y-103225000D03*
X184387500Y-103875000D03*
X184387500Y-104525000D03*
X184387500Y-105175000D03*
X184387500Y-105825000D03*
X184387500Y-106475000D03*
X184387500Y-107125000D03*
X184387500Y-107775000D03*
X191812500Y-107775000D03*
X191812500Y-107125000D03*
X191812500Y-106475000D03*
X191812500Y-105825000D03*
X191812500Y-105175000D03*
X191812500Y-104525000D03*
X191812500Y-103875000D03*
X191812500Y-103225000D03*
X191812500Y-102575000D03*
X191812500Y-101925000D03*
X191812500Y-101275000D03*
X191812500Y-100625000D03*
%TD*%
D26*
%TO.C,C36*%
X91150000Y-93600000D03*
X89250000Y-93600000D03*
%TD*%
D20*
%TO.C,H3*%
X212600000Y-55000000D03*
X213302944Y-53302944D03*
X213302944Y-56697056D03*
X215000000Y-52600000D03*
D21*
X215000000Y-55000000D03*
D20*
X215000000Y-57400000D03*
X216697056Y-53302944D03*
X216697056Y-56697056D03*
X217400000Y-55000000D03*
%TD*%
D17*
%TO.C,J17*%
X217225000Y-109900000D03*
D18*
X214685000Y-109900000D03*
X212145000Y-109900000D03*
%TD*%
D26*
%TO.C,C46*%
X125450000Y-62900000D03*
X123550000Y-62900000D03*
%TD*%
D40*
%TO.C,C53*%
X143300000Y-62300000D03*
X146900000Y-62300000D03*
%TD*%
D16*
%TO.C,C14*%
X163750000Y-110800000D03*
X165650000Y-110800000D03*
%TD*%
D48*
%TO.C,L1*%
X146000000Y-138612500D03*
X146000000Y-141587500D03*
%TD*%
D36*
%TO.C,C39*%
X124035000Y-105400000D03*
X124035000Y-109000000D03*
%TD*%
D37*
%TO.C,J24*%
X94000000Y-136000000D03*
D38*
X91450000Y-133450000D03*
X91450000Y-138550000D03*
X96550000Y-133450000D03*
X96550000Y-138550000D03*
%TD*%
D19*
%TO.C,U11*%
X111625000Y-73595000D03*
X111625000Y-74865000D03*
X111625000Y-76135000D03*
X111625000Y-77405000D03*
X116575000Y-77405000D03*
X116575000Y-76135000D03*
X116575000Y-74865000D03*
X116575000Y-73595000D03*
%TD*%
D16*
%TO.C,C29*%
X116750000Y-138600000D03*
X118650000Y-138600000D03*
%TD*%
%TO.C,C28*%
X105550000Y-142100000D03*
X107450000Y-142100000D03*
%TD*%
D26*
%TO.C,C21*%
X168350000Y-141500000D03*
X166450000Y-141500000D03*
%TD*%
D16*
%TO.C,C19*%
X100350000Y-130400000D03*
X102250000Y-130400000D03*
%TD*%
D23*
%TO.C,C32*%
X98000000Y-102150000D03*
X98000000Y-104050000D03*
%TD*%
D49*
%TO.C,J32*%
X156270000Y-126350000D03*
X144840000Y-126350000D03*
D50*
X155000000Y-120000000D03*
D51*
X153730000Y-117460000D03*
X152460000Y-120000000D03*
X151190000Y-117460000D03*
X149920000Y-120000000D03*
X148650000Y-117460000D03*
X147380000Y-120000000D03*
X146110000Y-117460000D03*
%TD*%
D11*
%TO.C,S2*%
X214250000Y-73750000D03*
X214250000Y-80250000D03*
X209750000Y-73750000D03*
X209750000Y-80250000D03*
%TD*%
D37*
%TO.C,J9*%
X97000000Y-122000000D03*
X94800000Y-126100000D03*
X99200000Y-124500000D03*
X98700000Y-117000000D03*
X95300000Y-119500000D03*
%TD*%
D52*
%TO.C,R57*%
X130750000Y-122000000D03*
X121250000Y-122000000D03*
D11*
X123500000Y-128500000D03*
X126000000Y-128500000D03*
X128500000Y-128500000D03*
%TD*%
%TO.C,S4*%
X214250000Y-97750000D03*
X214250000Y-104250000D03*
X209750000Y-97750000D03*
X209750000Y-104250000D03*
%TD*%
D37*
%TO.C,J38*%
X110000000Y-122000000D03*
X107800000Y-126100000D03*
X112200000Y-124500000D03*
X111700000Y-117000000D03*
X108300000Y-119500000D03*
%TD*%
D11*
%TO.C,S3*%
X214250000Y-85750000D03*
X214250000Y-92250000D03*
X209750000Y-85750000D03*
X209750000Y-92250000D03*
%TD*%
D18*
%TO.C,U9*%
X94500000Y-86760000D03*
X94500000Y-84220000D03*
X94500000Y-81680000D03*
D17*
X94500000Y-79140000D03*
D18*
X198500000Y-99460000D03*
X198500000Y-96920000D03*
X198500000Y-94380000D03*
X198500000Y-91840000D03*
X198500000Y-89300000D03*
X198500000Y-86760000D03*
X198500000Y-84220000D03*
X198500000Y-81680000D03*
X198500000Y-79140000D03*
X198500000Y-76600000D03*
X198500000Y-74060000D03*
X198500000Y-71520000D03*
X198500000Y-68980000D03*
D17*
X198500000Y-66440000D03*
D53*
X197500000Y-110400000D03*
X197500000Y-55500000D03*
X95500000Y-110400000D03*
X95500000Y-55500000D03*
%TD*%
D11*
%TO.C,S1*%
X214250000Y-61750000D03*
X214250000Y-68250000D03*
X209750000Y-61750000D03*
X209750000Y-68250000D03*
%TD*%
D17*
%TO.C,J25*%
X77400000Y-147000000D03*
D18*
X79940000Y-147000000D03*
%TD*%
M02*
