M48
; DRILL file {KiCad 7.0.10-7.0.10~ubuntu22.04.1} date Thu 04 Jan 2024 09:02:17 AM PST
; FORMAT={-:-/ absolute / inch / decimal}
; #@! TF.CreationDate,2024-01-04T09:02:17-08:00
; #@! TF.GenerationSoftware,Kicad,Pcbnew,7.0.10-7.0.10~ubuntu22.04.1
; #@! TF.FileFunction,Plated,1,4,PTH
FMAT,2
INCH
; #@! TA.AperFunction,Plated,PTH,ViaDrill
T1C0.0079
; #@! TA.AperFunction,Plated,PTH,ComponentDrill
T2C0.0118
; #@! TA.AperFunction,Plated,PTH,ViaDrill
T3C0.0157
; #@! TA.AperFunction,Plated,PTH,ComponentDrill
T4C0.0197
; #@! TA.AperFunction,Plated,PTH,ComponentDrill
T5C0.0354
; #@! TA.AperFunction,Plated,PTH,ComponentDrill
T6C0.0394
; #@! TA.AperFunction,Plated,PTH,ComponentDrill
T7C0.0402
; #@! TA.AperFunction,Plated,PTH,ComponentDrill
T8C0.0591
; #@! TA.AperFunction,Plated,PTH,ComponentDrill
T9C0.0630
; #@! TA.AperFunction,Plated,PTH,ComponentDrill
T10C0.0709
; #@! TA.AperFunction,Plated,PTH,ComponentDrill
T11C0.1260
%
G90
G05
T1
X4.2835Y-5.5
X4.2989Y-5.6026
X4.2991Y-5.562
X4.3312Y-5.625
X4.3504Y-5.4331
X4.4055Y-5.6575
X4.432Y-5.6389
X4.505Y-5.5731
X4.5379Y-5.5497
T2
X4.3868Y-5.5266
X4.3868Y-5.5679
X4.4281Y-5.5266
X4.4281Y-5.5679
T3
X2.5551Y-3.6181
X2.6063Y-3.1496
X2.6063Y-4.4488
X2.6457Y-2.2283
X3.0433Y-2.0984
X3.1063Y-2.2362
X3.1929Y-4.6732
X3.2795Y-4.6417
X3.5039Y-4.6732
X3.5079Y-5.0276
X3.5472Y-5.5551
X3.6929Y-2.4016
X3.8465Y-3.9921
X3.9409Y-5.5945
X3.9488Y-4.3937
X4.0669Y-2.1811
X4.0866Y-5.6535
X4.0945Y-4.4213
X4.1024Y-5.3386
X4.1102Y-2.7638
X4.1181Y-5.5276
X4.1654Y-4.2913
X4.2441Y-2.1378
X4.252Y-3.8819
X4.3661Y-5.6575
X4.4055Y-5.3031
X4.4094Y-5.1693
X4.4528Y-2.1378
X4.4882Y-2.1811
X4.5472Y-5.4882
X4.5512Y-5.126
X4.5512Y-5.4331
X4.5591Y-5.185
X4.5866Y-5.6575
X4.6929Y-5.3465
X4.7441Y-5.1496
X4.752Y-5.685
X4.7835Y-5.185
X4.8583Y-3.5945
X4.8661Y-2.8228
X4.937Y-5.5945
X4.9449Y-5.1535
X4.9449Y-5.311
X4.9567Y-4.5197
X4.9961Y-3.6339
X5.0157Y-4.626
X5.1142Y-5.5236
X5.1181Y-5.3858
X5.1339Y-4.4094
X5.1431Y-3.7205
X5.1431Y-3.9449
X5.2559Y-5.5906
X5.311Y-4.1575
X5.4173Y-5.5906
X5.5197Y-4.1575
X5.5748Y-5.5906
X5.6181Y-3.626
X5.6732Y-3.9449
X5.7953Y-3.3898
X5.815Y-3.063
X5.815Y-3.626
X5.8602Y-3.4194
X5.8937Y-5.5906
X5.9134Y-3.0276
X5.9172Y-3.1017
X5.9449Y-3.7402
X6.0787Y-4.5394
X6.122Y-5.5945
X6.1378Y-4.315
X6.1575Y-4.4528
X6.1614Y-5.563
X6.2598Y-5.3661
X6.2735Y-3.7776
X6.2874Y-5.2795
X6.2884Y-5.1535
X6.2913Y-4.8071
X6.2913Y-5.2008
X6.2963Y-4.9529
X6.2992Y-4.4449
X6.3504Y-5.563
X6.3937Y-4.2165
X6.468Y-5.497
X6.4685Y-5.4331
X6.5157Y-4.8858
X6.5197Y-5.0866
X6.5217Y-4.4173
X6.5354Y-4.7953
X6.5354Y-5.3346
X6.5512Y-4.6772
X6.5669Y-4.8238
X6.5669Y-5.3071
X6.5955Y-5.3563
X6.7008Y-5.6299
X6.8465Y-4.4252
X6.8583Y-5.5315
X7.0079Y-4.4213
X7.0433Y-5.6575
X7.0906Y-3.9606
X7.1022Y-4.1919
X7.1033Y-4.2313
X7.1142Y-4.1457
X7.1535Y-4.0709
X7.1535Y-4.1181
X7.1614Y-4.4921
X7.1811Y-4.2913
X7.189Y-4.0413
X7.2909Y-4.7864
X7.3415Y-3.9878
X7.3494Y-3.9016
X7.3701Y-4.2165
X7.4567Y-4.2913
X7.4606Y-3.6181
X7.4803Y-4.0748
X7.4814Y-4.003
X7.4931Y-3.9063
X7.5551Y-2.8425
X7.5669Y-3.6181
X7.5669Y-3.9301
X7.7037Y-3.5551
X7.7332Y-3.4646
X7.7332Y-3.5892
X7.8071Y-4.0512
X7.9035Y-4.1437
X7.9254Y-2.488
X7.9626Y-3.369
X7.9921Y-2.874
X7.9921Y-3.8268
X8.0118Y-3.6063
X8.0157Y-3.126
X8.0197Y-4.0669
X8.0354Y-2.6535
X8.122Y-4.4291
X8.1496Y-2.6575
X8.1496Y-3.126
X8.1496Y-3.6024
X8.1496Y-4.0748
T4
X2.0709Y-2.1654
X2.0709Y-5.7087
X2.0985Y-2.0985
X2.0985Y-2.2322
X2.0985Y-5.6418
X2.0985Y-5.7755
X2.1654Y-2.0709
X2.1654Y-2.2598
X2.1654Y-5.6142
X2.1654Y-5.8031
X2.2322Y-2.0985
X2.2322Y-2.2322
X2.2322Y-5.6418
X2.2322Y-5.7755
X2.2598Y-2.1654
X2.2598Y-5.7087
X8.3701Y-2.1654
X8.3701Y-5.7087
X8.3978Y-2.0985
X8.3978Y-2.2322
X8.3978Y-5.6418
X8.3978Y-5.7755
X8.4646Y-2.0709
X8.4646Y-2.2598
X8.4646Y-5.6142
X8.4646Y-5.8031
X8.5314Y-2.0985
X8.5314Y-2.2322
X8.5314Y-5.6418
X8.5314Y-5.7755
X8.5591Y-2.1654
X8.5591Y-5.7087
T5
X5.7524Y-4.6244
X5.8024Y-4.7244
X5.8524Y-4.6244
X5.9024Y-4.7244
X5.9524Y-4.6244
X6.0024Y-4.7244
X6.0524Y-4.6244
X6.1024Y-4.7244
T6
X2.7362Y-2.4016
X2.7362Y-2.9724
X2.7362Y-3.7008
X2.7362Y-4.2717
X2.8346Y-2.9724
X2.8346Y-4.2717
X2.9331Y-2.4016
X2.9331Y-2.9724
X2.9331Y-3.7008
X2.9331Y-4.2717
X3.0913Y-5.7874
X3.1913Y-5.7874
X3.2913Y-5.7874
X3.3189Y-4.1024
X3.3913Y-5.7874
X3.4189Y-4.1024
X3.7165Y-3.1177
X3.7165Y-3.2177
X3.7165Y-3.3177
X3.7165Y-3.4177
X3.7402Y-5.7874
X3.8402Y-5.7874
X3.9402Y-5.7874
X4.0402Y-5.7874
X4.1402Y-5.7874
X4.2402Y-5.7874
X4.3402Y-5.7874
X4.4402Y-5.7874
X4.5402Y-5.7874
X4.6402Y-5.7874
X4.8583Y-3.3976
X4.8622Y-5.0591
X4.9583Y-3.3976
X4.9606Y-5.0591
X5.0394Y-5.7874
X5.0591Y-5.0591
X5.1394Y-5.7874
X5.2394Y-5.7874
X5.2559Y-5.4724
X5.3394Y-5.7874
X5.3543Y-5.4724
X5.4315Y-4.3228
X5.4394Y-5.7874
X5.4528Y-5.4724
X5.5315Y-4.3228
X5.5394Y-5.7874
X5.6394Y-5.7874
X5.7394Y-5.7874
X5.9222Y-5.4291
X6.0024Y-4.0433
X6.0222Y-5.4291
X6.0693Y-3.6181
X6.0866Y-5.7874
X6.1024Y-4.0433
X6.1693Y-3.6181
X6.1866Y-5.7874
X6.2024Y-4.0433
X6.2693Y-3.6181
X6.2866Y-5.7874
X6.3693Y-3.6181
X6.3866Y-5.7874
X6.4693Y-3.6181
X6.4866Y-5.7874
X6.5693Y-3.6181
X6.5866Y-5.7874
X6.6693Y-3.6181
X6.6866Y-5.7874
X6.7693Y-3.6181
X6.7866Y-5.7874
X6.8693Y-3.6181
X6.9693Y-3.6181
X7.0693Y-3.6181
X7.1654Y-5.7874
X7.1693Y-3.6181
X7.2654Y-5.7874
X7.5591Y-5.7874
X7.6591Y-5.7874
X7.811Y-2.6177
X7.811Y-2.7177
X7.811Y-2.8177
X7.811Y-2.9177
X7.811Y-3.0177
X7.811Y-3.1177
X7.811Y-3.2177
X7.811Y-3.3177
X7.811Y-3.4177
X7.811Y-3.5177
X7.811Y-3.6177
X7.811Y-3.7177
X7.811Y-3.8177
X7.811Y-3.9177
X8.0709Y-5.7874
X8.1709Y-5.7874
X8.2579Y-2.4311
X8.2579Y-2.687
X8.2579Y-2.9035
X8.2579Y-3.1594
X8.2579Y-3.376
X8.2579Y-3.6319
X8.2579Y-3.8484
X8.2579Y-4.1043
X8.3522Y-4.3268
X8.435Y-2.4311
X8.435Y-2.687
X8.435Y-2.9035
X8.435Y-3.1594
X8.435Y-3.376
X8.435Y-3.6319
X8.435Y-3.8484
X8.435Y-4.1043
X8.4522Y-4.3268
X8.5522Y-4.3268
T7
X6.6866Y-4.6386
X6.6866Y-5.3386
X6.6957Y-4.8886
X6.6957Y-4.9886
X6.6957Y-5.0886
X6.7866Y-4.6386
X6.7866Y-5.3386
X6.8866Y-4.6386
X6.8866Y-5.3386
X6.9866Y-4.6386
X6.9866Y-5.3386
X7.0866Y-4.6386
X7.0866Y-5.3386
X7.1866Y-4.6386
X7.1866Y-5.3386
X7.2866Y-4.6386
X7.2866Y-5.3386
X7.3866Y-4.6386
X7.3866Y-5.3386
X7.4866Y-4.6386
X7.4866Y-5.3386
X7.5866Y-4.6386
X7.5866Y-5.3386
X7.6866Y-4.6386
X7.6866Y-5.3386
X7.7866Y-4.6386
X7.7866Y-5.3386
X7.8866Y-4.6386
X7.8866Y-5.3386
X7.9866Y-4.6386
X7.9866Y-5.3386
X8.0866Y-4.6386
X8.0866Y-5.3386
X8.1866Y-4.6386
X8.1866Y-5.3386
X8.2866Y-4.6386
X8.2866Y-5.3386
X8.3866Y-4.6386
X8.3866Y-5.3386
X8.4866Y-4.6386
X8.4866Y-5.3386
X8.5866Y-4.6386
X8.5866Y-5.3386
T8
X2.1654Y-5.3543
X2.6772Y-5.3543
X3.189Y-5.3543
X3.7008Y-5.3543
X3.7323Y-4.9646
X3.752Y-4.7047
X3.8189Y-4.8031
X3.8858Y-4.6063
X3.9055Y-4.9016
X4.2441Y-4.9646
X4.2638Y-4.7047
X4.3307Y-4.8031
X4.3976Y-4.6063
X4.4173Y-4.9016
T9
X2.065Y-5.2539
X2.065Y-5.4547
X2.2657Y-5.2539
X2.2657Y-5.4547
X2.5768Y-5.2539
X2.5768Y-5.4547
X2.7776Y-5.2539
X2.7776Y-5.4547
X3.0886Y-5.2539
X3.0886Y-5.4547
X3.2894Y-5.2539
X3.2894Y-5.4547
X3.6004Y-5.2539
X3.6004Y-5.4547
X3.8012Y-5.2539
X3.8012Y-5.4547
T11
X2.1654Y-2.1654
X2.1654Y-5.7087
X8.4646Y-2.1654
X8.4646Y-5.7087
T10
X5.1457Y-5.189G85X5.1457Y-5.2047
G05
X5.563Y-5.189G85X5.563Y-5.2047
G05
M30
