%TF.GenerationSoftware,KiCad,Pcbnew,7.0.10-7.0.10~ubuntu22.04.1*%
%TF.CreationDate,2024-01-04T09:02:16-08:00*%
%TF.ProjectId,YamhillFrontPanel,59616d68-696c-46c4-9672-6f6e7450616e,A*%
%TF.SameCoordinates,Original*%
%TF.FileFunction,Drillmap*%
%TF.FilePolarity,Positive*%
%FSLAX45Y45*%
G04 Gerber Fmt 4.5, Leading zero omitted, Abs format (unit mm)*
G04 Created by KiCad (PCBNEW 7.0.10-7.0.10~ubuntu22.04.1) date 2024-01-04 09:02:16*
%MOMM*%
%LPD*%
G01*
G04 APERTURE LIST*
%ADD10C,0.200000*%
%ADD11C,0.110000*%
%ADD12C,0.100000*%
%ADD13C,0.150000*%
%ADD14C,0.180000*%
%ADD15C,0.320000*%
%ADD16C,0.345000*%
G04 APERTURE END LIST*
D10*
X21800000Y-15000000D02*
X5200000Y-15000000D01*
X5000000Y-14800000D02*
G75*
G03*
X5200000Y-15000000I200000J0D01*
G01*
X22000000Y-5200000D02*
G75*
G03*
X21800000Y-5000000I-200000J0D01*
G01*
X5200000Y-5000000D02*
G75*
G03*
X5000000Y-5200000I0J-200000D01*
G01*
X5000000Y-14800000D02*
X5000000Y-5200000D01*
X5200000Y-5000000D02*
X21800000Y-5000000D01*
X21800000Y-15000000D02*
G75*
G03*
X22000000Y-14800000I0J200000D01*
G01*
X22000000Y-5200000D02*
X22000000Y-14800000D01*
D11*
X12070000Y-12145000D02*
X12180000Y-12255000D01*
X12180000Y-12145000D02*
X12070000Y-12255000D01*
D12*
X12160000Y-12145000D02*
X12090000Y-12145000D01*
X12090000Y-12145000D02*
G75*
G03*
X12090000Y-12255000I0J-55000D01*
G01*
X12090000Y-12255000D02*
X12160000Y-12255000D01*
X12160000Y-12255000D02*
G75*
G03*
X12160000Y-12145000I0J55000D01*
G01*
D11*
X13020000Y-12145000D02*
X13130000Y-12255000D01*
X13130000Y-12145000D02*
X13020000Y-12255000D01*
D12*
X13110000Y-12145000D02*
X13040000Y-12145000D01*
X13040000Y-12145000D02*
G75*
G03*
X13040000Y-12255000I0J-55000D01*
G01*
X13040000Y-12255000D02*
X13110000Y-12255000D01*
X13110000Y-12255000D02*
G75*
G03*
X13110000Y-12145000I0J55000D01*
G01*
D13*
X21569000Y-12428500D02*
G75*
G03*
X21419000Y-12428500I-75000J0D01*
G01*
X21419000Y-12428500D02*
G75*
G03*
X21569000Y-12428500I75000J0D01*
G01*
X21569000Y-12913500D02*
G75*
G03*
X21419000Y-12913500I-75000J0D01*
G01*
X21419000Y-12913500D02*
G75*
G03*
X21569000Y-12913500I75000J0D01*
G01*
D14*
X6630000Y-6710000D02*
X6630000Y-6890000D01*
X6540000Y-6800000D02*
X6720000Y-6800000D01*
D12*
X6720000Y-6840000D02*
X6720000Y-6760000D01*
X6720000Y-6760000D02*
G75*
G03*
X6540000Y-6760000I-90000J0D01*
G01*
X6540000Y-6760000D02*
X6540000Y-6840000D01*
X6540000Y-6840000D02*
G75*
G03*
X6720000Y-6840000I90000J0D01*
G01*
D14*
X6630000Y-10010000D02*
X6630000Y-10190000D01*
X6540000Y-10100000D02*
X6720000Y-10100000D01*
D12*
X6720000Y-10140000D02*
X6720000Y-10060000D01*
X6720000Y-10060000D02*
G75*
G03*
X6540000Y-10060000I-90000J0D01*
G01*
X6540000Y-10060000D02*
X6540000Y-10140000D01*
X6540000Y-10140000D02*
G75*
G03*
X6720000Y-10140000I90000J0D01*
G01*
D14*
X7770000Y-6710000D02*
X7770000Y-6890000D01*
X7680000Y-6800000D02*
X7860000Y-6800000D01*
D12*
X7860000Y-6840000D02*
X7860000Y-6760000D01*
X7860000Y-6760000D02*
G75*
G03*
X7680000Y-6760000I-90000J0D01*
G01*
X7680000Y-6760000D02*
X7680000Y-6840000D01*
X7680000Y-6840000D02*
G75*
G03*
X7860000Y-6840000I90000J0D01*
G01*
D14*
X7770000Y-10010000D02*
X7770000Y-10190000D01*
X7680000Y-10100000D02*
X7860000Y-10100000D01*
D12*
X7860000Y-10140000D02*
X7860000Y-10060000D01*
X7860000Y-10060000D02*
G75*
G03*
X7680000Y-10060000I-90000J0D01*
G01*
X7680000Y-10060000D02*
X7680000Y-10140000D01*
X7680000Y-10140000D02*
G75*
G03*
X7860000Y-10140000I90000J0D01*
G01*
D14*
X21797000Y-12308500D02*
X21797000Y-12488500D01*
X21707000Y-12398500D02*
X21887000Y-12398500D01*
X21797000Y-12853500D02*
X21797000Y-13033500D01*
X21707000Y-12943500D02*
X21887000Y-12943500D01*
D15*
X9653138Y-5668138D02*
X9653138Y-5441862D01*
X9426862Y-5441862D01*
X9426862Y-5668138D01*
X9653138Y-5668138D01*
X9653138Y-11158138D02*
X9653138Y-10931862D01*
X9426862Y-10931862D01*
X9426862Y-11158138D01*
X9653138Y-11158138D01*
X19853138Y-5668138D02*
X19853138Y-5441862D01*
X19626862Y-5441862D01*
X19626862Y-5668138D01*
X19853138Y-5668138D01*
X19853138Y-11158138D02*
X19853138Y-10931862D01*
X19626862Y-10931862D01*
X19626862Y-11158138D01*
X19853138Y-11158138D01*
D16*
X14484000Y-12807500D02*
X14656500Y-12635000D01*
X14484000Y-12462500D01*
X14311500Y-12635000D01*
X14484000Y-12807500D01*
X15627000Y-12807500D02*
X15799500Y-12635000D01*
X15627000Y-12462500D01*
X15454500Y-12635000D01*
X15627000Y-12807500D01*
D10*
X5250777Y-15321484D02*
X5250777Y-15121484D01*
X5250777Y-15121484D02*
X5298396Y-15121484D01*
X5298396Y-15121484D02*
X5326967Y-15131008D01*
X5326967Y-15131008D02*
X5346015Y-15150055D01*
X5346015Y-15150055D02*
X5355539Y-15169103D01*
X5355539Y-15169103D02*
X5365063Y-15207198D01*
X5365063Y-15207198D02*
X5365063Y-15235769D01*
X5365063Y-15235769D02*
X5355539Y-15273865D01*
X5355539Y-15273865D02*
X5346015Y-15292912D01*
X5346015Y-15292912D02*
X5326967Y-15311960D01*
X5326967Y-15311960D02*
X5298396Y-15321484D01*
X5298396Y-15321484D02*
X5250777Y-15321484D01*
X5450777Y-15321484D02*
X5450777Y-15188150D01*
X5450777Y-15226246D02*
X5460301Y-15207198D01*
X5460301Y-15207198D02*
X5469824Y-15197674D01*
X5469824Y-15197674D02*
X5488872Y-15188150D01*
X5488872Y-15188150D02*
X5507920Y-15188150D01*
X5574586Y-15321484D02*
X5574586Y-15188150D01*
X5574586Y-15121484D02*
X5565063Y-15131008D01*
X5565063Y-15131008D02*
X5574586Y-15140531D01*
X5574586Y-15140531D02*
X5584110Y-15131008D01*
X5584110Y-15131008D02*
X5574586Y-15121484D01*
X5574586Y-15121484D02*
X5574586Y-15140531D01*
X5698396Y-15321484D02*
X5679348Y-15311960D01*
X5679348Y-15311960D02*
X5669824Y-15292912D01*
X5669824Y-15292912D02*
X5669824Y-15121484D01*
X5803158Y-15321484D02*
X5784110Y-15311960D01*
X5784110Y-15311960D02*
X5774586Y-15292912D01*
X5774586Y-15292912D02*
X5774586Y-15121484D01*
X6031729Y-15321484D02*
X6031729Y-15121484D01*
X6031729Y-15121484D02*
X6098396Y-15264341D01*
X6098396Y-15264341D02*
X6165062Y-15121484D01*
X6165062Y-15121484D02*
X6165062Y-15321484D01*
X6346015Y-15321484D02*
X6346015Y-15216722D01*
X6346015Y-15216722D02*
X6336491Y-15197674D01*
X6336491Y-15197674D02*
X6317443Y-15188150D01*
X6317443Y-15188150D02*
X6279348Y-15188150D01*
X6279348Y-15188150D02*
X6260301Y-15197674D01*
X6346015Y-15311960D02*
X6326967Y-15321484D01*
X6326967Y-15321484D02*
X6279348Y-15321484D01*
X6279348Y-15321484D02*
X6260301Y-15311960D01*
X6260301Y-15311960D02*
X6250777Y-15292912D01*
X6250777Y-15292912D02*
X6250777Y-15273865D01*
X6250777Y-15273865D02*
X6260301Y-15254817D01*
X6260301Y-15254817D02*
X6279348Y-15245293D01*
X6279348Y-15245293D02*
X6326967Y-15245293D01*
X6326967Y-15245293D02*
X6346015Y-15235769D01*
X6441253Y-15188150D02*
X6441253Y-15388150D01*
X6441253Y-15197674D02*
X6460301Y-15188150D01*
X6460301Y-15188150D02*
X6498396Y-15188150D01*
X6498396Y-15188150D02*
X6517443Y-15197674D01*
X6517443Y-15197674D02*
X6526967Y-15207198D01*
X6526967Y-15207198D02*
X6536491Y-15226246D01*
X6536491Y-15226246D02*
X6536491Y-15283388D01*
X6536491Y-15283388D02*
X6526967Y-15302436D01*
X6526967Y-15302436D02*
X6517443Y-15311960D01*
X6517443Y-15311960D02*
X6498396Y-15321484D01*
X6498396Y-15321484D02*
X6460301Y-15321484D01*
X6460301Y-15321484D02*
X6441253Y-15311960D01*
X6622205Y-15302436D02*
X6631729Y-15311960D01*
X6631729Y-15311960D02*
X6622205Y-15321484D01*
X6622205Y-15321484D02*
X6612682Y-15311960D01*
X6612682Y-15311960D02*
X6622205Y-15302436D01*
X6622205Y-15302436D02*
X6622205Y-15321484D01*
X6622205Y-15197674D02*
X6631729Y-15207198D01*
X6631729Y-15207198D02*
X6622205Y-15216722D01*
X6622205Y-15216722D02*
X6612682Y-15207198D01*
X6612682Y-15207198D02*
X6622205Y-15197674D01*
X6622205Y-15197674D02*
X6622205Y-15216722D01*
D11*
X4880000Y-15595000D02*
X4990000Y-15705000D01*
X4990000Y-15595000D02*
X4880000Y-15705000D01*
D10*
X5355539Y-15741484D02*
X5241253Y-15741484D01*
X5298396Y-15741484D02*
X5298396Y-15541484D01*
X5298396Y-15541484D02*
X5279348Y-15570055D01*
X5279348Y-15570055D02*
X5260301Y-15589103D01*
X5260301Y-15589103D02*
X5241253Y-15598627D01*
X5441253Y-15722436D02*
X5450777Y-15731960D01*
X5450777Y-15731960D02*
X5441253Y-15741484D01*
X5441253Y-15741484D02*
X5431729Y-15731960D01*
X5431729Y-15731960D02*
X5441253Y-15722436D01*
X5441253Y-15722436D02*
X5441253Y-15741484D01*
X5641253Y-15741484D02*
X5526967Y-15741484D01*
X5584110Y-15741484D02*
X5584110Y-15541484D01*
X5584110Y-15541484D02*
X5565063Y-15570055D01*
X5565063Y-15570055D02*
X5546015Y-15589103D01*
X5546015Y-15589103D02*
X5526967Y-15598627D01*
X5765062Y-15541484D02*
X5784110Y-15541484D01*
X5784110Y-15541484D02*
X5803158Y-15551008D01*
X5803158Y-15551008D02*
X5812682Y-15560531D01*
X5812682Y-15560531D02*
X5822205Y-15579579D01*
X5822205Y-15579579D02*
X5831729Y-15617674D01*
X5831729Y-15617674D02*
X5831729Y-15665293D01*
X5831729Y-15665293D02*
X5822205Y-15703388D01*
X5822205Y-15703388D02*
X5812682Y-15722436D01*
X5812682Y-15722436D02*
X5803158Y-15731960D01*
X5803158Y-15731960D02*
X5784110Y-15741484D01*
X5784110Y-15741484D02*
X5765062Y-15741484D01*
X5765062Y-15741484D02*
X5746015Y-15731960D01*
X5746015Y-15731960D02*
X5736491Y-15722436D01*
X5736491Y-15722436D02*
X5726967Y-15703388D01*
X5726967Y-15703388D02*
X5717443Y-15665293D01*
X5717443Y-15665293D02*
X5717443Y-15617674D01*
X5717443Y-15617674D02*
X5726967Y-15579579D01*
X5726967Y-15579579D02*
X5736491Y-15560531D01*
X5736491Y-15560531D02*
X5746015Y-15551008D01*
X5746015Y-15551008D02*
X5765062Y-15541484D01*
X5955539Y-15541484D02*
X5974586Y-15541484D01*
X5974586Y-15541484D02*
X5993634Y-15551008D01*
X5993634Y-15551008D02*
X6003158Y-15560531D01*
X6003158Y-15560531D02*
X6012682Y-15579579D01*
X6012682Y-15579579D02*
X6022205Y-15617674D01*
X6022205Y-15617674D02*
X6022205Y-15665293D01*
X6022205Y-15665293D02*
X6012682Y-15703388D01*
X6012682Y-15703388D02*
X6003158Y-15722436D01*
X6003158Y-15722436D02*
X5993634Y-15731960D01*
X5993634Y-15731960D02*
X5974586Y-15741484D01*
X5974586Y-15741484D02*
X5955539Y-15741484D01*
X5955539Y-15741484D02*
X5936491Y-15731960D01*
X5936491Y-15731960D02*
X5926967Y-15722436D01*
X5926967Y-15722436D02*
X5917443Y-15703388D01*
X5917443Y-15703388D02*
X5907920Y-15665293D01*
X5907920Y-15665293D02*
X5907920Y-15617674D01*
X5907920Y-15617674D02*
X5917443Y-15579579D01*
X5917443Y-15579579D02*
X5926967Y-15560531D01*
X5926967Y-15560531D02*
X5936491Y-15551008D01*
X5936491Y-15551008D02*
X5955539Y-15541484D01*
X6107920Y-15741484D02*
X6107920Y-15608150D01*
X6107920Y-15627198D02*
X6117443Y-15617674D01*
X6117443Y-15617674D02*
X6136491Y-15608150D01*
X6136491Y-15608150D02*
X6165063Y-15608150D01*
X6165063Y-15608150D02*
X6184110Y-15617674D01*
X6184110Y-15617674D02*
X6193634Y-15636722D01*
X6193634Y-15636722D02*
X6193634Y-15741484D01*
X6193634Y-15636722D02*
X6203158Y-15617674D01*
X6203158Y-15617674D02*
X6222205Y-15608150D01*
X6222205Y-15608150D02*
X6250777Y-15608150D01*
X6250777Y-15608150D02*
X6269824Y-15617674D01*
X6269824Y-15617674D02*
X6279348Y-15636722D01*
X6279348Y-15636722D02*
X6279348Y-15741484D01*
X6374586Y-15741484D02*
X6374586Y-15608150D01*
X6374586Y-15627198D02*
X6384110Y-15617674D01*
X6384110Y-15617674D02*
X6403158Y-15608150D01*
X6403158Y-15608150D02*
X6431729Y-15608150D01*
X6431729Y-15608150D02*
X6450777Y-15617674D01*
X6450777Y-15617674D02*
X6460301Y-15636722D01*
X6460301Y-15636722D02*
X6460301Y-15741484D01*
X6460301Y-15636722D02*
X6469824Y-15617674D01*
X6469824Y-15617674D02*
X6488872Y-15608150D01*
X6488872Y-15608150D02*
X6517443Y-15608150D01*
X6517443Y-15608150D02*
X6536491Y-15617674D01*
X6536491Y-15617674D02*
X6546015Y-15636722D01*
X6546015Y-15636722D02*
X6546015Y-15741484D01*
X6936491Y-15531960D02*
X6765063Y-15789103D01*
X7193634Y-15541484D02*
X7212682Y-15541484D01*
X7212682Y-15541484D02*
X7231729Y-15551008D01*
X7231729Y-15551008D02*
X7241253Y-15560531D01*
X7241253Y-15560531D02*
X7250777Y-15579579D01*
X7250777Y-15579579D02*
X7260301Y-15617674D01*
X7260301Y-15617674D02*
X7260301Y-15665293D01*
X7260301Y-15665293D02*
X7250777Y-15703388D01*
X7250777Y-15703388D02*
X7241253Y-15722436D01*
X7241253Y-15722436D02*
X7231729Y-15731960D01*
X7231729Y-15731960D02*
X7212682Y-15741484D01*
X7212682Y-15741484D02*
X7193634Y-15741484D01*
X7193634Y-15741484D02*
X7174586Y-15731960D01*
X7174586Y-15731960D02*
X7165063Y-15722436D01*
X7165063Y-15722436D02*
X7155539Y-15703388D01*
X7155539Y-15703388D02*
X7146015Y-15665293D01*
X7146015Y-15665293D02*
X7146015Y-15617674D01*
X7146015Y-15617674D02*
X7155539Y-15579579D01*
X7155539Y-15579579D02*
X7165063Y-15560531D01*
X7165063Y-15560531D02*
X7174586Y-15551008D01*
X7174586Y-15551008D02*
X7193634Y-15541484D01*
X7346015Y-15722436D02*
X7355539Y-15731960D01*
X7355539Y-15731960D02*
X7346015Y-15741484D01*
X7346015Y-15741484D02*
X7336491Y-15731960D01*
X7336491Y-15731960D02*
X7346015Y-15722436D01*
X7346015Y-15722436D02*
X7346015Y-15741484D01*
X7479348Y-15541484D02*
X7498396Y-15541484D01*
X7498396Y-15541484D02*
X7517444Y-15551008D01*
X7517444Y-15551008D02*
X7526967Y-15560531D01*
X7526967Y-15560531D02*
X7536491Y-15579579D01*
X7536491Y-15579579D02*
X7546015Y-15617674D01*
X7546015Y-15617674D02*
X7546015Y-15665293D01*
X7546015Y-15665293D02*
X7536491Y-15703388D01*
X7536491Y-15703388D02*
X7526967Y-15722436D01*
X7526967Y-15722436D02*
X7517444Y-15731960D01*
X7517444Y-15731960D02*
X7498396Y-15741484D01*
X7498396Y-15741484D02*
X7479348Y-15741484D01*
X7479348Y-15741484D02*
X7460301Y-15731960D01*
X7460301Y-15731960D02*
X7450777Y-15722436D01*
X7450777Y-15722436D02*
X7441253Y-15703388D01*
X7441253Y-15703388D02*
X7431729Y-15665293D01*
X7431729Y-15665293D02*
X7431729Y-15617674D01*
X7431729Y-15617674D02*
X7441253Y-15579579D01*
X7441253Y-15579579D02*
X7450777Y-15560531D01*
X7450777Y-15560531D02*
X7460301Y-15551008D01*
X7460301Y-15551008D02*
X7479348Y-15541484D01*
X7717444Y-15608150D02*
X7717444Y-15741484D01*
X7669825Y-15531960D02*
X7622206Y-15674817D01*
X7622206Y-15674817D02*
X7746015Y-15674817D01*
X7803158Y-15541484D02*
X7926967Y-15541484D01*
X7926967Y-15541484D02*
X7860301Y-15617674D01*
X7860301Y-15617674D02*
X7888872Y-15617674D01*
X7888872Y-15617674D02*
X7907920Y-15627198D01*
X7907920Y-15627198D02*
X7917444Y-15636722D01*
X7917444Y-15636722D02*
X7926967Y-15655769D01*
X7926967Y-15655769D02*
X7926967Y-15703388D01*
X7926967Y-15703388D02*
X7917444Y-15722436D01*
X7917444Y-15722436D02*
X7907920Y-15731960D01*
X7907920Y-15731960D02*
X7888872Y-15741484D01*
X7888872Y-15741484D02*
X7831729Y-15741484D01*
X7831729Y-15741484D02*
X7812682Y-15731960D01*
X7812682Y-15731960D02*
X7803158Y-15722436D01*
X7993634Y-15541484D02*
X8117444Y-15541484D01*
X8117444Y-15541484D02*
X8050777Y-15617674D01*
X8050777Y-15617674D02*
X8079348Y-15617674D01*
X8079348Y-15617674D02*
X8098396Y-15627198D01*
X8098396Y-15627198D02*
X8107920Y-15636722D01*
X8107920Y-15636722D02*
X8117444Y-15655769D01*
X8117444Y-15655769D02*
X8117444Y-15703388D01*
X8117444Y-15703388D02*
X8107920Y-15722436D01*
X8107920Y-15722436D02*
X8098396Y-15731960D01*
X8098396Y-15731960D02*
X8079348Y-15741484D01*
X8079348Y-15741484D02*
X8022206Y-15741484D01*
X8022206Y-15741484D02*
X8003158Y-15731960D01*
X8003158Y-15731960D02*
X7993634Y-15722436D01*
X8193634Y-15541484D02*
X8193634Y-15579579D01*
X8269825Y-15541484D02*
X8269825Y-15579579D01*
X8565063Y-15817674D02*
X8555539Y-15808150D01*
X8555539Y-15808150D02*
X8536491Y-15779579D01*
X8536491Y-15779579D02*
X8526968Y-15760531D01*
X8526968Y-15760531D02*
X8517444Y-15731960D01*
X8517444Y-15731960D02*
X8507920Y-15684341D01*
X8507920Y-15684341D02*
X8507920Y-15646246D01*
X8507920Y-15646246D02*
X8517444Y-15598627D01*
X8517444Y-15598627D02*
X8526968Y-15570055D01*
X8526968Y-15570055D02*
X8536491Y-15551008D01*
X8536491Y-15551008D02*
X8555539Y-15522436D01*
X8555539Y-15522436D02*
X8565063Y-15512912D01*
X8679349Y-15541484D02*
X8698396Y-15541484D01*
X8698396Y-15541484D02*
X8717444Y-15551008D01*
X8717444Y-15551008D02*
X8726968Y-15560531D01*
X8726968Y-15560531D02*
X8736491Y-15579579D01*
X8736491Y-15579579D02*
X8746015Y-15617674D01*
X8746015Y-15617674D02*
X8746015Y-15665293D01*
X8746015Y-15665293D02*
X8736491Y-15703388D01*
X8736491Y-15703388D02*
X8726968Y-15722436D01*
X8726968Y-15722436D02*
X8717444Y-15731960D01*
X8717444Y-15731960D02*
X8698396Y-15741484D01*
X8698396Y-15741484D02*
X8679349Y-15741484D01*
X8679349Y-15741484D02*
X8660301Y-15731960D01*
X8660301Y-15731960D02*
X8650777Y-15722436D01*
X8650777Y-15722436D02*
X8641253Y-15703388D01*
X8641253Y-15703388D02*
X8631730Y-15665293D01*
X8631730Y-15665293D02*
X8631730Y-15617674D01*
X8631730Y-15617674D02*
X8641253Y-15579579D01*
X8641253Y-15579579D02*
X8650777Y-15560531D01*
X8650777Y-15560531D02*
X8660301Y-15551008D01*
X8660301Y-15551008D02*
X8679349Y-15541484D01*
X8984111Y-15741484D02*
X8984111Y-15541484D01*
X9069825Y-15741484D02*
X9069825Y-15636722D01*
X9069825Y-15636722D02*
X9060301Y-15617674D01*
X9060301Y-15617674D02*
X9041253Y-15608150D01*
X9041253Y-15608150D02*
X9012682Y-15608150D01*
X9012682Y-15608150D02*
X8993634Y-15617674D01*
X8993634Y-15617674D02*
X8984111Y-15627198D01*
X9193634Y-15741484D02*
X9174587Y-15731960D01*
X9174587Y-15731960D02*
X9165063Y-15722436D01*
X9165063Y-15722436D02*
X9155539Y-15703388D01*
X9155539Y-15703388D02*
X9155539Y-15646246D01*
X9155539Y-15646246D02*
X9165063Y-15627198D01*
X9165063Y-15627198D02*
X9174587Y-15617674D01*
X9174587Y-15617674D02*
X9193634Y-15608150D01*
X9193634Y-15608150D02*
X9222206Y-15608150D01*
X9222206Y-15608150D02*
X9241253Y-15617674D01*
X9241253Y-15617674D02*
X9250777Y-15627198D01*
X9250777Y-15627198D02*
X9260301Y-15646246D01*
X9260301Y-15646246D02*
X9260301Y-15703388D01*
X9260301Y-15703388D02*
X9250777Y-15722436D01*
X9250777Y-15722436D02*
X9241253Y-15731960D01*
X9241253Y-15731960D02*
X9222206Y-15741484D01*
X9222206Y-15741484D02*
X9193634Y-15741484D01*
X9374587Y-15741484D02*
X9355539Y-15731960D01*
X9355539Y-15731960D02*
X9346015Y-15712912D01*
X9346015Y-15712912D02*
X9346015Y-15541484D01*
X9526968Y-15731960D02*
X9507920Y-15741484D01*
X9507920Y-15741484D02*
X9469825Y-15741484D01*
X9469825Y-15741484D02*
X9450777Y-15731960D01*
X9450777Y-15731960D02*
X9441253Y-15712912D01*
X9441253Y-15712912D02*
X9441253Y-15636722D01*
X9441253Y-15636722D02*
X9450777Y-15617674D01*
X9450777Y-15617674D02*
X9469825Y-15608150D01*
X9469825Y-15608150D02*
X9507920Y-15608150D01*
X9507920Y-15608150D02*
X9526968Y-15617674D01*
X9526968Y-15617674D02*
X9536492Y-15636722D01*
X9536492Y-15636722D02*
X9536492Y-15655769D01*
X9536492Y-15655769D02*
X9441253Y-15674817D01*
X9612682Y-15731960D02*
X9631730Y-15741484D01*
X9631730Y-15741484D02*
X9669825Y-15741484D01*
X9669825Y-15741484D02*
X9688873Y-15731960D01*
X9688873Y-15731960D02*
X9698396Y-15712912D01*
X9698396Y-15712912D02*
X9698396Y-15703388D01*
X9698396Y-15703388D02*
X9688873Y-15684341D01*
X9688873Y-15684341D02*
X9669825Y-15674817D01*
X9669825Y-15674817D02*
X9641253Y-15674817D01*
X9641253Y-15674817D02*
X9622206Y-15665293D01*
X9622206Y-15665293D02*
X9612682Y-15646246D01*
X9612682Y-15646246D02*
X9612682Y-15636722D01*
X9612682Y-15636722D02*
X9622206Y-15617674D01*
X9622206Y-15617674D02*
X9641253Y-15608150D01*
X9641253Y-15608150D02*
X9669825Y-15608150D01*
X9669825Y-15608150D02*
X9688873Y-15617674D01*
X9936492Y-15665293D02*
X10088873Y-15665293D01*
X10012682Y-15741484D02*
X10012682Y-15589103D01*
X10326968Y-15560531D02*
X10336492Y-15551008D01*
X10336492Y-15551008D02*
X10355539Y-15541484D01*
X10355539Y-15541484D02*
X10403158Y-15541484D01*
X10403158Y-15541484D02*
X10422206Y-15551008D01*
X10422206Y-15551008D02*
X10431730Y-15560531D01*
X10431730Y-15560531D02*
X10441254Y-15579579D01*
X10441254Y-15579579D02*
X10441254Y-15598627D01*
X10441254Y-15598627D02*
X10431730Y-15627198D01*
X10431730Y-15627198D02*
X10317444Y-15741484D01*
X10317444Y-15741484D02*
X10441254Y-15741484D01*
X10669825Y-15731960D02*
X10688873Y-15741484D01*
X10688873Y-15741484D02*
X10726968Y-15741484D01*
X10726968Y-15741484D02*
X10746016Y-15731960D01*
X10746016Y-15731960D02*
X10755539Y-15712912D01*
X10755539Y-15712912D02*
X10755539Y-15703388D01*
X10755539Y-15703388D02*
X10746016Y-15684341D01*
X10746016Y-15684341D02*
X10726968Y-15674817D01*
X10726968Y-15674817D02*
X10698396Y-15674817D01*
X10698396Y-15674817D02*
X10679349Y-15665293D01*
X10679349Y-15665293D02*
X10669825Y-15646246D01*
X10669825Y-15646246D02*
X10669825Y-15636722D01*
X10669825Y-15636722D02*
X10679349Y-15617674D01*
X10679349Y-15617674D02*
X10698396Y-15608150D01*
X10698396Y-15608150D02*
X10726968Y-15608150D01*
X10726968Y-15608150D02*
X10746016Y-15617674D01*
X10869825Y-15741484D02*
X10850777Y-15731960D01*
X10850777Y-15731960D02*
X10841254Y-15712912D01*
X10841254Y-15712912D02*
X10841254Y-15541484D01*
X10974587Y-15741484D02*
X10955539Y-15731960D01*
X10955539Y-15731960D02*
X10946016Y-15722436D01*
X10946016Y-15722436D02*
X10936492Y-15703388D01*
X10936492Y-15703388D02*
X10936492Y-15646246D01*
X10936492Y-15646246D02*
X10946016Y-15627198D01*
X10946016Y-15627198D02*
X10955539Y-15617674D01*
X10955539Y-15617674D02*
X10974587Y-15608150D01*
X10974587Y-15608150D02*
X11003158Y-15608150D01*
X11003158Y-15608150D02*
X11022206Y-15617674D01*
X11022206Y-15617674D02*
X11031730Y-15627198D01*
X11031730Y-15627198D02*
X11041254Y-15646246D01*
X11041254Y-15646246D02*
X11041254Y-15703388D01*
X11041254Y-15703388D02*
X11031730Y-15722436D01*
X11031730Y-15722436D02*
X11022206Y-15731960D01*
X11022206Y-15731960D02*
X11003158Y-15741484D01*
X11003158Y-15741484D02*
X10974587Y-15741484D01*
X11098397Y-15608150D02*
X11174587Y-15608150D01*
X11126968Y-15541484D02*
X11126968Y-15712912D01*
X11126968Y-15712912D02*
X11136492Y-15731960D01*
X11136492Y-15731960D02*
X11155539Y-15741484D01*
X11155539Y-15741484D02*
X11174587Y-15741484D01*
X11231730Y-15731960D02*
X11250777Y-15741484D01*
X11250777Y-15741484D02*
X11288873Y-15741484D01*
X11288873Y-15741484D02*
X11307920Y-15731960D01*
X11307920Y-15731960D02*
X11317444Y-15712912D01*
X11317444Y-15712912D02*
X11317444Y-15703388D01*
X11317444Y-15703388D02*
X11307920Y-15684341D01*
X11307920Y-15684341D02*
X11288873Y-15674817D01*
X11288873Y-15674817D02*
X11260301Y-15674817D01*
X11260301Y-15674817D02*
X11241254Y-15665293D01*
X11241254Y-15665293D02*
X11231730Y-15646246D01*
X11231730Y-15646246D02*
X11231730Y-15636722D01*
X11231730Y-15636722D02*
X11241254Y-15617674D01*
X11241254Y-15617674D02*
X11260301Y-15608150D01*
X11260301Y-15608150D02*
X11288873Y-15608150D01*
X11288873Y-15608150D02*
X11307920Y-15617674D01*
X11384111Y-15817674D02*
X11393635Y-15808150D01*
X11393635Y-15808150D02*
X11412682Y-15779579D01*
X11412682Y-15779579D02*
X11422206Y-15760531D01*
X11422206Y-15760531D02*
X11431730Y-15731960D01*
X11431730Y-15731960D02*
X11441254Y-15684341D01*
X11441254Y-15684341D02*
X11441254Y-15646246D01*
X11441254Y-15646246D02*
X11431730Y-15598627D01*
X11431730Y-15598627D02*
X11422206Y-15570055D01*
X11422206Y-15570055D02*
X11412682Y-15551008D01*
X11412682Y-15551008D02*
X11393635Y-15522436D01*
X11393635Y-15522436D02*
X11384111Y-15512912D01*
X11746016Y-15817674D02*
X11736492Y-15808150D01*
X11736492Y-15808150D02*
X11717444Y-15779579D01*
X11717444Y-15779579D02*
X11707920Y-15760531D01*
X11707920Y-15760531D02*
X11698396Y-15731960D01*
X11698396Y-15731960D02*
X11688873Y-15684341D01*
X11688873Y-15684341D02*
X11688873Y-15646246D01*
X11688873Y-15646246D02*
X11698396Y-15598627D01*
X11698396Y-15598627D02*
X11707920Y-15570055D01*
X11707920Y-15570055D02*
X11717444Y-15551008D01*
X11717444Y-15551008D02*
X11736492Y-15522436D01*
X11736492Y-15522436D02*
X11746016Y-15512912D01*
X11822206Y-15608150D02*
X11822206Y-15741484D01*
X11822206Y-15627198D02*
X11831730Y-15617674D01*
X11831730Y-15617674D02*
X11850777Y-15608150D01*
X11850777Y-15608150D02*
X11879349Y-15608150D01*
X11879349Y-15608150D02*
X11898396Y-15617674D01*
X11898396Y-15617674D02*
X11907920Y-15636722D01*
X11907920Y-15636722D02*
X11907920Y-15741484D01*
X12031730Y-15741484D02*
X12012682Y-15731960D01*
X12012682Y-15731960D02*
X12003158Y-15722436D01*
X12003158Y-15722436D02*
X11993635Y-15703388D01*
X11993635Y-15703388D02*
X11993635Y-15646246D01*
X11993635Y-15646246D02*
X12003158Y-15627198D01*
X12003158Y-15627198D02*
X12012682Y-15617674D01*
X12012682Y-15617674D02*
X12031730Y-15608150D01*
X12031730Y-15608150D02*
X12060301Y-15608150D01*
X12060301Y-15608150D02*
X12079349Y-15617674D01*
X12079349Y-15617674D02*
X12088873Y-15627198D01*
X12088873Y-15627198D02*
X12098396Y-15646246D01*
X12098396Y-15646246D02*
X12098396Y-15703388D01*
X12098396Y-15703388D02*
X12088873Y-15722436D01*
X12088873Y-15722436D02*
X12079349Y-15731960D01*
X12079349Y-15731960D02*
X12060301Y-15741484D01*
X12060301Y-15741484D02*
X12031730Y-15741484D01*
X12155539Y-15608150D02*
X12231730Y-15608150D01*
X12184111Y-15541484D02*
X12184111Y-15712912D01*
X12184111Y-15712912D02*
X12193635Y-15731960D01*
X12193635Y-15731960D02*
X12212682Y-15741484D01*
X12212682Y-15741484D02*
X12231730Y-15741484D01*
X12450777Y-15608150D02*
X12450777Y-15808150D01*
X12450777Y-15617674D02*
X12469825Y-15608150D01*
X12469825Y-15608150D02*
X12507920Y-15608150D01*
X12507920Y-15608150D02*
X12526968Y-15617674D01*
X12526968Y-15617674D02*
X12536492Y-15627198D01*
X12536492Y-15627198D02*
X12546016Y-15646246D01*
X12546016Y-15646246D02*
X12546016Y-15703388D01*
X12546016Y-15703388D02*
X12536492Y-15722436D01*
X12536492Y-15722436D02*
X12526968Y-15731960D01*
X12526968Y-15731960D02*
X12507920Y-15741484D01*
X12507920Y-15741484D02*
X12469825Y-15741484D01*
X12469825Y-15741484D02*
X12450777Y-15731960D01*
X12660301Y-15741484D02*
X12641254Y-15731960D01*
X12641254Y-15731960D02*
X12631730Y-15712912D01*
X12631730Y-15712912D02*
X12631730Y-15541484D01*
X12822206Y-15741484D02*
X12822206Y-15636722D01*
X12822206Y-15636722D02*
X12812682Y-15617674D01*
X12812682Y-15617674D02*
X12793635Y-15608150D01*
X12793635Y-15608150D02*
X12755539Y-15608150D01*
X12755539Y-15608150D02*
X12736492Y-15617674D01*
X12822206Y-15731960D02*
X12803158Y-15741484D01*
X12803158Y-15741484D02*
X12755539Y-15741484D01*
X12755539Y-15741484D02*
X12736492Y-15731960D01*
X12736492Y-15731960D02*
X12726968Y-15712912D01*
X12726968Y-15712912D02*
X12726968Y-15693865D01*
X12726968Y-15693865D02*
X12736492Y-15674817D01*
X12736492Y-15674817D02*
X12755539Y-15665293D01*
X12755539Y-15665293D02*
X12803158Y-15665293D01*
X12803158Y-15665293D02*
X12822206Y-15655769D01*
X12888873Y-15608150D02*
X12965063Y-15608150D01*
X12917444Y-15541484D02*
X12917444Y-15712912D01*
X12917444Y-15712912D02*
X12926968Y-15731960D01*
X12926968Y-15731960D02*
X12946016Y-15741484D01*
X12946016Y-15741484D02*
X12965063Y-15741484D01*
X13107920Y-15731960D02*
X13088873Y-15741484D01*
X13088873Y-15741484D02*
X13050777Y-15741484D01*
X13050777Y-15741484D02*
X13031730Y-15731960D01*
X13031730Y-15731960D02*
X13022206Y-15712912D01*
X13022206Y-15712912D02*
X13022206Y-15636722D01*
X13022206Y-15636722D02*
X13031730Y-15617674D01*
X13031730Y-15617674D02*
X13050777Y-15608150D01*
X13050777Y-15608150D02*
X13088873Y-15608150D01*
X13088873Y-15608150D02*
X13107920Y-15617674D01*
X13107920Y-15617674D02*
X13117444Y-15636722D01*
X13117444Y-15636722D02*
X13117444Y-15655769D01*
X13117444Y-15655769D02*
X13022206Y-15674817D01*
X13288873Y-15741484D02*
X13288873Y-15541484D01*
X13288873Y-15731960D02*
X13269825Y-15741484D01*
X13269825Y-15741484D02*
X13231730Y-15741484D01*
X13231730Y-15741484D02*
X13212682Y-15731960D01*
X13212682Y-15731960D02*
X13203158Y-15722436D01*
X13203158Y-15722436D02*
X13193635Y-15703388D01*
X13193635Y-15703388D02*
X13193635Y-15646246D01*
X13193635Y-15646246D02*
X13203158Y-15627198D01*
X13203158Y-15627198D02*
X13212682Y-15617674D01*
X13212682Y-15617674D02*
X13231730Y-15608150D01*
X13231730Y-15608150D02*
X13269825Y-15608150D01*
X13269825Y-15608150D02*
X13288873Y-15617674D01*
X13365063Y-15817674D02*
X13374587Y-15808150D01*
X13374587Y-15808150D02*
X13393635Y-15779579D01*
X13393635Y-15779579D02*
X13403158Y-15760531D01*
X13403158Y-15760531D02*
X13412682Y-15731960D01*
X13412682Y-15731960D02*
X13422206Y-15684341D01*
X13422206Y-15684341D02*
X13422206Y-15646246D01*
X13422206Y-15646246D02*
X13412682Y-15598627D01*
X13412682Y-15598627D02*
X13403158Y-15570055D01*
X13403158Y-15570055D02*
X13393635Y-15551008D01*
X13393635Y-15551008D02*
X13374587Y-15522436D01*
X13374587Y-15522436D02*
X13365063Y-15512912D01*
D13*
X4990000Y-15914000D02*
G75*
G03*
X4840000Y-15914000I-75000J0D01*
G01*
X4840000Y-15914000D02*
G75*
G03*
X4990000Y-15914000I75000J0D01*
G01*
D10*
X5355539Y-16005484D02*
X5241253Y-16005484D01*
X5298396Y-16005484D02*
X5298396Y-15805484D01*
X5298396Y-15805484D02*
X5279348Y-15834055D01*
X5279348Y-15834055D02*
X5260301Y-15853103D01*
X5260301Y-15853103D02*
X5241253Y-15862627D01*
X5441253Y-15986436D02*
X5450777Y-15995960D01*
X5450777Y-15995960D02*
X5441253Y-16005484D01*
X5441253Y-16005484D02*
X5431729Y-15995960D01*
X5431729Y-15995960D02*
X5441253Y-15986436D01*
X5441253Y-15986436D02*
X5441253Y-16005484D01*
X5631729Y-15805484D02*
X5536491Y-15805484D01*
X5536491Y-15805484D02*
X5526967Y-15900722D01*
X5526967Y-15900722D02*
X5536491Y-15891198D01*
X5536491Y-15891198D02*
X5555539Y-15881674D01*
X5555539Y-15881674D02*
X5603158Y-15881674D01*
X5603158Y-15881674D02*
X5622205Y-15891198D01*
X5622205Y-15891198D02*
X5631729Y-15900722D01*
X5631729Y-15900722D02*
X5641253Y-15919769D01*
X5641253Y-15919769D02*
X5641253Y-15967388D01*
X5641253Y-15967388D02*
X5631729Y-15986436D01*
X5631729Y-15986436D02*
X5622205Y-15995960D01*
X5622205Y-15995960D02*
X5603158Y-16005484D01*
X5603158Y-16005484D02*
X5555539Y-16005484D01*
X5555539Y-16005484D02*
X5536491Y-15995960D01*
X5536491Y-15995960D02*
X5526967Y-15986436D01*
X5765062Y-15805484D02*
X5784110Y-15805484D01*
X5784110Y-15805484D02*
X5803158Y-15815008D01*
X5803158Y-15815008D02*
X5812682Y-15824531D01*
X5812682Y-15824531D02*
X5822205Y-15843579D01*
X5822205Y-15843579D02*
X5831729Y-15881674D01*
X5831729Y-15881674D02*
X5831729Y-15929293D01*
X5831729Y-15929293D02*
X5822205Y-15967388D01*
X5822205Y-15967388D02*
X5812682Y-15986436D01*
X5812682Y-15986436D02*
X5803158Y-15995960D01*
X5803158Y-15995960D02*
X5784110Y-16005484D01*
X5784110Y-16005484D02*
X5765062Y-16005484D01*
X5765062Y-16005484D02*
X5746015Y-15995960D01*
X5746015Y-15995960D02*
X5736491Y-15986436D01*
X5736491Y-15986436D02*
X5726967Y-15967388D01*
X5726967Y-15967388D02*
X5717443Y-15929293D01*
X5717443Y-15929293D02*
X5717443Y-15881674D01*
X5717443Y-15881674D02*
X5726967Y-15843579D01*
X5726967Y-15843579D02*
X5736491Y-15824531D01*
X5736491Y-15824531D02*
X5746015Y-15815008D01*
X5746015Y-15815008D02*
X5765062Y-15805484D01*
X5955539Y-15805484D02*
X5974586Y-15805484D01*
X5974586Y-15805484D02*
X5993634Y-15815008D01*
X5993634Y-15815008D02*
X6003158Y-15824531D01*
X6003158Y-15824531D02*
X6012682Y-15843579D01*
X6012682Y-15843579D02*
X6022205Y-15881674D01*
X6022205Y-15881674D02*
X6022205Y-15929293D01*
X6022205Y-15929293D02*
X6012682Y-15967388D01*
X6012682Y-15967388D02*
X6003158Y-15986436D01*
X6003158Y-15986436D02*
X5993634Y-15995960D01*
X5993634Y-15995960D02*
X5974586Y-16005484D01*
X5974586Y-16005484D02*
X5955539Y-16005484D01*
X5955539Y-16005484D02*
X5936491Y-15995960D01*
X5936491Y-15995960D02*
X5926967Y-15986436D01*
X5926967Y-15986436D02*
X5917443Y-15967388D01*
X5917443Y-15967388D02*
X5907920Y-15929293D01*
X5907920Y-15929293D02*
X5907920Y-15881674D01*
X5907920Y-15881674D02*
X5917443Y-15843579D01*
X5917443Y-15843579D02*
X5926967Y-15824531D01*
X5926967Y-15824531D02*
X5936491Y-15815008D01*
X5936491Y-15815008D02*
X5955539Y-15805484D01*
X6107920Y-16005484D02*
X6107920Y-15872150D01*
X6107920Y-15891198D02*
X6117443Y-15881674D01*
X6117443Y-15881674D02*
X6136491Y-15872150D01*
X6136491Y-15872150D02*
X6165063Y-15872150D01*
X6165063Y-15872150D02*
X6184110Y-15881674D01*
X6184110Y-15881674D02*
X6193634Y-15900722D01*
X6193634Y-15900722D02*
X6193634Y-16005484D01*
X6193634Y-15900722D02*
X6203158Y-15881674D01*
X6203158Y-15881674D02*
X6222205Y-15872150D01*
X6222205Y-15872150D02*
X6250777Y-15872150D01*
X6250777Y-15872150D02*
X6269824Y-15881674D01*
X6269824Y-15881674D02*
X6279348Y-15900722D01*
X6279348Y-15900722D02*
X6279348Y-16005484D01*
X6374586Y-16005484D02*
X6374586Y-15872150D01*
X6374586Y-15891198D02*
X6384110Y-15881674D01*
X6384110Y-15881674D02*
X6403158Y-15872150D01*
X6403158Y-15872150D02*
X6431729Y-15872150D01*
X6431729Y-15872150D02*
X6450777Y-15881674D01*
X6450777Y-15881674D02*
X6460301Y-15900722D01*
X6460301Y-15900722D02*
X6460301Y-16005484D01*
X6460301Y-15900722D02*
X6469824Y-15881674D01*
X6469824Y-15881674D02*
X6488872Y-15872150D01*
X6488872Y-15872150D02*
X6517443Y-15872150D01*
X6517443Y-15872150D02*
X6536491Y-15881674D01*
X6536491Y-15881674D02*
X6546015Y-15900722D01*
X6546015Y-15900722D02*
X6546015Y-16005484D01*
X6936491Y-15795960D02*
X6765063Y-16053103D01*
X7193634Y-15805484D02*
X7212682Y-15805484D01*
X7212682Y-15805484D02*
X7231729Y-15815008D01*
X7231729Y-15815008D02*
X7241253Y-15824531D01*
X7241253Y-15824531D02*
X7250777Y-15843579D01*
X7250777Y-15843579D02*
X7260301Y-15881674D01*
X7260301Y-15881674D02*
X7260301Y-15929293D01*
X7260301Y-15929293D02*
X7250777Y-15967388D01*
X7250777Y-15967388D02*
X7241253Y-15986436D01*
X7241253Y-15986436D02*
X7231729Y-15995960D01*
X7231729Y-15995960D02*
X7212682Y-16005484D01*
X7212682Y-16005484D02*
X7193634Y-16005484D01*
X7193634Y-16005484D02*
X7174586Y-15995960D01*
X7174586Y-15995960D02*
X7165063Y-15986436D01*
X7165063Y-15986436D02*
X7155539Y-15967388D01*
X7155539Y-15967388D02*
X7146015Y-15929293D01*
X7146015Y-15929293D02*
X7146015Y-15881674D01*
X7146015Y-15881674D02*
X7155539Y-15843579D01*
X7155539Y-15843579D02*
X7165063Y-15824531D01*
X7165063Y-15824531D02*
X7174586Y-15815008D01*
X7174586Y-15815008D02*
X7193634Y-15805484D01*
X7346015Y-15986436D02*
X7355539Y-15995960D01*
X7355539Y-15995960D02*
X7346015Y-16005484D01*
X7346015Y-16005484D02*
X7336491Y-15995960D01*
X7336491Y-15995960D02*
X7346015Y-15986436D01*
X7346015Y-15986436D02*
X7346015Y-16005484D01*
X7479348Y-15805484D02*
X7498396Y-15805484D01*
X7498396Y-15805484D02*
X7517444Y-15815008D01*
X7517444Y-15815008D02*
X7526967Y-15824531D01*
X7526967Y-15824531D02*
X7536491Y-15843579D01*
X7536491Y-15843579D02*
X7546015Y-15881674D01*
X7546015Y-15881674D02*
X7546015Y-15929293D01*
X7546015Y-15929293D02*
X7536491Y-15967388D01*
X7536491Y-15967388D02*
X7526967Y-15986436D01*
X7526967Y-15986436D02*
X7517444Y-15995960D01*
X7517444Y-15995960D02*
X7498396Y-16005484D01*
X7498396Y-16005484D02*
X7479348Y-16005484D01*
X7479348Y-16005484D02*
X7460301Y-15995960D01*
X7460301Y-15995960D02*
X7450777Y-15986436D01*
X7450777Y-15986436D02*
X7441253Y-15967388D01*
X7441253Y-15967388D02*
X7431729Y-15929293D01*
X7431729Y-15929293D02*
X7431729Y-15881674D01*
X7431729Y-15881674D02*
X7441253Y-15843579D01*
X7441253Y-15843579D02*
X7450777Y-15824531D01*
X7450777Y-15824531D02*
X7460301Y-15815008D01*
X7460301Y-15815008D02*
X7479348Y-15805484D01*
X7726967Y-15805484D02*
X7631729Y-15805484D01*
X7631729Y-15805484D02*
X7622206Y-15900722D01*
X7622206Y-15900722D02*
X7631729Y-15891198D01*
X7631729Y-15891198D02*
X7650777Y-15881674D01*
X7650777Y-15881674D02*
X7698396Y-15881674D01*
X7698396Y-15881674D02*
X7717444Y-15891198D01*
X7717444Y-15891198D02*
X7726967Y-15900722D01*
X7726967Y-15900722D02*
X7736491Y-15919769D01*
X7736491Y-15919769D02*
X7736491Y-15967388D01*
X7736491Y-15967388D02*
X7726967Y-15986436D01*
X7726967Y-15986436D02*
X7717444Y-15995960D01*
X7717444Y-15995960D02*
X7698396Y-16005484D01*
X7698396Y-16005484D02*
X7650777Y-16005484D01*
X7650777Y-16005484D02*
X7631729Y-15995960D01*
X7631729Y-15995960D02*
X7622206Y-15986436D01*
X7831729Y-16005484D02*
X7869825Y-16005484D01*
X7869825Y-16005484D02*
X7888872Y-15995960D01*
X7888872Y-15995960D02*
X7898396Y-15986436D01*
X7898396Y-15986436D02*
X7917444Y-15957865D01*
X7917444Y-15957865D02*
X7926967Y-15919769D01*
X7926967Y-15919769D02*
X7926967Y-15843579D01*
X7926967Y-15843579D02*
X7917444Y-15824531D01*
X7917444Y-15824531D02*
X7907920Y-15815008D01*
X7907920Y-15815008D02*
X7888872Y-15805484D01*
X7888872Y-15805484D02*
X7850777Y-15805484D01*
X7850777Y-15805484D02*
X7831729Y-15815008D01*
X7831729Y-15815008D02*
X7822206Y-15824531D01*
X7822206Y-15824531D02*
X7812682Y-15843579D01*
X7812682Y-15843579D02*
X7812682Y-15891198D01*
X7812682Y-15891198D02*
X7822206Y-15910246D01*
X7822206Y-15910246D02*
X7831729Y-15919769D01*
X7831729Y-15919769D02*
X7850777Y-15929293D01*
X7850777Y-15929293D02*
X7888872Y-15929293D01*
X7888872Y-15929293D02*
X7907920Y-15919769D01*
X7907920Y-15919769D02*
X7917444Y-15910246D01*
X7917444Y-15910246D02*
X7926967Y-15891198D01*
X8117444Y-16005484D02*
X8003158Y-16005484D01*
X8060301Y-16005484D02*
X8060301Y-15805484D01*
X8060301Y-15805484D02*
X8041253Y-15834055D01*
X8041253Y-15834055D02*
X8022206Y-15853103D01*
X8022206Y-15853103D02*
X8003158Y-15862627D01*
X8193634Y-15805484D02*
X8193634Y-15843579D01*
X8269825Y-15805484D02*
X8269825Y-15843579D01*
X8565063Y-16081674D02*
X8555539Y-16072150D01*
X8555539Y-16072150D02*
X8536491Y-16043579D01*
X8536491Y-16043579D02*
X8526968Y-16024531D01*
X8526968Y-16024531D02*
X8517444Y-15995960D01*
X8517444Y-15995960D02*
X8507920Y-15948341D01*
X8507920Y-15948341D02*
X8507920Y-15910246D01*
X8507920Y-15910246D02*
X8517444Y-15862627D01*
X8517444Y-15862627D02*
X8526968Y-15834055D01*
X8526968Y-15834055D02*
X8536491Y-15815008D01*
X8536491Y-15815008D02*
X8555539Y-15786436D01*
X8555539Y-15786436D02*
X8565063Y-15776912D01*
X8631730Y-15824531D02*
X8641253Y-15815008D01*
X8641253Y-15815008D02*
X8660301Y-15805484D01*
X8660301Y-15805484D02*
X8707920Y-15805484D01*
X8707920Y-15805484D02*
X8726968Y-15815008D01*
X8726968Y-15815008D02*
X8736491Y-15824531D01*
X8736491Y-15824531D02*
X8746015Y-15843579D01*
X8746015Y-15843579D02*
X8746015Y-15862627D01*
X8746015Y-15862627D02*
X8736491Y-15891198D01*
X8736491Y-15891198D02*
X8622206Y-16005484D01*
X8622206Y-16005484D02*
X8746015Y-16005484D01*
X8984111Y-16005484D02*
X8984111Y-15805484D01*
X9069825Y-16005484D02*
X9069825Y-15900722D01*
X9069825Y-15900722D02*
X9060301Y-15881674D01*
X9060301Y-15881674D02*
X9041253Y-15872150D01*
X9041253Y-15872150D02*
X9012682Y-15872150D01*
X9012682Y-15872150D02*
X8993634Y-15881674D01*
X8993634Y-15881674D02*
X8984111Y-15891198D01*
X9193634Y-16005484D02*
X9174587Y-15995960D01*
X9174587Y-15995960D02*
X9165063Y-15986436D01*
X9165063Y-15986436D02*
X9155539Y-15967388D01*
X9155539Y-15967388D02*
X9155539Y-15910246D01*
X9155539Y-15910246D02*
X9165063Y-15891198D01*
X9165063Y-15891198D02*
X9174587Y-15881674D01*
X9174587Y-15881674D02*
X9193634Y-15872150D01*
X9193634Y-15872150D02*
X9222206Y-15872150D01*
X9222206Y-15872150D02*
X9241253Y-15881674D01*
X9241253Y-15881674D02*
X9250777Y-15891198D01*
X9250777Y-15891198D02*
X9260301Y-15910246D01*
X9260301Y-15910246D02*
X9260301Y-15967388D01*
X9260301Y-15967388D02*
X9250777Y-15986436D01*
X9250777Y-15986436D02*
X9241253Y-15995960D01*
X9241253Y-15995960D02*
X9222206Y-16005484D01*
X9222206Y-16005484D02*
X9193634Y-16005484D01*
X9374587Y-16005484D02*
X9355539Y-15995960D01*
X9355539Y-15995960D02*
X9346015Y-15976912D01*
X9346015Y-15976912D02*
X9346015Y-15805484D01*
X9526968Y-15995960D02*
X9507920Y-16005484D01*
X9507920Y-16005484D02*
X9469825Y-16005484D01*
X9469825Y-16005484D02*
X9450777Y-15995960D01*
X9450777Y-15995960D02*
X9441253Y-15976912D01*
X9441253Y-15976912D02*
X9441253Y-15900722D01*
X9441253Y-15900722D02*
X9450777Y-15881674D01*
X9450777Y-15881674D02*
X9469825Y-15872150D01*
X9469825Y-15872150D02*
X9507920Y-15872150D01*
X9507920Y-15872150D02*
X9526968Y-15881674D01*
X9526968Y-15881674D02*
X9536492Y-15900722D01*
X9536492Y-15900722D02*
X9536492Y-15919769D01*
X9536492Y-15919769D02*
X9441253Y-15938817D01*
X9612682Y-15995960D02*
X9631730Y-16005484D01*
X9631730Y-16005484D02*
X9669825Y-16005484D01*
X9669825Y-16005484D02*
X9688873Y-15995960D01*
X9688873Y-15995960D02*
X9698396Y-15976912D01*
X9698396Y-15976912D02*
X9698396Y-15967388D01*
X9698396Y-15967388D02*
X9688873Y-15948341D01*
X9688873Y-15948341D02*
X9669825Y-15938817D01*
X9669825Y-15938817D02*
X9641253Y-15938817D01*
X9641253Y-15938817D02*
X9622206Y-15929293D01*
X9622206Y-15929293D02*
X9612682Y-15910246D01*
X9612682Y-15910246D02*
X9612682Y-15900722D01*
X9612682Y-15900722D02*
X9622206Y-15881674D01*
X9622206Y-15881674D02*
X9641253Y-15872150D01*
X9641253Y-15872150D02*
X9669825Y-15872150D01*
X9669825Y-15872150D02*
X9688873Y-15881674D01*
X9765063Y-16081674D02*
X9774587Y-16072150D01*
X9774587Y-16072150D02*
X9793634Y-16043579D01*
X9793634Y-16043579D02*
X9803158Y-16024531D01*
X9803158Y-16024531D02*
X9812682Y-15995960D01*
X9812682Y-15995960D02*
X9822206Y-15948341D01*
X9822206Y-15948341D02*
X9822206Y-15910246D01*
X9822206Y-15910246D02*
X9812682Y-15862627D01*
X9812682Y-15862627D02*
X9803158Y-15834055D01*
X9803158Y-15834055D02*
X9793634Y-15815008D01*
X9793634Y-15815008D02*
X9774587Y-15786436D01*
X9774587Y-15786436D02*
X9765063Y-15776912D01*
X10126968Y-16081674D02*
X10117444Y-16072150D01*
X10117444Y-16072150D02*
X10098396Y-16043579D01*
X10098396Y-16043579D02*
X10088873Y-16024531D01*
X10088873Y-16024531D02*
X10079349Y-15995960D01*
X10079349Y-15995960D02*
X10069825Y-15948341D01*
X10069825Y-15948341D02*
X10069825Y-15910246D01*
X10069825Y-15910246D02*
X10079349Y-15862627D01*
X10079349Y-15862627D02*
X10088873Y-15834055D01*
X10088873Y-15834055D02*
X10098396Y-15815008D01*
X10098396Y-15815008D02*
X10117444Y-15786436D01*
X10117444Y-15786436D02*
X10126968Y-15776912D01*
X10203158Y-15872150D02*
X10203158Y-16005484D01*
X10203158Y-15891198D02*
X10212682Y-15881674D01*
X10212682Y-15881674D02*
X10231730Y-15872150D01*
X10231730Y-15872150D02*
X10260301Y-15872150D01*
X10260301Y-15872150D02*
X10279349Y-15881674D01*
X10279349Y-15881674D02*
X10288873Y-15900722D01*
X10288873Y-15900722D02*
X10288873Y-16005484D01*
X10412682Y-16005484D02*
X10393634Y-15995960D01*
X10393634Y-15995960D02*
X10384111Y-15986436D01*
X10384111Y-15986436D02*
X10374587Y-15967388D01*
X10374587Y-15967388D02*
X10374587Y-15910246D01*
X10374587Y-15910246D02*
X10384111Y-15891198D01*
X10384111Y-15891198D02*
X10393634Y-15881674D01*
X10393634Y-15881674D02*
X10412682Y-15872150D01*
X10412682Y-15872150D02*
X10441254Y-15872150D01*
X10441254Y-15872150D02*
X10460301Y-15881674D01*
X10460301Y-15881674D02*
X10469825Y-15891198D01*
X10469825Y-15891198D02*
X10479349Y-15910246D01*
X10479349Y-15910246D02*
X10479349Y-15967388D01*
X10479349Y-15967388D02*
X10469825Y-15986436D01*
X10469825Y-15986436D02*
X10460301Y-15995960D01*
X10460301Y-15995960D02*
X10441254Y-16005484D01*
X10441254Y-16005484D02*
X10412682Y-16005484D01*
X10536492Y-15872150D02*
X10612682Y-15872150D01*
X10565063Y-15805484D02*
X10565063Y-15976912D01*
X10565063Y-15976912D02*
X10574587Y-15995960D01*
X10574587Y-15995960D02*
X10593634Y-16005484D01*
X10593634Y-16005484D02*
X10612682Y-16005484D01*
X10831730Y-15872150D02*
X10831730Y-16072150D01*
X10831730Y-15881674D02*
X10850777Y-15872150D01*
X10850777Y-15872150D02*
X10888873Y-15872150D01*
X10888873Y-15872150D02*
X10907920Y-15881674D01*
X10907920Y-15881674D02*
X10917444Y-15891198D01*
X10917444Y-15891198D02*
X10926968Y-15910246D01*
X10926968Y-15910246D02*
X10926968Y-15967388D01*
X10926968Y-15967388D02*
X10917444Y-15986436D01*
X10917444Y-15986436D02*
X10907920Y-15995960D01*
X10907920Y-15995960D02*
X10888873Y-16005484D01*
X10888873Y-16005484D02*
X10850777Y-16005484D01*
X10850777Y-16005484D02*
X10831730Y-15995960D01*
X11041254Y-16005484D02*
X11022206Y-15995960D01*
X11022206Y-15995960D02*
X11012682Y-15976912D01*
X11012682Y-15976912D02*
X11012682Y-15805484D01*
X11203158Y-16005484D02*
X11203158Y-15900722D01*
X11203158Y-15900722D02*
X11193634Y-15881674D01*
X11193634Y-15881674D02*
X11174587Y-15872150D01*
X11174587Y-15872150D02*
X11136492Y-15872150D01*
X11136492Y-15872150D02*
X11117444Y-15881674D01*
X11203158Y-15995960D02*
X11184111Y-16005484D01*
X11184111Y-16005484D02*
X11136492Y-16005484D01*
X11136492Y-16005484D02*
X11117444Y-15995960D01*
X11117444Y-15995960D02*
X11107920Y-15976912D01*
X11107920Y-15976912D02*
X11107920Y-15957865D01*
X11107920Y-15957865D02*
X11117444Y-15938817D01*
X11117444Y-15938817D02*
X11136492Y-15929293D01*
X11136492Y-15929293D02*
X11184111Y-15929293D01*
X11184111Y-15929293D02*
X11203158Y-15919769D01*
X11269825Y-15872150D02*
X11346015Y-15872150D01*
X11298396Y-15805484D02*
X11298396Y-15976912D01*
X11298396Y-15976912D02*
X11307920Y-15995960D01*
X11307920Y-15995960D02*
X11326968Y-16005484D01*
X11326968Y-16005484D02*
X11346015Y-16005484D01*
X11488873Y-15995960D02*
X11469825Y-16005484D01*
X11469825Y-16005484D02*
X11431730Y-16005484D01*
X11431730Y-16005484D02*
X11412682Y-15995960D01*
X11412682Y-15995960D02*
X11403158Y-15976912D01*
X11403158Y-15976912D02*
X11403158Y-15900722D01*
X11403158Y-15900722D02*
X11412682Y-15881674D01*
X11412682Y-15881674D02*
X11431730Y-15872150D01*
X11431730Y-15872150D02*
X11469825Y-15872150D01*
X11469825Y-15872150D02*
X11488873Y-15881674D01*
X11488873Y-15881674D02*
X11498396Y-15900722D01*
X11498396Y-15900722D02*
X11498396Y-15919769D01*
X11498396Y-15919769D02*
X11403158Y-15938817D01*
X11669825Y-16005484D02*
X11669825Y-15805484D01*
X11669825Y-15995960D02*
X11650777Y-16005484D01*
X11650777Y-16005484D02*
X11612682Y-16005484D01*
X11612682Y-16005484D02*
X11593634Y-15995960D01*
X11593634Y-15995960D02*
X11584111Y-15986436D01*
X11584111Y-15986436D02*
X11574587Y-15967388D01*
X11574587Y-15967388D02*
X11574587Y-15910246D01*
X11574587Y-15910246D02*
X11584111Y-15891198D01*
X11584111Y-15891198D02*
X11593634Y-15881674D01*
X11593634Y-15881674D02*
X11612682Y-15872150D01*
X11612682Y-15872150D02*
X11650777Y-15872150D01*
X11650777Y-15872150D02*
X11669825Y-15881674D01*
X11746015Y-16081674D02*
X11755539Y-16072150D01*
X11755539Y-16072150D02*
X11774587Y-16043579D01*
X11774587Y-16043579D02*
X11784111Y-16024531D01*
X11784111Y-16024531D02*
X11793634Y-15995960D01*
X11793634Y-15995960D02*
X11803158Y-15948341D01*
X11803158Y-15948341D02*
X11803158Y-15910246D01*
X11803158Y-15910246D02*
X11793634Y-15862627D01*
X11793634Y-15862627D02*
X11784111Y-15834055D01*
X11784111Y-15834055D02*
X11774587Y-15815008D01*
X11774587Y-15815008D02*
X11755539Y-15786436D01*
X11755539Y-15786436D02*
X11746015Y-15776912D01*
D14*
X4900000Y-16094000D02*
X4900000Y-16274000D01*
X4810000Y-16184000D02*
X4990000Y-16184000D01*
D10*
X5355539Y-16275484D02*
X5241253Y-16275484D01*
X5298396Y-16275484D02*
X5298396Y-16075484D01*
X5298396Y-16075484D02*
X5279348Y-16104055D01*
X5279348Y-16104055D02*
X5260301Y-16123103D01*
X5260301Y-16123103D02*
X5241253Y-16132627D01*
X5441253Y-16256436D02*
X5450777Y-16265960D01*
X5450777Y-16265960D02*
X5441253Y-16275484D01*
X5441253Y-16275484D02*
X5431729Y-16265960D01*
X5431729Y-16265960D02*
X5441253Y-16256436D01*
X5441253Y-16256436D02*
X5441253Y-16275484D01*
X5565063Y-16161198D02*
X5546015Y-16151674D01*
X5546015Y-16151674D02*
X5536491Y-16142150D01*
X5536491Y-16142150D02*
X5526967Y-16123103D01*
X5526967Y-16123103D02*
X5526967Y-16113579D01*
X5526967Y-16113579D02*
X5536491Y-16094531D01*
X5536491Y-16094531D02*
X5546015Y-16085008D01*
X5546015Y-16085008D02*
X5565063Y-16075484D01*
X5565063Y-16075484D02*
X5603158Y-16075484D01*
X5603158Y-16075484D02*
X5622205Y-16085008D01*
X5622205Y-16085008D02*
X5631729Y-16094531D01*
X5631729Y-16094531D02*
X5641253Y-16113579D01*
X5641253Y-16113579D02*
X5641253Y-16123103D01*
X5641253Y-16123103D02*
X5631729Y-16142150D01*
X5631729Y-16142150D02*
X5622205Y-16151674D01*
X5622205Y-16151674D02*
X5603158Y-16161198D01*
X5603158Y-16161198D02*
X5565063Y-16161198D01*
X5565063Y-16161198D02*
X5546015Y-16170722D01*
X5546015Y-16170722D02*
X5536491Y-16180246D01*
X5536491Y-16180246D02*
X5526967Y-16199293D01*
X5526967Y-16199293D02*
X5526967Y-16237388D01*
X5526967Y-16237388D02*
X5536491Y-16256436D01*
X5536491Y-16256436D02*
X5546015Y-16265960D01*
X5546015Y-16265960D02*
X5565063Y-16275484D01*
X5565063Y-16275484D02*
X5603158Y-16275484D01*
X5603158Y-16275484D02*
X5622205Y-16265960D01*
X5622205Y-16265960D02*
X5631729Y-16256436D01*
X5631729Y-16256436D02*
X5641253Y-16237388D01*
X5641253Y-16237388D02*
X5641253Y-16199293D01*
X5641253Y-16199293D02*
X5631729Y-16180246D01*
X5631729Y-16180246D02*
X5622205Y-16170722D01*
X5622205Y-16170722D02*
X5603158Y-16161198D01*
X5765062Y-16075484D02*
X5784110Y-16075484D01*
X5784110Y-16075484D02*
X5803158Y-16085008D01*
X5803158Y-16085008D02*
X5812682Y-16094531D01*
X5812682Y-16094531D02*
X5822205Y-16113579D01*
X5822205Y-16113579D02*
X5831729Y-16151674D01*
X5831729Y-16151674D02*
X5831729Y-16199293D01*
X5831729Y-16199293D02*
X5822205Y-16237388D01*
X5822205Y-16237388D02*
X5812682Y-16256436D01*
X5812682Y-16256436D02*
X5803158Y-16265960D01*
X5803158Y-16265960D02*
X5784110Y-16275484D01*
X5784110Y-16275484D02*
X5765062Y-16275484D01*
X5765062Y-16275484D02*
X5746015Y-16265960D01*
X5746015Y-16265960D02*
X5736491Y-16256436D01*
X5736491Y-16256436D02*
X5726967Y-16237388D01*
X5726967Y-16237388D02*
X5717443Y-16199293D01*
X5717443Y-16199293D02*
X5717443Y-16151674D01*
X5717443Y-16151674D02*
X5726967Y-16113579D01*
X5726967Y-16113579D02*
X5736491Y-16094531D01*
X5736491Y-16094531D02*
X5746015Y-16085008D01*
X5746015Y-16085008D02*
X5765062Y-16075484D01*
X5955539Y-16075484D02*
X5974586Y-16075484D01*
X5974586Y-16075484D02*
X5993634Y-16085008D01*
X5993634Y-16085008D02*
X6003158Y-16094531D01*
X6003158Y-16094531D02*
X6012682Y-16113579D01*
X6012682Y-16113579D02*
X6022205Y-16151674D01*
X6022205Y-16151674D02*
X6022205Y-16199293D01*
X6022205Y-16199293D02*
X6012682Y-16237388D01*
X6012682Y-16237388D02*
X6003158Y-16256436D01*
X6003158Y-16256436D02*
X5993634Y-16265960D01*
X5993634Y-16265960D02*
X5974586Y-16275484D01*
X5974586Y-16275484D02*
X5955539Y-16275484D01*
X5955539Y-16275484D02*
X5936491Y-16265960D01*
X5936491Y-16265960D02*
X5926967Y-16256436D01*
X5926967Y-16256436D02*
X5917443Y-16237388D01*
X5917443Y-16237388D02*
X5907920Y-16199293D01*
X5907920Y-16199293D02*
X5907920Y-16151674D01*
X5907920Y-16151674D02*
X5917443Y-16113579D01*
X5917443Y-16113579D02*
X5926967Y-16094531D01*
X5926967Y-16094531D02*
X5936491Y-16085008D01*
X5936491Y-16085008D02*
X5955539Y-16075484D01*
X6107920Y-16275484D02*
X6107920Y-16142150D01*
X6107920Y-16161198D02*
X6117443Y-16151674D01*
X6117443Y-16151674D02*
X6136491Y-16142150D01*
X6136491Y-16142150D02*
X6165063Y-16142150D01*
X6165063Y-16142150D02*
X6184110Y-16151674D01*
X6184110Y-16151674D02*
X6193634Y-16170722D01*
X6193634Y-16170722D02*
X6193634Y-16275484D01*
X6193634Y-16170722D02*
X6203158Y-16151674D01*
X6203158Y-16151674D02*
X6222205Y-16142150D01*
X6222205Y-16142150D02*
X6250777Y-16142150D01*
X6250777Y-16142150D02*
X6269824Y-16151674D01*
X6269824Y-16151674D02*
X6279348Y-16170722D01*
X6279348Y-16170722D02*
X6279348Y-16275484D01*
X6374586Y-16275484D02*
X6374586Y-16142150D01*
X6374586Y-16161198D02*
X6384110Y-16151674D01*
X6384110Y-16151674D02*
X6403158Y-16142150D01*
X6403158Y-16142150D02*
X6431729Y-16142150D01*
X6431729Y-16142150D02*
X6450777Y-16151674D01*
X6450777Y-16151674D02*
X6460301Y-16170722D01*
X6460301Y-16170722D02*
X6460301Y-16275484D01*
X6460301Y-16170722D02*
X6469824Y-16151674D01*
X6469824Y-16151674D02*
X6488872Y-16142150D01*
X6488872Y-16142150D02*
X6517443Y-16142150D01*
X6517443Y-16142150D02*
X6536491Y-16151674D01*
X6536491Y-16151674D02*
X6546015Y-16170722D01*
X6546015Y-16170722D02*
X6546015Y-16275484D01*
X6936491Y-16065960D02*
X6765063Y-16323103D01*
X7193634Y-16075484D02*
X7212682Y-16075484D01*
X7212682Y-16075484D02*
X7231729Y-16085008D01*
X7231729Y-16085008D02*
X7241253Y-16094531D01*
X7241253Y-16094531D02*
X7250777Y-16113579D01*
X7250777Y-16113579D02*
X7260301Y-16151674D01*
X7260301Y-16151674D02*
X7260301Y-16199293D01*
X7260301Y-16199293D02*
X7250777Y-16237388D01*
X7250777Y-16237388D02*
X7241253Y-16256436D01*
X7241253Y-16256436D02*
X7231729Y-16265960D01*
X7231729Y-16265960D02*
X7212682Y-16275484D01*
X7212682Y-16275484D02*
X7193634Y-16275484D01*
X7193634Y-16275484D02*
X7174586Y-16265960D01*
X7174586Y-16265960D02*
X7165063Y-16256436D01*
X7165063Y-16256436D02*
X7155539Y-16237388D01*
X7155539Y-16237388D02*
X7146015Y-16199293D01*
X7146015Y-16199293D02*
X7146015Y-16151674D01*
X7146015Y-16151674D02*
X7155539Y-16113579D01*
X7155539Y-16113579D02*
X7165063Y-16094531D01*
X7165063Y-16094531D02*
X7174586Y-16085008D01*
X7174586Y-16085008D02*
X7193634Y-16075484D01*
X7346015Y-16256436D02*
X7355539Y-16265960D01*
X7355539Y-16265960D02*
X7346015Y-16275484D01*
X7346015Y-16275484D02*
X7336491Y-16265960D01*
X7336491Y-16265960D02*
X7346015Y-16256436D01*
X7346015Y-16256436D02*
X7346015Y-16275484D01*
X7479348Y-16075484D02*
X7498396Y-16075484D01*
X7498396Y-16075484D02*
X7517444Y-16085008D01*
X7517444Y-16085008D02*
X7526967Y-16094531D01*
X7526967Y-16094531D02*
X7536491Y-16113579D01*
X7536491Y-16113579D02*
X7546015Y-16151674D01*
X7546015Y-16151674D02*
X7546015Y-16199293D01*
X7546015Y-16199293D02*
X7536491Y-16237388D01*
X7536491Y-16237388D02*
X7526967Y-16256436D01*
X7526967Y-16256436D02*
X7517444Y-16265960D01*
X7517444Y-16265960D02*
X7498396Y-16275484D01*
X7498396Y-16275484D02*
X7479348Y-16275484D01*
X7479348Y-16275484D02*
X7460301Y-16265960D01*
X7460301Y-16265960D02*
X7450777Y-16256436D01*
X7450777Y-16256436D02*
X7441253Y-16237388D01*
X7441253Y-16237388D02*
X7431729Y-16199293D01*
X7431729Y-16199293D02*
X7431729Y-16151674D01*
X7431729Y-16151674D02*
X7441253Y-16113579D01*
X7441253Y-16113579D02*
X7450777Y-16094531D01*
X7450777Y-16094531D02*
X7460301Y-16085008D01*
X7460301Y-16085008D02*
X7479348Y-16075484D01*
X7612682Y-16075484D02*
X7746015Y-16075484D01*
X7746015Y-16075484D02*
X7660301Y-16275484D01*
X7860301Y-16075484D02*
X7879348Y-16075484D01*
X7879348Y-16075484D02*
X7898396Y-16085008D01*
X7898396Y-16085008D02*
X7907920Y-16094531D01*
X7907920Y-16094531D02*
X7917444Y-16113579D01*
X7917444Y-16113579D02*
X7926967Y-16151674D01*
X7926967Y-16151674D02*
X7926967Y-16199293D01*
X7926967Y-16199293D02*
X7917444Y-16237388D01*
X7917444Y-16237388D02*
X7907920Y-16256436D01*
X7907920Y-16256436D02*
X7898396Y-16265960D01*
X7898396Y-16265960D02*
X7879348Y-16275484D01*
X7879348Y-16275484D02*
X7860301Y-16275484D01*
X7860301Y-16275484D02*
X7841253Y-16265960D01*
X7841253Y-16265960D02*
X7831729Y-16256436D01*
X7831729Y-16256436D02*
X7822206Y-16237388D01*
X7822206Y-16237388D02*
X7812682Y-16199293D01*
X7812682Y-16199293D02*
X7812682Y-16151674D01*
X7812682Y-16151674D02*
X7822206Y-16113579D01*
X7822206Y-16113579D02*
X7831729Y-16094531D01*
X7831729Y-16094531D02*
X7841253Y-16085008D01*
X7841253Y-16085008D02*
X7860301Y-16075484D01*
X8022206Y-16275484D02*
X8060301Y-16275484D01*
X8060301Y-16275484D02*
X8079348Y-16265960D01*
X8079348Y-16265960D02*
X8088872Y-16256436D01*
X8088872Y-16256436D02*
X8107920Y-16227865D01*
X8107920Y-16227865D02*
X8117444Y-16189769D01*
X8117444Y-16189769D02*
X8117444Y-16113579D01*
X8117444Y-16113579D02*
X8107920Y-16094531D01*
X8107920Y-16094531D02*
X8098396Y-16085008D01*
X8098396Y-16085008D02*
X8079348Y-16075484D01*
X8079348Y-16075484D02*
X8041253Y-16075484D01*
X8041253Y-16075484D02*
X8022206Y-16085008D01*
X8022206Y-16085008D02*
X8012682Y-16094531D01*
X8012682Y-16094531D02*
X8003158Y-16113579D01*
X8003158Y-16113579D02*
X8003158Y-16161198D01*
X8003158Y-16161198D02*
X8012682Y-16180246D01*
X8012682Y-16180246D02*
X8022206Y-16189769D01*
X8022206Y-16189769D02*
X8041253Y-16199293D01*
X8041253Y-16199293D02*
X8079348Y-16199293D01*
X8079348Y-16199293D02*
X8098396Y-16189769D01*
X8098396Y-16189769D02*
X8107920Y-16180246D01*
X8107920Y-16180246D02*
X8117444Y-16161198D01*
X8193634Y-16075484D02*
X8193634Y-16113579D01*
X8269825Y-16075484D02*
X8269825Y-16113579D01*
X8565063Y-16351674D02*
X8555539Y-16342150D01*
X8555539Y-16342150D02*
X8536491Y-16313579D01*
X8536491Y-16313579D02*
X8526968Y-16294531D01*
X8526968Y-16294531D02*
X8517444Y-16265960D01*
X8517444Y-16265960D02*
X8507920Y-16218341D01*
X8507920Y-16218341D02*
X8507920Y-16180246D01*
X8507920Y-16180246D02*
X8517444Y-16132627D01*
X8517444Y-16132627D02*
X8526968Y-16104055D01*
X8526968Y-16104055D02*
X8536491Y-16085008D01*
X8536491Y-16085008D02*
X8555539Y-16056436D01*
X8555539Y-16056436D02*
X8565063Y-16046912D01*
X8631730Y-16094531D02*
X8641253Y-16085008D01*
X8641253Y-16085008D02*
X8660301Y-16075484D01*
X8660301Y-16075484D02*
X8707920Y-16075484D01*
X8707920Y-16075484D02*
X8726968Y-16085008D01*
X8726968Y-16085008D02*
X8736491Y-16094531D01*
X8736491Y-16094531D02*
X8746015Y-16113579D01*
X8746015Y-16113579D02*
X8746015Y-16132627D01*
X8746015Y-16132627D02*
X8736491Y-16161198D01*
X8736491Y-16161198D02*
X8622206Y-16275484D01*
X8622206Y-16275484D02*
X8746015Y-16275484D01*
X8984111Y-16275484D02*
X8984111Y-16075484D01*
X9069825Y-16275484D02*
X9069825Y-16170722D01*
X9069825Y-16170722D02*
X9060301Y-16151674D01*
X9060301Y-16151674D02*
X9041253Y-16142150D01*
X9041253Y-16142150D02*
X9012682Y-16142150D01*
X9012682Y-16142150D02*
X8993634Y-16151674D01*
X8993634Y-16151674D02*
X8984111Y-16161198D01*
X9193634Y-16275484D02*
X9174587Y-16265960D01*
X9174587Y-16265960D02*
X9165063Y-16256436D01*
X9165063Y-16256436D02*
X9155539Y-16237388D01*
X9155539Y-16237388D02*
X9155539Y-16180246D01*
X9155539Y-16180246D02*
X9165063Y-16161198D01*
X9165063Y-16161198D02*
X9174587Y-16151674D01*
X9174587Y-16151674D02*
X9193634Y-16142150D01*
X9193634Y-16142150D02*
X9222206Y-16142150D01*
X9222206Y-16142150D02*
X9241253Y-16151674D01*
X9241253Y-16151674D02*
X9250777Y-16161198D01*
X9250777Y-16161198D02*
X9260301Y-16180246D01*
X9260301Y-16180246D02*
X9260301Y-16237388D01*
X9260301Y-16237388D02*
X9250777Y-16256436D01*
X9250777Y-16256436D02*
X9241253Y-16265960D01*
X9241253Y-16265960D02*
X9222206Y-16275484D01*
X9222206Y-16275484D02*
X9193634Y-16275484D01*
X9374587Y-16275484D02*
X9355539Y-16265960D01*
X9355539Y-16265960D02*
X9346015Y-16246912D01*
X9346015Y-16246912D02*
X9346015Y-16075484D01*
X9526968Y-16265960D02*
X9507920Y-16275484D01*
X9507920Y-16275484D02*
X9469825Y-16275484D01*
X9469825Y-16275484D02*
X9450777Y-16265960D01*
X9450777Y-16265960D02*
X9441253Y-16246912D01*
X9441253Y-16246912D02*
X9441253Y-16170722D01*
X9441253Y-16170722D02*
X9450777Y-16151674D01*
X9450777Y-16151674D02*
X9469825Y-16142150D01*
X9469825Y-16142150D02*
X9507920Y-16142150D01*
X9507920Y-16142150D02*
X9526968Y-16151674D01*
X9526968Y-16151674D02*
X9536492Y-16170722D01*
X9536492Y-16170722D02*
X9536492Y-16189769D01*
X9536492Y-16189769D02*
X9441253Y-16208817D01*
X9612682Y-16265960D02*
X9631730Y-16275484D01*
X9631730Y-16275484D02*
X9669825Y-16275484D01*
X9669825Y-16275484D02*
X9688873Y-16265960D01*
X9688873Y-16265960D02*
X9698396Y-16246912D01*
X9698396Y-16246912D02*
X9698396Y-16237388D01*
X9698396Y-16237388D02*
X9688873Y-16218341D01*
X9688873Y-16218341D02*
X9669825Y-16208817D01*
X9669825Y-16208817D02*
X9641253Y-16208817D01*
X9641253Y-16208817D02*
X9622206Y-16199293D01*
X9622206Y-16199293D02*
X9612682Y-16180246D01*
X9612682Y-16180246D02*
X9612682Y-16170722D01*
X9612682Y-16170722D02*
X9622206Y-16151674D01*
X9622206Y-16151674D02*
X9641253Y-16142150D01*
X9641253Y-16142150D02*
X9669825Y-16142150D01*
X9669825Y-16142150D02*
X9688873Y-16151674D01*
X9936492Y-16199293D02*
X10088873Y-16199293D01*
X10012682Y-16275484D02*
X10012682Y-16123103D01*
X10422206Y-16142150D02*
X10422206Y-16275484D01*
X10374587Y-16065960D02*
X10326968Y-16208817D01*
X10326968Y-16208817D02*
X10450777Y-16208817D01*
X10669825Y-16265960D02*
X10688873Y-16275484D01*
X10688873Y-16275484D02*
X10726968Y-16275484D01*
X10726968Y-16275484D02*
X10746016Y-16265960D01*
X10746016Y-16265960D02*
X10755539Y-16246912D01*
X10755539Y-16246912D02*
X10755539Y-16237388D01*
X10755539Y-16237388D02*
X10746016Y-16218341D01*
X10746016Y-16218341D02*
X10726968Y-16208817D01*
X10726968Y-16208817D02*
X10698396Y-16208817D01*
X10698396Y-16208817D02*
X10679349Y-16199293D01*
X10679349Y-16199293D02*
X10669825Y-16180246D01*
X10669825Y-16180246D02*
X10669825Y-16170722D01*
X10669825Y-16170722D02*
X10679349Y-16151674D01*
X10679349Y-16151674D02*
X10698396Y-16142150D01*
X10698396Y-16142150D02*
X10726968Y-16142150D01*
X10726968Y-16142150D02*
X10746016Y-16151674D01*
X10869825Y-16275484D02*
X10850777Y-16265960D01*
X10850777Y-16265960D02*
X10841254Y-16246912D01*
X10841254Y-16246912D02*
X10841254Y-16075484D01*
X10974587Y-16275484D02*
X10955539Y-16265960D01*
X10955539Y-16265960D02*
X10946016Y-16256436D01*
X10946016Y-16256436D02*
X10936492Y-16237388D01*
X10936492Y-16237388D02*
X10936492Y-16180246D01*
X10936492Y-16180246D02*
X10946016Y-16161198D01*
X10946016Y-16161198D02*
X10955539Y-16151674D01*
X10955539Y-16151674D02*
X10974587Y-16142150D01*
X10974587Y-16142150D02*
X11003158Y-16142150D01*
X11003158Y-16142150D02*
X11022206Y-16151674D01*
X11022206Y-16151674D02*
X11031730Y-16161198D01*
X11031730Y-16161198D02*
X11041254Y-16180246D01*
X11041254Y-16180246D02*
X11041254Y-16237388D01*
X11041254Y-16237388D02*
X11031730Y-16256436D01*
X11031730Y-16256436D02*
X11022206Y-16265960D01*
X11022206Y-16265960D02*
X11003158Y-16275484D01*
X11003158Y-16275484D02*
X10974587Y-16275484D01*
X11098397Y-16142150D02*
X11174587Y-16142150D01*
X11126968Y-16075484D02*
X11126968Y-16246912D01*
X11126968Y-16246912D02*
X11136492Y-16265960D01*
X11136492Y-16265960D02*
X11155539Y-16275484D01*
X11155539Y-16275484D02*
X11174587Y-16275484D01*
X11231730Y-16265960D02*
X11250777Y-16275484D01*
X11250777Y-16275484D02*
X11288873Y-16275484D01*
X11288873Y-16275484D02*
X11307920Y-16265960D01*
X11307920Y-16265960D02*
X11317444Y-16246912D01*
X11317444Y-16246912D02*
X11317444Y-16237388D01*
X11317444Y-16237388D02*
X11307920Y-16218341D01*
X11307920Y-16218341D02*
X11288873Y-16208817D01*
X11288873Y-16208817D02*
X11260301Y-16208817D01*
X11260301Y-16208817D02*
X11241254Y-16199293D01*
X11241254Y-16199293D02*
X11231730Y-16180246D01*
X11231730Y-16180246D02*
X11231730Y-16170722D01*
X11231730Y-16170722D02*
X11241254Y-16151674D01*
X11241254Y-16151674D02*
X11260301Y-16142150D01*
X11260301Y-16142150D02*
X11288873Y-16142150D01*
X11288873Y-16142150D02*
X11307920Y-16151674D01*
X11384111Y-16351674D02*
X11393635Y-16342150D01*
X11393635Y-16342150D02*
X11412682Y-16313579D01*
X11412682Y-16313579D02*
X11422206Y-16294531D01*
X11422206Y-16294531D02*
X11431730Y-16265960D01*
X11431730Y-16265960D02*
X11441254Y-16218341D01*
X11441254Y-16218341D02*
X11441254Y-16180246D01*
X11441254Y-16180246D02*
X11431730Y-16132627D01*
X11431730Y-16132627D02*
X11422206Y-16104055D01*
X11422206Y-16104055D02*
X11412682Y-16085008D01*
X11412682Y-16085008D02*
X11393635Y-16056436D01*
X11393635Y-16056436D02*
X11384111Y-16046912D01*
X11746016Y-16351674D02*
X11736492Y-16342150D01*
X11736492Y-16342150D02*
X11717444Y-16313579D01*
X11717444Y-16313579D02*
X11707920Y-16294531D01*
X11707920Y-16294531D02*
X11698396Y-16265960D01*
X11698396Y-16265960D02*
X11688873Y-16218341D01*
X11688873Y-16218341D02*
X11688873Y-16180246D01*
X11688873Y-16180246D02*
X11698396Y-16132627D01*
X11698396Y-16132627D02*
X11707920Y-16104055D01*
X11707920Y-16104055D02*
X11717444Y-16085008D01*
X11717444Y-16085008D02*
X11736492Y-16056436D01*
X11736492Y-16056436D02*
X11746016Y-16046912D01*
X11822206Y-16142150D02*
X11822206Y-16275484D01*
X11822206Y-16161198D02*
X11831730Y-16151674D01*
X11831730Y-16151674D02*
X11850777Y-16142150D01*
X11850777Y-16142150D02*
X11879349Y-16142150D01*
X11879349Y-16142150D02*
X11898396Y-16151674D01*
X11898396Y-16151674D02*
X11907920Y-16170722D01*
X11907920Y-16170722D02*
X11907920Y-16275484D01*
X12031730Y-16275484D02*
X12012682Y-16265960D01*
X12012682Y-16265960D02*
X12003158Y-16256436D01*
X12003158Y-16256436D02*
X11993635Y-16237388D01*
X11993635Y-16237388D02*
X11993635Y-16180246D01*
X11993635Y-16180246D02*
X12003158Y-16161198D01*
X12003158Y-16161198D02*
X12012682Y-16151674D01*
X12012682Y-16151674D02*
X12031730Y-16142150D01*
X12031730Y-16142150D02*
X12060301Y-16142150D01*
X12060301Y-16142150D02*
X12079349Y-16151674D01*
X12079349Y-16151674D02*
X12088873Y-16161198D01*
X12088873Y-16161198D02*
X12098396Y-16180246D01*
X12098396Y-16180246D02*
X12098396Y-16237388D01*
X12098396Y-16237388D02*
X12088873Y-16256436D01*
X12088873Y-16256436D02*
X12079349Y-16265960D01*
X12079349Y-16265960D02*
X12060301Y-16275484D01*
X12060301Y-16275484D02*
X12031730Y-16275484D01*
X12155539Y-16142150D02*
X12231730Y-16142150D01*
X12184111Y-16075484D02*
X12184111Y-16246912D01*
X12184111Y-16246912D02*
X12193635Y-16265960D01*
X12193635Y-16265960D02*
X12212682Y-16275484D01*
X12212682Y-16275484D02*
X12231730Y-16275484D01*
X12450777Y-16142150D02*
X12450777Y-16342150D01*
X12450777Y-16151674D02*
X12469825Y-16142150D01*
X12469825Y-16142150D02*
X12507920Y-16142150D01*
X12507920Y-16142150D02*
X12526968Y-16151674D01*
X12526968Y-16151674D02*
X12536492Y-16161198D01*
X12536492Y-16161198D02*
X12546016Y-16180246D01*
X12546016Y-16180246D02*
X12546016Y-16237388D01*
X12546016Y-16237388D02*
X12536492Y-16256436D01*
X12536492Y-16256436D02*
X12526968Y-16265960D01*
X12526968Y-16265960D02*
X12507920Y-16275484D01*
X12507920Y-16275484D02*
X12469825Y-16275484D01*
X12469825Y-16275484D02*
X12450777Y-16265960D01*
X12660301Y-16275484D02*
X12641254Y-16265960D01*
X12641254Y-16265960D02*
X12631730Y-16246912D01*
X12631730Y-16246912D02*
X12631730Y-16075484D01*
X12822206Y-16275484D02*
X12822206Y-16170722D01*
X12822206Y-16170722D02*
X12812682Y-16151674D01*
X12812682Y-16151674D02*
X12793635Y-16142150D01*
X12793635Y-16142150D02*
X12755539Y-16142150D01*
X12755539Y-16142150D02*
X12736492Y-16151674D01*
X12822206Y-16265960D02*
X12803158Y-16275484D01*
X12803158Y-16275484D02*
X12755539Y-16275484D01*
X12755539Y-16275484D02*
X12736492Y-16265960D01*
X12736492Y-16265960D02*
X12726968Y-16246912D01*
X12726968Y-16246912D02*
X12726968Y-16227865D01*
X12726968Y-16227865D02*
X12736492Y-16208817D01*
X12736492Y-16208817D02*
X12755539Y-16199293D01*
X12755539Y-16199293D02*
X12803158Y-16199293D01*
X12803158Y-16199293D02*
X12822206Y-16189769D01*
X12888873Y-16142150D02*
X12965063Y-16142150D01*
X12917444Y-16075484D02*
X12917444Y-16246912D01*
X12917444Y-16246912D02*
X12926968Y-16265960D01*
X12926968Y-16265960D02*
X12946016Y-16275484D01*
X12946016Y-16275484D02*
X12965063Y-16275484D01*
X13107920Y-16265960D02*
X13088873Y-16275484D01*
X13088873Y-16275484D02*
X13050777Y-16275484D01*
X13050777Y-16275484D02*
X13031730Y-16265960D01*
X13031730Y-16265960D02*
X13022206Y-16246912D01*
X13022206Y-16246912D02*
X13022206Y-16170722D01*
X13022206Y-16170722D02*
X13031730Y-16151674D01*
X13031730Y-16151674D02*
X13050777Y-16142150D01*
X13050777Y-16142150D02*
X13088873Y-16142150D01*
X13088873Y-16142150D02*
X13107920Y-16151674D01*
X13107920Y-16151674D02*
X13117444Y-16170722D01*
X13117444Y-16170722D02*
X13117444Y-16189769D01*
X13117444Y-16189769D02*
X13022206Y-16208817D01*
X13288873Y-16275484D02*
X13288873Y-16075484D01*
X13288873Y-16265960D02*
X13269825Y-16275484D01*
X13269825Y-16275484D02*
X13231730Y-16275484D01*
X13231730Y-16275484D02*
X13212682Y-16265960D01*
X13212682Y-16265960D02*
X13203158Y-16256436D01*
X13203158Y-16256436D02*
X13193635Y-16237388D01*
X13193635Y-16237388D02*
X13193635Y-16180246D01*
X13193635Y-16180246D02*
X13203158Y-16161198D01*
X13203158Y-16161198D02*
X13212682Y-16151674D01*
X13212682Y-16151674D02*
X13231730Y-16142150D01*
X13231730Y-16142150D02*
X13269825Y-16142150D01*
X13269825Y-16142150D02*
X13288873Y-16151674D01*
X13365063Y-16351674D02*
X13374587Y-16342150D01*
X13374587Y-16342150D02*
X13393635Y-16313579D01*
X13393635Y-16313579D02*
X13403158Y-16294531D01*
X13403158Y-16294531D02*
X13412682Y-16265960D01*
X13412682Y-16265960D02*
X13422206Y-16218341D01*
X13422206Y-16218341D02*
X13422206Y-16180246D01*
X13422206Y-16180246D02*
X13412682Y-16132627D01*
X13412682Y-16132627D02*
X13403158Y-16104055D01*
X13403158Y-16104055D02*
X13393635Y-16085008D01*
X13393635Y-16085008D02*
X13374587Y-16056436D01*
X13374587Y-16056436D02*
X13365063Y-16046912D01*
X4960711Y-16554711D02*
X4960711Y-16413289D01*
X4819289Y-16413289D01*
X4819289Y-16554711D01*
X4960711Y-16554711D01*
X5231729Y-16375484D02*
X5355539Y-16375484D01*
X5355539Y-16375484D02*
X5288872Y-16451674D01*
X5288872Y-16451674D02*
X5317444Y-16451674D01*
X5317444Y-16451674D02*
X5336491Y-16461198D01*
X5336491Y-16461198D02*
X5346015Y-16470722D01*
X5346015Y-16470722D02*
X5355539Y-16489769D01*
X5355539Y-16489769D02*
X5355539Y-16537388D01*
X5355539Y-16537388D02*
X5346015Y-16556436D01*
X5346015Y-16556436D02*
X5336491Y-16565960D01*
X5336491Y-16565960D02*
X5317444Y-16575484D01*
X5317444Y-16575484D02*
X5260301Y-16575484D01*
X5260301Y-16575484D02*
X5241253Y-16565960D01*
X5241253Y-16565960D02*
X5231729Y-16556436D01*
X5441253Y-16556436D02*
X5450777Y-16565960D01*
X5450777Y-16565960D02*
X5441253Y-16575484D01*
X5441253Y-16575484D02*
X5431729Y-16565960D01*
X5431729Y-16565960D02*
X5441253Y-16556436D01*
X5441253Y-16556436D02*
X5441253Y-16575484D01*
X5526967Y-16394531D02*
X5536491Y-16385008D01*
X5536491Y-16385008D02*
X5555539Y-16375484D01*
X5555539Y-16375484D02*
X5603158Y-16375484D01*
X5603158Y-16375484D02*
X5622205Y-16385008D01*
X5622205Y-16385008D02*
X5631729Y-16394531D01*
X5631729Y-16394531D02*
X5641253Y-16413579D01*
X5641253Y-16413579D02*
X5641253Y-16432627D01*
X5641253Y-16432627D02*
X5631729Y-16461198D01*
X5631729Y-16461198D02*
X5517444Y-16575484D01*
X5517444Y-16575484D02*
X5641253Y-16575484D01*
X5765062Y-16375484D02*
X5784110Y-16375484D01*
X5784110Y-16375484D02*
X5803158Y-16385008D01*
X5803158Y-16385008D02*
X5812682Y-16394531D01*
X5812682Y-16394531D02*
X5822205Y-16413579D01*
X5822205Y-16413579D02*
X5831729Y-16451674D01*
X5831729Y-16451674D02*
X5831729Y-16499293D01*
X5831729Y-16499293D02*
X5822205Y-16537388D01*
X5822205Y-16537388D02*
X5812682Y-16556436D01*
X5812682Y-16556436D02*
X5803158Y-16565960D01*
X5803158Y-16565960D02*
X5784110Y-16575484D01*
X5784110Y-16575484D02*
X5765062Y-16575484D01*
X5765062Y-16575484D02*
X5746015Y-16565960D01*
X5746015Y-16565960D02*
X5736491Y-16556436D01*
X5736491Y-16556436D02*
X5726967Y-16537388D01*
X5726967Y-16537388D02*
X5717443Y-16499293D01*
X5717443Y-16499293D02*
X5717443Y-16451674D01*
X5717443Y-16451674D02*
X5726967Y-16413579D01*
X5726967Y-16413579D02*
X5736491Y-16394531D01*
X5736491Y-16394531D02*
X5746015Y-16385008D01*
X5746015Y-16385008D02*
X5765062Y-16375484D01*
X5955539Y-16375484D02*
X5974586Y-16375484D01*
X5974586Y-16375484D02*
X5993634Y-16385008D01*
X5993634Y-16385008D02*
X6003158Y-16394531D01*
X6003158Y-16394531D02*
X6012682Y-16413579D01*
X6012682Y-16413579D02*
X6022205Y-16451674D01*
X6022205Y-16451674D02*
X6022205Y-16499293D01*
X6022205Y-16499293D02*
X6012682Y-16537388D01*
X6012682Y-16537388D02*
X6003158Y-16556436D01*
X6003158Y-16556436D02*
X5993634Y-16565960D01*
X5993634Y-16565960D02*
X5974586Y-16575484D01*
X5974586Y-16575484D02*
X5955539Y-16575484D01*
X5955539Y-16575484D02*
X5936491Y-16565960D01*
X5936491Y-16565960D02*
X5926967Y-16556436D01*
X5926967Y-16556436D02*
X5917443Y-16537388D01*
X5917443Y-16537388D02*
X5907920Y-16499293D01*
X5907920Y-16499293D02*
X5907920Y-16451674D01*
X5907920Y-16451674D02*
X5917443Y-16413579D01*
X5917443Y-16413579D02*
X5926967Y-16394531D01*
X5926967Y-16394531D02*
X5936491Y-16385008D01*
X5936491Y-16385008D02*
X5955539Y-16375484D01*
X6107920Y-16575484D02*
X6107920Y-16442150D01*
X6107920Y-16461198D02*
X6117443Y-16451674D01*
X6117443Y-16451674D02*
X6136491Y-16442150D01*
X6136491Y-16442150D02*
X6165063Y-16442150D01*
X6165063Y-16442150D02*
X6184110Y-16451674D01*
X6184110Y-16451674D02*
X6193634Y-16470722D01*
X6193634Y-16470722D02*
X6193634Y-16575484D01*
X6193634Y-16470722D02*
X6203158Y-16451674D01*
X6203158Y-16451674D02*
X6222205Y-16442150D01*
X6222205Y-16442150D02*
X6250777Y-16442150D01*
X6250777Y-16442150D02*
X6269824Y-16451674D01*
X6269824Y-16451674D02*
X6279348Y-16470722D01*
X6279348Y-16470722D02*
X6279348Y-16575484D01*
X6374586Y-16575484D02*
X6374586Y-16442150D01*
X6374586Y-16461198D02*
X6384110Y-16451674D01*
X6384110Y-16451674D02*
X6403158Y-16442150D01*
X6403158Y-16442150D02*
X6431729Y-16442150D01*
X6431729Y-16442150D02*
X6450777Y-16451674D01*
X6450777Y-16451674D02*
X6460301Y-16470722D01*
X6460301Y-16470722D02*
X6460301Y-16575484D01*
X6460301Y-16470722D02*
X6469824Y-16451674D01*
X6469824Y-16451674D02*
X6488872Y-16442150D01*
X6488872Y-16442150D02*
X6517443Y-16442150D01*
X6517443Y-16442150D02*
X6536491Y-16451674D01*
X6536491Y-16451674D02*
X6546015Y-16470722D01*
X6546015Y-16470722D02*
X6546015Y-16575484D01*
X6936491Y-16365960D02*
X6765063Y-16623103D01*
X7193634Y-16375484D02*
X7212682Y-16375484D01*
X7212682Y-16375484D02*
X7231729Y-16385008D01*
X7231729Y-16385008D02*
X7241253Y-16394531D01*
X7241253Y-16394531D02*
X7250777Y-16413579D01*
X7250777Y-16413579D02*
X7260301Y-16451674D01*
X7260301Y-16451674D02*
X7260301Y-16499293D01*
X7260301Y-16499293D02*
X7250777Y-16537388D01*
X7250777Y-16537388D02*
X7241253Y-16556436D01*
X7241253Y-16556436D02*
X7231729Y-16565960D01*
X7231729Y-16565960D02*
X7212682Y-16575484D01*
X7212682Y-16575484D02*
X7193634Y-16575484D01*
X7193634Y-16575484D02*
X7174586Y-16565960D01*
X7174586Y-16565960D02*
X7165063Y-16556436D01*
X7165063Y-16556436D02*
X7155539Y-16537388D01*
X7155539Y-16537388D02*
X7146015Y-16499293D01*
X7146015Y-16499293D02*
X7146015Y-16451674D01*
X7146015Y-16451674D02*
X7155539Y-16413579D01*
X7155539Y-16413579D02*
X7165063Y-16394531D01*
X7165063Y-16394531D02*
X7174586Y-16385008D01*
X7174586Y-16385008D02*
X7193634Y-16375484D01*
X7346015Y-16556436D02*
X7355539Y-16565960D01*
X7355539Y-16565960D02*
X7346015Y-16575484D01*
X7346015Y-16575484D02*
X7336491Y-16565960D01*
X7336491Y-16565960D02*
X7346015Y-16556436D01*
X7346015Y-16556436D02*
X7346015Y-16575484D01*
X7546015Y-16575484D02*
X7431729Y-16575484D01*
X7488872Y-16575484D02*
X7488872Y-16375484D01*
X7488872Y-16375484D02*
X7469825Y-16404055D01*
X7469825Y-16404055D02*
X7450777Y-16423103D01*
X7450777Y-16423103D02*
X7431729Y-16432627D01*
X7622206Y-16394531D02*
X7631729Y-16385008D01*
X7631729Y-16385008D02*
X7650777Y-16375484D01*
X7650777Y-16375484D02*
X7698396Y-16375484D01*
X7698396Y-16375484D02*
X7717444Y-16385008D01*
X7717444Y-16385008D02*
X7726967Y-16394531D01*
X7726967Y-16394531D02*
X7736491Y-16413579D01*
X7736491Y-16413579D02*
X7736491Y-16432627D01*
X7736491Y-16432627D02*
X7726967Y-16461198D01*
X7726967Y-16461198D02*
X7612682Y-16575484D01*
X7612682Y-16575484D02*
X7736491Y-16575484D01*
X7907920Y-16375484D02*
X7869825Y-16375484D01*
X7869825Y-16375484D02*
X7850777Y-16385008D01*
X7850777Y-16385008D02*
X7841253Y-16394531D01*
X7841253Y-16394531D02*
X7822206Y-16423103D01*
X7822206Y-16423103D02*
X7812682Y-16461198D01*
X7812682Y-16461198D02*
X7812682Y-16537388D01*
X7812682Y-16537388D02*
X7822206Y-16556436D01*
X7822206Y-16556436D02*
X7831729Y-16565960D01*
X7831729Y-16565960D02*
X7850777Y-16575484D01*
X7850777Y-16575484D02*
X7888872Y-16575484D01*
X7888872Y-16575484D02*
X7907920Y-16565960D01*
X7907920Y-16565960D02*
X7917444Y-16556436D01*
X7917444Y-16556436D02*
X7926967Y-16537388D01*
X7926967Y-16537388D02*
X7926967Y-16489769D01*
X7926967Y-16489769D02*
X7917444Y-16470722D01*
X7917444Y-16470722D02*
X7907920Y-16461198D01*
X7907920Y-16461198D02*
X7888872Y-16451674D01*
X7888872Y-16451674D02*
X7850777Y-16451674D01*
X7850777Y-16451674D02*
X7831729Y-16461198D01*
X7831729Y-16461198D02*
X7822206Y-16470722D01*
X7822206Y-16470722D02*
X7812682Y-16489769D01*
X8050777Y-16375484D02*
X8069825Y-16375484D01*
X8069825Y-16375484D02*
X8088872Y-16385008D01*
X8088872Y-16385008D02*
X8098396Y-16394531D01*
X8098396Y-16394531D02*
X8107920Y-16413579D01*
X8107920Y-16413579D02*
X8117444Y-16451674D01*
X8117444Y-16451674D02*
X8117444Y-16499293D01*
X8117444Y-16499293D02*
X8107920Y-16537388D01*
X8107920Y-16537388D02*
X8098396Y-16556436D01*
X8098396Y-16556436D02*
X8088872Y-16565960D01*
X8088872Y-16565960D02*
X8069825Y-16575484D01*
X8069825Y-16575484D02*
X8050777Y-16575484D01*
X8050777Y-16575484D02*
X8031729Y-16565960D01*
X8031729Y-16565960D02*
X8022206Y-16556436D01*
X8022206Y-16556436D02*
X8012682Y-16537388D01*
X8012682Y-16537388D02*
X8003158Y-16499293D01*
X8003158Y-16499293D02*
X8003158Y-16451674D01*
X8003158Y-16451674D02*
X8012682Y-16413579D01*
X8012682Y-16413579D02*
X8022206Y-16394531D01*
X8022206Y-16394531D02*
X8031729Y-16385008D01*
X8031729Y-16385008D02*
X8050777Y-16375484D01*
X8193634Y-16375484D02*
X8193634Y-16413579D01*
X8269825Y-16375484D02*
X8269825Y-16413579D01*
X8565063Y-16651674D02*
X8555539Y-16642150D01*
X8555539Y-16642150D02*
X8536491Y-16613579D01*
X8536491Y-16613579D02*
X8526968Y-16594531D01*
X8526968Y-16594531D02*
X8517444Y-16565960D01*
X8517444Y-16565960D02*
X8507920Y-16518341D01*
X8507920Y-16518341D02*
X8507920Y-16480246D01*
X8507920Y-16480246D02*
X8517444Y-16432627D01*
X8517444Y-16432627D02*
X8526968Y-16404055D01*
X8526968Y-16404055D02*
X8536491Y-16385008D01*
X8536491Y-16385008D02*
X8555539Y-16356436D01*
X8555539Y-16356436D02*
X8565063Y-16346912D01*
X8726968Y-16442150D02*
X8726968Y-16575484D01*
X8679349Y-16365960D02*
X8631730Y-16508817D01*
X8631730Y-16508817D02*
X8755539Y-16508817D01*
X8984111Y-16575484D02*
X8984111Y-16375484D01*
X9069825Y-16575484D02*
X9069825Y-16470722D01*
X9069825Y-16470722D02*
X9060301Y-16451674D01*
X9060301Y-16451674D02*
X9041253Y-16442150D01*
X9041253Y-16442150D02*
X9012682Y-16442150D01*
X9012682Y-16442150D02*
X8993634Y-16451674D01*
X8993634Y-16451674D02*
X8984111Y-16461198D01*
X9193634Y-16575484D02*
X9174587Y-16565960D01*
X9174587Y-16565960D02*
X9165063Y-16556436D01*
X9165063Y-16556436D02*
X9155539Y-16537388D01*
X9155539Y-16537388D02*
X9155539Y-16480246D01*
X9155539Y-16480246D02*
X9165063Y-16461198D01*
X9165063Y-16461198D02*
X9174587Y-16451674D01*
X9174587Y-16451674D02*
X9193634Y-16442150D01*
X9193634Y-16442150D02*
X9222206Y-16442150D01*
X9222206Y-16442150D02*
X9241253Y-16451674D01*
X9241253Y-16451674D02*
X9250777Y-16461198D01*
X9250777Y-16461198D02*
X9260301Y-16480246D01*
X9260301Y-16480246D02*
X9260301Y-16537388D01*
X9260301Y-16537388D02*
X9250777Y-16556436D01*
X9250777Y-16556436D02*
X9241253Y-16565960D01*
X9241253Y-16565960D02*
X9222206Y-16575484D01*
X9222206Y-16575484D02*
X9193634Y-16575484D01*
X9374587Y-16575484D02*
X9355539Y-16565960D01*
X9355539Y-16565960D02*
X9346015Y-16546912D01*
X9346015Y-16546912D02*
X9346015Y-16375484D01*
X9526968Y-16565960D02*
X9507920Y-16575484D01*
X9507920Y-16575484D02*
X9469825Y-16575484D01*
X9469825Y-16575484D02*
X9450777Y-16565960D01*
X9450777Y-16565960D02*
X9441253Y-16546912D01*
X9441253Y-16546912D02*
X9441253Y-16470722D01*
X9441253Y-16470722D02*
X9450777Y-16451674D01*
X9450777Y-16451674D02*
X9469825Y-16442150D01*
X9469825Y-16442150D02*
X9507920Y-16442150D01*
X9507920Y-16442150D02*
X9526968Y-16451674D01*
X9526968Y-16451674D02*
X9536492Y-16470722D01*
X9536492Y-16470722D02*
X9536492Y-16489769D01*
X9536492Y-16489769D02*
X9441253Y-16508817D01*
X9612682Y-16565960D02*
X9631730Y-16575484D01*
X9631730Y-16575484D02*
X9669825Y-16575484D01*
X9669825Y-16575484D02*
X9688873Y-16565960D01*
X9688873Y-16565960D02*
X9698396Y-16546912D01*
X9698396Y-16546912D02*
X9698396Y-16537388D01*
X9698396Y-16537388D02*
X9688873Y-16518341D01*
X9688873Y-16518341D02*
X9669825Y-16508817D01*
X9669825Y-16508817D02*
X9641253Y-16508817D01*
X9641253Y-16508817D02*
X9622206Y-16499293D01*
X9622206Y-16499293D02*
X9612682Y-16480246D01*
X9612682Y-16480246D02*
X9612682Y-16470722D01*
X9612682Y-16470722D02*
X9622206Y-16451674D01*
X9622206Y-16451674D02*
X9641253Y-16442150D01*
X9641253Y-16442150D02*
X9669825Y-16442150D01*
X9669825Y-16442150D02*
X9688873Y-16451674D01*
X9765063Y-16651674D02*
X9774587Y-16642150D01*
X9774587Y-16642150D02*
X9793634Y-16613579D01*
X9793634Y-16613579D02*
X9803158Y-16594531D01*
X9803158Y-16594531D02*
X9812682Y-16565960D01*
X9812682Y-16565960D02*
X9822206Y-16518341D01*
X9822206Y-16518341D02*
X9822206Y-16480246D01*
X9822206Y-16480246D02*
X9812682Y-16432627D01*
X9812682Y-16432627D02*
X9803158Y-16404055D01*
X9803158Y-16404055D02*
X9793634Y-16385008D01*
X9793634Y-16385008D02*
X9774587Y-16356436D01*
X9774587Y-16356436D02*
X9765063Y-16346912D01*
X10126968Y-16651674D02*
X10117444Y-16642150D01*
X10117444Y-16642150D02*
X10098396Y-16613579D01*
X10098396Y-16613579D02*
X10088873Y-16594531D01*
X10088873Y-16594531D02*
X10079349Y-16565960D01*
X10079349Y-16565960D02*
X10069825Y-16518341D01*
X10069825Y-16518341D02*
X10069825Y-16480246D01*
X10069825Y-16480246D02*
X10079349Y-16432627D01*
X10079349Y-16432627D02*
X10088873Y-16404055D01*
X10088873Y-16404055D02*
X10098396Y-16385008D01*
X10098396Y-16385008D02*
X10117444Y-16356436D01*
X10117444Y-16356436D02*
X10126968Y-16346912D01*
X10203158Y-16442150D02*
X10203158Y-16575484D01*
X10203158Y-16461198D02*
X10212682Y-16451674D01*
X10212682Y-16451674D02*
X10231730Y-16442150D01*
X10231730Y-16442150D02*
X10260301Y-16442150D01*
X10260301Y-16442150D02*
X10279349Y-16451674D01*
X10279349Y-16451674D02*
X10288873Y-16470722D01*
X10288873Y-16470722D02*
X10288873Y-16575484D01*
X10412682Y-16575484D02*
X10393634Y-16565960D01*
X10393634Y-16565960D02*
X10384111Y-16556436D01*
X10384111Y-16556436D02*
X10374587Y-16537388D01*
X10374587Y-16537388D02*
X10374587Y-16480246D01*
X10374587Y-16480246D02*
X10384111Y-16461198D01*
X10384111Y-16461198D02*
X10393634Y-16451674D01*
X10393634Y-16451674D02*
X10412682Y-16442150D01*
X10412682Y-16442150D02*
X10441254Y-16442150D01*
X10441254Y-16442150D02*
X10460301Y-16451674D01*
X10460301Y-16451674D02*
X10469825Y-16461198D01*
X10469825Y-16461198D02*
X10479349Y-16480246D01*
X10479349Y-16480246D02*
X10479349Y-16537388D01*
X10479349Y-16537388D02*
X10469825Y-16556436D01*
X10469825Y-16556436D02*
X10460301Y-16565960D01*
X10460301Y-16565960D02*
X10441254Y-16575484D01*
X10441254Y-16575484D02*
X10412682Y-16575484D01*
X10536492Y-16442150D02*
X10612682Y-16442150D01*
X10565063Y-16375484D02*
X10565063Y-16546912D01*
X10565063Y-16546912D02*
X10574587Y-16565960D01*
X10574587Y-16565960D02*
X10593634Y-16575484D01*
X10593634Y-16575484D02*
X10612682Y-16575484D01*
X10831730Y-16442150D02*
X10831730Y-16642150D01*
X10831730Y-16451674D02*
X10850777Y-16442150D01*
X10850777Y-16442150D02*
X10888873Y-16442150D01*
X10888873Y-16442150D02*
X10907920Y-16451674D01*
X10907920Y-16451674D02*
X10917444Y-16461198D01*
X10917444Y-16461198D02*
X10926968Y-16480246D01*
X10926968Y-16480246D02*
X10926968Y-16537388D01*
X10926968Y-16537388D02*
X10917444Y-16556436D01*
X10917444Y-16556436D02*
X10907920Y-16565960D01*
X10907920Y-16565960D02*
X10888873Y-16575484D01*
X10888873Y-16575484D02*
X10850777Y-16575484D01*
X10850777Y-16575484D02*
X10831730Y-16565960D01*
X11041254Y-16575484D02*
X11022206Y-16565960D01*
X11022206Y-16565960D02*
X11012682Y-16546912D01*
X11012682Y-16546912D02*
X11012682Y-16375484D01*
X11203158Y-16575484D02*
X11203158Y-16470722D01*
X11203158Y-16470722D02*
X11193634Y-16451674D01*
X11193634Y-16451674D02*
X11174587Y-16442150D01*
X11174587Y-16442150D02*
X11136492Y-16442150D01*
X11136492Y-16442150D02*
X11117444Y-16451674D01*
X11203158Y-16565960D02*
X11184111Y-16575484D01*
X11184111Y-16575484D02*
X11136492Y-16575484D01*
X11136492Y-16575484D02*
X11117444Y-16565960D01*
X11117444Y-16565960D02*
X11107920Y-16546912D01*
X11107920Y-16546912D02*
X11107920Y-16527865D01*
X11107920Y-16527865D02*
X11117444Y-16508817D01*
X11117444Y-16508817D02*
X11136492Y-16499293D01*
X11136492Y-16499293D02*
X11184111Y-16499293D01*
X11184111Y-16499293D02*
X11203158Y-16489769D01*
X11269825Y-16442150D02*
X11346015Y-16442150D01*
X11298396Y-16375484D02*
X11298396Y-16546912D01*
X11298396Y-16546912D02*
X11307920Y-16565960D01*
X11307920Y-16565960D02*
X11326968Y-16575484D01*
X11326968Y-16575484D02*
X11346015Y-16575484D01*
X11488873Y-16565960D02*
X11469825Y-16575484D01*
X11469825Y-16575484D02*
X11431730Y-16575484D01*
X11431730Y-16575484D02*
X11412682Y-16565960D01*
X11412682Y-16565960D02*
X11403158Y-16546912D01*
X11403158Y-16546912D02*
X11403158Y-16470722D01*
X11403158Y-16470722D02*
X11412682Y-16451674D01*
X11412682Y-16451674D02*
X11431730Y-16442150D01*
X11431730Y-16442150D02*
X11469825Y-16442150D01*
X11469825Y-16442150D02*
X11488873Y-16451674D01*
X11488873Y-16451674D02*
X11498396Y-16470722D01*
X11498396Y-16470722D02*
X11498396Y-16489769D01*
X11498396Y-16489769D02*
X11403158Y-16508817D01*
X11669825Y-16575484D02*
X11669825Y-16375484D01*
X11669825Y-16565960D02*
X11650777Y-16575484D01*
X11650777Y-16575484D02*
X11612682Y-16575484D01*
X11612682Y-16575484D02*
X11593634Y-16565960D01*
X11593634Y-16565960D02*
X11584111Y-16556436D01*
X11584111Y-16556436D02*
X11574587Y-16537388D01*
X11574587Y-16537388D02*
X11574587Y-16480246D01*
X11574587Y-16480246D02*
X11584111Y-16461198D01*
X11584111Y-16461198D02*
X11593634Y-16451674D01*
X11593634Y-16451674D02*
X11612682Y-16442150D01*
X11612682Y-16442150D02*
X11650777Y-16442150D01*
X11650777Y-16442150D02*
X11669825Y-16451674D01*
X11746015Y-16651674D02*
X11755539Y-16642150D01*
X11755539Y-16642150D02*
X11774587Y-16613579D01*
X11774587Y-16613579D02*
X11784111Y-16594531D01*
X11784111Y-16594531D02*
X11793634Y-16565960D01*
X11793634Y-16565960D02*
X11803158Y-16518341D01*
X11803158Y-16518341D02*
X11803158Y-16480246D01*
X11803158Y-16480246D02*
X11793634Y-16432627D01*
X11793634Y-16432627D02*
X11784111Y-16404055D01*
X11784111Y-16404055D02*
X11774587Y-16385008D01*
X11774587Y-16385008D02*
X11755539Y-16356436D01*
X11755539Y-16356436D02*
X11746015Y-16346912D01*
X4890000Y-16904000D02*
X4990000Y-16804000D01*
X4890000Y-16704000D01*
X4790000Y-16804000D01*
X4890000Y-16904000D01*
X5231729Y-16695484D02*
X5355539Y-16695484D01*
X5355539Y-16695484D02*
X5288872Y-16771674D01*
X5288872Y-16771674D02*
X5317444Y-16771674D01*
X5317444Y-16771674D02*
X5336491Y-16781198D01*
X5336491Y-16781198D02*
X5346015Y-16790722D01*
X5346015Y-16790722D02*
X5355539Y-16809770D01*
X5355539Y-16809770D02*
X5355539Y-16857389D01*
X5355539Y-16857389D02*
X5346015Y-16876436D01*
X5346015Y-16876436D02*
X5336491Y-16885960D01*
X5336491Y-16885960D02*
X5317444Y-16895484D01*
X5317444Y-16895484D02*
X5260301Y-16895484D01*
X5260301Y-16895484D02*
X5241253Y-16885960D01*
X5241253Y-16885960D02*
X5231729Y-16876436D01*
X5441253Y-16876436D02*
X5450777Y-16885960D01*
X5450777Y-16885960D02*
X5441253Y-16895484D01*
X5441253Y-16895484D02*
X5431729Y-16885960D01*
X5431729Y-16885960D02*
X5441253Y-16876436D01*
X5441253Y-16876436D02*
X5441253Y-16895484D01*
X5622205Y-16762150D02*
X5622205Y-16895484D01*
X5574586Y-16685960D02*
X5526967Y-16828817D01*
X5526967Y-16828817D02*
X5650777Y-16828817D01*
X5822205Y-16695484D02*
X5726967Y-16695484D01*
X5726967Y-16695484D02*
X5717443Y-16790722D01*
X5717443Y-16790722D02*
X5726967Y-16781198D01*
X5726967Y-16781198D02*
X5746015Y-16771674D01*
X5746015Y-16771674D02*
X5793634Y-16771674D01*
X5793634Y-16771674D02*
X5812682Y-16781198D01*
X5812682Y-16781198D02*
X5822205Y-16790722D01*
X5822205Y-16790722D02*
X5831729Y-16809770D01*
X5831729Y-16809770D02*
X5831729Y-16857389D01*
X5831729Y-16857389D02*
X5822205Y-16876436D01*
X5822205Y-16876436D02*
X5812682Y-16885960D01*
X5812682Y-16885960D02*
X5793634Y-16895484D01*
X5793634Y-16895484D02*
X5746015Y-16895484D01*
X5746015Y-16895484D02*
X5726967Y-16885960D01*
X5726967Y-16885960D02*
X5717443Y-16876436D01*
X5955539Y-16695484D02*
X5974586Y-16695484D01*
X5974586Y-16695484D02*
X5993634Y-16705008D01*
X5993634Y-16705008D02*
X6003158Y-16714531D01*
X6003158Y-16714531D02*
X6012682Y-16733579D01*
X6012682Y-16733579D02*
X6022205Y-16771674D01*
X6022205Y-16771674D02*
X6022205Y-16819293D01*
X6022205Y-16819293D02*
X6012682Y-16857389D01*
X6012682Y-16857389D02*
X6003158Y-16876436D01*
X6003158Y-16876436D02*
X5993634Y-16885960D01*
X5993634Y-16885960D02*
X5974586Y-16895484D01*
X5974586Y-16895484D02*
X5955539Y-16895484D01*
X5955539Y-16895484D02*
X5936491Y-16885960D01*
X5936491Y-16885960D02*
X5926967Y-16876436D01*
X5926967Y-16876436D02*
X5917443Y-16857389D01*
X5917443Y-16857389D02*
X5907920Y-16819293D01*
X5907920Y-16819293D02*
X5907920Y-16771674D01*
X5907920Y-16771674D02*
X5917443Y-16733579D01*
X5917443Y-16733579D02*
X5926967Y-16714531D01*
X5926967Y-16714531D02*
X5936491Y-16705008D01*
X5936491Y-16705008D02*
X5955539Y-16695484D01*
X6107920Y-16895484D02*
X6107920Y-16762150D01*
X6107920Y-16781198D02*
X6117443Y-16771674D01*
X6117443Y-16771674D02*
X6136491Y-16762150D01*
X6136491Y-16762150D02*
X6165063Y-16762150D01*
X6165063Y-16762150D02*
X6184110Y-16771674D01*
X6184110Y-16771674D02*
X6193634Y-16790722D01*
X6193634Y-16790722D02*
X6193634Y-16895484D01*
X6193634Y-16790722D02*
X6203158Y-16771674D01*
X6203158Y-16771674D02*
X6222205Y-16762150D01*
X6222205Y-16762150D02*
X6250777Y-16762150D01*
X6250777Y-16762150D02*
X6269824Y-16771674D01*
X6269824Y-16771674D02*
X6279348Y-16790722D01*
X6279348Y-16790722D02*
X6279348Y-16895484D01*
X6374586Y-16895484D02*
X6374586Y-16762150D01*
X6374586Y-16781198D02*
X6384110Y-16771674D01*
X6384110Y-16771674D02*
X6403158Y-16762150D01*
X6403158Y-16762150D02*
X6431729Y-16762150D01*
X6431729Y-16762150D02*
X6450777Y-16771674D01*
X6450777Y-16771674D02*
X6460301Y-16790722D01*
X6460301Y-16790722D02*
X6460301Y-16895484D01*
X6460301Y-16790722D02*
X6469824Y-16771674D01*
X6469824Y-16771674D02*
X6488872Y-16762150D01*
X6488872Y-16762150D02*
X6517443Y-16762150D01*
X6517443Y-16762150D02*
X6536491Y-16771674D01*
X6536491Y-16771674D02*
X6546015Y-16790722D01*
X6546015Y-16790722D02*
X6546015Y-16895484D01*
X6936491Y-16685960D02*
X6765063Y-16943103D01*
X7193634Y-16695484D02*
X7212682Y-16695484D01*
X7212682Y-16695484D02*
X7231729Y-16705008D01*
X7231729Y-16705008D02*
X7241253Y-16714531D01*
X7241253Y-16714531D02*
X7250777Y-16733579D01*
X7250777Y-16733579D02*
X7260301Y-16771674D01*
X7260301Y-16771674D02*
X7260301Y-16819293D01*
X7260301Y-16819293D02*
X7250777Y-16857389D01*
X7250777Y-16857389D02*
X7241253Y-16876436D01*
X7241253Y-16876436D02*
X7231729Y-16885960D01*
X7231729Y-16885960D02*
X7212682Y-16895484D01*
X7212682Y-16895484D02*
X7193634Y-16895484D01*
X7193634Y-16895484D02*
X7174586Y-16885960D01*
X7174586Y-16885960D02*
X7165063Y-16876436D01*
X7165063Y-16876436D02*
X7155539Y-16857389D01*
X7155539Y-16857389D02*
X7146015Y-16819293D01*
X7146015Y-16819293D02*
X7146015Y-16771674D01*
X7146015Y-16771674D02*
X7155539Y-16733579D01*
X7155539Y-16733579D02*
X7165063Y-16714531D01*
X7165063Y-16714531D02*
X7174586Y-16705008D01*
X7174586Y-16705008D02*
X7193634Y-16695484D01*
X7346015Y-16876436D02*
X7355539Y-16885960D01*
X7355539Y-16885960D02*
X7346015Y-16895484D01*
X7346015Y-16895484D02*
X7336491Y-16885960D01*
X7336491Y-16885960D02*
X7346015Y-16876436D01*
X7346015Y-16876436D02*
X7346015Y-16895484D01*
X7546015Y-16895484D02*
X7431729Y-16895484D01*
X7488872Y-16895484D02*
X7488872Y-16695484D01*
X7488872Y-16695484D02*
X7469825Y-16724055D01*
X7469825Y-16724055D02*
X7450777Y-16743103D01*
X7450777Y-16743103D02*
X7431729Y-16752627D01*
X7612682Y-16695484D02*
X7736491Y-16695484D01*
X7736491Y-16695484D02*
X7669825Y-16771674D01*
X7669825Y-16771674D02*
X7698396Y-16771674D01*
X7698396Y-16771674D02*
X7717444Y-16781198D01*
X7717444Y-16781198D02*
X7726967Y-16790722D01*
X7726967Y-16790722D02*
X7736491Y-16809770D01*
X7736491Y-16809770D02*
X7736491Y-16857389D01*
X7736491Y-16857389D02*
X7726967Y-16876436D01*
X7726967Y-16876436D02*
X7717444Y-16885960D01*
X7717444Y-16885960D02*
X7698396Y-16895484D01*
X7698396Y-16895484D02*
X7641253Y-16895484D01*
X7641253Y-16895484D02*
X7622206Y-16885960D01*
X7622206Y-16885960D02*
X7612682Y-16876436D01*
X7917444Y-16695484D02*
X7822206Y-16695484D01*
X7822206Y-16695484D02*
X7812682Y-16790722D01*
X7812682Y-16790722D02*
X7822206Y-16781198D01*
X7822206Y-16781198D02*
X7841253Y-16771674D01*
X7841253Y-16771674D02*
X7888872Y-16771674D01*
X7888872Y-16771674D02*
X7907920Y-16781198D01*
X7907920Y-16781198D02*
X7917444Y-16790722D01*
X7917444Y-16790722D02*
X7926967Y-16809770D01*
X7926967Y-16809770D02*
X7926967Y-16857389D01*
X7926967Y-16857389D02*
X7917444Y-16876436D01*
X7917444Y-16876436D02*
X7907920Y-16885960D01*
X7907920Y-16885960D02*
X7888872Y-16895484D01*
X7888872Y-16895484D02*
X7841253Y-16895484D01*
X7841253Y-16895484D02*
X7822206Y-16885960D01*
X7822206Y-16885960D02*
X7812682Y-16876436D01*
X8041253Y-16781198D02*
X8022206Y-16771674D01*
X8022206Y-16771674D02*
X8012682Y-16762150D01*
X8012682Y-16762150D02*
X8003158Y-16743103D01*
X8003158Y-16743103D02*
X8003158Y-16733579D01*
X8003158Y-16733579D02*
X8012682Y-16714531D01*
X8012682Y-16714531D02*
X8022206Y-16705008D01*
X8022206Y-16705008D02*
X8041253Y-16695484D01*
X8041253Y-16695484D02*
X8079348Y-16695484D01*
X8079348Y-16695484D02*
X8098396Y-16705008D01*
X8098396Y-16705008D02*
X8107920Y-16714531D01*
X8107920Y-16714531D02*
X8117444Y-16733579D01*
X8117444Y-16733579D02*
X8117444Y-16743103D01*
X8117444Y-16743103D02*
X8107920Y-16762150D01*
X8107920Y-16762150D02*
X8098396Y-16771674D01*
X8098396Y-16771674D02*
X8079348Y-16781198D01*
X8079348Y-16781198D02*
X8041253Y-16781198D01*
X8041253Y-16781198D02*
X8022206Y-16790722D01*
X8022206Y-16790722D02*
X8012682Y-16800246D01*
X8012682Y-16800246D02*
X8003158Y-16819293D01*
X8003158Y-16819293D02*
X8003158Y-16857389D01*
X8003158Y-16857389D02*
X8012682Y-16876436D01*
X8012682Y-16876436D02*
X8022206Y-16885960D01*
X8022206Y-16885960D02*
X8041253Y-16895484D01*
X8041253Y-16895484D02*
X8079348Y-16895484D01*
X8079348Y-16895484D02*
X8098396Y-16885960D01*
X8098396Y-16885960D02*
X8107920Y-16876436D01*
X8107920Y-16876436D02*
X8117444Y-16857389D01*
X8117444Y-16857389D02*
X8117444Y-16819293D01*
X8117444Y-16819293D02*
X8107920Y-16800246D01*
X8107920Y-16800246D02*
X8098396Y-16790722D01*
X8098396Y-16790722D02*
X8079348Y-16781198D01*
X8193634Y-16695484D02*
X8193634Y-16733579D01*
X8269825Y-16695484D02*
X8269825Y-16733579D01*
X8565063Y-16971674D02*
X8555539Y-16962150D01*
X8555539Y-16962150D02*
X8536491Y-16933579D01*
X8536491Y-16933579D02*
X8526968Y-16914531D01*
X8526968Y-16914531D02*
X8517444Y-16885960D01*
X8517444Y-16885960D02*
X8507920Y-16838341D01*
X8507920Y-16838341D02*
X8507920Y-16800246D01*
X8507920Y-16800246D02*
X8517444Y-16752627D01*
X8517444Y-16752627D02*
X8526968Y-16724055D01*
X8526968Y-16724055D02*
X8536491Y-16705008D01*
X8536491Y-16705008D02*
X8555539Y-16676436D01*
X8555539Y-16676436D02*
X8565063Y-16666912D01*
X8631730Y-16714531D02*
X8641253Y-16705008D01*
X8641253Y-16705008D02*
X8660301Y-16695484D01*
X8660301Y-16695484D02*
X8707920Y-16695484D01*
X8707920Y-16695484D02*
X8726968Y-16705008D01*
X8726968Y-16705008D02*
X8736491Y-16714531D01*
X8736491Y-16714531D02*
X8746015Y-16733579D01*
X8746015Y-16733579D02*
X8746015Y-16752627D01*
X8746015Y-16752627D02*
X8736491Y-16781198D01*
X8736491Y-16781198D02*
X8622206Y-16895484D01*
X8622206Y-16895484D02*
X8746015Y-16895484D01*
X8984111Y-16895484D02*
X8984111Y-16695484D01*
X9069825Y-16895484D02*
X9069825Y-16790722D01*
X9069825Y-16790722D02*
X9060301Y-16771674D01*
X9060301Y-16771674D02*
X9041253Y-16762150D01*
X9041253Y-16762150D02*
X9012682Y-16762150D01*
X9012682Y-16762150D02*
X8993634Y-16771674D01*
X8993634Y-16771674D02*
X8984111Y-16781198D01*
X9193634Y-16895484D02*
X9174587Y-16885960D01*
X9174587Y-16885960D02*
X9165063Y-16876436D01*
X9165063Y-16876436D02*
X9155539Y-16857389D01*
X9155539Y-16857389D02*
X9155539Y-16800246D01*
X9155539Y-16800246D02*
X9165063Y-16781198D01*
X9165063Y-16781198D02*
X9174587Y-16771674D01*
X9174587Y-16771674D02*
X9193634Y-16762150D01*
X9193634Y-16762150D02*
X9222206Y-16762150D01*
X9222206Y-16762150D02*
X9241253Y-16771674D01*
X9241253Y-16771674D02*
X9250777Y-16781198D01*
X9250777Y-16781198D02*
X9260301Y-16800246D01*
X9260301Y-16800246D02*
X9260301Y-16857389D01*
X9260301Y-16857389D02*
X9250777Y-16876436D01*
X9250777Y-16876436D02*
X9241253Y-16885960D01*
X9241253Y-16885960D02*
X9222206Y-16895484D01*
X9222206Y-16895484D02*
X9193634Y-16895484D01*
X9374587Y-16895484D02*
X9355539Y-16885960D01*
X9355539Y-16885960D02*
X9346015Y-16866912D01*
X9346015Y-16866912D02*
X9346015Y-16695484D01*
X9526968Y-16885960D02*
X9507920Y-16895484D01*
X9507920Y-16895484D02*
X9469825Y-16895484D01*
X9469825Y-16895484D02*
X9450777Y-16885960D01*
X9450777Y-16885960D02*
X9441253Y-16866912D01*
X9441253Y-16866912D02*
X9441253Y-16790722D01*
X9441253Y-16790722D02*
X9450777Y-16771674D01*
X9450777Y-16771674D02*
X9469825Y-16762150D01*
X9469825Y-16762150D02*
X9507920Y-16762150D01*
X9507920Y-16762150D02*
X9526968Y-16771674D01*
X9526968Y-16771674D02*
X9536492Y-16790722D01*
X9536492Y-16790722D02*
X9536492Y-16809770D01*
X9536492Y-16809770D02*
X9441253Y-16828817D01*
X9612682Y-16885960D02*
X9631730Y-16895484D01*
X9631730Y-16895484D02*
X9669825Y-16895484D01*
X9669825Y-16895484D02*
X9688873Y-16885960D01*
X9688873Y-16885960D02*
X9698396Y-16866912D01*
X9698396Y-16866912D02*
X9698396Y-16857389D01*
X9698396Y-16857389D02*
X9688873Y-16838341D01*
X9688873Y-16838341D02*
X9669825Y-16828817D01*
X9669825Y-16828817D02*
X9641253Y-16828817D01*
X9641253Y-16828817D02*
X9622206Y-16819293D01*
X9622206Y-16819293D02*
X9612682Y-16800246D01*
X9612682Y-16800246D02*
X9612682Y-16790722D01*
X9612682Y-16790722D02*
X9622206Y-16771674D01*
X9622206Y-16771674D02*
X9641253Y-16762150D01*
X9641253Y-16762150D02*
X9669825Y-16762150D01*
X9669825Y-16762150D02*
X9688873Y-16771674D01*
X9765063Y-16971674D02*
X9774587Y-16962150D01*
X9774587Y-16962150D02*
X9793634Y-16933579D01*
X9793634Y-16933579D02*
X9803158Y-16914531D01*
X9803158Y-16914531D02*
X9812682Y-16885960D01*
X9812682Y-16885960D02*
X9822206Y-16838341D01*
X9822206Y-16838341D02*
X9822206Y-16800246D01*
X9822206Y-16800246D02*
X9812682Y-16752627D01*
X9812682Y-16752627D02*
X9803158Y-16724055D01*
X9803158Y-16724055D02*
X9793634Y-16705008D01*
X9793634Y-16705008D02*
X9774587Y-16676436D01*
X9774587Y-16676436D02*
X9765063Y-16666912D01*
X10126968Y-16971674D02*
X10117444Y-16962150D01*
X10117444Y-16962150D02*
X10098396Y-16933579D01*
X10098396Y-16933579D02*
X10088873Y-16914531D01*
X10088873Y-16914531D02*
X10079349Y-16885960D01*
X10079349Y-16885960D02*
X10069825Y-16838341D01*
X10069825Y-16838341D02*
X10069825Y-16800246D01*
X10069825Y-16800246D02*
X10079349Y-16752627D01*
X10079349Y-16752627D02*
X10088873Y-16724055D01*
X10088873Y-16724055D02*
X10098396Y-16705008D01*
X10098396Y-16705008D02*
X10117444Y-16676436D01*
X10117444Y-16676436D02*
X10126968Y-16666912D01*
X10203158Y-16762150D02*
X10203158Y-16895484D01*
X10203158Y-16781198D02*
X10212682Y-16771674D01*
X10212682Y-16771674D02*
X10231730Y-16762150D01*
X10231730Y-16762150D02*
X10260301Y-16762150D01*
X10260301Y-16762150D02*
X10279349Y-16771674D01*
X10279349Y-16771674D02*
X10288873Y-16790722D01*
X10288873Y-16790722D02*
X10288873Y-16895484D01*
X10412682Y-16895484D02*
X10393634Y-16885960D01*
X10393634Y-16885960D02*
X10384111Y-16876436D01*
X10384111Y-16876436D02*
X10374587Y-16857389D01*
X10374587Y-16857389D02*
X10374587Y-16800246D01*
X10374587Y-16800246D02*
X10384111Y-16781198D01*
X10384111Y-16781198D02*
X10393634Y-16771674D01*
X10393634Y-16771674D02*
X10412682Y-16762150D01*
X10412682Y-16762150D02*
X10441254Y-16762150D01*
X10441254Y-16762150D02*
X10460301Y-16771674D01*
X10460301Y-16771674D02*
X10469825Y-16781198D01*
X10469825Y-16781198D02*
X10479349Y-16800246D01*
X10479349Y-16800246D02*
X10479349Y-16857389D01*
X10479349Y-16857389D02*
X10469825Y-16876436D01*
X10469825Y-16876436D02*
X10460301Y-16885960D01*
X10460301Y-16885960D02*
X10441254Y-16895484D01*
X10441254Y-16895484D02*
X10412682Y-16895484D01*
X10536492Y-16762150D02*
X10612682Y-16762150D01*
X10565063Y-16695484D02*
X10565063Y-16866912D01*
X10565063Y-16866912D02*
X10574587Y-16885960D01*
X10574587Y-16885960D02*
X10593634Y-16895484D01*
X10593634Y-16895484D02*
X10612682Y-16895484D01*
X10831730Y-16762150D02*
X10831730Y-16962150D01*
X10831730Y-16771674D02*
X10850777Y-16762150D01*
X10850777Y-16762150D02*
X10888873Y-16762150D01*
X10888873Y-16762150D02*
X10907920Y-16771674D01*
X10907920Y-16771674D02*
X10917444Y-16781198D01*
X10917444Y-16781198D02*
X10926968Y-16800246D01*
X10926968Y-16800246D02*
X10926968Y-16857389D01*
X10926968Y-16857389D02*
X10917444Y-16876436D01*
X10917444Y-16876436D02*
X10907920Y-16885960D01*
X10907920Y-16885960D02*
X10888873Y-16895484D01*
X10888873Y-16895484D02*
X10850777Y-16895484D01*
X10850777Y-16895484D02*
X10831730Y-16885960D01*
X11041254Y-16895484D02*
X11022206Y-16885960D01*
X11022206Y-16885960D02*
X11012682Y-16866912D01*
X11012682Y-16866912D02*
X11012682Y-16695484D01*
X11203158Y-16895484D02*
X11203158Y-16790722D01*
X11203158Y-16790722D02*
X11193634Y-16771674D01*
X11193634Y-16771674D02*
X11174587Y-16762150D01*
X11174587Y-16762150D02*
X11136492Y-16762150D01*
X11136492Y-16762150D02*
X11117444Y-16771674D01*
X11203158Y-16885960D02*
X11184111Y-16895484D01*
X11184111Y-16895484D02*
X11136492Y-16895484D01*
X11136492Y-16895484D02*
X11117444Y-16885960D01*
X11117444Y-16885960D02*
X11107920Y-16866912D01*
X11107920Y-16866912D02*
X11107920Y-16847865D01*
X11107920Y-16847865D02*
X11117444Y-16828817D01*
X11117444Y-16828817D02*
X11136492Y-16819293D01*
X11136492Y-16819293D02*
X11184111Y-16819293D01*
X11184111Y-16819293D02*
X11203158Y-16809770D01*
X11269825Y-16762150D02*
X11346015Y-16762150D01*
X11298396Y-16695484D02*
X11298396Y-16866912D01*
X11298396Y-16866912D02*
X11307920Y-16885960D01*
X11307920Y-16885960D02*
X11326968Y-16895484D01*
X11326968Y-16895484D02*
X11346015Y-16895484D01*
X11488873Y-16885960D02*
X11469825Y-16895484D01*
X11469825Y-16895484D02*
X11431730Y-16895484D01*
X11431730Y-16895484D02*
X11412682Y-16885960D01*
X11412682Y-16885960D02*
X11403158Y-16866912D01*
X11403158Y-16866912D02*
X11403158Y-16790722D01*
X11403158Y-16790722D02*
X11412682Y-16771674D01*
X11412682Y-16771674D02*
X11431730Y-16762150D01*
X11431730Y-16762150D02*
X11469825Y-16762150D01*
X11469825Y-16762150D02*
X11488873Y-16771674D01*
X11488873Y-16771674D02*
X11498396Y-16790722D01*
X11498396Y-16790722D02*
X11498396Y-16809770D01*
X11498396Y-16809770D02*
X11403158Y-16828817D01*
X11669825Y-16895484D02*
X11669825Y-16695484D01*
X11669825Y-16885960D02*
X11650777Y-16895484D01*
X11650777Y-16895484D02*
X11612682Y-16895484D01*
X11612682Y-16895484D02*
X11593634Y-16885960D01*
X11593634Y-16885960D02*
X11584111Y-16876436D01*
X11584111Y-16876436D02*
X11574587Y-16857389D01*
X11574587Y-16857389D02*
X11574587Y-16800246D01*
X11574587Y-16800246D02*
X11584111Y-16781198D01*
X11584111Y-16781198D02*
X11593634Y-16771674D01*
X11593634Y-16771674D02*
X11612682Y-16762150D01*
X11612682Y-16762150D02*
X11650777Y-16762150D01*
X11650777Y-16762150D02*
X11669825Y-16771674D01*
X11746015Y-16971674D02*
X11755539Y-16962150D01*
X11755539Y-16962150D02*
X11774587Y-16933579D01*
X11774587Y-16933579D02*
X11784111Y-16914531D01*
X11784111Y-16914531D02*
X11793634Y-16885960D01*
X11793634Y-16885960D02*
X11803158Y-16838341D01*
X11803158Y-16838341D02*
X11803158Y-16800246D01*
X11803158Y-16800246D02*
X11793634Y-16752627D01*
X11793634Y-16752627D02*
X11784111Y-16724055D01*
X11784111Y-16724055D02*
X11774587Y-16705008D01*
X11774587Y-16705008D02*
X11755539Y-16676436D01*
X11755539Y-16676436D02*
X11746015Y-16666912D01*
M02*
