%TF.GenerationSoftware,KiCad,Pcbnew,8.0.2-8.0.2-0~ubuntu22.04.1*%
%TF.CreationDate,2024-05-24T16:16:29-07:00*%
%TF.ProjectId,YamhillFrontPanel,59616d68-696c-46c4-9672-6f6e7450616e,B*%
%TF.SameCoordinates,Original*%
%TF.FileFunction,Legend,Bot*%
%TF.FilePolarity,Positive*%
%FSLAX46Y46*%
G04 Gerber Fmt 4.6, Leading zero omitted, Abs format (unit mm)*
G04 Created by KiCad (PCBNEW 8.0.2-8.0.2-0~ubuntu22.04.1) date 2024-05-24 16:16:29*
%MOMM*%
%LPD*%
G01*
G04 APERTURE LIST*
G04 Aperture macros list*
%AMRoundRect*
0 Rectangle with rounded corners*
0 $1 Rounding radius*
0 $2 $3 $4 $5 $6 $7 $8 $9 X,Y pos of 4 corners*
0 Add a 4 corners polygon primitive as box body*
4,1,4,$2,$3,$4,$5,$6,$7,$8,$9,$2,$3,0*
0 Add four circle primitives for the rounded corners*
1,1,$1+$1,$2,$3*
1,1,$1+$1,$4,$5*
1,1,$1+$1,$6,$7*
1,1,$1+$1,$8,$9*
0 Add four rect primitives between the rounded corners*
20,1,$1+$1,$2,$3,$4,$5,0*
20,1,$1+$1,$4,$5,$6,$7,0*
20,1,$1+$1,$6,$7,$8,$9,0*
20,1,$1+$1,$8,$9,$2,$3,0*%
G04 Aperture macros list end*
%ADD10C,0.150000*%
%ADD11C,0.100000*%
%ADD12C,0.120000*%
%ADD13C,3.650000*%
%ADD14R,1.700000X1.700000*%
%ADD15O,1.700000X1.700000*%
%ADD16C,0.800000*%
%ADD17C,6.400000*%
%ADD18O,1.800000X1.800000*%
%ADD19O,1.500000X1.500000*%
%ADD20C,2.500000*%
%ADD21C,2.600000*%
%ADD22O,2.800000X3.200000*%
%ADD23C,2.000000*%
%ADD24R,1.500000X0.900000*%
%ADD25R,1.500000X1.500000*%
%ADD26C,1.500000*%
%ADD27RoundRect,0.243750X-0.456250X0.243750X-0.456250X-0.243750X0.456250X-0.243750X0.456250X0.243750X0*%
%ADD28O,2.000000X1.300000*%
%ADD29C,3.400000*%
%ADD30O,2.000000X2.800000*%
G04 APERTURE END LIST*
D10*
X163988094Y-115604819D02*
X163988094Y-114604819D01*
X163988094Y-114604819D02*
X163749999Y-114604819D01*
X163749999Y-114604819D02*
X163607142Y-114652438D01*
X163607142Y-114652438D02*
X163511904Y-114747676D01*
X163511904Y-114747676D02*
X163464285Y-114842914D01*
X163464285Y-114842914D02*
X163416666Y-115033390D01*
X163416666Y-115033390D02*
X163416666Y-115176247D01*
X163416666Y-115176247D02*
X163464285Y-115366723D01*
X163464285Y-115366723D02*
X163511904Y-115461961D01*
X163511904Y-115461961D02*
X163607142Y-115557200D01*
X163607142Y-115557200D02*
X163749999Y-115604819D01*
X163749999Y-115604819D02*
X163988094Y-115604819D01*
X163035713Y-114700057D02*
X162988094Y-114652438D01*
X162988094Y-114652438D02*
X162892856Y-114604819D01*
X162892856Y-114604819D02*
X162654761Y-114604819D01*
X162654761Y-114604819D02*
X162559523Y-114652438D01*
X162559523Y-114652438D02*
X162511904Y-114700057D01*
X162511904Y-114700057D02*
X162464285Y-114795295D01*
X162464285Y-114795295D02*
X162464285Y-114890533D01*
X162464285Y-114890533D02*
X162511904Y-115033390D01*
X162511904Y-115033390D02*
X163083332Y-115604819D01*
X163083332Y-115604819D02*
X162464285Y-115604819D01*
X167114285Y-117504819D02*
X167685713Y-117504819D01*
X167399999Y-117504819D02*
X167399999Y-116504819D01*
X167399999Y-116504819D02*
X167495237Y-116647676D01*
X167495237Y-116647676D02*
X167590475Y-116742914D01*
X167590475Y-116742914D02*
X167685713Y-116790533D01*
X72738094Y-51954819D02*
X72738094Y-50954819D01*
X72738094Y-50954819D02*
X72499999Y-50954819D01*
X72499999Y-50954819D02*
X72357142Y-51002438D01*
X72357142Y-51002438D02*
X72261904Y-51097676D01*
X72261904Y-51097676D02*
X72214285Y-51192914D01*
X72214285Y-51192914D02*
X72166666Y-51383390D01*
X72166666Y-51383390D02*
X72166666Y-51526247D01*
X72166666Y-51526247D02*
X72214285Y-51716723D01*
X72214285Y-51716723D02*
X72261904Y-51811961D01*
X72261904Y-51811961D02*
X72357142Y-51907200D01*
X72357142Y-51907200D02*
X72499999Y-51954819D01*
X72499999Y-51954819D02*
X72738094Y-51954819D01*
X71261904Y-50954819D02*
X71738094Y-50954819D01*
X71738094Y-50954819D02*
X71785713Y-51431009D01*
X71785713Y-51431009D02*
X71738094Y-51383390D01*
X71738094Y-51383390D02*
X71642856Y-51335771D01*
X71642856Y-51335771D02*
X71404761Y-51335771D01*
X71404761Y-51335771D02*
X71309523Y-51383390D01*
X71309523Y-51383390D02*
X71261904Y-51431009D01*
X71261904Y-51431009D02*
X71214285Y-51526247D01*
X71214285Y-51526247D02*
X71214285Y-51764342D01*
X71214285Y-51764342D02*
X71261904Y-51859580D01*
X71261904Y-51859580D02*
X71309523Y-51907200D01*
X71309523Y-51907200D02*
X71404761Y-51954819D01*
X71404761Y-51954819D02*
X71642856Y-51954819D01*
X71642856Y-51954819D02*
X71738094Y-51907200D01*
X71738094Y-51907200D02*
X71785713Y-51859580D01*
X75864285Y-53854819D02*
X76435713Y-53854819D01*
X76149999Y-53854819D02*
X76149999Y-52854819D01*
X76149999Y-52854819D02*
X76245237Y-52997676D01*
X76245237Y-52997676D02*
X76340475Y-53092914D01*
X76340475Y-53092914D02*
X76435713Y-53140533D01*
X151359523Y-133454819D02*
X151359523Y-134169104D01*
X151359523Y-134169104D02*
X151407142Y-134311961D01*
X151407142Y-134311961D02*
X151502380Y-134407200D01*
X151502380Y-134407200D02*
X151645237Y-134454819D01*
X151645237Y-134454819D02*
X151740475Y-134454819D01*
X150978570Y-133454819D02*
X150359523Y-133454819D01*
X150359523Y-133454819D02*
X150692856Y-133835771D01*
X150692856Y-133835771D02*
X150549999Y-133835771D01*
X150549999Y-133835771D02*
X150454761Y-133883390D01*
X150454761Y-133883390D02*
X150407142Y-133931009D01*
X150407142Y-133931009D02*
X150359523Y-134026247D01*
X150359523Y-134026247D02*
X150359523Y-134264342D01*
X150359523Y-134264342D02*
X150407142Y-134359580D01*
X150407142Y-134359580D02*
X150454761Y-134407200D01*
X150454761Y-134407200D02*
X150549999Y-134454819D01*
X150549999Y-134454819D02*
X150835713Y-134454819D01*
X150835713Y-134454819D02*
X150930951Y-134407200D01*
X150930951Y-134407200D02*
X150978570Y-134359580D01*
X149978570Y-133550057D02*
X149930951Y-133502438D01*
X149930951Y-133502438D02*
X149835713Y-133454819D01*
X149835713Y-133454819D02*
X149597618Y-133454819D01*
X149597618Y-133454819D02*
X149502380Y-133502438D01*
X149502380Y-133502438D02*
X149454761Y-133550057D01*
X149454761Y-133550057D02*
X149407142Y-133645295D01*
X149407142Y-133645295D02*
X149407142Y-133740533D01*
X149407142Y-133740533D02*
X149454761Y-133883390D01*
X149454761Y-133883390D02*
X150026189Y-134454819D01*
X150026189Y-134454819D02*
X149407142Y-134454819D01*
X203738094Y-75054819D02*
X203738094Y-74054819D01*
X203738094Y-74054819D02*
X203499999Y-74054819D01*
X203499999Y-74054819D02*
X203357142Y-74102438D01*
X203357142Y-74102438D02*
X203261904Y-74197676D01*
X203261904Y-74197676D02*
X203214285Y-74292914D01*
X203214285Y-74292914D02*
X203166666Y-74483390D01*
X203166666Y-74483390D02*
X203166666Y-74626247D01*
X203166666Y-74626247D02*
X203214285Y-74816723D01*
X203214285Y-74816723D02*
X203261904Y-74911961D01*
X203261904Y-74911961D02*
X203357142Y-75007200D01*
X203357142Y-75007200D02*
X203499999Y-75054819D01*
X203499999Y-75054819D02*
X203738094Y-75054819D01*
X202833332Y-74054819D02*
X202214285Y-74054819D01*
X202214285Y-74054819D02*
X202547618Y-74435771D01*
X202547618Y-74435771D02*
X202404761Y-74435771D01*
X202404761Y-74435771D02*
X202309523Y-74483390D01*
X202309523Y-74483390D02*
X202261904Y-74531009D01*
X202261904Y-74531009D02*
X202214285Y-74626247D01*
X202214285Y-74626247D02*
X202214285Y-74864342D01*
X202214285Y-74864342D02*
X202261904Y-74959580D01*
X202261904Y-74959580D02*
X202309523Y-75007200D01*
X202309523Y-75007200D02*
X202404761Y-75054819D01*
X202404761Y-75054819D02*
X202690475Y-75054819D01*
X202690475Y-75054819D02*
X202785713Y-75007200D01*
X202785713Y-75007200D02*
X202833332Y-74959580D01*
D11*
X212761904Y-72409800D02*
X212619047Y-72457419D01*
X212619047Y-72457419D02*
X212380952Y-72457419D01*
X212380952Y-72457419D02*
X212285714Y-72409800D01*
X212285714Y-72409800D02*
X212238095Y-72362180D01*
X212238095Y-72362180D02*
X212190476Y-72266942D01*
X212190476Y-72266942D02*
X212190476Y-72171704D01*
X212190476Y-72171704D02*
X212238095Y-72076466D01*
X212238095Y-72076466D02*
X212285714Y-72028847D01*
X212285714Y-72028847D02*
X212380952Y-71981228D01*
X212380952Y-71981228D02*
X212571428Y-71933609D01*
X212571428Y-71933609D02*
X212666666Y-71885990D01*
X212666666Y-71885990D02*
X212714285Y-71838371D01*
X212714285Y-71838371D02*
X212761904Y-71743133D01*
X212761904Y-71743133D02*
X212761904Y-71647895D01*
X212761904Y-71647895D02*
X212714285Y-71552657D01*
X212714285Y-71552657D02*
X212666666Y-71505038D01*
X212666666Y-71505038D02*
X212571428Y-71457419D01*
X212571428Y-71457419D02*
X212333333Y-71457419D01*
X212333333Y-71457419D02*
X212190476Y-71505038D01*
X211809523Y-71552657D02*
X211761904Y-71505038D01*
X211761904Y-71505038D02*
X211666666Y-71457419D01*
X211666666Y-71457419D02*
X211428571Y-71457419D01*
X211428571Y-71457419D02*
X211333333Y-71505038D01*
X211333333Y-71505038D02*
X211285714Y-71552657D01*
X211285714Y-71552657D02*
X211238095Y-71647895D01*
X211238095Y-71647895D02*
X211238095Y-71743133D01*
X211238095Y-71743133D02*
X211285714Y-71885990D01*
X211285714Y-71885990D02*
X211857142Y-72457419D01*
X211857142Y-72457419D02*
X211238095Y-72457419D01*
D10*
X203738094Y-63054819D02*
X203738094Y-62054819D01*
X203738094Y-62054819D02*
X203499999Y-62054819D01*
X203499999Y-62054819D02*
X203357142Y-62102438D01*
X203357142Y-62102438D02*
X203261904Y-62197676D01*
X203261904Y-62197676D02*
X203214285Y-62292914D01*
X203214285Y-62292914D02*
X203166666Y-62483390D01*
X203166666Y-62483390D02*
X203166666Y-62626247D01*
X203166666Y-62626247D02*
X203214285Y-62816723D01*
X203214285Y-62816723D02*
X203261904Y-62911961D01*
X203261904Y-62911961D02*
X203357142Y-63007200D01*
X203357142Y-63007200D02*
X203499999Y-63054819D01*
X203499999Y-63054819D02*
X203738094Y-63054819D01*
X202214285Y-63054819D02*
X202785713Y-63054819D01*
X202499999Y-63054819D02*
X202499999Y-62054819D01*
X202499999Y-62054819D02*
X202595237Y-62197676D01*
X202595237Y-62197676D02*
X202690475Y-62292914D01*
X202690475Y-62292914D02*
X202785713Y-62340533D01*
D11*
X97333333Y-129957419D02*
X97333333Y-130671704D01*
X97333333Y-130671704D02*
X97380952Y-130814561D01*
X97380952Y-130814561D02*
X97476190Y-130909800D01*
X97476190Y-130909800D02*
X97619047Y-130957419D01*
X97619047Y-130957419D02*
X97714285Y-130957419D01*
X96809523Y-130957419D02*
X96619047Y-130957419D01*
X96619047Y-130957419D02*
X96523809Y-130909800D01*
X96523809Y-130909800D02*
X96476190Y-130862180D01*
X96476190Y-130862180D02*
X96380952Y-130719323D01*
X96380952Y-130719323D02*
X96333333Y-130528847D01*
X96333333Y-130528847D02*
X96333333Y-130147895D01*
X96333333Y-130147895D02*
X96380952Y-130052657D01*
X96380952Y-130052657D02*
X96428571Y-130005038D01*
X96428571Y-130005038D02*
X96523809Y-129957419D01*
X96523809Y-129957419D02*
X96714285Y-129957419D01*
X96714285Y-129957419D02*
X96809523Y-130005038D01*
X96809523Y-130005038D02*
X96857142Y-130052657D01*
X96857142Y-130052657D02*
X96904761Y-130147895D01*
X96904761Y-130147895D02*
X96904761Y-130385990D01*
X96904761Y-130385990D02*
X96857142Y-130481228D01*
X96857142Y-130481228D02*
X96809523Y-130528847D01*
X96809523Y-130528847D02*
X96714285Y-130576466D01*
X96714285Y-130576466D02*
X96523809Y-130576466D01*
X96523809Y-130576466D02*
X96428571Y-130528847D01*
X96428571Y-130528847D02*
X96380952Y-130481228D01*
X96380952Y-130481228D02*
X96333333Y-130385990D01*
D10*
X203738094Y-99054819D02*
X203738094Y-98054819D01*
X203738094Y-98054819D02*
X203499999Y-98054819D01*
X203499999Y-98054819D02*
X203357142Y-98102438D01*
X203357142Y-98102438D02*
X203261904Y-98197676D01*
X203261904Y-98197676D02*
X203214285Y-98292914D01*
X203214285Y-98292914D02*
X203166666Y-98483390D01*
X203166666Y-98483390D02*
X203166666Y-98626247D01*
X203166666Y-98626247D02*
X203214285Y-98816723D01*
X203214285Y-98816723D02*
X203261904Y-98911961D01*
X203261904Y-98911961D02*
X203357142Y-99007200D01*
X203357142Y-99007200D02*
X203499999Y-99054819D01*
X203499999Y-99054819D02*
X203738094Y-99054819D01*
X202309523Y-98054819D02*
X202499999Y-98054819D01*
X202499999Y-98054819D02*
X202595237Y-98102438D01*
X202595237Y-98102438D02*
X202642856Y-98150057D01*
X202642856Y-98150057D02*
X202738094Y-98292914D01*
X202738094Y-98292914D02*
X202785713Y-98483390D01*
X202785713Y-98483390D02*
X202785713Y-98864342D01*
X202785713Y-98864342D02*
X202738094Y-98959580D01*
X202738094Y-98959580D02*
X202690475Y-99007200D01*
X202690475Y-99007200D02*
X202595237Y-99054819D01*
X202595237Y-99054819D02*
X202404761Y-99054819D01*
X202404761Y-99054819D02*
X202309523Y-99007200D01*
X202309523Y-99007200D02*
X202261904Y-98959580D01*
X202261904Y-98959580D02*
X202214285Y-98864342D01*
X202214285Y-98864342D02*
X202214285Y-98626247D01*
X202214285Y-98626247D02*
X202261904Y-98531009D01*
X202261904Y-98531009D02*
X202309523Y-98483390D01*
X202309523Y-98483390D02*
X202404761Y-98435771D01*
X202404761Y-98435771D02*
X202595237Y-98435771D01*
X202595237Y-98435771D02*
X202690475Y-98483390D01*
X202690475Y-98483390D02*
X202738094Y-98531009D01*
X202738094Y-98531009D02*
X202785713Y-98626247D01*
X203738094Y-87054819D02*
X203738094Y-86054819D01*
X203738094Y-86054819D02*
X203499999Y-86054819D01*
X203499999Y-86054819D02*
X203357142Y-86102438D01*
X203357142Y-86102438D02*
X203261904Y-86197676D01*
X203261904Y-86197676D02*
X203214285Y-86292914D01*
X203214285Y-86292914D02*
X203166666Y-86483390D01*
X203166666Y-86483390D02*
X203166666Y-86626247D01*
X203166666Y-86626247D02*
X203214285Y-86816723D01*
X203214285Y-86816723D02*
X203261904Y-86911961D01*
X203261904Y-86911961D02*
X203357142Y-87007200D01*
X203357142Y-87007200D02*
X203499999Y-87054819D01*
X203499999Y-87054819D02*
X203738094Y-87054819D01*
X202309523Y-86388152D02*
X202309523Y-87054819D01*
X202547618Y-86007200D02*
X202785713Y-86721485D01*
X202785713Y-86721485D02*
X202166666Y-86721485D01*
D11*
X126642857Y-116657419D02*
X126976190Y-116181228D01*
X127214285Y-116657419D02*
X127214285Y-115657419D01*
X127214285Y-115657419D02*
X126833333Y-115657419D01*
X126833333Y-115657419D02*
X126738095Y-115705038D01*
X126738095Y-115705038D02*
X126690476Y-115752657D01*
X126690476Y-115752657D02*
X126642857Y-115847895D01*
X126642857Y-115847895D02*
X126642857Y-115990752D01*
X126642857Y-115990752D02*
X126690476Y-116085990D01*
X126690476Y-116085990D02*
X126738095Y-116133609D01*
X126738095Y-116133609D02*
X126833333Y-116181228D01*
X126833333Y-116181228D02*
X127214285Y-116181228D01*
X125738095Y-115657419D02*
X126214285Y-115657419D01*
X126214285Y-115657419D02*
X126261904Y-116133609D01*
X126261904Y-116133609D02*
X126214285Y-116085990D01*
X126214285Y-116085990D02*
X126119047Y-116038371D01*
X126119047Y-116038371D02*
X125880952Y-116038371D01*
X125880952Y-116038371D02*
X125785714Y-116085990D01*
X125785714Y-116085990D02*
X125738095Y-116133609D01*
X125738095Y-116133609D02*
X125690476Y-116228847D01*
X125690476Y-116228847D02*
X125690476Y-116466942D01*
X125690476Y-116466942D02*
X125738095Y-116562180D01*
X125738095Y-116562180D02*
X125785714Y-116609800D01*
X125785714Y-116609800D02*
X125880952Y-116657419D01*
X125880952Y-116657419D02*
X126119047Y-116657419D01*
X126119047Y-116657419D02*
X126214285Y-116609800D01*
X126214285Y-116609800D02*
X126261904Y-116562180D01*
X125357142Y-115657419D02*
X124690476Y-115657419D01*
X124690476Y-115657419D02*
X125119047Y-116657419D01*
X212761904Y-96409800D02*
X212619047Y-96457419D01*
X212619047Y-96457419D02*
X212380952Y-96457419D01*
X212380952Y-96457419D02*
X212285714Y-96409800D01*
X212285714Y-96409800D02*
X212238095Y-96362180D01*
X212238095Y-96362180D02*
X212190476Y-96266942D01*
X212190476Y-96266942D02*
X212190476Y-96171704D01*
X212190476Y-96171704D02*
X212238095Y-96076466D01*
X212238095Y-96076466D02*
X212285714Y-96028847D01*
X212285714Y-96028847D02*
X212380952Y-95981228D01*
X212380952Y-95981228D02*
X212571428Y-95933609D01*
X212571428Y-95933609D02*
X212666666Y-95885990D01*
X212666666Y-95885990D02*
X212714285Y-95838371D01*
X212714285Y-95838371D02*
X212761904Y-95743133D01*
X212761904Y-95743133D02*
X212761904Y-95647895D01*
X212761904Y-95647895D02*
X212714285Y-95552657D01*
X212714285Y-95552657D02*
X212666666Y-95505038D01*
X212666666Y-95505038D02*
X212571428Y-95457419D01*
X212571428Y-95457419D02*
X212333333Y-95457419D01*
X212333333Y-95457419D02*
X212190476Y-95505038D01*
X211333333Y-95790752D02*
X211333333Y-96457419D01*
X211571428Y-95409800D02*
X211809523Y-96124085D01*
X211809523Y-96124085D02*
X211190476Y-96124085D01*
X110809523Y-129857419D02*
X110809523Y-130571704D01*
X110809523Y-130571704D02*
X110857142Y-130714561D01*
X110857142Y-130714561D02*
X110952380Y-130809800D01*
X110952380Y-130809800D02*
X111095237Y-130857419D01*
X111095237Y-130857419D02*
X111190475Y-130857419D01*
X110428570Y-129857419D02*
X109809523Y-129857419D01*
X109809523Y-129857419D02*
X110142856Y-130238371D01*
X110142856Y-130238371D02*
X109999999Y-130238371D01*
X109999999Y-130238371D02*
X109904761Y-130285990D01*
X109904761Y-130285990D02*
X109857142Y-130333609D01*
X109857142Y-130333609D02*
X109809523Y-130428847D01*
X109809523Y-130428847D02*
X109809523Y-130666942D01*
X109809523Y-130666942D02*
X109857142Y-130762180D01*
X109857142Y-130762180D02*
X109904761Y-130809800D01*
X109904761Y-130809800D02*
X109999999Y-130857419D01*
X109999999Y-130857419D02*
X110285713Y-130857419D01*
X110285713Y-130857419D02*
X110380951Y-130809800D01*
X110380951Y-130809800D02*
X110428570Y-130762180D01*
X109238094Y-130285990D02*
X109333332Y-130238371D01*
X109333332Y-130238371D02*
X109380951Y-130190752D01*
X109380951Y-130190752D02*
X109428570Y-130095514D01*
X109428570Y-130095514D02*
X109428570Y-130047895D01*
X109428570Y-130047895D02*
X109380951Y-129952657D01*
X109380951Y-129952657D02*
X109333332Y-129905038D01*
X109333332Y-129905038D02*
X109238094Y-129857419D01*
X109238094Y-129857419D02*
X109047618Y-129857419D01*
X109047618Y-129857419D02*
X108952380Y-129905038D01*
X108952380Y-129905038D02*
X108904761Y-129952657D01*
X108904761Y-129952657D02*
X108857142Y-130047895D01*
X108857142Y-130047895D02*
X108857142Y-130095514D01*
X108857142Y-130095514D02*
X108904761Y-130190752D01*
X108904761Y-130190752D02*
X108952380Y-130238371D01*
X108952380Y-130238371D02*
X109047618Y-130285990D01*
X109047618Y-130285990D02*
X109238094Y-130285990D01*
X109238094Y-130285990D02*
X109333332Y-130333609D01*
X109333332Y-130333609D02*
X109380951Y-130381228D01*
X109380951Y-130381228D02*
X109428570Y-130476466D01*
X109428570Y-130476466D02*
X109428570Y-130666942D01*
X109428570Y-130666942D02*
X109380951Y-130762180D01*
X109380951Y-130762180D02*
X109333332Y-130809800D01*
X109333332Y-130809800D02*
X109238094Y-130857419D01*
X109238094Y-130857419D02*
X109047618Y-130857419D01*
X109047618Y-130857419D02*
X108952380Y-130809800D01*
X108952380Y-130809800D02*
X108904761Y-130762180D01*
X108904761Y-130762180D02*
X108857142Y-130666942D01*
X108857142Y-130666942D02*
X108857142Y-130476466D01*
X108857142Y-130476466D02*
X108904761Y-130381228D01*
X108904761Y-130381228D02*
X108952380Y-130333609D01*
X108952380Y-130333609D02*
X109047618Y-130285990D01*
X212761904Y-84409800D02*
X212619047Y-84457419D01*
X212619047Y-84457419D02*
X212380952Y-84457419D01*
X212380952Y-84457419D02*
X212285714Y-84409800D01*
X212285714Y-84409800D02*
X212238095Y-84362180D01*
X212238095Y-84362180D02*
X212190476Y-84266942D01*
X212190476Y-84266942D02*
X212190476Y-84171704D01*
X212190476Y-84171704D02*
X212238095Y-84076466D01*
X212238095Y-84076466D02*
X212285714Y-84028847D01*
X212285714Y-84028847D02*
X212380952Y-83981228D01*
X212380952Y-83981228D02*
X212571428Y-83933609D01*
X212571428Y-83933609D02*
X212666666Y-83885990D01*
X212666666Y-83885990D02*
X212714285Y-83838371D01*
X212714285Y-83838371D02*
X212761904Y-83743133D01*
X212761904Y-83743133D02*
X212761904Y-83647895D01*
X212761904Y-83647895D02*
X212714285Y-83552657D01*
X212714285Y-83552657D02*
X212666666Y-83505038D01*
X212666666Y-83505038D02*
X212571428Y-83457419D01*
X212571428Y-83457419D02*
X212333333Y-83457419D01*
X212333333Y-83457419D02*
X212190476Y-83505038D01*
X211857142Y-83457419D02*
X211238095Y-83457419D01*
X211238095Y-83457419D02*
X211571428Y-83838371D01*
X211571428Y-83838371D02*
X211428571Y-83838371D01*
X211428571Y-83838371D02*
X211333333Y-83885990D01*
X211333333Y-83885990D02*
X211285714Y-83933609D01*
X211285714Y-83933609D02*
X211238095Y-84028847D01*
X211238095Y-84028847D02*
X211238095Y-84266942D01*
X211238095Y-84266942D02*
X211285714Y-84362180D01*
X211285714Y-84362180D02*
X211333333Y-84409800D01*
X211333333Y-84409800D02*
X211428571Y-84457419D01*
X211428571Y-84457419D02*
X211714285Y-84457419D01*
X211714285Y-84457419D02*
X211809523Y-84409800D01*
X211809523Y-84409800D02*
X211857142Y-84362180D01*
X202961904Y-52257419D02*
X202961904Y-53066942D01*
X202961904Y-53066942D02*
X202914285Y-53162180D01*
X202914285Y-53162180D02*
X202866666Y-53209800D01*
X202866666Y-53209800D02*
X202771428Y-53257419D01*
X202771428Y-53257419D02*
X202580952Y-53257419D01*
X202580952Y-53257419D02*
X202485714Y-53209800D01*
X202485714Y-53209800D02*
X202438095Y-53162180D01*
X202438095Y-53162180D02*
X202390476Y-53066942D01*
X202390476Y-53066942D02*
X202390476Y-52257419D01*
X201866666Y-53257419D02*
X201676190Y-53257419D01*
X201676190Y-53257419D02*
X201580952Y-53209800D01*
X201580952Y-53209800D02*
X201533333Y-53162180D01*
X201533333Y-53162180D02*
X201438095Y-53019323D01*
X201438095Y-53019323D02*
X201390476Y-52828847D01*
X201390476Y-52828847D02*
X201390476Y-52447895D01*
X201390476Y-52447895D02*
X201438095Y-52352657D01*
X201438095Y-52352657D02*
X201485714Y-52305038D01*
X201485714Y-52305038D02*
X201580952Y-52257419D01*
X201580952Y-52257419D02*
X201771428Y-52257419D01*
X201771428Y-52257419D02*
X201866666Y-52305038D01*
X201866666Y-52305038D02*
X201914285Y-52352657D01*
X201914285Y-52352657D02*
X201961904Y-52447895D01*
X201961904Y-52447895D02*
X201961904Y-52685990D01*
X201961904Y-52685990D02*
X201914285Y-52781228D01*
X201914285Y-52781228D02*
X201866666Y-52828847D01*
X201866666Y-52828847D02*
X201771428Y-52876466D01*
X201771428Y-52876466D02*
X201580952Y-52876466D01*
X201580952Y-52876466D02*
X201485714Y-52828847D01*
X201485714Y-52828847D02*
X201438095Y-52781228D01*
X201438095Y-52781228D02*
X201390476Y-52685990D01*
X73333332Y-92209800D02*
X73190475Y-92257419D01*
X73190475Y-92257419D02*
X72952380Y-92257419D01*
X72952380Y-92257419D02*
X72857142Y-92209800D01*
X72857142Y-92209800D02*
X72809523Y-92162180D01*
X72809523Y-92162180D02*
X72761904Y-92066942D01*
X72761904Y-92066942D02*
X72761904Y-91971704D01*
X72761904Y-91971704D02*
X72809523Y-91876466D01*
X72809523Y-91876466D02*
X72857142Y-91828847D01*
X72857142Y-91828847D02*
X72952380Y-91781228D01*
X72952380Y-91781228D02*
X73142856Y-91733609D01*
X73142856Y-91733609D02*
X73238094Y-91685990D01*
X73238094Y-91685990D02*
X73285713Y-91638371D01*
X73285713Y-91638371D02*
X73333332Y-91543133D01*
X73333332Y-91543133D02*
X73333332Y-91447895D01*
X73333332Y-91447895D02*
X73285713Y-91352657D01*
X73285713Y-91352657D02*
X73238094Y-91305038D01*
X73238094Y-91305038D02*
X73142856Y-91257419D01*
X73142856Y-91257419D02*
X72904761Y-91257419D01*
X72904761Y-91257419D02*
X72761904Y-91305038D01*
X72428570Y-91257419D02*
X72190475Y-92257419D01*
X72190475Y-92257419D02*
X71999999Y-91543133D01*
X71999999Y-91543133D02*
X71809523Y-92257419D01*
X71809523Y-92257419D02*
X71571428Y-91257419D01*
X70666666Y-92257419D02*
X71238094Y-92257419D01*
X70952380Y-92257419D02*
X70952380Y-91257419D01*
X70952380Y-91257419D02*
X71047618Y-91400276D01*
X71047618Y-91400276D02*
X71142856Y-91495514D01*
X71142856Y-91495514D02*
X71238094Y-91543133D01*
X212761904Y-60409800D02*
X212619047Y-60457419D01*
X212619047Y-60457419D02*
X212380952Y-60457419D01*
X212380952Y-60457419D02*
X212285714Y-60409800D01*
X212285714Y-60409800D02*
X212238095Y-60362180D01*
X212238095Y-60362180D02*
X212190476Y-60266942D01*
X212190476Y-60266942D02*
X212190476Y-60171704D01*
X212190476Y-60171704D02*
X212238095Y-60076466D01*
X212238095Y-60076466D02*
X212285714Y-60028847D01*
X212285714Y-60028847D02*
X212380952Y-59981228D01*
X212380952Y-59981228D02*
X212571428Y-59933609D01*
X212571428Y-59933609D02*
X212666666Y-59885990D01*
X212666666Y-59885990D02*
X212714285Y-59838371D01*
X212714285Y-59838371D02*
X212761904Y-59743133D01*
X212761904Y-59743133D02*
X212761904Y-59647895D01*
X212761904Y-59647895D02*
X212714285Y-59552657D01*
X212714285Y-59552657D02*
X212666666Y-59505038D01*
X212666666Y-59505038D02*
X212571428Y-59457419D01*
X212571428Y-59457419D02*
X212333333Y-59457419D01*
X212333333Y-59457419D02*
X212190476Y-59505038D01*
X211238095Y-60457419D02*
X211809523Y-60457419D01*
X211523809Y-60457419D02*
X211523809Y-59457419D01*
X211523809Y-59457419D02*
X211619047Y-59600276D01*
X211619047Y-59600276D02*
X211714285Y-59695514D01*
X211714285Y-59695514D02*
X211809523Y-59743133D01*
X73333332Y-59209800D02*
X73190475Y-59257419D01*
X73190475Y-59257419D02*
X72952380Y-59257419D01*
X72952380Y-59257419D02*
X72857142Y-59209800D01*
X72857142Y-59209800D02*
X72809523Y-59162180D01*
X72809523Y-59162180D02*
X72761904Y-59066942D01*
X72761904Y-59066942D02*
X72761904Y-58971704D01*
X72761904Y-58971704D02*
X72809523Y-58876466D01*
X72809523Y-58876466D02*
X72857142Y-58828847D01*
X72857142Y-58828847D02*
X72952380Y-58781228D01*
X72952380Y-58781228D02*
X73142856Y-58733609D01*
X73142856Y-58733609D02*
X73238094Y-58685990D01*
X73238094Y-58685990D02*
X73285713Y-58638371D01*
X73285713Y-58638371D02*
X73333332Y-58543133D01*
X73333332Y-58543133D02*
X73333332Y-58447895D01*
X73333332Y-58447895D02*
X73285713Y-58352657D01*
X73285713Y-58352657D02*
X73238094Y-58305038D01*
X73238094Y-58305038D02*
X73142856Y-58257419D01*
X73142856Y-58257419D02*
X72904761Y-58257419D01*
X72904761Y-58257419D02*
X72761904Y-58305038D01*
X72428570Y-58257419D02*
X72190475Y-59257419D01*
X72190475Y-59257419D02*
X71999999Y-58543133D01*
X71999999Y-58543133D02*
X71809523Y-59257419D01*
X71809523Y-59257419D02*
X71571428Y-58257419D01*
X71238094Y-58352657D02*
X71190475Y-58305038D01*
X71190475Y-58305038D02*
X71095237Y-58257419D01*
X71095237Y-58257419D02*
X70857142Y-58257419D01*
X70857142Y-58257419D02*
X70761904Y-58305038D01*
X70761904Y-58305038D02*
X70714285Y-58352657D01*
X70714285Y-58352657D02*
X70666666Y-58447895D01*
X70666666Y-58447895D02*
X70666666Y-58543133D01*
X70666666Y-58543133D02*
X70714285Y-58685990D01*
X70714285Y-58685990D02*
X71285713Y-59257419D01*
X71285713Y-59257419D02*
X70666666Y-59257419D01*
D12*
%TO.C,D2*%
X159600000Y-121400000D02*
X159600000Y-120250000D01*
X166900000Y-115900000D02*
X159600000Y-115900000D01*
X166900000Y-121400000D02*
X159600000Y-121400000D01*
%TO.C,D5*%
X68350000Y-57750000D02*
X68350000Y-56600000D01*
X75650000Y-52250000D02*
X68350000Y-52250000D01*
X75650000Y-57750000D02*
X68350000Y-57750000D01*
%TO.C,J32*%
X142690000Y-116210000D02*
X142690000Y-132950000D01*
X142690000Y-132950000D02*
X158420000Y-132950000D01*
X142700000Y-116210000D02*
X158420000Y-116210000D01*
X158420000Y-116210000D02*
X158420000Y-132950000D01*
X158500000Y-120000000D02*
X159000000Y-119500000D01*
X159000000Y-119500000D02*
X159000000Y-120500000D01*
X159000000Y-120500000D02*
X158500000Y-120000000D01*
%TO.C,D3*%
X202040000Y-75315000D02*
X203960000Y-75315000D01*
X202040000Y-78000000D02*
X202040000Y-75315000D01*
X203960000Y-75315000D02*
X203960000Y-78000000D01*
D11*
%TO.C,S2*%
X209500000Y-79200000D02*
X209500000Y-74800000D01*
X213200000Y-74000000D02*
X210800000Y-74000000D01*
X213200000Y-80000000D02*
X210800000Y-80000000D01*
X214500000Y-74800000D02*
X214500000Y-79200000D01*
D12*
%TO.C,D1*%
X202040000Y-63315000D02*
X203960000Y-63315000D01*
X202040000Y-66000000D02*
X202040000Y-63315000D01*
X203960000Y-63315000D02*
X203960000Y-66000000D01*
%TO.C,J9*%
D11*
X102000000Y-115000000D02*
X92000000Y-115000000D01*
X92000000Y-129500000D01*
X102000000Y-129500000D01*
X102000000Y-115000000D01*
D12*
%TO.C,D6*%
X202040000Y-99315000D02*
X203960000Y-99315000D01*
X202040000Y-102000000D02*
X202040000Y-99315000D01*
X203960000Y-99315000D02*
X203960000Y-102000000D01*
%TO.C,D4*%
X202040000Y-87315000D02*
X203960000Y-87315000D01*
X202040000Y-90000000D02*
X202040000Y-87315000D01*
X203960000Y-87315000D02*
X203960000Y-90000000D01*
%TO.C,R57*%
D11*
X131000000Y-117000000D02*
X121000000Y-117000000D01*
X121000000Y-127000000D01*
X131000000Y-127000000D01*
X131000000Y-117000000D01*
%TO.C,S4*%
X209500000Y-103200000D02*
X209500000Y-98800000D01*
X213200000Y-98000000D02*
X210800000Y-98000000D01*
X213200000Y-104000000D02*
X210800000Y-104000000D01*
X214500000Y-98800000D02*
X214500000Y-103200000D01*
%TO.C,J38*%
X115000000Y-115000000D02*
X105000000Y-115000000D01*
X105000000Y-129500000D01*
X115000000Y-129500000D01*
X115000000Y-115000000D01*
%TO.C,S3*%
X209500000Y-91200000D02*
X209500000Y-86800000D01*
X213200000Y-86000000D02*
X210800000Y-86000000D01*
X213200000Y-92000000D02*
X210800000Y-92000000D01*
X214500000Y-86800000D02*
X214500000Y-91200000D01*
D12*
%TO.C,U9*%
X93170000Y-80410000D02*
X93170000Y-88090000D01*
X95830000Y-77810000D02*
X94500000Y-77810000D01*
X95830000Y-79140000D02*
X95830000Y-77810000D01*
X95830000Y-80410000D02*
X93170000Y-80410000D01*
X95830000Y-80410000D02*
X95830000Y-88090000D01*
X95830000Y-88090000D02*
X93170000Y-88090000D01*
X197170000Y-67710000D02*
X197170000Y-100790000D01*
X199830000Y-65110000D02*
X198500000Y-65110000D01*
X199830000Y-66440000D02*
X199830000Y-65110000D01*
X199830000Y-67710000D02*
X197170000Y-67710000D01*
X199830000Y-67710000D02*
X199830000Y-100790000D01*
X199830000Y-100790000D02*
X197170000Y-100790000D01*
D11*
X92500000Y-113850000D02*
X200500000Y-113850000D01*
X200500000Y-52150000D01*
X92500000Y-52150000D01*
X92500000Y-113850000D01*
%TO.C,SW1*%
X65700000Y-99500000D02*
X65700000Y-94300000D01*
X65700000Y-102500000D02*
X65700000Y-107700000D01*
X68400000Y-94300000D02*
X65700000Y-94300000D01*
X68600000Y-107700000D02*
X65700000Y-107700000D01*
X68600000Y-107700000D02*
X65700000Y-107700000D01*
X73400000Y-94300000D02*
X70600000Y-94300000D01*
X75400000Y-107700000D02*
X78300000Y-107700000D01*
X75400000Y-107700000D02*
X78300000Y-107700000D01*
X75600000Y-94300000D02*
X78300000Y-94300000D01*
X78300000Y-99500000D02*
X78300000Y-94300000D01*
X78300000Y-102500000D02*
X78300000Y-107700000D01*
%TO.C,S1*%
X209500000Y-67200000D02*
X209500000Y-62800000D01*
X213200000Y-62000000D02*
X210800000Y-62000000D01*
X213200000Y-68000000D02*
X210800000Y-68000000D01*
X214500000Y-62800000D02*
X214500000Y-67200000D01*
%TO.C,SW2*%
X65700000Y-66500000D02*
X65700000Y-61300000D01*
X65700000Y-69500000D02*
X65700000Y-74700000D01*
X68400000Y-61300000D02*
X65700000Y-61300000D01*
X68600000Y-74700000D02*
X65700000Y-74700000D01*
X68600000Y-74700000D02*
X65700000Y-74700000D01*
X73400000Y-61300000D02*
X70600000Y-61300000D01*
X75400000Y-74700000D02*
X78300000Y-74700000D01*
X75400000Y-74700000D02*
X78300000Y-74700000D01*
X75600000Y-61300000D02*
X78300000Y-61300000D01*
X78300000Y-66500000D02*
X78300000Y-61300000D01*
X78300000Y-69500000D02*
X78300000Y-74700000D01*
%TD*%
D13*
%TO.C,J32*%
X156270000Y-126350000D03*
X144840000Y-126350000D03*
%TD*%
%LPC*%
D14*
%TO.C,J3*%
X109060000Y-147000000D03*
D15*
X111600000Y-147000000D03*
%TD*%
D14*
%TO.C,J35*%
X150425000Y-137900000D03*
D15*
X152965000Y-137900000D03*
%TD*%
D14*
%TO.C,J26*%
X83600000Y-147000000D03*
D15*
X86140000Y-147000000D03*
%TD*%
D14*
%TO.C,J33*%
X137960000Y-109800000D03*
D15*
X140500000Y-109800000D03*
%TD*%
D14*
%TO.C,J5*%
X143900000Y-147000000D03*
D15*
X146440000Y-147000000D03*
%TD*%
D14*
%TO.C,J20*%
X64200000Y-147000000D03*
D15*
X66740000Y-147000000D03*
%TD*%
D16*
%TO.C,H2*%
X52600000Y-145000000D03*
X53302944Y-143302944D03*
X53302944Y-146697056D03*
X55000000Y-142600000D03*
D17*
X55000000Y-145000000D03*
D16*
X55000000Y-147400000D03*
X56697056Y-143302944D03*
X56697056Y-146697056D03*
X57400000Y-145000000D03*
%TD*%
D14*
%TO.C,J36*%
X82700000Y-115200000D03*
D15*
X85240000Y-115200000D03*
%TD*%
D14*
%TO.C,J23*%
X166100000Y-147000000D03*
D15*
X168640000Y-147000000D03*
%TD*%
D18*
%TO.C,U3*%
X217970000Y-123985000D03*
D19*
X214940000Y-124285000D03*
X214940000Y-129135000D03*
D18*
X217970000Y-129435000D03*
D15*
X218100000Y-117820000D03*
X215560000Y-117820000D03*
D14*
X213020000Y-117820000D03*
D15*
X210480000Y-117820000D03*
X207940000Y-117820000D03*
X205400000Y-117820000D03*
X202860000Y-117820000D03*
D14*
X200320000Y-117820000D03*
D15*
X197780000Y-117820000D03*
X195240000Y-117820000D03*
X192700000Y-117820000D03*
X190160000Y-117820000D03*
D14*
X187620000Y-117820000D03*
D15*
X185080000Y-117820000D03*
X182540000Y-117820000D03*
X180000000Y-117820000D03*
X177460000Y-117820000D03*
D14*
X174920000Y-117820000D03*
D15*
X172380000Y-117820000D03*
X169840000Y-117820000D03*
X169840000Y-135600000D03*
X172380000Y-135600000D03*
D14*
X174920000Y-135600000D03*
D15*
X177460000Y-135600000D03*
X180000000Y-135600000D03*
X182540000Y-135600000D03*
X185080000Y-135600000D03*
D14*
X187620000Y-135600000D03*
D15*
X190160000Y-135600000D03*
X192700000Y-135600000D03*
X195240000Y-135600000D03*
X197780000Y-135600000D03*
D14*
X200320000Y-135600000D03*
D15*
X202860000Y-135600000D03*
X205400000Y-135600000D03*
X207940000Y-135600000D03*
X210480000Y-135600000D03*
D14*
X213020000Y-135600000D03*
D15*
X215560000Y-135600000D03*
X218100000Y-135600000D03*
X170070000Y-124170000D03*
D14*
X170070000Y-126710000D03*
D15*
X170070000Y-129250000D03*
%TD*%
D14*
%TO.C,J4*%
X115300000Y-147000000D03*
D15*
X117840000Y-147000000D03*
%TD*%
D20*
%TO.C,J27*%
X55000000Y-136000000D03*
D21*
X52450000Y-133450000D03*
X52450000Y-138550000D03*
X57550000Y-133450000D03*
X57550000Y-138550000D03*
%TD*%
D14*
%TO.C,J22*%
X159800000Y-147000000D03*
D15*
X162340000Y-147000000D03*
%TD*%
D14*
%TO.C,J18*%
X170000000Y-102700000D03*
D15*
X172540000Y-102700000D03*
%TD*%
D14*
%TO.C,J19*%
X205000000Y-147000000D03*
D15*
X207540000Y-147000000D03*
%TD*%
D14*
%TO.C,J34*%
X123360000Y-86460000D03*
D15*
X125900000Y-86460000D03*
X123360000Y-89000000D03*
X125900000Y-89000000D03*
%TD*%
D16*
%TO.C,H4*%
X212600000Y-145000000D03*
X213302944Y-143302944D03*
X213302944Y-146697056D03*
X215000000Y-142600000D03*
D17*
X215000000Y-145000000D03*
D16*
X215000000Y-147400000D03*
X216697056Y-143302944D03*
X216697056Y-146697056D03*
X217400000Y-145000000D03*
%TD*%
D14*
%TO.C,J16*%
X185700000Y-91800000D03*
D15*
X188240000Y-91800000D03*
%TD*%
D14*
%TO.C,J8*%
X125025000Y-147000000D03*
D15*
X127565000Y-147000000D03*
%TD*%
D14*
%TO.C,J21*%
X153500000Y-147000000D03*
D15*
X156040000Y-147000000D03*
%TD*%
D14*
%TO.C,J10*%
X152460000Y-102700000D03*
D15*
X155000000Y-102700000D03*
X157540000Y-102700000D03*
%TD*%
D14*
%TO.C,J11*%
X154200000Y-91800000D03*
D15*
X156740000Y-91800000D03*
%TD*%
D22*
%TO.C,R31*%
X130700000Y-132000000D03*
X141300000Y-132000000D03*
D23*
X138500000Y-139000000D03*
X136000000Y-139000000D03*
X133500000Y-139000000D03*
%TD*%
D16*
%TO.C,H1*%
X52600000Y-55000000D03*
X53302944Y-53302944D03*
X53302944Y-56697056D03*
X55000000Y-52600000D03*
D17*
X55000000Y-55000000D03*
D16*
X55000000Y-57400000D03*
X56697056Y-53302944D03*
X56697056Y-56697056D03*
X57400000Y-55000000D03*
%TD*%
D14*
%TO.C,J13*%
X166800000Y-91800000D03*
D15*
X169340000Y-91800000D03*
%TD*%
D14*
%TO.C,J12*%
X160500000Y-91800000D03*
D15*
X163040000Y-91800000D03*
%TD*%
D14*
%TO.C,J2*%
X102800000Y-147000000D03*
D15*
X105340000Y-147000000D03*
%TD*%
D14*
%TO.C,J30*%
X84300000Y-104200000D03*
D15*
X86840000Y-104200000D03*
%TD*%
D14*
%TO.C,J7*%
X131325000Y-147000000D03*
D15*
X133865000Y-147000000D03*
%TD*%
D14*
%TO.C,J37*%
X102125000Y-110500000D03*
D15*
X104665000Y-110500000D03*
%TD*%
D20*
%TO.C,J29*%
X81000000Y-136000000D03*
D21*
X78450000Y-133450000D03*
X78450000Y-138550000D03*
X83550000Y-133450000D03*
X83550000Y-138550000D03*
%TD*%
D23*
%TO.C,TP2*%
X187100000Y-147000000D03*
%TD*%
D20*
%TO.C,J28*%
X68000000Y-136000000D03*
D21*
X65450000Y-133450000D03*
X65450000Y-138550000D03*
X70550000Y-133450000D03*
X70550000Y-138550000D03*
%TD*%
D14*
%TO.C,J15*%
X179400000Y-91800000D03*
D15*
X181940000Y-91800000D03*
%TD*%
D14*
%TO.C,J25*%
X77400000Y-147000000D03*
D15*
X79940000Y-147000000D03*
%TD*%
D14*
%TO.C,J31*%
X82700000Y-125800000D03*
D15*
X85240000Y-125800000D03*
%TD*%
D14*
%TO.C,J6*%
X137600000Y-147000000D03*
D15*
X140140000Y-147000000D03*
%TD*%
D14*
%TO.C,J1*%
X96500000Y-147000000D03*
D15*
X99040000Y-147000000D03*
%TD*%
D23*
%TO.C,TP1*%
X150000000Y-112000000D03*
%TD*%
D14*
%TO.C,J14*%
X173100000Y-91800000D03*
D15*
X175640000Y-91800000D03*
%TD*%
D16*
%TO.C,H3*%
X212600000Y-55000000D03*
X213302944Y-53302944D03*
X213302944Y-56697056D03*
X215000000Y-52600000D03*
D17*
X215000000Y-55000000D03*
D16*
X215000000Y-57400000D03*
X216697056Y-53302944D03*
X216697056Y-56697056D03*
X217400000Y-55000000D03*
%TD*%
D14*
%TO.C,J17*%
X217225000Y-109900000D03*
D15*
X214685000Y-109900000D03*
X212145000Y-109900000D03*
%TD*%
D20*
%TO.C,J24*%
X94000000Y-136000000D03*
D21*
X91450000Y-133450000D03*
X91450000Y-138550000D03*
X96550000Y-133450000D03*
X96550000Y-138550000D03*
%TD*%
D24*
%TO.C,D2*%
X165700000Y-117000000D03*
X165700000Y-120300000D03*
X160800000Y-120300000D03*
X160800000Y-117000000D03*
%TD*%
%TO.C,D5*%
X74450000Y-53350000D03*
X74450000Y-56650000D03*
X69550000Y-56650000D03*
X69550000Y-53350000D03*
%TD*%
D13*
%TO.C,J32*%
X156270000Y-126350000D03*
X144840000Y-126350000D03*
D25*
X155000000Y-120000000D03*
D26*
X153730000Y-117460000D03*
X152460000Y-120000000D03*
X151190000Y-117460000D03*
X149920000Y-120000000D03*
X148650000Y-117460000D03*
X147380000Y-120000000D03*
X146110000Y-117460000D03*
%TD*%
D27*
%TO.C,D3*%
X203000000Y-76062500D03*
X203000000Y-77937500D03*
%TD*%
D23*
%TO.C,S2*%
X214250000Y-73750000D03*
X214250000Y-80250000D03*
X209750000Y-73750000D03*
X209750000Y-80250000D03*
%TD*%
D27*
%TO.C,D1*%
X203000000Y-64062500D03*
X203000000Y-65937500D03*
%TD*%
D20*
%TO.C,J9*%
X97000000Y-122000000D03*
X94800000Y-126100000D03*
X99200000Y-124500000D03*
X98700000Y-117000000D03*
X95300000Y-119500000D03*
%TD*%
D27*
%TO.C,D6*%
X203000000Y-100062500D03*
X203000000Y-101937500D03*
%TD*%
%TO.C,D4*%
X203000000Y-88062500D03*
X203000000Y-89937500D03*
%TD*%
D28*
%TO.C,R57*%
X130750000Y-122000000D03*
X121250000Y-122000000D03*
D23*
X123500000Y-128500000D03*
X126000000Y-128500000D03*
X128500000Y-128500000D03*
%TD*%
%TO.C,S4*%
X214250000Y-97750000D03*
X214250000Y-104250000D03*
X209750000Y-97750000D03*
X209750000Y-104250000D03*
%TD*%
D20*
%TO.C,J38*%
X110000000Y-122000000D03*
X107800000Y-126100000D03*
X112200000Y-124500000D03*
X111700000Y-117000000D03*
X108300000Y-119500000D03*
%TD*%
D23*
%TO.C,S3*%
X214250000Y-85750000D03*
X214250000Y-92250000D03*
X209750000Y-85750000D03*
X209750000Y-92250000D03*
%TD*%
D29*
%TO.C,U9*%
X95500000Y-55500000D03*
X95500000Y-110400000D03*
X197500000Y-55500000D03*
X197500000Y-110400000D03*
D14*
X198500000Y-66440000D03*
D15*
X198500000Y-68980000D03*
X198500000Y-71520000D03*
X198500000Y-74060000D03*
X198500000Y-76600000D03*
X198500000Y-79140000D03*
X198500000Y-81680000D03*
X198500000Y-84220000D03*
X198500000Y-86760000D03*
X198500000Y-89300000D03*
X198500000Y-91840000D03*
X198500000Y-94380000D03*
X198500000Y-96920000D03*
X198500000Y-99460000D03*
D14*
X94500000Y-79140000D03*
D15*
X94500000Y-81680000D03*
X94500000Y-84220000D03*
X94500000Y-86760000D03*
%TD*%
D30*
%TO.C,SW1*%
X77700000Y-101000000D03*
X66300000Y-101000000D03*
D23*
X74500000Y-108500000D03*
X69500000Y-108500000D03*
X72000000Y-108500000D03*
X74500000Y-94000000D03*
X69500000Y-94000000D03*
%TD*%
%TO.C,S1*%
X214250000Y-61750000D03*
X214250000Y-68250000D03*
X209750000Y-61750000D03*
X209750000Y-68250000D03*
%TD*%
D30*
%TO.C,SW2*%
X77700000Y-68000000D03*
X66300000Y-68000000D03*
D23*
X74500000Y-75500000D03*
X69500000Y-75500000D03*
X72000000Y-75500000D03*
X74500000Y-61000000D03*
X69500000Y-61000000D03*
%TD*%
%LPD*%
M02*
