%TF.GenerationSoftware,KiCad,Pcbnew,7.0.10-7.0.10~ubuntu22.04.1*%
%TF.CreationDate,2024-01-04T09:02:15-08:00*%
%TF.ProjectId,YamhillFrontPanel,59616d68-696c-46c4-9672-6f6e7450616e,A*%
%TF.SameCoordinates,Original*%
%TF.FileFunction,Soldermask,Top*%
%TF.FilePolarity,Negative*%
%FSLAX46Y46*%
G04 Gerber Fmt 4.6, Leading zero omitted, Abs format (unit mm)*
G04 Created by KiCad (PCBNEW 7.0.10-7.0.10~ubuntu22.04.1) date 2024-01-04 09:02:15*
%MOMM*%
%LPD*%
G01*
G04 APERTURE LIST*
G04 Aperture macros list*
%AMRoundRect*
0 Rectangle with rounded corners*
0 $1 Rounding radius*
0 $2 $3 $4 $5 $6 $7 $8 $9 X,Y pos of 4 corners*
0 Add a 4 corners polygon primitive as box body*
4,1,4,$2,$3,$4,$5,$6,$7,$8,$9,$2,$3,0*
0 Add four circle primitives for the rounded corners*
1,1,$1+$1,$2,$3*
1,1,$1+$1,$4,$5*
1,1,$1+$1,$6,$7*
1,1,$1+$1,$8,$9*
0 Add four rect primitives between the rounded corners*
20,1,$1+$1,$2,$3,$4,$5,0*
20,1,$1+$1,$4,$5,$6,$7,0*
20,1,$1+$1,$6,$7,$8,$9,0*
20,1,$1+$1,$8,$9,$2,$3,0*%
%AMFreePoly0*
4,1,14,0.289644,0.110355,0.410355,-0.010356,0.425000,-0.045711,0.425000,-0.075000,0.410355,-0.110355,0.375000,-0.125000,-0.375000,-0.125000,-0.410355,-0.110355,-0.425000,-0.075000,-0.425000,0.075000,-0.410355,0.110355,-0.375000,0.125000,0.254289,0.125000,0.289644,0.110355,0.289644,0.110355,$1*%
%AMFreePoly1*
4,1,14,0.410355,0.110355,0.425000,0.075000,0.425000,0.045711,0.410355,0.010356,0.289644,-0.110355,0.254289,-0.125000,-0.375000,-0.125000,-0.410355,-0.110355,-0.425000,-0.075000,-0.425000,0.075000,-0.410355,0.110355,-0.375000,0.125000,0.375000,0.125000,0.410355,0.110355,0.410355,0.110355,$1*%
%AMFreePoly2*
4,1,14,0.110355,0.410355,0.125000,0.375000,0.125000,-0.375000,0.110355,-0.410355,0.075000,-0.425000,-0.075000,-0.425000,-0.110355,-0.410355,-0.125000,-0.375000,-0.125000,0.254289,-0.110355,0.289644,0.010356,0.410355,0.045711,0.425000,0.075000,0.425000,0.110355,0.410355,0.110355,0.410355,$1*%
%AMFreePoly3*
4,1,14,-0.010356,0.410355,0.110355,0.289644,0.125000,0.254289,0.125000,-0.375000,0.110355,-0.410355,0.075000,-0.425000,-0.075000,-0.425000,-0.110355,-0.410355,-0.125000,-0.375000,-0.125000,0.375000,-0.110355,0.410355,-0.075000,0.425000,-0.045711,0.425000,-0.010356,0.410355,-0.010356,0.410355,$1*%
%AMFreePoly4*
4,1,14,0.410355,0.110355,0.425000,0.075000,0.425000,-0.075000,0.410355,-0.110355,0.375000,-0.125000,-0.254289,-0.125000,-0.289644,-0.110355,-0.410355,0.010356,-0.425000,0.045711,-0.425000,0.075000,-0.410355,0.110355,-0.375000,0.125000,0.375000,0.125000,0.410355,0.110355,0.410355,0.110355,$1*%
%AMFreePoly5*
4,1,14,0.410355,0.110355,0.425000,0.075000,0.425000,-0.075000,0.410355,-0.110355,0.375000,-0.125000,-0.375000,-0.125000,-0.410355,-0.110355,-0.425000,-0.075000,-0.425000,-0.045711,-0.410355,-0.010356,-0.289644,0.110355,-0.254289,0.125000,0.375000,0.125000,0.410355,0.110355,0.410355,0.110355,$1*%
%AMFreePoly6*
4,1,14,0.110355,0.410355,0.125000,0.375000,0.125000,-0.254289,0.110355,-0.289644,-0.010356,-0.410355,-0.045711,-0.425000,-0.075000,-0.425000,-0.110355,-0.410355,-0.125000,-0.375000,-0.125000,0.375000,-0.110355,0.410355,-0.075000,0.425000,0.075000,0.425000,0.110355,0.410355,0.110355,0.410355,$1*%
%AMFreePoly7*
4,1,14,0.110355,0.410355,0.125000,0.375000,0.125000,-0.375000,0.110355,-0.410355,0.075000,-0.425000,0.045711,-0.425000,0.010356,-0.410355,-0.110355,-0.289644,-0.125000,-0.254289,-0.125000,0.375000,-0.110355,0.410355,-0.075000,0.425000,0.075000,0.425000,0.110355,0.410355,0.110355,0.410355,$1*%
G04 Aperture macros list end*
%ADD10FreePoly0,0.000000*%
%ADD11RoundRect,0.062500X-0.362500X-0.062500X0.362500X-0.062500X0.362500X0.062500X-0.362500X0.062500X0*%
%ADD12FreePoly1,0.000000*%
%ADD13FreePoly2,0.000000*%
%ADD14RoundRect,0.062500X-0.062500X-0.362500X0.062500X-0.362500X0.062500X0.362500X-0.062500X0.362500X0*%
%ADD15FreePoly3,0.000000*%
%ADD16FreePoly4,0.000000*%
%ADD17FreePoly5,0.000000*%
%ADD18FreePoly6,0.000000*%
%ADD19FreePoly7,0.000000*%
%ADD20R,1.550000X1.550000*%
%ADD21O,2.000000X1.300000*%
%ADD22C,2.000000*%
%ADD23O,2.800000X3.200000*%
%ADD24C,2.500000*%
%ADD25C,2.600000*%
%ADD26RoundRect,0.250000X-0.250000X-0.475000X0.250000X-0.475000X0.250000X0.475000X-0.250000X0.475000X0*%
%ADD27R,1.700000X1.700000*%
%ADD28O,1.700000X1.700000*%
%ADD29RoundRect,0.250000X-0.262500X-0.450000X0.262500X-0.450000X0.262500X0.450000X-0.262500X0.450000X0*%
%ADD30RoundRect,0.250000X0.450000X-0.262500X0.450000X0.262500X-0.450000X0.262500X-0.450000X-0.262500X0*%
%ADD31RoundRect,0.250000X-0.450000X0.262500X-0.450000X-0.262500X0.450000X-0.262500X0.450000X0.262500X0*%
%ADD32C,0.800000*%
%ADD33C,6.400000*%
%ADD34RoundRect,0.150000X-0.587500X-0.150000X0.587500X-0.150000X0.587500X0.150000X-0.587500X0.150000X0*%
%ADD35RoundRect,0.250000X0.250000X0.475000X-0.250000X0.475000X-0.250000X-0.475000X0.250000X-0.475000X0*%
%ADD36O,1.800000X1.800000*%
%ADD37O,1.500000X1.500000*%
%ADD38R,1.700000X3.500000*%
%ADD39R,3.500000X1.700000*%
%ADD40RoundRect,0.250000X0.550000X-1.050000X0.550000X1.050000X-0.550000X1.050000X-0.550000X-1.050000X0*%
%ADD41RoundRect,0.250000X0.475000X-0.250000X0.475000X0.250000X-0.475000X0.250000X-0.475000X-0.250000X0*%
%ADD42R,1.100000X0.250000*%
%ADD43RoundRect,0.250000X-0.550000X1.050000X-0.550000X-1.050000X0.550000X-1.050000X0.550000X1.050000X0*%
%ADD44RoundRect,0.225000X-0.375000X0.225000X-0.375000X-0.225000X0.375000X-0.225000X0.375000X0.225000X0*%
%ADD45RoundRect,0.250000X0.262500X0.450000X-0.262500X0.450000X-0.262500X-0.450000X0.262500X-0.450000X0*%
%ADD46RoundRect,0.250000X-0.475000X0.250000X-0.475000X-0.250000X0.475000X-0.250000X0.475000X0.250000X0*%
%ADD47R,1.300000X1.100000*%
%ADD48RoundRect,0.150000X-0.825000X-0.150000X0.825000X-0.150000X0.825000X0.150000X-0.825000X0.150000X0*%
%ADD49RoundRect,0.250000X-1.500000X-0.550000X1.500000X-0.550000X1.500000X0.550000X-1.500000X0.550000X0*%
%ADD50RoundRect,0.250000X0.700000X-0.275000X0.700000X0.275000X-0.700000X0.275000X-0.700000X-0.275000X0*%
%ADD51R,1.100000X0.400000*%
%ADD52RoundRect,0.100000X-0.637500X-0.100000X0.637500X-0.100000X0.637500X0.100000X-0.637500X0.100000X0*%
%ADD53C,3.650000*%
%ADD54R,1.500000X1.500000*%
%ADD55C,1.500000*%
%ADD56C,3.400000*%
%ADD57O,2.000000X2.800000*%
G04 APERTURE END LIST*
D10*
%TO.C,U5*%
X110500000Y-140000000D03*
D11*
X110500000Y-140450000D03*
X110500000Y-140900000D03*
X110500000Y-141350000D03*
D12*
X110500000Y-141800000D03*
D13*
X111050000Y-142350000D03*
D14*
X111500000Y-142350000D03*
X111950000Y-142350000D03*
X112400000Y-142350000D03*
D15*
X112850000Y-142350000D03*
D16*
X113400000Y-141800000D03*
D11*
X113400000Y-141350000D03*
X113400000Y-140900000D03*
X113400000Y-140450000D03*
D17*
X113400000Y-140000000D03*
D18*
X112850000Y-139450000D03*
D14*
X112400000Y-139450000D03*
X111950000Y-139450000D03*
X111500000Y-139450000D03*
D19*
X111050000Y-139450000D03*
D20*
X111950000Y-140900000D03*
%TD*%
D21*
%TO.C,R42*%
X130750000Y-122000000D03*
X121250000Y-122000000D03*
D22*
X123500000Y-128500000D03*
X126000000Y-128500000D03*
X128500000Y-128500000D03*
%TD*%
%TO.C,S2*%
X214250000Y-73750000D03*
X214250000Y-80250000D03*
X209750000Y-73750000D03*
X209750000Y-80250000D03*
%TD*%
%TO.C,S4*%
X214250000Y-97750000D03*
X214250000Y-104250000D03*
X209750000Y-97750000D03*
X209750000Y-104250000D03*
%TD*%
%TO.C,S3*%
X214250000Y-85750000D03*
X214250000Y-92250000D03*
X209750000Y-85750000D03*
X209750000Y-92250000D03*
%TD*%
%TO.C,S1*%
X214250000Y-61750000D03*
X214250000Y-68250000D03*
X209750000Y-61750000D03*
X209750000Y-68250000D03*
%TD*%
D23*
%TO.C,R26*%
X130700000Y-132000000D03*
X141300000Y-132000000D03*
D22*
X138500000Y-139000000D03*
X136000000Y-139000000D03*
X133500000Y-139000000D03*
%TD*%
D24*
%TO.C,J2*%
X97000000Y-122000000D03*
X94800000Y-126100000D03*
X99200000Y-124500000D03*
X98700000Y-117000000D03*
X95300000Y-119500000D03*
%TD*%
%TO.C,J21*%
X110000000Y-122000000D03*
X107800000Y-126100000D03*
X112200000Y-124500000D03*
X111700000Y-117000000D03*
X108300000Y-119500000D03*
%TD*%
%TO.C,J8*%
X55000000Y-136000000D03*
D25*
X52450000Y-133450000D03*
X52450000Y-138550000D03*
X57550000Y-133450000D03*
X57550000Y-138550000D03*
%TD*%
D24*
%TO.C,J13*%
X81000000Y-136000000D03*
D25*
X78450000Y-133450000D03*
X78450000Y-138550000D03*
X83550000Y-133450000D03*
X83550000Y-138550000D03*
%TD*%
D24*
%TO.C,J11*%
X68000000Y-136000000D03*
D25*
X65450000Y-133450000D03*
X65450000Y-138550000D03*
X70550000Y-133450000D03*
X70550000Y-138550000D03*
%TD*%
D24*
%TO.C,J14*%
X94000000Y-136000000D03*
D25*
X91450000Y-133450000D03*
X91450000Y-138550000D03*
X96550000Y-133450000D03*
X96550000Y-138550000D03*
%TD*%
D26*
%TO.C,C30*%
X145685000Y-102100000D03*
X147585000Y-102100000D03*
%TD*%
%TO.C,C27*%
X157250000Y-110800000D03*
X159150000Y-110800000D03*
%TD*%
%TO.C,C36*%
X123450000Y-81500000D03*
X125350000Y-81500000D03*
%TD*%
D27*
%TO.C,J10*%
X154600000Y-147000000D03*
D28*
X157140000Y-147000000D03*
X159680000Y-147000000D03*
X162220000Y-147000000D03*
X164760000Y-147000000D03*
X167300000Y-147000000D03*
X169840000Y-147000000D03*
X172380000Y-147000000D03*
%TD*%
D29*
%TO.C,R52*%
X117287500Y-130800000D03*
X119112500Y-130800000D03*
%TD*%
D27*
%TO.C,J17*%
X150425000Y-137900000D03*
D28*
X152965000Y-137900000D03*
%TD*%
D26*
%TO.C,C6*%
X89050000Y-117000000D03*
X90950000Y-117000000D03*
%TD*%
D29*
%TO.C,R17*%
X126687500Y-136900000D03*
X128512500Y-136900000D03*
%TD*%
D30*
%TO.C,R8*%
X164000000Y-135912500D03*
X164000000Y-134087500D03*
%TD*%
D27*
%TO.C,J15*%
X137960000Y-109800000D03*
D28*
X140500000Y-109800000D03*
%TD*%
D27*
%TO.C,J1*%
X182000000Y-147000000D03*
D28*
X184540000Y-147000000D03*
%TD*%
D31*
%TO.C,R33*%
X132435000Y-103787500D03*
X132435000Y-105612500D03*
%TD*%
D30*
%TO.C,R32*%
X132435000Y-94512500D03*
X132435000Y-92687500D03*
%TD*%
D32*
%TO.C,H3*%
X52600000Y-145000000D03*
X53302944Y-143302944D03*
X53302944Y-146697056D03*
X55000000Y-142600000D03*
D33*
X55000000Y-145000000D03*
D32*
X55000000Y-147400000D03*
X56697056Y-143302944D03*
X56697056Y-146697056D03*
X57400000Y-145000000D03*
%TD*%
D27*
%TO.C,J9*%
X78520000Y-147000000D03*
D28*
X81060000Y-147000000D03*
X83600000Y-147000000D03*
X86140000Y-147000000D03*
%TD*%
D34*
%TO.C,Q2*%
X102437500Y-72855000D03*
X102437500Y-74755000D03*
X104312500Y-73805000D03*
%TD*%
D26*
%TO.C,C4*%
X70950000Y-59400000D03*
X72850000Y-59400000D03*
%TD*%
D29*
%TO.C,R48*%
X102487500Y-68800000D03*
X104312500Y-68800000D03*
%TD*%
D35*
%TO.C,C26*%
X144050000Y-136000000D03*
X142150000Y-136000000D03*
%TD*%
D30*
%TO.C,R37*%
X120375000Y-81517500D03*
X120375000Y-79692500D03*
%TD*%
D36*
%TO.C,U3*%
X217970000Y-123985000D03*
D37*
X214940000Y-124285000D03*
X214940000Y-129135000D03*
D36*
X217970000Y-129435000D03*
D28*
X218100000Y-117820000D03*
D38*
X218100000Y-116920000D03*
D28*
X215560000Y-117820000D03*
D38*
X215560000Y-116920000D03*
D27*
X213020000Y-117820000D03*
D38*
X213020000Y-116920000D03*
D28*
X210480000Y-117820000D03*
D38*
X210480000Y-116920000D03*
D28*
X207940000Y-117820000D03*
D38*
X207940000Y-116920000D03*
D28*
X205400000Y-117820000D03*
D38*
X205400000Y-116920000D03*
D28*
X202860000Y-117820000D03*
D38*
X202860000Y-116920000D03*
D27*
X200320000Y-117820000D03*
D38*
X200320000Y-116920000D03*
D28*
X197780000Y-117820000D03*
D38*
X197780000Y-116920000D03*
D28*
X195240000Y-117820000D03*
D38*
X195240000Y-116920000D03*
D28*
X192700000Y-117820000D03*
D38*
X192700000Y-116920000D03*
D28*
X190160000Y-117820000D03*
D38*
X190160000Y-116920000D03*
D27*
X187620000Y-117820000D03*
D38*
X187620000Y-116920000D03*
D28*
X185080000Y-117820000D03*
D38*
X185080000Y-116920000D03*
D28*
X182540000Y-117820000D03*
D38*
X182540000Y-116920000D03*
D28*
X180000000Y-117820000D03*
D38*
X180000000Y-116920000D03*
D28*
X177460000Y-117820000D03*
D38*
X177460000Y-116920000D03*
D27*
X174920000Y-117820000D03*
D38*
X174920000Y-116920000D03*
D28*
X172380000Y-117820000D03*
D38*
X172380000Y-116920000D03*
D28*
X169840000Y-117820000D03*
D38*
X169840000Y-116920000D03*
D28*
X169840000Y-135600000D03*
D38*
X169840000Y-136500000D03*
D28*
X172380000Y-135600000D03*
D38*
X172380000Y-136500000D03*
D27*
X174920000Y-135600000D03*
D38*
X174920000Y-136500000D03*
D28*
X177460000Y-135600000D03*
D38*
X177460000Y-136500000D03*
D28*
X180000000Y-135600000D03*
D38*
X180000000Y-136500000D03*
D28*
X182540000Y-135600000D03*
D38*
X182540000Y-136500000D03*
D28*
X185080000Y-135600000D03*
D38*
X185080000Y-136500000D03*
D27*
X187620000Y-135600000D03*
D38*
X187620000Y-136500000D03*
D28*
X190160000Y-135600000D03*
D38*
X190160000Y-136500000D03*
D28*
X192700000Y-135600000D03*
D38*
X192700000Y-136500000D03*
D28*
X195240000Y-135600000D03*
D38*
X195240000Y-136500000D03*
D28*
X197780000Y-135600000D03*
D38*
X197780000Y-136500000D03*
D27*
X200320000Y-135600000D03*
D38*
X200320000Y-136500000D03*
D28*
X202860000Y-135600000D03*
D38*
X202860000Y-136500000D03*
D28*
X205400000Y-135600000D03*
D38*
X205400000Y-136500000D03*
D28*
X207940000Y-135600000D03*
D38*
X207940000Y-136500000D03*
D28*
X210480000Y-135600000D03*
D38*
X210480000Y-136500000D03*
D27*
X213020000Y-135600000D03*
D38*
X213020000Y-136500000D03*
D28*
X215560000Y-135600000D03*
D38*
X215560000Y-136500000D03*
D28*
X218100000Y-135600000D03*
D38*
X218100000Y-136500000D03*
D28*
X170070000Y-124170000D03*
D39*
X169170000Y-124170000D03*
D27*
X170070000Y-126710000D03*
D39*
X169170000Y-126710000D03*
D28*
X170070000Y-129250000D03*
D39*
X169170000Y-129250000D03*
%TD*%
D30*
%TO.C,R31*%
X128735000Y-94512500D03*
X128735000Y-92687500D03*
%TD*%
D35*
%TO.C,C35*%
X105450000Y-96800000D03*
X103550000Y-96800000D03*
%TD*%
D31*
%TO.C,R44*%
X117900000Y-116987500D03*
X117900000Y-118812500D03*
%TD*%
D40*
%TO.C,C24*%
X139235000Y-87700000D03*
X139235000Y-84100000D03*
%TD*%
%TO.C,C33*%
X116600000Y-66200000D03*
X116600000Y-62600000D03*
%TD*%
D29*
%TO.C,R18*%
X126587500Y-140300000D03*
X128412500Y-140300000D03*
%TD*%
%TO.C,R40*%
X111062500Y-68805000D03*
X112887500Y-68805000D03*
%TD*%
D41*
%TO.C,C21*%
X207000000Y-77950000D03*
X207000000Y-76050000D03*
%TD*%
D30*
%TO.C,R30*%
X128735000Y-105612500D03*
X128735000Y-103787500D03*
%TD*%
D35*
%TO.C,C42*%
X99350000Y-74500000D03*
X97450000Y-74500000D03*
%TD*%
D42*
%TO.C,U2*%
X160050000Y-140300000D03*
X160050000Y-140800000D03*
X160050000Y-141300000D03*
X160050000Y-141800000D03*
X160050000Y-142300000D03*
X164350000Y-142300000D03*
X164350000Y-141800000D03*
X164350000Y-141300000D03*
X164350000Y-140800000D03*
X164350000Y-140300000D03*
%TD*%
D43*
%TO.C,C32*%
X111875000Y-84205000D03*
X111875000Y-87805000D03*
%TD*%
D30*
%TO.C,R46*%
X107775000Y-75317500D03*
X107775000Y-73492500D03*
%TD*%
D26*
%TO.C,C44*%
X151935000Y-107000000D03*
X153835000Y-107000000D03*
%TD*%
D35*
%TO.C,C37*%
X109025000Y-68805000D03*
X107125000Y-68805000D03*
%TD*%
D44*
%TO.C,D1*%
X200000000Y-144850000D03*
X200000000Y-148150000D03*
%TD*%
D27*
%TO.C,J3*%
X192000000Y-147000000D03*
D28*
X194540000Y-147000000D03*
%TD*%
D31*
%TO.C,R19*%
X203000000Y-64087500D03*
X203000000Y-65912500D03*
%TD*%
D27*
%TO.C,J4*%
X205000000Y-147000000D03*
D28*
X207540000Y-147000000D03*
%TD*%
D45*
%TO.C,R35*%
X118412500Y-70400000D03*
X116587500Y-70400000D03*
%TD*%
D27*
%TO.C,J19*%
X123400000Y-86300000D03*
D28*
X125940000Y-86300000D03*
%TD*%
D26*
%TO.C,C38*%
X84250000Y-96900000D03*
X86150000Y-96900000D03*
%TD*%
D46*
%TO.C,C14*%
X106600000Y-133050000D03*
X106600000Y-134950000D03*
%TD*%
D31*
%TO.C,R3*%
X161000000Y-134087500D03*
X161000000Y-135912500D03*
%TD*%
D29*
%TO.C,R5*%
X112887500Y-132900000D03*
X114712500Y-132900000D03*
%TD*%
D45*
%TO.C,R11*%
X122712500Y-142100000D03*
X120887500Y-142100000D03*
%TD*%
D31*
%TO.C,R20*%
X203000000Y-76087500D03*
X203000000Y-77912500D03*
%TD*%
D35*
%TO.C,C13*%
X178550000Y-101800000D03*
X176650000Y-101800000D03*
%TD*%
D32*
%TO.C,H4*%
X212600000Y-145000000D03*
X213302944Y-143302944D03*
X213302944Y-146697056D03*
X215000000Y-142600000D03*
D33*
X215000000Y-145000000D03*
D32*
X215000000Y-147400000D03*
X216697056Y-143302944D03*
X216697056Y-146697056D03*
X217400000Y-145000000D03*
%TD*%
D29*
%TO.C,R27*%
X132422500Y-88200000D03*
X134247500Y-88200000D03*
%TD*%
D47*
%TO.C,U4*%
X100219978Y-135580022D03*
X102519978Y-135580022D03*
X102519978Y-133680022D03*
X100219978Y-133680022D03*
%TD*%
D29*
%TO.C,R13*%
X101687500Y-142100000D03*
X103512500Y-142100000D03*
%TD*%
D31*
%TO.C,R22*%
X203000000Y-100087500D03*
X203000000Y-101912500D03*
%TD*%
D35*
%TO.C,C18*%
X118650000Y-142100000D03*
X116750000Y-142100000D03*
%TD*%
%TO.C,C25*%
X147585000Y-95000000D03*
X145685000Y-95000000D03*
%TD*%
D45*
%TO.C,R10*%
X122712500Y-138600000D03*
X120887500Y-138600000D03*
%TD*%
D27*
%TO.C,J22*%
X152460000Y-102700000D03*
D28*
X155000000Y-102700000D03*
X157540000Y-102700000D03*
%TD*%
D29*
%TO.C,R16*%
X105587500Y-138500000D03*
X107412500Y-138500000D03*
%TD*%
D41*
%TO.C,C28*%
X128735000Y-100250000D03*
X128735000Y-98350000D03*
%TD*%
D29*
%TO.C,R53*%
X117287500Y-134300000D03*
X119112500Y-134300000D03*
%TD*%
D26*
%TO.C,C5*%
X89050000Y-126100000D03*
X90950000Y-126100000D03*
%TD*%
D32*
%TO.C,H1*%
X52600000Y-55000000D03*
X53302944Y-53302944D03*
X53302944Y-56697056D03*
X55000000Y-52600000D03*
D33*
X55000000Y-55000000D03*
D32*
X55000000Y-57400000D03*
X56697056Y-53302944D03*
X56697056Y-56697056D03*
X57400000Y-55000000D03*
%TD*%
D48*
%TO.C,U7*%
X136785000Y-93700000D03*
X136785000Y-94970000D03*
X136785000Y-96240000D03*
X136785000Y-97510000D03*
X141735000Y-97510000D03*
X141735000Y-96240000D03*
X141735000Y-94970000D03*
X141735000Y-93700000D03*
%TD*%
D45*
%TO.C,R9*%
X102512500Y-138700000D03*
X100687500Y-138700000D03*
%TD*%
D26*
%TO.C,C8*%
X67650000Y-80000000D03*
X69550000Y-80000000D03*
%TD*%
D49*
%TO.C,C40*%
X112200000Y-108200000D03*
X117800000Y-108200000D03*
%TD*%
D30*
%TO.C,R6*%
X164000000Y-130912500D03*
X164000000Y-129087500D03*
%TD*%
D29*
%TO.C,R28*%
X139922500Y-102100000D03*
X141747500Y-102100000D03*
%TD*%
D41*
%TO.C,C17*%
X78900000Y-55250000D03*
X78900000Y-53350000D03*
%TD*%
D45*
%TO.C,R4*%
X110812500Y-132900000D03*
X108987500Y-132900000D03*
%TD*%
D31*
%TO.C,R1*%
X161000000Y-129087500D03*
X161000000Y-130912500D03*
%TD*%
D27*
%TO.C,J18*%
X84300000Y-104200000D03*
D28*
X86840000Y-104200000D03*
%TD*%
D26*
%TO.C,C45*%
X156535000Y-107000000D03*
X158435000Y-107000000D03*
%TD*%
%TO.C,C34*%
X99550000Y-96800000D03*
X101450000Y-96800000D03*
%TD*%
D41*
%TO.C,C23*%
X207000000Y-101950000D03*
X207000000Y-100050000D03*
%TD*%
D31*
%TO.C,R29*%
X132435000Y-98387500D03*
X132435000Y-100212500D03*
%TD*%
D30*
%TO.C,R43*%
X120375000Y-76417500D03*
X120375000Y-74592500D03*
%TD*%
D34*
%TO.C,Q3*%
X122225000Y-133450000D03*
X122225000Y-135350000D03*
X124100000Y-134400000D03*
%TD*%
D26*
%TO.C,C1*%
X74550000Y-113000000D03*
X76450000Y-113000000D03*
%TD*%
%TO.C,C2*%
X70950000Y-92400000D03*
X72850000Y-92400000D03*
%TD*%
D27*
%TO.C,J12*%
X128000000Y-147000000D03*
D28*
X130540000Y-147000000D03*
X133080000Y-147000000D03*
X135620000Y-147000000D03*
X138160000Y-147000000D03*
X140700000Y-147000000D03*
X143240000Y-147000000D03*
X145780000Y-147000000D03*
%TD*%
D41*
%TO.C,C19*%
X207000000Y-65950000D03*
X207000000Y-64050000D03*
%TD*%
D27*
%TO.C,J6*%
X95000000Y-147000000D03*
D28*
X97540000Y-147000000D03*
X100080000Y-147000000D03*
X102620000Y-147000000D03*
X105160000Y-147000000D03*
X107700000Y-147000000D03*
X110240000Y-147000000D03*
X112780000Y-147000000D03*
X115320000Y-147000000D03*
X117860000Y-147000000D03*
%TD*%
D50*
%TO.C,L1*%
X146200000Y-141650000D03*
X146200000Y-138500000D03*
%TD*%
D45*
%TO.C,R39*%
X105412500Y-92800000D03*
X103587500Y-92800000D03*
%TD*%
D41*
%TO.C,C22*%
X207000000Y-89950000D03*
X207000000Y-88050000D03*
%TD*%
D45*
%TO.C,R24*%
X146247500Y-90300000D03*
X144422500Y-90300000D03*
%TD*%
D35*
%TO.C,C10*%
X110950000Y-136300000D03*
X109050000Y-136300000D03*
%TD*%
D29*
%TO.C,R23*%
X130422500Y-109800000D03*
X132247500Y-109800000D03*
%TD*%
D30*
%TO.C,R36*%
X107775000Y-80717500D03*
X107775000Y-78892500D03*
%TD*%
D45*
%TO.C,R41*%
X86112500Y-92000000D03*
X84287500Y-92000000D03*
%TD*%
D26*
%TO.C,C29*%
X145685000Y-98400000D03*
X147585000Y-98400000D03*
%TD*%
D51*
%TO.C,U9*%
X103900000Y-100800000D03*
X103900000Y-101450000D03*
X103900000Y-102100000D03*
X103900000Y-102750000D03*
X108200000Y-102750000D03*
X108200000Y-102100000D03*
X108200000Y-101450000D03*
X108200000Y-100800000D03*
%TD*%
D31*
%TO.C,R2*%
X161000000Y-124087500D03*
X161000000Y-125912500D03*
%TD*%
D26*
%TO.C,C3*%
X74850000Y-80000000D03*
X76750000Y-80000000D03*
%TD*%
D34*
%TO.C,Q4*%
X117225000Y-124650000D03*
X117225000Y-126550000D03*
X119100000Y-125600000D03*
%TD*%
D30*
%TO.C,R34*%
X106475000Y-87017500D03*
X106475000Y-85192500D03*
%TD*%
D35*
%TO.C,C39*%
X101450000Y-101400000D03*
X99550000Y-101400000D03*
%TD*%
D46*
%TO.C,C41*%
X111300000Y-99550000D03*
X111300000Y-101450000D03*
%TD*%
D31*
%TO.C,R21*%
X203000000Y-88087500D03*
X203000000Y-89912500D03*
%TD*%
D29*
%TO.C,R45*%
X103987500Y-107400000D03*
X105812500Y-107400000D03*
%TD*%
D45*
%TO.C,R47*%
X101412500Y-105100000D03*
X99587500Y-105100000D03*
%TD*%
D26*
%TO.C,C11*%
X112850000Y-136300000D03*
X114750000Y-136300000D03*
%TD*%
D34*
%TO.C,Q1*%
X123537500Y-74555000D03*
X123537500Y-76455000D03*
X125412500Y-75505000D03*
%TD*%
D26*
%TO.C,C7*%
X67650000Y-113000000D03*
X69550000Y-113000000D03*
%TD*%
D29*
%TO.C,R14*%
X176687500Y-105300000D03*
X178512500Y-105300000D03*
%TD*%
D31*
%TO.C,R38*%
X117175000Y-85192500D03*
X117175000Y-87017500D03*
%TD*%
D29*
%TO.C,R49*%
X123587500Y-70000000D03*
X125412500Y-70000000D03*
%TD*%
D45*
%TO.C,R50*%
X99312500Y-70600000D03*
X97487500Y-70600000D03*
%TD*%
D29*
%TO.C,R51*%
X128487500Y-72400000D03*
X130312500Y-72400000D03*
%TD*%
D52*
%TO.C,U6*%
X184387500Y-100625000D03*
X184387500Y-101275000D03*
X184387500Y-101925000D03*
X184387500Y-102575000D03*
X184387500Y-103225000D03*
X184387500Y-103875000D03*
X184387500Y-104525000D03*
X184387500Y-105175000D03*
X184387500Y-105825000D03*
X184387500Y-106475000D03*
X184387500Y-107125000D03*
X184387500Y-107775000D03*
X191812500Y-107775000D03*
X191812500Y-107125000D03*
X191812500Y-106475000D03*
X191812500Y-105825000D03*
X191812500Y-105175000D03*
X191812500Y-104525000D03*
X191812500Y-103875000D03*
X191812500Y-103225000D03*
X191812500Y-102575000D03*
X191812500Y-101925000D03*
X191812500Y-101275000D03*
X191812500Y-100625000D03*
%TD*%
D32*
%TO.C,H2*%
X212600000Y-55000000D03*
X213302944Y-53302944D03*
X213302944Y-56697056D03*
X215000000Y-52600000D03*
D33*
X215000000Y-55000000D03*
D32*
X215000000Y-57400000D03*
X216697056Y-53302944D03*
X216697056Y-56697056D03*
X217400000Y-55000000D03*
%TD*%
D27*
%TO.C,J5*%
X217225000Y-109900000D03*
D28*
X214685000Y-109900000D03*
X212145000Y-109900000D03*
%TD*%
D27*
%TO.C,J7*%
X154160000Y-91900000D03*
D28*
X156700000Y-91900000D03*
X159240000Y-91900000D03*
X161780000Y-91900000D03*
X164320000Y-91900000D03*
X166860000Y-91900000D03*
X169400000Y-91900000D03*
X171940000Y-91900000D03*
X174480000Y-91900000D03*
X177020000Y-91900000D03*
X179560000Y-91900000D03*
X182100000Y-91900000D03*
%TD*%
D26*
%TO.C,C43*%
X128450000Y-76300000D03*
X130350000Y-76300000D03*
%TD*%
D30*
%TO.C,R25*%
X136035000Y-105625000D03*
X136035000Y-103800000D03*
%TD*%
D26*
%TO.C,C16*%
X163750000Y-110800000D03*
X165650000Y-110800000D03*
%TD*%
D30*
%TO.C,R7*%
X164000000Y-125912500D03*
X164000000Y-124087500D03*
%TD*%
D43*
%TO.C,C31*%
X124035000Y-105400000D03*
X124035000Y-109000000D03*
%TD*%
D48*
%TO.C,U8*%
X111625000Y-73595000D03*
X111625000Y-74865000D03*
X111625000Y-76135000D03*
X111625000Y-77405000D03*
X116575000Y-77405000D03*
X116575000Y-76135000D03*
X116575000Y-74865000D03*
X116575000Y-73595000D03*
%TD*%
D26*
%TO.C,C15*%
X116750000Y-138600000D03*
X118650000Y-138600000D03*
%TD*%
D45*
%TO.C,R12*%
X178512500Y-98400000D03*
X176687500Y-98400000D03*
%TD*%
%TO.C,R15*%
X177412500Y-143400000D03*
X175587500Y-143400000D03*
%TD*%
D26*
%TO.C,C20*%
X105550000Y-142100000D03*
X107450000Y-142100000D03*
%TD*%
D35*
%TO.C,C9*%
X168350000Y-141500000D03*
X166450000Y-141500000D03*
%TD*%
D26*
%TO.C,C12*%
X100350000Y-130400000D03*
X102250000Y-130400000D03*
%TD*%
D53*
%TO.C,J16*%
X156270000Y-126350000D03*
X144840000Y-126350000D03*
D54*
X155000000Y-120000000D03*
D55*
X153730000Y-117460000D03*
X152460000Y-120000000D03*
X151190000Y-117460000D03*
X149920000Y-120000000D03*
X148650000Y-117460000D03*
X147380000Y-120000000D03*
X146110000Y-117460000D03*
%TD*%
D56*
%TO.C,U1*%
X95400000Y-55550000D03*
X95400000Y-110450000D03*
X197400000Y-55550000D03*
X197400000Y-110450000D03*
D27*
X198400000Y-66490000D03*
D28*
X198400000Y-69030000D03*
X198400000Y-71570000D03*
X198400000Y-74110000D03*
X198400000Y-76650000D03*
X198400000Y-79190000D03*
X198400000Y-81730000D03*
X198400000Y-84270000D03*
X198400000Y-86810000D03*
X198400000Y-89350000D03*
X198400000Y-91890000D03*
X198400000Y-94430000D03*
X198400000Y-96970000D03*
X198400000Y-99510000D03*
D27*
X94400000Y-79190000D03*
D28*
X94400000Y-81730000D03*
X94400000Y-84270000D03*
X94400000Y-86810000D03*
%TD*%
D57*
%TO.C,SW1*%
X77700000Y-101000000D03*
X66300000Y-101000000D03*
D22*
X74500000Y-108500000D03*
X69500000Y-108500000D03*
X72000000Y-108500000D03*
X74500000Y-94000000D03*
X69500000Y-94000000D03*
%TD*%
D57*
%TO.C,SW2*%
X77700000Y-68000000D03*
X66300000Y-68000000D03*
D22*
X74500000Y-75500000D03*
X69500000Y-75500000D03*
X72000000Y-75500000D03*
X74500000Y-61000000D03*
X69500000Y-61000000D03*
%TD*%
M02*
