%TF.GenerationSoftware,KiCad,Pcbnew,7.0.10-7.0.10~ubuntu22.04.1*%
%TF.CreationDate,2024-01-04T09:02:15-08:00*%
%TF.ProjectId,YamhillFrontPanel,59616d68-696c-46c4-9672-6f6e7450616e,A*%
%TF.SameCoordinates,Original*%
%TF.FileFunction,Copper,L4,Bot*%
%TF.FilePolarity,Positive*%
%FSLAX46Y46*%
G04 Gerber Fmt 4.6, Leading zero omitted, Abs format (unit mm)*
G04 Created by KiCad (PCBNEW 7.0.10-7.0.10~ubuntu22.04.1) date 2024-01-04 09:02:15*
%MOMM*%
%LPD*%
G01*
G04 APERTURE LIST*
G04 Aperture macros list*
%AMRoundRect*
0 Rectangle with rounded corners*
0 $1 Rounding radius*
0 $2 $3 $4 $5 $6 $7 $8 $9 X,Y pos of 4 corners*
0 Add a 4 corners polygon primitive as box body*
4,1,4,$2,$3,$4,$5,$6,$7,$8,$9,$2,$3,0*
0 Add four circle primitives for the rounded corners*
1,1,$1+$1,$2,$3*
1,1,$1+$1,$4,$5*
1,1,$1+$1,$6,$7*
1,1,$1+$1,$8,$9*
0 Add four rect primitives between the rounded corners*
20,1,$1+$1,$2,$3,$4,$5,0*
20,1,$1+$1,$4,$5,$6,$7,0*
20,1,$1+$1,$6,$7,$8,$9,0*
20,1,$1+$1,$8,$9,$2,$3,0*%
G04 Aperture macros list end*
%TA.AperFunction,ComponentPad*%
%ADD10C,0.560000*%
%TD*%
%TA.AperFunction,SMDPad,CuDef*%
%ADD11R,1.550000X1.550000*%
%TD*%
%TA.AperFunction,WasherPad*%
%ADD12O,2.000000X1.300000*%
%TD*%
%TA.AperFunction,ComponentPad*%
%ADD13C,2.000000*%
%TD*%
%TA.AperFunction,SMDPad,CuDef*%
%ADD14RoundRect,0.500000X0.500000X0.500000X-0.500000X0.500000X-0.500000X-0.500000X0.500000X-0.500000X0*%
%TD*%
%TA.AperFunction,ComponentPad*%
%ADD15O,2.800000X3.200000*%
%TD*%
%TA.AperFunction,ComponentPad*%
%ADD16C,2.500000*%
%TD*%
%TA.AperFunction,ComponentPad*%
%ADD17C,2.600000*%
%TD*%
%TA.AperFunction,ComponentPad*%
%ADD18R,1.700000X1.700000*%
%TD*%
%TA.AperFunction,ComponentPad*%
%ADD19O,1.700000X1.700000*%
%TD*%
%TA.AperFunction,ComponentPad*%
%ADD20C,0.800000*%
%TD*%
%TA.AperFunction,ComponentPad*%
%ADD21C,6.400000*%
%TD*%
%TA.AperFunction,SMDPad,CuDef*%
%ADD22R,1.500000X0.900000*%
%TD*%
%TA.AperFunction,WasherPad*%
%ADD23C,3.650000*%
%TD*%
%TA.AperFunction,ComponentPad*%
%ADD24R,1.500000X1.500000*%
%TD*%
%TA.AperFunction,ComponentPad*%
%ADD25C,1.500000*%
%TD*%
%TA.AperFunction,SMDPad,CuDef*%
%ADD26RoundRect,0.243750X-0.456250X0.243750X-0.456250X-0.243750X0.456250X-0.243750X0.456250X0.243750X0*%
%TD*%
%TA.AperFunction,WasherPad*%
%ADD27C,3.400000*%
%TD*%
%TA.AperFunction,WasherPad*%
%ADD28O,2.000000X2.800000*%
%TD*%
%TA.AperFunction,ViaPad*%
%ADD29C,0.800000*%
%TD*%
%TA.AperFunction,ViaPad*%
%ADD30C,0.500000*%
%TD*%
%TA.AperFunction,Conductor*%
%ADD31C,0.250000*%
%TD*%
G04 APERTURE END LIST*
D10*
%TO.P,U5,21,GND*%
%TO.N,GNDD*%
X111425000Y-140375000D03*
X112475000Y-141425000D03*
D11*
X111950000Y-140900000D03*
D10*
X112475000Y-140375000D03*
X111425000Y-141425000D03*
%TD*%
D12*
%TO.P,R42,*%
%TO.N,*%
X130750000Y-122000000D03*
X121250000Y-122000000D03*
D13*
%TO.P,R42,1,1*%
%TO.N,Net-(J19-Pin_2)*%
X123500000Y-128500000D03*
%TO.P,R42,2,2*%
%TO.N,Net-(C39-Pad2)*%
X126000000Y-128500000D03*
%TO.P,R42,3,3*%
%TO.N,GND*%
X128500000Y-128500000D03*
%TD*%
D14*
%TO.P,J20,1,Pin_1*%
%TO.N,Net-(J20-Pin_1)*%
X65300000Y-121200000D03*
%TO.P,J20,2,Pin_2*%
%TO.N,Net-(J20-Pin_2)*%
X65300000Y-125600000D03*
%TD*%
D13*
%TO.P,S2,1,1*%
%TO.N,GNDD*%
X214250000Y-73750000D03*
%TO.P,S2,2,2*%
X214250000Y-80250000D03*
%TO.P,S2,3,3*%
%TO.N,Net-(U6-P01)*%
X209750000Y-73750000D03*
%TO.P,S2,4,4*%
X209750000Y-80250000D03*
%TD*%
%TO.P,S4,1,1*%
%TO.N,GNDD*%
X214250000Y-97750000D03*
%TO.P,S4,2,2*%
X214250000Y-104250000D03*
%TO.P,S4,3,3*%
%TO.N,Net-(U6-P03)*%
X209750000Y-97750000D03*
%TO.P,S4,4,4*%
X209750000Y-104250000D03*
%TD*%
%TO.P,S3,1,1*%
%TO.N,GNDD*%
X214250000Y-85750000D03*
%TO.P,S3,2,2*%
X214250000Y-92250000D03*
%TO.P,S3,3,3*%
%TO.N,Net-(U6-P02)*%
X209750000Y-85750000D03*
%TO.P,S3,4,4*%
X209750000Y-92250000D03*
%TD*%
%TO.P,S1,1,1*%
%TO.N,GNDD*%
X214250000Y-61750000D03*
%TO.P,S1,2,2*%
X214250000Y-68250000D03*
%TO.P,S1,3,3*%
%TO.N,Net-(U6-P00)*%
X209750000Y-61750000D03*
%TO.P,S1,4,4*%
X209750000Y-68250000D03*
%TD*%
D15*
%TO.P,R26,*%
%TO.N,*%
X130700000Y-132000000D03*
X141300000Y-132000000D03*
D13*
%TO.P,R26,1*%
%TO.N,Net-(C26-Pad2)*%
X138500000Y-139000000D03*
%TO.P,R26,2*%
%TO.N,Net-(C28-Pad1)*%
X136000000Y-139000000D03*
%TO.P,R26,3*%
%TO.N,GND*%
X133500000Y-139000000D03*
%TD*%
D16*
%TO.P,J2,G*%
%TO.N,GNDD*%
X97000000Y-122000000D03*
%TO.P,J2,S*%
%TO.N,PDL_B*%
X94800000Y-126100000D03*
%TO.P,J2,SN*%
%TO.N,unconnected-(J2-PadSN)*%
X99200000Y-124500000D03*
%TO.P,J2,T*%
%TO.N,PDL_A*%
X98700000Y-117000000D03*
%TO.P,J2,TN*%
%TO.N,unconnected-(J2-PadTN)*%
X95300000Y-119500000D03*
%TD*%
%TO.P,J21,G*%
%TO.N,GND*%
X110000000Y-122000000D03*
%TO.P,J21,S*%
%TO.N,Net-(C40-Pad2)*%
X107800000Y-126100000D03*
%TO.P,J21,SN*%
%TO.N,Net-(U9-HPSENSE)*%
X112200000Y-124500000D03*
%TO.P,J21,T*%
%TO.N,Net-(C40-Pad2)*%
X111700000Y-117000000D03*
%TO.P,J21,TN*%
%TO.N,unconnected-(J21-PadTN)*%
X108300000Y-119500000D03*
%TD*%
%TO.P,J8,1,In*%
%TO.N,CLK0*%
X55000000Y-136000000D03*
D17*
%TO.P,J8,2,Ext*%
%TO.N,GNDD*%
X52450000Y-133450000D03*
X52450000Y-138550000D03*
X57550000Y-133450000D03*
X57550000Y-138550000D03*
%TD*%
D16*
%TO.P,J13,1,In*%
%TO.N,CLK4*%
X81000000Y-136000000D03*
D17*
%TO.P,J13,2,Ext*%
%TO.N,GNDD*%
X78450000Y-133450000D03*
X78450000Y-138550000D03*
X83550000Y-133450000D03*
X83550000Y-138550000D03*
%TD*%
D16*
%TO.P,J11,1,In*%
%TO.N,CLK2*%
X68000000Y-136000000D03*
D17*
%TO.P,J11,2,Ext*%
%TO.N,GNDD*%
X65450000Y-133450000D03*
X65450000Y-138550000D03*
X70550000Y-133450000D03*
X70550000Y-138550000D03*
%TD*%
D16*
%TO.P,J14,1,In*%
%TO.N,Net-(J14-In)*%
X94000000Y-136000000D03*
D17*
%TO.P,J14,2,Ext*%
%TO.N,GNDD*%
X91450000Y-133450000D03*
X91450000Y-138550000D03*
X96550000Y-133450000D03*
X96550000Y-138550000D03*
%TD*%
D18*
%TO.P,J10,1,Pin_1*%
%TO.N,Net-(J10-Pin_1)*%
X154600000Y-147000000D03*
D19*
%TO.P,J10,2,Pin_2*%
%TO.N,GNDD*%
X157140000Y-147000000D03*
%TO.P,J10,3,Pin_3*%
%TO.N,Net-(J10-Pin_3)*%
X159680000Y-147000000D03*
%TO.P,J10,4,Pin_4*%
%TO.N,GNDD*%
X162220000Y-147000000D03*
%TO.P,J10,5,Pin_5*%
%TO.N,Net-(J10-Pin_5)*%
X164760000Y-147000000D03*
%TO.P,J10,6,Pin_6*%
%TO.N,GNDD*%
X167300000Y-147000000D03*
%TO.P,J10,7,Pin_7*%
%TO.N,Net-(J10-Pin_7)*%
X169840000Y-147000000D03*
%TO.P,J10,8,Pin_8*%
%TO.N,GNDD*%
X172380000Y-147000000D03*
%TD*%
D18*
%TO.P,J17,1,Pin_1*%
%TO.N,MIC_SAMPLE*%
X150425000Y-137900000D03*
D19*
%TO.P,J17,2,Pin_2*%
%TO.N,GND*%
X152965000Y-137900000D03*
%TD*%
D18*
%TO.P,J15,1,Pin_1*%
%TO.N,Net-(J15-Pin_1)*%
X137960000Y-109800000D03*
D19*
%TO.P,J15,2,Pin_2*%
%TO.N,Net-(J15-Pin_2)*%
X140500000Y-109800000D03*
%TD*%
D18*
%TO.P,J1,1,Pin_1*%
%TO.N,+3.3V*%
X182000000Y-147000000D03*
D19*
%TO.P,J1,2,Pin_2*%
%TO.N,GND*%
X184540000Y-147000000D03*
%TD*%
D20*
%TO.P,H3,1,1*%
%TO.N,GNDD*%
X52600000Y-145000000D03*
X53302944Y-143302944D03*
X53302944Y-146697056D03*
X55000000Y-142600000D03*
D21*
X55000000Y-145000000D03*
D20*
X55000000Y-147400000D03*
X56697056Y-143302944D03*
X56697056Y-146697056D03*
X57400000Y-145000000D03*
%TD*%
D18*
%TO.P,J9,1,Pin_1*%
%TO.N,CLK1*%
X78520000Y-147000000D03*
D19*
%TO.P,J9,2,Pin_2*%
%TO.N,GNDD*%
X81060000Y-147000000D03*
%TO.P,J9,3,Pin_3*%
%TO.N,CLK3*%
X83600000Y-147000000D03*
%TO.P,J9,4,Pin_4*%
%TO.N,GNDD*%
X86140000Y-147000000D03*
%TD*%
%TO.P,U3,1,GPIO0*%
%TO.N,Net-(J5-Pin_1)*%
X218100000Y-117820000D03*
%TO.P,U3,2,GPIO1*%
%TO.N,Net-(J5-Pin_2)*%
X215560000Y-117820000D03*
D18*
%TO.P,U3,3,GND*%
%TO.N,GNDD*%
X213020000Y-117820000D03*
D19*
%TO.P,U3,4,GPIO2*%
%TO.N,PTT*%
X210480000Y-117820000D03*
%TO.P,U3,5,GPIO3*%
%TO.N,GPIO_INT*%
X207940000Y-117820000D03*
%TO.P,U3,6,GPIO4*%
%TO.N,SDA*%
X205400000Y-117820000D03*
%TO.P,U3,7,GPIO5*%
%TO.N,SCL*%
X202860000Y-117820000D03*
D18*
%TO.P,U3,8,GND*%
%TO.N,GNDD*%
X200320000Y-117820000D03*
D19*
%TO.P,U3,9,GPIO6*%
%TO.N,ENC1_A*%
X197780000Y-117820000D03*
%TO.P,U3,10,GPIO7*%
%TO.N,ENC1_B*%
X195240000Y-117820000D03*
%TO.P,U3,11,GPIO8*%
%TO.N,ENC2_A*%
X192700000Y-117820000D03*
%TO.P,U3,12,GPIO9*%
%TO.N,ENC2_B*%
X190160000Y-117820000D03*
D18*
%TO.P,U3,13,GND*%
%TO.N,GNDD*%
X187620000Y-117820000D03*
D19*
%TO.P,U3,14,GPIO10*%
%TO.N,TX*%
X185080000Y-117820000D03*
%TO.P,U3,15,GPIO11*%
%TO.N,MUTE*%
X182540000Y-117820000D03*
%TO.P,U3,16,GPIO12*%
%TO.N,LCD_RESET*%
X180000000Y-117820000D03*
%TO.P,U3,17,GPIO13*%
%TO.N,LCD_DC*%
X177460000Y-117820000D03*
D18*
%TO.P,U3,18,GND*%
%TO.N,GNDD*%
X174920000Y-117820000D03*
D19*
%TO.P,U3,19,GPIO14*%
%TO.N,PDL_A*%
X172380000Y-117820000D03*
%TO.P,U3,20,GPIO15*%
%TO.N,PDL_B*%
X169840000Y-117820000D03*
%TO.P,U3,21,GPIO16*%
%TO.N,SPI_RX*%
X169840000Y-135600000D03*
%TO.P,U3,22,GPIO17*%
%TO.N,LCD_CS*%
X172380000Y-135600000D03*
D18*
%TO.P,U3,23,GND*%
%TO.N,GNDD*%
X174920000Y-135600000D03*
D19*
%TO.P,U3,24,GPIO18*%
%TO.N,SPI_SCK*%
X177460000Y-135600000D03*
%TO.P,U3,25,GPIO19*%
%TO.N,SPI_TX*%
X180000000Y-135600000D03*
%TO.P,U3,26,GPIO20*%
%TO.N,TS_CS*%
X182540000Y-135600000D03*
%TO.P,U3,27,GPIO21*%
%TO.N,WS2812*%
X185080000Y-135600000D03*
D18*
%TO.P,U3,28,GND*%
%TO.N,GNDD*%
X187620000Y-135600000D03*
D19*
%TO.P,U3,29,GPIO22*%
%TO.N,MCU_DAC*%
X190160000Y-135600000D03*
%TO.P,U3,30,RUN*%
%TO.N,unconnected-(U3-RUN-Pad30)*%
X192700000Y-135600000D03*
%TO.P,U3,31,GPIO26_ADC0*%
%TO.N,Q_SAMPLE*%
X195240000Y-135600000D03*
%TO.P,U3,32,GPIO27_ADC1*%
%TO.N,I_SAMPLE*%
X197780000Y-135600000D03*
D18*
%TO.P,U3,33,AGND*%
%TO.N,GNDD*%
X200320000Y-135600000D03*
D19*
%TO.P,U3,34,GPIO28_ADC2*%
%TO.N,MIC_SAMPLE*%
X202860000Y-135600000D03*
%TO.P,U3,35,ADC_VREF*%
%TO.N,ADC_VREF*%
X205400000Y-135600000D03*
%TO.P,U3,36,3V3*%
%TO.N,unconnected-(U3-3V3-Pad36)*%
X207940000Y-135600000D03*
%TO.P,U3,37,3V3_EN*%
%TO.N,unconnected-(U3-3V3_EN-Pad37)*%
X210480000Y-135600000D03*
D18*
%TO.P,U3,38,GND*%
%TO.N,GNDD*%
X213020000Y-135600000D03*
D19*
%TO.P,U3,39,VSYS*%
%TO.N,Net-(D1-K)*%
X215560000Y-135600000D03*
%TO.P,U3,40,VBUS*%
%TO.N,Net-(J4-Pin_1)*%
X218100000Y-135600000D03*
%TO.P,U3,41,SWCLK*%
%TO.N,unconnected-(U3-SWCLK-Pad41)*%
X170070000Y-124170000D03*
D18*
%TO.P,U3,42,GND*%
%TO.N,GNDD*%
X170070000Y-126710000D03*
D19*
%TO.P,U3,43,SWDIO*%
%TO.N,unconnected-(U3-SWDIO-Pad43)*%
X170070000Y-129250000D03*
%TD*%
D18*
%TO.P,J3,1,Pin_1*%
%TO.N,+5V*%
X192000000Y-147000000D03*
D19*
%TO.P,J3,2,Pin_2*%
%TO.N,GND*%
X194540000Y-147000000D03*
%TD*%
D18*
%TO.P,J4,1,Pin_1*%
%TO.N,Net-(J4-Pin_1)*%
X205000000Y-147000000D03*
D19*
%TO.P,J4,2,Pin_2*%
%TO.N,+5V*%
X207540000Y-147000000D03*
%TD*%
D18*
%TO.P,J19,1,Pin_1*%
%TO.N,I_SAMPLE*%
X123400000Y-86300000D03*
D19*
%TO.P,J19,2,Pin_2*%
%TO.N,Net-(J19-Pin_2)*%
X125940000Y-86300000D03*
%TD*%
D20*
%TO.P,H4,1,1*%
%TO.N,GNDD*%
X212600000Y-145000000D03*
X213302944Y-143302944D03*
X213302944Y-146697056D03*
X215000000Y-142600000D03*
D21*
X215000000Y-145000000D03*
D20*
X215000000Y-147400000D03*
X216697056Y-143302944D03*
X216697056Y-146697056D03*
X217400000Y-145000000D03*
%TD*%
D18*
%TO.P,J22,1,Pin_1*%
%TO.N,Net-(J22-Pin_1)*%
X152460000Y-102700000D03*
D19*
%TO.P,J22,2,Pin_2*%
%TO.N,Net-(J22-Pin_2)*%
X155000000Y-102700000D03*
%TO.P,J22,3,Pin_3*%
%TO.N,GND*%
X157540000Y-102700000D03*
%TD*%
D20*
%TO.P,H1,1,1*%
%TO.N,GNDD*%
X52600000Y-55000000D03*
X53302944Y-53302944D03*
X53302944Y-56697056D03*
X55000000Y-52600000D03*
D21*
X55000000Y-55000000D03*
D20*
X55000000Y-57400000D03*
X56697056Y-53302944D03*
X56697056Y-56697056D03*
X57400000Y-55000000D03*
%TD*%
D18*
%TO.P,J18,1,Pin_1*%
%TO.N,Net-(J18-Pin_1)*%
X84300000Y-104200000D03*
D19*
%TO.P,J18,2,Pin_2*%
%TO.N,GND*%
X86840000Y-104200000D03*
%TD*%
D18*
%TO.P,J12,1,Pin_1*%
%TO.N,MUTE*%
X128000000Y-147000000D03*
D19*
%TO.P,J12,2,Pin_2*%
%TO.N,GNDD*%
X130540000Y-147000000D03*
%TO.P,J12,3,Pin_3*%
%TO.N,MUTE*%
X133080000Y-147000000D03*
%TO.P,J12,4,Pin_4*%
%TO.N,GNDD*%
X135620000Y-147000000D03*
%TO.P,J12,5,Pin_5*%
%TO.N,MUTE*%
X138160000Y-147000000D03*
%TO.P,J12,6,Pin_6*%
%TO.N,GNDD*%
X140700000Y-147000000D03*
%TO.P,J12,7,Pin_7*%
%TO.N,MUTE*%
X143240000Y-147000000D03*
%TO.P,J12,8,Pin_8*%
%TO.N,GNDD*%
X145780000Y-147000000D03*
%TD*%
D18*
%TO.P,J6,1,Pin_1*%
%TO.N,TX*%
X95000000Y-147000000D03*
D19*
%TO.P,J6,2,Pin_2*%
%TO.N,GNDD*%
X97540000Y-147000000D03*
%TO.P,J6,3,Pin_3*%
%TO.N,TX*%
X100080000Y-147000000D03*
%TO.P,J6,4,Pin_4*%
%TO.N,GNDD*%
X102620000Y-147000000D03*
%TO.P,J6,5,Pin_5*%
%TO.N,TX*%
X105160000Y-147000000D03*
%TO.P,J6,6,Pin_6*%
%TO.N,GNDD*%
X107700000Y-147000000D03*
%TO.P,J6,7,Pin_7*%
%TO.N,TX*%
X110240000Y-147000000D03*
%TO.P,J6,8,Pin_8*%
%TO.N,GNDD*%
X112780000Y-147000000D03*
%TO.P,J6,9,Pin_9*%
%TO.N,TX*%
X115320000Y-147000000D03*
%TO.P,J6,10,Pin_10*%
%TO.N,GNDD*%
X117860000Y-147000000D03*
%TD*%
D20*
%TO.P,H2,1,1*%
%TO.N,GNDD*%
X212600000Y-55000000D03*
X213302944Y-53302944D03*
X213302944Y-56697056D03*
X215000000Y-52600000D03*
D21*
X215000000Y-55000000D03*
D20*
X215000000Y-57400000D03*
X216697056Y-53302944D03*
X216697056Y-56697056D03*
X217400000Y-55000000D03*
%TD*%
D18*
%TO.P,J5,1,Pin_1*%
%TO.N,Net-(J5-Pin_1)*%
X217225000Y-109900000D03*
D19*
%TO.P,J5,2,Pin_2*%
%TO.N,Net-(J5-Pin_2)*%
X214685000Y-109900000D03*
%TO.P,J5,3,Pin_3*%
%TO.N,GNDD*%
X212145000Y-109900000D03*
%TD*%
D18*
%TO.P,J7,1,Pin_1*%
%TO.N,P06*%
X154160000Y-91900000D03*
D19*
%TO.P,J7,2,Pin_2*%
%TO.N,GNDD*%
X156700000Y-91900000D03*
%TO.P,J7,3,Pin_3*%
%TO.N,P07*%
X159240000Y-91900000D03*
%TO.P,J7,4,Pin_4*%
%TO.N,GNDD*%
X161780000Y-91900000D03*
%TO.P,J7,5,Pin_5*%
%TO.N,P10*%
X164320000Y-91900000D03*
%TO.P,J7,6,Pin_6*%
%TO.N,GNDD*%
X166860000Y-91900000D03*
%TO.P,J7,7,Pin_7*%
%TO.N,P11*%
X169400000Y-91900000D03*
%TO.P,J7,8,Pin_8*%
%TO.N,GNDD*%
X171940000Y-91900000D03*
%TO.P,J7,9,Pin_9*%
%TO.N,P12*%
X174480000Y-91900000D03*
%TO.P,J7,10,Pin_10*%
%TO.N,GNDD*%
X177020000Y-91900000D03*
%TO.P,J7,11,Pin_11*%
%TO.N,P13*%
X179560000Y-91900000D03*
%TO.P,J7,12,Pin_12*%
%TO.N,GNDD*%
X182100000Y-91900000D03*
%TD*%
D22*
%TO.P,D2,1,VDD*%
%TO.N,+5V*%
X165700000Y-117000000D03*
%TO.P,D2,2,DOUT*%
%TO.N,Net-(D2-DOUT)*%
X165700000Y-120300000D03*
%TO.P,D2,3,VSS*%
%TO.N,GNDD*%
X160800000Y-120300000D03*
%TO.P,D2,4,DIN*%
%TO.N,Net-(D2-DIN)*%
X160800000Y-117000000D03*
%TD*%
%TO.P,D3,1,VDD*%
%TO.N,+5V*%
X74450000Y-53350000D03*
%TO.P,D3,2,DOUT*%
%TO.N,unconnected-(D3-DOUT-Pad2)*%
X74450000Y-56650000D03*
%TO.P,D3,3,VSS*%
%TO.N,GNDD*%
X69550000Y-56650000D03*
%TO.P,D3,4,DIN*%
%TO.N,Net-(D2-DOUT)*%
X69550000Y-53350000D03*
%TD*%
D23*
%TO.P,J16,*%
%TO.N,*%
X156270000Y-126350000D03*
X144840000Y-126350000D03*
D24*
%TO.P,J16,1*%
%TO.N,unconnected-(J16-Pad1)*%
X155000000Y-120000000D03*
D25*
%TO.P,J16,2*%
%TO.N,GNDD*%
X153730000Y-117460000D03*
%TO.P,J16,3*%
%TO.N,PTT*%
X152460000Y-120000000D03*
%TO.P,J16,4*%
%TO.N,Net-(J15-Pin_2)*%
X151190000Y-117460000D03*
%TO.P,J16,5*%
%TO.N,GND*%
X149920000Y-120000000D03*
%TO.P,J16,6*%
%TO.N,Net-(J16-Pad6)*%
X148650000Y-117460000D03*
%TO.P,J16,7*%
%TO.N,unconnected-(J16-Pad7)*%
X147380000Y-120000000D03*
%TO.P,J16,8*%
%TO.N,unconnected-(J16-Pad8)*%
X146110000Y-117460000D03*
%TD*%
D26*
%TO.P,D5,1,K*%
%TO.N,Net-(D5-K)*%
X203000000Y-76062500D03*
%TO.P,D5,2,A*%
%TO.N,+3.3V*%
X203000000Y-77937500D03*
%TD*%
%TO.P,D4,1,K*%
%TO.N,Net-(D4-K)*%
X203000000Y-64062500D03*
%TO.P,D4,2,A*%
%TO.N,+3.3V*%
X203000000Y-65937500D03*
%TD*%
%TO.P,D7,1,K*%
%TO.N,Net-(D7-K)*%
X203000000Y-100062500D03*
%TO.P,D7,2,A*%
%TO.N,+3.3V*%
X203000000Y-101937500D03*
%TD*%
%TO.P,D6,1,K*%
%TO.N,Net-(D6-K)*%
X203000000Y-88062500D03*
%TO.P,D6,2,A*%
%TO.N,+3.3V*%
X203000000Y-89937500D03*
%TD*%
D27*
%TO.P,U1,*%
%TO.N,*%
X95400000Y-55550000D03*
X95400000Y-110450000D03*
X197400000Y-55550000D03*
X197400000Y-110450000D03*
D18*
%TO.P,U1,1,Pin_1*%
%TO.N,+5V*%
X198400000Y-66490000D03*
D19*
%TO.P,U1,2,Pin_2*%
%TO.N,GNDD*%
X198400000Y-69030000D03*
%TO.P,U1,3,Pin_3*%
%TO.N,LCD_CS*%
X198400000Y-71570000D03*
%TO.P,U1,4,Pin_4*%
%TO.N,LCD_RESET*%
X198400000Y-74110000D03*
%TO.P,U1,5,Pin_5*%
%TO.N,LCD_DC*%
X198400000Y-76650000D03*
%TO.P,U1,6,Pin_6*%
%TO.N,SPI_TX*%
X198400000Y-79190000D03*
%TO.P,U1,7,Pin_7*%
%TO.N,SPI_SCK*%
X198400000Y-81730000D03*
%TO.P,U1,8,Pin_8*%
%TO.N,+3.3V*%
X198400000Y-84270000D03*
%TO.P,U1,9,Pin_9*%
%TO.N,unconnected-(U1-Pin_9-Pad9)*%
X198400000Y-86810000D03*
%TO.P,U1,10,Pin_10*%
%TO.N,SPI_SCK*%
X198400000Y-89350000D03*
%TO.P,U1,11,Pin_11*%
%TO.N,TS_CS*%
X198400000Y-91890000D03*
%TO.P,U1,12,Pin_12*%
%TO.N,SPI_TX*%
X198400000Y-94430000D03*
%TO.P,U1,13,Pin_13*%
%TO.N,SPI_RX*%
X198400000Y-96970000D03*
%TO.P,U1,14,Pin_14*%
%TO.N,unconnected-(U1-Pin_14-Pad14)*%
X198400000Y-99510000D03*
D18*
%TO.P,U1,15*%
%TO.N,N/C*%
X94400000Y-79190000D03*
D19*
%TO.P,U1,16*%
X94400000Y-81730000D03*
%TO.P,U1,17*%
X94400000Y-84270000D03*
%TO.P,U1,18*%
X94400000Y-86810000D03*
%TD*%
D28*
%TO.P,SW1,*%
%TO.N,*%
X77700000Y-101000000D03*
X66300000Y-101000000D03*
D13*
%TO.P,SW1,A,A*%
%TO.N,ENC1_A*%
X74500000Y-108500000D03*
%TO.P,SW1,B,B*%
%TO.N,ENC1_B*%
X69500000Y-108500000D03*
%TO.P,SW1,C,C*%
%TO.N,GNDD*%
X72000000Y-108500000D03*
%TO.P,SW1,S1,S1*%
%TO.N,ENC1_SW*%
X74500000Y-94000000D03*
%TO.P,SW1,S2,S2*%
%TO.N,GNDD*%
X69500000Y-94000000D03*
%TD*%
D28*
%TO.P,SW2,*%
%TO.N,*%
X77700000Y-68000000D03*
X66300000Y-68000000D03*
D13*
%TO.P,SW2,A,A*%
%TO.N,ENC2_A*%
X74500000Y-75500000D03*
%TO.P,SW2,B,B*%
%TO.N,ENC2_B*%
X69500000Y-75500000D03*
%TO.P,SW2,C,C*%
%TO.N,GNDD*%
X72000000Y-75500000D03*
%TO.P,SW2,S1,S1*%
%TO.N,ENC2_SW*%
X74500000Y-61000000D03*
%TO.P,SW2,S2,S2*%
%TO.N,GNDD*%
X69500000Y-61000000D03*
%TD*%
D29*
%TO.N,GNDD*%
X180100000Y-100600000D03*
X190000000Y-103500000D03*
X78900000Y-56800000D03*
X187200000Y-107100000D03*
X89100000Y-127700000D03*
X89000000Y-118700000D03*
X207000000Y-79400000D03*
X207000000Y-103500000D03*
X207000000Y-91500000D03*
X207000000Y-67500000D03*
X66200000Y-113000000D03*
X104200000Y-135600000D03*
X170200000Y-143000000D03*
X103800000Y-143600000D03*
X66200000Y-80000000D03*
X159800000Y-132100000D03*
X159800000Y-122100000D03*
X165500000Y-124100000D03*
X165600000Y-129200000D03*
X156400000Y-113100000D03*
X162400000Y-107100000D03*
X125400000Y-142100000D03*
X115500000Y-139400000D03*
X67200000Y-56600000D03*
X111900000Y-134700000D03*
X161300000Y-141300000D03*
X110900000Y-143700000D03*
%TO.N,+3.3V*%
X203700000Y-103300000D03*
X203500000Y-91600000D03*
X203600000Y-79400000D03*
X204100000Y-67400000D03*
X115600000Y-130200000D03*
X121500000Y-131700000D03*
X112000000Y-131300000D03*
X100100000Y-142100000D03*
%TO.N,Net-(J19-Pin_2)*%
X125900000Y-114800000D03*
%TO.N,Net-(J20-Pin_1)*%
X81100000Y-118700000D03*
%TO.N,Net-(J20-Pin_2)*%
X83300000Y-117900000D03*
%TO.N,GNDD*%
X137600000Y-142000000D03*
X141600000Y-142000000D03*
X133500000Y-142000000D03*
X149700000Y-142000000D03*
%TO.N,ENC1_SW*%
X180396689Y-106475390D03*
%TO.N,ENC2_A*%
X107800000Y-54300000D03*
X113100000Y-54300000D03*
%TO.N,ENC2_SW*%
X180424694Y-107475000D03*
X93800000Y-61000000D03*
%TO.N,PDL_B*%
X147200000Y-86100000D03*
%TO.N,PDL_A*%
X148848008Y-86851992D03*
%TO.N,ENC1_B*%
X64900000Y-91900000D03*
%TO.N,ENC2_B*%
X103300000Y-55400000D03*
X114000000Y-55400000D03*
%TO.N,+5V*%
X105800000Y-109000000D03*
X130400000Y-112000000D03*
X127400000Y-117500000D03*
X77300000Y-53300000D03*
X108000000Y-98600000D03*
X167525000Y-136050000D03*
X125600000Y-134900000D03*
X165650000Y-112200000D03*
X125600000Y-130900000D03*
X191900000Y-72200000D03*
%TO.N,+3.3V*%
X186475000Y-101289211D03*
X190028752Y-101675000D03*
%TO.N,Net-(U6-P00)*%
X182600000Y-102649500D03*
%TO.N,Net-(U6-P01)*%
X181700000Y-103400000D03*
%TO.N,Net-(U6-P02)*%
X181700000Y-104600000D03*
%TO.N,Net-(U6-P03)*%
X180700000Y-105300000D03*
%TO.N,Net-(C25-Pad1)*%
X142700000Y-92100000D03*
X147700000Y-92100000D03*
%TO.N,PTT*%
X182400000Y-109000000D03*
X155900000Y-109600000D03*
X206300000Y-112500000D03*
X178000000Y-112300000D03*
%TO.N,MIC_SAMPLE*%
X159925000Y-125802450D03*
X144100000Y-100200000D03*
X154400000Y-115300000D03*
%TO.N,Net-(C31-Pad1)*%
X130635000Y-100200000D03*
X130635000Y-94500000D03*
%TO.N,MCU_DAC*%
X115800000Y-131700000D03*
X100300000Y-111600000D03*
X116500000Y-143700000D03*
X115600000Y-138000000D03*
X178900000Y-143700000D03*
X120700000Y-144400000D03*
%TO.N,I_SAMPLE*%
X160000000Y-112900000D03*
X159724500Y-130900000D03*
X140200000Y-105600000D03*
X126900000Y-92300000D03*
X123400000Y-91300000D03*
%TO.N,Net-(C39-Pad2)*%
X97700000Y-101400000D03*
%TO.N,Net-(D2-DOUT)*%
X166400000Y-118800000D03*
X151000000Y-95000000D03*
%TO.N,Net-(D2-DIN)*%
X174200000Y-140500004D03*
%TO.N,Net-(D4-K)*%
X201306049Y-63193951D03*
%TO.N,Net-(D5-K)*%
X203000000Y-73000000D03*
%TO.N,Net-(D6-K)*%
X202249017Y-85573616D03*
%TO.N,Net-(D7-K)*%
X203000000Y-97200000D03*
%TO.N,TX*%
X185187653Y-121575000D03*
%TO.N,P07*%
X159348008Y-95951992D03*
D30*
%TO.N,CLK0*%
X115262653Y-140962653D03*
%TO.N,CLK1*%
X114426255Y-141555610D03*
%TO.N,CLK3*%
X111900000Y-143700000D03*
D29*
X90100000Y-141100000D03*
D30*
%TO.N,CLK2*%
X112572900Y-143227100D03*
D29*
%TO.N,MUTE*%
X173900000Y-112400000D03*
X147700000Y-77800000D03*
X104400000Y-70200000D03*
X181900000Y-114100000D03*
X123600000Y-71700000D03*
D30*
%TO.N,CLK4*%
X110500000Y-138000000D03*
%TO.N,Net-(J14-In)*%
X110013599Y-142875000D03*
D29*
%TO.N,Net-(J16-Pad6)*%
X134900000Y-105600000D03*
%TO.N,ADC_VREF*%
X159000000Y-136300000D03*
X159700000Y-134100000D03*
%TO.N,GPIO_INT*%
X192200000Y-99825000D03*
X186675000Y-99100000D03*
X190325000Y-99220372D03*
X200750000Y-105250000D03*
X198300000Y-102900000D03*
D30*
%TO.N,Net-(U5-VC{slash}INTR)*%
X108800000Y-139700000D03*
D29*
X104600000Y-140400000D03*
%TO.N,SCL*%
X166000000Y-121800000D03*
X166000000Y-135500000D03*
X164300000Y-138000000D03*
X164286269Y-139625000D03*
X155500000Y-142100000D03*
X130000000Y-136800000D03*
%TO.N,SDA*%
X129900000Y-140300000D03*
X156500000Y-141300000D03*
X166800000Y-122525000D03*
X166800000Y-134800000D03*
%TO.N,Net-(U9-HPSENSE)*%
X104000000Y-112300000D03*
%TO.N,LCD_RESET*%
X196424500Y-88000000D03*
X196424500Y-91165500D03*
%TO.N,LCD_DC*%
X195674500Y-90300000D03*
%TO.N,SPI_SCK*%
X189400000Y-109000000D03*
%TO.N,TS_CS*%
X189500000Y-91900000D03*
X192200000Y-91900000D03*
%TO.N,SDA_3V3*%
X119200000Y-135800000D03*
D30*
X109191202Y-142306081D03*
D29*
X150200000Y-76900000D03*
%TO.N,SCL_3V3*%
X150297469Y-78782286D03*
X120500000Y-130800000D03*
D30*
X109197924Y-141274390D03*
%TD*%
D31*
%TO.N,GND*%
X194540000Y-147000000D02*
X193365000Y-145825000D01*
X193365000Y-145825000D02*
X185715000Y-145825000D01*
X185715000Y-145825000D02*
X184540000Y-147000000D01*
%TO.N,ENC2_SW*%
X164186701Y-107475000D02*
X180424694Y-107475000D01*
%TO.N,SDA_3V3*%
X157800000Y-113100000D02*
X149375000Y-104675000D01*
%TO.N,SCL_3V3*%
X153925000Y-122588604D02*
X153925000Y-118925000D01*
%TO.N,ENC2_SW*%
X149825000Y-95486701D02*
X150513299Y-96175000D01*
%TO.N,SDA_3V3*%
X149375000Y-88057412D02*
X150073008Y-87359404D01*
X149375000Y-104675000D02*
X149375000Y-88057412D01*
%TO.N,SCL_3V3*%
X148925000Y-86076992D02*
X148925000Y-80154755D01*
%TO.N,SDA_3V3*%
X141350000Y-135800000D02*
X157800000Y-119350000D01*
%TO.N,ENC2_SW*%
X150513299Y-96175000D02*
X152886701Y-96175000D01*
%TO.N,PDL_A*%
X96300000Y-98600000D02*
X99600000Y-98600000D01*
%TO.N,SDA_3V3*%
X150073008Y-87359404D02*
X150073008Y-86344580D01*
%TO.N,PDL_A*%
X98700000Y-109700000D02*
X96300000Y-107300000D01*
%TO.N,ENC2_SW*%
X151472469Y-79268987D02*
X149825000Y-80916456D01*
%TO.N,PDL_A*%
X99600000Y-98600000D02*
X113500000Y-84700000D01*
%TO.N,SCL_3V3*%
X155200000Y-111136396D02*
X148925000Y-104861396D01*
%TO.N,PDL_A*%
X129100000Y-84700000D02*
X132100000Y-87700000D01*
%TO.N,SCL_3V3*%
X155200000Y-117650000D02*
X155200000Y-111136396D01*
X146563604Y-129950000D02*
X153925000Y-122588604D01*
%TO.N,PDL_A*%
X113500000Y-84700000D02*
X129100000Y-84700000D01*
X96300000Y-107300000D02*
X96300000Y-98600000D01*
%TO.N,SCL_3V3*%
X153925000Y-118925000D02*
X155200000Y-117650000D01*
%TO.N,SDA_3V3*%
X150073008Y-86344580D02*
X149375000Y-85646572D01*
X151022469Y-79082591D02*
X151022469Y-77722469D01*
%TO.N,PDL_A*%
X132100000Y-87700000D02*
X148000000Y-87700000D01*
%TO.N,SDA_3V3*%
X149375000Y-85646572D02*
X149375000Y-80730060D01*
X151022469Y-77722469D02*
X150200000Y-76900000D01*
%TO.N,SCL_3V3*%
X148925000Y-87871016D02*
X149623008Y-87173008D01*
X121350000Y-129950000D02*
X146563604Y-129950000D01*
%TO.N,ENC2_SW*%
X149825000Y-88243808D02*
X149825000Y-95486701D01*
%TO.N,PDL_A*%
X98700000Y-117000000D02*
X98700000Y-109700000D01*
%TO.N,SCL_3V3*%
X149623008Y-86530976D02*
X149169024Y-86076992D01*
%TO.N,ENC2_SW*%
X149825000Y-85460176D02*
X150523008Y-86158184D01*
X151472469Y-59272469D02*
X151472469Y-79268987D01*
%TO.N,SDA_3V3*%
X157800000Y-119350000D02*
X157800000Y-113100000D01*
%TO.N,PDL_A*%
X148000000Y-87700000D02*
X148848008Y-86851992D01*
%TO.N,SCL_3V3*%
X120500000Y-130800000D02*
X121350000Y-129950000D01*
X149169024Y-86076992D02*
X148925000Y-86076992D01*
X149623008Y-87173008D02*
X149623008Y-86530976D01*
X148925000Y-80154755D02*
X150297469Y-78782286D01*
%TO.N,SDA_3V3*%
X149375000Y-80730060D02*
X151022469Y-79082591D01*
%TO.N,ENC2_SW*%
X93800000Y-61000000D02*
X96600000Y-58200000D01*
X152886701Y-96175000D02*
X164186701Y-107475000D01*
X149825000Y-80916456D02*
X149825000Y-85460176D01*
%TO.N,SDA_3V3*%
X119200000Y-135800000D02*
X141350000Y-135800000D01*
%TO.N,ENC2_SW*%
X150523008Y-86158184D02*
X150523008Y-87545800D01*
X150400000Y-58200000D02*
X151472469Y-59272469D01*
X150523008Y-87545800D02*
X149825000Y-88243808D01*
X96600000Y-58200000D02*
X150400000Y-58200000D01*
%TO.N,SCL_3V3*%
X148925000Y-104861396D02*
X148925000Y-87871016D01*
%TO.N,P07*%
X159240000Y-95843984D02*
X159348008Y-95951992D01*
X159240000Y-91900000D02*
X159240000Y-95843984D01*
%TO.N,+5V*%
X127400000Y-117500000D02*
X130400000Y-113900000D01*
X130400000Y-113900000D02*
X130400000Y-112000000D01*
%TO.N,Net-(J14-In)*%
X105935193Y-143068791D02*
X106078984Y-142925000D01*
X106078984Y-142925000D02*
X109963599Y-142925000D01*
X104364807Y-143068791D02*
X105935193Y-143068791D01*
X97296016Y-136000000D02*
X104364807Y-143068791D01*
X94000000Y-136000000D02*
X97296016Y-136000000D01*
X109963599Y-142925000D02*
X110013599Y-142875000D01*
%TO.N,GNDD*%
X160800000Y-120300000D02*
X160800000Y-121100000D01*
X160800000Y-121100000D02*
X159800000Y-122100000D01*
%TO.N,SCL*%
X166375000Y-123878984D02*
X166000000Y-123503984D01*
X166375000Y-129521016D02*
X166375000Y-123878984D01*
X166000000Y-129896016D02*
X166375000Y-129521016D01*
X166000000Y-135500000D02*
X166000000Y-129896016D01*
X166000000Y-123503984D02*
X166000000Y-121800000D01*
%TO.N,SDA*%
X166800000Y-134800000D02*
X166825000Y-134775000D01*
X166825000Y-134775000D02*
X166825000Y-122550000D01*
X166825000Y-122550000D02*
X166800000Y-122525000D01*
%TO.N,GNDD*%
X69550000Y-56650000D02*
X67250000Y-56650000D01*
X67250000Y-56650000D02*
X67200000Y-56600000D01*
%TO.N,CLK3*%
X111900000Y-143796016D02*
X111900000Y-143700000D01*
%TO.N,CLK2*%
X68000000Y-141500000D02*
X71425000Y-144925000D01*
%TO.N,CLK3*%
X90100000Y-141100000D02*
X93475000Y-144475000D01*
%TO.N,CLK2*%
X111488173Y-144925000D02*
X112572900Y-143840273D01*
%TO.N,CLK3*%
X93475000Y-144475000D02*
X111221016Y-144475000D01*
%TO.N,CLK2*%
X112572900Y-143840273D02*
X112572900Y-143227100D01*
%TO.N,CLK3*%
X111221016Y-144475000D02*
X111900000Y-143796016D01*
%TO.N,CLK2*%
X68000000Y-136000000D02*
X68000000Y-141500000D01*
X71425000Y-144925000D02*
X111488173Y-144925000D01*
%TO.N,+3.3V*%
X203000000Y-101937500D02*
X203000000Y-102600000D01*
X203000000Y-102600000D02*
X203700000Y-103300000D01*
X203000000Y-89937500D02*
X203000000Y-91100000D01*
X203000000Y-91100000D02*
X203500000Y-91600000D01*
X203000000Y-77937500D02*
X203000000Y-78800000D01*
X203000000Y-78800000D02*
X203600000Y-79400000D01*
X203000000Y-65937500D02*
X203000000Y-66300000D01*
X203000000Y-66300000D02*
X204100000Y-67400000D01*
%TO.N,CLK1*%
X114426255Y-141555610D02*
X114426255Y-140773745D01*
X114426255Y-140773745D02*
X114962348Y-140237653D01*
X114962348Y-140237653D02*
X115562958Y-140237653D01*
X115562958Y-140237653D02*
X115987653Y-140662348D01*
X112107412Y-145825000D02*
X79695000Y-145825000D01*
X115987653Y-140662348D02*
X115987653Y-141944759D01*
X115987653Y-141944759D02*
X112107412Y-145825000D01*
X79695000Y-145825000D02*
X78520000Y-147000000D01*
%TO.N,CLK0*%
X55000000Y-136000000D02*
X60601902Y-136000000D01*
X69976902Y-145375000D02*
X111921016Y-145375000D01*
X111921016Y-145375000D02*
X115262653Y-142033363D01*
X60601902Y-136000000D02*
X69976902Y-145375000D01*
X115262653Y-142033363D02*
X115262653Y-140962653D01*
%TO.N,Net-(J19-Pin_2)*%
X125940000Y-114760000D02*
X125900000Y-114800000D01*
X125940000Y-86300000D02*
X125940000Y-114760000D01*
%TO.N,Net-(J20-Pin_1)*%
X78600000Y-121200000D02*
X65300000Y-121200000D01*
X81100000Y-118700000D02*
X78600000Y-121200000D01*
%TO.N,Net-(J20-Pin_2)*%
X83300000Y-117900000D02*
X75600000Y-125600000D01*
X75600000Y-125600000D02*
X65300000Y-125600000D01*
%TO.N,ENC1_SW*%
X94700000Y-52200000D02*
X145700000Y-52200000D01*
X166975390Y-106475390D02*
X180396689Y-106475390D01*
X151922469Y-93052226D02*
X150275000Y-94699695D01*
X150275000Y-95300305D02*
X150699695Y-95725000D01*
X150699695Y-95725000D02*
X156225000Y-95725000D01*
X79600000Y-67300000D02*
X94700000Y-52200000D01*
X151922469Y-58422469D02*
X151922469Y-93052226D01*
X156225000Y-95725000D02*
X166975390Y-106475390D01*
X150275000Y-94699695D02*
X150275000Y-95300305D01*
X79600000Y-88900000D02*
X79600000Y-67300000D01*
X145700000Y-52200000D02*
X151922469Y-58422469D01*
X74500000Y-94000000D02*
X79600000Y-88900000D01*
%TO.N,ENC2_A*%
X113100000Y-54300000D02*
X107800000Y-54300000D01*
%TO.N,PDL_B*%
X93375000Y-97925000D02*
X93375000Y-124675000D01*
X147200000Y-86100000D02*
X145450000Y-84350000D01*
X107050000Y-84250000D02*
X93375000Y-97925000D01*
X129286396Y-84250000D02*
X107050000Y-84250000D01*
X145450000Y-84350000D02*
X129386396Y-84350000D01*
X129386396Y-84350000D02*
X129286396Y-84250000D01*
X93375000Y-124675000D02*
X94800000Y-126100000D01*
%TO.N,ENC1_B*%
X64900000Y-103900000D02*
X69500000Y-108500000D01*
X64900000Y-91900000D02*
X64900000Y-103900000D01*
%TO.N,ENC2_B*%
X114000000Y-55400000D02*
X103300000Y-55400000D01*
%TO.N,+5V*%
X165650000Y-112200000D02*
X165650000Y-116950000D01*
X192690000Y-72200000D02*
X198400000Y-66490000D01*
X167525000Y-118525000D02*
X167525000Y-136050000D01*
X108000000Y-106800000D02*
X108000000Y-98600000D01*
X125600000Y-134900000D02*
X125600000Y-130900000D01*
X166000000Y-117000000D02*
X167525000Y-118525000D01*
X165700000Y-117000000D02*
X166000000Y-117000000D01*
X191900000Y-72200000D02*
X192690000Y-72200000D01*
X165650000Y-116950000D02*
X165700000Y-117000000D01*
X77250000Y-53350000D02*
X74450000Y-53350000D01*
X105800000Y-109000000D02*
X108000000Y-106800000D01*
X77300000Y-53300000D02*
X77250000Y-53350000D01*
%TO.N,+3.3V*%
X190028752Y-101675000D02*
X189800000Y-101903752D01*
%TO.N,Net-(U6-P00)*%
X182600000Y-102649500D02*
X182600000Y-94400000D01*
X182600000Y-94400000D02*
X184400000Y-92600000D01*
X188100000Y-60400000D02*
X208400000Y-60400000D01*
X208400000Y-60400000D02*
X209750000Y-61750000D01*
X184400000Y-64100000D02*
X188100000Y-60400000D01*
X184400000Y-92600000D02*
X184400000Y-64100000D01*
%TO.N,Net-(U6-P01)*%
X183400000Y-102874805D02*
X183400000Y-94236396D01*
X184850000Y-92786396D02*
X184850000Y-64286396D01*
X188236396Y-60900000D02*
X204500000Y-60900000D01*
X205300000Y-69300000D02*
X209750000Y-73750000D01*
X184850000Y-64286396D02*
X188236396Y-60900000D01*
X205300000Y-61700000D02*
X205300000Y-69300000D01*
X182874805Y-103400000D02*
X183400000Y-102874805D01*
X204500000Y-60900000D02*
X205300000Y-61700000D01*
X181700000Y-103400000D02*
X182874805Y-103400000D01*
X183400000Y-94236396D02*
X184850000Y-92786396D01*
%TO.N,Net-(U6-P02)*%
X185300000Y-92972792D02*
X185300000Y-64472792D01*
X204850000Y-80850000D02*
X209750000Y-85750000D01*
X204850000Y-62350000D02*
X204850000Y-80850000D01*
X203900000Y-61400000D02*
X204850000Y-62350000D01*
X185300000Y-64472792D02*
X188372792Y-61400000D01*
X184000000Y-94272792D02*
X185300000Y-92972792D01*
X182311201Y-104600000D02*
X184000000Y-102911201D01*
X184000000Y-102911201D02*
X184000000Y-94272792D01*
X188372792Y-61400000D02*
X203900000Y-61400000D01*
X181700000Y-104600000D02*
X182311201Y-104600000D01*
%TO.N,Net-(U6-P03)*%
X201200000Y-65100000D02*
X201200000Y-102900000D01*
X188559188Y-61850000D02*
X197950000Y-61850000D01*
X185750000Y-93159188D02*
X185750000Y-64659188D01*
X184700000Y-102847597D02*
X184700000Y-94209188D01*
X180725000Y-105325000D02*
X182222597Y-105325000D01*
X185750000Y-64659188D02*
X188559188Y-61850000D01*
X197950000Y-61850000D02*
X201200000Y-65100000D01*
X180700000Y-105300000D02*
X180725000Y-105325000D01*
X202550000Y-104250000D02*
X209750000Y-104250000D01*
X184700000Y-94209188D02*
X185750000Y-93159188D01*
X201200000Y-102900000D02*
X202550000Y-104250000D01*
X182222597Y-105325000D02*
X184700000Y-102847597D01*
%TO.N,Net-(C25-Pad1)*%
X142700000Y-92100000D02*
X147700000Y-92100000D01*
%TO.N,PTT*%
X160100000Y-109600000D02*
X161500000Y-108200000D01*
X181600000Y-108200000D02*
X182400000Y-109000000D01*
X161500000Y-108200000D02*
X181600000Y-108200000D01*
X178300000Y-112600000D02*
X206200000Y-112600000D01*
X178000000Y-112300000D02*
X178300000Y-112600000D01*
X206200000Y-112600000D02*
X206300000Y-112500000D01*
X155900000Y-109600000D02*
X160100000Y-109600000D01*
%TO.N,MIC_SAMPLE*%
X161600000Y-130400000D02*
X159925000Y-128725000D01*
X144100000Y-100200000D02*
X144100000Y-105000000D01*
X150425000Y-137900000D02*
X150425000Y-135475000D01*
X150425000Y-135475000D02*
X152600000Y-133300000D01*
X159925000Y-128725000D02*
X159925000Y-125802450D01*
X152600000Y-133300000D02*
X159800000Y-133300000D01*
X144100000Y-105000000D02*
X154400000Y-115300000D01*
X161600000Y-131500000D02*
X161600000Y-130400000D01*
X159800000Y-133300000D02*
X161600000Y-131500000D01*
%TO.N,Net-(C31-Pad1)*%
X130635000Y-100200000D02*
X130635000Y-94500000D01*
%TO.N,MCU_DAC*%
X114300000Y-130200000D02*
X105300000Y-130200000D01*
X104200000Y-129100000D02*
X104200000Y-126900000D01*
X178900000Y-143700000D02*
X178100000Y-144500000D01*
X116600000Y-139000000D02*
X115600000Y-138000000D01*
X116600000Y-143600000D02*
X116600000Y-139000000D01*
X144772792Y-144500000D02*
X144672792Y-144600000D01*
X115800000Y-131700000D02*
X114300000Y-130200000D01*
X104200000Y-115500000D02*
X100300000Y-111600000D01*
X105300000Y-130200000D02*
X104200000Y-129100000D01*
X120900000Y-144600000D02*
X120700000Y-144400000D01*
X178100000Y-144500000D02*
X144772792Y-144500000D01*
X116500000Y-143700000D02*
X116600000Y-143600000D01*
X104200000Y-126900000D02*
X104200000Y-115500000D01*
X144672792Y-144600000D02*
X120900000Y-144600000D01*
%TO.N,I_SAMPLE*%
X159000000Y-130500000D02*
X159400000Y-130900000D01*
X140200000Y-105600000D02*
X136100000Y-101500000D01*
X159000000Y-113900000D02*
X159000000Y-130500000D01*
X127200000Y-101500000D02*
X127200000Y-92600000D01*
X159400000Y-130900000D02*
X159724500Y-130900000D01*
X160000000Y-112900000D02*
X159000000Y-113900000D01*
X127200000Y-92600000D02*
X126900000Y-92300000D01*
X123400000Y-91300000D02*
X123400000Y-86300000D01*
X136100000Y-101500000D02*
X127200000Y-101500000D01*
%TO.N,Net-(C39-Pad2)*%
X124000000Y-115700000D02*
X119800000Y-111500000D01*
X119800000Y-111500000D02*
X102100000Y-111500000D01*
X102100000Y-111500000D02*
X97700000Y-107100000D01*
X126000000Y-128500000D02*
X124000000Y-126500000D01*
X97700000Y-107100000D02*
X97700000Y-101400000D01*
X124000000Y-126500000D02*
X124000000Y-115700000D01*
%TO.N,Net-(C40-Pad2)*%
X106550001Y-124850001D02*
X106550001Y-119022612D01*
X108572613Y-117000000D02*
X111700000Y-117000000D01*
X106550001Y-119022612D02*
X108572613Y-117000000D01*
X107800000Y-126100000D02*
X106550001Y-124850001D01*
%TO.N,Net-(D2-DOUT)*%
X147050000Y-51750000D02*
X152372469Y-57072469D01*
X165700000Y-120300000D02*
X165700000Y-119500000D01*
X152372469Y-93627531D02*
X151000000Y-95000000D01*
X69550000Y-53350000D02*
X71150000Y-51750000D01*
X165700000Y-119500000D02*
X166400000Y-118800000D01*
X71150000Y-51750000D02*
X147050000Y-51750000D01*
X152372469Y-57072469D02*
X152372469Y-93627531D01*
%TO.N,Net-(D2-DIN)*%
X160800000Y-112674695D02*
X160300305Y-112175000D01*
X148900004Y-140500004D02*
X174200000Y-140500004D01*
X160800000Y-117000000D02*
X160800000Y-112674695D01*
X158500000Y-119500000D02*
X147300000Y-130700000D01*
X147300000Y-130700000D02*
X147300000Y-138900000D01*
X160300305Y-112175000D02*
X158825000Y-112175000D01*
X147300000Y-138900000D02*
X148900004Y-140500004D01*
X158825000Y-112175000D02*
X158500000Y-112500000D01*
X158500000Y-112500000D02*
X158500000Y-119500000D01*
%TO.N,Net-(D4-K)*%
X202174598Y-64062500D02*
X201306049Y-63193951D01*
X203000000Y-64062500D02*
X202174598Y-64062500D01*
%TO.N,Net-(D5-K)*%
X203000000Y-76062500D02*
X203000000Y-73000000D01*
%TO.N,Net-(D6-K)*%
X203000000Y-86324599D02*
X202249017Y-85573616D01*
X203000000Y-88062500D02*
X203000000Y-86324599D01*
%TO.N,Net-(D7-K)*%
X203000000Y-100062500D02*
X203000000Y-97200000D01*
%TO.N,Net-(J5-Pin_1)*%
X217225000Y-114025000D02*
X218100000Y-114900000D01*
X217225000Y-109900000D02*
X217225000Y-114025000D01*
X218100000Y-114900000D02*
X218100000Y-117820000D01*
%TO.N,Net-(J5-Pin_2)*%
X214685000Y-109900000D02*
X214685000Y-114085000D01*
X215560000Y-114960000D02*
X215560000Y-117820000D01*
X214685000Y-114085000D02*
X215560000Y-114960000D01*
%TO.N,TX*%
X183900000Y-122862653D02*
X185187653Y-121575000D01*
X183900000Y-136091701D02*
X183900000Y-122862653D01*
X118670000Y-143650000D02*
X130013604Y-143650000D01*
X115320000Y-147000000D02*
X118670000Y-143650000D01*
X130013604Y-143650000D02*
X130413604Y-144050000D01*
X130413604Y-144050000D02*
X175941701Y-144050000D01*
X175941701Y-144050000D02*
X183900000Y-136091701D01*
%TO.N,CLK1*%
X78520000Y-146700000D02*
X78520000Y-147000000D01*
%TO.N,MUTE*%
X145290000Y-144950000D02*
X178850000Y-144950000D01*
X143240000Y-147000000D02*
X145290000Y-144950000D01*
X147700000Y-77800000D02*
X129700000Y-77800000D01*
X186255000Y-137545000D02*
X186255000Y-121535000D01*
X186255000Y-121535000D02*
X182540000Y-117820000D01*
X129700000Y-77800000D02*
X123600000Y-71700000D01*
X178850000Y-144950000D02*
X186255000Y-137545000D01*
X181900000Y-114100000D02*
X175600000Y-114100000D01*
X105900000Y-71700000D02*
X104400000Y-70200000D01*
X175600000Y-114100000D02*
X173900000Y-112400000D01*
X123600000Y-71700000D02*
X105900000Y-71700000D01*
%TO.N,CLK4*%
X83400000Y-130800000D02*
X81000000Y-133200000D01*
X81000000Y-133200000D02*
X81000000Y-136000000D01*
X103300000Y-130800000D02*
X83400000Y-130800000D01*
X110500000Y-138000000D02*
X103300000Y-130800000D01*
%TO.N,Net-(J16-Pad6)*%
X134900000Y-110600000D02*
X138500000Y-114200000D01*
X138500000Y-114200000D02*
X145390000Y-114200000D01*
X134900000Y-105600000D02*
X134900000Y-110600000D01*
X145390000Y-114200000D02*
X148650000Y-117460000D01*
%TO.N,ADC_VREF*%
X159000000Y-136300000D02*
X159000000Y-134800000D01*
X159000000Y-134800000D02*
X159700000Y-134100000D01*
%TO.N,GPIO_INT*%
X207940000Y-117820000D02*
X207940000Y-112440000D01*
X190220372Y-99220372D02*
X190325000Y-99220372D01*
X190100000Y-99100000D02*
X190220372Y-99220372D01*
X195225000Y-99825000D02*
X192200000Y-99825000D01*
X190100000Y-99100000D02*
X186675000Y-99100000D01*
X198300000Y-102900000D02*
X195225000Y-99825000D01*
X207940000Y-112440000D02*
X200750000Y-105250000D01*
%TO.N,Net-(U5-VC{slash}INTR)*%
X105300000Y-139700000D02*
X104600000Y-140400000D01*
X108800000Y-139700000D02*
X105300000Y-139700000D01*
%TO.N,SCL*%
X155500000Y-142100000D02*
X154200000Y-143400000D01*
X154100000Y-143400000D02*
X130400000Y-143400000D01*
X128700000Y-141700000D02*
X128700000Y-138100000D01*
X154200000Y-143400000D02*
X154100000Y-143400000D01*
X164286269Y-139625000D02*
X164286269Y-138013731D01*
X128700000Y-138100000D02*
X130000000Y-136800000D01*
X130400000Y-143400000D02*
X128700000Y-141700000D01*
X164286269Y-138013731D02*
X164300000Y-138000000D01*
%TO.N,SDA*%
X155100000Y-141300000D02*
X156500000Y-141300000D01*
X153600000Y-142800000D02*
X155100000Y-141300000D01*
X129900000Y-141500000D02*
X131200000Y-142800000D01*
X131200000Y-142800000D02*
X153600000Y-142800000D01*
X129900000Y-140300000D02*
X129900000Y-141500000D01*
%TO.N,Net-(U9-HPSENSE)*%
X114000000Y-122700000D02*
X114000000Y-113300000D01*
X114000000Y-113300000D02*
X113000000Y-112300000D01*
X112200000Y-124500000D02*
X114000000Y-122700000D01*
X113000000Y-112300000D02*
X104000000Y-112300000D01*
%TO.N,LCD_CS*%
X198400000Y-71570000D02*
X191400000Y-78570000D01*
X164725000Y-111075000D02*
X164400000Y-111400000D01*
X166214924Y-136775000D02*
X171205000Y-136775000D01*
X183884493Y-111700000D02*
X183259493Y-111075000D01*
X191400000Y-78570000D02*
X191400000Y-108100000D01*
X183259493Y-111075000D02*
X164725000Y-111075000D01*
X164400000Y-111400000D02*
X164400000Y-134960076D01*
X164400000Y-134960076D02*
X166214924Y-136775000D01*
X171205000Y-136775000D02*
X172380000Y-135600000D01*
X187800000Y-111700000D02*
X183884493Y-111700000D01*
X191400000Y-108100000D02*
X187800000Y-111700000D01*
%TO.N,LCD_RESET*%
X196424500Y-88000000D02*
X196424500Y-91165500D01*
%TO.N,LCD_DC*%
X195700000Y-90274500D02*
X195700000Y-79350000D01*
X195674500Y-90300000D02*
X195700000Y-90274500D01*
X195700000Y-79350000D02*
X198400000Y-76650000D01*
%TO.N,SPI_TX*%
X162900000Y-110463604D02*
X163388604Y-109975000D01*
X166050000Y-137950000D02*
X162900000Y-134800000D01*
X200600000Y-65300000D02*
X200700000Y-65400000D01*
X190800000Y-71600000D02*
X197100000Y-65300000D01*
X181913299Y-110175000D02*
X182886701Y-110175000D01*
X181713299Y-109975000D02*
X181913299Y-110175000D01*
X180000000Y-135600000D02*
X177650000Y-137950000D01*
X200700000Y-76890000D02*
X198400000Y-79190000D01*
X162900000Y-134800000D02*
X162900000Y-110463604D01*
X177650000Y-137950000D02*
X166050000Y-137950000D01*
X163388604Y-109975000D02*
X181713299Y-109975000D01*
X185750000Y-98850000D02*
X190800000Y-93800000D01*
X197100000Y-65300000D02*
X200600000Y-65300000D01*
X182886701Y-110175000D02*
X185750000Y-107311701D01*
X190800000Y-93800000D02*
X190800000Y-71600000D01*
X185750000Y-107311701D02*
X185750000Y-98850000D01*
X200700000Y-65400000D02*
X200700000Y-76890000D01*
%TO.N,SPI_SCK*%
X183073097Y-110625000D02*
X184698097Y-109000000D01*
X181726903Y-110625000D02*
X183073097Y-110625000D01*
X163400000Y-134600000D02*
X163400000Y-110600000D01*
X184698097Y-109000000D02*
X189400000Y-109000000D01*
X163575000Y-110425000D02*
X181526903Y-110425000D01*
X175560000Y-137500000D02*
X166300000Y-137500000D01*
X163400000Y-110600000D02*
X163575000Y-110425000D01*
X177460000Y-135600000D02*
X175560000Y-137500000D01*
X166300000Y-137500000D02*
X163400000Y-134600000D01*
X181526903Y-110425000D02*
X181726903Y-110625000D01*
%TO.N,TS_CS*%
X189500000Y-93400000D02*
X185300000Y-97600000D01*
X192200000Y-91900000D02*
X192210000Y-91890000D01*
X179740000Y-138400000D02*
X182540000Y-135600000D01*
X162400000Y-134936396D02*
X165863604Y-138400000D01*
X189500000Y-91900000D02*
X189500000Y-93400000D01*
X181899695Y-109525000D02*
X163202208Y-109525000D01*
X185300000Y-97600000D02*
X185300000Y-107125305D01*
X163202208Y-109525000D02*
X162400000Y-110327208D01*
X182099695Y-109725000D02*
X181899695Y-109525000D01*
X192210000Y-91890000D02*
X198400000Y-91890000D01*
X182700305Y-109725000D02*
X182099695Y-109725000D01*
X185300000Y-107125305D02*
X182700305Y-109725000D01*
X162400000Y-110327208D02*
X162400000Y-134936396D01*
X165863604Y-138400000D02*
X179740000Y-138400000D01*
%TO.N,SPI_RX*%
X167675000Y-111525000D02*
X183073097Y-111525000D01*
X166775000Y-112425000D02*
X167675000Y-111525000D01*
X166775000Y-116975000D02*
X166775000Y-112425000D01*
X183698097Y-112150000D02*
X192150000Y-112150000D01*
X192150000Y-112150000D02*
X199575000Y-104725000D01*
X171500000Y-133940000D02*
X171500000Y-121700000D01*
X199575000Y-104725000D02*
X199575000Y-98145000D01*
X199575000Y-98145000D02*
X198400000Y-96970000D01*
X169840000Y-135600000D02*
X171500000Y-133940000D01*
X183073097Y-111525000D02*
X183698097Y-112150000D01*
X171500000Y-121700000D02*
X166775000Y-116975000D01*
%TO.N,SDA_3V3*%
X110400000Y-141097283D02*
X109191202Y-142306081D01*
X110400000Y-140200000D02*
X110400000Y-141097283D01*
X119200000Y-135800000D02*
X114800000Y-135800000D01*
X114800000Y-135800000D02*
X110400000Y-140200000D01*
%TO.N,SCL_3V3*%
X109197924Y-140765680D02*
X109197924Y-141274390D01*
X120500000Y-130800000D02*
X119163604Y-130800000D01*
X119163604Y-130800000D02*
X109197924Y-140765680D01*
%TD*%
M02*
