%TF.GenerationSoftware,KiCad,Pcbnew,8.0.2-8.0.2-0~ubuntu22.04.1*%
%TF.CreationDate,2024-05-24T15:24:21-07:00*%
%TF.ProjectId,YamhillFrontPanel,59616d68-696c-46c4-9672-6f6e7450616e,B*%
%TF.SameCoordinates,Original*%
%TF.FileFunction,Soldermask,Bot*%
%TF.FilePolarity,Negative*%
%FSLAX46Y46*%
G04 Gerber Fmt 4.6, Leading zero omitted, Abs format (unit mm)*
G04 Created by KiCad (PCBNEW 8.0.2-8.0.2-0~ubuntu22.04.1) date 2024-05-24 15:24:21*
%MOMM*%
%LPD*%
G01*
G04 APERTURE LIST*
G04 Aperture macros list*
%AMRoundRect*
0 Rectangle with rounded corners*
0 $1 Rounding radius*
0 $2 $3 $4 $5 $6 $7 $8 $9 X,Y pos of 4 corners*
0 Add a 4 corners polygon primitive as box body*
4,1,4,$2,$3,$4,$5,$6,$7,$8,$9,$2,$3,0*
0 Add four circle primitives for the rounded corners*
1,1,$1+$1,$2,$3*
1,1,$1+$1,$4,$5*
1,1,$1+$1,$6,$7*
1,1,$1+$1,$8,$9*
0 Add four rect primitives between the rounded corners*
20,1,$1+$1,$2,$3,$4,$5,0*
20,1,$1+$1,$4,$5,$6,$7,0*
20,1,$1+$1,$6,$7,$8,$9,0*
20,1,$1+$1,$8,$9,$2,$3,0*%
G04 Aperture macros list end*
%ADD10O,2.000000X2.800000*%
%ADD11C,2.000000*%
%ADD12R,1.700000X1.700000*%
%ADD13O,1.700000X1.700000*%
%ADD14C,0.800000*%
%ADD15C,6.400000*%
%ADD16O,1.800000X1.800000*%
%ADD17O,1.500000X1.500000*%
%ADD18C,2.500000*%
%ADD19C,2.600000*%
%ADD20O,2.800000X3.200000*%
%ADD21R,1.500000X0.900000*%
%ADD22C,3.650000*%
%ADD23R,1.500000X1.500000*%
%ADD24C,1.500000*%
%ADD25RoundRect,0.243750X-0.456250X0.243750X-0.456250X-0.243750X0.456250X-0.243750X0.456250X0.243750X0*%
%ADD26O,2.000000X1.300000*%
%ADD27C,3.400000*%
G04 APERTURE END LIST*
D10*
%TO.C,SW1*%
X77700000Y-101000000D03*
X66300000Y-101000000D03*
D11*
X74500000Y-108500000D03*
X69500000Y-108500000D03*
X72000000Y-108500000D03*
X74500000Y-94000000D03*
X69500000Y-94000000D03*
%TD*%
D10*
%TO.C,SW2*%
X77700000Y-68000000D03*
X66300000Y-68000000D03*
D11*
X74500000Y-75500000D03*
X69500000Y-75500000D03*
X72000000Y-75500000D03*
X74500000Y-61000000D03*
X69500000Y-61000000D03*
%TD*%
D12*
%TO.C,J3*%
X109060000Y-147000000D03*
D13*
X111600000Y-147000000D03*
%TD*%
D12*
%TO.C,J35*%
X150425000Y-137900000D03*
D13*
X152965000Y-137900000D03*
%TD*%
D12*
%TO.C,J26*%
X83600000Y-147000000D03*
D13*
X86140000Y-147000000D03*
%TD*%
D12*
%TO.C,J33*%
X137960000Y-109800000D03*
D13*
X140500000Y-109800000D03*
%TD*%
D12*
%TO.C,J5*%
X143900000Y-147000000D03*
D13*
X146440000Y-147000000D03*
%TD*%
D12*
%TO.C,J20*%
X64200000Y-147000000D03*
D13*
X66740000Y-147000000D03*
%TD*%
D14*
%TO.C,H2*%
X52600000Y-145000000D03*
X53302944Y-143302944D03*
X53302944Y-146697056D03*
X55000000Y-142600000D03*
D15*
X55000000Y-145000000D03*
D14*
X55000000Y-147400000D03*
X56697056Y-143302944D03*
X56697056Y-146697056D03*
X57400000Y-145000000D03*
%TD*%
D12*
%TO.C,J36*%
X82700000Y-115200000D03*
D13*
X85240000Y-115200000D03*
%TD*%
D12*
%TO.C,J23*%
X166100000Y-147000000D03*
D13*
X168640000Y-147000000D03*
%TD*%
D16*
%TO.C,U3*%
X217970000Y-123985000D03*
D17*
X214940000Y-124285000D03*
X214940000Y-129135000D03*
D16*
X217970000Y-129435000D03*
D13*
X218100000Y-117820000D03*
X215560000Y-117820000D03*
D12*
X213020000Y-117820000D03*
D13*
X210480000Y-117820000D03*
X207940000Y-117820000D03*
X205400000Y-117820000D03*
X202860000Y-117820000D03*
D12*
X200320000Y-117820000D03*
D13*
X197780000Y-117820000D03*
X195240000Y-117820000D03*
X192700000Y-117820000D03*
X190160000Y-117820000D03*
D12*
X187620000Y-117820000D03*
D13*
X185080000Y-117820000D03*
X182540000Y-117820000D03*
X180000000Y-117820000D03*
X177460000Y-117820000D03*
D12*
X174920000Y-117820000D03*
D13*
X172380000Y-117820000D03*
X169840000Y-117820000D03*
X169840000Y-135600000D03*
X172380000Y-135600000D03*
D12*
X174920000Y-135600000D03*
D13*
X177460000Y-135600000D03*
X180000000Y-135600000D03*
X182540000Y-135600000D03*
X185080000Y-135600000D03*
D12*
X187620000Y-135600000D03*
D13*
X190160000Y-135600000D03*
X192700000Y-135600000D03*
X195240000Y-135600000D03*
X197780000Y-135600000D03*
D12*
X200320000Y-135600000D03*
D13*
X202860000Y-135600000D03*
X205400000Y-135600000D03*
X207940000Y-135600000D03*
X210480000Y-135600000D03*
D12*
X213020000Y-135600000D03*
D13*
X215560000Y-135600000D03*
X218100000Y-135600000D03*
X170070000Y-124170000D03*
D12*
X170070000Y-126710000D03*
D13*
X170070000Y-129250000D03*
%TD*%
D12*
%TO.C,J4*%
X115300000Y-147000000D03*
D13*
X117840000Y-147000000D03*
%TD*%
D18*
%TO.C,J27*%
X55000000Y-136000000D03*
D19*
X52450000Y-133450000D03*
X52450000Y-138550000D03*
X57550000Y-133450000D03*
X57550000Y-138550000D03*
%TD*%
D12*
%TO.C,J22*%
X159800000Y-147000000D03*
D13*
X162340000Y-147000000D03*
%TD*%
D12*
%TO.C,J18*%
X170000000Y-102700000D03*
D13*
X172540000Y-102700000D03*
%TD*%
D12*
%TO.C,J19*%
X205000000Y-147000000D03*
D13*
X207540000Y-147000000D03*
%TD*%
D12*
%TO.C,J34*%
X123360000Y-86460000D03*
D13*
X125900000Y-86460000D03*
X123360000Y-89000000D03*
X125900000Y-89000000D03*
%TD*%
D14*
%TO.C,H4*%
X212600000Y-145000000D03*
X213302944Y-143302944D03*
X213302944Y-146697056D03*
X215000000Y-142600000D03*
D15*
X215000000Y-145000000D03*
D14*
X215000000Y-147400000D03*
X216697056Y-143302944D03*
X216697056Y-146697056D03*
X217400000Y-145000000D03*
%TD*%
D12*
%TO.C,J16*%
X185700000Y-91800000D03*
D13*
X188240000Y-91800000D03*
%TD*%
D12*
%TO.C,J8*%
X125025000Y-147000000D03*
D13*
X127565000Y-147000000D03*
%TD*%
D12*
%TO.C,J21*%
X153500000Y-147000000D03*
D13*
X156040000Y-147000000D03*
%TD*%
D12*
%TO.C,J10*%
X152460000Y-102700000D03*
D13*
X155000000Y-102700000D03*
X157540000Y-102700000D03*
%TD*%
D12*
%TO.C,J11*%
X154200000Y-91800000D03*
D13*
X156740000Y-91800000D03*
%TD*%
D20*
%TO.C,R31*%
X130700000Y-132000000D03*
X141300000Y-132000000D03*
D11*
X138500000Y-139000000D03*
X136000000Y-139000000D03*
X133500000Y-139000000D03*
%TD*%
D14*
%TO.C,H1*%
X52600000Y-55000000D03*
X53302944Y-53302944D03*
X53302944Y-56697056D03*
X55000000Y-52600000D03*
D15*
X55000000Y-55000000D03*
D14*
X55000000Y-57400000D03*
X56697056Y-53302944D03*
X56697056Y-56697056D03*
X57400000Y-55000000D03*
%TD*%
D12*
%TO.C,J13*%
X166800000Y-91800000D03*
D13*
X169340000Y-91800000D03*
%TD*%
D12*
%TO.C,J12*%
X160500000Y-91800000D03*
D13*
X163040000Y-91800000D03*
%TD*%
D12*
%TO.C,J2*%
X102800000Y-147000000D03*
D13*
X105340000Y-147000000D03*
%TD*%
D12*
%TO.C,J30*%
X84300000Y-104200000D03*
D13*
X86840000Y-104200000D03*
%TD*%
D12*
%TO.C,J7*%
X131325000Y-147000000D03*
D13*
X133865000Y-147000000D03*
%TD*%
D12*
%TO.C,J37*%
X102125000Y-110500000D03*
D13*
X104665000Y-110500000D03*
%TD*%
D18*
%TO.C,J29*%
X81000000Y-136000000D03*
D19*
X78450000Y-133450000D03*
X78450000Y-138550000D03*
X83550000Y-133450000D03*
X83550000Y-138550000D03*
%TD*%
D11*
%TO.C,TP2*%
X187100000Y-147000000D03*
%TD*%
D18*
%TO.C,J28*%
X68000000Y-136000000D03*
D19*
X65450000Y-133450000D03*
X65450000Y-138550000D03*
X70550000Y-133450000D03*
X70550000Y-138550000D03*
%TD*%
D12*
%TO.C,J15*%
X179400000Y-91800000D03*
D13*
X181940000Y-91800000D03*
%TD*%
D12*
%TO.C,J31*%
X82700000Y-125800000D03*
D13*
X85240000Y-125800000D03*
%TD*%
D12*
%TO.C,J6*%
X137600000Y-147000000D03*
D13*
X140140000Y-147000000D03*
%TD*%
D12*
%TO.C,J1*%
X96500000Y-147000000D03*
D13*
X99040000Y-147000000D03*
%TD*%
D11*
%TO.C,TP1*%
X150000000Y-112000000D03*
%TD*%
D12*
%TO.C,J14*%
X173100000Y-91800000D03*
D13*
X175640000Y-91800000D03*
%TD*%
D14*
%TO.C,H3*%
X212600000Y-55000000D03*
X213302944Y-53302944D03*
X213302944Y-56697056D03*
X215000000Y-52600000D03*
D15*
X215000000Y-55000000D03*
D14*
X215000000Y-57400000D03*
X216697056Y-53302944D03*
X216697056Y-56697056D03*
X217400000Y-55000000D03*
%TD*%
D12*
%TO.C,J17*%
X217225000Y-109900000D03*
D13*
X214685000Y-109900000D03*
X212145000Y-109900000D03*
%TD*%
D18*
%TO.C,J24*%
X94000000Y-136000000D03*
D19*
X91450000Y-133450000D03*
X91450000Y-138550000D03*
X96550000Y-133450000D03*
X96550000Y-138550000D03*
%TD*%
D21*
%TO.C,D2*%
X165700000Y-117000000D03*
X165700000Y-120300000D03*
X160800000Y-120300000D03*
X160800000Y-117000000D03*
%TD*%
%TO.C,D5*%
X74450000Y-53350000D03*
X74450000Y-56650000D03*
X69550000Y-56650000D03*
X69550000Y-53350000D03*
%TD*%
D22*
%TO.C,J32*%
X156270000Y-126350000D03*
X144840000Y-126350000D03*
D23*
X155000000Y-120000000D03*
D24*
X153730000Y-117460000D03*
X152460000Y-120000000D03*
X151190000Y-117460000D03*
X149920000Y-120000000D03*
X148650000Y-117460000D03*
X147380000Y-120000000D03*
X146110000Y-117460000D03*
%TD*%
D25*
%TO.C,D3*%
X203000000Y-76062500D03*
X203000000Y-77937500D03*
%TD*%
D11*
%TO.C,S2*%
X214250000Y-73750000D03*
X214250000Y-80250000D03*
X209750000Y-73750000D03*
X209750000Y-80250000D03*
%TD*%
D25*
%TO.C,D1*%
X203000000Y-64062500D03*
X203000000Y-65937500D03*
%TD*%
D18*
%TO.C,J9*%
X97000000Y-122000000D03*
X94800000Y-126100000D03*
X99200000Y-124500000D03*
X98700000Y-117000000D03*
X95300000Y-119500000D03*
%TD*%
D25*
%TO.C,D6*%
X203000000Y-100062500D03*
X203000000Y-101937500D03*
%TD*%
%TO.C,D4*%
X203000000Y-88062500D03*
X203000000Y-89937500D03*
%TD*%
D26*
%TO.C,R57*%
X130750000Y-122000000D03*
X121250000Y-122000000D03*
D11*
X123500000Y-128500000D03*
X126000000Y-128500000D03*
X128500000Y-128500000D03*
%TD*%
%TO.C,S4*%
X214250000Y-97750000D03*
X214250000Y-104250000D03*
X209750000Y-97750000D03*
X209750000Y-104250000D03*
%TD*%
D18*
%TO.C,J38*%
X110000000Y-122000000D03*
X107800000Y-126100000D03*
X112200000Y-124500000D03*
X111700000Y-117000000D03*
X108300000Y-119500000D03*
%TD*%
D11*
%TO.C,S3*%
X214250000Y-85750000D03*
X214250000Y-92250000D03*
X209750000Y-85750000D03*
X209750000Y-92250000D03*
%TD*%
D13*
%TO.C,U9*%
X94500000Y-86760000D03*
X94500000Y-84220000D03*
X94500000Y-81680000D03*
D12*
X94500000Y-79140000D03*
D13*
X198500000Y-99460000D03*
X198500000Y-96920000D03*
X198500000Y-94380000D03*
X198500000Y-91840000D03*
X198500000Y-89300000D03*
X198500000Y-86760000D03*
X198500000Y-84220000D03*
X198500000Y-81680000D03*
X198500000Y-79140000D03*
X198500000Y-76600000D03*
X198500000Y-74060000D03*
X198500000Y-71520000D03*
X198500000Y-68980000D03*
D12*
X198500000Y-66440000D03*
D27*
X197500000Y-110400000D03*
X197500000Y-55500000D03*
X95500000Y-110400000D03*
X95500000Y-55500000D03*
%TD*%
D11*
%TO.C,S1*%
X214250000Y-61750000D03*
X214250000Y-68250000D03*
X209750000Y-61750000D03*
X209750000Y-68250000D03*
%TD*%
D12*
%TO.C,J25*%
X77400000Y-147000000D03*
D13*
X79940000Y-147000000D03*
%TD*%
M02*
