%TF.GenerationSoftware,KiCad,Pcbnew,7.0.10-7.0.10~ubuntu22.04.1*%
%TF.CreationDate,2024-01-04T09:02:15-08:00*%
%TF.ProjectId,YamhillFrontPanel,59616d68-696c-46c4-9672-6f6e7450616e,A*%
%TF.SameCoordinates,Original*%
%TF.FileFunction,Soldermask,Bot*%
%TF.FilePolarity,Negative*%
%FSLAX46Y46*%
G04 Gerber Fmt 4.6, Leading zero omitted, Abs format (unit mm)*
G04 Created by KiCad (PCBNEW 7.0.10-7.0.10~ubuntu22.04.1) date 2024-01-04 09:02:15*
%MOMM*%
%LPD*%
G01*
G04 APERTURE LIST*
G04 Aperture macros list*
%AMRoundRect*
0 Rectangle with rounded corners*
0 $1 Rounding radius*
0 $2 $3 $4 $5 $6 $7 $8 $9 X,Y pos of 4 corners*
0 Add a 4 corners polygon primitive as box body*
4,1,4,$2,$3,$4,$5,$6,$7,$8,$9,$2,$3,0*
0 Add four circle primitives for the rounded corners*
1,1,$1+$1,$2,$3*
1,1,$1+$1,$4,$5*
1,1,$1+$1,$6,$7*
1,1,$1+$1,$8,$9*
0 Add four rect primitives between the rounded corners*
20,1,$1+$1,$2,$3,$4,$5,0*
20,1,$1+$1,$4,$5,$6,$7,0*
20,1,$1+$1,$6,$7,$8,$9,0*
20,1,$1+$1,$8,$9,$2,$3,0*%
G04 Aperture macros list end*
%ADD10O,2.000000X1.300000*%
%ADD11C,2.000000*%
%ADD12RoundRect,0.500000X0.500000X0.500000X-0.500000X0.500000X-0.500000X-0.500000X0.500000X-0.500000X0*%
%ADD13O,2.800000X3.200000*%
%ADD14C,2.500000*%
%ADD15C,2.600000*%
%ADD16R,1.700000X1.700000*%
%ADD17O,1.700000X1.700000*%
%ADD18C,0.800000*%
%ADD19C,6.400000*%
%ADD20O,1.800000X1.800000*%
%ADD21O,1.500000X1.500000*%
%ADD22R,1.500000X0.900000*%
%ADD23C,3.650000*%
%ADD24R,1.500000X1.500000*%
%ADD25C,1.500000*%
%ADD26RoundRect,0.243750X-0.456250X0.243750X-0.456250X-0.243750X0.456250X-0.243750X0.456250X0.243750X0*%
%ADD27C,3.400000*%
%ADD28O,2.000000X2.800000*%
G04 APERTURE END LIST*
D10*
%TO.C,R42*%
X130750000Y-122000000D03*
X121250000Y-122000000D03*
D11*
X123500000Y-128500000D03*
X126000000Y-128500000D03*
X128500000Y-128500000D03*
%TD*%
D12*
%TO.C,J20*%
X65300000Y-121200000D03*
X65300000Y-125600000D03*
%TD*%
D11*
%TO.C,S2*%
X214250000Y-73750000D03*
X214250000Y-80250000D03*
X209750000Y-73750000D03*
X209750000Y-80250000D03*
%TD*%
%TO.C,S4*%
X214250000Y-97750000D03*
X214250000Y-104250000D03*
X209750000Y-97750000D03*
X209750000Y-104250000D03*
%TD*%
%TO.C,S3*%
X214250000Y-85750000D03*
X214250000Y-92250000D03*
X209750000Y-85750000D03*
X209750000Y-92250000D03*
%TD*%
%TO.C,S1*%
X214250000Y-61750000D03*
X214250000Y-68250000D03*
X209750000Y-61750000D03*
X209750000Y-68250000D03*
%TD*%
D13*
%TO.C,R26*%
X130700000Y-132000000D03*
X141300000Y-132000000D03*
D11*
X138500000Y-139000000D03*
X136000000Y-139000000D03*
X133500000Y-139000000D03*
%TD*%
D14*
%TO.C,J2*%
X97000000Y-122000000D03*
X94800000Y-126100000D03*
X99200000Y-124500000D03*
X98700000Y-117000000D03*
X95300000Y-119500000D03*
%TD*%
%TO.C,J21*%
X110000000Y-122000000D03*
X107800000Y-126100000D03*
X112200000Y-124500000D03*
X111700000Y-117000000D03*
X108300000Y-119500000D03*
%TD*%
%TO.C,J8*%
X55000000Y-136000000D03*
D15*
X52450000Y-133450000D03*
X52450000Y-138550000D03*
X57550000Y-133450000D03*
X57550000Y-138550000D03*
%TD*%
D14*
%TO.C,J13*%
X81000000Y-136000000D03*
D15*
X78450000Y-133450000D03*
X78450000Y-138550000D03*
X83550000Y-133450000D03*
X83550000Y-138550000D03*
%TD*%
D14*
%TO.C,J11*%
X68000000Y-136000000D03*
D15*
X65450000Y-133450000D03*
X65450000Y-138550000D03*
X70550000Y-133450000D03*
X70550000Y-138550000D03*
%TD*%
D14*
%TO.C,J14*%
X94000000Y-136000000D03*
D15*
X91450000Y-133450000D03*
X91450000Y-138550000D03*
X96550000Y-133450000D03*
X96550000Y-138550000D03*
%TD*%
D16*
%TO.C,J10*%
X154600000Y-147000000D03*
D17*
X157140000Y-147000000D03*
X159680000Y-147000000D03*
X162220000Y-147000000D03*
X164760000Y-147000000D03*
X167300000Y-147000000D03*
X169840000Y-147000000D03*
X172380000Y-147000000D03*
%TD*%
D16*
%TO.C,J17*%
X150425000Y-137900000D03*
D17*
X152965000Y-137900000D03*
%TD*%
D16*
%TO.C,J15*%
X137960000Y-109800000D03*
D17*
X140500000Y-109800000D03*
%TD*%
D16*
%TO.C,J1*%
X182000000Y-147000000D03*
D17*
X184540000Y-147000000D03*
%TD*%
D18*
%TO.C,H3*%
X52600000Y-145000000D03*
X53302944Y-143302944D03*
X53302944Y-146697056D03*
X55000000Y-142600000D03*
D19*
X55000000Y-145000000D03*
D18*
X55000000Y-147400000D03*
X56697056Y-143302944D03*
X56697056Y-146697056D03*
X57400000Y-145000000D03*
%TD*%
D16*
%TO.C,J9*%
X78520000Y-147000000D03*
D17*
X81060000Y-147000000D03*
X83600000Y-147000000D03*
X86140000Y-147000000D03*
%TD*%
D20*
%TO.C,U3*%
X217970000Y-123985000D03*
D21*
X214940000Y-124285000D03*
X214940000Y-129135000D03*
D20*
X217970000Y-129435000D03*
D17*
X218100000Y-117820000D03*
X215560000Y-117820000D03*
D16*
X213020000Y-117820000D03*
D17*
X210480000Y-117820000D03*
X207940000Y-117820000D03*
X205400000Y-117820000D03*
X202860000Y-117820000D03*
D16*
X200320000Y-117820000D03*
D17*
X197780000Y-117820000D03*
X195240000Y-117820000D03*
X192700000Y-117820000D03*
X190160000Y-117820000D03*
D16*
X187620000Y-117820000D03*
D17*
X185080000Y-117820000D03*
X182540000Y-117820000D03*
X180000000Y-117820000D03*
X177460000Y-117820000D03*
D16*
X174920000Y-117820000D03*
D17*
X172380000Y-117820000D03*
X169840000Y-117820000D03*
X169840000Y-135600000D03*
X172380000Y-135600000D03*
D16*
X174920000Y-135600000D03*
D17*
X177460000Y-135600000D03*
X180000000Y-135600000D03*
X182540000Y-135600000D03*
X185080000Y-135600000D03*
D16*
X187620000Y-135600000D03*
D17*
X190160000Y-135600000D03*
X192700000Y-135600000D03*
X195240000Y-135600000D03*
X197780000Y-135600000D03*
D16*
X200320000Y-135600000D03*
D17*
X202860000Y-135600000D03*
X205400000Y-135600000D03*
X207940000Y-135600000D03*
X210480000Y-135600000D03*
D16*
X213020000Y-135600000D03*
D17*
X215560000Y-135600000D03*
X218100000Y-135600000D03*
X170070000Y-124170000D03*
D16*
X170070000Y-126710000D03*
D17*
X170070000Y-129250000D03*
%TD*%
D16*
%TO.C,J3*%
X192000000Y-147000000D03*
D17*
X194540000Y-147000000D03*
%TD*%
D16*
%TO.C,J4*%
X205000000Y-147000000D03*
D17*
X207540000Y-147000000D03*
%TD*%
D16*
%TO.C,J19*%
X123400000Y-86300000D03*
D17*
X125940000Y-86300000D03*
%TD*%
D18*
%TO.C,H4*%
X212600000Y-145000000D03*
X213302944Y-143302944D03*
X213302944Y-146697056D03*
X215000000Y-142600000D03*
D19*
X215000000Y-145000000D03*
D18*
X215000000Y-147400000D03*
X216697056Y-143302944D03*
X216697056Y-146697056D03*
X217400000Y-145000000D03*
%TD*%
D16*
%TO.C,J22*%
X152460000Y-102700000D03*
D17*
X155000000Y-102700000D03*
X157540000Y-102700000D03*
%TD*%
D18*
%TO.C,H1*%
X52600000Y-55000000D03*
X53302944Y-53302944D03*
X53302944Y-56697056D03*
X55000000Y-52600000D03*
D19*
X55000000Y-55000000D03*
D18*
X55000000Y-57400000D03*
X56697056Y-53302944D03*
X56697056Y-56697056D03*
X57400000Y-55000000D03*
%TD*%
D16*
%TO.C,J18*%
X84300000Y-104200000D03*
D17*
X86840000Y-104200000D03*
%TD*%
D16*
%TO.C,J12*%
X128000000Y-147000000D03*
D17*
X130540000Y-147000000D03*
X133080000Y-147000000D03*
X135620000Y-147000000D03*
X138160000Y-147000000D03*
X140700000Y-147000000D03*
X143240000Y-147000000D03*
X145780000Y-147000000D03*
%TD*%
D16*
%TO.C,J6*%
X95000000Y-147000000D03*
D17*
X97540000Y-147000000D03*
X100080000Y-147000000D03*
X102620000Y-147000000D03*
X105160000Y-147000000D03*
X107700000Y-147000000D03*
X110240000Y-147000000D03*
X112780000Y-147000000D03*
X115320000Y-147000000D03*
X117860000Y-147000000D03*
%TD*%
D18*
%TO.C,H2*%
X212600000Y-55000000D03*
X213302944Y-53302944D03*
X213302944Y-56697056D03*
X215000000Y-52600000D03*
D19*
X215000000Y-55000000D03*
D18*
X215000000Y-57400000D03*
X216697056Y-53302944D03*
X216697056Y-56697056D03*
X217400000Y-55000000D03*
%TD*%
D16*
%TO.C,J5*%
X217225000Y-109900000D03*
D17*
X214685000Y-109900000D03*
X212145000Y-109900000D03*
%TD*%
D16*
%TO.C,J7*%
X154160000Y-91900000D03*
D17*
X156700000Y-91900000D03*
X159240000Y-91900000D03*
X161780000Y-91900000D03*
X164320000Y-91900000D03*
X166860000Y-91900000D03*
X169400000Y-91900000D03*
X171940000Y-91900000D03*
X174480000Y-91900000D03*
X177020000Y-91900000D03*
X179560000Y-91900000D03*
X182100000Y-91900000D03*
%TD*%
D22*
%TO.C,D2*%
X165700000Y-117000000D03*
X165700000Y-120300000D03*
X160800000Y-120300000D03*
X160800000Y-117000000D03*
%TD*%
%TO.C,D3*%
X74450000Y-53350000D03*
X74450000Y-56650000D03*
X69550000Y-56650000D03*
X69550000Y-53350000D03*
%TD*%
D23*
%TO.C,J16*%
X156270000Y-126350000D03*
X144840000Y-126350000D03*
D24*
X155000000Y-120000000D03*
D25*
X153730000Y-117460000D03*
X152460000Y-120000000D03*
X151190000Y-117460000D03*
X149920000Y-120000000D03*
X148650000Y-117460000D03*
X147380000Y-120000000D03*
X146110000Y-117460000D03*
%TD*%
D26*
%TO.C,D5*%
X203000000Y-76062500D03*
X203000000Y-77937500D03*
%TD*%
%TO.C,D4*%
X203000000Y-64062500D03*
X203000000Y-65937500D03*
%TD*%
%TO.C,D7*%
X203000000Y-100062500D03*
X203000000Y-101937500D03*
%TD*%
%TO.C,D6*%
X203000000Y-88062500D03*
X203000000Y-89937500D03*
%TD*%
D27*
%TO.C,U1*%
X95400000Y-55550000D03*
X95400000Y-110450000D03*
X197400000Y-55550000D03*
X197400000Y-110450000D03*
D16*
X198400000Y-66490000D03*
D17*
X198400000Y-69030000D03*
X198400000Y-71570000D03*
X198400000Y-74110000D03*
X198400000Y-76650000D03*
X198400000Y-79190000D03*
X198400000Y-81730000D03*
X198400000Y-84270000D03*
X198400000Y-86810000D03*
X198400000Y-89350000D03*
X198400000Y-91890000D03*
X198400000Y-94430000D03*
X198400000Y-96970000D03*
X198400000Y-99510000D03*
D16*
X94400000Y-79190000D03*
D17*
X94400000Y-81730000D03*
X94400000Y-84270000D03*
X94400000Y-86810000D03*
%TD*%
D28*
%TO.C,SW1*%
X77700000Y-101000000D03*
X66300000Y-101000000D03*
D11*
X74500000Y-108500000D03*
X69500000Y-108500000D03*
X72000000Y-108500000D03*
X74500000Y-94000000D03*
X69500000Y-94000000D03*
%TD*%
D28*
%TO.C,SW2*%
X77700000Y-68000000D03*
X66300000Y-68000000D03*
D11*
X74500000Y-75500000D03*
X69500000Y-75500000D03*
X72000000Y-75500000D03*
X74500000Y-61000000D03*
X69500000Y-61000000D03*
%TD*%
M02*
