M48
; DRILL file {KiCad 8.0.2-8.0.2-0~ubuntu22.04.1} date 2024-05-24T15:24:31-0700
; FORMAT={-:-/ absolute / inch / decimal}
; #@! TF.CreationDate,2024-05-24T15:24:31-07:00
; #@! TF.GenerationSoftware,Kicad,Pcbnew,8.0.2-8.0.2-0~ubuntu22.04.1
; #@! TF.FileFunction,Plated,1,4,PTH
FMAT,2
INCH
; #@! TA.AperFunction,Plated,PTH,ViaDrill
T1C0.0079
; #@! TA.AperFunction,Plated,PTH,ComponentDrill
T2C0.0079
; #@! TA.AperFunction,Plated,PTH,ViaDrill
T3C0.0157
; #@! TA.AperFunction,Plated,PTH,ComponentDrill
T4C0.0197
; #@! TA.AperFunction,Plated,PTH,ComponentDrill
T5C0.0354
; #@! TA.AperFunction,Plated,PTH,ComponentDrill
T6C0.0394
; #@! TA.AperFunction,Plated,PTH,ComponentDrill
T7C0.0402
; #@! TA.AperFunction,Plated,PTH,ComponentDrill
T8C0.0591
; #@! TA.AperFunction,Plated,PTH,ComponentDrill
T9C0.0630
; #@! TA.AperFunction,Plated,PTH,ComponentDrill
T10C0.0709
; #@! TA.AperFunction,Plated,PTH,ComponentDrill
T11C0.1260
%
G90
G05
T1
X4.2795Y-5.5669
X4.2835Y-5.5
X4.2989Y-5.6026
X4.3189Y-5.6457
X4.3477Y-5.4153
X4.3661Y-5.6575
X4.4046Y-5.6597
X4.434Y-5.6573
X4.5276Y-5.5669
X4.5456Y-5.5433
T2
X4.3642Y-5.5039
X4.3642Y-5.5906
X4.4508Y-5.5039
X4.4508Y-5.5906
T3
X2.0551Y-4.937
X2.2126Y-4.4803
X2.2126Y-4.6142
X2.2323Y-4.937
X2.3307Y-4.4803
X2.3307Y-4.6142
X2.4331Y-5.0787
X2.5197Y-4.937
X2.5551Y-3.6181
X2.6063Y-3.1496
X2.6457Y-2.2283
X2.6772Y-4.4803
X2.6772Y-4.6142
X2.6969Y-4.937
X2.7953Y-4.4803
X2.7953Y-4.6142
X2.9449Y-4.7835
X3.0433Y-2.0984
X3.1063Y-2.2362
X3.4812Y-5.625
X3.5039Y-4.6732
X3.5079Y-5.0276
X3.6929Y-2.4016
X3.9409Y-5.5945
X4.0236Y-3.8937
X4.0669Y-2.1811
X4.0866Y-5.6535
X4.1024Y-5.3386
X4.1102Y-2.7638
X4.1181Y-5.5276
X4.126Y-4.4882
X4.1299Y-5.2756
X4.2441Y-2.1378
X4.3504Y-3.7362
X4.4016Y-5.1654
X4.4055Y-4.122
X4.4055Y-5.3031
X4.4528Y-2.1378
X4.4803Y-4.0276
X4.4882Y-2.1811
X4.5472Y-5.4882
X4.5512Y-5.4331
X4.5551Y-4.7126
X4.5591Y-5.185
X4.5866Y-5.6575
X4.6309Y-4.0157
X4.6614Y-4.0866
X4.685Y-3.5866
X4.6929Y-5.3465
X4.7087Y-3.7323
X4.7323Y-2.8031
X4.7441Y-3.3622
X4.7441Y-5.1496
X4.752Y-5.685
X4.7756Y-4.5551
X4.7913Y-5.1811
X4.815Y-3.1063
X4.8465Y-4.3858
X4.8661Y-2.8228
X4.937Y-5.5945
X4.9449Y-5.3228
X5.1142Y-5.5236
X5.1181Y-5.3858
X5.1431Y-3.7205
X5.1431Y-3.9449
X5.1496Y-3.1063
X5.1845Y-2.3346
X5.311Y-4.1575
X5.5197Y-4.1575
X5.5787Y-2.8819
X5.6181Y-3.626
X5.6732Y-3.9449
X5.7953Y-3.3898
X5.8038Y-3.6443
X5.815Y-3.063
X5.8602Y-3.4194
X5.8937Y-5.5906
X5.9134Y-3.0276
X5.9134Y-3.685
X5.9528Y-5.5236
X5.9557Y-3.7347
X5.9623Y-3.0956
X6.0591Y-3.1575
X6.0742Y-5.655
X6.0787Y-4.5394
X6.1027Y-5.625
X6.1378Y-4.315
X6.1575Y-4.4528
X6.1654Y-4.5197
X6.2598Y-5.3661
X6.2735Y-3.7776
X6.2864Y-4.4417
X6.2874Y-5.2795
X6.2884Y-5.1535
X6.2913Y-4.8071
X6.2913Y-5.2008
X6.2963Y-4.9529
X6.3031Y-4.1457
X6.3031Y-4.2598
X6.3504Y-5.563
X6.3937Y-4.2165
X6.4016Y-5.5945
X6.4251Y-5.4407
X6.468Y-5.497
X6.5059Y-4.6684
X6.5157Y-4.8858
X6.5197Y-5.0866
X6.5217Y-4.4173
X6.5354Y-4.7953
X6.5354Y-5.3346
X6.5393Y-4.13
X6.5669Y-4.8238
X6.5669Y-5.3071
X6.5709Y-5.6339
X6.5748Y-4.6614
X6.5826Y-4.1719
X6.5955Y-5.3563
X6.6299Y-3.7874
X6.722Y-5.6033
X6.8465Y-4.4252
X6.8543Y-3.811
X6.8583Y-5.5315
X6.8661Y-3.7598
X6.8819Y-3.8465
X6.9331Y-3.7913
X6.9882Y-3.5
X7.0079Y-4.4213
X7.0433Y-5.6575
X7.0906Y-3.9606
X7.1022Y-4.1919
X7.1033Y-4.2313
X7.1142Y-4.1457
X7.1535Y-4.0709
X7.1535Y-4.1181
X7.1614Y-4.4921
X7.1811Y-4.2913
X7.189Y-4.0413
X7.2909Y-4.7864
X7.3424Y-3.9912
X7.3602Y-3.9308
X7.3701Y-4.2165
X7.4567Y-4.2913
X7.4794Y-4.0028
X7.4803Y-4.0748
X7.4921Y-3.9078
X7.5479Y-3.8077
X7.5571Y-3.9158
X7.5906Y-3.9409
X7.5973Y-3.8697
X7.6368Y-2.8425
X7.7027Y-3.5515
X7.7332Y-3.4646
X7.7402Y-3.5892
X7.7795Y-4.1024
X7.8071Y-4.0512
X7.9035Y-4.1437
X7.9254Y-2.488
X7.9626Y-3.369
X7.9852Y-2.874
X7.9921Y-3.8268
X8.0118Y-3.6063
X8.0157Y-3.126
X8.0197Y-4.0669
X8.0197Y-4.1457
X8.0354Y-2.6535
X8.122Y-4.4291
X8.1496Y-2.6575
X8.1496Y-3.126
X8.1496Y-3.6024
X8.1496Y-4.0748
T4
X2.0709Y-2.1654
X2.0709Y-5.7087
X2.0985Y-2.0985
X2.0985Y-2.2322
X2.0985Y-5.6418
X2.0985Y-5.7755
X2.1654Y-2.0709
X2.1654Y-2.2598
X2.1654Y-5.6142
X2.1654Y-5.8031
X2.2322Y-2.0985
X2.2322Y-2.2322
X2.2322Y-5.6418
X2.2322Y-5.7755
X2.2598Y-2.1654
X2.2598Y-5.7087
X8.3701Y-2.1654
X8.3701Y-5.7087
X8.3978Y-2.0985
X8.3978Y-2.2322
X8.3978Y-5.6418
X8.3978Y-5.7755
X8.4646Y-2.0709
X8.4646Y-2.2598
X8.4646Y-5.6142
X8.4646Y-5.8031
X8.5314Y-2.0985
X8.5314Y-2.2322
X8.5314Y-5.6418
X8.5314Y-5.7755
X8.5591Y-2.1654
X8.5591Y-5.7087
T5
X5.7524Y-4.6244
X5.8024Y-4.7244
X5.8524Y-4.6244
X5.9024Y-4.7244
X5.9524Y-4.6244
X6.0024Y-4.7244
X6.0524Y-4.6244
X6.1024Y-4.7244
T6
X2.5276Y-5.7874
X2.6276Y-5.7874
X2.7362Y-2.4016
X2.7362Y-2.9724
X2.7362Y-3.7008
X2.7362Y-4.2717
X2.8346Y-2.9724
X2.8346Y-4.2717
X2.9331Y-2.4016
X2.9331Y-2.9724
X2.9331Y-3.7008
X2.9331Y-4.2717
X3.0472Y-5.7874
X3.1472Y-5.7874
X3.2559Y-4.5354
X3.2559Y-4.9528
X3.2913Y-5.7874
X3.3189Y-4.1024
X3.3559Y-4.5354
X3.3559Y-4.9528
X3.3913Y-5.7874
X3.4189Y-4.1024
X3.7205Y-3.1157
X3.7205Y-3.2157
X3.7205Y-3.3157
X3.7205Y-3.4157
X3.7992Y-5.7874
X3.8992Y-5.7874
X4.0207Y-4.3504
X4.0472Y-5.7874
X4.1207Y-4.3504
X4.1472Y-5.7874
X4.2937Y-5.7874
X4.3937Y-5.7874
X4.5394Y-5.7874
X4.6394Y-5.7874
X4.8567Y-3.4039
X4.8567Y-3.5039
X4.8622Y-5.0591
X4.9222Y-5.7874
X4.9567Y-3.4039
X4.9567Y-3.5039
X4.9606Y-5.0591
X5.0222Y-5.7874
X5.0591Y-5.0591
X5.1703Y-5.7874
X5.2559Y-5.4724
X5.2703Y-5.7874
X5.3543Y-5.4724
X5.4173Y-5.7874
X5.4315Y-4.3228
X5.4528Y-5.4724
X5.5173Y-5.7874
X5.5315Y-4.3228
X5.6654Y-5.7874
X5.7654Y-5.7874
X5.9055Y-4.4094
X5.9222Y-5.4291
X6.0024Y-4.0433
X6.0222Y-5.4291
X6.0433Y-5.7874
X6.0709Y-3.6142
X6.1024Y-4.0433
X6.1433Y-5.7874
X6.1709Y-3.6142
X6.2024Y-4.0433
X6.2913Y-5.7874
X6.3189Y-3.6142
X6.3913Y-5.7874
X6.4189Y-3.6142
X6.5394Y-5.7874
X6.5669Y-3.6142
X6.6394Y-5.7874
X6.6669Y-3.6142
X6.6929Y-4.0433
X6.7929Y-4.0433
X6.815Y-3.6142
X6.915Y-3.6142
X7.063Y-3.6142
X7.163Y-3.6142
X7.311Y-3.6142
X7.3661Y-5.7874
X7.411Y-3.6142
X7.815Y-2.6157
X7.815Y-2.7157
X7.815Y-2.8157
X7.815Y-2.9157
X7.815Y-3.0157
X7.815Y-3.1157
X7.815Y-3.2157
X7.815Y-3.3157
X7.815Y-3.4157
X7.815Y-3.5157
X7.815Y-3.6157
X7.815Y-3.7157
X7.815Y-3.8157
X7.815Y-3.9157
X8.0709Y-5.7874
X8.1709Y-5.7874
X8.2579Y-2.4311
X8.2579Y-2.687
X8.2579Y-2.9035
X8.2579Y-3.1594
X8.2579Y-3.376
X8.2579Y-3.6319
X8.2579Y-3.8484
X8.2579Y-4.1043
X8.3522Y-4.3268
X8.435Y-2.4311
X8.435Y-2.687
X8.435Y-2.9035
X8.435Y-3.1594
X8.435Y-3.376
X8.435Y-3.6319
X8.435Y-3.8484
X8.435Y-4.1043
X8.4522Y-4.3268
X8.5522Y-4.3268
T7
X6.6866Y-4.6386
X6.6866Y-5.3386
X6.6957Y-4.8886
X6.6957Y-4.9886
X6.6957Y-5.0886
X6.7866Y-4.6386
X6.7866Y-5.3386
X6.8866Y-4.6386
X6.8866Y-5.3386
X6.9866Y-4.6386
X6.9866Y-5.3386
X7.0866Y-4.6386
X7.0866Y-5.3386
X7.1866Y-4.6386
X7.1866Y-5.3386
X7.2866Y-4.6386
X7.2866Y-5.3386
X7.3866Y-4.6386
X7.3866Y-5.3386
X7.4866Y-4.6386
X7.4866Y-5.3386
X7.5866Y-4.6386
X7.5866Y-5.3386
X7.6866Y-4.6386
X7.6866Y-5.3386
X7.7866Y-4.6386
X7.7866Y-5.3386
X7.8866Y-4.6386
X7.8866Y-5.3386
X7.9866Y-4.6386
X7.9866Y-5.3386
X8.0866Y-4.6386
X8.0866Y-5.3386
X8.1866Y-4.6386
X8.1866Y-5.3386
X8.2866Y-4.6386
X8.2866Y-5.3386
X8.3866Y-4.6386
X8.3866Y-5.3386
X8.4866Y-4.6386
X8.4866Y-5.3386
X8.5866Y-4.6386
X8.5866Y-5.3386
T8
X2.1654Y-5.3543
X2.6772Y-5.3543
X3.189Y-5.3543
X3.7008Y-5.3543
X3.7323Y-4.9646
X3.752Y-4.7047
X3.8189Y-4.8031
X3.8858Y-4.6063
X3.9055Y-4.9016
X4.2441Y-4.9646
X4.2638Y-4.7047
X4.3307Y-4.8031
X4.3976Y-4.6063
X4.4173Y-4.9016
T9
X2.065Y-5.2539
X2.065Y-5.4547
X2.2657Y-5.2539
X2.2657Y-5.4547
X2.5768Y-5.2539
X2.5768Y-5.4547
X2.7776Y-5.2539
X2.7776Y-5.4547
X3.0886Y-5.2539
X3.0886Y-5.4547
X3.2894Y-5.2539
X3.2894Y-5.4547
X3.6004Y-5.2539
X3.6004Y-5.4547
X3.8012Y-5.2539
X3.8012Y-5.4547
T11
X2.1654Y-2.1654
X2.1654Y-5.7087
X8.4646Y-2.1654
X8.4646Y-5.7087
T10
X5.1457Y-5.189G85X5.1457Y-5.2047
G05
X5.563Y-5.189G85X5.563Y-5.2047
G05
M30
