M48
; DRILL file {KiCad 7.0.10-7.0.10~ubuntu22.04.1} date Wed 03 Jan 2024 06:05:20 PM PST
; FORMAT={-:-/ absolute / inch / decimal}
; #@! TF.CreationDate,2024-01-03T18:05:20-08:00
; #@! TF.GenerationSoftware,Kicad,Pcbnew,7.0.10-7.0.10~ubuntu22.04.1
; #@! TF.FileFunction,Plated,1,2,PTH
FMAT,2
INCH
; #@! TA.AperFunction,Plated,PTH,ViaDrill
T1C0.0157
; #@! TA.AperFunction,Plated,PTH,ComponentDrill
T2C0.0197
; #@! TA.AperFunction,Plated,PTH,ComponentDrill
T3C0.0394
; #@! TA.AperFunction,Plated,PTH,ComponentDrill
T4C0.1260
%
G90
G05
T1
X4.378Y-3.2638
X4.6417Y-3.5315
X5.0039Y-3.5984
T2
X4.0394Y-2.1654
X4.0394Y-3.7402
X4.067Y-2.0985
X4.067Y-2.2322
X4.067Y-3.6733
X4.067Y-3.807
X4.1339Y-2.0709
X4.1339Y-2.2598
X4.1339Y-3.6457
X4.1339Y-3.8346
X4.2007Y-2.0985
X4.2007Y-2.2322
X4.2007Y-3.6733
X4.2007Y-3.807
X4.2283Y-2.1654
X4.2283Y-3.7402
X5.6142Y-2.1654
X5.6142Y-3.7402
X5.6418Y-2.0985
X5.6418Y-2.2322
X5.6418Y-3.6733
X5.6418Y-3.807
X5.7087Y-2.0709
X5.7087Y-2.2598
X5.7087Y-3.6457
X5.7087Y-3.8346
X5.7755Y-2.0985
X5.7755Y-2.2322
X5.7755Y-3.6733
X5.7755Y-3.807
X5.8031Y-2.1654
X5.8031Y-3.7402
T3
X4.7815Y-2.44
X4.7815Y-2.7549
X4.7815Y-2.9449
X4.7815Y-3.1014
X4.7815Y-3.2864
X4.7819Y-2.126
X4.7819Y-2.2835
X4.7819Y-2.5984
X4.7819Y-3.4449
X4.8815Y-2.44
X4.8815Y-2.7549
X4.8815Y-2.9449
X4.8815Y-3.1014
X4.8815Y-3.2864
X4.8819Y-2.126
X4.8819Y-2.2835
X4.8819Y-2.5984
X4.8819Y-3.4449
X5.0689Y-2.9449
X5.0689Y-3.1014
X5.0689Y-3.2864
X5.0689Y-3.4439
X5.0728Y-2.125
X5.0728Y-2.2825
X5.0728Y-2.44
X5.0728Y-2.7549
X5.0732Y-2.5984
X5.1689Y-2.9449
X5.1689Y-3.1014
X5.1689Y-3.2864
X5.1689Y-3.4439
X5.1728Y-2.125
X5.1728Y-2.2825
X5.1728Y-2.44
X5.1728Y-2.7549
X5.1732Y-2.5984
X5.3602Y-2.5984
X5.3602Y-2.7549
X5.3622Y-2.4409
X5.3642Y-2.125
X5.3642Y-2.2825
X5.3642Y-2.9449
X5.3642Y-3.1014
X5.3642Y-3.2864
X5.3642Y-3.4439
X5.4602Y-2.5984
X5.4602Y-2.7549
X5.4622Y-2.4409
X5.4642Y-2.125
X5.4642Y-2.2825
X5.4642Y-2.9449
X5.4642Y-3.1014
X5.4642Y-3.2864
X5.4642Y-3.4439
X5.6516Y-2.9449
X5.6516Y-3.1014
X5.6516Y-3.2864
X5.6516Y-3.4439
X5.6531Y-2.44
X5.6535Y-2.5984
X5.6555Y-2.7549
X5.7516Y-2.9449
X5.7516Y-3.1014
X5.7516Y-3.2864
X5.7516Y-3.4439
X5.7531Y-2.44
X5.7535Y-2.5984
X5.7555Y-2.7549
T4
X4.1339Y-2.1654
X4.1339Y-3.7402
X5.7087Y-2.1654
X5.7087Y-3.7402
T3
X4.2441Y-2.4921G85X4.2441Y-2.5709
G05
X4.4016Y-2.7165G85X4.3228Y-2.7165
G05
X4.4803Y-2.4823G85X4.4803Y-2.5807
G05
M30
