%TF.GenerationSoftware,KiCad,Pcbnew,7.0.10-7.0.10~ubuntu22.04.1*%
%TF.CreationDate,2024-01-03T18:05:14-08:00*%
%TF.ProjectId,YamhillPowerDistribution,59616d68-696c-46c5-906f-776572446973,A*%
%TF.SameCoordinates,Original*%
%TF.FileFunction,Copper,L2,Bot*%
%TF.FilePolarity,Positive*%
%FSLAX46Y46*%
G04 Gerber Fmt 4.6, Leading zero omitted, Abs format (unit mm)*
G04 Created by KiCad (PCBNEW 7.0.10-7.0.10~ubuntu22.04.1) date 2024-01-03 18:05:14*
%MOMM*%
%LPD*%
G01*
G04 APERTURE LIST*
G04 Aperture macros list*
%AMRoundRect*
0 Rectangle with rounded corners*
0 $1 Rounding radius*
0 $2 $3 $4 $5 $6 $7 $8 $9 X,Y pos of 4 corners*
0 Add a 4 corners polygon primitive as box body*
4,1,4,$2,$3,$4,$5,$6,$7,$8,$9,$2,$3,0*
0 Add four circle primitives for the rounded corners*
1,1,$1+$1,$2,$3*
1,1,$1+$1,$4,$5*
1,1,$1+$1,$6,$7*
1,1,$1+$1,$8,$9*
0 Add four rect primitives between the rounded corners*
20,1,$1+$1,$2,$3,$4,$5,0*
20,1,$1+$1,$4,$5,$6,$7,0*
20,1,$1+$1,$6,$7,$8,$9,0*
20,1,$1+$1,$8,$9,$2,$3,0*%
G04 Aperture macros list end*
%TA.AperFunction,ComponentPad*%
%ADD10C,0.800000*%
%TD*%
%TA.AperFunction,ComponentPad*%
%ADD11C,6.400000*%
%TD*%
%TA.AperFunction,ComponentPad*%
%ADD12R,1.700000X1.700000*%
%TD*%
%TA.AperFunction,ComponentPad*%
%ADD13O,1.700000X1.700000*%
%TD*%
%TA.AperFunction,ComponentPad*%
%ADD14RoundRect,0.625000X-0.625000X1.875000X-0.625000X-1.875000X0.625000X-1.875000X0.625000X1.875000X0*%
%TD*%
%TA.AperFunction,ComponentPad*%
%ADD15RoundRect,0.500000X-0.500000X1.750000X-0.500000X-1.750000X0.500000X-1.750000X0.500000X1.750000X0*%
%TD*%
%TA.AperFunction,ComponentPad*%
%ADD16RoundRect,0.500000X-1.500000X0.500000X-1.500000X-0.500000X1.500000X-0.500000X1.500000X0.500000X0*%
%TD*%
%TA.AperFunction,ViaPad*%
%ADD17C,0.800000*%
%TD*%
%TA.AperFunction,Conductor*%
%ADD18C,0.400000*%
%TD*%
%TA.AperFunction,Conductor*%
%ADD19C,0.250000*%
%TD*%
G04 APERTURE END LIST*
D10*
%TO.P,H3,1,1*%
%TO.N,GND*%
X102600000Y-95000000D03*
X103302944Y-93302944D03*
X103302944Y-96697056D03*
X105000000Y-92600000D03*
D11*
X105000000Y-95000000D03*
D10*
X105000000Y-97400000D03*
X106697056Y-93302944D03*
X106697056Y-96697056D03*
X107400000Y-95000000D03*
%TD*%
D12*
%TO.P,J33,1,Pin_1*%
%TO.N,Net-(D1-K)*%
X128860000Y-66000000D03*
D13*
%TO.P,J33,2,Pin_2*%
%TO.N,GND*%
X131400000Y-66000000D03*
%TD*%
D12*
%TO.P,J14,1,Pin_1*%
%TO.N,Net-(D1-K)*%
X136250000Y-53975000D03*
D13*
%TO.P,J14,2,Pin_2*%
%TO.N,GND*%
X138790000Y-53975000D03*
%TD*%
D12*
%TO.P,J5,1,Pin_1*%
%TO.N,Net-(D4-A)*%
X143550000Y-74800000D03*
D13*
%TO.P,J5,2,Pin_2*%
%TO.N,GND*%
X146090000Y-74800000D03*
%TD*%
D12*
%TO.P,J9,1,Pin_1*%
%TO.N,Net-(D4-A)*%
X143550000Y-78775000D03*
D13*
%TO.P,J9,2,Pin_2*%
%TO.N,GND*%
X146090000Y-78775000D03*
%TD*%
D12*
%TO.P,J13,1,Pin_1*%
%TO.N,Net-(D1-K)*%
X128850000Y-53975000D03*
D13*
%TO.P,J13,2,Pin_2*%
%TO.N,GND*%
X131390000Y-53975000D03*
%TD*%
D12*
%TO.P,J2,1,Pin_1*%
%TO.N,Net-(D4-A)*%
X121450000Y-74800000D03*
D13*
%TO.P,J2,2,Pin_2*%
%TO.N,GND*%
X123990000Y-74800000D03*
%TD*%
D10*
%TO.P,H2,1,1*%
%TO.N,GND*%
X142600000Y-55000000D03*
X143302944Y-53302944D03*
X143302944Y-56697056D03*
X145000000Y-52600000D03*
D11*
X145000000Y-55000000D03*
D10*
X145000000Y-57400000D03*
X146697056Y-53302944D03*
X146697056Y-56697056D03*
X147400000Y-55000000D03*
%TD*%
D12*
%TO.P,J22,1,Pin_1*%
%TO.N,Net-(D3-A)*%
X128750000Y-87475000D03*
D13*
%TO.P,J22,2,Pin_2*%
%TO.N,GND*%
X131290000Y-87475000D03*
%TD*%
D12*
%TO.P,J24,1,Pin_1*%
%TO.N,Net-(D3-A)*%
X143550000Y-83475000D03*
D13*
%TO.P,J24,2,Pin_2*%
%TO.N,GND*%
X146090000Y-83475000D03*
%TD*%
D12*
%TO.P,J3,1,Pin_1*%
%TO.N,Net-(D4-A)*%
X128750000Y-74800000D03*
D13*
%TO.P,J3,2,Pin_2*%
%TO.N,GND*%
X131290000Y-74800000D03*
%TD*%
D12*
%TO.P,J26,1,Pin_1*%
%TO.N,Net-(D1-K)*%
X121450000Y-69975000D03*
D13*
%TO.P,J26,2,Pin_2*%
%TO.N,GND*%
X123990000Y-69975000D03*
%TD*%
D12*
%TO.P,J17,1,Pin_1*%
%TO.N,Net-(D1-K)*%
X136250000Y-57975000D03*
D13*
%TO.P,J17,2,Pin_2*%
%TO.N,GND*%
X138790000Y-57975000D03*
%TD*%
D12*
%TO.P,J4,1,Pin_1*%
%TO.N,Net-(D4-A)*%
X136250000Y-74800000D03*
D13*
%TO.P,J4,2,Pin_2*%
%TO.N,GND*%
X138790000Y-74800000D03*
%TD*%
D12*
%TO.P,J29,1,Pin_1*%
%TO.N,Net-(D1-K)*%
X143650000Y-69975000D03*
D13*
%TO.P,J29,2,Pin_2*%
%TO.N,GND*%
X146190000Y-69975000D03*
%TD*%
D12*
%TO.P,J6,1,Pin_1*%
%TO.N,Net-(D4-A)*%
X121450000Y-78775000D03*
D13*
%TO.P,J6,2,Pin_2*%
%TO.N,GND*%
X123990000Y-78775000D03*
%TD*%
D12*
%TO.P,J16,1,Pin_1*%
%TO.N,Net-(D1-K)*%
X128850000Y-57975000D03*
D13*
%TO.P,J16,2,Pin_2*%
%TO.N,GND*%
X131390000Y-57975000D03*
%TD*%
D12*
%TO.P,J20,1,Pin_1*%
%TO.N,Net-(D3-A)*%
X143550000Y-87475000D03*
D13*
%TO.P,J20,2,Pin_2*%
%TO.N,GND*%
X146090000Y-87475000D03*
%TD*%
D12*
%TO.P,J8,1,Pin_1*%
%TO.N,Net-(D4-A)*%
X136250000Y-78775000D03*
D13*
%TO.P,J8,2,Pin_2*%
%TO.N,GND*%
X138790000Y-78775000D03*
%TD*%
D12*
%TO.P,J10,1,Pin_1*%
%TO.N,Net-(D1-K)*%
X121450000Y-61975000D03*
D13*
%TO.P,J10,2,Pin_2*%
%TO.N,GND*%
X123990000Y-61975000D03*
%TD*%
D10*
%TO.P,H4,1,1*%
%TO.N,GND*%
X142600000Y-95000000D03*
X143302944Y-93302944D03*
X143302944Y-96697056D03*
X145000000Y-92600000D03*
D11*
X145000000Y-95000000D03*
D10*
X145000000Y-97400000D03*
X146697056Y-93302944D03*
X146697056Y-96697056D03*
X147400000Y-95000000D03*
%TD*%
D12*
%TO.P,J11,1,Pin_1*%
%TO.N,Net-(D1-K)*%
X128850000Y-61975000D03*
D13*
%TO.P,J11,2,Pin_2*%
%TO.N,GND*%
X131390000Y-61975000D03*
%TD*%
D12*
%TO.P,J21,1,Pin_1*%
%TO.N,Net-(D3-A)*%
X136250000Y-87475000D03*
D13*
%TO.P,J21,2,Pin_2*%
%TO.N,GND*%
X138790000Y-87475000D03*
%TD*%
D12*
%TO.P,J28,1,Pin_1*%
%TO.N,Net-(D1-K)*%
X136150000Y-69975000D03*
D13*
%TO.P,J28,2,Pin_2*%
%TO.N,GND*%
X138690000Y-69975000D03*
%TD*%
D12*
%TO.P,J7,1,Pin_1*%
%TO.N,Net-(D4-A)*%
X128750000Y-78775000D03*
D13*
%TO.P,J7,2,Pin_2*%
%TO.N,GND*%
X131290000Y-78775000D03*
%TD*%
D10*
%TO.P,H1,1,1*%
%TO.N,GND*%
X102600000Y-55000000D03*
X103302944Y-53302944D03*
X103302944Y-56697056D03*
X105000000Y-52600000D03*
D11*
X105000000Y-55000000D03*
D10*
X105000000Y-57400000D03*
X106697056Y-53302944D03*
X106697056Y-56697056D03*
X107400000Y-55000000D03*
%TD*%
D12*
%TO.P,J34,1,Pin_1*%
%TO.N,Net-(D1-K)*%
X136150000Y-66000000D03*
D13*
%TO.P,J34,2,Pin_2*%
%TO.N,GND*%
X138690000Y-66000000D03*
%TD*%
D12*
%TO.P,J31,1,Pin_1*%
%TO.N,Net-(D1-K)*%
X143590000Y-61975000D03*
D13*
%TO.P,J31,2,Pin_2*%
%TO.N,GND*%
X146130000Y-61975000D03*
%TD*%
D14*
%TO.P,J1,1*%
%TO.N,Net-(F1-Pad2)*%
X113800000Y-64300000D03*
D15*
%TO.P,J1,2*%
%TO.N,GND*%
X107800000Y-64300000D03*
D16*
%TO.P,J1,3*%
%TO.N,unconnected-(J1-Pad3)*%
X110800000Y-69000000D03*
%TD*%
D12*
%TO.P,J23,1,Pin_1*%
%TO.N,Net-(D3-A)*%
X121460000Y-87500000D03*
D13*
%TO.P,J23,2,Pin_2*%
%TO.N,GND*%
X124000000Y-87500000D03*
%TD*%
D12*
%TO.P,J15,1,Pin_1*%
%TO.N,Net-(D1-K)*%
X121460000Y-58000000D03*
D13*
%TO.P,J15,2,Pin_2*%
%TO.N,GND*%
X124000000Y-58000000D03*
%TD*%
D12*
%TO.P,J12,1,Pin_1*%
%TO.N,Net-(D1-K)*%
X121460000Y-54000000D03*
D13*
%TO.P,J12,2,Pin_2*%
%TO.N,GND*%
X124000000Y-54000000D03*
%TD*%
D12*
%TO.P,J18,1,Pin_1*%
%TO.N,Net-(D3-A)*%
X121450000Y-83475000D03*
D13*
%TO.P,J18,2,Pin_2*%
%TO.N,GND*%
X123990000Y-83475000D03*
%TD*%
D12*
%TO.P,J35,1,Pin_1*%
%TO.N,Net-(D1-K)*%
X143600000Y-66000000D03*
D13*
%TO.P,J35,2,Pin_2*%
%TO.N,GND*%
X146140000Y-66000000D03*
%TD*%
D12*
%TO.P,J19,1,Pin_1*%
%TO.N,Net-(D3-A)*%
X128750000Y-83475000D03*
D13*
%TO.P,J19,2,Pin_2*%
%TO.N,GND*%
X131290000Y-83475000D03*
%TD*%
D12*
%TO.P,J25,1,Pin_1*%
%TO.N,Net-(D3-A)*%
X136250000Y-83475000D03*
D13*
%TO.P,J25,2,Pin_2*%
%TO.N,GND*%
X138790000Y-83475000D03*
%TD*%
D12*
%TO.P,J32,1,Pin_1*%
%TO.N,Net-(D1-K)*%
X121460000Y-66000000D03*
D13*
%TO.P,J32,2,Pin_2*%
%TO.N,GND*%
X124000000Y-66000000D03*
%TD*%
D12*
%TO.P,J30,1,Pin_1*%
%TO.N,Net-(D1-K)*%
X136200000Y-62000000D03*
D13*
%TO.P,J30,2,Pin_2*%
%TO.N,GND*%
X138740000Y-62000000D03*
%TD*%
D12*
%TO.P,J27,1,Pin_1*%
%TO.N,Net-(D1-K)*%
X128850000Y-69975000D03*
D13*
%TO.P,J27,2,Pin_2*%
%TO.N,GND*%
X131390000Y-69975000D03*
%TD*%
D17*
%TO.N,Net-(D1-K)*%
X117900000Y-89700000D03*
X111200000Y-82900000D03*
%TO.N,Net-(D4-A)*%
X127100000Y-91400000D03*
%TD*%
D18*
%TO.N,Net-(D1-K)*%
X128850000Y-53975000D02*
X128850000Y-52775000D01*
X142800000Y-72400000D02*
X136900000Y-72400000D01*
X111200000Y-80225000D02*
X121450000Y-69975000D01*
X136150000Y-71650000D02*
X136150000Y-69975000D01*
X117900000Y-89600000D02*
X111200000Y-82900000D01*
X143650000Y-69975000D02*
X143650000Y-71550000D01*
X136900000Y-72400000D02*
X136150000Y-71650000D01*
X111200000Y-82900000D02*
X111200000Y-80225000D01*
X121460000Y-54000000D02*
X122735000Y-52725000D01*
X143590000Y-61975000D02*
X143590000Y-69915000D01*
X128850000Y-53975000D02*
X128850000Y-69975000D01*
X136250000Y-53975000D02*
X136250000Y-69875000D01*
X128800000Y-52725000D02*
X135000000Y-52725000D01*
X143650000Y-71550000D02*
X142800000Y-72400000D01*
X135000000Y-52725000D02*
X136250000Y-53975000D01*
X121460000Y-69965000D02*
X121450000Y-69975000D01*
X136250000Y-69875000D02*
X136150000Y-69975000D01*
X121460000Y-54000000D02*
X121460000Y-69965000D01*
X122735000Y-52725000D02*
X128800000Y-52725000D01*
X117900000Y-89700000D02*
X117900000Y-89600000D01*
X143590000Y-69915000D02*
X143650000Y-69975000D01*
X128850000Y-52775000D02*
X128800000Y-52725000D01*
D19*
%TO.N,Net-(D4-A)*%
X128750000Y-73675000D02*
X128800000Y-73625000D01*
X121450000Y-74800000D02*
X122625000Y-73625000D01*
X128750000Y-74800000D02*
X128750000Y-73675000D01*
X136250000Y-74800000D02*
X136250000Y-78775000D01*
X120275000Y-88665000D02*
X120275000Y-79950000D01*
X142375000Y-73625000D02*
X143550000Y-74800000D01*
X136200000Y-73625000D02*
X142375000Y-73625000D01*
X120275000Y-79950000D02*
X121450000Y-78775000D01*
X123010000Y-91400000D02*
X120275000Y-88665000D01*
X128800000Y-73625000D02*
X136200000Y-73625000D01*
X136250000Y-74800000D02*
X136250000Y-73675000D01*
X122625000Y-73625000D02*
X128800000Y-73625000D01*
X121450000Y-74800000D02*
X121450000Y-78775000D01*
X143550000Y-74800000D02*
X143550000Y-78775000D01*
X136250000Y-73675000D02*
X136200000Y-73625000D01*
X127100000Y-91400000D02*
X123010000Y-91400000D01*
X128750000Y-74800000D02*
X128750000Y-78775000D01*
%TO.N,Net-(D3-A)*%
X128750000Y-83475000D02*
X128750000Y-87475000D01*
X128800000Y-82300000D02*
X136200000Y-82300000D01*
X122625000Y-82300000D02*
X128800000Y-82300000D01*
X121450000Y-83475000D02*
X122625000Y-82300000D01*
X136250000Y-83475000D02*
X136250000Y-87475000D01*
X128750000Y-83475000D02*
X128750000Y-82350000D01*
X121450000Y-83475000D02*
X121450000Y-87490000D01*
X136200000Y-82300000D02*
X142375000Y-82300000D01*
X136250000Y-83475000D02*
X136250000Y-82350000D01*
X143550000Y-83475000D02*
X143550000Y-87475000D01*
X121450000Y-87490000D02*
X121460000Y-87500000D01*
X142375000Y-82300000D02*
X143550000Y-83475000D01*
X136250000Y-82350000D02*
X136200000Y-82300000D01*
X128750000Y-82350000D02*
X128800000Y-82300000D01*
%TD*%
%TA.AperFunction,Conductor*%
%TO.N,GND*%
G36*
X106856420Y-96502867D02*
G01*
X106794601Y-96461561D01*
X106721680Y-96447056D01*
X106672432Y-96447056D01*
X106599511Y-96461561D01*
X106516816Y-96516816D01*
X106461561Y-96599511D01*
X106442158Y-96697056D01*
X106461561Y-96794601D01*
X106502867Y-96856420D01*
X105944180Y-96297733D01*
X106134870Y-96134870D01*
X106297733Y-95944180D01*
X106856420Y-96502867D01*
G37*
%TD.AperFunction*%
%TA.AperFunction,Conductor*%
G36*
X103865130Y-96134870D02*
G01*
X104055819Y-96297733D01*
X103497135Y-96856416D01*
X103538439Y-96794601D01*
X103557842Y-96697056D01*
X103538439Y-96599511D01*
X103483184Y-96516816D01*
X103400489Y-96461561D01*
X103327568Y-96447056D01*
X103278320Y-96447056D01*
X103205399Y-96461561D01*
X103143577Y-96502868D01*
X103702266Y-95944180D01*
X103865130Y-96134870D01*
G37*
%TD.AperFunction*%
%TA.AperFunction,Conductor*%
G36*
X104055819Y-93702266D02*
G01*
X103865130Y-93865130D01*
X103702266Y-94055818D01*
X103143582Y-93497134D01*
X103205399Y-93538439D01*
X103278320Y-93552944D01*
X103327568Y-93552944D01*
X103400489Y-93538439D01*
X103483184Y-93483184D01*
X103538439Y-93400489D01*
X103557842Y-93302944D01*
X103538439Y-93205399D01*
X103497133Y-93143581D01*
X104055819Y-93702266D01*
G37*
%TD.AperFunction*%
%TA.AperFunction,Conductor*%
G36*
X106461561Y-93205399D02*
G01*
X106442158Y-93302944D01*
X106461561Y-93400489D01*
X106516816Y-93483184D01*
X106599511Y-93538439D01*
X106672432Y-93552944D01*
X106721680Y-93552944D01*
X106794601Y-93538439D01*
X106856415Y-93497135D01*
X106297732Y-94055818D01*
X106134870Y-93865130D01*
X105944180Y-93702266D01*
X106502867Y-93143578D01*
X106461561Y-93205399D01*
G37*
%TD.AperFunction*%
%TA.AperFunction,Conductor*%
G36*
X146856420Y-96502867D02*
G01*
X146794601Y-96461561D01*
X146721680Y-96447056D01*
X146672432Y-96447056D01*
X146599511Y-96461561D01*
X146516816Y-96516816D01*
X146461561Y-96599511D01*
X146442158Y-96697056D01*
X146461561Y-96794601D01*
X146502867Y-96856420D01*
X145944180Y-96297733D01*
X146134870Y-96134870D01*
X146297733Y-95944180D01*
X146856420Y-96502867D01*
G37*
%TD.AperFunction*%
%TA.AperFunction,Conductor*%
G36*
X143865130Y-96134870D02*
G01*
X144055819Y-96297733D01*
X143497135Y-96856416D01*
X143538439Y-96794601D01*
X143557842Y-96697056D01*
X143538439Y-96599511D01*
X143483184Y-96516816D01*
X143400489Y-96461561D01*
X143327568Y-96447056D01*
X143278320Y-96447056D01*
X143205399Y-96461561D01*
X143143577Y-96502868D01*
X143702266Y-95944180D01*
X143865130Y-96134870D01*
G37*
%TD.AperFunction*%
%TA.AperFunction,Conductor*%
G36*
X144055819Y-93702266D02*
G01*
X143865130Y-93865130D01*
X143702266Y-94055818D01*
X143143582Y-93497134D01*
X143205399Y-93538439D01*
X143278320Y-93552944D01*
X143327568Y-93552944D01*
X143400489Y-93538439D01*
X143483184Y-93483184D01*
X143538439Y-93400489D01*
X143557842Y-93302944D01*
X143538439Y-93205399D01*
X143497133Y-93143581D01*
X144055819Y-93702266D01*
G37*
%TD.AperFunction*%
%TA.AperFunction,Conductor*%
G36*
X146461561Y-93205399D02*
G01*
X146442158Y-93302944D01*
X146461561Y-93400489D01*
X146516816Y-93483184D01*
X146599511Y-93538439D01*
X146672432Y-93552944D01*
X146721680Y-93552944D01*
X146794601Y-93538439D01*
X146856415Y-93497135D01*
X146297732Y-94055818D01*
X146134870Y-93865130D01*
X145944180Y-93702266D01*
X146502867Y-93143578D01*
X146461561Y-93205399D01*
G37*
%TD.AperFunction*%
%TA.AperFunction,Conductor*%
G36*
X106856420Y-56502867D02*
G01*
X106794601Y-56461561D01*
X106721680Y-56447056D01*
X106672432Y-56447056D01*
X106599511Y-56461561D01*
X106516816Y-56516816D01*
X106461561Y-56599511D01*
X106442158Y-56697056D01*
X106461561Y-56794601D01*
X106502867Y-56856420D01*
X105944180Y-56297733D01*
X106134870Y-56134870D01*
X106297733Y-55944180D01*
X106856420Y-56502867D01*
G37*
%TD.AperFunction*%
%TA.AperFunction,Conductor*%
G36*
X103865130Y-56134870D02*
G01*
X104055819Y-56297733D01*
X103497135Y-56856416D01*
X103538439Y-56794601D01*
X103557842Y-56697056D01*
X103538439Y-56599511D01*
X103483184Y-56516816D01*
X103400489Y-56461561D01*
X103327568Y-56447056D01*
X103278320Y-56447056D01*
X103205399Y-56461561D01*
X103143577Y-56502868D01*
X103702266Y-55944180D01*
X103865130Y-56134870D01*
G37*
%TD.AperFunction*%
%TA.AperFunction,Conductor*%
G36*
X104055819Y-53702266D02*
G01*
X103865130Y-53865130D01*
X103702266Y-54055818D01*
X103143582Y-53497134D01*
X103205399Y-53538439D01*
X103278320Y-53552944D01*
X103327568Y-53552944D01*
X103400489Y-53538439D01*
X103483184Y-53483184D01*
X103538439Y-53400489D01*
X103557842Y-53302944D01*
X103538439Y-53205399D01*
X103497133Y-53143581D01*
X104055819Y-53702266D01*
G37*
%TD.AperFunction*%
%TA.AperFunction,Conductor*%
G36*
X106461561Y-53205399D02*
G01*
X106442158Y-53302944D01*
X106461561Y-53400489D01*
X106516816Y-53483184D01*
X106599511Y-53538439D01*
X106672432Y-53552944D01*
X106721680Y-53552944D01*
X106794601Y-53538439D01*
X106856415Y-53497135D01*
X106297732Y-54055818D01*
X106134870Y-53865130D01*
X105944180Y-53702266D01*
X106502867Y-53143578D01*
X106461561Y-53205399D01*
G37*
%TD.AperFunction*%
%TA.AperFunction,Conductor*%
G36*
X146856420Y-56502867D02*
G01*
X146794601Y-56461561D01*
X146721680Y-56447056D01*
X146672432Y-56447056D01*
X146599511Y-56461561D01*
X146516816Y-56516816D01*
X146461561Y-56599511D01*
X146442158Y-56697056D01*
X146461561Y-56794601D01*
X146502867Y-56856420D01*
X145944180Y-56297733D01*
X146134870Y-56134870D01*
X146297733Y-55944180D01*
X146856420Y-56502867D01*
G37*
%TD.AperFunction*%
%TA.AperFunction,Conductor*%
G36*
X143865130Y-56134870D02*
G01*
X144055819Y-56297733D01*
X143497135Y-56856416D01*
X143538439Y-56794601D01*
X143557842Y-56697056D01*
X143538439Y-56599511D01*
X143483184Y-56516816D01*
X143400489Y-56461561D01*
X143327568Y-56447056D01*
X143278320Y-56447056D01*
X143205399Y-56461561D01*
X143143577Y-56502868D01*
X143702266Y-55944180D01*
X143865130Y-56134870D01*
G37*
%TD.AperFunction*%
%TA.AperFunction,Conductor*%
G36*
X144055819Y-53702266D02*
G01*
X143865130Y-53865130D01*
X143702266Y-54055818D01*
X143143582Y-53497134D01*
X143205399Y-53538439D01*
X143278320Y-53552944D01*
X143327568Y-53552944D01*
X143400489Y-53538439D01*
X143483184Y-53483184D01*
X143538439Y-53400489D01*
X143557842Y-53302944D01*
X143538439Y-53205399D01*
X143497133Y-53143581D01*
X144055819Y-53702266D01*
G37*
%TD.AperFunction*%
%TA.AperFunction,Conductor*%
G36*
X146461561Y-53205399D02*
G01*
X146442158Y-53302944D01*
X146461561Y-53400489D01*
X146516816Y-53483184D01*
X146599511Y-53538439D01*
X146672432Y-53552944D01*
X146721680Y-53552944D01*
X146794601Y-53538439D01*
X146856415Y-53497135D01*
X146297732Y-54055818D01*
X146134870Y-53865130D01*
X145944180Y-53702266D01*
X146502867Y-53143578D01*
X146461561Y-53205399D01*
G37*
%TD.AperFunction*%
%TA.AperFunction,Conductor*%
G36*
X148055180Y-50009514D02*
G01*
X148059551Y-50009592D01*
X148202327Y-50014707D01*
X148215512Y-50015887D01*
X148345168Y-50034530D01*
X148351679Y-50035645D01*
X148388330Y-50042936D01*
X148390429Y-50043372D01*
X148419731Y-50049747D01*
X148428286Y-50051930D01*
X148688646Y-50128378D01*
X148705211Y-50134558D01*
X148947983Y-50245427D01*
X148963507Y-50253904D01*
X149188036Y-50398200D01*
X149202200Y-50408802D01*
X149403907Y-50583582D01*
X149416417Y-50596092D01*
X149591197Y-50797799D01*
X149601799Y-50811963D01*
X149746095Y-51036492D01*
X149754574Y-51052020D01*
X149865439Y-51294782D01*
X149871622Y-51311358D01*
X149948066Y-51571703D01*
X149950255Y-51580278D01*
X149956614Y-51609508D01*
X149957066Y-51611679D01*
X149964352Y-51648312D01*
X149965472Y-51654854D01*
X149984110Y-51784483D01*
X149985293Y-51797692D01*
X149990405Y-51940433D01*
X149990484Y-51944846D01*
X149999500Y-97491809D01*
X149999500Y-97865542D01*
X149999421Y-97869956D01*
X149989857Y-98138453D01*
X149988674Y-98151686D01*
X149950969Y-98413929D01*
X149947208Y-98431217D01*
X149871622Y-98688641D01*
X149865439Y-98705217D01*
X149754574Y-98947979D01*
X149746095Y-98963507D01*
X149601799Y-99188036D01*
X149591197Y-99202200D01*
X149416417Y-99403907D01*
X149403907Y-99416417D01*
X149202200Y-99591197D01*
X149188036Y-99601799D01*
X148963507Y-99746095D01*
X148947979Y-99754574D01*
X148705217Y-99865439D01*
X148688641Y-99871622D01*
X148432548Y-99946817D01*
X148415260Y-99950578D01*
X148148892Y-99988875D01*
X148135671Y-99990058D01*
X147873532Y-99999421D01*
X147869106Y-99999500D01*
X102130894Y-99999500D01*
X102126468Y-99999421D01*
X101864328Y-99990058D01*
X101851107Y-99988875D01*
X101584739Y-99950578D01*
X101567451Y-99946817D01*
X101311358Y-99871622D01*
X101294782Y-99865439D01*
X101052020Y-99754574D01*
X101036492Y-99746095D01*
X100811963Y-99601799D01*
X100797799Y-99591197D01*
X100596092Y-99416417D01*
X100583582Y-99403907D01*
X100408802Y-99202200D01*
X100398200Y-99188036D01*
X100253904Y-98963507D01*
X100245425Y-98947979D01*
X100134560Y-98705217D01*
X100128377Y-98688641D01*
X100127243Y-98684780D01*
X100053181Y-98432546D01*
X100049422Y-98415266D01*
X100011123Y-98148880D01*
X100009942Y-98135684D01*
X100000579Y-97873531D01*
X100000500Y-97869105D01*
X100000500Y-95000000D01*
X101294922Y-95000000D01*
X101315219Y-95387287D01*
X101375886Y-95770323D01*
X101375887Y-95770330D01*
X101476262Y-96144936D01*
X101615244Y-96506994D01*
X101791310Y-96852543D01*
X102002531Y-97177793D01*
X102211095Y-97435350D01*
X102211096Y-97435350D01*
X103108756Y-96537689D01*
X103067449Y-96599511D01*
X103048046Y-96697056D01*
X103067449Y-96794601D01*
X103122704Y-96877296D01*
X103205399Y-96932551D01*
X103278320Y-96947056D01*
X103327568Y-96947056D01*
X103400489Y-96932551D01*
X103462304Y-96891247D01*
X102564648Y-97788903D01*
X102564649Y-97788904D01*
X102822206Y-97997468D01*
X103147456Y-98208689D01*
X103493005Y-98384755D01*
X103855063Y-98523737D01*
X104229669Y-98624112D01*
X104229676Y-98624113D01*
X104612712Y-98684780D01*
X104999999Y-98705078D01*
X105000001Y-98705078D01*
X105387287Y-98684780D01*
X105770323Y-98624113D01*
X105770330Y-98624112D01*
X106144936Y-98523737D01*
X106506994Y-98384755D01*
X106852543Y-98208689D01*
X107177783Y-97997476D01*
X107177785Y-97997475D01*
X107435349Y-97788902D01*
X106537691Y-96891244D01*
X106599511Y-96932551D01*
X106672432Y-96947056D01*
X106721680Y-96947056D01*
X106794601Y-96932551D01*
X106877296Y-96877296D01*
X106932551Y-96794601D01*
X106951954Y-96697056D01*
X106932551Y-96599511D01*
X106891244Y-96537691D01*
X107788902Y-97435349D01*
X107997475Y-97177785D01*
X107997476Y-97177783D01*
X108208689Y-96852543D01*
X108384755Y-96506994D01*
X108523737Y-96144936D01*
X108624112Y-95770330D01*
X108624113Y-95770323D01*
X108684780Y-95387287D01*
X108705078Y-95000000D01*
X141294922Y-95000000D01*
X141315219Y-95387287D01*
X141375886Y-95770323D01*
X141375887Y-95770330D01*
X141476262Y-96144936D01*
X141615244Y-96506994D01*
X141791310Y-96852543D01*
X142002531Y-97177793D01*
X142211095Y-97435350D01*
X142211096Y-97435350D01*
X143108756Y-96537689D01*
X143067449Y-96599511D01*
X143048046Y-96697056D01*
X143067449Y-96794601D01*
X143122704Y-96877296D01*
X143205399Y-96932551D01*
X143278320Y-96947056D01*
X143327568Y-96947056D01*
X143400489Y-96932551D01*
X143462304Y-96891247D01*
X142564648Y-97788903D01*
X142564649Y-97788904D01*
X142822206Y-97997468D01*
X143147456Y-98208689D01*
X143493005Y-98384755D01*
X143855063Y-98523737D01*
X144229669Y-98624112D01*
X144229676Y-98624113D01*
X144612712Y-98684780D01*
X144999999Y-98705078D01*
X145000001Y-98705078D01*
X145387287Y-98684780D01*
X145770323Y-98624113D01*
X145770330Y-98624112D01*
X146144936Y-98523737D01*
X146506994Y-98384755D01*
X146852543Y-98208689D01*
X147177783Y-97997476D01*
X147177785Y-97997475D01*
X147435349Y-97788902D01*
X146537691Y-96891244D01*
X146599511Y-96932551D01*
X146672432Y-96947056D01*
X146721680Y-96947056D01*
X146794601Y-96932551D01*
X146877296Y-96877296D01*
X146932551Y-96794601D01*
X146951954Y-96697056D01*
X146932551Y-96599511D01*
X146891244Y-96537691D01*
X147788902Y-97435349D01*
X147997475Y-97177785D01*
X147997476Y-97177783D01*
X148208689Y-96852543D01*
X148384755Y-96506994D01*
X148523737Y-96144936D01*
X148624112Y-95770330D01*
X148624113Y-95770323D01*
X148684780Y-95387287D01*
X148705078Y-95000000D01*
X148705078Y-94999999D01*
X148684780Y-94612712D01*
X148624113Y-94229676D01*
X148624112Y-94229669D01*
X148523737Y-93855063D01*
X148384755Y-93493005D01*
X148208689Y-93147456D01*
X147997468Y-92822206D01*
X147788904Y-92564649D01*
X147788903Y-92564648D01*
X146891247Y-93462303D01*
X146932551Y-93400489D01*
X146951954Y-93302944D01*
X146932551Y-93205399D01*
X146877296Y-93122704D01*
X146794601Y-93067449D01*
X146721680Y-93052944D01*
X146672432Y-93052944D01*
X146599511Y-93067449D01*
X146537690Y-93108755D01*
X147435350Y-92211096D01*
X147435350Y-92211095D01*
X147177793Y-92002531D01*
X146852543Y-91791310D01*
X146506994Y-91615244D01*
X146144936Y-91476262D01*
X145770330Y-91375887D01*
X145770323Y-91375886D01*
X145387287Y-91315219D01*
X145000001Y-91294922D01*
X144999999Y-91294922D01*
X144612712Y-91315219D01*
X144229676Y-91375886D01*
X144229669Y-91375887D01*
X143855063Y-91476262D01*
X143493005Y-91615244D01*
X143147456Y-91791310D01*
X142822206Y-92002531D01*
X142564648Y-92211095D01*
X142564648Y-92211096D01*
X143462306Y-93108754D01*
X143400489Y-93067449D01*
X143327568Y-93052944D01*
X143278320Y-93052944D01*
X143205399Y-93067449D01*
X143122704Y-93122704D01*
X143067449Y-93205399D01*
X143048046Y-93302944D01*
X143067449Y-93400489D01*
X143108753Y-93462305D01*
X142211096Y-92564648D01*
X142211095Y-92564648D01*
X142002531Y-92822206D01*
X141791310Y-93147456D01*
X141615244Y-93493005D01*
X141476262Y-93855063D01*
X141375887Y-94229669D01*
X141375886Y-94229676D01*
X141315219Y-94612712D01*
X141294922Y-94999999D01*
X141294922Y-95000000D01*
X108705078Y-95000000D01*
X108705078Y-94999999D01*
X108684780Y-94612712D01*
X108624113Y-94229676D01*
X108624112Y-94229669D01*
X108523737Y-93855063D01*
X108384755Y-93493005D01*
X108208689Y-93147456D01*
X107997468Y-92822206D01*
X107788904Y-92564649D01*
X107788903Y-92564648D01*
X106891247Y-93462303D01*
X106932551Y-93400489D01*
X106951954Y-93302944D01*
X106932551Y-93205399D01*
X106877296Y-93122704D01*
X106794601Y-93067449D01*
X106721680Y-93052944D01*
X106672432Y-93052944D01*
X106599511Y-93067449D01*
X106537690Y-93108755D01*
X107435350Y-92211096D01*
X107435350Y-92211095D01*
X107177793Y-92002531D01*
X106852543Y-91791310D01*
X106506994Y-91615244D01*
X106144936Y-91476262D01*
X105770330Y-91375887D01*
X105770323Y-91375886D01*
X105387287Y-91315219D01*
X105000001Y-91294922D01*
X104999999Y-91294922D01*
X104612712Y-91315219D01*
X104229676Y-91375886D01*
X104229669Y-91375887D01*
X103855063Y-91476262D01*
X103493005Y-91615244D01*
X103147456Y-91791310D01*
X102822206Y-92002531D01*
X102564648Y-92211095D01*
X102564648Y-92211096D01*
X103462306Y-93108754D01*
X103400489Y-93067449D01*
X103327568Y-93052944D01*
X103278320Y-93052944D01*
X103205399Y-93067449D01*
X103122704Y-93122704D01*
X103067449Y-93205399D01*
X103048046Y-93302944D01*
X103067449Y-93400489D01*
X103108753Y-93462305D01*
X102211096Y-92564648D01*
X102211095Y-92564648D01*
X102002531Y-92822206D01*
X101791310Y-93147456D01*
X101615244Y-93493005D01*
X101476262Y-93855063D01*
X101375887Y-94229669D01*
X101375886Y-94229676D01*
X101315219Y-94612712D01*
X101294922Y-94999999D01*
X101294922Y-95000000D01*
X100000500Y-95000000D01*
X100000500Y-82900000D01*
X110294540Y-82900000D01*
X110314326Y-83088256D01*
X110314327Y-83088259D01*
X110372818Y-83268277D01*
X110372821Y-83268284D01*
X110467467Y-83432216D01*
X110570719Y-83546889D01*
X110594129Y-83572888D01*
X110747265Y-83684148D01*
X110747270Y-83684151D01*
X110920191Y-83761142D01*
X110920193Y-83761142D01*
X110920197Y-83761144D01*
X111075130Y-83794075D01*
X111136607Y-83827266D01*
X111137026Y-83827683D01*
X116961751Y-89652408D01*
X116995236Y-89713731D01*
X116997391Y-89727127D01*
X117014326Y-89888256D01*
X117014327Y-89888259D01*
X117072818Y-90068277D01*
X117072821Y-90068284D01*
X117167467Y-90232216D01*
X117294129Y-90372888D01*
X117447265Y-90484148D01*
X117447270Y-90484151D01*
X117620192Y-90561142D01*
X117620197Y-90561144D01*
X117805354Y-90600500D01*
X117805355Y-90600500D01*
X117994644Y-90600500D01*
X117994646Y-90600500D01*
X118179803Y-90561144D01*
X118352730Y-90484151D01*
X118505871Y-90372888D01*
X118632533Y-90232216D01*
X118727179Y-90068284D01*
X118785674Y-89888256D01*
X118805460Y-89700000D01*
X118785674Y-89511744D01*
X118727179Y-89331716D01*
X118632533Y-89167784D01*
X118505871Y-89027112D01*
X118505870Y-89027111D01*
X118352734Y-88915851D01*
X118352729Y-88915848D01*
X118179807Y-88838857D01*
X118179803Y-88838856D01*
X118151864Y-88832917D01*
X118090382Y-88799724D01*
X118089965Y-88799308D01*
X112126503Y-82835846D01*
X112093018Y-82774523D01*
X112090865Y-82761143D01*
X112085674Y-82711744D01*
X112027179Y-82531716D01*
X111932533Y-82367784D01*
X111932344Y-82367574D01*
X111932273Y-82367427D01*
X111928714Y-82362528D01*
X111929610Y-82361876D01*
X111902119Y-82304580D01*
X111900500Y-82284608D01*
X111900500Y-80566518D01*
X111920185Y-80499479D01*
X111936814Y-80478842D01*
X121053838Y-71361817D01*
X121115161Y-71328333D01*
X121141519Y-71325499D01*
X122347871Y-71325499D01*
X122347872Y-71325499D01*
X122407483Y-71319091D01*
X122542331Y-71268796D01*
X122657546Y-71182546D01*
X122743796Y-71067331D01*
X122793002Y-70935401D01*
X122834872Y-70879468D01*
X122900337Y-70855050D01*
X122968610Y-70869901D01*
X122996865Y-70891053D01*
X123118917Y-71013105D01*
X123312421Y-71148600D01*
X123526507Y-71248429D01*
X123526516Y-71248433D01*
X123740000Y-71305634D01*
X123740000Y-70410501D01*
X123847685Y-70459680D01*
X123954237Y-70475000D01*
X124025763Y-70475000D01*
X124132315Y-70459680D01*
X124240000Y-70410501D01*
X124240000Y-71305634D01*
X124453483Y-71248433D01*
X124453492Y-71248429D01*
X124667578Y-71148600D01*
X124861082Y-71013105D01*
X125028105Y-70846082D01*
X125163600Y-70652578D01*
X125263429Y-70438492D01*
X125263432Y-70438486D01*
X125320636Y-70225000D01*
X124423686Y-70225000D01*
X124449493Y-70184844D01*
X124490000Y-70046889D01*
X124490000Y-69903111D01*
X124449493Y-69765156D01*
X124423686Y-69725000D01*
X125320636Y-69725000D01*
X125320635Y-69724999D01*
X125263432Y-69511513D01*
X125263429Y-69511507D01*
X125163600Y-69297422D01*
X125163599Y-69297420D01*
X125028113Y-69103926D01*
X125028108Y-69103920D01*
X124861082Y-68936894D01*
X124667578Y-68801399D01*
X124453492Y-68701570D01*
X124453486Y-68701567D01*
X124240000Y-68644364D01*
X124240000Y-69539498D01*
X124132315Y-69490320D01*
X124025763Y-69475000D01*
X123954237Y-69475000D01*
X123847685Y-69490320D01*
X123740000Y-69539498D01*
X123740000Y-68644364D01*
X123739999Y-68644364D01*
X123526513Y-68701567D01*
X123526507Y-68701570D01*
X123312422Y-68801399D01*
X123312420Y-68801400D01*
X123118926Y-68936886D01*
X122996865Y-69058947D01*
X122935542Y-69092431D01*
X122865850Y-69087447D01*
X122809917Y-69045575D01*
X122793002Y-69014598D01*
X122743797Y-68882671D01*
X122743793Y-68882664D01*
X122657547Y-68767455D01*
X122657544Y-68767452D01*
X122542335Y-68681206D01*
X122542328Y-68681202D01*
X122407482Y-68630908D01*
X122407483Y-68630908D01*
X122347883Y-68624501D01*
X122347881Y-68624500D01*
X122347873Y-68624500D01*
X122347865Y-68624500D01*
X122284500Y-68624500D01*
X122217461Y-68604815D01*
X122171706Y-68552011D01*
X122160500Y-68500500D01*
X122160500Y-67474499D01*
X122180185Y-67407460D01*
X122232989Y-67361705D01*
X122284500Y-67350499D01*
X122357871Y-67350499D01*
X122357872Y-67350499D01*
X122417483Y-67344091D01*
X122552331Y-67293796D01*
X122667546Y-67207546D01*
X122753796Y-67092331D01*
X122803002Y-66960401D01*
X122844872Y-66904468D01*
X122910337Y-66880050D01*
X122978610Y-66894901D01*
X123006865Y-66916053D01*
X123128917Y-67038105D01*
X123322421Y-67173600D01*
X123536507Y-67273429D01*
X123536516Y-67273433D01*
X123750000Y-67330634D01*
X123750000Y-66435501D01*
X123857685Y-66484680D01*
X123964237Y-66500000D01*
X124035763Y-66500000D01*
X124142315Y-66484680D01*
X124250000Y-66435501D01*
X124250000Y-67330633D01*
X124463483Y-67273433D01*
X124463492Y-67273429D01*
X124677578Y-67173600D01*
X124871082Y-67038105D01*
X125038105Y-66871082D01*
X125173600Y-66677578D01*
X125273429Y-66463492D01*
X125273432Y-66463486D01*
X125330636Y-66250000D01*
X124433686Y-66250000D01*
X124459493Y-66209844D01*
X124500000Y-66071889D01*
X124500000Y-65928111D01*
X124459493Y-65790156D01*
X124433686Y-65750000D01*
X125330636Y-65750000D01*
X125330635Y-65749999D01*
X125273432Y-65536513D01*
X125273429Y-65536507D01*
X125173600Y-65322422D01*
X125173599Y-65322420D01*
X125038113Y-65128926D01*
X125038108Y-65128920D01*
X124871082Y-64961894D01*
X124677578Y-64826399D01*
X124463492Y-64726570D01*
X124463486Y-64726567D01*
X124250000Y-64669364D01*
X124250000Y-65564498D01*
X124142315Y-65515320D01*
X124035763Y-65500000D01*
X123964237Y-65500000D01*
X123857685Y-65515320D01*
X123750000Y-65564498D01*
X123750000Y-64669364D01*
X123749999Y-64669364D01*
X123536513Y-64726567D01*
X123536507Y-64726570D01*
X123322422Y-64826399D01*
X123322420Y-64826400D01*
X123128926Y-64961886D01*
X123006865Y-65083947D01*
X122945542Y-65117431D01*
X122875850Y-65112447D01*
X122819917Y-65070575D01*
X122803002Y-65039598D01*
X122753797Y-64907671D01*
X122753793Y-64907664D01*
X122667547Y-64792455D01*
X122667544Y-64792452D01*
X122552335Y-64706206D01*
X122552328Y-64706202D01*
X122417482Y-64655908D01*
X122417483Y-64655908D01*
X122357883Y-64649501D01*
X122357881Y-64649500D01*
X122357873Y-64649500D01*
X122357865Y-64649500D01*
X122284500Y-64649500D01*
X122217461Y-64629815D01*
X122171706Y-64577011D01*
X122160500Y-64525500D01*
X122160500Y-63449499D01*
X122180185Y-63382460D01*
X122232989Y-63336705D01*
X122284500Y-63325499D01*
X122347871Y-63325499D01*
X122347872Y-63325499D01*
X122407483Y-63319091D01*
X122542331Y-63268796D01*
X122657546Y-63182546D01*
X122743796Y-63067331D01*
X122793002Y-62935401D01*
X122834872Y-62879468D01*
X122900337Y-62855050D01*
X122968610Y-62869901D01*
X122996865Y-62891053D01*
X123118917Y-63013105D01*
X123312421Y-63148600D01*
X123526507Y-63248429D01*
X123526516Y-63248433D01*
X123740000Y-63305634D01*
X123740000Y-62410501D01*
X123847685Y-62459680D01*
X123954237Y-62475000D01*
X124025763Y-62475000D01*
X124132315Y-62459680D01*
X124240000Y-62410501D01*
X124240000Y-63305633D01*
X124453483Y-63248433D01*
X124453492Y-63248429D01*
X124667578Y-63148600D01*
X124861082Y-63013105D01*
X125028105Y-62846082D01*
X125163600Y-62652578D01*
X125263429Y-62438492D01*
X125263432Y-62438486D01*
X125320636Y-62225000D01*
X124423686Y-62225000D01*
X124449493Y-62184844D01*
X124490000Y-62046889D01*
X124490000Y-61903111D01*
X124449493Y-61765156D01*
X124423686Y-61725000D01*
X125320636Y-61725000D01*
X125320635Y-61724999D01*
X125263432Y-61511513D01*
X125263429Y-61511507D01*
X125163600Y-61297422D01*
X125163599Y-61297420D01*
X125028113Y-61103926D01*
X125028108Y-61103920D01*
X124861082Y-60936894D01*
X124667578Y-60801399D01*
X124453492Y-60701570D01*
X124453486Y-60701567D01*
X124240000Y-60644364D01*
X124240000Y-61539498D01*
X124132315Y-61490320D01*
X124025763Y-61475000D01*
X123954237Y-61475000D01*
X123847685Y-61490320D01*
X123740000Y-61539498D01*
X123740000Y-60644364D01*
X123739999Y-60644364D01*
X123526513Y-60701567D01*
X123526507Y-60701570D01*
X123312422Y-60801399D01*
X123312420Y-60801400D01*
X123118926Y-60936886D01*
X122996865Y-61058947D01*
X122935542Y-61092431D01*
X122865850Y-61087447D01*
X122809917Y-61045575D01*
X122793002Y-61014598D01*
X122743797Y-60882671D01*
X122743793Y-60882664D01*
X122657547Y-60767455D01*
X122657544Y-60767452D01*
X122542335Y-60681206D01*
X122542328Y-60681202D01*
X122407482Y-60630908D01*
X122407483Y-60630908D01*
X122347883Y-60624501D01*
X122347881Y-60624500D01*
X122347873Y-60624500D01*
X122347865Y-60624500D01*
X122284500Y-60624500D01*
X122217461Y-60604815D01*
X122171706Y-60552011D01*
X122160500Y-60500500D01*
X122160500Y-59474499D01*
X122180185Y-59407460D01*
X122232989Y-59361705D01*
X122284500Y-59350499D01*
X122357871Y-59350499D01*
X122357872Y-59350499D01*
X122417483Y-59344091D01*
X122552331Y-59293796D01*
X122667546Y-59207546D01*
X122753796Y-59092331D01*
X122803002Y-58960401D01*
X122844872Y-58904468D01*
X122910337Y-58880050D01*
X122978610Y-58894901D01*
X123006865Y-58916053D01*
X123128917Y-59038105D01*
X123322421Y-59173600D01*
X123536507Y-59273429D01*
X123536516Y-59273433D01*
X123750000Y-59330634D01*
X123750000Y-58435501D01*
X123857685Y-58484680D01*
X123964237Y-58500000D01*
X124035763Y-58500000D01*
X124142315Y-58484680D01*
X124250000Y-58435501D01*
X124250000Y-59330633D01*
X124463483Y-59273433D01*
X124463492Y-59273429D01*
X124677578Y-59173600D01*
X124871082Y-59038105D01*
X125038105Y-58871082D01*
X125173600Y-58677578D01*
X125273429Y-58463492D01*
X125273432Y-58463486D01*
X125330636Y-58250000D01*
X124433686Y-58250000D01*
X124459493Y-58209844D01*
X124500000Y-58071889D01*
X124500000Y-57928111D01*
X124459493Y-57790156D01*
X124433686Y-57750000D01*
X125330636Y-57750000D01*
X125330635Y-57749999D01*
X125273432Y-57536513D01*
X125273429Y-57536507D01*
X125173600Y-57322422D01*
X125173599Y-57322420D01*
X125038113Y-57128926D01*
X125038108Y-57128920D01*
X124871082Y-56961894D01*
X124677578Y-56826399D01*
X124463492Y-56726570D01*
X124463486Y-56726567D01*
X124250000Y-56669364D01*
X124250000Y-57564498D01*
X124142315Y-57515320D01*
X124035763Y-57500000D01*
X123964237Y-57500000D01*
X123857685Y-57515320D01*
X123750000Y-57564498D01*
X123750000Y-56669364D01*
X123749999Y-56669364D01*
X123536513Y-56726567D01*
X123536507Y-56726570D01*
X123322422Y-56826399D01*
X123322420Y-56826400D01*
X123128926Y-56961886D01*
X123006865Y-57083947D01*
X122945542Y-57117431D01*
X122875850Y-57112447D01*
X122819917Y-57070575D01*
X122803002Y-57039598D01*
X122794766Y-57017517D01*
X122764693Y-56936886D01*
X122753797Y-56907671D01*
X122753793Y-56907664D01*
X122667547Y-56792455D01*
X122667544Y-56792452D01*
X122552335Y-56706206D01*
X122552328Y-56706202D01*
X122417482Y-56655908D01*
X122417483Y-56655908D01*
X122357883Y-56649501D01*
X122357881Y-56649500D01*
X122357873Y-56649500D01*
X122357865Y-56649500D01*
X122284500Y-56649500D01*
X122217461Y-56629815D01*
X122171706Y-56577011D01*
X122160500Y-56525500D01*
X122160500Y-55474499D01*
X122180185Y-55407460D01*
X122232989Y-55361705D01*
X122284500Y-55350499D01*
X122357871Y-55350499D01*
X122357872Y-55350499D01*
X122417483Y-55344091D01*
X122552331Y-55293796D01*
X122667546Y-55207546D01*
X122753796Y-55092331D01*
X122803002Y-54960401D01*
X122844872Y-54904468D01*
X122910337Y-54880050D01*
X122978610Y-54894901D01*
X123006865Y-54916053D01*
X123128917Y-55038105D01*
X123322421Y-55173600D01*
X123536507Y-55273429D01*
X123536516Y-55273433D01*
X123750000Y-55330634D01*
X123750000Y-54435501D01*
X123857685Y-54484680D01*
X123964237Y-54500000D01*
X124035763Y-54500000D01*
X124142315Y-54484680D01*
X124250000Y-54435501D01*
X124250000Y-55330633D01*
X124463483Y-55273433D01*
X124463492Y-55273429D01*
X124677578Y-55173600D01*
X124871082Y-55038105D01*
X125038105Y-54871082D01*
X125173600Y-54677578D01*
X125273429Y-54463492D01*
X125273432Y-54463486D01*
X125330636Y-54250000D01*
X124433686Y-54250000D01*
X124459493Y-54209844D01*
X124500000Y-54071889D01*
X124500000Y-53928111D01*
X124459493Y-53790156D01*
X124433686Y-53750000D01*
X125330636Y-53750000D01*
X125330635Y-53749999D01*
X125285511Y-53581594D01*
X125287174Y-53511744D01*
X125326336Y-53453881D01*
X125390564Y-53426377D01*
X125405286Y-53425500D01*
X127375500Y-53425500D01*
X127442539Y-53445185D01*
X127488294Y-53497989D01*
X127499500Y-53549500D01*
X127499500Y-54872870D01*
X127499501Y-54872876D01*
X127505908Y-54932483D01*
X127556202Y-55067328D01*
X127556206Y-55067335D01*
X127642452Y-55182544D01*
X127642455Y-55182547D01*
X127757664Y-55268793D01*
X127757671Y-55268797D01*
X127770101Y-55273433D01*
X127892517Y-55319091D01*
X127952127Y-55325500D01*
X128025500Y-55325499D01*
X128092538Y-55345183D01*
X128138294Y-55397986D01*
X128149500Y-55449499D01*
X128149500Y-56500500D01*
X128129815Y-56567539D01*
X128077011Y-56613294D01*
X128025502Y-56624500D01*
X127952130Y-56624500D01*
X127952123Y-56624501D01*
X127892516Y-56630908D01*
X127757671Y-56681202D01*
X127757664Y-56681206D01*
X127642455Y-56767452D01*
X127642452Y-56767455D01*
X127556206Y-56882664D01*
X127556202Y-56882671D01*
X127505908Y-57017517D01*
X127499501Y-57077116D01*
X127499500Y-57077135D01*
X127499500Y-58872870D01*
X127499501Y-58872876D01*
X127505908Y-58932483D01*
X127556202Y-59067328D01*
X127556206Y-59067335D01*
X127642452Y-59182544D01*
X127642455Y-59182547D01*
X127757664Y-59268793D01*
X127757671Y-59268797D01*
X127770101Y-59273433D01*
X127892517Y-59319091D01*
X127952127Y-59325500D01*
X128025500Y-59325499D01*
X128092538Y-59345183D01*
X128138294Y-59397986D01*
X128149500Y-59449499D01*
X128149500Y-60500500D01*
X128129815Y-60567539D01*
X128077011Y-60613294D01*
X128025502Y-60624500D01*
X127952130Y-60624500D01*
X127952123Y-60624501D01*
X127892516Y-60630908D01*
X127757671Y-60681202D01*
X127757664Y-60681206D01*
X127642455Y-60767452D01*
X127642452Y-60767455D01*
X127556206Y-60882664D01*
X127556202Y-60882671D01*
X127505908Y-61017517D01*
X127499501Y-61077116D01*
X127499500Y-61077135D01*
X127499500Y-62872870D01*
X127499501Y-62872876D01*
X127505908Y-62932483D01*
X127556202Y-63067328D01*
X127556206Y-63067335D01*
X127642452Y-63182544D01*
X127642455Y-63182547D01*
X127757664Y-63268793D01*
X127757671Y-63268797D01*
X127770101Y-63273433D01*
X127892517Y-63319091D01*
X127952127Y-63325500D01*
X128025500Y-63325499D01*
X128092538Y-63345183D01*
X128138294Y-63397986D01*
X128149500Y-63449499D01*
X128149500Y-64525500D01*
X128129815Y-64592539D01*
X128077011Y-64638294D01*
X128025502Y-64649500D01*
X127962130Y-64649500D01*
X127962123Y-64649501D01*
X127902516Y-64655908D01*
X127767671Y-64706202D01*
X127767664Y-64706206D01*
X127652455Y-64792452D01*
X127652452Y-64792455D01*
X127566206Y-64907664D01*
X127566202Y-64907671D01*
X127515908Y-65042517D01*
X127509501Y-65102116D01*
X127509500Y-65102135D01*
X127509500Y-66897870D01*
X127509501Y-66897876D01*
X127515908Y-66957483D01*
X127566202Y-67092328D01*
X127566206Y-67092335D01*
X127652452Y-67207544D01*
X127652455Y-67207547D01*
X127767664Y-67293793D01*
X127767671Y-67293797D01*
X127777927Y-67297622D01*
X127902517Y-67344091D01*
X127962127Y-67350500D01*
X128025500Y-67350499D01*
X128092538Y-67370183D01*
X128138294Y-67422986D01*
X128149500Y-67474499D01*
X128149500Y-68500500D01*
X128129815Y-68567539D01*
X128077011Y-68613294D01*
X128025502Y-68624500D01*
X127952130Y-68624500D01*
X127952123Y-68624501D01*
X127892516Y-68630908D01*
X127757671Y-68681202D01*
X127757664Y-68681206D01*
X127642455Y-68767452D01*
X127642452Y-68767455D01*
X127556206Y-68882664D01*
X127556202Y-68882671D01*
X127505908Y-69017517D01*
X127499501Y-69077116D01*
X127499500Y-69077135D01*
X127499500Y-70872870D01*
X127499501Y-70872876D01*
X127505908Y-70932483D01*
X127556202Y-71067328D01*
X127556206Y-71067335D01*
X127642452Y-71182544D01*
X127642455Y-71182547D01*
X127757664Y-71268793D01*
X127757671Y-71268797D01*
X127892517Y-71319091D01*
X127892516Y-71319091D01*
X127899444Y-71319835D01*
X127952127Y-71325500D01*
X129747872Y-71325499D01*
X129807483Y-71319091D01*
X129942331Y-71268796D01*
X130057546Y-71182546D01*
X130143796Y-71067331D01*
X130193002Y-70935401D01*
X130234872Y-70879468D01*
X130300337Y-70855050D01*
X130368610Y-70869901D01*
X130396865Y-70891053D01*
X130518917Y-71013105D01*
X130712421Y-71148600D01*
X130926507Y-71248429D01*
X130926516Y-71248433D01*
X131140000Y-71305634D01*
X131140000Y-70410501D01*
X131247685Y-70459680D01*
X131354237Y-70475000D01*
X131425763Y-70475000D01*
X131532315Y-70459680D01*
X131640000Y-70410501D01*
X131640000Y-71305633D01*
X131853483Y-71248433D01*
X131853492Y-71248429D01*
X132067578Y-71148600D01*
X132261082Y-71013105D01*
X132428105Y-70846082D01*
X132563600Y-70652578D01*
X132663429Y-70438492D01*
X132663432Y-70438486D01*
X132720636Y-70225000D01*
X131823686Y-70225000D01*
X131849493Y-70184844D01*
X131890000Y-70046889D01*
X131890000Y-69903111D01*
X131849493Y-69765156D01*
X131823686Y-69725000D01*
X132720636Y-69725000D01*
X132720635Y-69724999D01*
X132663432Y-69511513D01*
X132663429Y-69511507D01*
X132563600Y-69297422D01*
X132563599Y-69297420D01*
X132428113Y-69103926D01*
X132428108Y-69103920D01*
X132261082Y-68936894D01*
X132067578Y-68801399D01*
X131853492Y-68701570D01*
X131853486Y-68701567D01*
X131640000Y-68644364D01*
X131640000Y-69539498D01*
X131532315Y-69490320D01*
X131425763Y-69475000D01*
X131354237Y-69475000D01*
X131247685Y-69490320D01*
X131140000Y-69539498D01*
X131140000Y-68644364D01*
X131139999Y-68644364D01*
X130926513Y-68701567D01*
X130926507Y-68701570D01*
X130712422Y-68801399D01*
X130712420Y-68801400D01*
X130518926Y-68936886D01*
X130396865Y-69058947D01*
X130335542Y-69092431D01*
X130265850Y-69087447D01*
X130209917Y-69045575D01*
X130193002Y-69014598D01*
X130143797Y-68882671D01*
X130143793Y-68882664D01*
X130057547Y-68767455D01*
X130057544Y-68767452D01*
X129942335Y-68681206D01*
X129942328Y-68681202D01*
X129807482Y-68630908D01*
X129807483Y-68630908D01*
X129747883Y-68624501D01*
X129747881Y-68624500D01*
X129747873Y-68624500D01*
X129747865Y-68624500D01*
X129674500Y-68624500D01*
X129607461Y-68604815D01*
X129561706Y-68552011D01*
X129550500Y-68500500D01*
X129550500Y-67474499D01*
X129570185Y-67407460D01*
X129622989Y-67361705D01*
X129674500Y-67350499D01*
X129757871Y-67350499D01*
X129757872Y-67350499D01*
X129817483Y-67344091D01*
X129952331Y-67293796D01*
X130067546Y-67207546D01*
X130153796Y-67092331D01*
X130203002Y-66960401D01*
X130244872Y-66904468D01*
X130310337Y-66880050D01*
X130378610Y-66894901D01*
X130406865Y-66916053D01*
X130528917Y-67038105D01*
X130722421Y-67173600D01*
X130936507Y-67273429D01*
X130936516Y-67273433D01*
X131150000Y-67330634D01*
X131150000Y-66435501D01*
X131257685Y-66484680D01*
X131364237Y-66500000D01*
X131435763Y-66500000D01*
X131542315Y-66484680D01*
X131650000Y-66435501D01*
X131650000Y-67330634D01*
X131863483Y-67273433D01*
X131863492Y-67273429D01*
X132077578Y-67173600D01*
X132271082Y-67038105D01*
X132438105Y-66871082D01*
X132573600Y-66677578D01*
X132673429Y-66463492D01*
X132673432Y-66463486D01*
X132730636Y-66250000D01*
X131833686Y-66250000D01*
X131859493Y-66209844D01*
X131900000Y-66071889D01*
X131900000Y-65928111D01*
X131859493Y-65790156D01*
X131833686Y-65750000D01*
X132730636Y-65750000D01*
X132730635Y-65749999D01*
X132673432Y-65536513D01*
X132673429Y-65536507D01*
X132573600Y-65322422D01*
X132573599Y-65322420D01*
X132438113Y-65128926D01*
X132438108Y-65128920D01*
X132271082Y-64961894D01*
X132077578Y-64826399D01*
X131863492Y-64726570D01*
X131863486Y-64726567D01*
X131650000Y-64669364D01*
X131650000Y-65564498D01*
X131542315Y-65515320D01*
X131435763Y-65500000D01*
X131364237Y-65500000D01*
X131257685Y-65515320D01*
X131150000Y-65564498D01*
X131150000Y-64669364D01*
X131149999Y-64669364D01*
X130936513Y-64726567D01*
X130936507Y-64726570D01*
X130722422Y-64826399D01*
X130722420Y-64826400D01*
X130528926Y-64961886D01*
X130406865Y-65083947D01*
X130345542Y-65117431D01*
X130275850Y-65112447D01*
X130219917Y-65070575D01*
X130203002Y-65039598D01*
X130153797Y-64907671D01*
X130153793Y-64907664D01*
X130067547Y-64792455D01*
X130067544Y-64792452D01*
X129952335Y-64706206D01*
X129952328Y-64706202D01*
X129817482Y-64655908D01*
X129817483Y-64655908D01*
X129757883Y-64649501D01*
X129757881Y-64649500D01*
X129757873Y-64649500D01*
X129757865Y-64649500D01*
X129674500Y-64649500D01*
X129607461Y-64629815D01*
X129561706Y-64577011D01*
X129550500Y-64525500D01*
X129550500Y-63449499D01*
X129570185Y-63382460D01*
X129622989Y-63336705D01*
X129674500Y-63325499D01*
X129747871Y-63325499D01*
X129747872Y-63325499D01*
X129807483Y-63319091D01*
X129942331Y-63268796D01*
X130057546Y-63182546D01*
X130143796Y-63067331D01*
X130193002Y-62935401D01*
X130234872Y-62879468D01*
X130300337Y-62855050D01*
X130368610Y-62869901D01*
X130396865Y-62891053D01*
X130518917Y-63013105D01*
X130712421Y-63148600D01*
X130926507Y-63248429D01*
X130926516Y-63248433D01*
X131140000Y-63305634D01*
X131140000Y-62410501D01*
X131247685Y-62459680D01*
X131354237Y-62475000D01*
X131425763Y-62475000D01*
X131532315Y-62459680D01*
X131640000Y-62410501D01*
X131640000Y-63305633D01*
X131853483Y-63248433D01*
X131853492Y-63248429D01*
X132067578Y-63148600D01*
X132261082Y-63013105D01*
X132428105Y-62846082D01*
X132563600Y-62652578D01*
X132663429Y-62438492D01*
X132663432Y-62438486D01*
X132720636Y-62225000D01*
X131823686Y-62225000D01*
X131849493Y-62184844D01*
X131890000Y-62046889D01*
X131890000Y-61903111D01*
X131849493Y-61765156D01*
X131823686Y-61725000D01*
X132720636Y-61725000D01*
X132720635Y-61724999D01*
X132663432Y-61511513D01*
X132663429Y-61511507D01*
X132563600Y-61297422D01*
X132563599Y-61297420D01*
X132428113Y-61103926D01*
X132428108Y-61103920D01*
X132261082Y-60936894D01*
X132067578Y-60801399D01*
X131853492Y-60701570D01*
X131853486Y-60701567D01*
X131640000Y-60644364D01*
X131640000Y-61539498D01*
X131532315Y-61490320D01*
X131425763Y-61475000D01*
X131354237Y-61475000D01*
X131247685Y-61490320D01*
X131140000Y-61539498D01*
X131140000Y-60644364D01*
X131139999Y-60644364D01*
X130926513Y-60701567D01*
X130926507Y-60701570D01*
X130712422Y-60801399D01*
X130712420Y-60801400D01*
X130518926Y-60936886D01*
X130396865Y-61058947D01*
X130335542Y-61092431D01*
X130265850Y-61087447D01*
X130209917Y-61045575D01*
X130193002Y-61014598D01*
X130143797Y-60882671D01*
X130143793Y-60882664D01*
X130057547Y-60767455D01*
X130057544Y-60767452D01*
X129942335Y-60681206D01*
X129942328Y-60681202D01*
X129807482Y-60630908D01*
X129807483Y-60630908D01*
X129747883Y-60624501D01*
X129747881Y-60624500D01*
X129747873Y-60624500D01*
X129747865Y-60624500D01*
X129674500Y-60624500D01*
X129607461Y-60604815D01*
X129561706Y-60552011D01*
X129550500Y-60500500D01*
X129550500Y-59449499D01*
X129570185Y-59382460D01*
X129622989Y-59336705D01*
X129674500Y-59325499D01*
X129747871Y-59325499D01*
X129747872Y-59325499D01*
X129807483Y-59319091D01*
X129942331Y-59268796D01*
X130057546Y-59182546D01*
X130143796Y-59067331D01*
X130193002Y-58935401D01*
X130234872Y-58879468D01*
X130300337Y-58855050D01*
X130368610Y-58869901D01*
X130396865Y-58891053D01*
X130518917Y-59013105D01*
X130712421Y-59148600D01*
X130926507Y-59248429D01*
X130926516Y-59248433D01*
X131140000Y-59305634D01*
X131140000Y-58410501D01*
X131247685Y-58459680D01*
X131354237Y-58475000D01*
X131425763Y-58475000D01*
X131532315Y-58459680D01*
X131640000Y-58410501D01*
X131640000Y-59305633D01*
X131853483Y-59248433D01*
X131853492Y-59248429D01*
X132067578Y-59148600D01*
X132261082Y-59013105D01*
X132428105Y-58846082D01*
X132563600Y-58652578D01*
X132663429Y-58438492D01*
X132663432Y-58438486D01*
X132720636Y-58225000D01*
X131823686Y-58225000D01*
X131849493Y-58184844D01*
X131890000Y-58046889D01*
X131890000Y-57903111D01*
X131849493Y-57765156D01*
X131823686Y-57725000D01*
X132720636Y-57725000D01*
X132720635Y-57724999D01*
X132663432Y-57511513D01*
X132663429Y-57511507D01*
X132563600Y-57297422D01*
X132563599Y-57297420D01*
X132428113Y-57103926D01*
X132428108Y-57103920D01*
X132261082Y-56936894D01*
X132067578Y-56801399D01*
X131853492Y-56701570D01*
X131853486Y-56701567D01*
X131640000Y-56644364D01*
X131640000Y-57539498D01*
X131532315Y-57490320D01*
X131425763Y-57475000D01*
X131354237Y-57475000D01*
X131247685Y-57490320D01*
X131140000Y-57539498D01*
X131140000Y-56644364D01*
X131139999Y-56644364D01*
X130926513Y-56701567D01*
X130926507Y-56701570D01*
X130712422Y-56801399D01*
X130712420Y-56801400D01*
X130518926Y-56936886D01*
X130396865Y-57058947D01*
X130335542Y-57092431D01*
X130265850Y-57087447D01*
X130209917Y-57045575D01*
X130193002Y-57014598D01*
X130143797Y-56882671D01*
X130143793Y-56882664D01*
X130057547Y-56767455D01*
X130057544Y-56767452D01*
X129942335Y-56681206D01*
X129942328Y-56681202D01*
X129807482Y-56630908D01*
X129807483Y-56630908D01*
X129747883Y-56624501D01*
X129747881Y-56624500D01*
X129747873Y-56624500D01*
X129747865Y-56624500D01*
X129674500Y-56624500D01*
X129607461Y-56604815D01*
X129561706Y-56552011D01*
X129550500Y-56500500D01*
X129550500Y-55449499D01*
X129570185Y-55382460D01*
X129622989Y-55336705D01*
X129674500Y-55325499D01*
X129747871Y-55325499D01*
X129747872Y-55325499D01*
X129807483Y-55319091D01*
X129942331Y-55268796D01*
X130057546Y-55182546D01*
X130143796Y-55067331D01*
X130193002Y-54935401D01*
X130234872Y-54879468D01*
X130300337Y-54855050D01*
X130368610Y-54869901D01*
X130396865Y-54891053D01*
X130518917Y-55013105D01*
X130712421Y-55148600D01*
X130926507Y-55248429D01*
X130926516Y-55248433D01*
X131140000Y-55305634D01*
X131140000Y-54410501D01*
X131247685Y-54459680D01*
X131354237Y-54475000D01*
X131425763Y-54475000D01*
X131532315Y-54459680D01*
X131640000Y-54410501D01*
X131640000Y-55305633D01*
X131853483Y-55248433D01*
X131853492Y-55248429D01*
X132067578Y-55148600D01*
X132261082Y-55013105D01*
X132428105Y-54846082D01*
X132563600Y-54652578D01*
X132663429Y-54438492D01*
X132663432Y-54438486D01*
X132720636Y-54225000D01*
X131823686Y-54225000D01*
X131849493Y-54184844D01*
X131890000Y-54046889D01*
X131890000Y-53903111D01*
X131849493Y-53765156D01*
X131823686Y-53725000D01*
X132720636Y-53725000D01*
X132720635Y-53724999D01*
X132682210Y-53581594D01*
X132683873Y-53511744D01*
X132723035Y-53453881D01*
X132787264Y-53426377D01*
X132801985Y-53425500D01*
X134658481Y-53425500D01*
X134725520Y-53445185D01*
X134746162Y-53461819D01*
X134863181Y-53578838D01*
X134896666Y-53640161D01*
X134899500Y-53666519D01*
X134899500Y-54872870D01*
X134899501Y-54872876D01*
X134905908Y-54932483D01*
X134956202Y-55067328D01*
X134956206Y-55067335D01*
X135042452Y-55182544D01*
X135042455Y-55182547D01*
X135157664Y-55268793D01*
X135157671Y-55268797D01*
X135170101Y-55273433D01*
X135292517Y-55319091D01*
X135352127Y-55325500D01*
X135425500Y-55325499D01*
X135492538Y-55345183D01*
X135538294Y-55397986D01*
X135549500Y-55449499D01*
X135549500Y-56500500D01*
X135529815Y-56567539D01*
X135477011Y-56613294D01*
X135425502Y-56624500D01*
X135352130Y-56624500D01*
X135352123Y-56624501D01*
X135292516Y-56630908D01*
X135157671Y-56681202D01*
X135157664Y-56681206D01*
X135042455Y-56767452D01*
X135042452Y-56767455D01*
X134956206Y-56882664D01*
X134956202Y-56882671D01*
X134905908Y-57017517D01*
X134899501Y-57077116D01*
X134899500Y-57077135D01*
X134899500Y-58872870D01*
X134899501Y-58872876D01*
X134905908Y-58932483D01*
X134956202Y-59067328D01*
X134956206Y-59067335D01*
X135042452Y-59182544D01*
X135042455Y-59182547D01*
X135157664Y-59268793D01*
X135157671Y-59268797D01*
X135170101Y-59273433D01*
X135292517Y-59319091D01*
X135352127Y-59325500D01*
X135425500Y-59325499D01*
X135492538Y-59345183D01*
X135538294Y-59397986D01*
X135549500Y-59449499D01*
X135549500Y-60525500D01*
X135529815Y-60592539D01*
X135477011Y-60638294D01*
X135425501Y-60649500D01*
X135302130Y-60649500D01*
X135302123Y-60649501D01*
X135242516Y-60655908D01*
X135107671Y-60706202D01*
X135107664Y-60706206D01*
X134992455Y-60792452D01*
X134992452Y-60792455D01*
X134906206Y-60907664D01*
X134906202Y-60907671D01*
X134855908Y-61042517D01*
X134849501Y-61102116D01*
X134849500Y-61102135D01*
X134849500Y-62897870D01*
X134849501Y-62897876D01*
X134855908Y-62957483D01*
X134906202Y-63092328D01*
X134906206Y-63092335D01*
X134992452Y-63207544D01*
X134992455Y-63207547D01*
X135107664Y-63293793D01*
X135107671Y-63293797D01*
X135139408Y-63305634D01*
X135242517Y-63344091D01*
X135302127Y-63350500D01*
X135425500Y-63350499D01*
X135492539Y-63370183D01*
X135538294Y-63422987D01*
X135549500Y-63474499D01*
X135549500Y-64525500D01*
X135529815Y-64592539D01*
X135477011Y-64638294D01*
X135425501Y-64649500D01*
X135252130Y-64649500D01*
X135252123Y-64649501D01*
X135192516Y-64655908D01*
X135057671Y-64706202D01*
X135057664Y-64706206D01*
X134942455Y-64792452D01*
X134942452Y-64792455D01*
X134856206Y-64907664D01*
X134856202Y-64907671D01*
X134805908Y-65042517D01*
X134799501Y-65102116D01*
X134799500Y-65102135D01*
X134799500Y-66897870D01*
X134799501Y-66897876D01*
X134805908Y-66957483D01*
X134856202Y-67092328D01*
X134856206Y-67092335D01*
X134942452Y-67207544D01*
X134942455Y-67207547D01*
X135057664Y-67293793D01*
X135057671Y-67293797D01*
X135067927Y-67297622D01*
X135192517Y-67344091D01*
X135252127Y-67350500D01*
X135425500Y-67350499D01*
X135492539Y-67370183D01*
X135538294Y-67422987D01*
X135549500Y-67474499D01*
X135549500Y-68500500D01*
X135529815Y-68567539D01*
X135477011Y-68613294D01*
X135425501Y-68624500D01*
X135252130Y-68624500D01*
X135252123Y-68624501D01*
X135192516Y-68630908D01*
X135057671Y-68681202D01*
X135057664Y-68681206D01*
X134942455Y-68767452D01*
X134942452Y-68767455D01*
X134856206Y-68882664D01*
X134856202Y-68882671D01*
X134805908Y-69017517D01*
X134799501Y-69077116D01*
X134799500Y-69077135D01*
X134799500Y-70872870D01*
X134799501Y-70872876D01*
X134805908Y-70932483D01*
X134856202Y-71067328D01*
X134856206Y-71067335D01*
X134942452Y-71182544D01*
X134942455Y-71182547D01*
X135057664Y-71268793D01*
X135057671Y-71268797D01*
X135102618Y-71285561D01*
X135192517Y-71319091D01*
X135252127Y-71325500D01*
X135325500Y-71325499D01*
X135392538Y-71345183D01*
X135438294Y-71397986D01*
X135449500Y-71449499D01*
X135449500Y-71625078D01*
X135449274Y-71632566D01*
X135445642Y-71692603D01*
X135445642Y-71692605D01*
X135456483Y-71751770D01*
X135457610Y-71759171D01*
X135464859Y-71818871D01*
X135464860Y-71818874D01*
X135468451Y-71828343D01*
X135474474Y-71849946D01*
X135476304Y-71859930D01*
X135476305Y-71859932D01*
X135492332Y-71895544D01*
X135500991Y-71914782D01*
X135503854Y-71921694D01*
X135525182Y-71977930D01*
X135525183Y-71977931D01*
X135530936Y-71986266D01*
X135541961Y-72005813D01*
X135546120Y-72015055D01*
X135546124Y-72015060D01*
X135583215Y-72062403D01*
X135587655Y-72068438D01*
X135621812Y-72117924D01*
X135621816Y-72117929D01*
X135666828Y-72157805D01*
X135672283Y-72162940D01*
X136293290Y-72783947D01*
X136326775Y-72845270D01*
X136321791Y-72914962D01*
X136279919Y-72970895D01*
X136217281Y-72995077D01*
X136176328Y-72998949D01*
X136164656Y-72999500D01*
X128882743Y-72999500D01*
X128867122Y-72997775D01*
X128867095Y-72998061D01*
X128859333Y-72997326D01*
X128792113Y-72999439D01*
X128788219Y-72999500D01*
X122707743Y-72999500D01*
X122692122Y-72997775D01*
X122692096Y-72998061D01*
X122684334Y-72997327D01*
X122684333Y-72997327D01*
X122622109Y-72999282D01*
X122617127Y-72999439D01*
X122613232Y-72999500D01*
X122585647Y-72999500D01*
X122581661Y-73000003D01*
X122570033Y-73000918D01*
X122526373Y-73002290D01*
X122507129Y-73007881D01*
X122488079Y-73011825D01*
X122468211Y-73014334D01*
X122468210Y-73014334D01*
X122427599Y-73030413D01*
X122416554Y-73034194D01*
X122374614Y-73046379D01*
X122374610Y-73046381D01*
X122357366Y-73056579D01*
X122339905Y-73065133D01*
X122321274Y-73072510D01*
X122321262Y-73072517D01*
X122285933Y-73098185D01*
X122276173Y-73104596D01*
X122238580Y-73126829D01*
X122224414Y-73140995D01*
X122209624Y-73153627D01*
X122193414Y-73165404D01*
X122193411Y-73165407D01*
X122165573Y-73199058D01*
X122157711Y-73207697D01*
X121952227Y-73413181D01*
X121890904Y-73446666D01*
X121864546Y-73449500D01*
X120552129Y-73449500D01*
X120552123Y-73449501D01*
X120492516Y-73455908D01*
X120357671Y-73506202D01*
X120357664Y-73506206D01*
X120242455Y-73592452D01*
X120242452Y-73592455D01*
X120156206Y-73707664D01*
X120156202Y-73707671D01*
X120105908Y-73842517D01*
X120099501Y-73902116D01*
X120099500Y-73902135D01*
X120099500Y-75697870D01*
X120099501Y-75697876D01*
X120105908Y-75757483D01*
X120156202Y-75892328D01*
X120156206Y-75892335D01*
X120242452Y-76007544D01*
X120242455Y-76007547D01*
X120357664Y-76093793D01*
X120357671Y-76093797D01*
X120402618Y-76110561D01*
X120492517Y-76144091D01*
X120552127Y-76150500D01*
X120700500Y-76150499D01*
X120767539Y-76170183D01*
X120813294Y-76222987D01*
X120824500Y-76274499D01*
X120824500Y-77300500D01*
X120804815Y-77367539D01*
X120752011Y-77413294D01*
X120700501Y-77424500D01*
X120552130Y-77424500D01*
X120552123Y-77424501D01*
X120492516Y-77430908D01*
X120357671Y-77481202D01*
X120357664Y-77481206D01*
X120242455Y-77567452D01*
X120242452Y-77567455D01*
X120156206Y-77682664D01*
X120156202Y-77682671D01*
X120105908Y-77817517D01*
X120099501Y-77877116D01*
X120099500Y-77877135D01*
X120099500Y-79189546D01*
X120079815Y-79256585D01*
X120063181Y-79277227D01*
X119891208Y-79449199D01*
X119878951Y-79459020D01*
X119879134Y-79459241D01*
X119873122Y-79464214D01*
X119827098Y-79513223D01*
X119824391Y-79516016D01*
X119804889Y-79535517D01*
X119804875Y-79535534D01*
X119802407Y-79538715D01*
X119794843Y-79547570D01*
X119764937Y-79579418D01*
X119764936Y-79579420D01*
X119755284Y-79596976D01*
X119744610Y-79613226D01*
X119732329Y-79629061D01*
X119732324Y-79629068D01*
X119714975Y-79669158D01*
X119709838Y-79679644D01*
X119688803Y-79717906D01*
X119683822Y-79737307D01*
X119677521Y-79755710D01*
X119669562Y-79774102D01*
X119669561Y-79774105D01*
X119662728Y-79817243D01*
X119660360Y-79828674D01*
X119649501Y-79870971D01*
X119649500Y-79870982D01*
X119649500Y-79891016D01*
X119647973Y-79910415D01*
X119644840Y-79930194D01*
X119644840Y-79930195D01*
X119648950Y-79973674D01*
X119649500Y-79985343D01*
X119649500Y-88582255D01*
X119647775Y-88597872D01*
X119648061Y-88597899D01*
X119647326Y-88605665D01*
X119649439Y-88672872D01*
X119649500Y-88676767D01*
X119649500Y-88704357D01*
X119650003Y-88708335D01*
X119650918Y-88719967D01*
X119652290Y-88763624D01*
X119652291Y-88763627D01*
X119657880Y-88782867D01*
X119661824Y-88801911D01*
X119662295Y-88805633D01*
X119664336Y-88821792D01*
X119680414Y-88862403D01*
X119684197Y-88873452D01*
X119684714Y-88875232D01*
X119696382Y-88915390D01*
X119696653Y-88915849D01*
X119706580Y-88932634D01*
X119715138Y-88950103D01*
X119722514Y-88968732D01*
X119748181Y-89004060D01*
X119754593Y-89013821D01*
X119776828Y-89051417D01*
X119776833Y-89051424D01*
X119790990Y-89065580D01*
X119803628Y-89080376D01*
X119815405Y-89096586D01*
X119815406Y-89096587D01*
X119849057Y-89124425D01*
X119857698Y-89132288D01*
X122509197Y-91783788D01*
X122519022Y-91796051D01*
X122519243Y-91795869D01*
X122524211Y-91801874D01*
X122573222Y-91847899D01*
X122576021Y-91850612D01*
X122595522Y-91870114D01*
X122595526Y-91870117D01*
X122595529Y-91870120D01*
X122598702Y-91872581D01*
X122607574Y-91880159D01*
X122639418Y-91910062D01*
X122656976Y-91919714D01*
X122673235Y-91930395D01*
X122689064Y-91942673D01*
X122729155Y-91960021D01*
X122739626Y-91965151D01*
X122762180Y-91977550D01*
X122777902Y-91986194D01*
X122777904Y-91986195D01*
X122777908Y-91986197D01*
X122797316Y-91991180D01*
X122815719Y-91997481D01*
X122834101Y-92005436D01*
X122834102Y-92005436D01*
X122834104Y-92005437D01*
X122877250Y-92012270D01*
X122888672Y-92014636D01*
X122930981Y-92025500D01*
X122951016Y-92025500D01*
X122970414Y-92027026D01*
X122990194Y-92030159D01*
X122990195Y-92030160D01*
X122990195Y-92030159D01*
X122990196Y-92030160D01*
X123033675Y-92026050D01*
X123045344Y-92025500D01*
X126396252Y-92025500D01*
X126463291Y-92045185D01*
X126488400Y-92066526D01*
X126494126Y-92072885D01*
X126494130Y-92072889D01*
X126647265Y-92184148D01*
X126647270Y-92184151D01*
X126820192Y-92261142D01*
X126820197Y-92261144D01*
X127005354Y-92300500D01*
X127005355Y-92300500D01*
X127194644Y-92300500D01*
X127194646Y-92300500D01*
X127379803Y-92261144D01*
X127552730Y-92184151D01*
X127705871Y-92072888D01*
X127832533Y-91932216D01*
X127927179Y-91768284D01*
X127985674Y-91588256D01*
X128005460Y-91400000D01*
X127985674Y-91211744D01*
X127927179Y-91031716D01*
X127832533Y-90867784D01*
X127705871Y-90727112D01*
X127705870Y-90727111D01*
X127552734Y-90615851D01*
X127552729Y-90615848D01*
X127379807Y-90538857D01*
X127379802Y-90538855D01*
X127234001Y-90507865D01*
X127194646Y-90499500D01*
X127005354Y-90499500D01*
X126972897Y-90506398D01*
X126820197Y-90538855D01*
X126820192Y-90538857D01*
X126647270Y-90615848D01*
X126647265Y-90615851D01*
X126494130Y-90727110D01*
X126494126Y-90727114D01*
X126488400Y-90733474D01*
X126428913Y-90770121D01*
X126396252Y-90774500D01*
X123320452Y-90774500D01*
X123253413Y-90754815D01*
X123232771Y-90738181D01*
X121556771Y-89062180D01*
X121523286Y-89000857D01*
X121528270Y-88931165D01*
X121570142Y-88875232D01*
X121635606Y-88850815D01*
X121644452Y-88850499D01*
X122357871Y-88850499D01*
X122357872Y-88850499D01*
X122417483Y-88844091D01*
X122552331Y-88793796D01*
X122667546Y-88707546D01*
X122753796Y-88592331D01*
X122803002Y-88460401D01*
X122844872Y-88404468D01*
X122910337Y-88380050D01*
X122978610Y-88394901D01*
X123006865Y-88416053D01*
X123128917Y-88538105D01*
X123322421Y-88673600D01*
X123536507Y-88773429D01*
X123536516Y-88773433D01*
X123750000Y-88830634D01*
X123750000Y-87935501D01*
X123857685Y-87984680D01*
X123964237Y-88000000D01*
X124035763Y-88000000D01*
X124142315Y-87984680D01*
X124250000Y-87935501D01*
X124250000Y-88830633D01*
X124463483Y-88773433D01*
X124463492Y-88773429D01*
X124677578Y-88673600D01*
X124871082Y-88538105D01*
X125038105Y-88371082D01*
X125173600Y-88177578D01*
X125273429Y-87963492D01*
X125273432Y-87963486D01*
X125330636Y-87750000D01*
X124433686Y-87750000D01*
X124459493Y-87709844D01*
X124500000Y-87571889D01*
X124500000Y-87428111D01*
X124459493Y-87290156D01*
X124433686Y-87250000D01*
X125330636Y-87250000D01*
X125330635Y-87249999D01*
X125273432Y-87036513D01*
X125273429Y-87036507D01*
X125173600Y-86822422D01*
X125173599Y-86822420D01*
X125038113Y-86628926D01*
X125038108Y-86628920D01*
X124871082Y-86461894D01*
X124677578Y-86326399D01*
X124463492Y-86226570D01*
X124463486Y-86226567D01*
X124250000Y-86169364D01*
X124250000Y-87064498D01*
X124142315Y-87015320D01*
X124035763Y-87000000D01*
X123964237Y-87000000D01*
X123857685Y-87015320D01*
X123750000Y-87064498D01*
X123750000Y-86169364D01*
X123749999Y-86169364D01*
X123536513Y-86226567D01*
X123536507Y-86226570D01*
X123322422Y-86326399D01*
X123322420Y-86326400D01*
X123128926Y-86461886D01*
X123006865Y-86583947D01*
X122945542Y-86617431D01*
X122875850Y-86612447D01*
X122819917Y-86570575D01*
X122803002Y-86539598D01*
X122794766Y-86517517D01*
X122753796Y-86407669D01*
X122753795Y-86407668D01*
X122753793Y-86407664D01*
X122667547Y-86292455D01*
X122667544Y-86292452D01*
X122552335Y-86206206D01*
X122552328Y-86206202D01*
X122417482Y-86155908D01*
X122417483Y-86155908D01*
X122357883Y-86149501D01*
X122357881Y-86149500D01*
X122357873Y-86149500D01*
X122357865Y-86149500D01*
X122199500Y-86149500D01*
X122132461Y-86129815D01*
X122086706Y-86077011D01*
X122075500Y-86025500D01*
X122075500Y-84949499D01*
X122095185Y-84882460D01*
X122147989Y-84836705D01*
X122199500Y-84825499D01*
X122347871Y-84825499D01*
X122347872Y-84825499D01*
X122407483Y-84819091D01*
X122542331Y-84768796D01*
X122657546Y-84682546D01*
X122743796Y-84567331D01*
X122793002Y-84435401D01*
X122834872Y-84379468D01*
X122900337Y-84355050D01*
X122968610Y-84369901D01*
X122996865Y-84391053D01*
X123118917Y-84513105D01*
X123312421Y-84648600D01*
X123526507Y-84748429D01*
X123526516Y-84748433D01*
X123740000Y-84805634D01*
X123740000Y-83910501D01*
X123847685Y-83959680D01*
X123954237Y-83975000D01*
X124025763Y-83975000D01*
X124132315Y-83959680D01*
X124240000Y-83910501D01*
X124240000Y-84805634D01*
X124453483Y-84748433D01*
X124453492Y-84748429D01*
X124667578Y-84648600D01*
X124861082Y-84513105D01*
X125028105Y-84346082D01*
X125163600Y-84152578D01*
X125263429Y-83938492D01*
X125263432Y-83938486D01*
X125320636Y-83725000D01*
X124423686Y-83725000D01*
X124449493Y-83684844D01*
X124490000Y-83546889D01*
X124490000Y-83403111D01*
X124449493Y-83265156D01*
X124423686Y-83225000D01*
X125320636Y-83225000D01*
X125320635Y-83224999D01*
X125282210Y-83081594D01*
X125283873Y-83011744D01*
X125323035Y-82953881D01*
X125387264Y-82926377D01*
X125401985Y-82925500D01*
X127275500Y-82925500D01*
X127342539Y-82945185D01*
X127388294Y-82997989D01*
X127399500Y-83049500D01*
X127399500Y-84372870D01*
X127399501Y-84372876D01*
X127405908Y-84432483D01*
X127456202Y-84567328D01*
X127456206Y-84567335D01*
X127542452Y-84682544D01*
X127542455Y-84682547D01*
X127657664Y-84768793D01*
X127657671Y-84768797D01*
X127702618Y-84785561D01*
X127792517Y-84819091D01*
X127852127Y-84825500D01*
X128000500Y-84825499D01*
X128067539Y-84845183D01*
X128113294Y-84897987D01*
X128124500Y-84949499D01*
X128124500Y-86000500D01*
X128104815Y-86067539D01*
X128052011Y-86113294D01*
X128000501Y-86124500D01*
X127852130Y-86124500D01*
X127852123Y-86124501D01*
X127792516Y-86130908D01*
X127657671Y-86181202D01*
X127657664Y-86181206D01*
X127542455Y-86267452D01*
X127542452Y-86267455D01*
X127456206Y-86382664D01*
X127456202Y-86382671D01*
X127405908Y-86517517D01*
X127399501Y-86577116D01*
X127399500Y-86577135D01*
X127399500Y-88372870D01*
X127399501Y-88372876D01*
X127405908Y-88432483D01*
X127456202Y-88567328D01*
X127456206Y-88567335D01*
X127542452Y-88682544D01*
X127542455Y-88682547D01*
X127657664Y-88768793D01*
X127657671Y-88768797D01*
X127792517Y-88819091D01*
X127792516Y-88819091D01*
X127799444Y-88819835D01*
X127852127Y-88825500D01*
X129647872Y-88825499D01*
X129707483Y-88819091D01*
X129842331Y-88768796D01*
X129957546Y-88682546D01*
X130043796Y-88567331D01*
X130093002Y-88435401D01*
X130134872Y-88379468D01*
X130200337Y-88355050D01*
X130268610Y-88369901D01*
X130296865Y-88391053D01*
X130418917Y-88513105D01*
X130612421Y-88648600D01*
X130826507Y-88748429D01*
X130826516Y-88748433D01*
X131040000Y-88805634D01*
X131040000Y-87910501D01*
X131147685Y-87959680D01*
X131254237Y-87975000D01*
X131325763Y-87975000D01*
X131432315Y-87959680D01*
X131540000Y-87910501D01*
X131540000Y-88805633D01*
X131753483Y-88748433D01*
X131753492Y-88748429D01*
X131967578Y-88648600D01*
X132161082Y-88513105D01*
X132328105Y-88346082D01*
X132463600Y-88152578D01*
X132563429Y-87938492D01*
X132563432Y-87938486D01*
X132620636Y-87725000D01*
X131723686Y-87725000D01*
X131749493Y-87684844D01*
X131790000Y-87546889D01*
X131790000Y-87403111D01*
X131749493Y-87265156D01*
X131723686Y-87225000D01*
X132620636Y-87225000D01*
X132620635Y-87224999D01*
X132563432Y-87011513D01*
X132563429Y-87011507D01*
X132463600Y-86797422D01*
X132463599Y-86797420D01*
X132328113Y-86603926D01*
X132328108Y-86603920D01*
X132161082Y-86436894D01*
X131967578Y-86301399D01*
X131753492Y-86201570D01*
X131753486Y-86201567D01*
X131540000Y-86144364D01*
X131540000Y-87039498D01*
X131432315Y-86990320D01*
X131325763Y-86975000D01*
X131254237Y-86975000D01*
X131147685Y-86990320D01*
X131040000Y-87039498D01*
X131040000Y-86144364D01*
X131039999Y-86144364D01*
X130826513Y-86201567D01*
X130826507Y-86201570D01*
X130612422Y-86301399D01*
X130612420Y-86301400D01*
X130418926Y-86436886D01*
X130296865Y-86558947D01*
X130235542Y-86592431D01*
X130165850Y-86587447D01*
X130109917Y-86545575D01*
X130093002Y-86514598D01*
X130043797Y-86382671D01*
X130043793Y-86382664D01*
X129957547Y-86267455D01*
X129957544Y-86267452D01*
X129842335Y-86181206D01*
X129842328Y-86181202D01*
X129707482Y-86130908D01*
X129707483Y-86130908D01*
X129647883Y-86124501D01*
X129647881Y-86124500D01*
X129647873Y-86124500D01*
X129647865Y-86124500D01*
X129499500Y-86124500D01*
X129432461Y-86104815D01*
X129386706Y-86052011D01*
X129375500Y-86000500D01*
X129375500Y-84949499D01*
X129395185Y-84882460D01*
X129447989Y-84836705D01*
X129499500Y-84825499D01*
X129647871Y-84825499D01*
X129647872Y-84825499D01*
X129707483Y-84819091D01*
X129842331Y-84768796D01*
X129957546Y-84682546D01*
X130043796Y-84567331D01*
X130093002Y-84435401D01*
X130134872Y-84379468D01*
X130200337Y-84355050D01*
X130268610Y-84369901D01*
X130296865Y-84391053D01*
X130418917Y-84513105D01*
X130612421Y-84648600D01*
X130826507Y-84748429D01*
X130826516Y-84748433D01*
X131040000Y-84805634D01*
X131040000Y-83910501D01*
X131147685Y-83959680D01*
X131254237Y-83975000D01*
X131325763Y-83975000D01*
X131432315Y-83959680D01*
X131540000Y-83910501D01*
X131540000Y-84805633D01*
X131753483Y-84748433D01*
X131753492Y-84748429D01*
X131967578Y-84648600D01*
X132161082Y-84513105D01*
X132328105Y-84346082D01*
X132463600Y-84152578D01*
X132563429Y-83938492D01*
X132563432Y-83938486D01*
X132620636Y-83725000D01*
X131723686Y-83725000D01*
X131749493Y-83684844D01*
X131790000Y-83546889D01*
X131790000Y-83403111D01*
X131749493Y-83265156D01*
X131723686Y-83225000D01*
X132620636Y-83225000D01*
X132620635Y-83224999D01*
X132582210Y-83081594D01*
X132583873Y-83011744D01*
X132623035Y-82953881D01*
X132687264Y-82926377D01*
X132701985Y-82925500D01*
X134775500Y-82925500D01*
X134842539Y-82945185D01*
X134888294Y-82997989D01*
X134899500Y-83049500D01*
X134899500Y-84372870D01*
X134899501Y-84372876D01*
X134905908Y-84432483D01*
X134956202Y-84567328D01*
X134956206Y-84567335D01*
X135042452Y-84682544D01*
X135042455Y-84682547D01*
X135157664Y-84768793D01*
X135157671Y-84768797D01*
X135202618Y-84785561D01*
X135292517Y-84819091D01*
X135352127Y-84825500D01*
X135500500Y-84825499D01*
X135567539Y-84845183D01*
X135613294Y-84897987D01*
X135624500Y-84949499D01*
X135624500Y-86000500D01*
X135604815Y-86067539D01*
X135552011Y-86113294D01*
X135500501Y-86124500D01*
X135352130Y-86124500D01*
X135352123Y-86124501D01*
X135292516Y-86130908D01*
X135157671Y-86181202D01*
X135157664Y-86181206D01*
X135042455Y-86267452D01*
X135042452Y-86267455D01*
X134956206Y-86382664D01*
X134956202Y-86382671D01*
X134905908Y-86517517D01*
X134899501Y-86577116D01*
X134899500Y-86577135D01*
X134899500Y-88372870D01*
X134899501Y-88372876D01*
X134905908Y-88432483D01*
X134956202Y-88567328D01*
X134956206Y-88567335D01*
X135042452Y-88682544D01*
X135042455Y-88682547D01*
X135157664Y-88768793D01*
X135157671Y-88768797D01*
X135292517Y-88819091D01*
X135292516Y-88819091D01*
X135299444Y-88819835D01*
X135352127Y-88825500D01*
X137147872Y-88825499D01*
X137207483Y-88819091D01*
X137342331Y-88768796D01*
X137457546Y-88682546D01*
X137543796Y-88567331D01*
X137593002Y-88435401D01*
X137634872Y-88379468D01*
X137700337Y-88355050D01*
X137768610Y-88369901D01*
X137796865Y-88391053D01*
X137918917Y-88513105D01*
X138112421Y-88648600D01*
X138326507Y-88748429D01*
X138326516Y-88748433D01*
X138540000Y-88805634D01*
X138540000Y-87910501D01*
X138647685Y-87959680D01*
X138754237Y-87975000D01*
X138825763Y-87975000D01*
X138932315Y-87959680D01*
X139040000Y-87910501D01*
X139040000Y-88805633D01*
X139253483Y-88748433D01*
X139253492Y-88748429D01*
X139467578Y-88648600D01*
X139661082Y-88513105D01*
X139828105Y-88346082D01*
X139963600Y-88152578D01*
X140063429Y-87938492D01*
X140063432Y-87938486D01*
X140120636Y-87725000D01*
X139223686Y-87725000D01*
X139249493Y-87684844D01*
X139290000Y-87546889D01*
X139290000Y-87403111D01*
X139249493Y-87265156D01*
X139223686Y-87225000D01*
X140120636Y-87225000D01*
X140120635Y-87224999D01*
X140063432Y-87011513D01*
X140063429Y-87011507D01*
X139963600Y-86797422D01*
X139963599Y-86797420D01*
X139828113Y-86603926D01*
X139828108Y-86603920D01*
X139661082Y-86436894D01*
X139467578Y-86301399D01*
X139253492Y-86201570D01*
X139253486Y-86201567D01*
X139040000Y-86144364D01*
X139040000Y-87039498D01*
X138932315Y-86990320D01*
X138825763Y-86975000D01*
X138754237Y-86975000D01*
X138647685Y-86990320D01*
X138540000Y-87039498D01*
X138540000Y-86144364D01*
X138539999Y-86144364D01*
X138326513Y-86201567D01*
X138326507Y-86201570D01*
X138112422Y-86301399D01*
X138112420Y-86301400D01*
X137918926Y-86436886D01*
X137796865Y-86558947D01*
X137735542Y-86592431D01*
X137665850Y-86587447D01*
X137609917Y-86545575D01*
X137593002Y-86514598D01*
X137543797Y-86382671D01*
X137543793Y-86382664D01*
X137457547Y-86267455D01*
X137457544Y-86267452D01*
X137342335Y-86181206D01*
X137342328Y-86181202D01*
X137207482Y-86130908D01*
X137207483Y-86130908D01*
X137147883Y-86124501D01*
X137147881Y-86124500D01*
X137147873Y-86124500D01*
X137147865Y-86124500D01*
X136999500Y-86124500D01*
X136932461Y-86104815D01*
X136886706Y-86052011D01*
X136875500Y-86000500D01*
X136875500Y-84949499D01*
X136895185Y-84882460D01*
X136947989Y-84836705D01*
X136999500Y-84825499D01*
X137147871Y-84825499D01*
X137147872Y-84825499D01*
X137207483Y-84819091D01*
X137342331Y-84768796D01*
X137457546Y-84682546D01*
X137543796Y-84567331D01*
X137593002Y-84435401D01*
X137634872Y-84379468D01*
X137700337Y-84355050D01*
X137768610Y-84369901D01*
X137796865Y-84391053D01*
X137918917Y-84513105D01*
X138112421Y-84648600D01*
X138326507Y-84748429D01*
X138326516Y-84748433D01*
X138540000Y-84805634D01*
X138540000Y-83910501D01*
X138647685Y-83959680D01*
X138754237Y-83975000D01*
X138825763Y-83975000D01*
X138932315Y-83959680D01*
X139040000Y-83910501D01*
X139040000Y-84805633D01*
X139253483Y-84748433D01*
X139253492Y-84748429D01*
X139467578Y-84648600D01*
X139661082Y-84513105D01*
X139828105Y-84346082D01*
X139963600Y-84152578D01*
X140063429Y-83938492D01*
X140063432Y-83938486D01*
X140120636Y-83725000D01*
X139223686Y-83725000D01*
X139249493Y-83684844D01*
X139290000Y-83546889D01*
X139290000Y-83403111D01*
X139249493Y-83265156D01*
X139223686Y-83225000D01*
X140120636Y-83225000D01*
X140120635Y-83224999D01*
X140082210Y-83081594D01*
X140083873Y-83011744D01*
X140123035Y-82953881D01*
X140187264Y-82926377D01*
X140201985Y-82925500D01*
X142064548Y-82925500D01*
X142131587Y-82945185D01*
X142152229Y-82961819D01*
X142163181Y-82972771D01*
X142196666Y-83034094D01*
X142199500Y-83060452D01*
X142199500Y-84372870D01*
X142199501Y-84372876D01*
X142205908Y-84432483D01*
X142256202Y-84567328D01*
X142256206Y-84567335D01*
X142342452Y-84682544D01*
X142342455Y-84682547D01*
X142457664Y-84768793D01*
X142457671Y-84768797D01*
X142502618Y-84785561D01*
X142592517Y-84819091D01*
X142652127Y-84825500D01*
X142800500Y-84825499D01*
X142867539Y-84845183D01*
X142913294Y-84897987D01*
X142924500Y-84949499D01*
X142924500Y-86000500D01*
X142904815Y-86067539D01*
X142852011Y-86113294D01*
X142800501Y-86124500D01*
X142652130Y-86124500D01*
X142652123Y-86124501D01*
X142592516Y-86130908D01*
X142457671Y-86181202D01*
X142457664Y-86181206D01*
X142342455Y-86267452D01*
X142342452Y-86267455D01*
X142256206Y-86382664D01*
X142256202Y-86382671D01*
X142205908Y-86517517D01*
X142199501Y-86577116D01*
X142199500Y-86577135D01*
X142199500Y-88372870D01*
X142199501Y-88372876D01*
X142205908Y-88432483D01*
X142256202Y-88567328D01*
X142256206Y-88567335D01*
X142342452Y-88682544D01*
X142342455Y-88682547D01*
X142457664Y-88768793D01*
X142457671Y-88768797D01*
X142592517Y-88819091D01*
X142592516Y-88819091D01*
X142599444Y-88819835D01*
X142652127Y-88825500D01*
X144447872Y-88825499D01*
X144507483Y-88819091D01*
X144642331Y-88768796D01*
X144757546Y-88682546D01*
X144843796Y-88567331D01*
X144893002Y-88435401D01*
X144934872Y-88379468D01*
X145000337Y-88355050D01*
X145068610Y-88369901D01*
X145096865Y-88391053D01*
X145218917Y-88513105D01*
X145412421Y-88648600D01*
X145626507Y-88748429D01*
X145626516Y-88748433D01*
X145840000Y-88805634D01*
X145840000Y-87910501D01*
X145947685Y-87959680D01*
X146054237Y-87975000D01*
X146125763Y-87975000D01*
X146232315Y-87959680D01*
X146340000Y-87910501D01*
X146340000Y-88805633D01*
X146553483Y-88748433D01*
X146553492Y-88748429D01*
X146767578Y-88648600D01*
X146961082Y-88513105D01*
X147128105Y-88346082D01*
X147263600Y-88152578D01*
X147363429Y-87938492D01*
X147363432Y-87938486D01*
X147420636Y-87725000D01*
X146523686Y-87725000D01*
X146549493Y-87684844D01*
X146590000Y-87546889D01*
X146590000Y-87403111D01*
X146549493Y-87265156D01*
X146523686Y-87225000D01*
X147420636Y-87225000D01*
X147420635Y-87224999D01*
X147363432Y-87011513D01*
X147363429Y-87011507D01*
X147263600Y-86797422D01*
X147263599Y-86797420D01*
X147128113Y-86603926D01*
X147128108Y-86603920D01*
X146961082Y-86436894D01*
X146767578Y-86301399D01*
X146553492Y-86201570D01*
X146553486Y-86201567D01*
X146340000Y-86144364D01*
X146340000Y-87039498D01*
X146232315Y-86990320D01*
X146125763Y-86975000D01*
X146054237Y-86975000D01*
X145947685Y-86990320D01*
X145840000Y-87039498D01*
X145840000Y-86144364D01*
X145839999Y-86144364D01*
X145626513Y-86201567D01*
X145626507Y-86201570D01*
X145412422Y-86301399D01*
X145412420Y-86301400D01*
X145218926Y-86436886D01*
X145096865Y-86558947D01*
X145035542Y-86592431D01*
X144965850Y-86587447D01*
X144909917Y-86545575D01*
X144893002Y-86514598D01*
X144843797Y-86382671D01*
X144843793Y-86382664D01*
X144757547Y-86267455D01*
X144757544Y-86267452D01*
X144642335Y-86181206D01*
X144642328Y-86181202D01*
X144507482Y-86130908D01*
X144507483Y-86130908D01*
X144447883Y-86124501D01*
X144447881Y-86124500D01*
X144447873Y-86124500D01*
X144447865Y-86124500D01*
X144299500Y-86124500D01*
X144232461Y-86104815D01*
X144186706Y-86052011D01*
X144175500Y-86000500D01*
X144175500Y-84949499D01*
X144195185Y-84882460D01*
X144247989Y-84836705D01*
X144299500Y-84825499D01*
X144447871Y-84825499D01*
X144447872Y-84825499D01*
X144507483Y-84819091D01*
X144642331Y-84768796D01*
X144757546Y-84682546D01*
X144843796Y-84567331D01*
X144893002Y-84435401D01*
X144934872Y-84379468D01*
X145000337Y-84355050D01*
X145068610Y-84369901D01*
X145096865Y-84391053D01*
X145218917Y-84513105D01*
X145412421Y-84648600D01*
X145626507Y-84748429D01*
X145626516Y-84748433D01*
X145840000Y-84805634D01*
X145840000Y-83910501D01*
X145947685Y-83959680D01*
X146054237Y-83975000D01*
X146125763Y-83975000D01*
X146232315Y-83959680D01*
X146340000Y-83910501D01*
X146340000Y-84805634D01*
X146553483Y-84748433D01*
X146553492Y-84748429D01*
X146767578Y-84648600D01*
X146961082Y-84513105D01*
X147128105Y-84346082D01*
X147263600Y-84152578D01*
X147363429Y-83938492D01*
X147363432Y-83938486D01*
X147420636Y-83725000D01*
X146523686Y-83725000D01*
X146549493Y-83684844D01*
X146590000Y-83546889D01*
X146590000Y-83403111D01*
X146549493Y-83265156D01*
X146523686Y-83225000D01*
X147420636Y-83225000D01*
X147420635Y-83224999D01*
X147363432Y-83011513D01*
X147363429Y-83011507D01*
X147263600Y-82797422D01*
X147263599Y-82797420D01*
X147128113Y-82603926D01*
X147128108Y-82603920D01*
X146961082Y-82436894D01*
X146767578Y-82301399D01*
X146553492Y-82201570D01*
X146553486Y-82201567D01*
X146340000Y-82144364D01*
X146340000Y-83039498D01*
X146232315Y-82990320D01*
X146125763Y-82975000D01*
X146054237Y-82975000D01*
X145947685Y-82990320D01*
X145840000Y-83039498D01*
X145840000Y-82144364D01*
X145839999Y-82144364D01*
X145626513Y-82201567D01*
X145626507Y-82201570D01*
X145412422Y-82301399D01*
X145412420Y-82301400D01*
X145218926Y-82436886D01*
X145096865Y-82558947D01*
X145035542Y-82592431D01*
X144965850Y-82587447D01*
X144909917Y-82545575D01*
X144893002Y-82514598D01*
X144843797Y-82382671D01*
X144843793Y-82382664D01*
X144757547Y-82267455D01*
X144757544Y-82267452D01*
X144642335Y-82181206D01*
X144642328Y-82181202D01*
X144507482Y-82130908D01*
X144507483Y-82130908D01*
X144447883Y-82124501D01*
X144447881Y-82124500D01*
X144447873Y-82124500D01*
X144447865Y-82124500D01*
X143135453Y-82124500D01*
X143068414Y-82104815D01*
X143047772Y-82088181D01*
X142875803Y-81916212D01*
X142865980Y-81903950D01*
X142865759Y-81904134D01*
X142860786Y-81898122D01*
X142811776Y-81852099D01*
X142808977Y-81849386D01*
X142789477Y-81829885D01*
X142789471Y-81829880D01*
X142786286Y-81827409D01*
X142777434Y-81819848D01*
X142745582Y-81789938D01*
X142745580Y-81789936D01*
X142745577Y-81789935D01*
X142728029Y-81780288D01*
X142711763Y-81769604D01*
X142695932Y-81757324D01*
X142655849Y-81739978D01*
X142645363Y-81734841D01*
X142607094Y-81713803D01*
X142607092Y-81713802D01*
X142587693Y-81708822D01*
X142569281Y-81702518D01*
X142550898Y-81694562D01*
X142550892Y-81694560D01*
X142507760Y-81687729D01*
X142496322Y-81685361D01*
X142454020Y-81674500D01*
X142454019Y-81674500D01*
X142433984Y-81674500D01*
X142414586Y-81672973D01*
X142407162Y-81671797D01*
X142394805Y-81669840D01*
X142394804Y-81669840D01*
X142351325Y-81673950D01*
X142339656Y-81674500D01*
X136258984Y-81674500D01*
X136239586Y-81672973D01*
X136232162Y-81671797D01*
X136219805Y-81669840D01*
X136219804Y-81669840D01*
X136176325Y-81673950D01*
X136164656Y-81674500D01*
X128882743Y-81674500D01*
X128867122Y-81672775D01*
X128867095Y-81673061D01*
X128859333Y-81672326D01*
X128792113Y-81674439D01*
X128788219Y-81674500D01*
X122707743Y-81674500D01*
X122692122Y-81672775D01*
X122692096Y-81673061D01*
X122684334Y-81672327D01*
X122684333Y-81672327D01*
X122632688Y-81673950D01*
X122617127Y-81674439D01*
X122613232Y-81674500D01*
X122585647Y-81674500D01*
X122581661Y-81675003D01*
X122570033Y-81675918D01*
X122526373Y-81677290D01*
X122507129Y-81682881D01*
X122488079Y-81686825D01*
X122468211Y-81689334D01*
X122468210Y-81689334D01*
X122427599Y-81705413D01*
X122416554Y-81709194D01*
X122374614Y-81721379D01*
X122374610Y-81721381D01*
X122357366Y-81731579D01*
X122339905Y-81740133D01*
X122321274Y-81747510D01*
X122321262Y-81747517D01*
X122285933Y-81773185D01*
X122276173Y-81779596D01*
X122238580Y-81801829D01*
X122224414Y-81815995D01*
X122209624Y-81828627D01*
X122193414Y-81840404D01*
X122193411Y-81840407D01*
X122165573Y-81874058D01*
X122157711Y-81882697D01*
X121952228Y-82088181D01*
X121890905Y-82121666D01*
X121864547Y-82124500D01*
X121024500Y-82124500D01*
X120957461Y-82104815D01*
X120911706Y-82052011D01*
X120900500Y-82000500D01*
X120900500Y-80260452D01*
X120920185Y-80193413D01*
X120936819Y-80172771D01*
X120947772Y-80161818D01*
X121009095Y-80128333D01*
X121035453Y-80125499D01*
X122347871Y-80125499D01*
X122347872Y-80125499D01*
X122407483Y-80119091D01*
X122542331Y-80068796D01*
X122657546Y-79982546D01*
X122743796Y-79867331D01*
X122746554Y-79859938D01*
X122788766Y-79746759D01*
X122793002Y-79735401D01*
X122834872Y-79679468D01*
X122900337Y-79655050D01*
X122968610Y-79669901D01*
X122996865Y-79691053D01*
X123118917Y-79813105D01*
X123312421Y-79948600D01*
X123526507Y-80048429D01*
X123526516Y-80048433D01*
X123740000Y-80105634D01*
X123740000Y-79210501D01*
X123847685Y-79259680D01*
X123954237Y-79275000D01*
X124025763Y-79275000D01*
X124132315Y-79259680D01*
X124240000Y-79210501D01*
X124240000Y-80105634D01*
X124453483Y-80048433D01*
X124453492Y-80048429D01*
X124667578Y-79948600D01*
X124861082Y-79813105D01*
X125028105Y-79646082D01*
X125163600Y-79452578D01*
X125263429Y-79238492D01*
X125263432Y-79238486D01*
X125320636Y-79025000D01*
X124423686Y-79025000D01*
X124449493Y-78984844D01*
X124490000Y-78846889D01*
X124490000Y-78703111D01*
X124449493Y-78565156D01*
X124423686Y-78525000D01*
X125320636Y-78525000D01*
X125320635Y-78524999D01*
X125263432Y-78311513D01*
X125263429Y-78311507D01*
X125163600Y-78097422D01*
X125163599Y-78097420D01*
X125028113Y-77903926D01*
X125028108Y-77903920D01*
X124861082Y-77736894D01*
X124667578Y-77601399D01*
X124453492Y-77501570D01*
X124453486Y-77501567D01*
X124240000Y-77444364D01*
X124240000Y-78339498D01*
X124132315Y-78290320D01*
X124025763Y-78275000D01*
X123954237Y-78275000D01*
X123847685Y-78290320D01*
X123740000Y-78339498D01*
X123740000Y-77444364D01*
X123739999Y-77444364D01*
X123526513Y-77501567D01*
X123526507Y-77501570D01*
X123312422Y-77601399D01*
X123312420Y-77601400D01*
X123118926Y-77736886D01*
X122996865Y-77858947D01*
X122935542Y-77892431D01*
X122865850Y-77887447D01*
X122809917Y-77845575D01*
X122793002Y-77814598D01*
X122743797Y-77682671D01*
X122743793Y-77682664D01*
X122657547Y-77567455D01*
X122657544Y-77567452D01*
X122542335Y-77481206D01*
X122542328Y-77481202D01*
X122407482Y-77430908D01*
X122407483Y-77430908D01*
X122347883Y-77424501D01*
X122347881Y-77424500D01*
X122347873Y-77424500D01*
X122347865Y-77424500D01*
X122199500Y-77424500D01*
X122132461Y-77404815D01*
X122086706Y-77352011D01*
X122075500Y-77300500D01*
X122075500Y-76274499D01*
X122095185Y-76207460D01*
X122147989Y-76161705D01*
X122199500Y-76150499D01*
X122347871Y-76150499D01*
X122347872Y-76150499D01*
X122407483Y-76144091D01*
X122542331Y-76093796D01*
X122657546Y-76007546D01*
X122743796Y-75892331D01*
X122793002Y-75760401D01*
X122834872Y-75704468D01*
X122900337Y-75680050D01*
X122968610Y-75694901D01*
X122996865Y-75716053D01*
X123118917Y-75838105D01*
X123312421Y-75973600D01*
X123526507Y-76073429D01*
X123526516Y-76073433D01*
X123740000Y-76130634D01*
X123740000Y-75235501D01*
X123847685Y-75284680D01*
X123954237Y-75300000D01*
X124025763Y-75300000D01*
X124132315Y-75284680D01*
X124240000Y-75235501D01*
X124240000Y-76130634D01*
X124453483Y-76073433D01*
X124453492Y-76073429D01*
X124667578Y-75973600D01*
X124861082Y-75838105D01*
X125028105Y-75671082D01*
X125163600Y-75477578D01*
X125263429Y-75263492D01*
X125263432Y-75263486D01*
X125320636Y-75050000D01*
X124423686Y-75050000D01*
X124449493Y-75009844D01*
X124490000Y-74871889D01*
X124490000Y-74728111D01*
X124449493Y-74590156D01*
X124423686Y-74550000D01*
X125320636Y-74550000D01*
X125320635Y-74549999D01*
X125282210Y-74406594D01*
X125283873Y-74336744D01*
X125323035Y-74278881D01*
X125387264Y-74251377D01*
X125401985Y-74250500D01*
X127275500Y-74250500D01*
X127342539Y-74270185D01*
X127388294Y-74322989D01*
X127399500Y-74374500D01*
X127399500Y-75697870D01*
X127399501Y-75697876D01*
X127405908Y-75757483D01*
X127456202Y-75892328D01*
X127456206Y-75892335D01*
X127542452Y-76007544D01*
X127542455Y-76007547D01*
X127657664Y-76093793D01*
X127657671Y-76093797D01*
X127702618Y-76110561D01*
X127792517Y-76144091D01*
X127852127Y-76150500D01*
X128000500Y-76150499D01*
X128067539Y-76170183D01*
X128113294Y-76222987D01*
X128124500Y-76274499D01*
X128124500Y-77300500D01*
X128104815Y-77367539D01*
X128052011Y-77413294D01*
X128000501Y-77424500D01*
X127852130Y-77424500D01*
X127852123Y-77424501D01*
X127792516Y-77430908D01*
X127657671Y-77481202D01*
X127657664Y-77481206D01*
X127542455Y-77567452D01*
X127542452Y-77567455D01*
X127456206Y-77682664D01*
X127456202Y-77682671D01*
X127405908Y-77817517D01*
X127399501Y-77877116D01*
X127399500Y-77877135D01*
X127399500Y-79672870D01*
X127399501Y-79672876D01*
X127405908Y-79732483D01*
X127456202Y-79867328D01*
X127456206Y-79867335D01*
X127542452Y-79982544D01*
X127542455Y-79982547D01*
X127657664Y-80068793D01*
X127657671Y-80068797D01*
X127792517Y-80119091D01*
X127792516Y-80119091D01*
X127796665Y-80119537D01*
X127852127Y-80125500D01*
X129647872Y-80125499D01*
X129707483Y-80119091D01*
X129842331Y-80068796D01*
X129957546Y-79982546D01*
X130043796Y-79867331D01*
X130046554Y-79859938D01*
X130088766Y-79746759D01*
X130093002Y-79735401D01*
X130134872Y-79679468D01*
X130200337Y-79655050D01*
X130268610Y-79669901D01*
X130296865Y-79691053D01*
X130418917Y-79813105D01*
X130612421Y-79948600D01*
X130826507Y-80048429D01*
X130826516Y-80048433D01*
X131040000Y-80105634D01*
X131040000Y-79210501D01*
X131147685Y-79259680D01*
X131254237Y-79275000D01*
X131325763Y-79275000D01*
X131432315Y-79259680D01*
X131540000Y-79210501D01*
X131540000Y-80105633D01*
X131753483Y-80048433D01*
X131753492Y-80048429D01*
X131967578Y-79948600D01*
X132161082Y-79813105D01*
X132328105Y-79646082D01*
X132463600Y-79452578D01*
X132563429Y-79238492D01*
X132563432Y-79238486D01*
X132620636Y-79025000D01*
X131723686Y-79025000D01*
X131749493Y-78984844D01*
X131790000Y-78846889D01*
X131790000Y-78703111D01*
X131749493Y-78565156D01*
X131723686Y-78525000D01*
X132620636Y-78525000D01*
X132620635Y-78524999D01*
X132563432Y-78311513D01*
X132563429Y-78311507D01*
X132463600Y-78097422D01*
X132463599Y-78097420D01*
X132328113Y-77903926D01*
X132328108Y-77903920D01*
X132161082Y-77736894D01*
X131967578Y-77601399D01*
X131753492Y-77501570D01*
X131753486Y-77501567D01*
X131540000Y-77444364D01*
X131540000Y-78339498D01*
X131432315Y-78290320D01*
X131325763Y-78275000D01*
X131254237Y-78275000D01*
X131147685Y-78290320D01*
X131040000Y-78339498D01*
X131040000Y-77444364D01*
X131039999Y-77444364D01*
X130826513Y-77501567D01*
X130826507Y-77501570D01*
X130612422Y-77601399D01*
X130612420Y-77601400D01*
X130418926Y-77736886D01*
X130296865Y-77858947D01*
X130235542Y-77892431D01*
X130165850Y-77887447D01*
X130109917Y-77845575D01*
X130093002Y-77814598D01*
X130043797Y-77682671D01*
X130043793Y-77682664D01*
X129957547Y-77567455D01*
X129957544Y-77567452D01*
X129842335Y-77481206D01*
X129842328Y-77481202D01*
X129707482Y-77430908D01*
X129707483Y-77430908D01*
X129647883Y-77424501D01*
X129647881Y-77424500D01*
X129647873Y-77424500D01*
X129647865Y-77424500D01*
X129499500Y-77424500D01*
X129432461Y-77404815D01*
X129386706Y-77352011D01*
X129375500Y-77300500D01*
X129375500Y-76274499D01*
X129395185Y-76207460D01*
X129447989Y-76161705D01*
X129499500Y-76150499D01*
X129647871Y-76150499D01*
X129647872Y-76150499D01*
X129707483Y-76144091D01*
X129842331Y-76093796D01*
X129957546Y-76007546D01*
X130043796Y-75892331D01*
X130093002Y-75760401D01*
X130134872Y-75704468D01*
X130200337Y-75680050D01*
X130268610Y-75694901D01*
X130296865Y-75716053D01*
X130418917Y-75838105D01*
X130612421Y-75973600D01*
X130826507Y-76073429D01*
X130826516Y-76073433D01*
X131040000Y-76130634D01*
X131040000Y-75235501D01*
X131147685Y-75284680D01*
X131254237Y-75300000D01*
X131325763Y-75300000D01*
X131432315Y-75284680D01*
X131540000Y-75235501D01*
X131540000Y-76130633D01*
X131753483Y-76073433D01*
X131753492Y-76073429D01*
X131967578Y-75973600D01*
X132161082Y-75838105D01*
X132328105Y-75671082D01*
X132463600Y-75477578D01*
X132563429Y-75263492D01*
X132563432Y-75263486D01*
X132620636Y-75050000D01*
X131723686Y-75050000D01*
X131749493Y-75009844D01*
X131790000Y-74871889D01*
X131790000Y-74728111D01*
X131749493Y-74590156D01*
X131723686Y-74550000D01*
X132620636Y-74550000D01*
X132620635Y-74549999D01*
X132582210Y-74406594D01*
X132583873Y-74336744D01*
X132623035Y-74278881D01*
X132687264Y-74251377D01*
X132701985Y-74250500D01*
X134775500Y-74250500D01*
X134842539Y-74270185D01*
X134888294Y-74322989D01*
X134899500Y-74374500D01*
X134899500Y-75697870D01*
X134899501Y-75697876D01*
X134905908Y-75757483D01*
X134956202Y-75892328D01*
X134956206Y-75892335D01*
X135042452Y-76007544D01*
X135042455Y-76007547D01*
X135157664Y-76093793D01*
X135157671Y-76093797D01*
X135202618Y-76110561D01*
X135292517Y-76144091D01*
X135352127Y-76150500D01*
X135500500Y-76150499D01*
X135567539Y-76170183D01*
X135613294Y-76222987D01*
X135624500Y-76274499D01*
X135624500Y-77300500D01*
X135604815Y-77367539D01*
X135552011Y-77413294D01*
X135500501Y-77424500D01*
X135352130Y-77424500D01*
X135352123Y-77424501D01*
X135292516Y-77430908D01*
X135157671Y-77481202D01*
X135157664Y-77481206D01*
X135042455Y-77567452D01*
X135042452Y-77567455D01*
X134956206Y-77682664D01*
X134956202Y-77682671D01*
X134905908Y-77817517D01*
X134899501Y-77877116D01*
X134899500Y-77877135D01*
X134899500Y-79672870D01*
X134899501Y-79672876D01*
X134905908Y-79732483D01*
X134956202Y-79867328D01*
X134956206Y-79867335D01*
X135042452Y-79982544D01*
X135042455Y-79982547D01*
X135157664Y-80068793D01*
X135157671Y-80068797D01*
X135292517Y-80119091D01*
X135292516Y-80119091D01*
X135296665Y-80119537D01*
X135352127Y-80125500D01*
X137147872Y-80125499D01*
X137207483Y-80119091D01*
X137342331Y-80068796D01*
X137457546Y-79982546D01*
X137543796Y-79867331D01*
X137546554Y-79859938D01*
X137588766Y-79746759D01*
X137593002Y-79735401D01*
X137634872Y-79679468D01*
X137700337Y-79655050D01*
X137768610Y-79669901D01*
X137796865Y-79691053D01*
X137918917Y-79813105D01*
X138112421Y-79948600D01*
X138326507Y-80048429D01*
X138326516Y-80048433D01*
X138540000Y-80105634D01*
X138540000Y-79210501D01*
X138647685Y-79259680D01*
X138754237Y-79275000D01*
X138825763Y-79275000D01*
X138932315Y-79259680D01*
X139040000Y-79210501D01*
X139040000Y-80105633D01*
X139253483Y-80048433D01*
X139253492Y-80048429D01*
X139467578Y-79948600D01*
X139661082Y-79813105D01*
X139828105Y-79646082D01*
X139963600Y-79452578D01*
X140063429Y-79238492D01*
X140063432Y-79238486D01*
X140120636Y-79025000D01*
X139223686Y-79025000D01*
X139249493Y-78984844D01*
X139290000Y-78846889D01*
X139290000Y-78703111D01*
X139249493Y-78565156D01*
X139223686Y-78525000D01*
X140120636Y-78525000D01*
X140120635Y-78524999D01*
X140063432Y-78311513D01*
X140063429Y-78311507D01*
X139963600Y-78097422D01*
X139963599Y-78097420D01*
X139828113Y-77903926D01*
X139828108Y-77903920D01*
X139661082Y-77736894D01*
X139467578Y-77601399D01*
X139253492Y-77501570D01*
X139253486Y-77501567D01*
X139040000Y-77444364D01*
X139040000Y-78339498D01*
X138932315Y-78290320D01*
X138825763Y-78275000D01*
X138754237Y-78275000D01*
X138647685Y-78290320D01*
X138540000Y-78339498D01*
X138540000Y-77444364D01*
X138539999Y-77444364D01*
X138326513Y-77501567D01*
X138326507Y-77501570D01*
X138112422Y-77601399D01*
X138112420Y-77601400D01*
X137918926Y-77736886D01*
X137796865Y-77858947D01*
X137735542Y-77892431D01*
X137665850Y-77887447D01*
X137609917Y-77845575D01*
X137593002Y-77814598D01*
X137543797Y-77682671D01*
X137543793Y-77682664D01*
X137457547Y-77567455D01*
X137457544Y-77567452D01*
X137342335Y-77481206D01*
X137342328Y-77481202D01*
X137207482Y-77430908D01*
X137207483Y-77430908D01*
X137147883Y-77424501D01*
X137147881Y-77424500D01*
X137147873Y-77424500D01*
X137147865Y-77424500D01*
X136999500Y-77424500D01*
X136932461Y-77404815D01*
X136886706Y-77352011D01*
X136875500Y-77300500D01*
X136875500Y-76274499D01*
X136895185Y-76207460D01*
X136947989Y-76161705D01*
X136999500Y-76150499D01*
X137147871Y-76150499D01*
X137147872Y-76150499D01*
X137207483Y-76144091D01*
X137342331Y-76093796D01*
X137457546Y-76007546D01*
X137543796Y-75892331D01*
X137593002Y-75760401D01*
X137634872Y-75704468D01*
X137700337Y-75680050D01*
X137768610Y-75694901D01*
X137796865Y-75716053D01*
X137918917Y-75838105D01*
X138112421Y-75973600D01*
X138326507Y-76073429D01*
X138326516Y-76073433D01*
X138540000Y-76130634D01*
X138540000Y-75235501D01*
X138647685Y-75284680D01*
X138754237Y-75300000D01*
X138825763Y-75300000D01*
X138932315Y-75284680D01*
X139040000Y-75235501D01*
X139040000Y-76130634D01*
X139253483Y-76073433D01*
X139253492Y-76073429D01*
X139467578Y-75973600D01*
X139661082Y-75838105D01*
X139828105Y-75671082D01*
X139963600Y-75477578D01*
X140063429Y-75263492D01*
X140063432Y-75263486D01*
X140120636Y-75050000D01*
X139223686Y-75050000D01*
X139249493Y-75009844D01*
X139290000Y-74871889D01*
X139290000Y-74728111D01*
X139249493Y-74590156D01*
X139223686Y-74550000D01*
X140120636Y-74550000D01*
X140120635Y-74549999D01*
X140082210Y-74406594D01*
X140083873Y-74336744D01*
X140123035Y-74278881D01*
X140187264Y-74251377D01*
X140201985Y-74250500D01*
X142064548Y-74250500D01*
X142131587Y-74270185D01*
X142152229Y-74286819D01*
X142163181Y-74297771D01*
X142196666Y-74359094D01*
X142199500Y-74385452D01*
X142199500Y-75697870D01*
X142199501Y-75697876D01*
X142205908Y-75757483D01*
X142256202Y-75892328D01*
X142256206Y-75892335D01*
X142342452Y-76007544D01*
X142342455Y-76007547D01*
X142457664Y-76093793D01*
X142457671Y-76093797D01*
X142502618Y-76110561D01*
X142592517Y-76144091D01*
X142652127Y-76150500D01*
X142800500Y-76150499D01*
X142867539Y-76170183D01*
X142913294Y-76222987D01*
X142924500Y-76274499D01*
X142924500Y-77300500D01*
X142904815Y-77367539D01*
X142852011Y-77413294D01*
X142800501Y-77424500D01*
X142652130Y-77424500D01*
X142652123Y-77424501D01*
X142592516Y-77430908D01*
X142457671Y-77481202D01*
X142457664Y-77481206D01*
X142342455Y-77567452D01*
X142342452Y-77567455D01*
X142256206Y-77682664D01*
X142256202Y-77682671D01*
X142205908Y-77817517D01*
X142199501Y-77877116D01*
X142199500Y-77877135D01*
X142199500Y-79672870D01*
X142199501Y-79672876D01*
X142205908Y-79732483D01*
X142256202Y-79867328D01*
X142256206Y-79867335D01*
X142342452Y-79982544D01*
X142342455Y-79982547D01*
X142457664Y-80068793D01*
X142457671Y-80068797D01*
X142592517Y-80119091D01*
X142592516Y-80119091D01*
X142596665Y-80119537D01*
X142652127Y-80125500D01*
X144447872Y-80125499D01*
X144507483Y-80119091D01*
X144642331Y-80068796D01*
X144757546Y-79982546D01*
X144843796Y-79867331D01*
X144846554Y-79859938D01*
X144888766Y-79746759D01*
X144893002Y-79735401D01*
X144934872Y-79679468D01*
X145000337Y-79655050D01*
X145068610Y-79669901D01*
X145096865Y-79691053D01*
X145218917Y-79813105D01*
X145412421Y-79948600D01*
X145626507Y-80048429D01*
X145626516Y-80048433D01*
X145840000Y-80105634D01*
X145840000Y-79210501D01*
X145947685Y-79259680D01*
X146054237Y-79275000D01*
X146125763Y-79275000D01*
X146232315Y-79259680D01*
X146340000Y-79210501D01*
X146340000Y-80105634D01*
X146553483Y-80048433D01*
X146553492Y-80048429D01*
X146767578Y-79948600D01*
X146961082Y-79813105D01*
X147128105Y-79646082D01*
X147263600Y-79452578D01*
X147363429Y-79238492D01*
X147363432Y-79238486D01*
X147420636Y-79025000D01*
X146523686Y-79025000D01*
X146549493Y-78984844D01*
X146590000Y-78846889D01*
X146590000Y-78703111D01*
X146549493Y-78565156D01*
X146523686Y-78525000D01*
X147420636Y-78525000D01*
X147420635Y-78524999D01*
X147363432Y-78311513D01*
X147363429Y-78311507D01*
X147263600Y-78097422D01*
X147263599Y-78097420D01*
X147128113Y-77903926D01*
X147128108Y-77903920D01*
X146961082Y-77736894D01*
X146767578Y-77601399D01*
X146553492Y-77501570D01*
X146553486Y-77501567D01*
X146340000Y-77444364D01*
X146340000Y-78339498D01*
X146232315Y-78290320D01*
X146125763Y-78275000D01*
X146054237Y-78275000D01*
X145947685Y-78290320D01*
X145840000Y-78339498D01*
X145840000Y-77444364D01*
X145839999Y-77444364D01*
X145626513Y-77501567D01*
X145626507Y-77501570D01*
X145412422Y-77601399D01*
X145412420Y-77601400D01*
X145218926Y-77736886D01*
X145096865Y-77858947D01*
X145035542Y-77892431D01*
X144965850Y-77887447D01*
X144909917Y-77845575D01*
X144893002Y-77814598D01*
X144843797Y-77682671D01*
X144843793Y-77682664D01*
X144757547Y-77567455D01*
X144757544Y-77567452D01*
X144642335Y-77481206D01*
X144642328Y-77481202D01*
X144507482Y-77430908D01*
X144507483Y-77430908D01*
X144447883Y-77424501D01*
X144447881Y-77424500D01*
X144447873Y-77424500D01*
X144447865Y-77424500D01*
X144299500Y-77424500D01*
X144232461Y-77404815D01*
X144186706Y-77352011D01*
X144175500Y-77300500D01*
X144175500Y-76274499D01*
X144195185Y-76207460D01*
X144247989Y-76161705D01*
X144299500Y-76150499D01*
X144447871Y-76150499D01*
X144447872Y-76150499D01*
X144507483Y-76144091D01*
X144642331Y-76093796D01*
X144757546Y-76007546D01*
X144843796Y-75892331D01*
X144893002Y-75760401D01*
X144934872Y-75704468D01*
X145000337Y-75680050D01*
X145068610Y-75694901D01*
X145096865Y-75716053D01*
X145218917Y-75838105D01*
X145412421Y-75973600D01*
X145626507Y-76073429D01*
X145626516Y-76073433D01*
X145840000Y-76130634D01*
X145840000Y-75235501D01*
X145947685Y-75284680D01*
X146054237Y-75300000D01*
X146125763Y-75300000D01*
X146232315Y-75284680D01*
X146340000Y-75235501D01*
X146340000Y-76130634D01*
X146553483Y-76073433D01*
X146553492Y-76073429D01*
X146767578Y-75973600D01*
X146961082Y-75838105D01*
X147128105Y-75671082D01*
X147263600Y-75477578D01*
X147363429Y-75263492D01*
X147363432Y-75263486D01*
X147420636Y-75050000D01*
X146523686Y-75050000D01*
X146549493Y-75009844D01*
X146590000Y-74871889D01*
X146590000Y-74728111D01*
X146549493Y-74590156D01*
X146523686Y-74550000D01*
X147420636Y-74550000D01*
X147420635Y-74549999D01*
X147363432Y-74336513D01*
X147363429Y-74336507D01*
X147263600Y-74122422D01*
X147263599Y-74122420D01*
X147128113Y-73928926D01*
X147128108Y-73928920D01*
X146961082Y-73761894D01*
X146767578Y-73626399D01*
X146553492Y-73526570D01*
X146553486Y-73526567D01*
X146340000Y-73469364D01*
X146340000Y-74364498D01*
X146232315Y-74315320D01*
X146125763Y-74300000D01*
X146054237Y-74300000D01*
X145947685Y-74315320D01*
X145840000Y-74364498D01*
X145840000Y-73469364D01*
X145839999Y-73469364D01*
X145626513Y-73526567D01*
X145626507Y-73526570D01*
X145412422Y-73626399D01*
X145412420Y-73626400D01*
X145218926Y-73761886D01*
X145096865Y-73883947D01*
X145035542Y-73917431D01*
X144965850Y-73912447D01*
X144909917Y-73870575D01*
X144893002Y-73839598D01*
X144843797Y-73707671D01*
X144843793Y-73707664D01*
X144757547Y-73592455D01*
X144757544Y-73592452D01*
X144642335Y-73506206D01*
X144642328Y-73506202D01*
X144507482Y-73455908D01*
X144507483Y-73455908D01*
X144447883Y-73449501D01*
X144447881Y-73449500D01*
X144447873Y-73449500D01*
X144447865Y-73449500D01*
X143135453Y-73449500D01*
X143068414Y-73429815D01*
X143047772Y-73413181D01*
X142923851Y-73289260D01*
X142890366Y-73227937D01*
X142895350Y-73158245D01*
X142937222Y-73102312D01*
X142967556Y-73085639D01*
X142968872Y-73085140D01*
X142978335Y-73081550D01*
X142999961Y-73075522D01*
X143000893Y-73075351D01*
X143009932Y-73073695D01*
X143064808Y-73048996D01*
X143071678Y-73046150D01*
X143127930Y-73024818D01*
X143136266Y-73019062D01*
X143155821Y-73008034D01*
X143165057Y-73003878D01*
X143212413Y-72966775D01*
X143218404Y-72962366D01*
X143267929Y-72928183D01*
X143307822Y-72883151D01*
X143312925Y-72877730D01*
X144127723Y-72062931D01*
X144133125Y-72057845D01*
X144178183Y-72017929D01*
X144212349Y-71968430D01*
X144216790Y-71962394D01*
X144219647Y-71958747D01*
X144253878Y-71915056D01*
X144258037Y-71905813D01*
X144269061Y-71886268D01*
X144274818Y-71877930D01*
X144296145Y-71821694D01*
X144299013Y-71814770D01*
X144323693Y-71759936D01*
X144323693Y-71759934D01*
X144323695Y-71759931D01*
X144325522Y-71749959D01*
X144331546Y-71728347D01*
X144335140Y-71718872D01*
X144342387Y-71659184D01*
X144343514Y-71651777D01*
X144354358Y-71592606D01*
X144350726Y-71532565D01*
X144350500Y-71525078D01*
X144350500Y-71449499D01*
X144370185Y-71382460D01*
X144422989Y-71336705D01*
X144474500Y-71325499D01*
X144547871Y-71325499D01*
X144547872Y-71325499D01*
X144607483Y-71319091D01*
X144742331Y-71268796D01*
X144857546Y-71182546D01*
X144943796Y-71067331D01*
X144993002Y-70935401D01*
X145034872Y-70879468D01*
X145100337Y-70855050D01*
X145168610Y-70869901D01*
X145196865Y-70891053D01*
X145318917Y-71013105D01*
X145512421Y-71148600D01*
X145726507Y-71248429D01*
X145726516Y-71248433D01*
X145940000Y-71305634D01*
X145940000Y-70410501D01*
X146047685Y-70459680D01*
X146154237Y-70475000D01*
X146225763Y-70475000D01*
X146332315Y-70459680D01*
X146440000Y-70410501D01*
X146440000Y-71305634D01*
X146653483Y-71248433D01*
X146653492Y-71248429D01*
X146867578Y-71148600D01*
X147061082Y-71013105D01*
X147228105Y-70846082D01*
X147363600Y-70652578D01*
X147463429Y-70438492D01*
X147463432Y-70438486D01*
X147520636Y-70225000D01*
X146623686Y-70225000D01*
X146649493Y-70184844D01*
X146690000Y-70046889D01*
X146690000Y-69903111D01*
X146649493Y-69765156D01*
X146623686Y-69725000D01*
X147520636Y-69725000D01*
X147520635Y-69724999D01*
X147463432Y-69511513D01*
X147463429Y-69511507D01*
X147363600Y-69297422D01*
X147363599Y-69297420D01*
X147228113Y-69103926D01*
X147228108Y-69103920D01*
X147061082Y-68936894D01*
X146867578Y-68801399D01*
X146653492Y-68701570D01*
X146653486Y-68701567D01*
X146440000Y-68644364D01*
X146440000Y-69539498D01*
X146332315Y-69490320D01*
X146225763Y-69475000D01*
X146154237Y-69475000D01*
X146047685Y-69490320D01*
X145940000Y-69539498D01*
X145940000Y-68644364D01*
X145939999Y-68644364D01*
X145726513Y-68701567D01*
X145726507Y-68701570D01*
X145512422Y-68801399D01*
X145512420Y-68801400D01*
X145318926Y-68936886D01*
X145196865Y-69058947D01*
X145135542Y-69092431D01*
X145065850Y-69087447D01*
X145009917Y-69045575D01*
X144993002Y-69014598D01*
X144943797Y-68882671D01*
X144943793Y-68882664D01*
X144857547Y-68767455D01*
X144857544Y-68767452D01*
X144742335Y-68681206D01*
X144742328Y-68681202D01*
X144607482Y-68630908D01*
X144607483Y-68630908D01*
X144547883Y-68624501D01*
X144547881Y-68624500D01*
X144547873Y-68624500D01*
X144547865Y-68624500D01*
X144414500Y-68624500D01*
X144347461Y-68604815D01*
X144301706Y-68552011D01*
X144290500Y-68500500D01*
X144290500Y-67474499D01*
X144310185Y-67407460D01*
X144362989Y-67361705D01*
X144414500Y-67350499D01*
X144497871Y-67350499D01*
X144497872Y-67350499D01*
X144557483Y-67344091D01*
X144692331Y-67293796D01*
X144807546Y-67207546D01*
X144893796Y-67092331D01*
X144943002Y-66960401D01*
X144984872Y-66904468D01*
X145050337Y-66880050D01*
X145118610Y-66894901D01*
X145146865Y-66916053D01*
X145268917Y-67038105D01*
X145462421Y-67173600D01*
X145676507Y-67273429D01*
X145676516Y-67273433D01*
X145890000Y-67330634D01*
X145890000Y-66435501D01*
X145997685Y-66484680D01*
X146104237Y-66500000D01*
X146175763Y-66500000D01*
X146282315Y-66484680D01*
X146390000Y-66435501D01*
X146390000Y-67330633D01*
X146603483Y-67273433D01*
X146603492Y-67273429D01*
X146817578Y-67173600D01*
X147011082Y-67038105D01*
X147178105Y-66871082D01*
X147313600Y-66677578D01*
X147413429Y-66463492D01*
X147413432Y-66463486D01*
X147470636Y-66250000D01*
X146573686Y-66250000D01*
X146599493Y-66209844D01*
X146640000Y-66071889D01*
X146640000Y-65928111D01*
X146599493Y-65790156D01*
X146573686Y-65750000D01*
X147470636Y-65750000D01*
X147470635Y-65749999D01*
X147413432Y-65536513D01*
X147413429Y-65536507D01*
X147313600Y-65322422D01*
X147313599Y-65322420D01*
X147178113Y-65128926D01*
X147178108Y-65128920D01*
X147011082Y-64961894D01*
X146817578Y-64826399D01*
X146603492Y-64726570D01*
X146603486Y-64726567D01*
X146390000Y-64669364D01*
X146390000Y-65564498D01*
X146282315Y-65515320D01*
X146175763Y-65500000D01*
X146104237Y-65500000D01*
X145997685Y-65515320D01*
X145890000Y-65564498D01*
X145890000Y-64669364D01*
X145889999Y-64669364D01*
X145676513Y-64726567D01*
X145676507Y-64726570D01*
X145462422Y-64826399D01*
X145462420Y-64826400D01*
X145268926Y-64961886D01*
X145146865Y-65083947D01*
X145085542Y-65117431D01*
X145015850Y-65112447D01*
X144959917Y-65070575D01*
X144943002Y-65039598D01*
X144893797Y-64907671D01*
X144893793Y-64907664D01*
X144807547Y-64792455D01*
X144807544Y-64792452D01*
X144692335Y-64706206D01*
X144692328Y-64706202D01*
X144557482Y-64655908D01*
X144557483Y-64655908D01*
X144497883Y-64649501D01*
X144497881Y-64649500D01*
X144497873Y-64649500D01*
X144497865Y-64649500D01*
X144414500Y-64649500D01*
X144347461Y-64629815D01*
X144301706Y-64577011D01*
X144290500Y-64525500D01*
X144290500Y-63449499D01*
X144310185Y-63382460D01*
X144362989Y-63336705D01*
X144414500Y-63325499D01*
X144487871Y-63325499D01*
X144487872Y-63325499D01*
X144547483Y-63319091D01*
X144682331Y-63268796D01*
X144797546Y-63182546D01*
X144883796Y-63067331D01*
X144933002Y-62935401D01*
X144974872Y-62879468D01*
X145040337Y-62855050D01*
X145108610Y-62869901D01*
X145136865Y-62891053D01*
X145258917Y-63013105D01*
X145452421Y-63148600D01*
X145666507Y-63248429D01*
X145666516Y-63248433D01*
X145880000Y-63305634D01*
X145880000Y-62410501D01*
X145987685Y-62459680D01*
X146094237Y-62475000D01*
X146165763Y-62475000D01*
X146272315Y-62459680D01*
X146380000Y-62410501D01*
X146380000Y-63305633D01*
X146593483Y-63248433D01*
X146593492Y-63248429D01*
X146807578Y-63148600D01*
X147001082Y-63013105D01*
X147168105Y-62846082D01*
X147303600Y-62652578D01*
X147403429Y-62438492D01*
X147403432Y-62438486D01*
X147460636Y-62225000D01*
X146563686Y-62225000D01*
X146589493Y-62184844D01*
X146630000Y-62046889D01*
X146630000Y-61903111D01*
X146589493Y-61765156D01*
X146563686Y-61725000D01*
X147460636Y-61725000D01*
X147460635Y-61724999D01*
X147403432Y-61511513D01*
X147403429Y-61511507D01*
X147303600Y-61297422D01*
X147303599Y-61297420D01*
X147168113Y-61103926D01*
X147168108Y-61103920D01*
X147001082Y-60936894D01*
X146807578Y-60801399D01*
X146593492Y-60701570D01*
X146593486Y-60701567D01*
X146380000Y-60644364D01*
X146380000Y-61539498D01*
X146272315Y-61490320D01*
X146165763Y-61475000D01*
X146094237Y-61475000D01*
X145987685Y-61490320D01*
X145880000Y-61539498D01*
X145880000Y-60644364D01*
X145879999Y-60644364D01*
X145666513Y-60701567D01*
X145666507Y-60701570D01*
X145452422Y-60801399D01*
X145452420Y-60801400D01*
X145258926Y-60936886D01*
X145136865Y-61058947D01*
X145075542Y-61092431D01*
X145005850Y-61087447D01*
X144949917Y-61045575D01*
X144933002Y-61014598D01*
X144883797Y-60882671D01*
X144883793Y-60882664D01*
X144797547Y-60767455D01*
X144797544Y-60767452D01*
X144682335Y-60681206D01*
X144682328Y-60681202D01*
X144547482Y-60630908D01*
X144547483Y-60630908D01*
X144487883Y-60624501D01*
X144487881Y-60624500D01*
X144487873Y-60624500D01*
X144487864Y-60624500D01*
X142692129Y-60624500D01*
X142692123Y-60624501D01*
X142632516Y-60630908D01*
X142497671Y-60681202D01*
X142497664Y-60681206D01*
X142382455Y-60767452D01*
X142382452Y-60767455D01*
X142296206Y-60882664D01*
X142296202Y-60882671D01*
X142245908Y-61017517D01*
X142239501Y-61077116D01*
X142239500Y-61077135D01*
X142239500Y-62872870D01*
X142239501Y-62872876D01*
X142245908Y-62932483D01*
X142296202Y-63067328D01*
X142296206Y-63067335D01*
X142382452Y-63182544D01*
X142382455Y-63182547D01*
X142497664Y-63268793D01*
X142497671Y-63268797D01*
X142510101Y-63273433D01*
X142632517Y-63319091D01*
X142692127Y-63325500D01*
X142765500Y-63325499D01*
X142832538Y-63345183D01*
X142878294Y-63397986D01*
X142889500Y-63449499D01*
X142889500Y-64525500D01*
X142869815Y-64592539D01*
X142817011Y-64638294D01*
X142765502Y-64649500D01*
X142702130Y-64649500D01*
X142702123Y-64649501D01*
X142642516Y-64655908D01*
X142507671Y-64706202D01*
X142507664Y-64706206D01*
X142392455Y-64792452D01*
X142392452Y-64792455D01*
X142306206Y-64907664D01*
X142306202Y-64907671D01*
X142255908Y-65042517D01*
X142249501Y-65102116D01*
X142249500Y-65102135D01*
X142249500Y-66897870D01*
X142249501Y-66897876D01*
X142255908Y-66957483D01*
X142306202Y-67092328D01*
X142306206Y-67092335D01*
X142392452Y-67207544D01*
X142392455Y-67207547D01*
X142507664Y-67293793D01*
X142507671Y-67293797D01*
X142517927Y-67297622D01*
X142642517Y-67344091D01*
X142702127Y-67350500D01*
X142765500Y-67350499D01*
X142832538Y-67370183D01*
X142878294Y-67422986D01*
X142889500Y-67474499D01*
X142889500Y-68500500D01*
X142869815Y-68567539D01*
X142817011Y-68613294D01*
X142765507Y-68624500D01*
X142752133Y-68624500D01*
X142752123Y-68624501D01*
X142692516Y-68630908D01*
X142557671Y-68681202D01*
X142557664Y-68681206D01*
X142442455Y-68767452D01*
X142442452Y-68767455D01*
X142356206Y-68882664D01*
X142356202Y-68882671D01*
X142305908Y-69017517D01*
X142299501Y-69077116D01*
X142299500Y-69077135D01*
X142299500Y-70872870D01*
X142299501Y-70872876D01*
X142305908Y-70932483D01*
X142356202Y-71067328D01*
X142356206Y-71067335D01*
X142442452Y-71182544D01*
X142442455Y-71182547D01*
X142557664Y-71268793D01*
X142557671Y-71268797D01*
X142655752Y-71305379D01*
X142711686Y-71347250D01*
X142736103Y-71412714D01*
X142721251Y-71480987D01*
X142700102Y-71509239D01*
X142546160Y-71663182D01*
X142484839Y-71696666D01*
X142458481Y-71699500D01*
X137241519Y-71699500D01*
X137174480Y-71679815D01*
X137153838Y-71663181D01*
X137021916Y-71531259D01*
X136988431Y-71469936D01*
X136993415Y-71400244D01*
X137035287Y-71344311D01*
X137096346Y-71320288D01*
X137107483Y-71319091D01*
X137242331Y-71268796D01*
X137357546Y-71182546D01*
X137443796Y-71067331D01*
X137493002Y-70935401D01*
X137534872Y-70879468D01*
X137600337Y-70855050D01*
X137668610Y-70869901D01*
X137696865Y-70891053D01*
X137818917Y-71013105D01*
X138012421Y-71148600D01*
X138226507Y-71248429D01*
X138226516Y-71248433D01*
X138440000Y-71305634D01*
X138440000Y-70410501D01*
X138547685Y-70459680D01*
X138654237Y-70475000D01*
X138725763Y-70475000D01*
X138832315Y-70459680D01*
X138940000Y-70410501D01*
X138940000Y-71305634D01*
X139153483Y-71248433D01*
X139153492Y-71248429D01*
X139367578Y-71148600D01*
X139561082Y-71013105D01*
X139728105Y-70846082D01*
X139863600Y-70652578D01*
X139963429Y-70438492D01*
X139963432Y-70438486D01*
X140020636Y-70225000D01*
X139123686Y-70225000D01*
X139149493Y-70184844D01*
X139190000Y-70046889D01*
X139190000Y-69903111D01*
X139149493Y-69765156D01*
X139123686Y-69725000D01*
X140020636Y-69725000D01*
X140020635Y-69724999D01*
X139963432Y-69511513D01*
X139963429Y-69511507D01*
X139863600Y-69297422D01*
X139863599Y-69297420D01*
X139728113Y-69103926D01*
X139728108Y-69103920D01*
X139561082Y-68936894D01*
X139367578Y-68801399D01*
X139153492Y-68701570D01*
X139153486Y-68701567D01*
X138940000Y-68644364D01*
X138940000Y-69539498D01*
X138832315Y-69490320D01*
X138725763Y-69475000D01*
X138654237Y-69475000D01*
X138547685Y-69490320D01*
X138440000Y-69539498D01*
X138440000Y-68644364D01*
X138439999Y-68644364D01*
X138226513Y-68701567D01*
X138226507Y-68701570D01*
X138012422Y-68801399D01*
X138012420Y-68801400D01*
X137818926Y-68936886D01*
X137696865Y-69058947D01*
X137635542Y-69092431D01*
X137565850Y-69087447D01*
X137509917Y-69045575D01*
X137493002Y-69014598D01*
X137443797Y-68882671D01*
X137443793Y-68882664D01*
X137357547Y-68767455D01*
X137357544Y-68767452D01*
X137242335Y-68681206D01*
X137242328Y-68681202D01*
X137107483Y-68630908D01*
X137061243Y-68625937D01*
X136996693Y-68599199D01*
X136956845Y-68541806D01*
X136950500Y-68502648D01*
X136950500Y-67472351D01*
X136970185Y-67405312D01*
X137022989Y-67359557D01*
X137061247Y-67349061D01*
X137107483Y-67344091D01*
X137242331Y-67293796D01*
X137357546Y-67207546D01*
X137443796Y-67092331D01*
X137493002Y-66960401D01*
X137534872Y-66904468D01*
X137600337Y-66880050D01*
X137668610Y-66894901D01*
X137696865Y-66916053D01*
X137818917Y-67038105D01*
X138012421Y-67173600D01*
X138226507Y-67273429D01*
X138226516Y-67273433D01*
X138440000Y-67330634D01*
X138440000Y-66435501D01*
X138547685Y-66484680D01*
X138654237Y-66500000D01*
X138725763Y-66500000D01*
X138832315Y-66484680D01*
X138940000Y-66435501D01*
X138940000Y-67330633D01*
X139153483Y-67273433D01*
X139153492Y-67273429D01*
X139367578Y-67173600D01*
X139561082Y-67038105D01*
X139728105Y-66871082D01*
X139863600Y-66677578D01*
X139963429Y-66463492D01*
X139963432Y-66463486D01*
X140020636Y-66250000D01*
X139123686Y-66250000D01*
X139149493Y-66209844D01*
X139190000Y-66071889D01*
X139190000Y-65928111D01*
X139149493Y-65790156D01*
X139123686Y-65750000D01*
X140020636Y-65750000D01*
X140020635Y-65749999D01*
X139963432Y-65536513D01*
X139963429Y-65536507D01*
X139863600Y-65322422D01*
X139863599Y-65322420D01*
X139728113Y-65128926D01*
X139728108Y-65128920D01*
X139561082Y-64961894D01*
X139367578Y-64826399D01*
X139153492Y-64726570D01*
X139153486Y-64726567D01*
X138940000Y-64669364D01*
X138940000Y-65564498D01*
X138832315Y-65515320D01*
X138725763Y-65500000D01*
X138654237Y-65500000D01*
X138547685Y-65515320D01*
X138440000Y-65564498D01*
X138440000Y-64669364D01*
X138439999Y-64669364D01*
X138226513Y-64726567D01*
X138226507Y-64726570D01*
X138012422Y-64826399D01*
X138012420Y-64826400D01*
X137818926Y-64961886D01*
X137696865Y-65083947D01*
X137635542Y-65117431D01*
X137565850Y-65112447D01*
X137509917Y-65070575D01*
X137493002Y-65039598D01*
X137443797Y-64907671D01*
X137443793Y-64907664D01*
X137357547Y-64792455D01*
X137357544Y-64792452D01*
X137242335Y-64706206D01*
X137242328Y-64706202D01*
X137107483Y-64655908D01*
X137061243Y-64650937D01*
X136996693Y-64624199D01*
X136956845Y-64566806D01*
X136950500Y-64527648D01*
X136950500Y-63474499D01*
X136970185Y-63407460D01*
X137022989Y-63361705D01*
X137074500Y-63350499D01*
X137097871Y-63350499D01*
X137097872Y-63350499D01*
X137157483Y-63344091D01*
X137292331Y-63293796D01*
X137407546Y-63207546D01*
X137493796Y-63092331D01*
X137543002Y-62960401D01*
X137584872Y-62904468D01*
X137650337Y-62880050D01*
X137718610Y-62894901D01*
X137746865Y-62916053D01*
X137868917Y-63038105D01*
X138062421Y-63173600D01*
X138276507Y-63273429D01*
X138276516Y-63273433D01*
X138490000Y-63330634D01*
X138490000Y-62435501D01*
X138597685Y-62484680D01*
X138704237Y-62500000D01*
X138775763Y-62500000D01*
X138882315Y-62484680D01*
X138990000Y-62435501D01*
X138990000Y-63330633D01*
X139203483Y-63273433D01*
X139203492Y-63273429D01*
X139417578Y-63173600D01*
X139611082Y-63038105D01*
X139778105Y-62871082D01*
X139913600Y-62677578D01*
X140013429Y-62463492D01*
X140013432Y-62463486D01*
X140070636Y-62250000D01*
X139173686Y-62250000D01*
X139199493Y-62209844D01*
X139240000Y-62071889D01*
X139240000Y-61928111D01*
X139199493Y-61790156D01*
X139173686Y-61750000D01*
X140070636Y-61750000D01*
X140070635Y-61749999D01*
X140013432Y-61536513D01*
X140013429Y-61536507D01*
X139913600Y-61322422D01*
X139913599Y-61322420D01*
X139778113Y-61128926D01*
X139778108Y-61128920D01*
X139611082Y-60961894D01*
X139417578Y-60826399D01*
X139203492Y-60726570D01*
X139203486Y-60726567D01*
X138990000Y-60669364D01*
X138990000Y-61564498D01*
X138882315Y-61515320D01*
X138775763Y-61500000D01*
X138704237Y-61500000D01*
X138597685Y-61515320D01*
X138490000Y-61564498D01*
X138490000Y-60669364D01*
X138489999Y-60669364D01*
X138276513Y-60726567D01*
X138276507Y-60726570D01*
X138062422Y-60826399D01*
X138062420Y-60826400D01*
X137868926Y-60961886D01*
X137746865Y-61083947D01*
X137685542Y-61117431D01*
X137615850Y-61112447D01*
X137559917Y-61070575D01*
X137543002Y-61039598D01*
X137534766Y-61017517D01*
X137493796Y-60907669D01*
X137493795Y-60907668D01*
X137493793Y-60907664D01*
X137407547Y-60792455D01*
X137407544Y-60792452D01*
X137292335Y-60706206D01*
X137292328Y-60706202D01*
X137157482Y-60655908D01*
X137157483Y-60655908D01*
X137097883Y-60649501D01*
X137097881Y-60649500D01*
X137097873Y-60649500D01*
X137097865Y-60649500D01*
X137074500Y-60649500D01*
X137007461Y-60629815D01*
X136961706Y-60577011D01*
X136950500Y-60525500D01*
X136950500Y-59449499D01*
X136970185Y-59382460D01*
X137022989Y-59336705D01*
X137074500Y-59325499D01*
X137147871Y-59325499D01*
X137147872Y-59325499D01*
X137207483Y-59319091D01*
X137342331Y-59268796D01*
X137457546Y-59182546D01*
X137543796Y-59067331D01*
X137593002Y-58935401D01*
X137634872Y-58879468D01*
X137700337Y-58855050D01*
X137768610Y-58869901D01*
X137796865Y-58891053D01*
X137918917Y-59013105D01*
X138112421Y-59148600D01*
X138326507Y-59248429D01*
X138326516Y-59248433D01*
X138540000Y-59305634D01*
X138540000Y-58410501D01*
X138647685Y-58459680D01*
X138754237Y-58475000D01*
X138825763Y-58475000D01*
X138932315Y-58459680D01*
X139040000Y-58410501D01*
X139040000Y-59305633D01*
X139253483Y-59248433D01*
X139253492Y-59248429D01*
X139467578Y-59148600D01*
X139661082Y-59013105D01*
X139828105Y-58846082D01*
X139963600Y-58652578D01*
X140063429Y-58438492D01*
X140063432Y-58438486D01*
X140120636Y-58225000D01*
X139223686Y-58225000D01*
X139249493Y-58184844D01*
X139290000Y-58046889D01*
X139290000Y-57903111D01*
X139249493Y-57765156D01*
X139223686Y-57725000D01*
X140120636Y-57725000D01*
X140120635Y-57724999D01*
X140063432Y-57511513D01*
X140063429Y-57511507D01*
X139963600Y-57297422D01*
X139963599Y-57297420D01*
X139828113Y-57103926D01*
X139828108Y-57103920D01*
X139661082Y-56936894D01*
X139467578Y-56801399D01*
X139253492Y-56701570D01*
X139253486Y-56701567D01*
X139040000Y-56644364D01*
X139040000Y-57539498D01*
X138932315Y-57490320D01*
X138825763Y-57475000D01*
X138754237Y-57475000D01*
X138647685Y-57490320D01*
X138540000Y-57539498D01*
X138540000Y-56644364D01*
X138539999Y-56644364D01*
X138326513Y-56701567D01*
X138326507Y-56701570D01*
X138112422Y-56801399D01*
X138112420Y-56801400D01*
X137918926Y-56936886D01*
X137796865Y-57058947D01*
X137735542Y-57092431D01*
X137665850Y-57087447D01*
X137609917Y-57045575D01*
X137593002Y-57014598D01*
X137543797Y-56882671D01*
X137543793Y-56882664D01*
X137457547Y-56767455D01*
X137457544Y-56767452D01*
X137342335Y-56681206D01*
X137342328Y-56681202D01*
X137207482Y-56630908D01*
X137207483Y-56630908D01*
X137147883Y-56624501D01*
X137147881Y-56624500D01*
X137147873Y-56624500D01*
X137147865Y-56624500D01*
X137074500Y-56624500D01*
X137007461Y-56604815D01*
X136961706Y-56552011D01*
X136950500Y-56500500D01*
X136950500Y-55449499D01*
X136970185Y-55382460D01*
X137022989Y-55336705D01*
X137074500Y-55325499D01*
X137147871Y-55325499D01*
X137147872Y-55325499D01*
X137207483Y-55319091D01*
X137342331Y-55268796D01*
X137457546Y-55182546D01*
X137543796Y-55067331D01*
X137593002Y-54935401D01*
X137634872Y-54879468D01*
X137700337Y-54855050D01*
X137768610Y-54869901D01*
X137796865Y-54891053D01*
X137918917Y-55013105D01*
X138112421Y-55148600D01*
X138326507Y-55248429D01*
X138326516Y-55248433D01*
X138540000Y-55305634D01*
X138540000Y-54410501D01*
X138647685Y-54459680D01*
X138754237Y-54475000D01*
X138825763Y-54475000D01*
X138932315Y-54459680D01*
X139040000Y-54410501D01*
X139040000Y-55305633D01*
X139253483Y-55248433D01*
X139253492Y-55248429D01*
X139467578Y-55148600D01*
X139661082Y-55013105D01*
X139674187Y-55000000D01*
X141294922Y-55000000D01*
X141315219Y-55387287D01*
X141375886Y-55770323D01*
X141375887Y-55770330D01*
X141476262Y-56144936D01*
X141615244Y-56506994D01*
X141791310Y-56852543D01*
X142002531Y-57177793D01*
X142211095Y-57435350D01*
X142211096Y-57435350D01*
X143108756Y-56537689D01*
X143067449Y-56599511D01*
X143048046Y-56697056D01*
X143067449Y-56794601D01*
X143122704Y-56877296D01*
X143205399Y-56932551D01*
X143278320Y-56947056D01*
X143327568Y-56947056D01*
X143400489Y-56932551D01*
X143462304Y-56891247D01*
X142564648Y-57788903D01*
X142564649Y-57788904D01*
X142822206Y-57997468D01*
X143147456Y-58208689D01*
X143493005Y-58384755D01*
X143855063Y-58523737D01*
X144229669Y-58624112D01*
X144229676Y-58624113D01*
X144612712Y-58684780D01*
X144999999Y-58705078D01*
X145000001Y-58705078D01*
X145387287Y-58684780D01*
X145770323Y-58624113D01*
X145770330Y-58624112D01*
X146144936Y-58523737D01*
X146506994Y-58384755D01*
X146852543Y-58208689D01*
X147177783Y-57997476D01*
X147177785Y-57997475D01*
X147435349Y-57788902D01*
X146537691Y-56891244D01*
X146599511Y-56932551D01*
X146672432Y-56947056D01*
X146721680Y-56947056D01*
X146794601Y-56932551D01*
X146877296Y-56877296D01*
X146932551Y-56794601D01*
X146951954Y-56697056D01*
X146932551Y-56599511D01*
X146891244Y-56537691D01*
X147788902Y-57435349D01*
X147997475Y-57177785D01*
X147997476Y-57177783D01*
X148208689Y-56852543D01*
X148384755Y-56506994D01*
X148523737Y-56144936D01*
X148624112Y-55770330D01*
X148624113Y-55770323D01*
X148684780Y-55387287D01*
X148705078Y-55000000D01*
X148705078Y-54999999D01*
X148684780Y-54612712D01*
X148624113Y-54229676D01*
X148624112Y-54229669D01*
X148523737Y-53855063D01*
X148384755Y-53493005D01*
X148208689Y-53147456D01*
X147997468Y-52822206D01*
X147788904Y-52564649D01*
X147788903Y-52564648D01*
X146891247Y-53462303D01*
X146932551Y-53400489D01*
X146951954Y-53302944D01*
X146932551Y-53205399D01*
X146877296Y-53122704D01*
X146794601Y-53067449D01*
X146721680Y-53052944D01*
X146672432Y-53052944D01*
X146599511Y-53067449D01*
X146537690Y-53108755D01*
X147435350Y-52211096D01*
X147435350Y-52211095D01*
X147177793Y-52002531D01*
X146852543Y-51791310D01*
X146506994Y-51615244D01*
X146144936Y-51476262D01*
X145770330Y-51375887D01*
X145770323Y-51375886D01*
X145387287Y-51315219D01*
X145000001Y-51294922D01*
X144999999Y-51294922D01*
X144612712Y-51315219D01*
X144229676Y-51375886D01*
X144229669Y-51375887D01*
X143855063Y-51476262D01*
X143493005Y-51615244D01*
X143147456Y-51791310D01*
X142822206Y-52002531D01*
X142564648Y-52211095D01*
X142564648Y-52211096D01*
X143462306Y-53108754D01*
X143400489Y-53067449D01*
X143327568Y-53052944D01*
X143278320Y-53052944D01*
X143205399Y-53067449D01*
X143122704Y-53122704D01*
X143067449Y-53205399D01*
X143048046Y-53302944D01*
X143067449Y-53400489D01*
X143108753Y-53462305D01*
X142211096Y-52564648D01*
X142211095Y-52564648D01*
X142002531Y-52822206D01*
X141791310Y-53147456D01*
X141615244Y-53493005D01*
X141476262Y-53855063D01*
X141375887Y-54229669D01*
X141375886Y-54229676D01*
X141315219Y-54612712D01*
X141294922Y-54999999D01*
X141294922Y-55000000D01*
X139674187Y-55000000D01*
X139828105Y-54846082D01*
X139963600Y-54652578D01*
X140063429Y-54438492D01*
X140063432Y-54438486D01*
X140120636Y-54225000D01*
X139223686Y-54225000D01*
X139249493Y-54184844D01*
X139290000Y-54046889D01*
X139290000Y-53903111D01*
X139249493Y-53765156D01*
X139223686Y-53725000D01*
X140120636Y-53725000D01*
X140120635Y-53724999D01*
X140063432Y-53511513D01*
X140063429Y-53511507D01*
X139963600Y-53297422D01*
X139963599Y-53297420D01*
X139828113Y-53103926D01*
X139828108Y-53103920D01*
X139661082Y-52936894D01*
X139467578Y-52801399D01*
X139253492Y-52701570D01*
X139253486Y-52701567D01*
X139040000Y-52644364D01*
X139040000Y-53539498D01*
X138932315Y-53490320D01*
X138825763Y-53475000D01*
X138754237Y-53475000D01*
X138647685Y-53490320D01*
X138540000Y-53539498D01*
X138540000Y-52644364D01*
X138539999Y-52644364D01*
X138326513Y-52701567D01*
X138326507Y-52701570D01*
X138112422Y-52801399D01*
X138112420Y-52801400D01*
X137918926Y-52936886D01*
X137796865Y-53058947D01*
X137735542Y-53092431D01*
X137665850Y-53087447D01*
X137609917Y-53045575D01*
X137593002Y-53014598D01*
X137543797Y-52882671D01*
X137543793Y-52882664D01*
X137457547Y-52767455D01*
X137457544Y-52767452D01*
X137342335Y-52681206D01*
X137342328Y-52681202D01*
X137207482Y-52630908D01*
X137207483Y-52630908D01*
X137147883Y-52624501D01*
X137147881Y-52624500D01*
X137147873Y-52624500D01*
X137147865Y-52624500D01*
X135941519Y-52624500D01*
X135874480Y-52604815D01*
X135853838Y-52588181D01*
X135512940Y-52247283D01*
X135507805Y-52241828D01*
X135467929Y-52196816D01*
X135467924Y-52196812D01*
X135418438Y-52162655D01*
X135412403Y-52158215D01*
X135365060Y-52121124D01*
X135365055Y-52121120D01*
X135355813Y-52116961D01*
X135336266Y-52105936D01*
X135327931Y-52100183D01*
X135327932Y-52100183D01*
X135327930Y-52100182D01*
X135271694Y-52078854D01*
X135264790Y-52075994D01*
X135209932Y-52051305D01*
X135209930Y-52051304D01*
X135199946Y-52049474D01*
X135178343Y-52043451D01*
X135168874Y-52039860D01*
X135168871Y-52039859D01*
X135109171Y-52032610D01*
X135101770Y-52031483D01*
X135042609Y-52020642D01*
X135042603Y-52020642D01*
X134982567Y-52024274D01*
X134975079Y-52024500D01*
X128874927Y-52024500D01*
X128852576Y-52022469D01*
X128842607Y-52020642D01*
X128842603Y-52020642D01*
X128782567Y-52024274D01*
X128775079Y-52024500D01*
X122759910Y-52024500D01*
X122752423Y-52024274D01*
X122692396Y-52020643D01*
X122692389Y-52020643D01*
X122633243Y-52031481D01*
X122625843Y-52032608D01*
X122566125Y-52039860D01*
X122556642Y-52043456D01*
X122535038Y-52049478D01*
X122533535Y-52049754D01*
X122525065Y-52051306D01*
X122525063Y-52051307D01*
X122470234Y-52075983D01*
X122463319Y-52078848D01*
X122407068Y-52100182D01*
X122398724Y-52105942D01*
X122379183Y-52116964D01*
X122369944Y-52121122D01*
X122369939Y-52121125D01*
X122322594Y-52158216D01*
X122316566Y-52162652D01*
X122267072Y-52196816D01*
X122267064Y-52196823D01*
X122227183Y-52241838D01*
X122222051Y-52247290D01*
X121856160Y-52613181D01*
X121794837Y-52646666D01*
X121768479Y-52649500D01*
X120562129Y-52649500D01*
X120562123Y-52649501D01*
X120502516Y-52655908D01*
X120367671Y-52706202D01*
X120367664Y-52706206D01*
X120252455Y-52792452D01*
X120252452Y-52792455D01*
X120166206Y-52907664D01*
X120166202Y-52907671D01*
X120115908Y-53042517D01*
X120109501Y-53102116D01*
X120109500Y-53102135D01*
X120109500Y-54897870D01*
X120109501Y-54897876D01*
X120115908Y-54957483D01*
X120166202Y-55092328D01*
X120166206Y-55092335D01*
X120252452Y-55207544D01*
X120252455Y-55207547D01*
X120367664Y-55293793D01*
X120367671Y-55293797D01*
X120399408Y-55305634D01*
X120502517Y-55344091D01*
X120562127Y-55350500D01*
X120635500Y-55350499D01*
X120702538Y-55370183D01*
X120748294Y-55422986D01*
X120759500Y-55474499D01*
X120759500Y-56525500D01*
X120739815Y-56592539D01*
X120687011Y-56638294D01*
X120635502Y-56649500D01*
X120562130Y-56649500D01*
X120562123Y-56649501D01*
X120502516Y-56655908D01*
X120367671Y-56706202D01*
X120367664Y-56706206D01*
X120252455Y-56792452D01*
X120252452Y-56792455D01*
X120166206Y-56907664D01*
X120166202Y-56907671D01*
X120115908Y-57042517D01*
X120109501Y-57102116D01*
X120109500Y-57102135D01*
X120109500Y-58897870D01*
X120109501Y-58897876D01*
X120115908Y-58957483D01*
X120166202Y-59092328D01*
X120166206Y-59092335D01*
X120252452Y-59207544D01*
X120252455Y-59207547D01*
X120367664Y-59293793D01*
X120367671Y-59293797D01*
X120399408Y-59305634D01*
X120502517Y-59344091D01*
X120562127Y-59350500D01*
X120635500Y-59350499D01*
X120702538Y-59370183D01*
X120748294Y-59422986D01*
X120759500Y-59474499D01*
X120759500Y-60500500D01*
X120739815Y-60567539D01*
X120687011Y-60613294D01*
X120635501Y-60624500D01*
X120552130Y-60624500D01*
X120552123Y-60624501D01*
X120492516Y-60630908D01*
X120357671Y-60681202D01*
X120357664Y-60681206D01*
X120242455Y-60767452D01*
X120242452Y-60767455D01*
X120156206Y-60882664D01*
X120156202Y-60882671D01*
X120105908Y-61017517D01*
X120099501Y-61077116D01*
X120099500Y-61077135D01*
X120099500Y-62872870D01*
X120099501Y-62872876D01*
X120105908Y-62932483D01*
X120156202Y-63067328D01*
X120156206Y-63067335D01*
X120242452Y-63182544D01*
X120242455Y-63182547D01*
X120357664Y-63268793D01*
X120357671Y-63268797D01*
X120370101Y-63273433D01*
X120492517Y-63319091D01*
X120552127Y-63325500D01*
X120635501Y-63325499D01*
X120702538Y-63345183D01*
X120748294Y-63397986D01*
X120759500Y-63449499D01*
X120759500Y-64525500D01*
X120739815Y-64592539D01*
X120687011Y-64638294D01*
X120635502Y-64649500D01*
X120562130Y-64649500D01*
X120562123Y-64649501D01*
X120502516Y-64655908D01*
X120367671Y-64706202D01*
X120367664Y-64706206D01*
X120252455Y-64792452D01*
X120252452Y-64792455D01*
X120166206Y-64907664D01*
X120166202Y-64907671D01*
X120115908Y-65042517D01*
X120109501Y-65102116D01*
X120109500Y-65102135D01*
X120109500Y-66897870D01*
X120109501Y-66897876D01*
X120115908Y-66957483D01*
X120166202Y-67092328D01*
X120166206Y-67092335D01*
X120252452Y-67207544D01*
X120252455Y-67207547D01*
X120367664Y-67293793D01*
X120367671Y-67293797D01*
X120377927Y-67297622D01*
X120502517Y-67344091D01*
X120562127Y-67350500D01*
X120635500Y-67350499D01*
X120702538Y-67370183D01*
X120748294Y-67422986D01*
X120759500Y-67474499D01*
X120759500Y-68500500D01*
X120739815Y-68567539D01*
X120687011Y-68613294D01*
X120635501Y-68624500D01*
X120552130Y-68624500D01*
X120552123Y-68624501D01*
X120492516Y-68630908D01*
X120357671Y-68681202D01*
X120357664Y-68681206D01*
X120242455Y-68767452D01*
X120242452Y-68767455D01*
X120156206Y-68882664D01*
X120156202Y-68882671D01*
X120105908Y-69017517D01*
X120099501Y-69077116D01*
X120099500Y-69077135D01*
X120099500Y-70283480D01*
X120079815Y-70350519D01*
X120063181Y-70371161D01*
X110722290Y-79712051D01*
X110716838Y-79717183D01*
X110671819Y-79757068D01*
X110637649Y-79806569D01*
X110633213Y-79812597D01*
X110596124Y-79859938D01*
X110596119Y-79859948D01*
X110591960Y-79869188D01*
X110580942Y-79888723D01*
X110575187Y-79897061D01*
X110575179Y-79897076D01*
X110553853Y-79953305D01*
X110550989Y-79960220D01*
X110526305Y-80015068D01*
X110524477Y-80025042D01*
X110518453Y-80046653D01*
X110514860Y-80056127D01*
X110514860Y-80056128D01*
X110507610Y-80115827D01*
X110506483Y-80123227D01*
X110495642Y-80182389D01*
X110495642Y-80182395D01*
X110499274Y-80242432D01*
X110499500Y-80249920D01*
X110499500Y-82284608D01*
X110479815Y-82351647D01*
X110467656Y-82367574D01*
X110467468Y-82367782D01*
X110467464Y-82367787D01*
X110372821Y-82531715D01*
X110372818Y-82531722D01*
X110353093Y-82592431D01*
X110314326Y-82711744D01*
X110294540Y-82900000D01*
X100000500Y-82900000D01*
X100000500Y-69558028D01*
X108299500Y-69558028D01*
X108299501Y-69558034D01*
X108310113Y-69677415D01*
X108366089Y-69873045D01*
X108366090Y-69873048D01*
X108366091Y-69873049D01*
X108460302Y-70053407D01*
X108460304Y-70053409D01*
X108588890Y-70211109D01*
X108677647Y-70283480D01*
X108746593Y-70339698D01*
X108926951Y-70433909D01*
X109122582Y-70489886D01*
X109241963Y-70500500D01*
X112358036Y-70500499D01*
X112477418Y-70489886D01*
X112673049Y-70433909D01*
X112853407Y-70339698D01*
X113011109Y-70211109D01*
X113139698Y-70053407D01*
X113233909Y-69873049D01*
X113289886Y-69677418D01*
X113300500Y-69558037D01*
X113300499Y-68441964D01*
X113289886Y-68322582D01*
X113233909Y-68126951D01*
X113139698Y-67946593D01*
X113087684Y-67882803D01*
X113011109Y-67788890D01*
X112853409Y-67660304D01*
X112853410Y-67660304D01*
X112853407Y-67660302D01*
X112673049Y-67566091D01*
X112673048Y-67566090D01*
X112673045Y-67566089D01*
X112555829Y-67532550D01*
X112477418Y-67510114D01*
X112477415Y-67510113D01*
X112477413Y-67510113D01*
X112411102Y-67504217D01*
X112358037Y-67499500D01*
X112358032Y-67499500D01*
X109241971Y-67499500D01*
X109241965Y-67499500D01*
X109241964Y-67499501D01*
X109230316Y-67500536D01*
X109122584Y-67510113D01*
X108926954Y-67566089D01*
X108836772Y-67613196D01*
X108746593Y-67660302D01*
X108746591Y-67660303D01*
X108746590Y-67660304D01*
X108588890Y-67788890D01*
X108460304Y-67946590D01*
X108366089Y-68126954D01*
X108310114Y-68322583D01*
X108310113Y-68322586D01*
X108299500Y-68441966D01*
X108299500Y-69558028D01*
X100000500Y-69558028D01*
X100000500Y-66108000D01*
X106300000Y-66108000D01*
X106310608Y-66227325D01*
X106310609Y-66227328D01*
X106366557Y-66422861D01*
X106460721Y-66603129D01*
X106589246Y-66760753D01*
X106746870Y-66889278D01*
X106927138Y-66983442D01*
X107122671Y-67039390D01*
X107122674Y-67039391D01*
X107241999Y-67049999D01*
X107242002Y-67050000D01*
X107550000Y-67050000D01*
X107550000Y-65733686D01*
X107590156Y-65759493D01*
X107728111Y-65800000D01*
X107871889Y-65800000D01*
X108009844Y-65759493D01*
X108050000Y-65733686D01*
X108050000Y-67050000D01*
X108357998Y-67050000D01*
X108358000Y-67049999D01*
X108477325Y-67039391D01*
X108477328Y-67039390D01*
X108672861Y-66983442D01*
X108853129Y-66889278D01*
X109010753Y-66760753D01*
X109139278Y-66603129D01*
X109233442Y-66422861D01*
X109279770Y-66260948D01*
X112049500Y-66260948D01*
X112052376Y-66309226D01*
X112052376Y-66309230D01*
X112052377Y-66309231D01*
X112098063Y-66519249D01*
X112098066Y-66519260D01*
X112182677Y-66716845D01*
X112303151Y-66894848D01*
X112303159Y-66894857D01*
X112455142Y-67046840D01*
X112455151Y-67046848D01*
X112584460Y-67134365D01*
X112633152Y-67167321D01*
X112633153Y-67167321D01*
X112633154Y-67167322D01*
X112727081Y-67207544D01*
X112830741Y-67251934D01*
X113040774Y-67297624D01*
X113089052Y-67300500D01*
X113089064Y-67300500D01*
X114510936Y-67300500D01*
X114510948Y-67300500D01*
X114559226Y-67297624D01*
X114769259Y-67251934D01*
X114966848Y-67167321D01*
X115144855Y-67046843D01*
X115296843Y-66894855D01*
X115417321Y-66716848D01*
X115501934Y-66519259D01*
X115547624Y-66309226D01*
X115550500Y-66260948D01*
X115550500Y-62339052D01*
X115547624Y-62290774D01*
X115501934Y-62080741D01*
X115417321Y-61883152D01*
X115354380Y-61790156D01*
X115296848Y-61705151D01*
X115296840Y-61705142D01*
X115144857Y-61553159D01*
X115144848Y-61553151D01*
X114966845Y-61432677D01*
X114769260Y-61348066D01*
X114769249Y-61348063D01*
X114559231Y-61302377D01*
X114559230Y-61302376D01*
X114559226Y-61302376D01*
X114510948Y-61299500D01*
X113089052Y-61299500D01*
X113040774Y-61302376D01*
X113040769Y-61302376D01*
X113040768Y-61302377D01*
X112830750Y-61348063D01*
X112830739Y-61348066D01*
X112633154Y-61432677D01*
X112455151Y-61553151D01*
X112455142Y-61553159D01*
X112303159Y-61705142D01*
X112303151Y-61705151D01*
X112182677Y-61883154D01*
X112098066Y-62080739D01*
X112098063Y-62080750D01*
X112052377Y-62290768D01*
X112052376Y-62290774D01*
X112049500Y-62339052D01*
X112049500Y-66260948D01*
X109279770Y-66260948D01*
X109289390Y-66227328D01*
X109289391Y-66227325D01*
X109299999Y-66108000D01*
X109300000Y-66107998D01*
X109300000Y-64550000D01*
X108300000Y-64550000D01*
X108300000Y-64050000D01*
X109300000Y-64050000D01*
X109300000Y-62492002D01*
X109299999Y-62491999D01*
X109289391Y-62372674D01*
X109289390Y-62372671D01*
X109233442Y-62177138D01*
X109139278Y-61996870D01*
X109010753Y-61839246D01*
X108853129Y-61710721D01*
X108672861Y-61616557D01*
X108477328Y-61560609D01*
X108477325Y-61560608D01*
X108358000Y-61550000D01*
X108050000Y-61550000D01*
X108050000Y-62866313D01*
X108009844Y-62840507D01*
X107871889Y-62800000D01*
X107728111Y-62800000D01*
X107590156Y-62840507D01*
X107550000Y-62866313D01*
X107550000Y-61550000D01*
X107241999Y-61550000D01*
X107122674Y-61560608D01*
X107122671Y-61560609D01*
X106927138Y-61616557D01*
X106746870Y-61710721D01*
X106589246Y-61839246D01*
X106460721Y-61996870D01*
X106366557Y-62177138D01*
X106310609Y-62372671D01*
X106310608Y-62372674D01*
X106300000Y-62491999D01*
X106300000Y-64050000D01*
X107300000Y-64050000D01*
X107300000Y-64550000D01*
X106300000Y-64550000D01*
X106300000Y-66108000D01*
X100000500Y-66108000D01*
X100000500Y-55000000D01*
X101294922Y-55000000D01*
X101315219Y-55387287D01*
X101375886Y-55770323D01*
X101375887Y-55770330D01*
X101476262Y-56144936D01*
X101615244Y-56506994D01*
X101791310Y-56852543D01*
X102002531Y-57177793D01*
X102211095Y-57435350D01*
X102211096Y-57435350D01*
X103108756Y-56537689D01*
X103067449Y-56599511D01*
X103048046Y-56697056D01*
X103067449Y-56794601D01*
X103122704Y-56877296D01*
X103205399Y-56932551D01*
X103278320Y-56947056D01*
X103327568Y-56947056D01*
X103400489Y-56932551D01*
X103462304Y-56891247D01*
X102564648Y-57788903D01*
X102564649Y-57788904D01*
X102822206Y-57997468D01*
X103147456Y-58208689D01*
X103493005Y-58384755D01*
X103855063Y-58523737D01*
X104229669Y-58624112D01*
X104229676Y-58624113D01*
X104612712Y-58684780D01*
X104999999Y-58705078D01*
X105000001Y-58705078D01*
X105387287Y-58684780D01*
X105770323Y-58624113D01*
X105770330Y-58624112D01*
X106144936Y-58523737D01*
X106506994Y-58384755D01*
X106852543Y-58208689D01*
X107177783Y-57997476D01*
X107177785Y-57997475D01*
X107435349Y-57788902D01*
X106537691Y-56891244D01*
X106599511Y-56932551D01*
X106672432Y-56947056D01*
X106721680Y-56947056D01*
X106794601Y-56932551D01*
X106877296Y-56877296D01*
X106932551Y-56794601D01*
X106951954Y-56697056D01*
X106932551Y-56599511D01*
X106891244Y-56537691D01*
X107788902Y-57435349D01*
X107997475Y-57177785D01*
X107997476Y-57177783D01*
X108208689Y-56852543D01*
X108384755Y-56506994D01*
X108523737Y-56144936D01*
X108624112Y-55770330D01*
X108624113Y-55770323D01*
X108684780Y-55387287D01*
X108705078Y-55000000D01*
X108705078Y-54999999D01*
X108684780Y-54612712D01*
X108624113Y-54229676D01*
X108624112Y-54229669D01*
X108523737Y-53855063D01*
X108384755Y-53493005D01*
X108208689Y-53147456D01*
X107997468Y-52822206D01*
X107788904Y-52564649D01*
X107788903Y-52564648D01*
X106891247Y-53462303D01*
X106932551Y-53400489D01*
X106951954Y-53302944D01*
X106932551Y-53205399D01*
X106877296Y-53122704D01*
X106794601Y-53067449D01*
X106721680Y-53052944D01*
X106672432Y-53052944D01*
X106599511Y-53067449D01*
X106537690Y-53108755D01*
X107435350Y-52211096D01*
X107435350Y-52211095D01*
X107177793Y-52002531D01*
X106852543Y-51791310D01*
X106506994Y-51615244D01*
X106144936Y-51476262D01*
X105770330Y-51375887D01*
X105770323Y-51375886D01*
X105387287Y-51315219D01*
X105000001Y-51294922D01*
X104999999Y-51294922D01*
X104612712Y-51315219D01*
X104229676Y-51375886D01*
X104229669Y-51375887D01*
X103855063Y-51476262D01*
X103493005Y-51615244D01*
X103147456Y-51791310D01*
X102822206Y-52002531D01*
X102564648Y-52211095D01*
X102564648Y-52211096D01*
X103462306Y-53108754D01*
X103400489Y-53067449D01*
X103327568Y-53052944D01*
X103278320Y-53052944D01*
X103205399Y-53067449D01*
X103122704Y-53122704D01*
X103067449Y-53205399D01*
X103048046Y-53302944D01*
X103067449Y-53400489D01*
X103108753Y-53462305D01*
X102211096Y-52564648D01*
X102211095Y-52564648D01*
X102002531Y-52822206D01*
X101791310Y-53147456D01*
X101615244Y-53493005D01*
X101476262Y-53855063D01*
X101375887Y-54229669D01*
X101375886Y-54229676D01*
X101315219Y-54612712D01*
X101294922Y-54999999D01*
X101294922Y-55000000D01*
X100000500Y-55000000D01*
X100000500Y-52130893D01*
X100000579Y-52126467D01*
X100000918Y-52116964D01*
X100009942Y-51864314D01*
X100011122Y-51851120D01*
X100049422Y-51584730D01*
X100053182Y-51567451D01*
X100128380Y-51311348D01*
X100134556Y-51294792D01*
X100245430Y-51052010D01*
X100253904Y-51036492D01*
X100398200Y-50811963D01*
X100408798Y-50797803D01*
X100583587Y-50596086D01*
X100596086Y-50583587D01*
X100797803Y-50408798D01*
X100811963Y-50398200D01*
X101036492Y-50253904D01*
X101052010Y-50245430D01*
X101294792Y-50134556D01*
X101311348Y-50128380D01*
X101568787Y-50052789D01*
X101586056Y-50049033D01*
X101848348Y-50011320D01*
X101861555Y-50010139D01*
X101982032Y-50005848D01*
X102129981Y-50000579D01*
X102134395Y-50000500D01*
X102528301Y-50000500D01*
X148055180Y-50009514D01*
G37*
%TD.AperFunction*%
%TD*%
M02*
