%TF.GenerationSoftware,KiCad,Pcbnew,7.0.10-7.0.10~ubuntu22.04.1*%
%TF.CreationDate,2024-01-03T18:05:14-08:00*%
%TF.ProjectId,YamhillPowerDistribution,59616d68-696c-46c5-906f-776572446973,A*%
%TF.SameCoordinates,Original*%
%TF.FileFunction,Soldermask,Top*%
%TF.FilePolarity,Negative*%
%FSLAX46Y46*%
G04 Gerber Fmt 4.6, Leading zero omitted, Abs format (unit mm)*
G04 Created by KiCad (PCBNEW 7.0.10-7.0.10~ubuntu22.04.1) date 2024-01-03 18:05:14*
%MOMM*%
%LPD*%
G01*
G04 APERTURE LIST*
G04 Aperture macros list*
%AMRoundRect*
0 Rectangle with rounded corners*
0 $1 Rounding radius*
0 $2 $3 $4 $5 $6 $7 $8 $9 X,Y pos of 4 corners*
0 Add a 4 corners polygon primitive as box body*
4,1,4,$2,$3,$4,$5,$6,$7,$8,$9,$2,$3,0*
0 Add four circle primitives for the rounded corners*
1,1,$1+$1,$2,$3*
1,1,$1+$1,$4,$5*
1,1,$1+$1,$6,$7*
1,1,$1+$1,$8,$9*
0 Add four rect primitives between the rounded corners*
20,1,$1+$1,$2,$3,$4,$5,0*
20,1,$1+$1,$4,$5,$6,$7,0*
20,1,$1+$1,$6,$7,$8,$9,0*
20,1,$1+$1,$8,$9,$2,$3,0*%
G04 Aperture macros list end*
%ADD10C,0.800000*%
%ADD11C,6.400000*%
%ADD12R,1.700000X1.700000*%
%ADD13O,1.700000X1.700000*%
%ADD14RoundRect,0.250000X0.450000X-0.325000X0.450000X0.325000X-0.450000X0.325000X-0.450000X-0.325000X0*%
%ADD15RoundRect,0.250000X0.475000X-0.337500X0.475000X0.337500X-0.475000X0.337500X-0.475000X-0.337500X0*%
%ADD16RoundRect,0.250000X-0.337500X-0.475000X0.337500X-0.475000X0.337500X0.475000X-0.337500X0.475000X0*%
%ADD17R,1.800000X2.200000*%
%ADD18RoundRect,0.150000X0.825000X0.150000X-0.825000X0.150000X-0.825000X-0.150000X0.825000X-0.150000X0*%
%ADD19RoundRect,0.250000X-0.450000X0.350000X-0.450000X-0.350000X0.450000X-0.350000X0.450000X0.350000X0*%
%ADD20RoundRect,0.250000X0.850000X0.350000X-0.850000X0.350000X-0.850000X-0.350000X0.850000X-0.350000X0*%
%ADD21RoundRect,0.249997X2.950003X2.650003X-2.950003X2.650003X-2.950003X-2.650003X2.950003X-2.650003X0*%
%ADD22RoundRect,0.625000X-0.625000X1.875000X-0.625000X-1.875000X0.625000X-1.875000X0.625000X1.875000X0*%
%ADD23RoundRect,0.500000X-0.500000X1.750000X-0.500000X-1.750000X0.500000X-1.750000X0.500000X1.750000X0*%
%ADD24RoundRect,0.500000X-1.500000X0.500000X-1.500000X-0.500000X1.500000X-0.500000X1.500000X0.500000X0*%
%ADD25RoundRect,0.250000X0.400000X1.450000X-0.400000X1.450000X-0.400000X-1.450000X0.400000X-1.450000X0*%
G04 APERTURE END LIST*
D10*
%TO.C,H3*%
X102600000Y-95000000D03*
X103302944Y-93302944D03*
X103302944Y-96697056D03*
X105000000Y-92600000D03*
D11*
X105000000Y-95000000D03*
D10*
X105000000Y-97400000D03*
X106697056Y-93302944D03*
X106697056Y-96697056D03*
X107400000Y-95000000D03*
%TD*%
D12*
%TO.C,J33*%
X128860000Y-66000000D03*
D13*
X131400000Y-66000000D03*
%TD*%
D14*
%TO.C,D3*%
X121615000Y-93380000D03*
X121615000Y-91330000D03*
%TD*%
D12*
%TO.C,J14*%
X136250000Y-53975000D03*
D13*
X138790000Y-53975000D03*
%TD*%
D12*
%TO.C,J5*%
X143550000Y-74800000D03*
D13*
X146090000Y-74800000D03*
%TD*%
D12*
%TO.C,J9*%
X143550000Y-78775000D03*
D13*
X146090000Y-78775000D03*
%TD*%
D12*
%TO.C,J13*%
X128850000Y-53975000D03*
D13*
X131390000Y-53975000D03*
%TD*%
D12*
%TO.C,J2*%
X121450000Y-74800000D03*
D13*
X123990000Y-74800000D03*
%TD*%
D10*
%TO.C,H2*%
X142600000Y-55000000D03*
X143302944Y-53302944D03*
X143302944Y-56697056D03*
X145000000Y-52600000D03*
D11*
X145000000Y-55000000D03*
D10*
X145000000Y-57400000D03*
X146697056Y-53302944D03*
X146697056Y-56697056D03*
X147400000Y-55000000D03*
%TD*%
D12*
%TO.C,J22*%
X128750000Y-87475000D03*
D13*
X131290000Y-87475000D03*
%TD*%
D12*
%TO.C,J24*%
X143550000Y-83475000D03*
D13*
X146090000Y-83475000D03*
%TD*%
D12*
%TO.C,J3*%
X128750000Y-74800000D03*
D13*
X131290000Y-74800000D03*
%TD*%
D12*
%TO.C,J26*%
X121450000Y-69975000D03*
D13*
X123990000Y-69975000D03*
%TD*%
D12*
%TO.C,J17*%
X136250000Y-57975000D03*
D13*
X138790000Y-57975000D03*
%TD*%
D12*
%TO.C,J4*%
X136250000Y-74800000D03*
D13*
X138790000Y-74800000D03*
%TD*%
D12*
%TO.C,J29*%
X143650000Y-69975000D03*
D13*
X146190000Y-69975000D03*
%TD*%
D12*
%TO.C,J6*%
X121450000Y-78775000D03*
D13*
X123990000Y-78775000D03*
%TD*%
D12*
%TO.C,J16*%
X128850000Y-57975000D03*
D13*
X131390000Y-57975000D03*
%TD*%
D12*
%TO.C,J20*%
X143550000Y-87475000D03*
D13*
X146090000Y-87475000D03*
%TD*%
D14*
%TO.C,D2*%
X117900000Y-93380000D03*
X117900000Y-91330000D03*
%TD*%
D15*
%TO.C,C3*%
X114000000Y-81637500D03*
X114000000Y-79562500D03*
%TD*%
D16*
%TO.C,C4*%
X112062500Y-88400000D03*
X114137500Y-88400000D03*
%TD*%
D12*
%TO.C,J8*%
X136250000Y-78775000D03*
D13*
X138790000Y-78775000D03*
%TD*%
D12*
%TO.C,J10*%
X121450000Y-61975000D03*
D13*
X123990000Y-61975000D03*
%TD*%
D17*
%TO.C,D1*%
X108650000Y-72500000D03*
X104550000Y-72500000D03*
%TD*%
D10*
%TO.C,H4*%
X142600000Y-95000000D03*
X143302944Y-93302944D03*
X143302944Y-96697056D03*
X145000000Y-92600000D03*
D11*
X145000000Y-95000000D03*
D10*
X145000000Y-97400000D03*
X146697056Y-93302944D03*
X146697056Y-96697056D03*
X147400000Y-95000000D03*
%TD*%
D18*
%TO.C,U2*%
X108475000Y-88805000D03*
X108475000Y-87535000D03*
X108475000Y-86265000D03*
X108475000Y-84995000D03*
X103525000Y-84995000D03*
X103525000Y-86265000D03*
X103525000Y-87535000D03*
X103525000Y-88805000D03*
%TD*%
D12*
%TO.C,J11*%
X128850000Y-61975000D03*
D13*
X131390000Y-61975000D03*
%TD*%
D16*
%TO.C,C5*%
X112062500Y-85000000D03*
X114137500Y-85000000D03*
%TD*%
D19*
%TO.C,R2*%
X121600000Y-96300000D03*
X121600000Y-98300000D03*
%TD*%
D12*
%TO.C,J21*%
X136250000Y-87475000D03*
D13*
X138790000Y-87475000D03*
%TD*%
D12*
%TO.C,J28*%
X136150000Y-69975000D03*
D13*
X138690000Y-69975000D03*
%TD*%
D16*
%TO.C,C1*%
X112062500Y-91700000D03*
X114137500Y-91700000D03*
%TD*%
D12*
%TO.C,J7*%
X128750000Y-78775000D03*
D13*
X131290000Y-78775000D03*
%TD*%
D10*
%TO.C,H1*%
X102600000Y-55000000D03*
X103302944Y-53302944D03*
X103302944Y-56697056D03*
X105000000Y-52600000D03*
D11*
X105000000Y-55000000D03*
D10*
X105000000Y-57400000D03*
X106697056Y-53302944D03*
X106697056Y-56697056D03*
X107400000Y-55000000D03*
%TD*%
D12*
%TO.C,J34*%
X136150000Y-66000000D03*
D13*
X138690000Y-66000000D03*
%TD*%
D20*
%TO.C,U1*%
X111200000Y-80760000D03*
D21*
X104900000Y-78480000D03*
D20*
X111200000Y-76200000D03*
%TD*%
D12*
%TO.C,J31*%
X143590000Y-61975000D03*
D13*
X146130000Y-61975000D03*
%TD*%
D22*
%TO.C,J1*%
X113800000Y-64300000D03*
D23*
X107800000Y-64300000D03*
D24*
X110800000Y-69000000D03*
%TD*%
D15*
%TO.C,C2*%
X114000000Y-76237500D03*
X114000000Y-74162500D03*
%TD*%
D19*
%TO.C,R1*%
X117945000Y-96300000D03*
X117945000Y-98300000D03*
%TD*%
D12*
%TO.C,J23*%
X121460000Y-87500000D03*
D13*
X124000000Y-87500000D03*
%TD*%
D12*
%TO.C,J15*%
X121460000Y-58000000D03*
D13*
X124000000Y-58000000D03*
%TD*%
D12*
%TO.C,J12*%
X121460000Y-54000000D03*
D13*
X124000000Y-54000000D03*
%TD*%
D25*
%TO.C,F1*%
X116325000Y-55000000D03*
X111875000Y-55000000D03*
%TD*%
D12*
%TO.C,J18*%
X121450000Y-83475000D03*
D13*
X123990000Y-83475000D03*
%TD*%
D14*
%TO.C,D4*%
X125300000Y-93425000D03*
X125300000Y-91375000D03*
%TD*%
D12*
%TO.C,J35*%
X143600000Y-66000000D03*
D13*
X146140000Y-66000000D03*
%TD*%
D12*
%TO.C,J19*%
X128750000Y-83475000D03*
D13*
X131290000Y-83475000D03*
%TD*%
D19*
%TO.C,R3*%
X125325000Y-96345000D03*
X125325000Y-98345000D03*
%TD*%
D12*
%TO.C,J25*%
X136250000Y-83475000D03*
D13*
X138790000Y-83475000D03*
%TD*%
D12*
%TO.C,J32*%
X121460000Y-66000000D03*
D13*
X124000000Y-66000000D03*
%TD*%
D12*
%TO.C,J30*%
X136200000Y-62000000D03*
D13*
X138740000Y-62000000D03*
%TD*%
D12*
%TO.C,J27*%
X128850000Y-69975000D03*
D13*
X131390000Y-69975000D03*
%TD*%
M02*
