%TF.GenerationSoftware,KiCad,Pcbnew,7.0.10-7.0.10~ubuntu22.04.1*%
%TF.CreationDate,2024-01-03T18:05:14-08:00*%
%TF.ProjectId,YamhillPowerDistribution,59616d68-696c-46c5-906f-776572446973,A*%
%TF.SameCoordinates,Original*%
%TF.FileFunction,Paste,Top*%
%TF.FilePolarity,Positive*%
%FSLAX46Y46*%
G04 Gerber Fmt 4.6, Leading zero omitted, Abs format (unit mm)*
G04 Created by KiCad (PCBNEW 7.0.10-7.0.10~ubuntu22.04.1) date 2024-01-03 18:05:14*
%MOMM*%
%LPD*%
G01*
G04 APERTURE LIST*
G04 Aperture macros list*
%AMRoundRect*
0 Rectangle with rounded corners*
0 $1 Rounding radius*
0 $2 $3 $4 $5 $6 $7 $8 $9 X,Y pos of 4 corners*
0 Add a 4 corners polygon primitive as box body*
4,1,4,$2,$3,$4,$5,$6,$7,$8,$9,$2,$3,0*
0 Add four circle primitives for the rounded corners*
1,1,$1+$1,$2,$3*
1,1,$1+$1,$4,$5*
1,1,$1+$1,$6,$7*
1,1,$1+$1,$8,$9*
0 Add four rect primitives between the rounded corners*
20,1,$1+$1,$2,$3,$4,$5,0*
20,1,$1+$1,$4,$5,$6,$7,0*
20,1,$1+$1,$6,$7,$8,$9,0*
20,1,$1+$1,$8,$9,$2,$3,0*%
G04 Aperture macros list end*
%ADD10RoundRect,0.250000X0.450000X-0.325000X0.450000X0.325000X-0.450000X0.325000X-0.450000X-0.325000X0*%
%ADD11RoundRect,0.250000X0.475000X-0.337500X0.475000X0.337500X-0.475000X0.337500X-0.475000X-0.337500X0*%
%ADD12RoundRect,0.250000X-0.337500X-0.475000X0.337500X-0.475000X0.337500X0.475000X-0.337500X0.475000X0*%
%ADD13R,1.800000X2.200000*%
%ADD14RoundRect,0.150000X0.825000X0.150000X-0.825000X0.150000X-0.825000X-0.150000X0.825000X-0.150000X0*%
%ADD15RoundRect,0.250000X-0.450000X0.350000X-0.450000X-0.350000X0.450000X-0.350000X0.450000X0.350000X0*%
%ADD16RoundRect,0.250000X0.850000X0.350000X-0.850000X0.350000X-0.850000X-0.350000X0.850000X-0.350000X0*%
%ADD17RoundRect,0.250000X1.275000X1.125000X-1.275000X1.125000X-1.275000X-1.125000X1.275000X-1.125000X0*%
%ADD18RoundRect,0.250000X0.400000X1.450000X-0.400000X1.450000X-0.400000X-1.450000X0.400000X-1.450000X0*%
G04 APERTURE END LIST*
D10*
%TO.C,D3*%
X121615000Y-93380000D03*
X121615000Y-91330000D03*
%TD*%
%TO.C,D2*%
X117900000Y-93380000D03*
X117900000Y-91330000D03*
%TD*%
D11*
%TO.C,C3*%
X114000000Y-81637500D03*
X114000000Y-79562500D03*
%TD*%
D12*
%TO.C,C4*%
X112062500Y-88400000D03*
X114137500Y-88400000D03*
%TD*%
D13*
%TO.C,D1*%
X108650000Y-72500000D03*
X104550000Y-72500000D03*
%TD*%
D14*
%TO.C,U2*%
X108475000Y-88805000D03*
X108475000Y-87535000D03*
X108475000Y-86265000D03*
X108475000Y-84995000D03*
X103525000Y-84995000D03*
X103525000Y-86265000D03*
X103525000Y-87535000D03*
X103525000Y-88805000D03*
%TD*%
D12*
%TO.C,C5*%
X112062500Y-85000000D03*
X114137500Y-85000000D03*
%TD*%
D15*
%TO.C,R2*%
X121600000Y-96300000D03*
X121600000Y-98300000D03*
%TD*%
D12*
%TO.C,C1*%
X112062500Y-91700000D03*
X114137500Y-91700000D03*
%TD*%
D16*
%TO.C,U1*%
X111200000Y-80760000D03*
D17*
X106575000Y-80005000D03*
X106575000Y-76955000D03*
X103225000Y-80005000D03*
X103225000Y-76955000D03*
D16*
X111200000Y-76200000D03*
%TD*%
D11*
%TO.C,C2*%
X114000000Y-76237500D03*
X114000000Y-74162500D03*
%TD*%
D15*
%TO.C,R1*%
X117945000Y-96300000D03*
X117945000Y-98300000D03*
%TD*%
D18*
%TO.C,F1*%
X116325000Y-55000000D03*
X111875000Y-55000000D03*
%TD*%
D10*
%TO.C,D4*%
X125300000Y-93425000D03*
X125300000Y-91375000D03*
%TD*%
D15*
%TO.C,R3*%
X125325000Y-96345000D03*
X125325000Y-98345000D03*
%TD*%
M02*
