%TF.GenerationSoftware,KiCad,Pcbnew,7.0.10-7.0.10~ubuntu22.04.1*%
%TF.CreationDate,2024-01-03T18:20:11-08:00*%
%TF.ProjectId,YamhillBNCAntennaBoard,59616d68-696c-46c4-924e-43416e74656e,A*%
%TF.SameCoordinates,Original*%
%TF.FileFunction,Legend,Top*%
%TF.FilePolarity,Positive*%
%FSLAX46Y46*%
G04 Gerber Fmt 4.6, Leading zero omitted, Abs format (unit mm)*
G04 Created by KiCad (PCBNEW 7.0.10-7.0.10~ubuntu22.04.1) date 2024-01-03 18:20:11*
%MOMM*%
%LPD*%
G01*
G04 APERTURE LIST*
%ADD10C,0.175000*%
%ADD11C,0.100000*%
%ADD12C,0.200000*%
%ADD13C,0.800000*%
%ADD14C,6.400000*%
%ADD15C,2.500000*%
%ADD16C,2.600000*%
%ADD17C,1.900000*%
%ADD18C,3.600000*%
G04 APERTURE END LIST*
D10*
X109281797Y-96131757D02*
X109281797Y-95231757D01*
X109281797Y-95231757D02*
X109548464Y-95231757D01*
X109548464Y-95231757D02*
X109615131Y-95274614D01*
X109615131Y-95274614D02*
X109648464Y-95317471D01*
X109648464Y-95317471D02*
X109681797Y-95403185D01*
X109681797Y-95403185D02*
X109681797Y-95531757D01*
X109681797Y-95531757D02*
X109648464Y-95617471D01*
X109648464Y-95617471D02*
X109615131Y-95660328D01*
X109615131Y-95660328D02*
X109548464Y-95703185D01*
X109548464Y-95703185D02*
X109281797Y-95703185D01*
X109981797Y-96131757D02*
X109981797Y-95531757D01*
X109981797Y-95703185D02*
X110015131Y-95617471D01*
X110015131Y-95617471D02*
X110048464Y-95574614D01*
X110048464Y-95574614D02*
X110115131Y-95531757D01*
X110115131Y-95531757D02*
X110181797Y-95531757D01*
X110515130Y-96131757D02*
X110448464Y-96088900D01*
X110448464Y-96088900D02*
X110415130Y-96046042D01*
X110415130Y-96046042D02*
X110381797Y-95960328D01*
X110381797Y-95960328D02*
X110381797Y-95703185D01*
X110381797Y-95703185D02*
X110415130Y-95617471D01*
X110415130Y-95617471D02*
X110448464Y-95574614D01*
X110448464Y-95574614D02*
X110515130Y-95531757D01*
X110515130Y-95531757D02*
X110615130Y-95531757D01*
X110615130Y-95531757D02*
X110681797Y-95574614D01*
X110681797Y-95574614D02*
X110715130Y-95617471D01*
X110715130Y-95617471D02*
X110748464Y-95703185D01*
X110748464Y-95703185D02*
X110748464Y-95960328D01*
X110748464Y-95960328D02*
X110715130Y-96046042D01*
X110715130Y-96046042D02*
X110681797Y-96088900D01*
X110681797Y-96088900D02*
X110615130Y-96131757D01*
X110615130Y-96131757D02*
X110515130Y-96131757D01*
X111048463Y-95531757D02*
X111048463Y-96303185D01*
X111048463Y-96303185D02*
X111015130Y-96388900D01*
X111015130Y-96388900D02*
X110948463Y-96431757D01*
X110948463Y-96431757D02*
X110915130Y-96431757D01*
X111048463Y-95231757D02*
X111015130Y-95274614D01*
X111015130Y-95274614D02*
X111048463Y-95317471D01*
X111048463Y-95317471D02*
X111081797Y-95274614D01*
X111081797Y-95274614D02*
X111048463Y-95231757D01*
X111048463Y-95231757D02*
X111048463Y-95317471D01*
X111648463Y-96088900D02*
X111581796Y-96131757D01*
X111581796Y-96131757D02*
X111448463Y-96131757D01*
X111448463Y-96131757D02*
X111381796Y-96088900D01*
X111381796Y-96088900D02*
X111348463Y-96003185D01*
X111348463Y-96003185D02*
X111348463Y-95660328D01*
X111348463Y-95660328D02*
X111381796Y-95574614D01*
X111381796Y-95574614D02*
X111448463Y-95531757D01*
X111448463Y-95531757D02*
X111581796Y-95531757D01*
X111581796Y-95531757D02*
X111648463Y-95574614D01*
X111648463Y-95574614D02*
X111681796Y-95660328D01*
X111681796Y-95660328D02*
X111681796Y-95746042D01*
X111681796Y-95746042D02*
X111348463Y-95831757D01*
X112281796Y-96088900D02*
X112215130Y-96131757D01*
X112215130Y-96131757D02*
X112081796Y-96131757D01*
X112081796Y-96131757D02*
X112015130Y-96088900D01*
X112015130Y-96088900D02*
X111981796Y-96046042D01*
X111981796Y-96046042D02*
X111948463Y-95960328D01*
X111948463Y-95960328D02*
X111948463Y-95703185D01*
X111948463Y-95703185D02*
X111981796Y-95617471D01*
X111981796Y-95617471D02*
X112015130Y-95574614D01*
X112015130Y-95574614D02*
X112081796Y-95531757D01*
X112081796Y-95531757D02*
X112215130Y-95531757D01*
X112215130Y-95531757D02*
X112281796Y-95574614D01*
X112481796Y-95531757D02*
X112748463Y-95531757D01*
X112581796Y-95231757D02*
X112581796Y-96003185D01*
X112581796Y-96003185D02*
X112615130Y-96088900D01*
X112615130Y-96088900D02*
X112681796Y-96131757D01*
X112681796Y-96131757D02*
X112748463Y-96131757D01*
X113648463Y-95703185D02*
X113648463Y-96131757D01*
X113415129Y-95231757D02*
X113648463Y-95703185D01*
X113648463Y-95703185D02*
X113881796Y-95231757D01*
X114415129Y-96131757D02*
X114415129Y-95660328D01*
X114415129Y-95660328D02*
X114381796Y-95574614D01*
X114381796Y-95574614D02*
X114315129Y-95531757D01*
X114315129Y-95531757D02*
X114181796Y-95531757D01*
X114181796Y-95531757D02*
X114115129Y-95574614D01*
X114415129Y-96088900D02*
X114348463Y-96131757D01*
X114348463Y-96131757D02*
X114181796Y-96131757D01*
X114181796Y-96131757D02*
X114115129Y-96088900D01*
X114115129Y-96088900D02*
X114081796Y-96003185D01*
X114081796Y-96003185D02*
X114081796Y-95917471D01*
X114081796Y-95917471D02*
X114115129Y-95831757D01*
X114115129Y-95831757D02*
X114181796Y-95788900D01*
X114181796Y-95788900D02*
X114348463Y-95788900D01*
X114348463Y-95788900D02*
X114415129Y-95746042D01*
X114748462Y-96131757D02*
X114748462Y-95531757D01*
X114748462Y-95617471D02*
X114781796Y-95574614D01*
X114781796Y-95574614D02*
X114848462Y-95531757D01*
X114848462Y-95531757D02*
X114948462Y-95531757D01*
X114948462Y-95531757D02*
X115015129Y-95574614D01*
X115015129Y-95574614D02*
X115048462Y-95660328D01*
X115048462Y-95660328D02*
X115048462Y-96131757D01*
X115048462Y-95660328D02*
X115081796Y-95574614D01*
X115081796Y-95574614D02*
X115148462Y-95531757D01*
X115148462Y-95531757D02*
X115248462Y-95531757D01*
X115248462Y-95531757D02*
X115315129Y-95574614D01*
X115315129Y-95574614D02*
X115348462Y-95660328D01*
X115348462Y-95660328D02*
X115348462Y-96131757D01*
X115681795Y-96131757D02*
X115681795Y-95231757D01*
X115981795Y-96131757D02*
X115981795Y-95660328D01*
X115981795Y-95660328D02*
X115948462Y-95574614D01*
X115948462Y-95574614D02*
X115881795Y-95531757D01*
X115881795Y-95531757D02*
X115781795Y-95531757D01*
X115781795Y-95531757D02*
X115715129Y-95574614D01*
X115715129Y-95574614D02*
X115681795Y-95617471D01*
X116315128Y-96131757D02*
X116315128Y-95531757D01*
X116315128Y-95231757D02*
X116281795Y-95274614D01*
X116281795Y-95274614D02*
X116315128Y-95317471D01*
X116315128Y-95317471D02*
X116348462Y-95274614D01*
X116348462Y-95274614D02*
X116315128Y-95231757D01*
X116315128Y-95231757D02*
X116315128Y-95317471D01*
X116748461Y-96131757D02*
X116681795Y-96088900D01*
X116681795Y-96088900D02*
X116648461Y-96003185D01*
X116648461Y-96003185D02*
X116648461Y-95231757D01*
X117115128Y-96131757D02*
X117048462Y-96088900D01*
X117048462Y-96088900D02*
X117015128Y-96003185D01*
X117015128Y-96003185D02*
X117015128Y-95231757D01*
X109681797Y-97495042D02*
X109648464Y-97537900D01*
X109648464Y-97537900D02*
X109548464Y-97580757D01*
X109548464Y-97580757D02*
X109481797Y-97580757D01*
X109481797Y-97580757D02*
X109381797Y-97537900D01*
X109381797Y-97537900D02*
X109315131Y-97452185D01*
X109315131Y-97452185D02*
X109281797Y-97366471D01*
X109281797Y-97366471D02*
X109248464Y-97195042D01*
X109248464Y-97195042D02*
X109248464Y-97066471D01*
X109248464Y-97066471D02*
X109281797Y-96895042D01*
X109281797Y-96895042D02*
X109315131Y-96809328D01*
X109315131Y-96809328D02*
X109381797Y-96723614D01*
X109381797Y-96723614D02*
X109481797Y-96680757D01*
X109481797Y-96680757D02*
X109548464Y-96680757D01*
X109548464Y-96680757D02*
X109648464Y-96723614D01*
X109648464Y-96723614D02*
X109681797Y-96766471D01*
X109981797Y-97580757D02*
X109981797Y-96980757D01*
X109981797Y-97152185D02*
X110015131Y-97066471D01*
X110015131Y-97066471D02*
X110048464Y-97023614D01*
X110048464Y-97023614D02*
X110115131Y-96980757D01*
X110115131Y-96980757D02*
X110181797Y-96980757D01*
X110681797Y-97537900D02*
X110615130Y-97580757D01*
X110615130Y-97580757D02*
X110481797Y-97580757D01*
X110481797Y-97580757D02*
X110415130Y-97537900D01*
X110415130Y-97537900D02*
X110381797Y-97452185D01*
X110381797Y-97452185D02*
X110381797Y-97109328D01*
X110381797Y-97109328D02*
X110415130Y-97023614D01*
X110415130Y-97023614D02*
X110481797Y-96980757D01*
X110481797Y-96980757D02*
X110615130Y-96980757D01*
X110615130Y-96980757D02*
X110681797Y-97023614D01*
X110681797Y-97023614D02*
X110715130Y-97109328D01*
X110715130Y-97109328D02*
X110715130Y-97195042D01*
X110715130Y-97195042D02*
X110381797Y-97280757D01*
X111315130Y-97580757D02*
X111315130Y-97109328D01*
X111315130Y-97109328D02*
X111281797Y-97023614D01*
X111281797Y-97023614D02*
X111215130Y-96980757D01*
X111215130Y-96980757D02*
X111081797Y-96980757D01*
X111081797Y-96980757D02*
X111015130Y-97023614D01*
X111315130Y-97537900D02*
X111248464Y-97580757D01*
X111248464Y-97580757D02*
X111081797Y-97580757D01*
X111081797Y-97580757D02*
X111015130Y-97537900D01*
X111015130Y-97537900D02*
X110981797Y-97452185D01*
X110981797Y-97452185D02*
X110981797Y-97366471D01*
X110981797Y-97366471D02*
X111015130Y-97280757D01*
X111015130Y-97280757D02*
X111081797Y-97237900D01*
X111081797Y-97237900D02*
X111248464Y-97237900D01*
X111248464Y-97237900D02*
X111315130Y-97195042D01*
X111548463Y-96980757D02*
X111815130Y-96980757D01*
X111648463Y-96680757D02*
X111648463Y-97452185D01*
X111648463Y-97452185D02*
X111681797Y-97537900D01*
X111681797Y-97537900D02*
X111748463Y-97580757D01*
X111748463Y-97580757D02*
X111815130Y-97580757D01*
X112048463Y-97580757D02*
X112048463Y-96980757D01*
X112048463Y-96680757D02*
X112015130Y-96723614D01*
X112015130Y-96723614D02*
X112048463Y-96766471D01*
X112048463Y-96766471D02*
X112081797Y-96723614D01*
X112081797Y-96723614D02*
X112048463Y-96680757D01*
X112048463Y-96680757D02*
X112048463Y-96766471D01*
X112315130Y-96980757D02*
X112481796Y-97580757D01*
X112481796Y-97580757D02*
X112648463Y-96980757D01*
X113181796Y-97537900D02*
X113115129Y-97580757D01*
X113115129Y-97580757D02*
X112981796Y-97580757D01*
X112981796Y-97580757D02*
X112915129Y-97537900D01*
X112915129Y-97537900D02*
X112881796Y-97452185D01*
X112881796Y-97452185D02*
X112881796Y-97109328D01*
X112881796Y-97109328D02*
X112915129Y-97023614D01*
X112915129Y-97023614D02*
X112981796Y-96980757D01*
X112981796Y-96980757D02*
X113115129Y-96980757D01*
X113115129Y-96980757D02*
X113181796Y-97023614D01*
X113181796Y-97023614D02*
X113215129Y-97109328D01*
X113215129Y-97109328D02*
X113215129Y-97195042D01*
X113215129Y-97195042D02*
X112881796Y-97280757D01*
X114448462Y-97495042D02*
X114415129Y-97537900D01*
X114415129Y-97537900D02*
X114315129Y-97580757D01*
X114315129Y-97580757D02*
X114248462Y-97580757D01*
X114248462Y-97580757D02*
X114148462Y-97537900D01*
X114148462Y-97537900D02*
X114081796Y-97452185D01*
X114081796Y-97452185D02*
X114048462Y-97366471D01*
X114048462Y-97366471D02*
X114015129Y-97195042D01*
X114015129Y-97195042D02*
X114015129Y-97066471D01*
X114015129Y-97066471D02*
X114048462Y-96895042D01*
X114048462Y-96895042D02*
X114081796Y-96809328D01*
X114081796Y-96809328D02*
X114148462Y-96723614D01*
X114148462Y-96723614D02*
X114248462Y-96680757D01*
X114248462Y-96680757D02*
X114315129Y-96680757D01*
X114315129Y-96680757D02*
X114415129Y-96723614D01*
X114415129Y-96723614D02*
X114448462Y-96766471D01*
X114848462Y-97580757D02*
X114781796Y-97537900D01*
X114781796Y-97537900D02*
X114748462Y-97495042D01*
X114748462Y-97495042D02*
X114715129Y-97409328D01*
X114715129Y-97409328D02*
X114715129Y-97152185D01*
X114715129Y-97152185D02*
X114748462Y-97066471D01*
X114748462Y-97066471D02*
X114781796Y-97023614D01*
X114781796Y-97023614D02*
X114848462Y-96980757D01*
X114848462Y-96980757D02*
X114948462Y-96980757D01*
X114948462Y-96980757D02*
X115015129Y-97023614D01*
X115015129Y-97023614D02*
X115048462Y-97066471D01*
X115048462Y-97066471D02*
X115081796Y-97152185D01*
X115081796Y-97152185D02*
X115081796Y-97409328D01*
X115081796Y-97409328D02*
X115048462Y-97495042D01*
X115048462Y-97495042D02*
X115015129Y-97537900D01*
X115015129Y-97537900D02*
X114948462Y-97580757D01*
X114948462Y-97580757D02*
X114848462Y-97580757D01*
X115381795Y-97580757D02*
X115381795Y-96980757D01*
X115381795Y-97066471D02*
X115415129Y-97023614D01*
X115415129Y-97023614D02*
X115481795Y-96980757D01*
X115481795Y-96980757D02*
X115581795Y-96980757D01*
X115581795Y-96980757D02*
X115648462Y-97023614D01*
X115648462Y-97023614D02*
X115681795Y-97109328D01*
X115681795Y-97109328D02*
X115681795Y-97580757D01*
X115681795Y-97109328D02*
X115715129Y-97023614D01*
X115715129Y-97023614D02*
X115781795Y-96980757D01*
X115781795Y-96980757D02*
X115881795Y-96980757D01*
X115881795Y-96980757D02*
X115948462Y-97023614D01*
X115948462Y-97023614D02*
X115981795Y-97109328D01*
X115981795Y-97109328D02*
X115981795Y-97580757D01*
X116315128Y-97580757D02*
X116315128Y-96980757D01*
X116315128Y-97066471D02*
X116348462Y-97023614D01*
X116348462Y-97023614D02*
X116415128Y-96980757D01*
X116415128Y-96980757D02*
X116515128Y-96980757D01*
X116515128Y-96980757D02*
X116581795Y-97023614D01*
X116581795Y-97023614D02*
X116615128Y-97109328D01*
X116615128Y-97109328D02*
X116615128Y-97580757D01*
X116615128Y-97109328D02*
X116648462Y-97023614D01*
X116648462Y-97023614D02*
X116715128Y-96980757D01*
X116715128Y-96980757D02*
X116815128Y-96980757D01*
X116815128Y-96980757D02*
X116881795Y-97023614D01*
X116881795Y-97023614D02*
X116915128Y-97109328D01*
X116915128Y-97109328D02*
X116915128Y-97580757D01*
X117348461Y-97580757D02*
X117281795Y-97537900D01*
X117281795Y-97537900D02*
X117248461Y-97495042D01*
X117248461Y-97495042D02*
X117215128Y-97409328D01*
X117215128Y-97409328D02*
X117215128Y-97152185D01*
X117215128Y-97152185D02*
X117248461Y-97066471D01*
X117248461Y-97066471D02*
X117281795Y-97023614D01*
X117281795Y-97023614D02*
X117348461Y-96980757D01*
X117348461Y-96980757D02*
X117448461Y-96980757D01*
X117448461Y-96980757D02*
X117515128Y-97023614D01*
X117515128Y-97023614D02*
X117548461Y-97066471D01*
X117548461Y-97066471D02*
X117581795Y-97152185D01*
X117581795Y-97152185D02*
X117581795Y-97409328D01*
X117581795Y-97409328D02*
X117548461Y-97495042D01*
X117548461Y-97495042D02*
X117515128Y-97537900D01*
X117515128Y-97537900D02*
X117448461Y-97580757D01*
X117448461Y-97580757D02*
X117348461Y-97580757D01*
X117881794Y-96980757D02*
X117881794Y-97580757D01*
X117881794Y-97066471D02*
X117915128Y-97023614D01*
X117915128Y-97023614D02*
X117981794Y-96980757D01*
X117981794Y-96980757D02*
X118081794Y-96980757D01*
X118081794Y-96980757D02*
X118148461Y-97023614D01*
X118148461Y-97023614D02*
X118181794Y-97109328D01*
X118181794Y-97109328D02*
X118181794Y-97580757D01*
X118481794Y-97537900D02*
X118548461Y-97580757D01*
X118548461Y-97580757D02*
X118681794Y-97580757D01*
X118681794Y-97580757D02*
X118748461Y-97537900D01*
X118748461Y-97537900D02*
X118781794Y-97452185D01*
X118781794Y-97452185D02*
X118781794Y-97409328D01*
X118781794Y-97409328D02*
X118748461Y-97323614D01*
X118748461Y-97323614D02*
X118681794Y-97280757D01*
X118681794Y-97280757D02*
X118581794Y-97280757D01*
X118581794Y-97280757D02*
X118515127Y-97237900D01*
X118515127Y-97237900D02*
X118481794Y-97152185D01*
X118481794Y-97152185D02*
X118481794Y-97109328D01*
X118481794Y-97109328D02*
X118515127Y-97023614D01*
X118515127Y-97023614D02*
X118581794Y-96980757D01*
X118581794Y-96980757D02*
X118681794Y-96980757D01*
X118681794Y-96980757D02*
X118748461Y-97023614D01*
X120015127Y-97495042D02*
X119981794Y-97537900D01*
X119981794Y-97537900D02*
X119881794Y-97580757D01*
X119881794Y-97580757D02*
X119815127Y-97580757D01*
X119815127Y-97580757D02*
X119715127Y-97537900D01*
X119715127Y-97537900D02*
X119648461Y-97452185D01*
X119648461Y-97452185D02*
X119615127Y-97366471D01*
X119615127Y-97366471D02*
X119581794Y-97195042D01*
X119581794Y-97195042D02*
X119581794Y-97066471D01*
X119581794Y-97066471D02*
X119615127Y-96895042D01*
X119615127Y-96895042D02*
X119648461Y-96809328D01*
X119648461Y-96809328D02*
X119715127Y-96723614D01*
X119715127Y-96723614D02*
X119815127Y-96680757D01*
X119815127Y-96680757D02*
X119881794Y-96680757D01*
X119881794Y-96680757D02*
X119981794Y-96723614D01*
X119981794Y-96723614D02*
X120015127Y-96766471D01*
X120715127Y-97495042D02*
X120681794Y-97537900D01*
X120681794Y-97537900D02*
X120581794Y-97580757D01*
X120581794Y-97580757D02*
X120515127Y-97580757D01*
X120515127Y-97580757D02*
X120415127Y-97537900D01*
X120415127Y-97537900D02*
X120348461Y-97452185D01*
X120348461Y-97452185D02*
X120315127Y-97366471D01*
X120315127Y-97366471D02*
X120281794Y-97195042D01*
X120281794Y-97195042D02*
X120281794Y-97066471D01*
X120281794Y-97066471D02*
X120315127Y-96895042D01*
X120315127Y-96895042D02*
X120348461Y-96809328D01*
X120348461Y-96809328D02*
X120415127Y-96723614D01*
X120415127Y-96723614D02*
X120515127Y-96680757D01*
X120515127Y-96680757D02*
X120581794Y-96680757D01*
X120581794Y-96680757D02*
X120681794Y-96723614D01*
X120681794Y-96723614D02*
X120715127Y-96766471D01*
X121015127Y-97237900D02*
X121548461Y-97237900D01*
X122115128Y-97109328D02*
X122215128Y-97152185D01*
X122215128Y-97152185D02*
X122248461Y-97195042D01*
X122248461Y-97195042D02*
X122281794Y-97280757D01*
X122281794Y-97280757D02*
X122281794Y-97409328D01*
X122281794Y-97409328D02*
X122248461Y-97495042D01*
X122248461Y-97495042D02*
X122215128Y-97537900D01*
X122215128Y-97537900D02*
X122148461Y-97580757D01*
X122148461Y-97580757D02*
X121881794Y-97580757D01*
X121881794Y-97580757D02*
X121881794Y-96680757D01*
X121881794Y-96680757D02*
X122115128Y-96680757D01*
X122115128Y-96680757D02*
X122181794Y-96723614D01*
X122181794Y-96723614D02*
X122215128Y-96766471D01*
X122215128Y-96766471D02*
X122248461Y-96852185D01*
X122248461Y-96852185D02*
X122248461Y-96937900D01*
X122248461Y-96937900D02*
X122215128Y-97023614D01*
X122215128Y-97023614D02*
X122181794Y-97066471D01*
X122181794Y-97066471D02*
X122115128Y-97109328D01*
X122115128Y-97109328D02*
X121881794Y-97109328D01*
X122715128Y-97152185D02*
X122715128Y-97580757D01*
X122481794Y-96680757D02*
X122715128Y-97152185D01*
X122715128Y-97152185D02*
X122948461Y-96680757D01*
X123181794Y-97237900D02*
X123715128Y-97237900D01*
X124015128Y-97537900D02*
X124115128Y-97580757D01*
X124115128Y-97580757D02*
X124281795Y-97580757D01*
X124281795Y-97580757D02*
X124348461Y-97537900D01*
X124348461Y-97537900D02*
X124381795Y-97495042D01*
X124381795Y-97495042D02*
X124415128Y-97409328D01*
X124415128Y-97409328D02*
X124415128Y-97323614D01*
X124415128Y-97323614D02*
X124381795Y-97237900D01*
X124381795Y-97237900D02*
X124348461Y-97195042D01*
X124348461Y-97195042D02*
X124281795Y-97152185D01*
X124281795Y-97152185D02*
X124148461Y-97109328D01*
X124148461Y-97109328D02*
X124081795Y-97066471D01*
X124081795Y-97066471D02*
X124048461Y-97023614D01*
X124048461Y-97023614D02*
X124015128Y-96937900D01*
X124015128Y-96937900D02*
X124015128Y-96852185D01*
X124015128Y-96852185D02*
X124048461Y-96766471D01*
X124048461Y-96766471D02*
X124081795Y-96723614D01*
X124081795Y-96723614D02*
X124148461Y-96680757D01*
X124148461Y-96680757D02*
X124315128Y-96680757D01*
X124315128Y-96680757D02*
X124415128Y-96723614D01*
X124681795Y-97323614D02*
X125015128Y-97323614D01*
X124615128Y-97580757D02*
X124848462Y-96680757D01*
X124848462Y-96680757D02*
X125081795Y-97580757D01*
X126148461Y-96980757D02*
X126148461Y-97580757D01*
X125981795Y-96637900D02*
X125815128Y-97280757D01*
X125815128Y-97280757D02*
X126248461Y-97280757D01*
X126515128Y-97495042D02*
X126548462Y-97537900D01*
X126548462Y-97537900D02*
X126515128Y-97580757D01*
X126515128Y-97580757D02*
X126481795Y-97537900D01*
X126481795Y-97537900D02*
X126515128Y-97495042D01*
X126515128Y-97495042D02*
X126515128Y-97580757D01*
X126981795Y-96680757D02*
X127048461Y-96680757D01*
X127048461Y-96680757D02*
X127115128Y-96723614D01*
X127115128Y-96723614D02*
X127148461Y-96766471D01*
X127148461Y-96766471D02*
X127181795Y-96852185D01*
X127181795Y-96852185D02*
X127215128Y-97023614D01*
X127215128Y-97023614D02*
X127215128Y-97237900D01*
X127215128Y-97237900D02*
X127181795Y-97409328D01*
X127181795Y-97409328D02*
X127148461Y-97495042D01*
X127148461Y-97495042D02*
X127115128Y-97537900D01*
X127115128Y-97537900D02*
X127048461Y-97580757D01*
X127048461Y-97580757D02*
X126981795Y-97580757D01*
X126981795Y-97580757D02*
X126915128Y-97537900D01*
X126915128Y-97537900D02*
X126881795Y-97495042D01*
X126881795Y-97495042D02*
X126848461Y-97409328D01*
X126848461Y-97409328D02*
X126815128Y-97237900D01*
X126815128Y-97237900D02*
X126815128Y-97023614D01*
X126815128Y-97023614D02*
X126848461Y-96852185D01*
X126848461Y-96852185D02*
X126881795Y-96766471D01*
X126881795Y-96766471D02*
X126915128Y-96723614D01*
X126915128Y-96723614D02*
X126981795Y-96680757D01*
X122000001Y-53211328D02*
X122100001Y-53254185D01*
X122100001Y-53254185D02*
X122133334Y-53297042D01*
X122133334Y-53297042D02*
X122166667Y-53382757D01*
X122166667Y-53382757D02*
X122166667Y-53511328D01*
X122166667Y-53511328D02*
X122133334Y-53597042D01*
X122133334Y-53597042D02*
X122100001Y-53639900D01*
X122100001Y-53639900D02*
X122033334Y-53682757D01*
X122033334Y-53682757D02*
X121766667Y-53682757D01*
X121766667Y-53682757D02*
X121766667Y-52782757D01*
X121766667Y-52782757D02*
X122000001Y-52782757D01*
X122000001Y-52782757D02*
X122066667Y-52825614D01*
X122066667Y-52825614D02*
X122100001Y-52868471D01*
X122100001Y-52868471D02*
X122133334Y-52954185D01*
X122133334Y-52954185D02*
X122133334Y-53039900D01*
X122133334Y-53039900D02*
X122100001Y-53125614D01*
X122100001Y-53125614D02*
X122066667Y-53168471D01*
X122066667Y-53168471D02*
X122000001Y-53211328D01*
X122000001Y-53211328D02*
X121766667Y-53211328D01*
X122466667Y-53682757D02*
X122466667Y-52782757D01*
X122466667Y-52782757D02*
X122866667Y-53682757D01*
X122866667Y-53682757D02*
X122866667Y-52782757D01*
X123600000Y-53597042D02*
X123566667Y-53639900D01*
X123566667Y-53639900D02*
X123466667Y-53682757D01*
X123466667Y-53682757D02*
X123400000Y-53682757D01*
X123400000Y-53682757D02*
X123300000Y-53639900D01*
X123300000Y-53639900D02*
X123233334Y-53554185D01*
X123233334Y-53554185D02*
X123200000Y-53468471D01*
X123200000Y-53468471D02*
X123166667Y-53297042D01*
X123166667Y-53297042D02*
X123166667Y-53168471D01*
X123166667Y-53168471D02*
X123200000Y-52997042D01*
X123200000Y-52997042D02*
X123233334Y-52911328D01*
X123233334Y-52911328D02*
X123300000Y-52825614D01*
X123300000Y-52825614D02*
X123400000Y-52782757D01*
X123400000Y-52782757D02*
X123466667Y-52782757D01*
X123466667Y-52782757D02*
X123566667Y-52825614D01*
X123566667Y-52825614D02*
X123600000Y-52868471D01*
X124400000Y-53425614D02*
X124733333Y-53425614D01*
X124333333Y-53682757D02*
X124566667Y-52782757D01*
X124566667Y-52782757D02*
X124800000Y-53682757D01*
X125033333Y-53082757D02*
X125033333Y-53682757D01*
X125033333Y-53168471D02*
X125066667Y-53125614D01*
X125066667Y-53125614D02*
X125133333Y-53082757D01*
X125133333Y-53082757D02*
X125233333Y-53082757D01*
X125233333Y-53082757D02*
X125300000Y-53125614D01*
X125300000Y-53125614D02*
X125333333Y-53211328D01*
X125333333Y-53211328D02*
X125333333Y-53682757D01*
X125566666Y-53082757D02*
X125833333Y-53082757D01*
X125666666Y-52782757D02*
X125666666Y-53554185D01*
X125666666Y-53554185D02*
X125700000Y-53639900D01*
X125700000Y-53639900D02*
X125766666Y-53682757D01*
X125766666Y-53682757D02*
X125833333Y-53682757D01*
X126333333Y-53639900D02*
X126266666Y-53682757D01*
X126266666Y-53682757D02*
X126133333Y-53682757D01*
X126133333Y-53682757D02*
X126066666Y-53639900D01*
X126066666Y-53639900D02*
X126033333Y-53554185D01*
X126033333Y-53554185D02*
X126033333Y-53211328D01*
X126033333Y-53211328D02*
X126066666Y-53125614D01*
X126066666Y-53125614D02*
X126133333Y-53082757D01*
X126133333Y-53082757D02*
X126266666Y-53082757D01*
X126266666Y-53082757D02*
X126333333Y-53125614D01*
X126333333Y-53125614D02*
X126366666Y-53211328D01*
X126366666Y-53211328D02*
X126366666Y-53297042D01*
X126366666Y-53297042D02*
X126033333Y-53382757D01*
X126666666Y-53082757D02*
X126666666Y-53682757D01*
X126666666Y-53168471D02*
X126700000Y-53125614D01*
X126700000Y-53125614D02*
X126766666Y-53082757D01*
X126766666Y-53082757D02*
X126866666Y-53082757D01*
X126866666Y-53082757D02*
X126933333Y-53125614D01*
X126933333Y-53125614D02*
X126966666Y-53211328D01*
X126966666Y-53211328D02*
X126966666Y-53682757D01*
X127299999Y-53082757D02*
X127299999Y-53682757D01*
X127299999Y-53168471D02*
X127333333Y-53125614D01*
X127333333Y-53125614D02*
X127399999Y-53082757D01*
X127399999Y-53082757D02*
X127499999Y-53082757D01*
X127499999Y-53082757D02*
X127566666Y-53125614D01*
X127566666Y-53125614D02*
X127599999Y-53211328D01*
X127599999Y-53211328D02*
X127599999Y-53682757D01*
X128233332Y-53682757D02*
X128233332Y-53211328D01*
X128233332Y-53211328D02*
X128199999Y-53125614D01*
X128199999Y-53125614D02*
X128133332Y-53082757D01*
X128133332Y-53082757D02*
X127999999Y-53082757D01*
X127999999Y-53082757D02*
X127933332Y-53125614D01*
X128233332Y-53639900D02*
X128166666Y-53682757D01*
X128166666Y-53682757D02*
X127999999Y-53682757D01*
X127999999Y-53682757D02*
X127933332Y-53639900D01*
X127933332Y-53639900D02*
X127899999Y-53554185D01*
X127899999Y-53554185D02*
X127899999Y-53468471D01*
X127899999Y-53468471D02*
X127933332Y-53382757D01*
X127933332Y-53382757D02*
X127999999Y-53339900D01*
X127999999Y-53339900D02*
X128166666Y-53339900D01*
X128166666Y-53339900D02*
X128233332Y-53297042D01*
X123883334Y-54660328D02*
X123983334Y-54703185D01*
X123983334Y-54703185D02*
X124016667Y-54746042D01*
X124016667Y-54746042D02*
X124050000Y-54831757D01*
X124050000Y-54831757D02*
X124050000Y-54960328D01*
X124050000Y-54960328D02*
X124016667Y-55046042D01*
X124016667Y-55046042D02*
X123983334Y-55088900D01*
X123983334Y-55088900D02*
X123916667Y-55131757D01*
X123916667Y-55131757D02*
X123650000Y-55131757D01*
X123650000Y-55131757D02*
X123650000Y-54231757D01*
X123650000Y-54231757D02*
X123883334Y-54231757D01*
X123883334Y-54231757D02*
X123950000Y-54274614D01*
X123950000Y-54274614D02*
X123983334Y-54317471D01*
X123983334Y-54317471D02*
X124016667Y-54403185D01*
X124016667Y-54403185D02*
X124016667Y-54488900D01*
X124016667Y-54488900D02*
X123983334Y-54574614D01*
X123983334Y-54574614D02*
X123950000Y-54617471D01*
X123950000Y-54617471D02*
X123883334Y-54660328D01*
X123883334Y-54660328D02*
X123650000Y-54660328D01*
X124450000Y-55131757D02*
X124383334Y-55088900D01*
X124383334Y-55088900D02*
X124350000Y-55046042D01*
X124350000Y-55046042D02*
X124316667Y-54960328D01*
X124316667Y-54960328D02*
X124316667Y-54703185D01*
X124316667Y-54703185D02*
X124350000Y-54617471D01*
X124350000Y-54617471D02*
X124383334Y-54574614D01*
X124383334Y-54574614D02*
X124450000Y-54531757D01*
X124450000Y-54531757D02*
X124550000Y-54531757D01*
X124550000Y-54531757D02*
X124616667Y-54574614D01*
X124616667Y-54574614D02*
X124650000Y-54617471D01*
X124650000Y-54617471D02*
X124683334Y-54703185D01*
X124683334Y-54703185D02*
X124683334Y-54960328D01*
X124683334Y-54960328D02*
X124650000Y-55046042D01*
X124650000Y-55046042D02*
X124616667Y-55088900D01*
X124616667Y-55088900D02*
X124550000Y-55131757D01*
X124550000Y-55131757D02*
X124450000Y-55131757D01*
X125283333Y-55131757D02*
X125283333Y-54660328D01*
X125283333Y-54660328D02*
X125250000Y-54574614D01*
X125250000Y-54574614D02*
X125183333Y-54531757D01*
X125183333Y-54531757D02*
X125050000Y-54531757D01*
X125050000Y-54531757D02*
X124983333Y-54574614D01*
X125283333Y-55088900D02*
X125216667Y-55131757D01*
X125216667Y-55131757D02*
X125050000Y-55131757D01*
X125050000Y-55131757D02*
X124983333Y-55088900D01*
X124983333Y-55088900D02*
X124950000Y-55003185D01*
X124950000Y-55003185D02*
X124950000Y-54917471D01*
X124950000Y-54917471D02*
X124983333Y-54831757D01*
X124983333Y-54831757D02*
X125050000Y-54788900D01*
X125050000Y-54788900D02*
X125216667Y-54788900D01*
X125216667Y-54788900D02*
X125283333Y-54746042D01*
X125616666Y-55131757D02*
X125616666Y-54531757D01*
X125616666Y-54703185D02*
X125650000Y-54617471D01*
X125650000Y-54617471D02*
X125683333Y-54574614D01*
X125683333Y-54574614D02*
X125750000Y-54531757D01*
X125750000Y-54531757D02*
X125816666Y-54531757D01*
X126349999Y-55131757D02*
X126349999Y-54231757D01*
X126349999Y-55088900D02*
X126283333Y-55131757D01*
X126283333Y-55131757D02*
X126149999Y-55131757D01*
X126149999Y-55131757D02*
X126083333Y-55088900D01*
X126083333Y-55088900D02*
X126049999Y-55046042D01*
X126049999Y-55046042D02*
X126016666Y-54960328D01*
X126016666Y-54960328D02*
X126016666Y-54703185D01*
X126016666Y-54703185D02*
X126049999Y-54617471D01*
X126049999Y-54617471D02*
X126083333Y-54574614D01*
X126083333Y-54574614D02*
X126149999Y-54531757D01*
X126149999Y-54531757D02*
X126283333Y-54531757D01*
X126283333Y-54531757D02*
X126349999Y-54574614D01*
X121566666Y-56109328D02*
X121800000Y-56109328D01*
X121900000Y-56580757D02*
X121566666Y-56580757D01*
X121566666Y-56580757D02*
X121566666Y-55680757D01*
X121566666Y-55680757D02*
X121900000Y-55680757D01*
X122099999Y-55980757D02*
X122366666Y-55980757D01*
X122199999Y-55680757D02*
X122199999Y-56452185D01*
X122199999Y-56452185D02*
X122233333Y-56537900D01*
X122233333Y-56537900D02*
X122299999Y-56580757D01*
X122299999Y-56580757D02*
X122366666Y-56580757D01*
X122599999Y-56580757D02*
X122599999Y-55680757D01*
X122899999Y-56580757D02*
X122899999Y-56109328D01*
X122899999Y-56109328D02*
X122866666Y-56023614D01*
X122866666Y-56023614D02*
X122799999Y-55980757D01*
X122799999Y-55980757D02*
X122699999Y-55980757D01*
X122699999Y-55980757D02*
X122633333Y-56023614D01*
X122633333Y-56023614D02*
X122599999Y-56066471D01*
X123499999Y-56537900D02*
X123433332Y-56580757D01*
X123433332Y-56580757D02*
X123299999Y-56580757D01*
X123299999Y-56580757D02*
X123233332Y-56537900D01*
X123233332Y-56537900D02*
X123199999Y-56452185D01*
X123199999Y-56452185D02*
X123199999Y-56109328D01*
X123199999Y-56109328D02*
X123233332Y-56023614D01*
X123233332Y-56023614D02*
X123299999Y-55980757D01*
X123299999Y-55980757D02*
X123433332Y-55980757D01*
X123433332Y-55980757D02*
X123499999Y-56023614D01*
X123499999Y-56023614D02*
X123533332Y-56109328D01*
X123533332Y-56109328D02*
X123533332Y-56195042D01*
X123533332Y-56195042D02*
X123199999Y-56280757D01*
X123833332Y-56580757D02*
X123833332Y-55980757D01*
X123833332Y-56152185D02*
X123866666Y-56066471D01*
X123866666Y-56066471D02*
X123899999Y-56023614D01*
X123899999Y-56023614D02*
X123966666Y-55980757D01*
X123966666Y-55980757D02*
X124033332Y-55980757D01*
X124266665Y-56580757D02*
X124266665Y-55680757D01*
X124333332Y-56237900D02*
X124533332Y-56580757D01*
X124533332Y-55980757D02*
X124266665Y-56323614D01*
X124833332Y-56580757D02*
X124833332Y-55980757D01*
X124833332Y-55680757D02*
X124799999Y-55723614D01*
X124799999Y-55723614D02*
X124833332Y-55766471D01*
X124833332Y-55766471D02*
X124866666Y-55723614D01*
X124866666Y-55723614D02*
X124833332Y-55680757D01*
X124833332Y-55680757D02*
X124833332Y-55766471D01*
X125066665Y-55980757D02*
X125333332Y-55980757D01*
X125166665Y-55680757D02*
X125166665Y-56452185D01*
X125166665Y-56452185D02*
X125199999Y-56537900D01*
X125199999Y-56537900D02*
X125266665Y-56580757D01*
X125266665Y-56580757D02*
X125333332Y-56580757D01*
X126066665Y-55766471D02*
X126099998Y-55723614D01*
X126099998Y-55723614D02*
X126166665Y-55680757D01*
X126166665Y-55680757D02*
X126333332Y-55680757D01*
X126333332Y-55680757D02*
X126399998Y-55723614D01*
X126399998Y-55723614D02*
X126433332Y-55766471D01*
X126433332Y-55766471D02*
X126466665Y-55852185D01*
X126466665Y-55852185D02*
X126466665Y-55937900D01*
X126466665Y-55937900D02*
X126433332Y-56066471D01*
X126433332Y-56066471D02*
X126033332Y-56580757D01*
X126033332Y-56580757D02*
X126466665Y-56580757D01*
X126899999Y-55680757D02*
X126966665Y-55680757D01*
X126966665Y-55680757D02*
X127033332Y-55723614D01*
X127033332Y-55723614D02*
X127066665Y-55766471D01*
X127066665Y-55766471D02*
X127099999Y-55852185D01*
X127099999Y-55852185D02*
X127133332Y-56023614D01*
X127133332Y-56023614D02*
X127133332Y-56237900D01*
X127133332Y-56237900D02*
X127099999Y-56409328D01*
X127099999Y-56409328D02*
X127066665Y-56495042D01*
X127066665Y-56495042D02*
X127033332Y-56537900D01*
X127033332Y-56537900D02*
X126966665Y-56580757D01*
X126966665Y-56580757D02*
X126899999Y-56580757D01*
X126899999Y-56580757D02*
X126833332Y-56537900D01*
X126833332Y-56537900D02*
X126799999Y-56495042D01*
X126799999Y-56495042D02*
X126766665Y-56409328D01*
X126766665Y-56409328D02*
X126733332Y-56237900D01*
X126733332Y-56237900D02*
X126733332Y-56023614D01*
X126733332Y-56023614D02*
X126766665Y-55852185D01*
X126766665Y-55852185D02*
X126799999Y-55766471D01*
X126799999Y-55766471D02*
X126833332Y-55723614D01*
X126833332Y-55723614D02*
X126899999Y-55680757D01*
X127399999Y-55766471D02*
X127433332Y-55723614D01*
X127433332Y-55723614D02*
X127499999Y-55680757D01*
X127499999Y-55680757D02*
X127666666Y-55680757D01*
X127666666Y-55680757D02*
X127733332Y-55723614D01*
X127733332Y-55723614D02*
X127766666Y-55766471D01*
X127766666Y-55766471D02*
X127799999Y-55852185D01*
X127799999Y-55852185D02*
X127799999Y-55937900D01*
X127799999Y-55937900D02*
X127766666Y-56066471D01*
X127766666Y-56066471D02*
X127366666Y-56580757D01*
X127366666Y-56580757D02*
X127799999Y-56580757D01*
X128399999Y-55980757D02*
X128399999Y-56580757D01*
X128233333Y-55637900D02*
X128066666Y-56280757D01*
X128066666Y-56280757D02*
X128499999Y-56280757D01*
D11*
X114666666Y-74757419D02*
X114666666Y-75471704D01*
X114666666Y-75471704D02*
X114619047Y-75614561D01*
X114619047Y-75614561D02*
X114523809Y-75709800D01*
X114523809Y-75709800D02*
X114380952Y-75757419D01*
X114380952Y-75757419D02*
X114285714Y-75757419D01*
X115666666Y-75757419D02*
X115095238Y-75757419D01*
X115380952Y-75757419D02*
X115380952Y-74757419D01*
X115380952Y-74757419D02*
X115285714Y-74900276D01*
X115285714Y-74900276D02*
X115190476Y-74995514D01*
X115190476Y-74995514D02*
X115095238Y-75043133D01*
D12*
X110500000Y-64444742D02*
X110500000Y-65301885D01*
X110500000Y-65301885D02*
X110442857Y-65473314D01*
X110442857Y-65473314D02*
X110328571Y-65587600D01*
X110328571Y-65587600D02*
X110157143Y-65644742D01*
X110157143Y-65644742D02*
X110042857Y-65644742D01*
X110957143Y-64444742D02*
X111700000Y-64444742D01*
X111700000Y-64444742D02*
X111300000Y-64901885D01*
X111300000Y-64901885D02*
X111471429Y-64901885D01*
X111471429Y-64901885D02*
X111585715Y-64959028D01*
X111585715Y-64959028D02*
X111642857Y-65016171D01*
X111642857Y-65016171D02*
X111700000Y-65130457D01*
X111700000Y-65130457D02*
X111700000Y-65416171D01*
X111700000Y-65416171D02*
X111642857Y-65530457D01*
X111642857Y-65530457D02*
X111585715Y-65587600D01*
X111585715Y-65587600D02*
X111471429Y-65644742D01*
X111471429Y-65644742D02*
X111128572Y-65644742D01*
X111128572Y-65644742D02*
X111014286Y-65587600D01*
X111014286Y-65587600D02*
X110957143Y-65530457D01*
X138700000Y-64444742D02*
X138700000Y-65301885D01*
X138700000Y-65301885D02*
X138642857Y-65473314D01*
X138642857Y-65473314D02*
X138528571Y-65587600D01*
X138528571Y-65587600D02*
X138357143Y-65644742D01*
X138357143Y-65644742D02*
X138242857Y-65644742D01*
X139785715Y-64844742D02*
X139785715Y-65644742D01*
X139500000Y-64387600D02*
X139214286Y-65244742D01*
X139214286Y-65244742D02*
X139957143Y-65244742D01*
D11*
X134666666Y-74757419D02*
X134666666Y-75471704D01*
X134666666Y-75471704D02*
X134619047Y-75614561D01*
X134619047Y-75614561D02*
X134523809Y-75709800D01*
X134523809Y-75709800D02*
X134380952Y-75757419D01*
X134380952Y-75757419D02*
X134285714Y-75757419D01*
X135095238Y-74852657D02*
X135142857Y-74805038D01*
X135142857Y-74805038D02*
X135238095Y-74757419D01*
X135238095Y-74757419D02*
X135476190Y-74757419D01*
X135476190Y-74757419D02*
X135571428Y-74805038D01*
X135571428Y-74805038D02*
X135619047Y-74852657D01*
X135619047Y-74852657D02*
X135666666Y-74947895D01*
X135666666Y-74947895D02*
X135666666Y-75043133D01*
X135666666Y-75043133D02*
X135619047Y-75185990D01*
X135619047Y-75185990D02*
X135047619Y-75757419D01*
X135047619Y-75757419D02*
X135666666Y-75757419D01*
%TO.C,J3*%
X120000000Y-63950000D02*
X110000000Y-63950000D01*
X120000000Y-56450000D02*
X120000000Y-63950000D01*
X120000000Y-50150000D02*
X120000000Y-53150000D01*
X110000000Y-63950000D02*
X110000000Y-56450000D01*
X110000000Y-50250000D02*
X110000000Y-53250000D01*
%TO.C,J4*%
X140000000Y-63950000D02*
X130000000Y-63950000D01*
X140000000Y-56450000D02*
X140000000Y-63950000D01*
X140000000Y-50150000D02*
X140000000Y-53150000D01*
X130000000Y-63950000D02*
X130000000Y-56450000D01*
X130000000Y-50250000D02*
X130000000Y-53250000D01*
%TD*%
%LPC*%
D13*
%TO.C,H1*%
X102600000Y-55000000D03*
X103302944Y-53302944D03*
X103302944Y-56697056D03*
X105000000Y-52600000D03*
D14*
X105000000Y-55000000D03*
D13*
X105000000Y-57400000D03*
X106697056Y-53302944D03*
X106697056Y-56697056D03*
X107400000Y-55000000D03*
%TD*%
D15*
%TO.C,J1*%
X115000000Y-80000000D03*
D16*
X112450000Y-77450000D03*
X112450000Y-82550000D03*
X117550000Y-77450000D03*
X117550000Y-82550000D03*
%TD*%
D13*
%TO.C,H4*%
X142600000Y-55000000D03*
X143302944Y-53302944D03*
X143302944Y-56697056D03*
X145000000Y-52600000D03*
D14*
X145000000Y-55000000D03*
D13*
X145000000Y-57400000D03*
X146697056Y-53302944D03*
X146697056Y-56697056D03*
X147400000Y-55000000D03*
%TD*%
%TO.C,H3*%
X142600000Y-95000000D03*
X143302944Y-93302944D03*
X143302944Y-96697056D03*
X145000000Y-92600000D03*
D14*
X145000000Y-95000000D03*
D13*
X145000000Y-97400000D03*
X146697056Y-93302944D03*
X146697056Y-96697056D03*
X147400000Y-95000000D03*
%TD*%
%TO.C,H2*%
X102600000Y-95000000D03*
X103302944Y-93302944D03*
X103302944Y-96697056D03*
X105000000Y-92600000D03*
D14*
X105000000Y-95000000D03*
D13*
X105000000Y-97400000D03*
X106697056Y-93302944D03*
X106697056Y-96697056D03*
X107400000Y-95000000D03*
%TD*%
D17*
%TO.C,J3*%
X115000000Y-62650000D03*
D18*
X118800000Y-54850000D03*
X111200000Y-54850000D03*
%TD*%
D17*
%TO.C,J4*%
X135000000Y-62650000D03*
D18*
X138800000Y-54850000D03*
X131200000Y-54850000D03*
%TD*%
D15*
%TO.C,J2*%
X135000000Y-80000000D03*
D16*
X132450000Y-77450000D03*
X132450000Y-82550000D03*
X137550000Y-77450000D03*
X137550000Y-82550000D03*
%TD*%
G36*
X102003031Y-51750149D02*
G01*
X102018420Y-51750905D01*
X102030531Y-51752098D01*
X102038917Y-51753342D01*
X102102343Y-51782651D01*
X102139854Y-51841597D01*
X102139542Y-51911466D01*
X102101505Y-51970075D01*
X102037820Y-51998815D01*
X102020722Y-52000000D01*
X102000000Y-52000000D01*
X102000000Y-98000000D01*
X102020722Y-98000000D01*
X102087761Y-98019685D01*
X102133516Y-98072489D01*
X102143460Y-98141647D01*
X102114435Y-98205203D01*
X102055657Y-98242977D01*
X102038903Y-98246660D01*
X102030517Y-98247903D01*
X102018428Y-98249093D01*
X102003039Y-98249850D01*
X101996947Y-98250000D01*
X100133328Y-98250000D01*
X100066289Y-98230315D01*
X100020534Y-98177511D01*
X100009644Y-98134846D01*
X100000316Y-98004418D01*
X100000000Y-97995572D01*
X100000000Y-52004427D01*
X100000316Y-51995581D01*
X100009644Y-51865154D01*
X100034061Y-51799690D01*
X100089994Y-51757818D01*
X100133328Y-51750000D01*
X101996947Y-51750000D01*
X102003031Y-51750149D01*
G37*
G36*
X101943039Y-97769685D02*
G01*
X101988794Y-97822489D01*
X102000000Y-97874000D01*
X102000000Y-98000000D01*
X148000000Y-98000000D01*
X148000000Y-97874000D01*
X148019685Y-97806961D01*
X148072489Y-97761206D01*
X148124000Y-97750000D01*
X149876000Y-97750000D01*
X149943039Y-97769685D01*
X149988794Y-97822489D01*
X150000000Y-97874000D01*
X150000000Y-97995572D01*
X149999684Y-98004418D01*
X149980275Y-98275785D01*
X149977757Y-98293297D01*
X149920872Y-98554794D01*
X149915888Y-98571770D01*
X149822361Y-98822524D01*
X149815011Y-98838617D01*
X149686758Y-99073496D01*
X149677193Y-99088380D01*
X149516811Y-99302624D01*
X149505225Y-99315994D01*
X149315994Y-99505225D01*
X149302624Y-99516811D01*
X149088380Y-99677193D01*
X149073496Y-99686758D01*
X148838617Y-99815011D01*
X148822524Y-99822361D01*
X148571770Y-99915888D01*
X148554794Y-99920872D01*
X148293297Y-99977757D01*
X148275785Y-99980275D01*
X148004418Y-99999684D01*
X147995572Y-100000000D01*
X102004428Y-100000000D01*
X101995582Y-99999684D01*
X101724214Y-99980275D01*
X101706702Y-99977757D01*
X101445205Y-99920872D01*
X101428229Y-99915888D01*
X101177475Y-99822361D01*
X101161382Y-99815011D01*
X100926503Y-99686758D01*
X100911619Y-99677193D01*
X100697375Y-99516811D01*
X100684005Y-99505225D01*
X100494774Y-99315994D01*
X100483188Y-99302624D01*
X100322806Y-99088380D01*
X100313241Y-99073496D01*
X100184988Y-98838617D01*
X100177638Y-98822524D01*
X100084111Y-98571770D01*
X100079127Y-98554794D01*
X100022242Y-98293297D01*
X100019724Y-98275785D01*
X100000316Y-98004418D01*
X100000000Y-97995572D01*
X100000000Y-97874000D01*
X100019685Y-97806961D01*
X100072489Y-97761206D01*
X100124000Y-97750000D01*
X101876000Y-97750000D01*
X101943039Y-97769685D01*
G37*
G36*
X149933711Y-51769685D02*
G01*
X149979466Y-51822489D01*
X149990356Y-51865154D01*
X149999684Y-51995581D01*
X150000000Y-52004427D01*
X150000000Y-97995572D01*
X149999684Y-98004418D01*
X149990356Y-98134846D01*
X149965939Y-98200310D01*
X149910006Y-98242182D01*
X149866672Y-98250000D01*
X148003053Y-98250000D01*
X147996961Y-98249850D01*
X147981571Y-98249093D01*
X147969480Y-98247903D01*
X147961095Y-98246660D01*
X147897667Y-98217357D01*
X147860149Y-98158415D01*
X147860455Y-98088546D01*
X147898486Y-98029933D01*
X147962167Y-98001186D01*
X147979278Y-98000000D01*
X148000000Y-98000000D01*
X148000000Y-52000000D01*
X147979278Y-52000000D01*
X147912239Y-51980315D01*
X147866484Y-51927511D01*
X147856540Y-51858353D01*
X147885565Y-51794797D01*
X147944343Y-51757023D01*
X147961081Y-51753343D01*
X147969466Y-51752099D01*
X147981579Y-51750905D01*
X147996969Y-51750149D01*
X148003053Y-51750000D01*
X149866672Y-51750000D01*
X149933711Y-51769685D01*
G37*
G36*
X148004418Y-50000316D02*
G01*
X148275785Y-50019724D01*
X148293297Y-50022242D01*
X148554794Y-50079127D01*
X148571770Y-50084111D01*
X148822524Y-50177638D01*
X148838617Y-50184988D01*
X149073496Y-50313241D01*
X149088380Y-50322806D01*
X149302624Y-50483188D01*
X149315994Y-50494774D01*
X149505225Y-50684005D01*
X149516811Y-50697375D01*
X149677193Y-50911619D01*
X149686758Y-50926503D01*
X149815011Y-51161382D01*
X149822361Y-51177475D01*
X149915888Y-51428229D01*
X149920872Y-51445205D01*
X149977757Y-51706702D01*
X149980275Y-51724214D01*
X149999684Y-51995581D01*
X150000000Y-52004427D01*
X150000000Y-52126000D01*
X149980315Y-52193039D01*
X149927511Y-52238794D01*
X149876000Y-52250000D01*
X148124000Y-52250000D01*
X148056961Y-52230315D01*
X148011206Y-52177511D01*
X148000000Y-52126000D01*
X148000000Y-52000000D01*
X102000000Y-52000000D01*
X102000000Y-52126000D01*
X101980315Y-52193039D01*
X101927511Y-52238794D01*
X101876000Y-52250000D01*
X100124000Y-52250000D01*
X100056961Y-52230315D01*
X100011206Y-52177511D01*
X100000000Y-52126000D01*
X100000000Y-52004427D01*
X100000316Y-51995581D01*
X100019724Y-51724214D01*
X100022242Y-51706702D01*
X100079127Y-51445205D01*
X100084111Y-51428229D01*
X100177638Y-51177475D01*
X100184988Y-51161382D01*
X100313241Y-50926503D01*
X100322806Y-50911619D01*
X100483188Y-50697375D01*
X100494774Y-50684005D01*
X100684005Y-50494774D01*
X100697375Y-50483188D01*
X100911619Y-50322806D01*
X100926503Y-50313241D01*
X101161382Y-50184988D01*
X101177475Y-50177638D01*
X101428229Y-50084111D01*
X101445205Y-50079127D01*
X101706702Y-50022242D01*
X101724214Y-50019724D01*
X101995582Y-50000316D01*
X102004428Y-50000000D01*
X147995572Y-50000000D01*
X148004418Y-50000316D01*
G37*
%LPD*%
M02*
