%TF.GenerationSoftware,KiCad,Pcbnew,7.0.10-7.0.10~ubuntu22.04.1*%
%TF.CreationDate,2024-01-03T18:20:13-08:00*%
%TF.ProjectId,YamhillBNCAntennaBoard,59616d68-696c-46c4-924e-43416e74656e,A*%
%TF.SameCoordinates,Original*%
%TF.FileFunction,Drillmap*%
%TF.FilePolarity,Positive*%
%FSLAX45Y45*%
G04 Gerber Fmt 4.5, Leading zero omitted, Abs format (unit mm)*
G04 Created by KiCad (PCBNEW 7.0.10-7.0.10~ubuntu22.04.1) date 2024-01-03 18:20:13*
%MOMM*%
%LPD*%
G01*
G04 APERTURE LIST*
%ADD10C,0.200000*%
G04 APERTURE END LIST*
D10*
X14800000Y-10000000D02*
X10200000Y-10000000D01*
X10000000Y-9800000D02*
G75*
G03*
X10200000Y-10000000I200000J0D01*
G01*
X15000000Y-5200000D02*
G75*
G03*
X14800000Y-5000000I-200000J0D01*
G01*
X10200000Y-5000000D02*
G75*
G03*
X10000000Y-5200000I0J-200000D01*
G01*
X10000000Y-9800000D02*
X10000000Y-5200000D01*
X10200000Y-5000000D02*
X14800000Y-5000000D01*
X14800000Y-10000000D02*
G75*
G03*
X15000000Y-9800000I0J200000D01*
G01*
X15000000Y-5200000D02*
X15000000Y-9800000D01*
X10250777Y-10321484D02*
X10250777Y-10121484D01*
X10250777Y-10121484D02*
X10298396Y-10121484D01*
X10298396Y-10121484D02*
X10326967Y-10131008D01*
X10326967Y-10131008D02*
X10346015Y-10150055D01*
X10346015Y-10150055D02*
X10355539Y-10169103D01*
X10355539Y-10169103D02*
X10365063Y-10207198D01*
X10365063Y-10207198D02*
X10365063Y-10235770D01*
X10365063Y-10235770D02*
X10355539Y-10273865D01*
X10355539Y-10273865D02*
X10346015Y-10292912D01*
X10346015Y-10292912D02*
X10326967Y-10311960D01*
X10326967Y-10311960D02*
X10298396Y-10321484D01*
X10298396Y-10321484D02*
X10250777Y-10321484D01*
X10450777Y-10321484D02*
X10450777Y-10188150D01*
X10450777Y-10226246D02*
X10460301Y-10207198D01*
X10460301Y-10207198D02*
X10469824Y-10197674D01*
X10469824Y-10197674D02*
X10488872Y-10188150D01*
X10488872Y-10188150D02*
X10507920Y-10188150D01*
X10574586Y-10321484D02*
X10574586Y-10188150D01*
X10574586Y-10121484D02*
X10565063Y-10131008D01*
X10565063Y-10131008D02*
X10574586Y-10140531D01*
X10574586Y-10140531D02*
X10584110Y-10131008D01*
X10584110Y-10131008D02*
X10574586Y-10121484D01*
X10574586Y-10121484D02*
X10574586Y-10140531D01*
X10698396Y-10321484D02*
X10679348Y-10311960D01*
X10679348Y-10311960D02*
X10669824Y-10292912D01*
X10669824Y-10292912D02*
X10669824Y-10121484D01*
X10803158Y-10321484D02*
X10784110Y-10311960D01*
X10784110Y-10311960D02*
X10774586Y-10292912D01*
X10774586Y-10292912D02*
X10774586Y-10121484D01*
X11031729Y-10321484D02*
X11031729Y-10121484D01*
X11031729Y-10121484D02*
X11098396Y-10264341D01*
X11098396Y-10264341D02*
X11165063Y-10121484D01*
X11165063Y-10121484D02*
X11165063Y-10321484D01*
X11346015Y-10321484D02*
X11346015Y-10216722D01*
X11346015Y-10216722D02*
X11336491Y-10197674D01*
X11336491Y-10197674D02*
X11317443Y-10188150D01*
X11317443Y-10188150D02*
X11279348Y-10188150D01*
X11279348Y-10188150D02*
X11260301Y-10197674D01*
X11346015Y-10311960D02*
X11326967Y-10321484D01*
X11326967Y-10321484D02*
X11279348Y-10321484D01*
X11279348Y-10321484D02*
X11260301Y-10311960D01*
X11260301Y-10311960D02*
X11250777Y-10292912D01*
X11250777Y-10292912D02*
X11250777Y-10273865D01*
X11250777Y-10273865D02*
X11260301Y-10254817D01*
X11260301Y-10254817D02*
X11279348Y-10245293D01*
X11279348Y-10245293D02*
X11326967Y-10245293D01*
X11326967Y-10245293D02*
X11346015Y-10235770D01*
X11441253Y-10188150D02*
X11441253Y-10388150D01*
X11441253Y-10197674D02*
X11460301Y-10188150D01*
X11460301Y-10188150D02*
X11498396Y-10188150D01*
X11498396Y-10188150D02*
X11517443Y-10197674D01*
X11517443Y-10197674D02*
X11526967Y-10207198D01*
X11526967Y-10207198D02*
X11536491Y-10226246D01*
X11536491Y-10226246D02*
X11536491Y-10283389D01*
X11536491Y-10283389D02*
X11526967Y-10302436D01*
X11526967Y-10302436D02*
X11517443Y-10311960D01*
X11517443Y-10311960D02*
X11498396Y-10321484D01*
X11498396Y-10321484D02*
X11460301Y-10321484D01*
X11460301Y-10321484D02*
X11441253Y-10311960D01*
X11622205Y-10302436D02*
X11631729Y-10311960D01*
X11631729Y-10311960D02*
X11622205Y-10321484D01*
X11622205Y-10321484D02*
X11612682Y-10311960D01*
X11612682Y-10311960D02*
X11622205Y-10302436D01*
X11622205Y-10302436D02*
X11622205Y-10321484D01*
X11622205Y-10197674D02*
X11631729Y-10207198D01*
X11631729Y-10207198D02*
X11622205Y-10216722D01*
X11622205Y-10216722D02*
X11612682Y-10207198D01*
X11612682Y-10207198D02*
X11622205Y-10197674D01*
X11622205Y-10197674D02*
X11622205Y-10216722D01*
M02*
