%TF.GenerationSoftware,KiCad,Pcbnew,7.0.10-7.0.10~ubuntu22.04.1*%
%TF.CreationDate,2024-01-03T18:17:20-08:00*%
%TF.ProjectId,YamhillDiodeRingMixer,59616d68-696c-46c4-9469-6f646552696e,A*%
%TF.SameCoordinates,Original*%
%TF.FileFunction,Legend,Top*%
%TF.FilePolarity,Positive*%
%FSLAX46Y46*%
G04 Gerber Fmt 4.6, Leading zero omitted, Abs format (unit mm)*
G04 Created by KiCad (PCBNEW 7.0.10-7.0.10~ubuntu22.04.1) date 2024-01-03 18:17:20*
%MOMM*%
%LPD*%
G01*
G04 APERTURE LIST*
%ADD10C,0.300000*%
%ADD11C,0.175000*%
%ADD12C,0.150000*%
%ADD13C,0.100000*%
%ADD14C,0.200000*%
%ADD15C,0.120000*%
%ADD16C,0.002540*%
%ADD17C,1.400000*%
%ADD18R,1.600000X1.600000*%
%ADD19O,1.600000X1.600000*%
%ADD20C,2.500000*%
%ADD21C,2.600000*%
%ADD22C,0.800000*%
%ADD23C,6.400000*%
%ADD24R,1.700000X1.700000*%
%ADD25O,1.700000X1.700000*%
G04 APERTURE END LIST*
D10*
X143111653Y-69000828D02*
X142611653Y-68286542D01*
X142254510Y-69000828D02*
X142254510Y-67500828D01*
X142254510Y-67500828D02*
X142825939Y-67500828D01*
X142825939Y-67500828D02*
X142968796Y-67572257D01*
X142968796Y-67572257D02*
X143040225Y-67643685D01*
X143040225Y-67643685D02*
X143111653Y-67786542D01*
X143111653Y-67786542D02*
X143111653Y-68000828D01*
X143111653Y-68000828D02*
X143040225Y-68143685D01*
X143040225Y-68143685D02*
X142968796Y-68215114D01*
X142968796Y-68215114D02*
X142825939Y-68286542D01*
X142825939Y-68286542D02*
X142254510Y-68286542D01*
X144254510Y-68215114D02*
X143754510Y-68215114D01*
X143754510Y-69000828D02*
X143754510Y-67500828D01*
X143754510Y-67500828D02*
X144468796Y-67500828D01*
D11*
X109281797Y-96131757D02*
X109281797Y-95231757D01*
X109281797Y-95231757D02*
X109548464Y-95231757D01*
X109548464Y-95231757D02*
X109615131Y-95274614D01*
X109615131Y-95274614D02*
X109648464Y-95317471D01*
X109648464Y-95317471D02*
X109681797Y-95403185D01*
X109681797Y-95403185D02*
X109681797Y-95531757D01*
X109681797Y-95531757D02*
X109648464Y-95617471D01*
X109648464Y-95617471D02*
X109615131Y-95660328D01*
X109615131Y-95660328D02*
X109548464Y-95703185D01*
X109548464Y-95703185D02*
X109281797Y-95703185D01*
X109981797Y-96131757D02*
X109981797Y-95531757D01*
X109981797Y-95703185D02*
X110015131Y-95617471D01*
X110015131Y-95617471D02*
X110048464Y-95574614D01*
X110048464Y-95574614D02*
X110115131Y-95531757D01*
X110115131Y-95531757D02*
X110181797Y-95531757D01*
X110515130Y-96131757D02*
X110448464Y-96088900D01*
X110448464Y-96088900D02*
X110415130Y-96046042D01*
X110415130Y-96046042D02*
X110381797Y-95960328D01*
X110381797Y-95960328D02*
X110381797Y-95703185D01*
X110381797Y-95703185D02*
X110415130Y-95617471D01*
X110415130Y-95617471D02*
X110448464Y-95574614D01*
X110448464Y-95574614D02*
X110515130Y-95531757D01*
X110515130Y-95531757D02*
X110615130Y-95531757D01*
X110615130Y-95531757D02*
X110681797Y-95574614D01*
X110681797Y-95574614D02*
X110715130Y-95617471D01*
X110715130Y-95617471D02*
X110748464Y-95703185D01*
X110748464Y-95703185D02*
X110748464Y-95960328D01*
X110748464Y-95960328D02*
X110715130Y-96046042D01*
X110715130Y-96046042D02*
X110681797Y-96088900D01*
X110681797Y-96088900D02*
X110615130Y-96131757D01*
X110615130Y-96131757D02*
X110515130Y-96131757D01*
X111048463Y-95531757D02*
X111048463Y-96303185D01*
X111048463Y-96303185D02*
X111015130Y-96388900D01*
X111015130Y-96388900D02*
X110948463Y-96431757D01*
X110948463Y-96431757D02*
X110915130Y-96431757D01*
X111048463Y-95231757D02*
X111015130Y-95274614D01*
X111015130Y-95274614D02*
X111048463Y-95317471D01*
X111048463Y-95317471D02*
X111081797Y-95274614D01*
X111081797Y-95274614D02*
X111048463Y-95231757D01*
X111048463Y-95231757D02*
X111048463Y-95317471D01*
X111648463Y-96088900D02*
X111581796Y-96131757D01*
X111581796Y-96131757D02*
X111448463Y-96131757D01*
X111448463Y-96131757D02*
X111381796Y-96088900D01*
X111381796Y-96088900D02*
X111348463Y-96003185D01*
X111348463Y-96003185D02*
X111348463Y-95660328D01*
X111348463Y-95660328D02*
X111381796Y-95574614D01*
X111381796Y-95574614D02*
X111448463Y-95531757D01*
X111448463Y-95531757D02*
X111581796Y-95531757D01*
X111581796Y-95531757D02*
X111648463Y-95574614D01*
X111648463Y-95574614D02*
X111681796Y-95660328D01*
X111681796Y-95660328D02*
X111681796Y-95746042D01*
X111681796Y-95746042D02*
X111348463Y-95831757D01*
X112281796Y-96088900D02*
X112215130Y-96131757D01*
X112215130Y-96131757D02*
X112081796Y-96131757D01*
X112081796Y-96131757D02*
X112015130Y-96088900D01*
X112015130Y-96088900D02*
X111981796Y-96046042D01*
X111981796Y-96046042D02*
X111948463Y-95960328D01*
X111948463Y-95960328D02*
X111948463Y-95703185D01*
X111948463Y-95703185D02*
X111981796Y-95617471D01*
X111981796Y-95617471D02*
X112015130Y-95574614D01*
X112015130Y-95574614D02*
X112081796Y-95531757D01*
X112081796Y-95531757D02*
X112215130Y-95531757D01*
X112215130Y-95531757D02*
X112281796Y-95574614D01*
X112481796Y-95531757D02*
X112748463Y-95531757D01*
X112581796Y-95231757D02*
X112581796Y-96003185D01*
X112581796Y-96003185D02*
X112615130Y-96088900D01*
X112615130Y-96088900D02*
X112681796Y-96131757D01*
X112681796Y-96131757D02*
X112748463Y-96131757D01*
X113648463Y-95703185D02*
X113648463Y-96131757D01*
X113415129Y-95231757D02*
X113648463Y-95703185D01*
X113648463Y-95703185D02*
X113881796Y-95231757D01*
X114415129Y-96131757D02*
X114415129Y-95660328D01*
X114415129Y-95660328D02*
X114381796Y-95574614D01*
X114381796Y-95574614D02*
X114315129Y-95531757D01*
X114315129Y-95531757D02*
X114181796Y-95531757D01*
X114181796Y-95531757D02*
X114115129Y-95574614D01*
X114415129Y-96088900D02*
X114348463Y-96131757D01*
X114348463Y-96131757D02*
X114181796Y-96131757D01*
X114181796Y-96131757D02*
X114115129Y-96088900D01*
X114115129Y-96088900D02*
X114081796Y-96003185D01*
X114081796Y-96003185D02*
X114081796Y-95917471D01*
X114081796Y-95917471D02*
X114115129Y-95831757D01*
X114115129Y-95831757D02*
X114181796Y-95788900D01*
X114181796Y-95788900D02*
X114348463Y-95788900D01*
X114348463Y-95788900D02*
X114415129Y-95746042D01*
X114748462Y-96131757D02*
X114748462Y-95531757D01*
X114748462Y-95617471D02*
X114781796Y-95574614D01*
X114781796Y-95574614D02*
X114848462Y-95531757D01*
X114848462Y-95531757D02*
X114948462Y-95531757D01*
X114948462Y-95531757D02*
X115015129Y-95574614D01*
X115015129Y-95574614D02*
X115048462Y-95660328D01*
X115048462Y-95660328D02*
X115048462Y-96131757D01*
X115048462Y-95660328D02*
X115081796Y-95574614D01*
X115081796Y-95574614D02*
X115148462Y-95531757D01*
X115148462Y-95531757D02*
X115248462Y-95531757D01*
X115248462Y-95531757D02*
X115315129Y-95574614D01*
X115315129Y-95574614D02*
X115348462Y-95660328D01*
X115348462Y-95660328D02*
X115348462Y-96131757D01*
X115681795Y-96131757D02*
X115681795Y-95231757D01*
X115981795Y-96131757D02*
X115981795Y-95660328D01*
X115981795Y-95660328D02*
X115948462Y-95574614D01*
X115948462Y-95574614D02*
X115881795Y-95531757D01*
X115881795Y-95531757D02*
X115781795Y-95531757D01*
X115781795Y-95531757D02*
X115715129Y-95574614D01*
X115715129Y-95574614D02*
X115681795Y-95617471D01*
X116315128Y-96131757D02*
X116315128Y-95531757D01*
X116315128Y-95231757D02*
X116281795Y-95274614D01*
X116281795Y-95274614D02*
X116315128Y-95317471D01*
X116315128Y-95317471D02*
X116348462Y-95274614D01*
X116348462Y-95274614D02*
X116315128Y-95231757D01*
X116315128Y-95231757D02*
X116315128Y-95317471D01*
X116748461Y-96131757D02*
X116681795Y-96088900D01*
X116681795Y-96088900D02*
X116648461Y-96003185D01*
X116648461Y-96003185D02*
X116648461Y-95231757D01*
X117115128Y-96131757D02*
X117048462Y-96088900D01*
X117048462Y-96088900D02*
X117015128Y-96003185D01*
X117015128Y-96003185D02*
X117015128Y-95231757D01*
X109681797Y-97495042D02*
X109648464Y-97537900D01*
X109648464Y-97537900D02*
X109548464Y-97580757D01*
X109548464Y-97580757D02*
X109481797Y-97580757D01*
X109481797Y-97580757D02*
X109381797Y-97537900D01*
X109381797Y-97537900D02*
X109315131Y-97452185D01*
X109315131Y-97452185D02*
X109281797Y-97366471D01*
X109281797Y-97366471D02*
X109248464Y-97195042D01*
X109248464Y-97195042D02*
X109248464Y-97066471D01*
X109248464Y-97066471D02*
X109281797Y-96895042D01*
X109281797Y-96895042D02*
X109315131Y-96809328D01*
X109315131Y-96809328D02*
X109381797Y-96723614D01*
X109381797Y-96723614D02*
X109481797Y-96680757D01*
X109481797Y-96680757D02*
X109548464Y-96680757D01*
X109548464Y-96680757D02*
X109648464Y-96723614D01*
X109648464Y-96723614D02*
X109681797Y-96766471D01*
X109981797Y-97580757D02*
X109981797Y-96980757D01*
X109981797Y-97152185D02*
X110015131Y-97066471D01*
X110015131Y-97066471D02*
X110048464Y-97023614D01*
X110048464Y-97023614D02*
X110115131Y-96980757D01*
X110115131Y-96980757D02*
X110181797Y-96980757D01*
X110681797Y-97537900D02*
X110615130Y-97580757D01*
X110615130Y-97580757D02*
X110481797Y-97580757D01*
X110481797Y-97580757D02*
X110415130Y-97537900D01*
X110415130Y-97537900D02*
X110381797Y-97452185D01*
X110381797Y-97452185D02*
X110381797Y-97109328D01*
X110381797Y-97109328D02*
X110415130Y-97023614D01*
X110415130Y-97023614D02*
X110481797Y-96980757D01*
X110481797Y-96980757D02*
X110615130Y-96980757D01*
X110615130Y-96980757D02*
X110681797Y-97023614D01*
X110681797Y-97023614D02*
X110715130Y-97109328D01*
X110715130Y-97109328D02*
X110715130Y-97195042D01*
X110715130Y-97195042D02*
X110381797Y-97280757D01*
X111315130Y-97580757D02*
X111315130Y-97109328D01*
X111315130Y-97109328D02*
X111281797Y-97023614D01*
X111281797Y-97023614D02*
X111215130Y-96980757D01*
X111215130Y-96980757D02*
X111081797Y-96980757D01*
X111081797Y-96980757D02*
X111015130Y-97023614D01*
X111315130Y-97537900D02*
X111248464Y-97580757D01*
X111248464Y-97580757D02*
X111081797Y-97580757D01*
X111081797Y-97580757D02*
X111015130Y-97537900D01*
X111015130Y-97537900D02*
X110981797Y-97452185D01*
X110981797Y-97452185D02*
X110981797Y-97366471D01*
X110981797Y-97366471D02*
X111015130Y-97280757D01*
X111015130Y-97280757D02*
X111081797Y-97237900D01*
X111081797Y-97237900D02*
X111248464Y-97237900D01*
X111248464Y-97237900D02*
X111315130Y-97195042D01*
X111548463Y-96980757D02*
X111815130Y-96980757D01*
X111648463Y-96680757D02*
X111648463Y-97452185D01*
X111648463Y-97452185D02*
X111681797Y-97537900D01*
X111681797Y-97537900D02*
X111748463Y-97580757D01*
X111748463Y-97580757D02*
X111815130Y-97580757D01*
X112048463Y-97580757D02*
X112048463Y-96980757D01*
X112048463Y-96680757D02*
X112015130Y-96723614D01*
X112015130Y-96723614D02*
X112048463Y-96766471D01*
X112048463Y-96766471D02*
X112081797Y-96723614D01*
X112081797Y-96723614D02*
X112048463Y-96680757D01*
X112048463Y-96680757D02*
X112048463Y-96766471D01*
X112315130Y-96980757D02*
X112481796Y-97580757D01*
X112481796Y-97580757D02*
X112648463Y-96980757D01*
X113181796Y-97537900D02*
X113115129Y-97580757D01*
X113115129Y-97580757D02*
X112981796Y-97580757D01*
X112981796Y-97580757D02*
X112915129Y-97537900D01*
X112915129Y-97537900D02*
X112881796Y-97452185D01*
X112881796Y-97452185D02*
X112881796Y-97109328D01*
X112881796Y-97109328D02*
X112915129Y-97023614D01*
X112915129Y-97023614D02*
X112981796Y-96980757D01*
X112981796Y-96980757D02*
X113115129Y-96980757D01*
X113115129Y-96980757D02*
X113181796Y-97023614D01*
X113181796Y-97023614D02*
X113215129Y-97109328D01*
X113215129Y-97109328D02*
X113215129Y-97195042D01*
X113215129Y-97195042D02*
X112881796Y-97280757D01*
X114448462Y-97495042D02*
X114415129Y-97537900D01*
X114415129Y-97537900D02*
X114315129Y-97580757D01*
X114315129Y-97580757D02*
X114248462Y-97580757D01*
X114248462Y-97580757D02*
X114148462Y-97537900D01*
X114148462Y-97537900D02*
X114081796Y-97452185D01*
X114081796Y-97452185D02*
X114048462Y-97366471D01*
X114048462Y-97366471D02*
X114015129Y-97195042D01*
X114015129Y-97195042D02*
X114015129Y-97066471D01*
X114015129Y-97066471D02*
X114048462Y-96895042D01*
X114048462Y-96895042D02*
X114081796Y-96809328D01*
X114081796Y-96809328D02*
X114148462Y-96723614D01*
X114148462Y-96723614D02*
X114248462Y-96680757D01*
X114248462Y-96680757D02*
X114315129Y-96680757D01*
X114315129Y-96680757D02*
X114415129Y-96723614D01*
X114415129Y-96723614D02*
X114448462Y-96766471D01*
X114848462Y-97580757D02*
X114781796Y-97537900D01*
X114781796Y-97537900D02*
X114748462Y-97495042D01*
X114748462Y-97495042D02*
X114715129Y-97409328D01*
X114715129Y-97409328D02*
X114715129Y-97152185D01*
X114715129Y-97152185D02*
X114748462Y-97066471D01*
X114748462Y-97066471D02*
X114781796Y-97023614D01*
X114781796Y-97023614D02*
X114848462Y-96980757D01*
X114848462Y-96980757D02*
X114948462Y-96980757D01*
X114948462Y-96980757D02*
X115015129Y-97023614D01*
X115015129Y-97023614D02*
X115048462Y-97066471D01*
X115048462Y-97066471D02*
X115081796Y-97152185D01*
X115081796Y-97152185D02*
X115081796Y-97409328D01*
X115081796Y-97409328D02*
X115048462Y-97495042D01*
X115048462Y-97495042D02*
X115015129Y-97537900D01*
X115015129Y-97537900D02*
X114948462Y-97580757D01*
X114948462Y-97580757D02*
X114848462Y-97580757D01*
X115381795Y-97580757D02*
X115381795Y-96980757D01*
X115381795Y-97066471D02*
X115415129Y-97023614D01*
X115415129Y-97023614D02*
X115481795Y-96980757D01*
X115481795Y-96980757D02*
X115581795Y-96980757D01*
X115581795Y-96980757D02*
X115648462Y-97023614D01*
X115648462Y-97023614D02*
X115681795Y-97109328D01*
X115681795Y-97109328D02*
X115681795Y-97580757D01*
X115681795Y-97109328D02*
X115715129Y-97023614D01*
X115715129Y-97023614D02*
X115781795Y-96980757D01*
X115781795Y-96980757D02*
X115881795Y-96980757D01*
X115881795Y-96980757D02*
X115948462Y-97023614D01*
X115948462Y-97023614D02*
X115981795Y-97109328D01*
X115981795Y-97109328D02*
X115981795Y-97580757D01*
X116315128Y-97580757D02*
X116315128Y-96980757D01*
X116315128Y-97066471D02*
X116348462Y-97023614D01*
X116348462Y-97023614D02*
X116415128Y-96980757D01*
X116415128Y-96980757D02*
X116515128Y-96980757D01*
X116515128Y-96980757D02*
X116581795Y-97023614D01*
X116581795Y-97023614D02*
X116615128Y-97109328D01*
X116615128Y-97109328D02*
X116615128Y-97580757D01*
X116615128Y-97109328D02*
X116648462Y-97023614D01*
X116648462Y-97023614D02*
X116715128Y-96980757D01*
X116715128Y-96980757D02*
X116815128Y-96980757D01*
X116815128Y-96980757D02*
X116881795Y-97023614D01*
X116881795Y-97023614D02*
X116915128Y-97109328D01*
X116915128Y-97109328D02*
X116915128Y-97580757D01*
X117348461Y-97580757D02*
X117281795Y-97537900D01*
X117281795Y-97537900D02*
X117248461Y-97495042D01*
X117248461Y-97495042D02*
X117215128Y-97409328D01*
X117215128Y-97409328D02*
X117215128Y-97152185D01*
X117215128Y-97152185D02*
X117248461Y-97066471D01*
X117248461Y-97066471D02*
X117281795Y-97023614D01*
X117281795Y-97023614D02*
X117348461Y-96980757D01*
X117348461Y-96980757D02*
X117448461Y-96980757D01*
X117448461Y-96980757D02*
X117515128Y-97023614D01*
X117515128Y-97023614D02*
X117548461Y-97066471D01*
X117548461Y-97066471D02*
X117581795Y-97152185D01*
X117581795Y-97152185D02*
X117581795Y-97409328D01*
X117581795Y-97409328D02*
X117548461Y-97495042D01*
X117548461Y-97495042D02*
X117515128Y-97537900D01*
X117515128Y-97537900D02*
X117448461Y-97580757D01*
X117448461Y-97580757D02*
X117348461Y-97580757D01*
X117881794Y-96980757D02*
X117881794Y-97580757D01*
X117881794Y-97066471D02*
X117915128Y-97023614D01*
X117915128Y-97023614D02*
X117981794Y-96980757D01*
X117981794Y-96980757D02*
X118081794Y-96980757D01*
X118081794Y-96980757D02*
X118148461Y-97023614D01*
X118148461Y-97023614D02*
X118181794Y-97109328D01*
X118181794Y-97109328D02*
X118181794Y-97580757D01*
X118481794Y-97537900D02*
X118548461Y-97580757D01*
X118548461Y-97580757D02*
X118681794Y-97580757D01*
X118681794Y-97580757D02*
X118748461Y-97537900D01*
X118748461Y-97537900D02*
X118781794Y-97452185D01*
X118781794Y-97452185D02*
X118781794Y-97409328D01*
X118781794Y-97409328D02*
X118748461Y-97323614D01*
X118748461Y-97323614D02*
X118681794Y-97280757D01*
X118681794Y-97280757D02*
X118581794Y-97280757D01*
X118581794Y-97280757D02*
X118515127Y-97237900D01*
X118515127Y-97237900D02*
X118481794Y-97152185D01*
X118481794Y-97152185D02*
X118481794Y-97109328D01*
X118481794Y-97109328D02*
X118515127Y-97023614D01*
X118515127Y-97023614D02*
X118581794Y-96980757D01*
X118581794Y-96980757D02*
X118681794Y-96980757D01*
X118681794Y-96980757D02*
X118748461Y-97023614D01*
X120015127Y-97495042D02*
X119981794Y-97537900D01*
X119981794Y-97537900D02*
X119881794Y-97580757D01*
X119881794Y-97580757D02*
X119815127Y-97580757D01*
X119815127Y-97580757D02*
X119715127Y-97537900D01*
X119715127Y-97537900D02*
X119648461Y-97452185D01*
X119648461Y-97452185D02*
X119615127Y-97366471D01*
X119615127Y-97366471D02*
X119581794Y-97195042D01*
X119581794Y-97195042D02*
X119581794Y-97066471D01*
X119581794Y-97066471D02*
X119615127Y-96895042D01*
X119615127Y-96895042D02*
X119648461Y-96809328D01*
X119648461Y-96809328D02*
X119715127Y-96723614D01*
X119715127Y-96723614D02*
X119815127Y-96680757D01*
X119815127Y-96680757D02*
X119881794Y-96680757D01*
X119881794Y-96680757D02*
X119981794Y-96723614D01*
X119981794Y-96723614D02*
X120015127Y-96766471D01*
X120715127Y-97495042D02*
X120681794Y-97537900D01*
X120681794Y-97537900D02*
X120581794Y-97580757D01*
X120581794Y-97580757D02*
X120515127Y-97580757D01*
X120515127Y-97580757D02*
X120415127Y-97537900D01*
X120415127Y-97537900D02*
X120348461Y-97452185D01*
X120348461Y-97452185D02*
X120315127Y-97366471D01*
X120315127Y-97366471D02*
X120281794Y-97195042D01*
X120281794Y-97195042D02*
X120281794Y-97066471D01*
X120281794Y-97066471D02*
X120315127Y-96895042D01*
X120315127Y-96895042D02*
X120348461Y-96809328D01*
X120348461Y-96809328D02*
X120415127Y-96723614D01*
X120415127Y-96723614D02*
X120515127Y-96680757D01*
X120515127Y-96680757D02*
X120581794Y-96680757D01*
X120581794Y-96680757D02*
X120681794Y-96723614D01*
X120681794Y-96723614D02*
X120715127Y-96766471D01*
X121015127Y-97237900D02*
X121548461Y-97237900D01*
X122115128Y-97109328D02*
X122215128Y-97152185D01*
X122215128Y-97152185D02*
X122248461Y-97195042D01*
X122248461Y-97195042D02*
X122281794Y-97280757D01*
X122281794Y-97280757D02*
X122281794Y-97409328D01*
X122281794Y-97409328D02*
X122248461Y-97495042D01*
X122248461Y-97495042D02*
X122215128Y-97537900D01*
X122215128Y-97537900D02*
X122148461Y-97580757D01*
X122148461Y-97580757D02*
X121881794Y-97580757D01*
X121881794Y-97580757D02*
X121881794Y-96680757D01*
X121881794Y-96680757D02*
X122115128Y-96680757D01*
X122115128Y-96680757D02*
X122181794Y-96723614D01*
X122181794Y-96723614D02*
X122215128Y-96766471D01*
X122215128Y-96766471D02*
X122248461Y-96852185D01*
X122248461Y-96852185D02*
X122248461Y-96937900D01*
X122248461Y-96937900D02*
X122215128Y-97023614D01*
X122215128Y-97023614D02*
X122181794Y-97066471D01*
X122181794Y-97066471D02*
X122115128Y-97109328D01*
X122115128Y-97109328D02*
X121881794Y-97109328D01*
X122715128Y-97152185D02*
X122715128Y-97580757D01*
X122481794Y-96680757D02*
X122715128Y-97152185D01*
X122715128Y-97152185D02*
X122948461Y-96680757D01*
X123181794Y-97237900D02*
X123715128Y-97237900D01*
X124015128Y-97537900D02*
X124115128Y-97580757D01*
X124115128Y-97580757D02*
X124281795Y-97580757D01*
X124281795Y-97580757D02*
X124348461Y-97537900D01*
X124348461Y-97537900D02*
X124381795Y-97495042D01*
X124381795Y-97495042D02*
X124415128Y-97409328D01*
X124415128Y-97409328D02*
X124415128Y-97323614D01*
X124415128Y-97323614D02*
X124381795Y-97237900D01*
X124381795Y-97237900D02*
X124348461Y-97195042D01*
X124348461Y-97195042D02*
X124281795Y-97152185D01*
X124281795Y-97152185D02*
X124148461Y-97109328D01*
X124148461Y-97109328D02*
X124081795Y-97066471D01*
X124081795Y-97066471D02*
X124048461Y-97023614D01*
X124048461Y-97023614D02*
X124015128Y-96937900D01*
X124015128Y-96937900D02*
X124015128Y-96852185D01*
X124015128Y-96852185D02*
X124048461Y-96766471D01*
X124048461Y-96766471D02*
X124081795Y-96723614D01*
X124081795Y-96723614D02*
X124148461Y-96680757D01*
X124148461Y-96680757D02*
X124315128Y-96680757D01*
X124315128Y-96680757D02*
X124415128Y-96723614D01*
X124681795Y-97323614D02*
X125015128Y-97323614D01*
X124615128Y-97580757D02*
X124848462Y-96680757D01*
X124848462Y-96680757D02*
X125081795Y-97580757D01*
X126148461Y-96980757D02*
X126148461Y-97580757D01*
X125981795Y-96637900D02*
X125815128Y-97280757D01*
X125815128Y-97280757D02*
X126248461Y-97280757D01*
X126515128Y-97495042D02*
X126548462Y-97537900D01*
X126548462Y-97537900D02*
X126515128Y-97580757D01*
X126515128Y-97580757D02*
X126481795Y-97537900D01*
X126481795Y-97537900D02*
X126515128Y-97495042D01*
X126515128Y-97495042D02*
X126515128Y-97580757D01*
X126981795Y-96680757D02*
X127048461Y-96680757D01*
X127048461Y-96680757D02*
X127115128Y-96723614D01*
X127115128Y-96723614D02*
X127148461Y-96766471D01*
X127148461Y-96766471D02*
X127181795Y-96852185D01*
X127181795Y-96852185D02*
X127215128Y-97023614D01*
X127215128Y-97023614D02*
X127215128Y-97237900D01*
X127215128Y-97237900D02*
X127181795Y-97409328D01*
X127181795Y-97409328D02*
X127148461Y-97495042D01*
X127148461Y-97495042D02*
X127115128Y-97537900D01*
X127115128Y-97537900D02*
X127048461Y-97580757D01*
X127048461Y-97580757D02*
X126981795Y-97580757D01*
X126981795Y-97580757D02*
X126915128Y-97537900D01*
X126915128Y-97537900D02*
X126881795Y-97495042D01*
X126881795Y-97495042D02*
X126848461Y-97409328D01*
X126848461Y-97409328D02*
X126815128Y-97237900D01*
X126815128Y-97237900D02*
X126815128Y-97023614D01*
X126815128Y-97023614D02*
X126848461Y-96852185D01*
X126848461Y-96852185D02*
X126881795Y-96766471D01*
X126881795Y-96766471D02*
X126915128Y-96723614D01*
X126915128Y-96723614D02*
X126981795Y-96680757D01*
D10*
X124254510Y-81200828D02*
X124254510Y-79700828D01*
X125468796Y-80415114D02*
X124968796Y-80415114D01*
X124968796Y-81200828D02*
X124968796Y-79700828D01*
X124968796Y-79700828D02*
X125683082Y-79700828D01*
X106768796Y-69000828D02*
X106054510Y-69000828D01*
X106054510Y-69000828D02*
X106054510Y-67500828D01*
X107554511Y-67500828D02*
X107840225Y-67500828D01*
X107840225Y-67500828D02*
X107983082Y-67572257D01*
X107983082Y-67572257D02*
X108125939Y-67715114D01*
X108125939Y-67715114D02*
X108197368Y-68000828D01*
X108197368Y-68000828D02*
X108197368Y-68500828D01*
X108197368Y-68500828D02*
X108125939Y-68786542D01*
X108125939Y-68786542D02*
X107983082Y-68929400D01*
X107983082Y-68929400D02*
X107840225Y-69000828D01*
X107840225Y-69000828D02*
X107554511Y-69000828D01*
X107554511Y-69000828D02*
X107411654Y-68929400D01*
X107411654Y-68929400D02*
X107268796Y-68786542D01*
X107268796Y-68786542D02*
X107197368Y-68500828D01*
X107197368Y-68500828D02*
X107197368Y-68000828D01*
X107197368Y-68000828D02*
X107268796Y-67715114D01*
X107268796Y-67715114D02*
X107411654Y-67572257D01*
X107411654Y-67572257D02*
X107554511Y-67500828D01*
D11*
X109581797Y-53331757D02*
X109581797Y-52431757D01*
X109581797Y-52431757D02*
X109748464Y-52431757D01*
X109748464Y-52431757D02*
X109848464Y-52474614D01*
X109848464Y-52474614D02*
X109915131Y-52560328D01*
X109915131Y-52560328D02*
X109948464Y-52646042D01*
X109948464Y-52646042D02*
X109981797Y-52817471D01*
X109981797Y-52817471D02*
X109981797Y-52946042D01*
X109981797Y-52946042D02*
X109948464Y-53117471D01*
X109948464Y-53117471D02*
X109915131Y-53203185D01*
X109915131Y-53203185D02*
X109848464Y-53288900D01*
X109848464Y-53288900D02*
X109748464Y-53331757D01*
X109748464Y-53331757D02*
X109581797Y-53331757D01*
X110381797Y-53331757D02*
X110315131Y-53288900D01*
X110315131Y-53288900D02*
X110281797Y-53246042D01*
X110281797Y-53246042D02*
X110248464Y-53160328D01*
X110248464Y-53160328D02*
X110248464Y-52903185D01*
X110248464Y-52903185D02*
X110281797Y-52817471D01*
X110281797Y-52817471D02*
X110315131Y-52774614D01*
X110315131Y-52774614D02*
X110381797Y-52731757D01*
X110381797Y-52731757D02*
X110481797Y-52731757D01*
X110481797Y-52731757D02*
X110548464Y-52774614D01*
X110548464Y-52774614D02*
X110581797Y-52817471D01*
X110581797Y-52817471D02*
X110615131Y-52903185D01*
X110615131Y-52903185D02*
X110615131Y-53160328D01*
X110615131Y-53160328D02*
X110581797Y-53246042D01*
X110581797Y-53246042D02*
X110548464Y-53288900D01*
X110548464Y-53288900D02*
X110481797Y-53331757D01*
X110481797Y-53331757D02*
X110381797Y-53331757D01*
X111215130Y-52731757D02*
X111215130Y-53331757D01*
X110915130Y-52731757D02*
X110915130Y-53203185D01*
X110915130Y-53203185D02*
X110948464Y-53288900D01*
X110948464Y-53288900D02*
X111015130Y-53331757D01*
X111015130Y-53331757D02*
X111115130Y-53331757D01*
X111115130Y-53331757D02*
X111181797Y-53288900D01*
X111181797Y-53288900D02*
X111215130Y-53246042D01*
X111548463Y-53331757D02*
X111548463Y-52431757D01*
X111548463Y-52774614D02*
X111615130Y-52731757D01*
X111615130Y-52731757D02*
X111748463Y-52731757D01*
X111748463Y-52731757D02*
X111815130Y-52774614D01*
X111815130Y-52774614D02*
X111848463Y-52817471D01*
X111848463Y-52817471D02*
X111881797Y-52903185D01*
X111881797Y-52903185D02*
X111881797Y-53160328D01*
X111881797Y-53160328D02*
X111848463Y-53246042D01*
X111848463Y-53246042D02*
X111815130Y-53288900D01*
X111815130Y-53288900D02*
X111748463Y-53331757D01*
X111748463Y-53331757D02*
X111615130Y-53331757D01*
X111615130Y-53331757D02*
X111548463Y-53288900D01*
X112281796Y-53331757D02*
X112215130Y-53288900D01*
X112215130Y-53288900D02*
X112181796Y-53203185D01*
X112181796Y-53203185D02*
X112181796Y-52431757D01*
X112815130Y-53288900D02*
X112748463Y-53331757D01*
X112748463Y-53331757D02*
X112615130Y-53331757D01*
X112615130Y-53331757D02*
X112548463Y-53288900D01*
X112548463Y-53288900D02*
X112515130Y-53203185D01*
X112515130Y-53203185D02*
X112515130Y-52860328D01*
X112515130Y-52860328D02*
X112548463Y-52774614D01*
X112548463Y-52774614D02*
X112615130Y-52731757D01*
X112615130Y-52731757D02*
X112748463Y-52731757D01*
X112748463Y-52731757D02*
X112815130Y-52774614D01*
X112815130Y-52774614D02*
X112848463Y-52860328D01*
X112848463Y-52860328D02*
X112848463Y-52946042D01*
X112848463Y-52946042D02*
X112515130Y-53031757D01*
X113148463Y-52988900D02*
X113681797Y-52988900D01*
X114248464Y-52860328D02*
X114348464Y-52903185D01*
X114348464Y-52903185D02*
X114381797Y-52946042D01*
X114381797Y-52946042D02*
X114415130Y-53031757D01*
X114415130Y-53031757D02*
X114415130Y-53160328D01*
X114415130Y-53160328D02*
X114381797Y-53246042D01*
X114381797Y-53246042D02*
X114348464Y-53288900D01*
X114348464Y-53288900D02*
X114281797Y-53331757D01*
X114281797Y-53331757D02*
X114015130Y-53331757D01*
X114015130Y-53331757D02*
X114015130Y-52431757D01*
X114015130Y-52431757D02*
X114248464Y-52431757D01*
X114248464Y-52431757D02*
X114315130Y-52474614D01*
X114315130Y-52474614D02*
X114348464Y-52517471D01*
X114348464Y-52517471D02*
X114381797Y-52603185D01*
X114381797Y-52603185D02*
X114381797Y-52688900D01*
X114381797Y-52688900D02*
X114348464Y-52774614D01*
X114348464Y-52774614D02*
X114315130Y-52817471D01*
X114315130Y-52817471D02*
X114248464Y-52860328D01*
X114248464Y-52860328D02*
X114015130Y-52860328D01*
X115015130Y-53331757D02*
X115015130Y-52860328D01*
X115015130Y-52860328D02*
X114981797Y-52774614D01*
X114981797Y-52774614D02*
X114915130Y-52731757D01*
X114915130Y-52731757D02*
X114781797Y-52731757D01*
X114781797Y-52731757D02*
X114715130Y-52774614D01*
X115015130Y-53288900D02*
X114948464Y-53331757D01*
X114948464Y-53331757D02*
X114781797Y-53331757D01*
X114781797Y-53331757D02*
X114715130Y-53288900D01*
X114715130Y-53288900D02*
X114681797Y-53203185D01*
X114681797Y-53203185D02*
X114681797Y-53117471D01*
X114681797Y-53117471D02*
X114715130Y-53031757D01*
X114715130Y-53031757D02*
X114781797Y-52988900D01*
X114781797Y-52988900D02*
X114948464Y-52988900D01*
X114948464Y-52988900D02*
X115015130Y-52946042D01*
X115448463Y-53331757D02*
X115381797Y-53288900D01*
X115381797Y-53288900D02*
X115348463Y-53203185D01*
X115348463Y-53203185D02*
X115348463Y-52431757D01*
X116015130Y-53331757D02*
X116015130Y-52860328D01*
X116015130Y-52860328D02*
X115981797Y-52774614D01*
X115981797Y-52774614D02*
X115915130Y-52731757D01*
X115915130Y-52731757D02*
X115781797Y-52731757D01*
X115781797Y-52731757D02*
X115715130Y-52774614D01*
X116015130Y-53288900D02*
X115948464Y-53331757D01*
X115948464Y-53331757D02*
X115781797Y-53331757D01*
X115781797Y-53331757D02*
X115715130Y-53288900D01*
X115715130Y-53288900D02*
X115681797Y-53203185D01*
X115681797Y-53203185D02*
X115681797Y-53117471D01*
X115681797Y-53117471D02*
X115715130Y-53031757D01*
X115715130Y-53031757D02*
X115781797Y-52988900D01*
X115781797Y-52988900D02*
X115948464Y-52988900D01*
X115948464Y-52988900D02*
X116015130Y-52946042D01*
X116348463Y-52731757D02*
X116348463Y-53331757D01*
X116348463Y-52817471D02*
X116381797Y-52774614D01*
X116381797Y-52774614D02*
X116448463Y-52731757D01*
X116448463Y-52731757D02*
X116548463Y-52731757D01*
X116548463Y-52731757D02*
X116615130Y-52774614D01*
X116615130Y-52774614D02*
X116648463Y-52860328D01*
X116648463Y-52860328D02*
X116648463Y-53331757D01*
X117281796Y-53288900D02*
X117215130Y-53331757D01*
X117215130Y-53331757D02*
X117081796Y-53331757D01*
X117081796Y-53331757D02*
X117015130Y-53288900D01*
X117015130Y-53288900D02*
X116981796Y-53246042D01*
X116981796Y-53246042D02*
X116948463Y-53160328D01*
X116948463Y-53160328D02*
X116948463Y-52903185D01*
X116948463Y-52903185D02*
X116981796Y-52817471D01*
X116981796Y-52817471D02*
X117015130Y-52774614D01*
X117015130Y-52774614D02*
X117081796Y-52731757D01*
X117081796Y-52731757D02*
X117215130Y-52731757D01*
X117215130Y-52731757D02*
X117281796Y-52774614D01*
X117848463Y-53288900D02*
X117781796Y-53331757D01*
X117781796Y-53331757D02*
X117648463Y-53331757D01*
X117648463Y-53331757D02*
X117581796Y-53288900D01*
X117581796Y-53288900D02*
X117548463Y-53203185D01*
X117548463Y-53203185D02*
X117548463Y-52860328D01*
X117548463Y-52860328D02*
X117581796Y-52774614D01*
X117581796Y-52774614D02*
X117648463Y-52731757D01*
X117648463Y-52731757D02*
X117781796Y-52731757D01*
X117781796Y-52731757D02*
X117848463Y-52774614D01*
X117848463Y-52774614D02*
X117881796Y-52860328D01*
X117881796Y-52860328D02*
X117881796Y-52946042D01*
X117881796Y-52946042D02*
X117548463Y-53031757D01*
X118481796Y-53331757D02*
X118481796Y-52431757D01*
X118481796Y-53288900D02*
X118415130Y-53331757D01*
X118415130Y-53331757D02*
X118281796Y-53331757D01*
X118281796Y-53331757D02*
X118215130Y-53288900D01*
X118215130Y-53288900D02*
X118181796Y-53246042D01*
X118181796Y-53246042D02*
X118148463Y-53160328D01*
X118148463Y-53160328D02*
X118148463Y-52903185D01*
X118148463Y-52903185D02*
X118181796Y-52817471D01*
X118181796Y-52817471D02*
X118215130Y-52774614D01*
X118215130Y-52774614D02*
X118281796Y-52731757D01*
X118281796Y-52731757D02*
X118415130Y-52731757D01*
X118415130Y-52731757D02*
X118481796Y-52774614D01*
X119348462Y-53331757D02*
X119348462Y-52431757D01*
X119348462Y-52431757D02*
X119515129Y-52431757D01*
X119515129Y-52431757D02*
X119615129Y-52474614D01*
X119615129Y-52474614D02*
X119681796Y-52560328D01*
X119681796Y-52560328D02*
X119715129Y-52646042D01*
X119715129Y-52646042D02*
X119748462Y-52817471D01*
X119748462Y-52817471D02*
X119748462Y-52946042D01*
X119748462Y-52946042D02*
X119715129Y-53117471D01*
X119715129Y-53117471D02*
X119681796Y-53203185D01*
X119681796Y-53203185D02*
X119615129Y-53288900D01*
X119615129Y-53288900D02*
X119515129Y-53331757D01*
X119515129Y-53331757D02*
X119348462Y-53331757D01*
X120048462Y-53331757D02*
X120048462Y-52731757D01*
X120048462Y-52431757D02*
X120015129Y-52474614D01*
X120015129Y-52474614D02*
X120048462Y-52517471D01*
X120048462Y-52517471D02*
X120081796Y-52474614D01*
X120081796Y-52474614D02*
X120048462Y-52431757D01*
X120048462Y-52431757D02*
X120048462Y-52517471D01*
X120481795Y-53331757D02*
X120415129Y-53288900D01*
X120415129Y-53288900D02*
X120381795Y-53246042D01*
X120381795Y-53246042D02*
X120348462Y-53160328D01*
X120348462Y-53160328D02*
X120348462Y-52903185D01*
X120348462Y-52903185D02*
X120381795Y-52817471D01*
X120381795Y-52817471D02*
X120415129Y-52774614D01*
X120415129Y-52774614D02*
X120481795Y-52731757D01*
X120481795Y-52731757D02*
X120581795Y-52731757D01*
X120581795Y-52731757D02*
X120648462Y-52774614D01*
X120648462Y-52774614D02*
X120681795Y-52817471D01*
X120681795Y-52817471D02*
X120715129Y-52903185D01*
X120715129Y-52903185D02*
X120715129Y-53160328D01*
X120715129Y-53160328D02*
X120681795Y-53246042D01*
X120681795Y-53246042D02*
X120648462Y-53288900D01*
X120648462Y-53288900D02*
X120581795Y-53331757D01*
X120581795Y-53331757D02*
X120481795Y-53331757D01*
X121315128Y-53331757D02*
X121315128Y-52431757D01*
X121315128Y-53288900D02*
X121248462Y-53331757D01*
X121248462Y-53331757D02*
X121115128Y-53331757D01*
X121115128Y-53331757D02*
X121048462Y-53288900D01*
X121048462Y-53288900D02*
X121015128Y-53246042D01*
X121015128Y-53246042D02*
X120981795Y-53160328D01*
X120981795Y-53160328D02*
X120981795Y-52903185D01*
X120981795Y-52903185D02*
X121015128Y-52817471D01*
X121015128Y-52817471D02*
X121048462Y-52774614D01*
X121048462Y-52774614D02*
X121115128Y-52731757D01*
X121115128Y-52731757D02*
X121248462Y-52731757D01*
X121248462Y-52731757D02*
X121315128Y-52774614D01*
X121915128Y-53288900D02*
X121848461Y-53331757D01*
X121848461Y-53331757D02*
X121715128Y-53331757D01*
X121715128Y-53331757D02*
X121648461Y-53288900D01*
X121648461Y-53288900D02*
X121615128Y-53203185D01*
X121615128Y-53203185D02*
X121615128Y-52860328D01*
X121615128Y-52860328D02*
X121648461Y-52774614D01*
X121648461Y-52774614D02*
X121715128Y-52731757D01*
X121715128Y-52731757D02*
X121848461Y-52731757D01*
X121848461Y-52731757D02*
X121915128Y-52774614D01*
X121915128Y-52774614D02*
X121948461Y-52860328D01*
X121948461Y-52860328D02*
X121948461Y-52946042D01*
X121948461Y-52946042D02*
X121615128Y-53031757D01*
X123181794Y-53331757D02*
X122948461Y-52903185D01*
X122781794Y-53331757D02*
X122781794Y-52431757D01*
X122781794Y-52431757D02*
X123048461Y-52431757D01*
X123048461Y-52431757D02*
X123115128Y-52474614D01*
X123115128Y-52474614D02*
X123148461Y-52517471D01*
X123148461Y-52517471D02*
X123181794Y-52603185D01*
X123181794Y-52603185D02*
X123181794Y-52731757D01*
X123181794Y-52731757D02*
X123148461Y-52817471D01*
X123148461Y-52817471D02*
X123115128Y-52860328D01*
X123115128Y-52860328D02*
X123048461Y-52903185D01*
X123048461Y-52903185D02*
X122781794Y-52903185D01*
X123481794Y-53331757D02*
X123481794Y-52731757D01*
X123481794Y-52431757D02*
X123448461Y-52474614D01*
X123448461Y-52474614D02*
X123481794Y-52517471D01*
X123481794Y-52517471D02*
X123515128Y-52474614D01*
X123515128Y-52474614D02*
X123481794Y-52431757D01*
X123481794Y-52431757D02*
X123481794Y-52517471D01*
X123815127Y-52731757D02*
X123815127Y-53331757D01*
X123815127Y-52817471D02*
X123848461Y-52774614D01*
X123848461Y-52774614D02*
X123915127Y-52731757D01*
X123915127Y-52731757D02*
X124015127Y-52731757D01*
X124015127Y-52731757D02*
X124081794Y-52774614D01*
X124081794Y-52774614D02*
X124115127Y-52860328D01*
X124115127Y-52860328D02*
X124115127Y-53331757D01*
X124748460Y-52731757D02*
X124748460Y-53460328D01*
X124748460Y-53460328D02*
X124715127Y-53546042D01*
X124715127Y-53546042D02*
X124681794Y-53588900D01*
X124681794Y-53588900D02*
X124615127Y-53631757D01*
X124615127Y-53631757D02*
X124515127Y-53631757D01*
X124515127Y-53631757D02*
X124448460Y-53588900D01*
X124748460Y-53288900D02*
X124681794Y-53331757D01*
X124681794Y-53331757D02*
X124548460Y-53331757D01*
X124548460Y-53331757D02*
X124481794Y-53288900D01*
X124481794Y-53288900D02*
X124448460Y-53246042D01*
X124448460Y-53246042D02*
X124415127Y-53160328D01*
X124415127Y-53160328D02*
X124415127Y-52903185D01*
X124415127Y-52903185D02*
X124448460Y-52817471D01*
X124448460Y-52817471D02*
X124481794Y-52774614D01*
X124481794Y-52774614D02*
X124548460Y-52731757D01*
X124548460Y-52731757D02*
X124681794Y-52731757D01*
X124681794Y-52731757D02*
X124748460Y-52774614D01*
X125615126Y-53331757D02*
X125615126Y-52431757D01*
X125615126Y-52431757D02*
X125848460Y-53074614D01*
X125848460Y-53074614D02*
X126081793Y-52431757D01*
X126081793Y-52431757D02*
X126081793Y-53331757D01*
X126415126Y-53331757D02*
X126415126Y-52731757D01*
X126415126Y-52431757D02*
X126381793Y-52474614D01*
X126381793Y-52474614D02*
X126415126Y-52517471D01*
X126415126Y-52517471D02*
X126448460Y-52474614D01*
X126448460Y-52474614D02*
X126415126Y-52431757D01*
X126415126Y-52431757D02*
X126415126Y-52517471D01*
X126681793Y-53331757D02*
X127048459Y-52731757D01*
X126681793Y-52731757D02*
X127048459Y-53331757D01*
X127581793Y-53288900D02*
X127515126Y-53331757D01*
X127515126Y-53331757D02*
X127381793Y-53331757D01*
X127381793Y-53331757D02*
X127315126Y-53288900D01*
X127315126Y-53288900D02*
X127281793Y-53203185D01*
X127281793Y-53203185D02*
X127281793Y-52860328D01*
X127281793Y-52860328D02*
X127315126Y-52774614D01*
X127315126Y-52774614D02*
X127381793Y-52731757D01*
X127381793Y-52731757D02*
X127515126Y-52731757D01*
X127515126Y-52731757D02*
X127581793Y-52774614D01*
X127581793Y-52774614D02*
X127615126Y-52860328D01*
X127615126Y-52860328D02*
X127615126Y-52946042D01*
X127615126Y-52946042D02*
X127281793Y-53031757D01*
X127915126Y-53331757D02*
X127915126Y-52731757D01*
X127915126Y-52903185D02*
X127948460Y-52817471D01*
X127948460Y-52817471D02*
X127981793Y-52774614D01*
X127981793Y-52774614D02*
X128048460Y-52731757D01*
X128048460Y-52731757D02*
X128115126Y-52731757D01*
X109581797Y-54309328D02*
X109815131Y-54309328D01*
X109915131Y-54780757D02*
X109581797Y-54780757D01*
X109581797Y-54780757D02*
X109581797Y-53880757D01*
X109581797Y-53880757D02*
X109915131Y-53880757D01*
X110115130Y-54180757D02*
X110381797Y-54180757D01*
X110215130Y-53880757D02*
X110215130Y-54652185D01*
X110215130Y-54652185D02*
X110248464Y-54737900D01*
X110248464Y-54737900D02*
X110315130Y-54780757D01*
X110315130Y-54780757D02*
X110381797Y-54780757D01*
X110615130Y-54780757D02*
X110615130Y-53880757D01*
X110915130Y-54780757D02*
X110915130Y-54309328D01*
X110915130Y-54309328D02*
X110881797Y-54223614D01*
X110881797Y-54223614D02*
X110815130Y-54180757D01*
X110815130Y-54180757D02*
X110715130Y-54180757D01*
X110715130Y-54180757D02*
X110648464Y-54223614D01*
X110648464Y-54223614D02*
X110615130Y-54266471D01*
X111515130Y-54737900D02*
X111448463Y-54780757D01*
X111448463Y-54780757D02*
X111315130Y-54780757D01*
X111315130Y-54780757D02*
X111248463Y-54737900D01*
X111248463Y-54737900D02*
X111215130Y-54652185D01*
X111215130Y-54652185D02*
X111215130Y-54309328D01*
X111215130Y-54309328D02*
X111248463Y-54223614D01*
X111248463Y-54223614D02*
X111315130Y-54180757D01*
X111315130Y-54180757D02*
X111448463Y-54180757D01*
X111448463Y-54180757D02*
X111515130Y-54223614D01*
X111515130Y-54223614D02*
X111548463Y-54309328D01*
X111548463Y-54309328D02*
X111548463Y-54395042D01*
X111548463Y-54395042D02*
X111215130Y-54480757D01*
X111848463Y-54780757D02*
X111848463Y-54180757D01*
X111848463Y-54352185D02*
X111881797Y-54266471D01*
X111881797Y-54266471D02*
X111915130Y-54223614D01*
X111915130Y-54223614D02*
X111981797Y-54180757D01*
X111981797Y-54180757D02*
X112048463Y-54180757D01*
X112281796Y-54780757D02*
X112281796Y-53880757D01*
X112348463Y-54437900D02*
X112548463Y-54780757D01*
X112548463Y-54180757D02*
X112281796Y-54523614D01*
X112848463Y-54780757D02*
X112848463Y-54180757D01*
X112848463Y-53880757D02*
X112815130Y-53923614D01*
X112815130Y-53923614D02*
X112848463Y-53966471D01*
X112848463Y-53966471D02*
X112881797Y-53923614D01*
X112881797Y-53923614D02*
X112848463Y-53880757D01*
X112848463Y-53880757D02*
X112848463Y-53966471D01*
X113081796Y-54180757D02*
X113348463Y-54180757D01*
X113181796Y-53880757D02*
X113181796Y-54652185D01*
X113181796Y-54652185D02*
X113215130Y-54737900D01*
X113215130Y-54737900D02*
X113281796Y-54780757D01*
X113281796Y-54780757D02*
X113348463Y-54780757D01*
X114081796Y-53966471D02*
X114115129Y-53923614D01*
X114115129Y-53923614D02*
X114181796Y-53880757D01*
X114181796Y-53880757D02*
X114348463Y-53880757D01*
X114348463Y-53880757D02*
X114415129Y-53923614D01*
X114415129Y-53923614D02*
X114448463Y-53966471D01*
X114448463Y-53966471D02*
X114481796Y-54052185D01*
X114481796Y-54052185D02*
X114481796Y-54137900D01*
X114481796Y-54137900D02*
X114448463Y-54266471D01*
X114448463Y-54266471D02*
X114048463Y-54780757D01*
X114048463Y-54780757D02*
X114481796Y-54780757D01*
X114915130Y-53880757D02*
X114981796Y-53880757D01*
X114981796Y-53880757D02*
X115048463Y-53923614D01*
X115048463Y-53923614D02*
X115081796Y-53966471D01*
X115081796Y-53966471D02*
X115115130Y-54052185D01*
X115115130Y-54052185D02*
X115148463Y-54223614D01*
X115148463Y-54223614D02*
X115148463Y-54437900D01*
X115148463Y-54437900D02*
X115115130Y-54609328D01*
X115115130Y-54609328D02*
X115081796Y-54695042D01*
X115081796Y-54695042D02*
X115048463Y-54737900D01*
X115048463Y-54737900D02*
X114981796Y-54780757D01*
X114981796Y-54780757D02*
X114915130Y-54780757D01*
X114915130Y-54780757D02*
X114848463Y-54737900D01*
X114848463Y-54737900D02*
X114815130Y-54695042D01*
X114815130Y-54695042D02*
X114781796Y-54609328D01*
X114781796Y-54609328D02*
X114748463Y-54437900D01*
X114748463Y-54437900D02*
X114748463Y-54223614D01*
X114748463Y-54223614D02*
X114781796Y-54052185D01*
X114781796Y-54052185D02*
X114815130Y-53966471D01*
X114815130Y-53966471D02*
X114848463Y-53923614D01*
X114848463Y-53923614D02*
X114915130Y-53880757D01*
X115415130Y-53966471D02*
X115448463Y-53923614D01*
X115448463Y-53923614D02*
X115515130Y-53880757D01*
X115515130Y-53880757D02*
X115681797Y-53880757D01*
X115681797Y-53880757D02*
X115748463Y-53923614D01*
X115748463Y-53923614D02*
X115781797Y-53966471D01*
X115781797Y-53966471D02*
X115815130Y-54052185D01*
X115815130Y-54052185D02*
X115815130Y-54137900D01*
X115815130Y-54137900D02*
X115781797Y-54266471D01*
X115781797Y-54266471D02*
X115381797Y-54780757D01*
X115381797Y-54780757D02*
X115815130Y-54780757D01*
X116415130Y-54180757D02*
X116415130Y-54780757D01*
X116248464Y-53837900D02*
X116081797Y-54480757D01*
X116081797Y-54480757D02*
X116515130Y-54480757D01*
D12*
X132138095Y-82104819D02*
X132709523Y-82104819D01*
X132423809Y-83104819D02*
X132423809Y-82104819D01*
X132995238Y-82200057D02*
X133042857Y-82152438D01*
X133042857Y-82152438D02*
X133138095Y-82104819D01*
X133138095Y-82104819D02*
X133376190Y-82104819D01*
X133376190Y-82104819D02*
X133471428Y-82152438D01*
X133471428Y-82152438D02*
X133519047Y-82200057D01*
X133519047Y-82200057D02*
X133566666Y-82295295D01*
X133566666Y-82295295D02*
X133566666Y-82390533D01*
X133566666Y-82390533D02*
X133519047Y-82533390D01*
X133519047Y-82533390D02*
X132947619Y-83104819D01*
X132947619Y-83104819D02*
X133566666Y-83104819D01*
D13*
X134099122Y-85673085D02*
X134132455Y-85634990D01*
X134132455Y-85634990D02*
X134199122Y-85596895D01*
X134199122Y-85596895D02*
X134365789Y-85596895D01*
X134365789Y-85596895D02*
X134432455Y-85634990D01*
X134432455Y-85634990D02*
X134465789Y-85673085D01*
X134465789Y-85673085D02*
X134499122Y-85749276D01*
X134499122Y-85749276D02*
X134499122Y-85825466D01*
X134499122Y-85825466D02*
X134465789Y-85939752D01*
X134465789Y-85939752D02*
X134065789Y-86396895D01*
X134065789Y-86396895D02*
X134499122Y-86396895D01*
X136399122Y-87996895D02*
X135999122Y-87996895D01*
X136199122Y-87996895D02*
X136199122Y-87196895D01*
X136199122Y-87196895D02*
X136132455Y-87311180D01*
X136132455Y-87311180D02*
X136065789Y-87387371D01*
X136065789Y-87387371D02*
X135999122Y-87425466D01*
X135965789Y-85596895D02*
X136399122Y-85596895D01*
X136399122Y-85596895D02*
X136165789Y-85901657D01*
X136165789Y-85901657D02*
X136265789Y-85901657D01*
X136265789Y-85901657D02*
X136332455Y-85939752D01*
X136332455Y-85939752D02*
X136365789Y-85977847D01*
X136365789Y-85977847D02*
X136399122Y-86054038D01*
X136399122Y-86054038D02*
X136399122Y-86244514D01*
X136399122Y-86244514D02*
X136365789Y-86320704D01*
X136365789Y-86320704D02*
X136332455Y-86358800D01*
X136332455Y-86358800D02*
X136265789Y-86396895D01*
X136265789Y-86396895D02*
X136065789Y-86396895D01*
X136065789Y-86396895D02*
X135999122Y-86358800D01*
X135999122Y-86358800D02*
X135965789Y-86320704D01*
X139765789Y-87296895D02*
X140199122Y-87296895D01*
X140199122Y-87296895D02*
X139965789Y-87601657D01*
X139965789Y-87601657D02*
X140065789Y-87601657D01*
X140065789Y-87601657D02*
X140132455Y-87639752D01*
X140132455Y-87639752D02*
X140165789Y-87677847D01*
X140165789Y-87677847D02*
X140199122Y-87754038D01*
X140199122Y-87754038D02*
X140199122Y-87944514D01*
X140199122Y-87944514D02*
X140165789Y-88020704D01*
X140165789Y-88020704D02*
X140132455Y-88058800D01*
X140132455Y-88058800D02*
X140065789Y-88096895D01*
X140065789Y-88096895D02*
X139865789Y-88096895D01*
X139865789Y-88096895D02*
X139799122Y-88058800D01*
X139799122Y-88058800D02*
X139765789Y-88020704D01*
X137799122Y-87273085D02*
X137832455Y-87234990D01*
X137832455Y-87234990D02*
X137899122Y-87196895D01*
X137899122Y-87196895D02*
X138065789Y-87196895D01*
X138065789Y-87196895D02*
X138132455Y-87234990D01*
X138132455Y-87234990D02*
X138165789Y-87273085D01*
X138165789Y-87273085D02*
X138199122Y-87349276D01*
X138199122Y-87349276D02*
X138199122Y-87425466D01*
X138199122Y-87425466D02*
X138165789Y-87539752D01*
X138165789Y-87539752D02*
X137765789Y-87996895D01*
X137765789Y-87996895D02*
X138199122Y-87996895D01*
X132599122Y-86396895D02*
X132199122Y-86396895D01*
X132399122Y-86396895D02*
X132399122Y-85596895D01*
X132399122Y-85596895D02*
X132332455Y-85711180D01*
X132332455Y-85711180D02*
X132265789Y-85787371D01*
X132265789Y-85787371D02*
X132199122Y-85825466D01*
D12*
X108138095Y-82104819D02*
X108709523Y-82104819D01*
X108423809Y-83104819D02*
X108423809Y-82104819D01*
X109566666Y-83104819D02*
X108995238Y-83104819D01*
X109280952Y-83104819D02*
X109280952Y-82104819D01*
X109280952Y-82104819D02*
X109185714Y-82247676D01*
X109185714Y-82247676D02*
X109090476Y-82342914D01*
X109090476Y-82342914D02*
X108995238Y-82390533D01*
D13*
X110099122Y-85673085D02*
X110132455Y-85634990D01*
X110132455Y-85634990D02*
X110199122Y-85596895D01*
X110199122Y-85596895D02*
X110365789Y-85596895D01*
X110365789Y-85596895D02*
X110432455Y-85634990D01*
X110432455Y-85634990D02*
X110465789Y-85673085D01*
X110465789Y-85673085D02*
X110499122Y-85749276D01*
X110499122Y-85749276D02*
X110499122Y-85825466D01*
X110499122Y-85825466D02*
X110465789Y-85939752D01*
X110465789Y-85939752D02*
X110065789Y-86396895D01*
X110065789Y-86396895D02*
X110499122Y-86396895D01*
X112399122Y-87996895D02*
X111999122Y-87996895D01*
X112199122Y-87996895D02*
X112199122Y-87196895D01*
X112199122Y-87196895D02*
X112132455Y-87311180D01*
X112132455Y-87311180D02*
X112065789Y-87387371D01*
X112065789Y-87387371D02*
X111999122Y-87425466D01*
X111965789Y-85596895D02*
X112399122Y-85596895D01*
X112399122Y-85596895D02*
X112165789Y-85901657D01*
X112165789Y-85901657D02*
X112265789Y-85901657D01*
X112265789Y-85901657D02*
X112332455Y-85939752D01*
X112332455Y-85939752D02*
X112365789Y-85977847D01*
X112365789Y-85977847D02*
X112399122Y-86054038D01*
X112399122Y-86054038D02*
X112399122Y-86244514D01*
X112399122Y-86244514D02*
X112365789Y-86320704D01*
X112365789Y-86320704D02*
X112332455Y-86358800D01*
X112332455Y-86358800D02*
X112265789Y-86396895D01*
X112265789Y-86396895D02*
X112065789Y-86396895D01*
X112065789Y-86396895D02*
X111999122Y-86358800D01*
X111999122Y-86358800D02*
X111965789Y-86320704D01*
X115765789Y-87296895D02*
X116199122Y-87296895D01*
X116199122Y-87296895D02*
X115965789Y-87601657D01*
X115965789Y-87601657D02*
X116065789Y-87601657D01*
X116065789Y-87601657D02*
X116132455Y-87639752D01*
X116132455Y-87639752D02*
X116165789Y-87677847D01*
X116165789Y-87677847D02*
X116199122Y-87754038D01*
X116199122Y-87754038D02*
X116199122Y-87944514D01*
X116199122Y-87944514D02*
X116165789Y-88020704D01*
X116165789Y-88020704D02*
X116132455Y-88058800D01*
X116132455Y-88058800D02*
X116065789Y-88096895D01*
X116065789Y-88096895D02*
X115865789Y-88096895D01*
X115865789Y-88096895D02*
X115799122Y-88058800D01*
X115799122Y-88058800D02*
X115765789Y-88020704D01*
X113799122Y-87273085D02*
X113832455Y-87234990D01*
X113832455Y-87234990D02*
X113899122Y-87196895D01*
X113899122Y-87196895D02*
X114065789Y-87196895D01*
X114065789Y-87196895D02*
X114132455Y-87234990D01*
X114132455Y-87234990D02*
X114165789Y-87273085D01*
X114165789Y-87273085D02*
X114199122Y-87349276D01*
X114199122Y-87349276D02*
X114199122Y-87425466D01*
X114199122Y-87425466D02*
X114165789Y-87539752D01*
X114165789Y-87539752D02*
X113765789Y-87996895D01*
X113765789Y-87996895D02*
X114199122Y-87996895D01*
X108599122Y-86396895D02*
X108199122Y-86396895D01*
X108399122Y-86396895D02*
X108399122Y-85596895D01*
X108399122Y-85596895D02*
X108332455Y-85711180D01*
X108332455Y-85711180D02*
X108265789Y-85787371D01*
X108265789Y-85787371D02*
X108199122Y-85825466D01*
D12*
X129834819Y-73428094D02*
X128834819Y-73428094D01*
X128834819Y-73428094D02*
X128834819Y-73189999D01*
X128834819Y-73189999D02*
X128882438Y-73047142D01*
X128882438Y-73047142D02*
X128977676Y-72951904D01*
X128977676Y-72951904D02*
X129072914Y-72904285D01*
X129072914Y-72904285D02*
X129263390Y-72856666D01*
X129263390Y-72856666D02*
X129406247Y-72856666D01*
X129406247Y-72856666D02*
X129596723Y-72904285D01*
X129596723Y-72904285D02*
X129691961Y-72951904D01*
X129691961Y-72951904D02*
X129787200Y-73047142D01*
X129787200Y-73047142D02*
X129834819Y-73189999D01*
X129834819Y-73189999D02*
X129834819Y-73428094D01*
X128834819Y-72523332D02*
X128834819Y-71904285D01*
X128834819Y-71904285D02*
X129215771Y-72237618D01*
X129215771Y-72237618D02*
X129215771Y-72094761D01*
X129215771Y-72094761D02*
X129263390Y-71999523D01*
X129263390Y-71999523D02*
X129311009Y-71951904D01*
X129311009Y-71951904D02*
X129406247Y-71904285D01*
X129406247Y-71904285D02*
X129644342Y-71904285D01*
X129644342Y-71904285D02*
X129739580Y-71951904D01*
X129739580Y-71951904D02*
X129787200Y-71999523D01*
X129787200Y-71999523D02*
X129834819Y-72094761D01*
X129834819Y-72094761D02*
X129834819Y-72380475D01*
X129834819Y-72380475D02*
X129787200Y-72475713D01*
X129787200Y-72475713D02*
X129739580Y-72523332D01*
X124261905Y-71474819D02*
X124261905Y-70474819D01*
X124261905Y-70474819D02*
X124500000Y-70474819D01*
X124500000Y-70474819D02*
X124642857Y-70522438D01*
X124642857Y-70522438D02*
X124738095Y-70617676D01*
X124738095Y-70617676D02*
X124785714Y-70712914D01*
X124785714Y-70712914D02*
X124833333Y-70903390D01*
X124833333Y-70903390D02*
X124833333Y-71046247D01*
X124833333Y-71046247D02*
X124785714Y-71236723D01*
X124785714Y-71236723D02*
X124738095Y-71331961D01*
X124738095Y-71331961D02*
X124642857Y-71427200D01*
X124642857Y-71427200D02*
X124500000Y-71474819D01*
X124500000Y-71474819D02*
X124261905Y-71474819D01*
X125214286Y-70570057D02*
X125261905Y-70522438D01*
X125261905Y-70522438D02*
X125357143Y-70474819D01*
X125357143Y-70474819D02*
X125595238Y-70474819D01*
X125595238Y-70474819D02*
X125690476Y-70522438D01*
X125690476Y-70522438D02*
X125738095Y-70570057D01*
X125738095Y-70570057D02*
X125785714Y-70665295D01*
X125785714Y-70665295D02*
X125785714Y-70760533D01*
X125785714Y-70760533D02*
X125738095Y-70903390D01*
X125738095Y-70903390D02*
X125166667Y-71474819D01*
X125166667Y-71474819D02*
X125785714Y-71474819D01*
D13*
X106666666Y-69757419D02*
X106666666Y-70471704D01*
X106666666Y-70471704D02*
X106619047Y-70614561D01*
X106619047Y-70614561D02*
X106523809Y-70709800D01*
X106523809Y-70709800D02*
X106380952Y-70757419D01*
X106380952Y-70757419D02*
X106285714Y-70757419D01*
X107666666Y-70757419D02*
X107095238Y-70757419D01*
X107380952Y-70757419D02*
X107380952Y-69757419D01*
X107380952Y-69757419D02*
X107285714Y-69900276D01*
X107285714Y-69900276D02*
X107190476Y-69995514D01*
X107190476Y-69995514D02*
X107095238Y-70043133D01*
D12*
X124261905Y-74834819D02*
X124261905Y-73834819D01*
X124261905Y-73834819D02*
X124500000Y-73834819D01*
X124500000Y-73834819D02*
X124642857Y-73882438D01*
X124642857Y-73882438D02*
X124738095Y-73977676D01*
X124738095Y-73977676D02*
X124785714Y-74072914D01*
X124785714Y-74072914D02*
X124833333Y-74263390D01*
X124833333Y-74263390D02*
X124833333Y-74406247D01*
X124833333Y-74406247D02*
X124785714Y-74596723D01*
X124785714Y-74596723D02*
X124738095Y-74691961D01*
X124738095Y-74691961D02*
X124642857Y-74787200D01*
X124642857Y-74787200D02*
X124500000Y-74834819D01*
X124500000Y-74834819D02*
X124261905Y-74834819D01*
X125690476Y-74168152D02*
X125690476Y-74834819D01*
X125452381Y-73787200D02*
X125214286Y-74501485D01*
X125214286Y-74501485D02*
X125833333Y-74501485D01*
D13*
X142666666Y-69757419D02*
X142666666Y-70471704D01*
X142666666Y-70471704D02*
X142619047Y-70614561D01*
X142619047Y-70614561D02*
X142523809Y-70709800D01*
X142523809Y-70709800D02*
X142380952Y-70757419D01*
X142380952Y-70757419D02*
X142285714Y-70757419D01*
X143095238Y-69852657D02*
X143142857Y-69805038D01*
X143142857Y-69805038D02*
X143238095Y-69757419D01*
X143238095Y-69757419D02*
X143476190Y-69757419D01*
X143476190Y-69757419D02*
X143571428Y-69805038D01*
X143571428Y-69805038D02*
X143619047Y-69852657D01*
X143619047Y-69852657D02*
X143666666Y-69947895D01*
X143666666Y-69947895D02*
X143666666Y-70043133D01*
X143666666Y-70043133D02*
X143619047Y-70185990D01*
X143619047Y-70185990D02*
X143047619Y-70757419D01*
X143047619Y-70757419D02*
X143666666Y-70757419D01*
D12*
X121074819Y-73438094D02*
X120074819Y-73438094D01*
X120074819Y-73438094D02*
X120074819Y-73199999D01*
X120074819Y-73199999D02*
X120122438Y-73057142D01*
X120122438Y-73057142D02*
X120217676Y-72961904D01*
X120217676Y-72961904D02*
X120312914Y-72914285D01*
X120312914Y-72914285D02*
X120503390Y-72866666D01*
X120503390Y-72866666D02*
X120646247Y-72866666D01*
X120646247Y-72866666D02*
X120836723Y-72914285D01*
X120836723Y-72914285D02*
X120931961Y-72961904D01*
X120931961Y-72961904D02*
X121027200Y-73057142D01*
X121027200Y-73057142D02*
X121074819Y-73199999D01*
X121074819Y-73199999D02*
X121074819Y-73438094D01*
X121074819Y-71914285D02*
X121074819Y-72485713D01*
X121074819Y-72199999D02*
X120074819Y-72199999D01*
X120074819Y-72199999D02*
X120217676Y-72295237D01*
X120217676Y-72295237D02*
X120312914Y-72390475D01*
X120312914Y-72390475D02*
X120360533Y-72485713D01*
X120849819Y-94333333D02*
X121564104Y-94333333D01*
X121564104Y-94333333D02*
X121706961Y-94380952D01*
X121706961Y-94380952D02*
X121802200Y-94476190D01*
X121802200Y-94476190D02*
X121849819Y-94619047D01*
X121849819Y-94619047D02*
X121849819Y-94714285D01*
X121183152Y-93428571D02*
X121849819Y-93428571D01*
X120802200Y-93666666D02*
X121516485Y-93904761D01*
X121516485Y-93904761D02*
X121516485Y-93285714D01*
D13*
X124666666Y-81757419D02*
X124666666Y-82471704D01*
X124666666Y-82471704D02*
X124619047Y-82614561D01*
X124619047Y-82614561D02*
X124523809Y-82709800D01*
X124523809Y-82709800D02*
X124380952Y-82757419D01*
X124380952Y-82757419D02*
X124285714Y-82757419D01*
X125047619Y-81757419D02*
X125666666Y-81757419D01*
X125666666Y-81757419D02*
X125333333Y-82138371D01*
X125333333Y-82138371D02*
X125476190Y-82138371D01*
X125476190Y-82138371D02*
X125571428Y-82185990D01*
X125571428Y-82185990D02*
X125619047Y-82233609D01*
X125619047Y-82233609D02*
X125666666Y-82328847D01*
X125666666Y-82328847D02*
X125666666Y-82566942D01*
X125666666Y-82566942D02*
X125619047Y-82662180D01*
X125619047Y-82662180D02*
X125571428Y-82709800D01*
X125571428Y-82709800D02*
X125476190Y-82757419D01*
X125476190Y-82757419D02*
X125190476Y-82757419D01*
X125190476Y-82757419D02*
X125095238Y-82709800D01*
X125095238Y-82709800D02*
X125047619Y-82662180D01*
D14*
%TO.C,T2*%
X132000000Y-88301240D02*
X141999980Y-88301240D01*
X141999980Y-88301240D02*
X141999980Y-83698760D01*
X132000000Y-83698760D02*
X132000000Y-88301240D01*
X141999980Y-83698760D02*
X132000000Y-83698760D01*
%TO.C,T1*%
X108000000Y-88301240D02*
X117999980Y-88301240D01*
X117999980Y-88301240D02*
X117999980Y-83698760D01*
X108000000Y-83698760D02*
X108000000Y-88301240D01*
X117999980Y-83698760D02*
X108000000Y-83698760D01*
D15*
%TO.C,D3*%
X131500000Y-75460000D02*
X131500000Y-74810000D01*
X130380000Y-74810000D02*
X132620000Y-74810000D01*
X132620000Y-74810000D02*
X132620000Y-70570000D01*
X130380000Y-74210000D02*
X132620000Y-74210000D01*
X130380000Y-74090000D02*
X132620000Y-74090000D01*
X130380000Y-73970000D02*
X132620000Y-73970000D01*
X130380000Y-70570000D02*
X130380000Y-74810000D01*
X132620000Y-70570000D02*
X130380000Y-70570000D01*
X131500000Y-69920000D02*
X131500000Y-70570000D01*
%TO.C,D2*%
X127770000Y-68900000D02*
X127120000Y-68900000D01*
X127120000Y-70020000D02*
X127120000Y-67780000D01*
X127120000Y-67780000D02*
X122880000Y-67780000D01*
X126520000Y-70020000D02*
X126520000Y-67780000D01*
X126400000Y-70020000D02*
X126400000Y-67780000D01*
X126280000Y-70020000D02*
X126280000Y-67780000D01*
X122880000Y-70020000D02*
X127120000Y-70020000D01*
X122880000Y-67780000D02*
X122880000Y-70020000D01*
X122230000Y-68900000D02*
X122880000Y-68900000D01*
%TO.C,G\u002A\u002A\u002A*%
D16*
X104841300Y-85203560D02*
X104892100Y-85208640D01*
X104907340Y-85211180D01*
X104914960Y-85236580D01*
X104927660Y-85297540D01*
X104942900Y-85383900D01*
X104963220Y-85490580D01*
X104968300Y-85508360D01*
X104988620Y-85617580D01*
X105006400Y-85709020D01*
X105021640Y-85775060D01*
X105031800Y-85805540D01*
X105031800Y-85808080D01*
X105059740Y-85823320D01*
X105115620Y-85848720D01*
X105189280Y-85879200D01*
X105273100Y-85912220D01*
X105349300Y-85942700D01*
X105412800Y-85965560D01*
X105448360Y-85975720D01*
X105453440Y-85975720D01*
X105476300Y-85963020D01*
X105529640Y-85927460D01*
X105603300Y-85876660D01*
X105692200Y-85815700D01*
X105697280Y-85813160D01*
X105788720Y-85752200D01*
X105864920Y-85698860D01*
X105920800Y-85663300D01*
X105948740Y-85645520D01*
X105966520Y-85653140D01*
X106004620Y-85681080D01*
X106063040Y-85736960D01*
X106149400Y-85820780D01*
X106174800Y-85846180D01*
X106253540Y-85924920D01*
X106317040Y-85993500D01*
X106362760Y-86044300D01*
X106383080Y-86069700D01*
X106383080Y-86072240D01*
X106370380Y-86095100D01*
X106339900Y-86148440D01*
X106289100Y-86224640D01*
X106228140Y-86313540D01*
X106225600Y-86321160D01*
X106162100Y-86410060D01*
X106111300Y-86486260D01*
X106075740Y-86539600D01*
X106060500Y-86565000D01*
X106065580Y-86590400D01*
X106085900Y-86646280D01*
X106116380Y-86719940D01*
X106149400Y-86803760D01*
X106184960Y-86882500D01*
X106215440Y-86948540D01*
X106235760Y-86989180D01*
X106240840Y-86996800D01*
X106268780Y-87004420D01*
X106329740Y-87019660D01*
X106418640Y-87037440D01*
X106522780Y-87057760D01*
X106530400Y-87060300D01*
X106634540Y-87080620D01*
X106723440Y-87095860D01*
X106786940Y-87111100D01*
X106814880Y-87116180D01*
X106817420Y-87141580D01*
X106822500Y-87200000D01*
X106822500Y-87293980D01*
X106825040Y-87410820D01*
X106825040Y-87423520D01*
X106825040Y-87547980D01*
X106822500Y-87631800D01*
X106819960Y-87685140D01*
X106817420Y-87715620D01*
X106812340Y-87730860D01*
X106804720Y-87733400D01*
X106776780Y-87738480D01*
X106710740Y-87751180D01*
X106624380Y-87768960D01*
X106525320Y-87786740D01*
X106421180Y-87807060D01*
X106334820Y-87824840D01*
X106276400Y-87837540D01*
X106253540Y-87847700D01*
X106240840Y-87873100D01*
X106215440Y-87928980D01*
X106179880Y-88010260D01*
X106154480Y-88076300D01*
X106065580Y-88294740D01*
X106225600Y-88525880D01*
X106286560Y-88614780D01*
X106334820Y-88690980D01*
X106370380Y-88744320D01*
X106383080Y-88769720D01*
X106367840Y-88792580D01*
X106327200Y-88838300D01*
X106266240Y-88901800D01*
X106190040Y-88980540D01*
X106174800Y-88993240D01*
X106083360Y-89084680D01*
X106017320Y-89145640D01*
X105974140Y-89183740D01*
X105951280Y-89196440D01*
X105946200Y-89196440D01*
X105920800Y-89181200D01*
X105864920Y-89145640D01*
X105791260Y-89097380D01*
X105709980Y-89041500D01*
X105623620Y-88983080D01*
X105552500Y-88934820D01*
X105504240Y-88904340D01*
X105483920Y-88894180D01*
X105461060Y-88901800D01*
X105410260Y-88927200D01*
X105367080Y-88950060D01*
X105298500Y-88983080D01*
X105262940Y-88995780D01*
X105245160Y-88993240D01*
X105245160Y-88990700D01*
X105232460Y-88967840D01*
X105207060Y-88906880D01*
X105166420Y-88817980D01*
X105118160Y-88703680D01*
X105064820Y-88574140D01*
X105031800Y-88497940D01*
X104833680Y-88017880D01*
X104861620Y-87995020D01*
X104897180Y-87967080D01*
X104950520Y-87928980D01*
X104965760Y-87918820D01*
X105080060Y-87807060D01*
X105161340Y-87674980D01*
X105207060Y-87525120D01*
X105214680Y-87367640D01*
X105209600Y-87332080D01*
X105166420Y-87189840D01*
X105090220Y-87057760D01*
X105034340Y-86994260D01*
X104902260Y-86892660D01*
X104754940Y-86834240D01*
X104600000Y-86816460D01*
X104437440Y-86836780D01*
X104295200Y-86900280D01*
X104170740Y-86996800D01*
X104069140Y-87128880D01*
X104008180Y-87273660D01*
X103990400Y-87423520D01*
X104013260Y-87588620D01*
X104076760Y-87735940D01*
X104180900Y-87865480D01*
X104285040Y-87951840D01*
X104333300Y-87987400D01*
X104361240Y-88015340D01*
X104363780Y-88020420D01*
X104356160Y-88045820D01*
X104333300Y-88106780D01*
X104297740Y-88193140D01*
X104254560Y-88299820D01*
X104206300Y-88419200D01*
X104152960Y-88541120D01*
X104102160Y-88663040D01*
X104053900Y-88777340D01*
X104010720Y-88873860D01*
X103980240Y-88947520D01*
X103959920Y-88988160D01*
X103954840Y-88995780D01*
X103926900Y-88990700D01*
X103871020Y-88967840D01*
X103835460Y-88950060D01*
X103774500Y-88917040D01*
X103733860Y-88896720D01*
X103721160Y-88894180D01*
X103700840Y-88904340D01*
X103650040Y-88937360D01*
X103576380Y-88985620D01*
X103490020Y-89046580D01*
X103401120Y-89105000D01*
X103327460Y-89153260D01*
X103274120Y-89186280D01*
X103251260Y-89198980D01*
X103230940Y-89183740D01*
X103185220Y-89143100D01*
X103119180Y-89082140D01*
X103040440Y-89005940D01*
X103025200Y-88990700D01*
X102926140Y-88894180D01*
X102860100Y-88825600D01*
X102827080Y-88784960D01*
X102819460Y-88767180D01*
X102834700Y-88741780D01*
X102867720Y-88688440D01*
X102918520Y-88614780D01*
X102979480Y-88525880D01*
X103037900Y-88439520D01*
X103086160Y-88365860D01*
X103119180Y-88315060D01*
X103131880Y-88292200D01*
X103124260Y-88259180D01*
X103101400Y-88200760D01*
X103070920Y-88122020D01*
X103035360Y-88038200D01*
X103002340Y-87956920D01*
X102969320Y-87888340D01*
X102949000Y-87847700D01*
X102941380Y-87837540D01*
X102913440Y-87832460D01*
X102849940Y-87819760D01*
X102761040Y-87801980D01*
X102674680Y-87786740D01*
X102573080Y-87766420D01*
X102486720Y-87748640D01*
X102425760Y-87735940D01*
X102400360Y-87728320D01*
X102374960Y-87718160D01*
X102380040Y-87116180D01*
X102545140Y-87085700D01*
X102649280Y-87065380D01*
X102761040Y-87042520D01*
X102839780Y-87029820D01*
X102969320Y-87004420D01*
X103055680Y-86806300D01*
X103093780Y-86717400D01*
X103121720Y-86643740D01*
X103139500Y-86595480D01*
X103142040Y-86582780D01*
X103131880Y-86554840D01*
X103096320Y-86493880D01*
X103040440Y-86410060D01*
X102992180Y-86336400D01*
X102931220Y-86247500D01*
X102877880Y-86171300D01*
X102842320Y-86117960D01*
X102827080Y-86092560D01*
X102824540Y-86079860D01*
X102832160Y-86062080D01*
X102855020Y-86031600D01*
X102900740Y-85983340D01*
X102969320Y-85912220D01*
X103027740Y-85856340D01*
X103106480Y-85777600D01*
X103172520Y-85711560D01*
X103223320Y-85665840D01*
X103248720Y-85642980D01*
X103271580Y-85653140D01*
X103322380Y-85686160D01*
X103396040Y-85736960D01*
X103484940Y-85797920D01*
X103507800Y-85813160D01*
X103759260Y-85983340D01*
X103962460Y-85902060D01*
X104048820Y-85866500D01*
X104119940Y-85836020D01*
X104165660Y-85818240D01*
X104173280Y-85813160D01*
X104180900Y-85790300D01*
X104193600Y-85729340D01*
X104211380Y-85642980D01*
X104231700Y-85536300D01*
X104234240Y-85518520D01*
X104257100Y-85409300D01*
X104274880Y-85315320D01*
X104290120Y-85249280D01*
X104297740Y-85216260D01*
X104300280Y-85216260D01*
X104325680Y-85211180D01*
X104384100Y-85206100D01*
X104467920Y-85203560D01*
X104566980Y-85201020D01*
X104666040Y-85201020D01*
X104762560Y-85201020D01*
X104841300Y-85203560D01*
G36*
X104841300Y-85203560D02*
G01*
X104892100Y-85208640D01*
X104907340Y-85211180D01*
X104914960Y-85236580D01*
X104927660Y-85297540D01*
X104942900Y-85383900D01*
X104963220Y-85490580D01*
X104968300Y-85508360D01*
X104988620Y-85617580D01*
X105006400Y-85709020D01*
X105021640Y-85775060D01*
X105031800Y-85805540D01*
X105031800Y-85808080D01*
X105059740Y-85823320D01*
X105115620Y-85848720D01*
X105189280Y-85879200D01*
X105273100Y-85912220D01*
X105349300Y-85942700D01*
X105412800Y-85965560D01*
X105448360Y-85975720D01*
X105453440Y-85975720D01*
X105476300Y-85963020D01*
X105529640Y-85927460D01*
X105603300Y-85876660D01*
X105692200Y-85815700D01*
X105697280Y-85813160D01*
X105788720Y-85752200D01*
X105864920Y-85698860D01*
X105920800Y-85663300D01*
X105948740Y-85645520D01*
X105966520Y-85653140D01*
X106004620Y-85681080D01*
X106063040Y-85736960D01*
X106149400Y-85820780D01*
X106174800Y-85846180D01*
X106253540Y-85924920D01*
X106317040Y-85993500D01*
X106362760Y-86044300D01*
X106383080Y-86069700D01*
X106383080Y-86072240D01*
X106370380Y-86095100D01*
X106339900Y-86148440D01*
X106289100Y-86224640D01*
X106228140Y-86313540D01*
X106225600Y-86321160D01*
X106162100Y-86410060D01*
X106111300Y-86486260D01*
X106075740Y-86539600D01*
X106060500Y-86565000D01*
X106065580Y-86590400D01*
X106085900Y-86646280D01*
X106116380Y-86719940D01*
X106149400Y-86803760D01*
X106184960Y-86882500D01*
X106215440Y-86948540D01*
X106235760Y-86989180D01*
X106240840Y-86996800D01*
X106268780Y-87004420D01*
X106329740Y-87019660D01*
X106418640Y-87037440D01*
X106522780Y-87057760D01*
X106530400Y-87060300D01*
X106634540Y-87080620D01*
X106723440Y-87095860D01*
X106786940Y-87111100D01*
X106814880Y-87116180D01*
X106817420Y-87141580D01*
X106822500Y-87200000D01*
X106822500Y-87293980D01*
X106825040Y-87410820D01*
X106825040Y-87423520D01*
X106825040Y-87547980D01*
X106822500Y-87631800D01*
X106819960Y-87685140D01*
X106817420Y-87715620D01*
X106812340Y-87730860D01*
X106804720Y-87733400D01*
X106776780Y-87738480D01*
X106710740Y-87751180D01*
X106624380Y-87768960D01*
X106525320Y-87786740D01*
X106421180Y-87807060D01*
X106334820Y-87824840D01*
X106276400Y-87837540D01*
X106253540Y-87847700D01*
X106240840Y-87873100D01*
X106215440Y-87928980D01*
X106179880Y-88010260D01*
X106154480Y-88076300D01*
X106065580Y-88294740D01*
X106225600Y-88525880D01*
X106286560Y-88614780D01*
X106334820Y-88690980D01*
X106370380Y-88744320D01*
X106383080Y-88769720D01*
X106367840Y-88792580D01*
X106327200Y-88838300D01*
X106266240Y-88901800D01*
X106190040Y-88980540D01*
X106174800Y-88993240D01*
X106083360Y-89084680D01*
X106017320Y-89145640D01*
X105974140Y-89183740D01*
X105951280Y-89196440D01*
X105946200Y-89196440D01*
X105920800Y-89181200D01*
X105864920Y-89145640D01*
X105791260Y-89097380D01*
X105709980Y-89041500D01*
X105623620Y-88983080D01*
X105552500Y-88934820D01*
X105504240Y-88904340D01*
X105483920Y-88894180D01*
X105461060Y-88901800D01*
X105410260Y-88927200D01*
X105367080Y-88950060D01*
X105298500Y-88983080D01*
X105262940Y-88995780D01*
X105245160Y-88993240D01*
X105245160Y-88990700D01*
X105232460Y-88967840D01*
X105207060Y-88906880D01*
X105166420Y-88817980D01*
X105118160Y-88703680D01*
X105064820Y-88574140D01*
X105031800Y-88497940D01*
X104833680Y-88017880D01*
X104861620Y-87995020D01*
X104897180Y-87967080D01*
X104950520Y-87928980D01*
X104965760Y-87918820D01*
X105080060Y-87807060D01*
X105161340Y-87674980D01*
X105207060Y-87525120D01*
X105214680Y-87367640D01*
X105209600Y-87332080D01*
X105166420Y-87189840D01*
X105090220Y-87057760D01*
X105034340Y-86994260D01*
X104902260Y-86892660D01*
X104754940Y-86834240D01*
X104600000Y-86816460D01*
X104437440Y-86836780D01*
X104295200Y-86900280D01*
X104170740Y-86996800D01*
X104069140Y-87128880D01*
X104008180Y-87273660D01*
X103990400Y-87423520D01*
X104013260Y-87588620D01*
X104076760Y-87735940D01*
X104180900Y-87865480D01*
X104285040Y-87951840D01*
X104333300Y-87987400D01*
X104361240Y-88015340D01*
X104363780Y-88020420D01*
X104356160Y-88045820D01*
X104333300Y-88106780D01*
X104297740Y-88193140D01*
X104254560Y-88299820D01*
X104206300Y-88419200D01*
X104152960Y-88541120D01*
X104102160Y-88663040D01*
X104053900Y-88777340D01*
X104010720Y-88873860D01*
X103980240Y-88947520D01*
X103959920Y-88988160D01*
X103954840Y-88995780D01*
X103926900Y-88990700D01*
X103871020Y-88967840D01*
X103835460Y-88950060D01*
X103774500Y-88917040D01*
X103733860Y-88896720D01*
X103721160Y-88894180D01*
X103700840Y-88904340D01*
X103650040Y-88937360D01*
X103576380Y-88985620D01*
X103490020Y-89046580D01*
X103401120Y-89105000D01*
X103327460Y-89153260D01*
X103274120Y-89186280D01*
X103251260Y-89198980D01*
X103230940Y-89183740D01*
X103185220Y-89143100D01*
X103119180Y-89082140D01*
X103040440Y-89005940D01*
X103025200Y-88990700D01*
X102926140Y-88894180D01*
X102860100Y-88825600D01*
X102827080Y-88784960D01*
X102819460Y-88767180D01*
X102834700Y-88741780D01*
X102867720Y-88688440D01*
X102918520Y-88614780D01*
X102979480Y-88525880D01*
X103037900Y-88439520D01*
X103086160Y-88365860D01*
X103119180Y-88315060D01*
X103131880Y-88292200D01*
X103124260Y-88259180D01*
X103101400Y-88200760D01*
X103070920Y-88122020D01*
X103035360Y-88038200D01*
X103002340Y-87956920D01*
X102969320Y-87888340D01*
X102949000Y-87847700D01*
X102941380Y-87837540D01*
X102913440Y-87832460D01*
X102849940Y-87819760D01*
X102761040Y-87801980D01*
X102674680Y-87786740D01*
X102573080Y-87766420D01*
X102486720Y-87748640D01*
X102425760Y-87735940D01*
X102400360Y-87728320D01*
X102374960Y-87718160D01*
X102380040Y-87116180D01*
X102545140Y-87085700D01*
X102649280Y-87065380D01*
X102761040Y-87042520D01*
X102839780Y-87029820D01*
X102969320Y-87004420D01*
X103055680Y-86806300D01*
X103093780Y-86717400D01*
X103121720Y-86643740D01*
X103139500Y-86595480D01*
X103142040Y-86582780D01*
X103131880Y-86554840D01*
X103096320Y-86493880D01*
X103040440Y-86410060D01*
X102992180Y-86336400D01*
X102931220Y-86247500D01*
X102877880Y-86171300D01*
X102842320Y-86117960D01*
X102827080Y-86092560D01*
X102824540Y-86079860D01*
X102832160Y-86062080D01*
X102855020Y-86031600D01*
X102900740Y-85983340D01*
X102969320Y-85912220D01*
X103027740Y-85856340D01*
X103106480Y-85777600D01*
X103172520Y-85711560D01*
X103223320Y-85665840D01*
X103248720Y-85642980D01*
X103271580Y-85653140D01*
X103322380Y-85686160D01*
X103396040Y-85736960D01*
X103484940Y-85797920D01*
X103507800Y-85813160D01*
X103759260Y-85983340D01*
X103962460Y-85902060D01*
X104048820Y-85866500D01*
X104119940Y-85836020D01*
X104165660Y-85818240D01*
X104173280Y-85813160D01*
X104180900Y-85790300D01*
X104193600Y-85729340D01*
X104211380Y-85642980D01*
X104231700Y-85536300D01*
X104234240Y-85518520D01*
X104257100Y-85409300D01*
X104274880Y-85315320D01*
X104290120Y-85249280D01*
X104297740Y-85216260D01*
X104300280Y-85216260D01*
X104325680Y-85211180D01*
X104384100Y-85206100D01*
X104467920Y-85203560D01*
X104566980Y-85201020D01*
X104666040Y-85201020D01*
X104762560Y-85201020D01*
X104841300Y-85203560D01*
G37*
D15*
%TO.C,D4*%
X122230000Y-76500000D02*
X122880000Y-76500000D01*
X122880000Y-75380000D02*
X122880000Y-77620000D01*
X122880000Y-77620000D02*
X127120000Y-77620000D01*
X123480000Y-75380000D02*
X123480000Y-77620000D01*
X123600000Y-75380000D02*
X123600000Y-77620000D01*
X123720000Y-75380000D02*
X123720000Y-77620000D01*
X127120000Y-75380000D02*
X122880000Y-75380000D01*
X127120000Y-77620000D02*
X127120000Y-75380000D01*
X127770000Y-76500000D02*
X127120000Y-76500000D01*
%TO.C,D1*%
X118500000Y-69930000D02*
X118500000Y-70580000D01*
X119620000Y-70580000D02*
X117380000Y-70580000D01*
X117380000Y-70580000D02*
X117380000Y-74820000D01*
X119620000Y-71180000D02*
X117380000Y-71180000D01*
X119620000Y-71300000D02*
X117380000Y-71300000D01*
X119620000Y-71420000D02*
X117380000Y-71420000D01*
X119620000Y-74820000D02*
X119620000Y-70580000D01*
X117380000Y-74820000D02*
X119620000Y-74820000D01*
X118500000Y-75470000D02*
X118500000Y-74820000D01*
%TO.C,J4*%
X122395000Y-95330000D02*
X122395000Y-94000000D01*
X123725000Y-95330000D02*
X122395000Y-95330000D01*
X124995000Y-95330000D02*
X127595000Y-95330000D01*
X124995000Y-95330000D02*
X124995000Y-92670000D01*
X127595000Y-95330000D02*
X127595000Y-92670000D01*
X124995000Y-92670000D02*
X127595000Y-92670000D01*
%TO.C,Ref\u002A\u002A*%
D16*
X139455880Y-92029520D02*
X139473660Y-92034600D01*
X139633680Y-92110800D01*
X139760680Y-92237800D01*
X139849580Y-92395280D01*
X139885140Y-92575620D01*
X139887680Y-92606100D01*
X139880060Y-92664520D01*
X139864820Y-92771200D01*
X139844500Y-92905820D01*
X139816560Y-93058220D01*
X139788620Y-93210620D01*
X139763220Y-93350320D01*
X139740360Y-93457000D01*
X139737820Y-93464620D01*
X139727660Y-93500180D01*
X139219660Y-93500180D01*
X139046940Y-93502720D01*
X138902160Y-93502720D01*
X138864060Y-93502720D01*
X138790400Y-93505260D01*
X138724360Y-93505260D01*
X138709120Y-93507800D01*
X138704040Y-93538280D01*
X138688800Y-93614480D01*
X138668480Y-93705920D01*
X138645620Y-93840540D01*
X138638000Y-93931980D01*
X138653240Y-93990400D01*
X138691340Y-94038660D01*
X138701500Y-94048820D01*
X138759920Y-94086920D01*
X138831040Y-94097080D01*
X138836120Y-94097080D01*
X138925020Y-94086920D01*
X138996140Y-94048820D01*
X139036780Y-94013260D01*
X139095200Y-93944680D01*
X139135840Y-93860860D01*
X139163780Y-93744020D01*
X139189180Y-93619560D01*
X139443180Y-93614480D01*
X139570180Y-93614480D01*
X139646380Y-93614480D01*
X139684480Y-93619560D01*
X139697180Y-93629720D01*
X139697180Y-93637340D01*
X139692100Y-93675440D01*
X139674320Y-93764340D01*
X139648920Y-93901500D01*
X139615900Y-94079300D01*
X139575260Y-94287580D01*
X139527000Y-94521260D01*
X139493980Y-94693980D01*
X139445720Y-94937820D01*
X139402540Y-95161340D01*
X139364440Y-95359460D01*
X139333960Y-95519480D01*
X139311100Y-95638860D01*
X139298400Y-95709980D01*
X139295860Y-95725220D01*
X139316180Y-95702360D01*
X139366980Y-95638860D01*
X139448260Y-95537260D01*
X139549860Y-95407720D01*
X139666700Y-95257860D01*
X139722580Y-95189280D01*
X140144220Y-94648260D01*
X140657300Y-94648260D01*
X140255980Y-95143560D01*
X140134060Y-95295960D01*
X140027380Y-95430580D01*
X139941020Y-95542340D01*
X139882600Y-95623620D01*
X139854660Y-95664260D01*
X139854660Y-95666800D01*
X139862280Y-95702360D01*
X139885140Y-95791260D01*
X139920700Y-95920800D01*
X139963880Y-96088440D01*
X140017220Y-96278940D01*
X140116280Y-96639620D01*
X140167080Y-96825040D01*
X140207720Y-96979980D01*
X140240740Y-97099360D01*
X140258520Y-97170480D01*
X140263600Y-97190800D01*
X140233120Y-97198420D01*
X140149300Y-97203500D01*
X140022300Y-97206040D01*
X139981660Y-97206040D01*
X139847040Y-97206040D01*
X139763220Y-97203500D01*
X139717500Y-97198420D01*
X139697180Y-97188260D01*
X139692100Y-97173020D01*
X139689560Y-97170480D01*
X139681940Y-97129840D01*
X139661620Y-97038400D01*
X139636220Y-96906320D01*
X139603200Y-96748840D01*
X139577800Y-96632000D01*
X139544780Y-96464360D01*
X139514300Y-96319580D01*
X139491440Y-96207820D01*
X139476200Y-96141780D01*
X139471120Y-96126540D01*
X139450800Y-96146860D01*
X139400000Y-96200200D01*
X139326340Y-96276400D01*
X139247600Y-96365300D01*
X139171400Y-96451660D01*
X139161240Y-96461820D01*
X139140920Y-96510080D01*
X139112980Y-96611680D01*
X139077420Y-96774240D01*
X139069800Y-96814880D01*
X139041860Y-96952040D01*
X139021540Y-97066340D01*
X139003760Y-97145080D01*
X138998680Y-97170480D01*
X138993600Y-97188260D01*
X138973280Y-97198420D01*
X138930100Y-97203500D01*
X138846280Y-97206040D01*
X138742140Y-97206040D01*
X138622760Y-97203500D01*
X138533860Y-97200960D01*
X138488140Y-97195880D01*
X138485600Y-97193340D01*
X138488140Y-97162860D01*
X138503380Y-97073960D01*
X138528780Y-96939340D01*
X138564340Y-96759000D01*
X138604980Y-96545640D01*
X138653240Y-96301800D01*
X138706580Y-96037640D01*
X138790400Y-95621080D01*
X138841200Y-95367080D01*
X138884380Y-95138480D01*
X138922480Y-94940360D01*
X138952960Y-94785420D01*
X138975820Y-94673660D01*
X138985980Y-94612700D01*
X138985980Y-94605080D01*
X138955500Y-94605080D01*
X138884380Y-94615240D01*
X138861520Y-94617780D01*
X138665940Y-94622860D01*
X138483060Y-94577140D01*
X138325580Y-94485700D01*
X138208740Y-94356160D01*
X138188420Y-94323140D01*
X138137620Y-94185980D01*
X138117300Y-94020880D01*
X138117300Y-93919280D01*
X138127460Y-93848160D01*
X138147780Y-93731320D01*
X138175720Y-93581460D01*
X138208740Y-93408740D01*
X138244300Y-93228400D01*
X138279860Y-93053140D01*
X138280434Y-93050600D01*
X138792940Y-93050600D01*
X138795480Y-93063300D01*
X138813260Y-93070920D01*
X138864060Y-93076000D01*
X138958040Y-93076000D01*
X139041860Y-93073460D01*
X139295860Y-93068380D01*
X139323800Y-92951540D01*
X139346660Y-92811840D01*
X139351740Y-92687380D01*
X139333960Y-92598480D01*
X139331420Y-92593400D01*
X139267920Y-92532440D01*
X139179020Y-92512120D01*
X139074880Y-92527360D01*
X138978360Y-92575620D01*
X138907240Y-92654360D01*
X138899620Y-92667060D01*
X138871680Y-92735640D01*
X138843740Y-92834700D01*
X138833580Y-92875340D01*
X138813260Y-92969320D01*
X138798020Y-93035360D01*
X138792940Y-93050600D01*
X138280434Y-93050600D01*
X138315420Y-92895660D01*
X138343360Y-92766120D01*
X138363680Y-92677220D01*
X138371300Y-92654360D01*
X138465280Y-92474020D01*
X138602440Y-92306380D01*
X138770080Y-92164140D01*
X138952960Y-92062540D01*
X139072340Y-92026980D01*
X139196800Y-92011740D01*
X139336500Y-92011740D01*
X139455880Y-92029520D01*
G36*
X139455880Y-92029520D02*
G01*
X139473660Y-92034600D01*
X139633680Y-92110800D01*
X139760680Y-92237800D01*
X139849580Y-92395280D01*
X139885140Y-92575620D01*
X139887680Y-92606100D01*
X139880060Y-92664520D01*
X139864820Y-92771200D01*
X139844500Y-92905820D01*
X139816560Y-93058220D01*
X139788620Y-93210620D01*
X139763220Y-93350320D01*
X139740360Y-93457000D01*
X139737820Y-93464620D01*
X139727660Y-93500180D01*
X139219660Y-93500180D01*
X139046940Y-93502720D01*
X138902160Y-93502720D01*
X138864060Y-93502720D01*
X138790400Y-93505260D01*
X138724360Y-93505260D01*
X138709120Y-93507800D01*
X138704040Y-93538280D01*
X138688800Y-93614480D01*
X138668480Y-93705920D01*
X138645620Y-93840540D01*
X138638000Y-93931980D01*
X138653240Y-93990400D01*
X138691340Y-94038660D01*
X138701500Y-94048820D01*
X138759920Y-94086920D01*
X138831040Y-94097080D01*
X138836120Y-94097080D01*
X138925020Y-94086920D01*
X138996140Y-94048820D01*
X139036780Y-94013260D01*
X139095200Y-93944680D01*
X139135840Y-93860860D01*
X139163780Y-93744020D01*
X139189180Y-93619560D01*
X139443180Y-93614480D01*
X139570180Y-93614480D01*
X139646380Y-93614480D01*
X139684480Y-93619560D01*
X139697180Y-93629720D01*
X139697180Y-93637340D01*
X139692100Y-93675440D01*
X139674320Y-93764340D01*
X139648920Y-93901500D01*
X139615900Y-94079300D01*
X139575260Y-94287580D01*
X139527000Y-94521260D01*
X139493980Y-94693980D01*
X139445720Y-94937820D01*
X139402540Y-95161340D01*
X139364440Y-95359460D01*
X139333960Y-95519480D01*
X139311100Y-95638860D01*
X139298400Y-95709980D01*
X139295860Y-95725220D01*
X139316180Y-95702360D01*
X139366980Y-95638860D01*
X139448260Y-95537260D01*
X139549860Y-95407720D01*
X139666700Y-95257860D01*
X139722580Y-95189280D01*
X140144220Y-94648260D01*
X140657300Y-94648260D01*
X140255980Y-95143560D01*
X140134060Y-95295960D01*
X140027380Y-95430580D01*
X139941020Y-95542340D01*
X139882600Y-95623620D01*
X139854660Y-95664260D01*
X139854660Y-95666800D01*
X139862280Y-95702360D01*
X139885140Y-95791260D01*
X139920700Y-95920800D01*
X139963880Y-96088440D01*
X140017220Y-96278940D01*
X140116280Y-96639620D01*
X140167080Y-96825040D01*
X140207720Y-96979980D01*
X140240740Y-97099360D01*
X140258520Y-97170480D01*
X140263600Y-97190800D01*
X140233120Y-97198420D01*
X140149300Y-97203500D01*
X140022300Y-97206040D01*
X139981660Y-97206040D01*
X139847040Y-97206040D01*
X139763220Y-97203500D01*
X139717500Y-97198420D01*
X139697180Y-97188260D01*
X139692100Y-97173020D01*
X139689560Y-97170480D01*
X139681940Y-97129840D01*
X139661620Y-97038400D01*
X139636220Y-96906320D01*
X139603200Y-96748840D01*
X139577800Y-96632000D01*
X139544780Y-96464360D01*
X139514300Y-96319580D01*
X139491440Y-96207820D01*
X139476200Y-96141780D01*
X139471120Y-96126540D01*
X139450800Y-96146860D01*
X139400000Y-96200200D01*
X139326340Y-96276400D01*
X139247600Y-96365300D01*
X139171400Y-96451660D01*
X139161240Y-96461820D01*
X139140920Y-96510080D01*
X139112980Y-96611680D01*
X139077420Y-96774240D01*
X139069800Y-96814880D01*
X139041860Y-96952040D01*
X139021540Y-97066340D01*
X139003760Y-97145080D01*
X138998680Y-97170480D01*
X138993600Y-97188260D01*
X138973280Y-97198420D01*
X138930100Y-97203500D01*
X138846280Y-97206040D01*
X138742140Y-97206040D01*
X138622760Y-97203500D01*
X138533860Y-97200960D01*
X138488140Y-97195880D01*
X138485600Y-97193340D01*
X138488140Y-97162860D01*
X138503380Y-97073960D01*
X138528780Y-96939340D01*
X138564340Y-96759000D01*
X138604980Y-96545640D01*
X138653240Y-96301800D01*
X138706580Y-96037640D01*
X138790400Y-95621080D01*
X138841200Y-95367080D01*
X138884380Y-95138480D01*
X138922480Y-94940360D01*
X138952960Y-94785420D01*
X138975820Y-94673660D01*
X138985980Y-94612700D01*
X138985980Y-94605080D01*
X138955500Y-94605080D01*
X138884380Y-94615240D01*
X138861520Y-94617780D01*
X138665940Y-94622860D01*
X138483060Y-94577140D01*
X138325580Y-94485700D01*
X138208740Y-94356160D01*
X138188420Y-94323140D01*
X138137620Y-94185980D01*
X138117300Y-94020880D01*
X138117300Y-93919280D01*
X138127460Y-93848160D01*
X138147780Y-93731320D01*
X138175720Y-93581460D01*
X138208740Y-93408740D01*
X138244300Y-93228400D01*
X138279860Y-93053140D01*
X138280434Y-93050600D01*
X138792940Y-93050600D01*
X138795480Y-93063300D01*
X138813260Y-93070920D01*
X138864060Y-93076000D01*
X138958040Y-93076000D01*
X139041860Y-93073460D01*
X139295860Y-93068380D01*
X139323800Y-92951540D01*
X139346660Y-92811840D01*
X139351740Y-92687380D01*
X139333960Y-92598480D01*
X139331420Y-92593400D01*
X139267920Y-92532440D01*
X139179020Y-92512120D01*
X139074880Y-92527360D01*
X138978360Y-92575620D01*
X138907240Y-92654360D01*
X138899620Y-92667060D01*
X138871680Y-92735640D01*
X138843740Y-92834700D01*
X138833580Y-92875340D01*
X138813260Y-92969320D01*
X138798020Y-93035360D01*
X138792940Y-93050600D01*
X138280434Y-93050600D01*
X138315420Y-92895660D01*
X138343360Y-92766120D01*
X138363680Y-92677220D01*
X138371300Y-92654360D01*
X138465280Y-92474020D01*
X138602440Y-92306380D01*
X138770080Y-92164140D01*
X138952960Y-92062540D01*
X139072340Y-92026980D01*
X139196800Y-92011740D01*
X139336500Y-92011740D01*
X139455880Y-92029520D01*
G37*
%TD*%
%LPC*%
D17*
%TO.C,T2*%
X141000000Y-87000000D03*
X137000000Y-85000000D03*
X139000000Y-87000000D03*
X135000000Y-85000000D03*
X137000000Y-87000000D03*
X133000000Y-85000000D03*
%TD*%
%TO.C,T1*%
X117000000Y-87000000D03*
X113000000Y-85000000D03*
X115000000Y-87000000D03*
X111000000Y-85000000D03*
X113000000Y-87000000D03*
X109000000Y-85000000D03*
%TD*%
D18*
%TO.C,D3*%
X131500000Y-76500000D03*
D19*
X131500000Y-68880000D03*
%TD*%
D18*
%TO.C,D2*%
X128810000Y-68900000D03*
D19*
X121190000Y-68900000D03*
%TD*%
D20*
%TO.C,J1*%
X107000000Y-75000000D03*
D21*
X104450000Y-72450000D03*
X104450000Y-77550000D03*
X109550000Y-72450000D03*
X109550000Y-77550000D03*
%TD*%
D22*
%TO.C,H1*%
X102600000Y-55000000D03*
X103302944Y-53302944D03*
X103302944Y-56697056D03*
X105000000Y-52600000D03*
D23*
X105000000Y-55000000D03*
D22*
X105000000Y-57400000D03*
X106697056Y-53302944D03*
X106697056Y-56697056D03*
X107400000Y-55000000D03*
%TD*%
D18*
%TO.C,D4*%
X121190000Y-76500000D03*
D19*
X128810000Y-76500000D03*
%TD*%
D22*
%TO.C,H2*%
X142600000Y-55000000D03*
X143302944Y-53302944D03*
X143302944Y-56697056D03*
X145000000Y-52600000D03*
D23*
X145000000Y-55000000D03*
D22*
X145000000Y-57400000D03*
X146697056Y-53302944D03*
X146697056Y-56697056D03*
X147400000Y-55000000D03*
%TD*%
D20*
%TO.C,J2*%
X143000000Y-75000000D03*
D21*
X140450000Y-72450000D03*
X140450000Y-77550000D03*
X145550000Y-72450000D03*
X145550000Y-77550000D03*
%TD*%
D22*
%TO.C,H4*%
X142600000Y-95000000D03*
X143302944Y-93302944D03*
X143302944Y-96697056D03*
X145000000Y-92600000D03*
D23*
X145000000Y-95000000D03*
D22*
X145000000Y-97400000D03*
X146697056Y-93302944D03*
X146697056Y-96697056D03*
X147400000Y-95000000D03*
%TD*%
%TO.C,H3*%
X102600000Y-95000000D03*
X103302944Y-93302944D03*
X103302944Y-96697056D03*
X105000000Y-92600000D03*
D23*
X105000000Y-95000000D03*
D22*
X105000000Y-97400000D03*
X106697056Y-93302944D03*
X106697056Y-96697056D03*
X107400000Y-95000000D03*
%TD*%
D18*
%TO.C,D1*%
X118500000Y-68890000D03*
D19*
X118500000Y-76510000D03*
%TD*%
D24*
%TO.C,J4*%
X123725000Y-94000000D03*
D25*
X126265000Y-94000000D03*
%TD*%
D20*
%TO.C,J3*%
X125000000Y-87000000D03*
D21*
X122450000Y-84450000D03*
X122450000Y-89550000D03*
X127550000Y-84450000D03*
X127550000Y-89550000D03*
%TD*%
G36*
X102003031Y-51750149D02*
G01*
X102018420Y-51750905D01*
X102030531Y-51752098D01*
X102038917Y-51753342D01*
X102102343Y-51782651D01*
X102139854Y-51841597D01*
X102139542Y-51911466D01*
X102101505Y-51970075D01*
X102037820Y-51998815D01*
X102020722Y-52000000D01*
X102000000Y-52000000D01*
X102000000Y-98000000D01*
X102020722Y-98000000D01*
X102087761Y-98019685D01*
X102133516Y-98072489D01*
X102143460Y-98141647D01*
X102114435Y-98205203D01*
X102055657Y-98242977D01*
X102038903Y-98246660D01*
X102030517Y-98247903D01*
X102018428Y-98249093D01*
X102003039Y-98249850D01*
X101996947Y-98250000D01*
X100133328Y-98250000D01*
X100066289Y-98230315D01*
X100020534Y-98177511D01*
X100009644Y-98134846D01*
X100000316Y-98004418D01*
X100000000Y-97995572D01*
X100000000Y-52004427D01*
X100000316Y-51995581D01*
X100009644Y-51865154D01*
X100034061Y-51799690D01*
X100089994Y-51757818D01*
X100133328Y-51750000D01*
X101996947Y-51750000D01*
X102003031Y-51750149D01*
G37*
G36*
X101943039Y-97769685D02*
G01*
X101988794Y-97822489D01*
X102000000Y-97874000D01*
X102000000Y-98000000D01*
X148000000Y-98000000D01*
X148000000Y-97874000D01*
X148019685Y-97806961D01*
X148072489Y-97761206D01*
X148124000Y-97750000D01*
X149876000Y-97750000D01*
X149943039Y-97769685D01*
X149988794Y-97822489D01*
X150000000Y-97874000D01*
X150000000Y-97995572D01*
X149999684Y-98004418D01*
X149980275Y-98275785D01*
X149977757Y-98293297D01*
X149920872Y-98554794D01*
X149915888Y-98571770D01*
X149822361Y-98822524D01*
X149815011Y-98838617D01*
X149686758Y-99073496D01*
X149677193Y-99088380D01*
X149516811Y-99302624D01*
X149505225Y-99315994D01*
X149315994Y-99505225D01*
X149302624Y-99516811D01*
X149088380Y-99677193D01*
X149073496Y-99686758D01*
X148838617Y-99815011D01*
X148822524Y-99822361D01*
X148571770Y-99915888D01*
X148554794Y-99920872D01*
X148293297Y-99977757D01*
X148275785Y-99980275D01*
X148004418Y-99999684D01*
X147995572Y-100000000D01*
X102004428Y-100000000D01*
X101995582Y-99999684D01*
X101724214Y-99980275D01*
X101706702Y-99977757D01*
X101445205Y-99920872D01*
X101428229Y-99915888D01*
X101177475Y-99822361D01*
X101161382Y-99815011D01*
X100926503Y-99686758D01*
X100911619Y-99677193D01*
X100697375Y-99516811D01*
X100684005Y-99505225D01*
X100494774Y-99315994D01*
X100483188Y-99302624D01*
X100322806Y-99088380D01*
X100313241Y-99073496D01*
X100184988Y-98838617D01*
X100177638Y-98822524D01*
X100084111Y-98571770D01*
X100079127Y-98554794D01*
X100022242Y-98293297D01*
X100019724Y-98275785D01*
X100000316Y-98004418D01*
X100000000Y-97995572D01*
X100000000Y-97874000D01*
X100019685Y-97806961D01*
X100072489Y-97761206D01*
X100124000Y-97750000D01*
X101876000Y-97750000D01*
X101943039Y-97769685D01*
G37*
G36*
X149933711Y-51769685D02*
G01*
X149979466Y-51822489D01*
X149990356Y-51865154D01*
X149999684Y-51995581D01*
X150000000Y-52004427D01*
X150000000Y-97995572D01*
X149999684Y-98004418D01*
X149990356Y-98134846D01*
X149965939Y-98200310D01*
X149910006Y-98242182D01*
X149866672Y-98250000D01*
X148003053Y-98250000D01*
X147996961Y-98249850D01*
X147981571Y-98249093D01*
X147969480Y-98247903D01*
X147961095Y-98246660D01*
X147897667Y-98217357D01*
X147860149Y-98158415D01*
X147860455Y-98088546D01*
X147898486Y-98029933D01*
X147962167Y-98001186D01*
X147979278Y-98000000D01*
X148000000Y-98000000D01*
X148000000Y-52000000D01*
X147979278Y-52000000D01*
X147912239Y-51980315D01*
X147866484Y-51927511D01*
X147856540Y-51858353D01*
X147885565Y-51794797D01*
X147944343Y-51757023D01*
X147961081Y-51753343D01*
X147969466Y-51752099D01*
X147981579Y-51750905D01*
X147996969Y-51750149D01*
X148003053Y-51750000D01*
X149866672Y-51750000D01*
X149933711Y-51769685D01*
G37*
G36*
X148004418Y-50000316D02*
G01*
X148275785Y-50019724D01*
X148293297Y-50022242D01*
X148554794Y-50079127D01*
X148571770Y-50084111D01*
X148822524Y-50177638D01*
X148838617Y-50184988D01*
X149073496Y-50313241D01*
X149088380Y-50322806D01*
X149302624Y-50483188D01*
X149315994Y-50494774D01*
X149505225Y-50684005D01*
X149516811Y-50697375D01*
X149677193Y-50911619D01*
X149686758Y-50926503D01*
X149815011Y-51161382D01*
X149822361Y-51177475D01*
X149915888Y-51428229D01*
X149920872Y-51445205D01*
X149977757Y-51706702D01*
X149980275Y-51724214D01*
X149999684Y-51995581D01*
X150000000Y-52004427D01*
X150000000Y-52126000D01*
X149980315Y-52193039D01*
X149927511Y-52238794D01*
X149876000Y-52250000D01*
X148124000Y-52250000D01*
X148056961Y-52230315D01*
X148011206Y-52177511D01*
X148000000Y-52126000D01*
X148000000Y-52000000D01*
X102000000Y-52000000D01*
X102000000Y-52126000D01*
X101980315Y-52193039D01*
X101927511Y-52238794D01*
X101876000Y-52250000D01*
X100124000Y-52250000D01*
X100056961Y-52230315D01*
X100011206Y-52177511D01*
X100000000Y-52126000D01*
X100000000Y-52004427D01*
X100000316Y-51995581D01*
X100019724Y-51724214D01*
X100022242Y-51706702D01*
X100079127Y-51445205D01*
X100084111Y-51428229D01*
X100177638Y-51177475D01*
X100184988Y-51161382D01*
X100313241Y-50926503D01*
X100322806Y-50911619D01*
X100483188Y-50697375D01*
X100494774Y-50684005D01*
X100684005Y-50494774D01*
X100697375Y-50483188D01*
X100911619Y-50322806D01*
X100926503Y-50313241D01*
X101161382Y-50184988D01*
X101177475Y-50177638D01*
X101428229Y-50084111D01*
X101445205Y-50079127D01*
X101706702Y-50022242D01*
X101724214Y-50019724D01*
X101995582Y-50000316D01*
X102004428Y-50000000D01*
X147995572Y-50000000D01*
X148004418Y-50000316D01*
G37*
%LPD*%
M02*
