M48
; DRILL file {KiCad 7.0.10-7.0.10~ubuntu22.04.1} date Wed 03 Jan 2024 06:17:24 PM PST
; FORMAT={-:-/ absolute / inch / decimal}
; #@! TF.CreationDate,2024-01-03T18:17:24-08:00
; #@! TF.GenerationSoftware,Kicad,Pcbnew,7.0.10-7.0.10~ubuntu22.04.1
; #@! TF.FileFunction,Plated,1,2,PTH
FMAT,2
INCH
; #@! TA.AperFunction,Plated,PTH,ViaDrill
T1C0.0118
; #@! TA.AperFunction,Plated,PTH,ComponentDrill
T2C0.0197
; #@! TA.AperFunction,Plated,PTH,ComponentDrill
T3C0.0276
; #@! TA.AperFunction,Plated,PTH,ComponentDrill
T4C0.0315
; #@! TA.AperFunction,Plated,PTH,ComponentDrill
T5C0.0394
; #@! TA.AperFunction,Plated,PTH,ComponentDrill
T6C0.0591
; #@! TA.AperFunction,Plated,PTH,ComponentDrill
T7C0.0630
; #@! TA.AperFunction,Plated,PTH,ComponentDrill
T8C0.1260
%
G90
G05
T1
X3.9764Y-2.0472
X3.9764Y-2.2441
X3.9764Y-2.4409
X3.9764Y-2.6378
X3.9764Y-2.8346
X3.9764Y-3.0315
X3.9764Y-3.2283
X3.9764Y-3.4252
X3.9764Y-3.622
X3.9764Y-3.8189
X4.0157Y-2.0079
X4.0157Y-3.8976
X4.2126Y-2.0079
X4.2126Y-3.8976
X4.4094Y-2.0079
X4.4094Y-3.8976
X4.6063Y-2.0079
X4.6063Y-3.8976
X4.8031Y-2.0079
X4.8031Y-3.8976
X5.0Y-2.0079
X5.0Y-3.8976
X5.1969Y-2.0079
X5.1969Y-3.8976
X5.3937Y-2.0079
X5.3937Y-3.8976
X5.5906Y-2.0079
X5.5906Y-3.8976
X5.7874Y-2.0079
X5.7874Y-3.8976
X5.8661Y-2.0472
X5.8661Y-2.2441
X5.8661Y-2.4409
X5.8661Y-2.6378
X5.8661Y-2.8346
X5.8661Y-3.0315
X5.8661Y-3.2283
X5.8661Y-3.4252
X5.8661Y-3.622
X5.8661Y-3.8189
T2
X4.0394Y-2.1654
X4.0394Y-3.7402
X4.067Y-2.0985
X4.067Y-2.2322
X4.067Y-3.6733
X4.067Y-3.807
X4.1339Y-2.0709
X4.1339Y-2.2598
X4.1339Y-3.6457
X4.1339Y-3.8346
X4.2007Y-2.0985
X4.2007Y-2.2322
X4.2007Y-3.6733
X4.2007Y-3.807
X4.2283Y-2.1654
X4.2283Y-3.7402
X5.6142Y-2.1654
X5.6142Y-3.7402
X5.6418Y-2.0985
X5.6418Y-2.2322
X5.6418Y-3.6733
X5.6418Y-3.807
X5.7087Y-2.0709
X5.7087Y-2.2598
X5.7087Y-3.6457
X5.7087Y-3.8346
X5.7755Y-2.0985
X5.7755Y-2.2322
X5.7755Y-3.6733
X5.7755Y-3.807
X5.8031Y-2.1654
X5.8031Y-3.7402
T3
X4.2913Y-3.3465
X4.3701Y-3.3465
X4.4488Y-3.3465
X4.4488Y-3.4252
X4.5276Y-3.4252
X4.6063Y-3.4252
X5.2362Y-3.3465
X5.315Y-3.3465
X5.3937Y-3.3465
X5.3937Y-3.4252
X5.4724Y-3.4252
X5.5512Y-3.4252
T4
X4.6654Y-2.7122
X4.6654Y-3.0122
X4.7713Y-2.7126
X4.7713Y-3.0118
X5.0713Y-2.7126
X5.0713Y-3.0118
X5.1772Y-2.7118
X5.1772Y-3.0118
T5
X4.8711Y-3.7008
X4.9711Y-3.7008
T6
X4.2126Y-2.9528
X4.9213Y-3.4252
X5.6299Y-2.9528
T7
X4.1122Y-2.8524
X4.1122Y-3.0531
X4.313Y-2.8524
X4.313Y-3.0531
X4.8209Y-3.3248
X4.8209Y-3.5256
X5.0217Y-3.3248
X5.0217Y-3.5256
X5.5295Y-2.8524
X5.5295Y-3.0531
X5.7303Y-2.8524
X5.7303Y-3.0531
T8
X4.1339Y-2.1654
X4.1339Y-3.7402
X5.7087Y-2.1654
X5.7087Y-3.7402
M30
