%TF.GenerationSoftware,KiCad,Pcbnew,7.0.10-7.0.10~ubuntu22.04.1*%
%TF.CreationDate,2024-01-03T18:29:47-08:00*%
%TF.ProjectId,YamhillActiveAFFilter,59616d68-696c-46c4-9163-746976654146,A*%
%TF.SameCoordinates,Original*%
%TF.FileFunction,Legend,Bot*%
%TF.FilePolarity,Positive*%
%FSLAX46Y46*%
G04 Gerber Fmt 4.6, Leading zero omitted, Abs format (unit mm)*
G04 Created by KiCad (PCBNEW 7.0.10-7.0.10~ubuntu22.04.1) date 2024-01-03 18:29:47*
%MOMM*%
%LPD*%
G01*
G04 APERTURE LIST*
%ADD10C,0.002540*%
%ADD11R,1.600000X1.600000*%
%ADD12C,1.600000*%
%ADD13O,1.600000X1.600000*%
%ADD14R,1.700000X1.700000*%
%ADD15O,1.700000X1.700000*%
%ADD16C,0.800000*%
%ADD17C,6.400000*%
%ADD18R,2.400000X1.600000*%
%ADD19O,2.400000X1.600000*%
G04 APERTURE END LIST*
%TO.C,G\u002A\u002A\u002A*%
D10*
X105132080Y-86603560D02*
X105215900Y-86606100D01*
X105274320Y-86611180D01*
X105299720Y-86616260D01*
X105302260Y-86616260D01*
X105309880Y-86649280D01*
X105325120Y-86715320D01*
X105342900Y-86809300D01*
X105365760Y-86918520D01*
X105368300Y-86936300D01*
X105388620Y-87042980D01*
X105406400Y-87129340D01*
X105419100Y-87190300D01*
X105426720Y-87213160D01*
X105434340Y-87218240D01*
X105480060Y-87236020D01*
X105551180Y-87266500D01*
X105637540Y-87302060D01*
X105840740Y-87383340D01*
X106092200Y-87213160D01*
X106115060Y-87197920D01*
X106203960Y-87136960D01*
X106277620Y-87086160D01*
X106328420Y-87053140D01*
X106351280Y-87042980D01*
X106376680Y-87065840D01*
X106427480Y-87111560D01*
X106493520Y-87177600D01*
X106572260Y-87256340D01*
X106630680Y-87312220D01*
X106699260Y-87383340D01*
X106744980Y-87431600D01*
X106767840Y-87462080D01*
X106775460Y-87479860D01*
X106772920Y-87492560D01*
X106757680Y-87517960D01*
X106722120Y-87571300D01*
X106668780Y-87647500D01*
X106607820Y-87736400D01*
X106559560Y-87810060D01*
X106503680Y-87893880D01*
X106468120Y-87954840D01*
X106457960Y-87982780D01*
X106460500Y-87995480D01*
X106478280Y-88043740D01*
X106506220Y-88117400D01*
X106544320Y-88206300D01*
X106630680Y-88404420D01*
X106760220Y-88429820D01*
X106838960Y-88442520D01*
X106950720Y-88465380D01*
X107054860Y-88485700D01*
X107219960Y-88516180D01*
X107225040Y-89118160D01*
X107199640Y-89128320D01*
X107174240Y-89135940D01*
X107113280Y-89148640D01*
X107026920Y-89166420D01*
X106925320Y-89186740D01*
X106838960Y-89201980D01*
X106750060Y-89219760D01*
X106686560Y-89232460D01*
X106658620Y-89237540D01*
X106651000Y-89247700D01*
X106630680Y-89288340D01*
X106597660Y-89356920D01*
X106564640Y-89438200D01*
X106529080Y-89522020D01*
X106498600Y-89600760D01*
X106475740Y-89659180D01*
X106468120Y-89692200D01*
X106480820Y-89715060D01*
X106513840Y-89765860D01*
X106562100Y-89839520D01*
X106620520Y-89925880D01*
X106681480Y-90014780D01*
X106732280Y-90088440D01*
X106765300Y-90141780D01*
X106780540Y-90167180D01*
X106772920Y-90184960D01*
X106739900Y-90225600D01*
X106673860Y-90294180D01*
X106574800Y-90390700D01*
X106559560Y-90405940D01*
X106480820Y-90482140D01*
X106414780Y-90543100D01*
X106369060Y-90583740D01*
X106348740Y-90598980D01*
X106325880Y-90586280D01*
X106272540Y-90553260D01*
X106198880Y-90505000D01*
X106109980Y-90446580D01*
X106023620Y-90385620D01*
X105949960Y-90337360D01*
X105899160Y-90304340D01*
X105878840Y-90294180D01*
X105866140Y-90296720D01*
X105825500Y-90317040D01*
X105764540Y-90350060D01*
X105728980Y-90367840D01*
X105673100Y-90390700D01*
X105645160Y-90395780D01*
X105640080Y-90388160D01*
X105619760Y-90347520D01*
X105589280Y-90273860D01*
X105546100Y-90177340D01*
X105497840Y-90063040D01*
X105447040Y-89941120D01*
X105393700Y-89819200D01*
X105345440Y-89699820D01*
X105302260Y-89593140D01*
X105266700Y-89506780D01*
X105243840Y-89445820D01*
X105236220Y-89420420D01*
X105238760Y-89415340D01*
X105266700Y-89387400D01*
X105314960Y-89351840D01*
X105419100Y-89265480D01*
X105523240Y-89135940D01*
X105586740Y-88988620D01*
X105609600Y-88823520D01*
X105591820Y-88673660D01*
X105530860Y-88528880D01*
X105429260Y-88396800D01*
X105304800Y-88300280D01*
X105162560Y-88236780D01*
X105000000Y-88216460D01*
X104845060Y-88234240D01*
X104697740Y-88292660D01*
X104565660Y-88394260D01*
X104509780Y-88457760D01*
X104433580Y-88589840D01*
X104390400Y-88732080D01*
X104385320Y-88767640D01*
X104392940Y-88925120D01*
X104438660Y-89074980D01*
X104519940Y-89207060D01*
X104634240Y-89318820D01*
X104649480Y-89328980D01*
X104702820Y-89367080D01*
X104738380Y-89395020D01*
X104766320Y-89417880D01*
X104568200Y-89897940D01*
X104535180Y-89974140D01*
X104481840Y-90103680D01*
X104433580Y-90217980D01*
X104392940Y-90306880D01*
X104367540Y-90367840D01*
X104354840Y-90390700D01*
X104354840Y-90393240D01*
X104337060Y-90395780D01*
X104301500Y-90383080D01*
X104232920Y-90350060D01*
X104189740Y-90327200D01*
X104138940Y-90301800D01*
X104116080Y-90294180D01*
X104095760Y-90304340D01*
X104047500Y-90334820D01*
X103976380Y-90383080D01*
X103890020Y-90441500D01*
X103808740Y-90497380D01*
X103735080Y-90545640D01*
X103679200Y-90581200D01*
X103653800Y-90596440D01*
X103648720Y-90596440D01*
X103625860Y-90583740D01*
X103582680Y-90545640D01*
X103516640Y-90484680D01*
X103425200Y-90393240D01*
X103409960Y-90380540D01*
X103333760Y-90301800D01*
X103272800Y-90238300D01*
X103232160Y-90192580D01*
X103216920Y-90169720D01*
X103229620Y-90144320D01*
X103265180Y-90090980D01*
X103313440Y-90014780D01*
X103374400Y-89925880D01*
X103534420Y-89694740D01*
X103445520Y-89476300D01*
X103420120Y-89410260D01*
X103384560Y-89328980D01*
X103359160Y-89273100D01*
X103346460Y-89247700D01*
X103323600Y-89237540D01*
X103265180Y-89224840D01*
X103178820Y-89207060D01*
X103074680Y-89186740D01*
X102975620Y-89168960D01*
X102889260Y-89151180D01*
X102823220Y-89138480D01*
X102795280Y-89133400D01*
X102787660Y-89130860D01*
X102782580Y-89115620D01*
X102780040Y-89085140D01*
X102777500Y-89031800D01*
X102774960Y-88947980D01*
X102774960Y-88823520D01*
X102774960Y-88810820D01*
X102777500Y-88693980D01*
X102777500Y-88600000D01*
X102782580Y-88541580D01*
X102785120Y-88516180D01*
X102813060Y-88511100D01*
X102876560Y-88495860D01*
X102965460Y-88480620D01*
X103069600Y-88460300D01*
X103077220Y-88457760D01*
X103181360Y-88437440D01*
X103270260Y-88419660D01*
X103331220Y-88404420D01*
X103359160Y-88396800D01*
X103364240Y-88389180D01*
X103384560Y-88348540D01*
X103415040Y-88282500D01*
X103450600Y-88203760D01*
X103483620Y-88119940D01*
X103514100Y-88046280D01*
X103534420Y-87990400D01*
X103539500Y-87965000D01*
X103524260Y-87939600D01*
X103488700Y-87886260D01*
X103437900Y-87810060D01*
X103374400Y-87721160D01*
X103371860Y-87713540D01*
X103310900Y-87624640D01*
X103260100Y-87548440D01*
X103229620Y-87495100D01*
X103216920Y-87472240D01*
X103216920Y-87469700D01*
X103237240Y-87444300D01*
X103282960Y-87393500D01*
X103346460Y-87324920D01*
X103425200Y-87246180D01*
X103450600Y-87220780D01*
X103536960Y-87136960D01*
X103595380Y-87081080D01*
X103633480Y-87053140D01*
X103651260Y-87045520D01*
X103679200Y-87063300D01*
X103735080Y-87098860D01*
X103811280Y-87152200D01*
X103902720Y-87213160D01*
X103907800Y-87215700D01*
X103996700Y-87276660D01*
X104070360Y-87327460D01*
X104123700Y-87363020D01*
X104146560Y-87375720D01*
X104151640Y-87375720D01*
X104187200Y-87365560D01*
X104250700Y-87342700D01*
X104326900Y-87312220D01*
X104410720Y-87279200D01*
X104484380Y-87248720D01*
X104540260Y-87223320D01*
X104568200Y-87208080D01*
X104568200Y-87205540D01*
X104578360Y-87175060D01*
X104593600Y-87109020D01*
X104611380Y-87017580D01*
X104631700Y-86908360D01*
X104636780Y-86890580D01*
X104657100Y-86783900D01*
X104672340Y-86697540D01*
X104685040Y-86636580D01*
X104692660Y-86611180D01*
X104707900Y-86608640D01*
X104758700Y-86603560D01*
X104837440Y-86601020D01*
X104933960Y-86601020D01*
X105033020Y-86601020D01*
X105132080Y-86603560D01*
G36*
X105132080Y-86603560D02*
G01*
X105215900Y-86606100D01*
X105274320Y-86611180D01*
X105299720Y-86616260D01*
X105302260Y-86616260D01*
X105309880Y-86649280D01*
X105325120Y-86715320D01*
X105342900Y-86809300D01*
X105365760Y-86918520D01*
X105368300Y-86936300D01*
X105388620Y-87042980D01*
X105406400Y-87129340D01*
X105419100Y-87190300D01*
X105426720Y-87213160D01*
X105434340Y-87218240D01*
X105480060Y-87236020D01*
X105551180Y-87266500D01*
X105637540Y-87302060D01*
X105840740Y-87383340D01*
X106092200Y-87213160D01*
X106115060Y-87197920D01*
X106203960Y-87136960D01*
X106277620Y-87086160D01*
X106328420Y-87053140D01*
X106351280Y-87042980D01*
X106376680Y-87065840D01*
X106427480Y-87111560D01*
X106493520Y-87177600D01*
X106572260Y-87256340D01*
X106630680Y-87312220D01*
X106699260Y-87383340D01*
X106744980Y-87431600D01*
X106767840Y-87462080D01*
X106775460Y-87479860D01*
X106772920Y-87492560D01*
X106757680Y-87517960D01*
X106722120Y-87571300D01*
X106668780Y-87647500D01*
X106607820Y-87736400D01*
X106559560Y-87810060D01*
X106503680Y-87893880D01*
X106468120Y-87954840D01*
X106457960Y-87982780D01*
X106460500Y-87995480D01*
X106478280Y-88043740D01*
X106506220Y-88117400D01*
X106544320Y-88206300D01*
X106630680Y-88404420D01*
X106760220Y-88429820D01*
X106838960Y-88442520D01*
X106950720Y-88465380D01*
X107054860Y-88485700D01*
X107219960Y-88516180D01*
X107225040Y-89118160D01*
X107199640Y-89128320D01*
X107174240Y-89135940D01*
X107113280Y-89148640D01*
X107026920Y-89166420D01*
X106925320Y-89186740D01*
X106838960Y-89201980D01*
X106750060Y-89219760D01*
X106686560Y-89232460D01*
X106658620Y-89237540D01*
X106651000Y-89247700D01*
X106630680Y-89288340D01*
X106597660Y-89356920D01*
X106564640Y-89438200D01*
X106529080Y-89522020D01*
X106498600Y-89600760D01*
X106475740Y-89659180D01*
X106468120Y-89692200D01*
X106480820Y-89715060D01*
X106513840Y-89765860D01*
X106562100Y-89839520D01*
X106620520Y-89925880D01*
X106681480Y-90014780D01*
X106732280Y-90088440D01*
X106765300Y-90141780D01*
X106780540Y-90167180D01*
X106772920Y-90184960D01*
X106739900Y-90225600D01*
X106673860Y-90294180D01*
X106574800Y-90390700D01*
X106559560Y-90405940D01*
X106480820Y-90482140D01*
X106414780Y-90543100D01*
X106369060Y-90583740D01*
X106348740Y-90598980D01*
X106325880Y-90586280D01*
X106272540Y-90553260D01*
X106198880Y-90505000D01*
X106109980Y-90446580D01*
X106023620Y-90385620D01*
X105949960Y-90337360D01*
X105899160Y-90304340D01*
X105878840Y-90294180D01*
X105866140Y-90296720D01*
X105825500Y-90317040D01*
X105764540Y-90350060D01*
X105728980Y-90367840D01*
X105673100Y-90390700D01*
X105645160Y-90395780D01*
X105640080Y-90388160D01*
X105619760Y-90347520D01*
X105589280Y-90273860D01*
X105546100Y-90177340D01*
X105497840Y-90063040D01*
X105447040Y-89941120D01*
X105393700Y-89819200D01*
X105345440Y-89699820D01*
X105302260Y-89593140D01*
X105266700Y-89506780D01*
X105243840Y-89445820D01*
X105236220Y-89420420D01*
X105238760Y-89415340D01*
X105266700Y-89387400D01*
X105314960Y-89351840D01*
X105419100Y-89265480D01*
X105523240Y-89135940D01*
X105586740Y-88988620D01*
X105609600Y-88823520D01*
X105591820Y-88673660D01*
X105530860Y-88528880D01*
X105429260Y-88396800D01*
X105304800Y-88300280D01*
X105162560Y-88236780D01*
X105000000Y-88216460D01*
X104845060Y-88234240D01*
X104697740Y-88292660D01*
X104565660Y-88394260D01*
X104509780Y-88457760D01*
X104433580Y-88589840D01*
X104390400Y-88732080D01*
X104385320Y-88767640D01*
X104392940Y-88925120D01*
X104438660Y-89074980D01*
X104519940Y-89207060D01*
X104634240Y-89318820D01*
X104649480Y-89328980D01*
X104702820Y-89367080D01*
X104738380Y-89395020D01*
X104766320Y-89417880D01*
X104568200Y-89897940D01*
X104535180Y-89974140D01*
X104481840Y-90103680D01*
X104433580Y-90217980D01*
X104392940Y-90306880D01*
X104367540Y-90367840D01*
X104354840Y-90390700D01*
X104354840Y-90393240D01*
X104337060Y-90395780D01*
X104301500Y-90383080D01*
X104232920Y-90350060D01*
X104189740Y-90327200D01*
X104138940Y-90301800D01*
X104116080Y-90294180D01*
X104095760Y-90304340D01*
X104047500Y-90334820D01*
X103976380Y-90383080D01*
X103890020Y-90441500D01*
X103808740Y-90497380D01*
X103735080Y-90545640D01*
X103679200Y-90581200D01*
X103653800Y-90596440D01*
X103648720Y-90596440D01*
X103625860Y-90583740D01*
X103582680Y-90545640D01*
X103516640Y-90484680D01*
X103425200Y-90393240D01*
X103409960Y-90380540D01*
X103333760Y-90301800D01*
X103272800Y-90238300D01*
X103232160Y-90192580D01*
X103216920Y-90169720D01*
X103229620Y-90144320D01*
X103265180Y-90090980D01*
X103313440Y-90014780D01*
X103374400Y-89925880D01*
X103534420Y-89694740D01*
X103445520Y-89476300D01*
X103420120Y-89410260D01*
X103384560Y-89328980D01*
X103359160Y-89273100D01*
X103346460Y-89247700D01*
X103323600Y-89237540D01*
X103265180Y-89224840D01*
X103178820Y-89207060D01*
X103074680Y-89186740D01*
X102975620Y-89168960D01*
X102889260Y-89151180D01*
X102823220Y-89138480D01*
X102795280Y-89133400D01*
X102787660Y-89130860D01*
X102782580Y-89115620D01*
X102780040Y-89085140D01*
X102777500Y-89031800D01*
X102774960Y-88947980D01*
X102774960Y-88823520D01*
X102774960Y-88810820D01*
X102777500Y-88693980D01*
X102777500Y-88600000D01*
X102782580Y-88541580D01*
X102785120Y-88516180D01*
X102813060Y-88511100D01*
X102876560Y-88495860D01*
X102965460Y-88480620D01*
X103069600Y-88460300D01*
X103077220Y-88457760D01*
X103181360Y-88437440D01*
X103270260Y-88419660D01*
X103331220Y-88404420D01*
X103359160Y-88396800D01*
X103364240Y-88389180D01*
X103384560Y-88348540D01*
X103415040Y-88282500D01*
X103450600Y-88203760D01*
X103483620Y-88119940D01*
X103514100Y-88046280D01*
X103534420Y-87990400D01*
X103539500Y-87965000D01*
X103524260Y-87939600D01*
X103488700Y-87886260D01*
X103437900Y-87810060D01*
X103374400Y-87721160D01*
X103371860Y-87713540D01*
X103310900Y-87624640D01*
X103260100Y-87548440D01*
X103229620Y-87495100D01*
X103216920Y-87472240D01*
X103216920Y-87469700D01*
X103237240Y-87444300D01*
X103282960Y-87393500D01*
X103346460Y-87324920D01*
X103425200Y-87246180D01*
X103450600Y-87220780D01*
X103536960Y-87136960D01*
X103595380Y-87081080D01*
X103633480Y-87053140D01*
X103651260Y-87045520D01*
X103679200Y-87063300D01*
X103735080Y-87098860D01*
X103811280Y-87152200D01*
X103902720Y-87213160D01*
X103907800Y-87215700D01*
X103996700Y-87276660D01*
X104070360Y-87327460D01*
X104123700Y-87363020D01*
X104146560Y-87375720D01*
X104151640Y-87375720D01*
X104187200Y-87365560D01*
X104250700Y-87342700D01*
X104326900Y-87312220D01*
X104410720Y-87279200D01*
X104484380Y-87248720D01*
X104540260Y-87223320D01*
X104568200Y-87208080D01*
X104568200Y-87205540D01*
X104578360Y-87175060D01*
X104593600Y-87109020D01*
X104611380Y-87017580D01*
X104631700Y-86908360D01*
X104636780Y-86890580D01*
X104657100Y-86783900D01*
X104672340Y-86697540D01*
X104685040Y-86636580D01*
X104692660Y-86611180D01*
X104707900Y-86608640D01*
X104758700Y-86603560D01*
X104837440Y-86601020D01*
X104933960Y-86601020D01*
X105033020Y-86601020D01*
X105132080Y-86603560D01*
G37*
%TO.C,Ref\u002A\u002A*%
X145627660Y-84826980D02*
X145747040Y-84862540D01*
X145929920Y-84964140D01*
X146097560Y-85106380D01*
X146234720Y-85274020D01*
X146328700Y-85454360D01*
X146336320Y-85477220D01*
X146356640Y-85566120D01*
X146384580Y-85695660D01*
X146420140Y-85853140D01*
X146455700Y-86028400D01*
X146491260Y-86208740D01*
X146524280Y-86381460D01*
X146552220Y-86531320D01*
X146572540Y-86648160D01*
X146582700Y-86719280D01*
X146582700Y-86820880D01*
X146562380Y-86985980D01*
X146511580Y-87123140D01*
X146491260Y-87156160D01*
X146374420Y-87285700D01*
X146216940Y-87377140D01*
X146034060Y-87422860D01*
X145838480Y-87417780D01*
X145815620Y-87415240D01*
X145744500Y-87405080D01*
X145714020Y-87405080D01*
X145714020Y-87412700D01*
X145724180Y-87473660D01*
X145747040Y-87585420D01*
X145777520Y-87740360D01*
X145815620Y-87938480D01*
X145858800Y-88167080D01*
X145909600Y-88421080D01*
X145993420Y-88837640D01*
X146046760Y-89101800D01*
X146095020Y-89345640D01*
X146135660Y-89559000D01*
X146171220Y-89739340D01*
X146196620Y-89873960D01*
X146211860Y-89962860D01*
X146214400Y-89993340D01*
X146211860Y-89995880D01*
X146166140Y-90000960D01*
X146077240Y-90003500D01*
X145957860Y-90006040D01*
X145853720Y-90006040D01*
X145769900Y-90003500D01*
X145726720Y-89998420D01*
X145706400Y-89988260D01*
X145701320Y-89970480D01*
X145696240Y-89945080D01*
X145678460Y-89866340D01*
X145658140Y-89752040D01*
X145630200Y-89614880D01*
X145622580Y-89574240D01*
X145587020Y-89411680D01*
X145559080Y-89310080D01*
X145538760Y-89261820D01*
X145528600Y-89251660D01*
X145452400Y-89165300D01*
X145373660Y-89076400D01*
X145300000Y-89000200D01*
X145249200Y-88946860D01*
X145228880Y-88926540D01*
X145223800Y-88941780D01*
X145208560Y-89007820D01*
X145185700Y-89119580D01*
X145155220Y-89264360D01*
X145122200Y-89432000D01*
X145096800Y-89548840D01*
X145063780Y-89706320D01*
X145038380Y-89838400D01*
X145018060Y-89929840D01*
X145010440Y-89970480D01*
X145007900Y-89973020D01*
X145002820Y-89988260D01*
X144982500Y-89998420D01*
X144936780Y-90003500D01*
X144852960Y-90006040D01*
X144718340Y-90006040D01*
X144677700Y-90006040D01*
X144550700Y-90003500D01*
X144466880Y-89998420D01*
X144436400Y-89990800D01*
X144441480Y-89970480D01*
X144459260Y-89899360D01*
X144492280Y-89779980D01*
X144532920Y-89625040D01*
X144583720Y-89439620D01*
X144682780Y-89078940D01*
X144736120Y-88888440D01*
X144779300Y-88720800D01*
X144814860Y-88591260D01*
X144837720Y-88502360D01*
X144845340Y-88466800D01*
X144845340Y-88464260D01*
X144817400Y-88423620D01*
X144758980Y-88342340D01*
X144672620Y-88230580D01*
X144565940Y-88095960D01*
X144444020Y-87943560D01*
X144042700Y-87448260D01*
X144555780Y-87448260D01*
X144977420Y-87989280D01*
X145033300Y-88057860D01*
X145150140Y-88207720D01*
X145251740Y-88337260D01*
X145333020Y-88438860D01*
X145383820Y-88502360D01*
X145404140Y-88525220D01*
X145401600Y-88509980D01*
X145388900Y-88438860D01*
X145366040Y-88319480D01*
X145335560Y-88159460D01*
X145297460Y-87961340D01*
X145254280Y-87737820D01*
X145206020Y-87493980D01*
X145173000Y-87321260D01*
X145124740Y-87087580D01*
X145084100Y-86879300D01*
X145051080Y-86701500D01*
X145025680Y-86564340D01*
X145007900Y-86475440D01*
X145002820Y-86437340D01*
X145002820Y-86429720D01*
X145015520Y-86419560D01*
X145053620Y-86414480D01*
X145129820Y-86414480D01*
X145256820Y-86414480D01*
X145510820Y-86419560D01*
X145536220Y-86544020D01*
X145564160Y-86660860D01*
X145604800Y-86744680D01*
X145663220Y-86813260D01*
X145703860Y-86848820D01*
X145774980Y-86886920D01*
X145863880Y-86897080D01*
X145868960Y-86897080D01*
X145940080Y-86886920D01*
X145998500Y-86848820D01*
X146008660Y-86838660D01*
X146046760Y-86790400D01*
X146062000Y-86731980D01*
X146054380Y-86640540D01*
X146031520Y-86505920D01*
X146011200Y-86414480D01*
X145995960Y-86338280D01*
X145990880Y-86307800D01*
X145975640Y-86305260D01*
X145909600Y-86305260D01*
X145835940Y-86302720D01*
X145797840Y-86302720D01*
X145653060Y-86302720D01*
X145480340Y-86300180D01*
X144972340Y-86300180D01*
X144962180Y-86264620D01*
X144959640Y-86257000D01*
X144936780Y-86150320D01*
X144911380Y-86010620D01*
X144883440Y-85858220D01*
X144855500Y-85705820D01*
X144835180Y-85571200D01*
X144823206Y-85487380D01*
X145348260Y-85487380D01*
X145353340Y-85611840D01*
X145376200Y-85751540D01*
X145404140Y-85868380D01*
X145658140Y-85873460D01*
X145741960Y-85876000D01*
X145835940Y-85876000D01*
X145886740Y-85870920D01*
X145904520Y-85863300D01*
X145907060Y-85850600D01*
X145901980Y-85835360D01*
X145886740Y-85769320D01*
X145866420Y-85675340D01*
X145856260Y-85634700D01*
X145828320Y-85535640D01*
X145800380Y-85467060D01*
X145792760Y-85454360D01*
X145721640Y-85375620D01*
X145625120Y-85327360D01*
X145520980Y-85312120D01*
X145432080Y-85332440D01*
X145368580Y-85393400D01*
X145366040Y-85398480D01*
X145348260Y-85487380D01*
X144823206Y-85487380D01*
X144819940Y-85464520D01*
X144812320Y-85406100D01*
X144814860Y-85375620D01*
X144850420Y-85195280D01*
X144939320Y-85037800D01*
X145066320Y-84910800D01*
X145226340Y-84834600D01*
X145244120Y-84829520D01*
X145363500Y-84811740D01*
X145503200Y-84811740D01*
X145627660Y-84826980D01*
G36*
X145627660Y-84826980D02*
G01*
X145747040Y-84862540D01*
X145929920Y-84964140D01*
X146097560Y-85106380D01*
X146234720Y-85274020D01*
X146328700Y-85454360D01*
X146336320Y-85477220D01*
X146356640Y-85566120D01*
X146384580Y-85695660D01*
X146420140Y-85853140D01*
X146455700Y-86028400D01*
X146491260Y-86208740D01*
X146524280Y-86381460D01*
X146552220Y-86531320D01*
X146572540Y-86648160D01*
X146582700Y-86719280D01*
X146582700Y-86820880D01*
X146562380Y-86985980D01*
X146511580Y-87123140D01*
X146491260Y-87156160D01*
X146374420Y-87285700D01*
X146216940Y-87377140D01*
X146034060Y-87422860D01*
X145838480Y-87417780D01*
X145815620Y-87415240D01*
X145744500Y-87405080D01*
X145714020Y-87405080D01*
X145714020Y-87412700D01*
X145724180Y-87473660D01*
X145747040Y-87585420D01*
X145777520Y-87740360D01*
X145815620Y-87938480D01*
X145858800Y-88167080D01*
X145909600Y-88421080D01*
X145993420Y-88837640D01*
X146046760Y-89101800D01*
X146095020Y-89345640D01*
X146135660Y-89559000D01*
X146171220Y-89739340D01*
X146196620Y-89873960D01*
X146211860Y-89962860D01*
X146214400Y-89993340D01*
X146211860Y-89995880D01*
X146166140Y-90000960D01*
X146077240Y-90003500D01*
X145957860Y-90006040D01*
X145853720Y-90006040D01*
X145769900Y-90003500D01*
X145726720Y-89998420D01*
X145706400Y-89988260D01*
X145701320Y-89970480D01*
X145696240Y-89945080D01*
X145678460Y-89866340D01*
X145658140Y-89752040D01*
X145630200Y-89614880D01*
X145622580Y-89574240D01*
X145587020Y-89411680D01*
X145559080Y-89310080D01*
X145538760Y-89261820D01*
X145528600Y-89251660D01*
X145452400Y-89165300D01*
X145373660Y-89076400D01*
X145300000Y-89000200D01*
X145249200Y-88946860D01*
X145228880Y-88926540D01*
X145223800Y-88941780D01*
X145208560Y-89007820D01*
X145185700Y-89119580D01*
X145155220Y-89264360D01*
X145122200Y-89432000D01*
X145096800Y-89548840D01*
X145063780Y-89706320D01*
X145038380Y-89838400D01*
X145018060Y-89929840D01*
X145010440Y-89970480D01*
X145007900Y-89973020D01*
X145002820Y-89988260D01*
X144982500Y-89998420D01*
X144936780Y-90003500D01*
X144852960Y-90006040D01*
X144718340Y-90006040D01*
X144677700Y-90006040D01*
X144550700Y-90003500D01*
X144466880Y-89998420D01*
X144436400Y-89990800D01*
X144441480Y-89970480D01*
X144459260Y-89899360D01*
X144492280Y-89779980D01*
X144532920Y-89625040D01*
X144583720Y-89439620D01*
X144682780Y-89078940D01*
X144736120Y-88888440D01*
X144779300Y-88720800D01*
X144814860Y-88591260D01*
X144837720Y-88502360D01*
X144845340Y-88466800D01*
X144845340Y-88464260D01*
X144817400Y-88423620D01*
X144758980Y-88342340D01*
X144672620Y-88230580D01*
X144565940Y-88095960D01*
X144444020Y-87943560D01*
X144042700Y-87448260D01*
X144555780Y-87448260D01*
X144977420Y-87989280D01*
X145033300Y-88057860D01*
X145150140Y-88207720D01*
X145251740Y-88337260D01*
X145333020Y-88438860D01*
X145383820Y-88502360D01*
X145404140Y-88525220D01*
X145401600Y-88509980D01*
X145388900Y-88438860D01*
X145366040Y-88319480D01*
X145335560Y-88159460D01*
X145297460Y-87961340D01*
X145254280Y-87737820D01*
X145206020Y-87493980D01*
X145173000Y-87321260D01*
X145124740Y-87087580D01*
X145084100Y-86879300D01*
X145051080Y-86701500D01*
X145025680Y-86564340D01*
X145007900Y-86475440D01*
X145002820Y-86437340D01*
X145002820Y-86429720D01*
X145015520Y-86419560D01*
X145053620Y-86414480D01*
X145129820Y-86414480D01*
X145256820Y-86414480D01*
X145510820Y-86419560D01*
X145536220Y-86544020D01*
X145564160Y-86660860D01*
X145604800Y-86744680D01*
X145663220Y-86813260D01*
X145703860Y-86848820D01*
X145774980Y-86886920D01*
X145863880Y-86897080D01*
X145868960Y-86897080D01*
X145940080Y-86886920D01*
X145998500Y-86848820D01*
X146008660Y-86838660D01*
X146046760Y-86790400D01*
X146062000Y-86731980D01*
X146054380Y-86640540D01*
X146031520Y-86505920D01*
X146011200Y-86414480D01*
X145995960Y-86338280D01*
X145990880Y-86307800D01*
X145975640Y-86305260D01*
X145909600Y-86305260D01*
X145835940Y-86302720D01*
X145797840Y-86302720D01*
X145653060Y-86302720D01*
X145480340Y-86300180D01*
X144972340Y-86300180D01*
X144962180Y-86264620D01*
X144959640Y-86257000D01*
X144936780Y-86150320D01*
X144911380Y-86010620D01*
X144883440Y-85858220D01*
X144855500Y-85705820D01*
X144835180Y-85571200D01*
X144823206Y-85487380D01*
X145348260Y-85487380D01*
X145353340Y-85611840D01*
X145376200Y-85751540D01*
X145404140Y-85868380D01*
X145658140Y-85873460D01*
X145741960Y-85876000D01*
X145835940Y-85876000D01*
X145886740Y-85870920D01*
X145904520Y-85863300D01*
X145907060Y-85850600D01*
X145901980Y-85835360D01*
X145886740Y-85769320D01*
X145866420Y-85675340D01*
X145856260Y-85634700D01*
X145828320Y-85535640D01*
X145800380Y-85467060D01*
X145792760Y-85454360D01*
X145721640Y-85375620D01*
X145625120Y-85327360D01*
X145520980Y-85312120D01*
X145432080Y-85332440D01*
X145368580Y-85393400D01*
X145366040Y-85398480D01*
X145348260Y-85487380D01*
X144823206Y-85487380D01*
X144819940Y-85464520D01*
X144812320Y-85406100D01*
X144814860Y-85375620D01*
X144850420Y-85195280D01*
X144939320Y-85037800D01*
X145066320Y-84910800D01*
X145226340Y-84834600D01*
X145244120Y-84829520D01*
X145363500Y-84811740D01*
X145503200Y-84811740D01*
X145627660Y-84826980D01*
G37*
%TD*%
%LPC*%
D11*
%TO.C,C4*%
X136700000Y-56200000D03*
D12*
X139200000Y-56200000D03*
%TD*%
D11*
%TO.C,C10*%
X133300000Y-60900000D03*
D12*
X133300000Y-64400000D03*
%TD*%
%TO.C,C6*%
X117000000Y-87600000D03*
X117000000Y-82600000D03*
%TD*%
%TO.C,R1*%
X118300000Y-58100000D03*
D13*
X115760000Y-58100000D03*
%TD*%
D12*
%TO.C,C11*%
X145000000Y-63900000D03*
X145000000Y-68900000D03*
%TD*%
%TO.C,C5*%
X117300000Y-77500000D03*
X112300000Y-77500000D03*
%TD*%
%TO.C,C9*%
X132700000Y-72400000D03*
X137700000Y-72400000D03*
%TD*%
%TO.C,R8*%
X141500000Y-87600000D03*
D13*
X138960000Y-87600000D03*
%TD*%
D14*
%TO.C,J3*%
X145000000Y-73725000D03*
D15*
X145000000Y-76265000D03*
%TD*%
D12*
%TO.C,R4*%
X110000000Y-67700000D03*
D13*
X112540000Y-67700000D03*
%TD*%
D12*
%TO.C,R7*%
X110000000Y-82800000D03*
D13*
X112540000Y-82800000D03*
%TD*%
D16*
%TO.C,H1*%
X102600000Y-55000000D03*
X103302944Y-53302944D03*
X103302944Y-56697056D03*
X105000000Y-52600000D03*
D17*
X105000000Y-55000000D03*
D16*
X105000000Y-57400000D03*
X106697056Y-53302944D03*
X106697056Y-56697056D03*
X107400000Y-55000000D03*
%TD*%
D14*
%TO.C,J2*%
X123725000Y-55000000D03*
D15*
X126265000Y-55000000D03*
%TD*%
D12*
%TO.C,R10*%
X141500000Y-62400000D03*
D13*
X138960000Y-62400000D03*
%TD*%
D12*
%TO.C,C2*%
X117300000Y-72500000D03*
X112300000Y-72500000D03*
%TD*%
%TO.C,R3*%
X110000000Y-63000000D03*
D13*
X112540000Y-63000000D03*
%TD*%
D16*
%TO.C,H4*%
X142600000Y-55000000D03*
X143302944Y-53302944D03*
X143302944Y-56697056D03*
X145000000Y-52600000D03*
D17*
X145000000Y-55000000D03*
D16*
X145000000Y-57400000D03*
X146697056Y-53302944D03*
X146697056Y-56697056D03*
X147400000Y-55000000D03*
%TD*%
D12*
%TO.C,R6*%
X110000000Y-87600000D03*
D13*
X112540000Y-87600000D03*
%TD*%
D12*
%TO.C,R9*%
X141500000Y-82900000D03*
D13*
X138960000Y-82900000D03*
%TD*%
D12*
%TO.C,R11*%
X141500000Y-67200000D03*
D13*
X138960000Y-67200000D03*
%TD*%
D16*
%TO.C,H3*%
X142600000Y-95000000D03*
X143302944Y-93302944D03*
X143302944Y-96697056D03*
X145000000Y-92600000D03*
D17*
X145000000Y-95000000D03*
D16*
X145000000Y-97400000D03*
X146697056Y-93302944D03*
X146697056Y-96697056D03*
X147400000Y-95000000D03*
%TD*%
%TO.C,H2*%
X102600000Y-95000000D03*
X103302944Y-93302944D03*
X103302944Y-96697056D03*
X105000000Y-92600000D03*
D17*
X105000000Y-95000000D03*
D16*
X105000000Y-97400000D03*
X106697056Y-93302944D03*
X106697056Y-96697056D03*
X107400000Y-95000000D03*
%TD*%
D11*
%TO.C,C8*%
X132900000Y-90000000D03*
D12*
X132900000Y-86500000D03*
%TD*%
%TO.C,C7*%
X132700000Y-77500000D03*
X137700000Y-77500000D03*
%TD*%
%TO.C,C3*%
X117000000Y-62400000D03*
X117000000Y-67400000D03*
%TD*%
D14*
%TO.C,J1*%
X105000000Y-73725000D03*
D15*
X105000000Y-76265000D03*
%TD*%
D12*
%TO.C,R5*%
X131060000Y-55200000D03*
D13*
X133600000Y-55200000D03*
%TD*%
D12*
%TO.C,R2*%
X112900000Y-58100000D03*
D13*
X110360000Y-58100000D03*
%TD*%
D18*
%TO.C,U1*%
X121175000Y-67375000D03*
D19*
X121175000Y-69915000D03*
X121175000Y-72455000D03*
X121175000Y-74995000D03*
X121175000Y-77535000D03*
X121175000Y-80075000D03*
X121175000Y-82615000D03*
X128795000Y-82615000D03*
X128795000Y-80075000D03*
X128795000Y-77535000D03*
X128795000Y-74995000D03*
X128795000Y-72455000D03*
X128795000Y-69915000D03*
X128795000Y-67375000D03*
%TD*%
D12*
%TO.C,C1*%
X105000000Y-68800000D03*
X105000000Y-63800000D03*
%TD*%
G36*
X102003031Y-51750149D02*
G01*
X102018420Y-51750905D01*
X102030531Y-51752098D01*
X102038917Y-51753342D01*
X102102343Y-51782651D01*
X102139854Y-51841597D01*
X102139542Y-51911466D01*
X102101505Y-51970075D01*
X102037820Y-51998815D01*
X102020722Y-52000000D01*
X102000000Y-52000000D01*
X102000000Y-98000000D01*
X102020722Y-98000000D01*
X102087761Y-98019685D01*
X102133516Y-98072489D01*
X102143460Y-98141647D01*
X102114435Y-98205203D01*
X102055657Y-98242977D01*
X102038903Y-98246660D01*
X102030517Y-98247903D01*
X102018428Y-98249093D01*
X102003039Y-98249850D01*
X101996947Y-98250000D01*
X100133328Y-98250000D01*
X100066289Y-98230315D01*
X100020534Y-98177511D01*
X100009644Y-98134846D01*
X100000316Y-98004418D01*
X100000000Y-97995572D01*
X100000000Y-52004427D01*
X100000316Y-51995581D01*
X100009644Y-51865154D01*
X100034061Y-51799690D01*
X100089994Y-51757818D01*
X100133328Y-51750000D01*
X101996947Y-51750000D01*
X102003031Y-51750149D01*
G37*
G36*
X101943039Y-97769685D02*
G01*
X101988794Y-97822489D01*
X102000000Y-97874000D01*
X102000000Y-98000000D01*
X148000000Y-98000000D01*
X148000000Y-97874000D01*
X148019685Y-97806961D01*
X148072489Y-97761206D01*
X148124000Y-97750000D01*
X149876000Y-97750000D01*
X149943039Y-97769685D01*
X149988794Y-97822489D01*
X150000000Y-97874000D01*
X150000000Y-97995572D01*
X149999684Y-98004418D01*
X149980275Y-98275785D01*
X149977757Y-98293297D01*
X149920872Y-98554794D01*
X149915888Y-98571770D01*
X149822361Y-98822524D01*
X149815011Y-98838617D01*
X149686758Y-99073496D01*
X149677193Y-99088380D01*
X149516811Y-99302624D01*
X149505225Y-99315994D01*
X149315994Y-99505225D01*
X149302624Y-99516811D01*
X149088380Y-99677193D01*
X149073496Y-99686758D01*
X148838617Y-99815011D01*
X148822524Y-99822361D01*
X148571770Y-99915888D01*
X148554794Y-99920872D01*
X148293297Y-99977757D01*
X148275785Y-99980275D01*
X148004418Y-99999684D01*
X147995572Y-100000000D01*
X102004428Y-100000000D01*
X101995582Y-99999684D01*
X101724214Y-99980275D01*
X101706702Y-99977757D01*
X101445205Y-99920872D01*
X101428229Y-99915888D01*
X101177475Y-99822361D01*
X101161382Y-99815011D01*
X100926503Y-99686758D01*
X100911619Y-99677193D01*
X100697375Y-99516811D01*
X100684005Y-99505225D01*
X100494774Y-99315994D01*
X100483188Y-99302624D01*
X100322806Y-99088380D01*
X100313241Y-99073496D01*
X100184988Y-98838617D01*
X100177638Y-98822524D01*
X100084111Y-98571770D01*
X100079127Y-98554794D01*
X100022242Y-98293297D01*
X100019724Y-98275785D01*
X100000316Y-98004418D01*
X100000000Y-97995572D01*
X100000000Y-97874000D01*
X100019685Y-97806961D01*
X100072489Y-97761206D01*
X100124000Y-97750000D01*
X101876000Y-97750000D01*
X101943039Y-97769685D01*
G37*
G36*
X149933711Y-51769685D02*
G01*
X149979466Y-51822489D01*
X149990356Y-51865154D01*
X149999684Y-51995581D01*
X150000000Y-52004427D01*
X150000000Y-97995572D01*
X149999684Y-98004418D01*
X149990356Y-98134846D01*
X149965939Y-98200310D01*
X149910006Y-98242182D01*
X149866672Y-98250000D01*
X148003053Y-98250000D01*
X147996961Y-98249850D01*
X147981571Y-98249093D01*
X147969480Y-98247903D01*
X147961095Y-98246660D01*
X147897667Y-98217357D01*
X147860149Y-98158415D01*
X147860455Y-98088546D01*
X147898486Y-98029933D01*
X147962167Y-98001186D01*
X147979278Y-98000000D01*
X148000000Y-98000000D01*
X148000000Y-52000000D01*
X147979278Y-52000000D01*
X147912239Y-51980315D01*
X147866484Y-51927511D01*
X147856540Y-51858353D01*
X147885565Y-51794797D01*
X147944343Y-51757023D01*
X147961081Y-51753343D01*
X147969466Y-51752099D01*
X147981579Y-51750905D01*
X147996969Y-51750149D01*
X148003053Y-51750000D01*
X149866672Y-51750000D01*
X149933711Y-51769685D01*
G37*
G36*
X148004418Y-50000316D02*
G01*
X148275785Y-50019724D01*
X148293297Y-50022242D01*
X148554794Y-50079127D01*
X148571770Y-50084111D01*
X148822524Y-50177638D01*
X148838617Y-50184988D01*
X149073496Y-50313241D01*
X149088380Y-50322806D01*
X149302624Y-50483188D01*
X149315994Y-50494774D01*
X149505225Y-50684005D01*
X149516811Y-50697375D01*
X149677193Y-50911619D01*
X149686758Y-50926503D01*
X149815011Y-51161382D01*
X149822361Y-51177475D01*
X149915888Y-51428229D01*
X149920872Y-51445205D01*
X149977757Y-51706702D01*
X149980275Y-51724214D01*
X149999684Y-51995581D01*
X150000000Y-52004427D01*
X150000000Y-52126000D01*
X149980315Y-52193039D01*
X149927511Y-52238794D01*
X149876000Y-52250000D01*
X148124000Y-52250000D01*
X148056961Y-52230315D01*
X148011206Y-52177511D01*
X148000000Y-52126000D01*
X148000000Y-52000000D01*
X102000000Y-52000000D01*
X102000000Y-52126000D01*
X101980315Y-52193039D01*
X101927511Y-52238794D01*
X101876000Y-52250000D01*
X100124000Y-52250000D01*
X100056961Y-52230315D01*
X100011206Y-52177511D01*
X100000000Y-52126000D01*
X100000000Y-52004427D01*
X100000316Y-51995581D01*
X100019724Y-51724214D01*
X100022242Y-51706702D01*
X100079127Y-51445205D01*
X100084111Y-51428229D01*
X100177638Y-51177475D01*
X100184988Y-51161382D01*
X100313241Y-50926503D01*
X100322806Y-50911619D01*
X100483188Y-50697375D01*
X100494774Y-50684005D01*
X100684005Y-50494774D01*
X100697375Y-50483188D01*
X100911619Y-50322806D01*
X100926503Y-50313241D01*
X101161382Y-50184988D01*
X101177475Y-50177638D01*
X101428229Y-50084111D01*
X101445205Y-50079127D01*
X101706702Y-50022242D01*
X101724214Y-50019724D01*
X101995582Y-50000316D01*
X102004428Y-50000000D01*
X147995572Y-50000000D01*
X148004418Y-50000316D01*
G37*
%LPD*%
M02*
