%TF.GenerationSoftware,KiCad,Pcbnew,7.0.10-7.0.10~ubuntu22.04.1*%
%TF.CreationDate,2024-01-03T18:29:47-08:00*%
%TF.ProjectId,YamhillActiveAFFilter,59616d68-696c-46c4-9163-746976654146,A*%
%TF.SameCoordinates,Original*%
%TF.FileFunction,Copper,L2,Bot*%
%TF.FilePolarity,Positive*%
%FSLAX46Y46*%
G04 Gerber Fmt 4.6, Leading zero omitted, Abs format (unit mm)*
G04 Created by KiCad (PCBNEW 7.0.10-7.0.10~ubuntu22.04.1) date 2024-01-03 18:29:47*
%MOMM*%
%LPD*%
G01*
G04 APERTURE LIST*
%TA.AperFunction,ComponentPad*%
%ADD10R,1.600000X1.600000*%
%TD*%
%TA.AperFunction,ComponentPad*%
%ADD11C,1.600000*%
%TD*%
%TA.AperFunction,ComponentPad*%
%ADD12O,1.600000X1.600000*%
%TD*%
%TA.AperFunction,ComponentPad*%
%ADD13R,1.700000X1.700000*%
%TD*%
%TA.AperFunction,ComponentPad*%
%ADD14O,1.700000X1.700000*%
%TD*%
%TA.AperFunction,ComponentPad*%
%ADD15C,0.800000*%
%TD*%
%TA.AperFunction,ComponentPad*%
%ADD16C,6.400000*%
%TD*%
%TA.AperFunction,ComponentPad*%
%ADD17R,2.400000X1.600000*%
%TD*%
%TA.AperFunction,ComponentPad*%
%ADD18O,2.400000X1.600000*%
%TD*%
%TA.AperFunction,ViaPad*%
%ADD19C,0.600000*%
%TD*%
%TA.AperFunction,Conductor*%
%ADD20C,0.250000*%
%TD*%
G04 APERTURE END LIST*
D10*
%TO.P,C4,1*%
%TO.N,Net-(U1A-V+)*%
X136700000Y-56200000D03*
D11*
%TO.P,C4,2*%
%TO.N,GND*%
X139200000Y-56200000D03*
%TD*%
D10*
%TO.P,C10,1*%
%TO.N,Net-(C10-Pad1)*%
X133300000Y-60900000D03*
D11*
%TO.P,C10,2*%
%TO.N,Net-(U1D--)*%
X133300000Y-64400000D03*
%TD*%
%TO.P,C6,1*%
%TO.N,Net-(C6-Pad1)*%
X117000000Y-87600000D03*
%TO.P,C6,2*%
%TO.N,Net-(U1B--)*%
X117000000Y-82600000D03*
%TD*%
%TO.P,R1,1*%
%TO.N,Net-(U1A-V+)*%
X118300000Y-58100000D03*
D12*
%TO.P,R1,2*%
%TO.N,Net-(C1-Pad2)*%
X115760000Y-58100000D03*
%TD*%
D11*
%TO.P,C11,1*%
%TO.N,Net-(U1D--)*%
X145000000Y-63900000D03*
%TO.P,C11,2*%
%TO.N,Net-(J3-Pin_1)*%
X145000000Y-68900000D03*
%TD*%
%TO.P,C5,1*%
%TO.N,Net-(U1B-+)*%
X117300000Y-77500000D03*
%TO.P,C5,2*%
%TO.N,GND*%
X112300000Y-77500000D03*
%TD*%
%TO.P,C9,1*%
%TO.N,Net-(U1D-+)*%
X132700000Y-72400000D03*
%TO.P,C9,2*%
%TO.N,GND*%
X137700000Y-72400000D03*
%TD*%
%TO.P,R8,1*%
%TO.N,Net-(U1B--)*%
X141500000Y-87600000D03*
D12*
%TO.P,R8,2*%
%TO.N,Net-(C8-Pad1)*%
X138960000Y-87600000D03*
%TD*%
D13*
%TO.P,J3,1,Pin_1*%
%TO.N,Net-(J3-Pin_1)*%
X145000000Y-73725000D03*
D14*
%TO.P,J3,2,Pin_2*%
%TO.N,GND*%
X145000000Y-76265000D03*
%TD*%
D11*
%TO.P,R4,1*%
%TO.N,Net-(C3-Pad1)*%
X110000000Y-67700000D03*
D12*
%TO.P,R4,2*%
%TO.N,Net-(U1A-+)*%
X112540000Y-67700000D03*
%TD*%
D11*
%TO.P,R7,1*%
%TO.N,Net-(C6-Pad1)*%
X110000000Y-82800000D03*
D12*
%TO.P,R7,2*%
%TO.N,Net-(U1B-+)*%
X112540000Y-82800000D03*
%TD*%
D15*
%TO.P,H1,1,1*%
%TO.N,GND*%
X102600000Y-55000000D03*
X103302944Y-53302944D03*
X103302944Y-56697056D03*
X105000000Y-52600000D03*
D16*
X105000000Y-55000000D03*
D15*
X105000000Y-57400000D03*
X106697056Y-53302944D03*
X106697056Y-56697056D03*
X107400000Y-55000000D03*
%TD*%
D13*
%TO.P,J2,1,Pin_1*%
%TO.N,Net-(J2-Pin_1)*%
X123725000Y-55000000D03*
D14*
%TO.P,J2,2,Pin_2*%
%TO.N,GND*%
X126265000Y-55000000D03*
%TD*%
D11*
%TO.P,R10,1*%
%TO.N,Net-(U1C--)*%
X141500000Y-62400000D03*
D12*
%TO.P,R10,2*%
%TO.N,Net-(C10-Pad1)*%
X138960000Y-62400000D03*
%TD*%
D11*
%TO.P,C2,1*%
%TO.N,Net-(U1A-+)*%
X117300000Y-72500000D03*
%TO.P,C2,2*%
%TO.N,GND*%
X112300000Y-72500000D03*
%TD*%
%TO.P,R3,1*%
%TO.N,Net-(C1-Pad2)*%
X110000000Y-63000000D03*
D12*
%TO.P,R3,2*%
%TO.N,Net-(C3-Pad1)*%
X112540000Y-63000000D03*
%TD*%
D15*
%TO.P,H4,1,1*%
%TO.N,GND*%
X142600000Y-55000000D03*
X143302944Y-53302944D03*
X143302944Y-56697056D03*
X145000000Y-52600000D03*
D16*
X145000000Y-55000000D03*
D15*
X145000000Y-57400000D03*
X146697056Y-53302944D03*
X146697056Y-56697056D03*
X147400000Y-55000000D03*
%TD*%
D11*
%TO.P,R6,1*%
%TO.N,Net-(U1A--)*%
X110000000Y-87600000D03*
D12*
%TO.P,R6,2*%
%TO.N,Net-(C6-Pad1)*%
X112540000Y-87600000D03*
%TD*%
D11*
%TO.P,R9,1*%
%TO.N,Net-(C8-Pad1)*%
X141500000Y-82900000D03*
D12*
%TO.P,R9,2*%
%TO.N,Net-(U1C-+)*%
X138960000Y-82900000D03*
%TD*%
D11*
%TO.P,R11,1*%
%TO.N,Net-(C10-Pad1)*%
X141500000Y-67200000D03*
D12*
%TO.P,R11,2*%
%TO.N,Net-(U1D-+)*%
X138960000Y-67200000D03*
%TD*%
D15*
%TO.P,H3,1,1*%
%TO.N,GND*%
X142600000Y-95000000D03*
X143302944Y-93302944D03*
X143302944Y-96697056D03*
X145000000Y-92600000D03*
D16*
X145000000Y-95000000D03*
D15*
X145000000Y-97400000D03*
X146697056Y-93302944D03*
X146697056Y-96697056D03*
X147400000Y-95000000D03*
%TD*%
%TO.P,H2,1,1*%
%TO.N,GND*%
X102600000Y-95000000D03*
X103302944Y-93302944D03*
X103302944Y-96697056D03*
X105000000Y-92600000D03*
D16*
X105000000Y-95000000D03*
D15*
X105000000Y-97400000D03*
X106697056Y-93302944D03*
X106697056Y-96697056D03*
X107400000Y-95000000D03*
%TD*%
D10*
%TO.P,C8,1*%
%TO.N,Net-(C8-Pad1)*%
X132900000Y-90000000D03*
D11*
%TO.P,C8,2*%
%TO.N,Net-(U1C--)*%
X132900000Y-86500000D03*
%TD*%
%TO.P,C7,1*%
%TO.N,Net-(U1C-+)*%
X132700000Y-77500000D03*
%TO.P,C7,2*%
%TO.N,GND*%
X137700000Y-77500000D03*
%TD*%
%TO.P,C3,1*%
%TO.N,Net-(C3-Pad1)*%
X117000000Y-62400000D03*
%TO.P,C3,2*%
%TO.N,Net-(U1A--)*%
X117000000Y-67400000D03*
%TD*%
D13*
%TO.P,J1,1,Pin_1*%
%TO.N,Net-(J1-Pin_1)*%
X105000000Y-73725000D03*
D14*
%TO.P,J1,2,Pin_2*%
%TO.N,GND*%
X105000000Y-76265000D03*
%TD*%
D11*
%TO.P,R5,1*%
%TO.N,Net-(J2-Pin_1)*%
X131060000Y-55200000D03*
D12*
%TO.P,R5,2*%
%TO.N,Net-(U1A-V+)*%
X133600000Y-55200000D03*
%TD*%
D11*
%TO.P,R2,1*%
%TO.N,Net-(C1-Pad2)*%
X112900000Y-58100000D03*
D12*
%TO.P,R2,2*%
%TO.N,GND*%
X110360000Y-58100000D03*
%TD*%
D17*
%TO.P,U1,1*%
%TO.N,Net-(U1A--)*%
X121175000Y-67375000D03*
D18*
%TO.P,U1,2,-*%
X121175000Y-69915000D03*
%TO.P,U1,3,+*%
%TO.N,Net-(U1A-+)*%
X121175000Y-72455000D03*
%TO.P,U1,4,V+*%
%TO.N,Net-(U1A-V+)*%
X121175000Y-74995000D03*
%TO.P,U1,5,+*%
%TO.N,Net-(U1B-+)*%
X121175000Y-77535000D03*
%TO.P,U1,6,-*%
%TO.N,Net-(U1B--)*%
X121175000Y-80075000D03*
%TO.P,U1,7*%
X121175000Y-82615000D03*
%TO.P,U1,8*%
%TO.N,Net-(U1C--)*%
X128795000Y-82615000D03*
%TO.P,U1,9,-*%
X128795000Y-80075000D03*
%TO.P,U1,10,+*%
%TO.N,Net-(U1C-+)*%
X128795000Y-77535000D03*
%TO.P,U1,11,V-*%
%TO.N,GND*%
X128795000Y-74995000D03*
%TO.P,U1,12,+*%
%TO.N,Net-(U1D-+)*%
X128795000Y-72455000D03*
%TO.P,U1,13,-*%
%TO.N,Net-(U1D--)*%
X128795000Y-69915000D03*
%TO.P,U1,14*%
X128795000Y-67375000D03*
%TD*%
D11*
%TO.P,C1,1*%
%TO.N,Net-(J1-Pin_1)*%
X105000000Y-68800000D03*
%TO.P,C1,2*%
%TO.N,Net-(C1-Pad2)*%
X105000000Y-63800000D03*
%TD*%
D19*
%TO.N,GND*%
X122000000Y-99000000D03*
X142000000Y-99000000D03*
X149000000Y-87000000D03*
X147000000Y-51000000D03*
X101000000Y-87000000D03*
X149000000Y-77000000D03*
X101000000Y-72000000D03*
X122000000Y-51000000D03*
X112000000Y-99000000D03*
X142000000Y-51000000D03*
X127000000Y-51000000D03*
X149000000Y-67000000D03*
X149000000Y-97000000D03*
X149000000Y-52000000D03*
X149000000Y-82000000D03*
X101000000Y-57000000D03*
X101000000Y-52000000D03*
X107000000Y-99000000D03*
X132000000Y-51000000D03*
X117000000Y-51000000D03*
X127000000Y-99000000D03*
X102000000Y-51000000D03*
X149000000Y-72000000D03*
X137000000Y-99000000D03*
X101000000Y-62000000D03*
X101000000Y-67000000D03*
X112000000Y-51000000D03*
X107000000Y-51000000D03*
X149000000Y-62000000D03*
X149000000Y-57000000D03*
X137000000Y-51000000D03*
X101000000Y-82000000D03*
X149000000Y-92000000D03*
X132000000Y-99000000D03*
X101000000Y-97000000D03*
X102000000Y-99000000D03*
X147000000Y-99000000D03*
X101000000Y-92000000D03*
X101000000Y-77000000D03*
X117000000Y-99000000D03*
%TD*%
D20*
%TO.N,Net-(U1A-V+)*%
X119099999Y-72919999D02*
X121175000Y-74995000D01*
X119099999Y-58899999D02*
X119099999Y-72919999D01*
X118300000Y-58100000D02*
X119099999Y-58899999D01*
%TO.N,Net-(U1B--)*%
X140375000Y-88725000D02*
X127285000Y-88725000D01*
X127285000Y-88725000D02*
X121175000Y-82615000D01*
X141500000Y-87600000D02*
X140375000Y-88725000D01*
%TO.N,Net-(U1C--)*%
X141109009Y-62400000D02*
X130320000Y-73189009D01*
X141500000Y-62400000D02*
X141109009Y-62400000D01*
X130320000Y-73189009D02*
X130320000Y-78550000D01*
X130320000Y-78550000D02*
X128795000Y-80075000D01*
%TD*%
%TA.AperFunction,Conductor*%
%TO.N,GND*%
G36*
X106661385Y-96449253D02*
G01*
X106599511Y-96461561D01*
X106516816Y-96516816D01*
X106461561Y-96599511D01*
X106449253Y-96661385D01*
X106020456Y-96232588D01*
X106134870Y-96134870D01*
X106232588Y-96020456D01*
X106661385Y-96449253D01*
G37*
%TD.AperFunction*%
%TA.AperFunction,Conductor*%
G36*
X103865130Y-96134870D02*
G01*
X103979543Y-96232587D01*
X103550746Y-96661384D01*
X103538439Y-96599511D01*
X103483184Y-96516816D01*
X103400489Y-96461561D01*
X103338613Y-96449253D01*
X103767411Y-96020455D01*
X103865130Y-96134870D01*
G37*
%TD.AperFunction*%
%TA.AperFunction,Conductor*%
G36*
X103979544Y-93767411D02*
G01*
X103865130Y-93865130D01*
X103767411Y-93979544D01*
X103338613Y-93550746D01*
X103400489Y-93538439D01*
X103483184Y-93483184D01*
X103538439Y-93400489D01*
X103550746Y-93338613D01*
X103979544Y-93767411D01*
G37*
%TD.AperFunction*%
%TA.AperFunction,Conductor*%
G36*
X106461561Y-93400489D02*
G01*
X106516816Y-93483184D01*
X106599511Y-93538439D01*
X106661384Y-93550746D01*
X106232587Y-93979543D01*
X106134870Y-93865130D01*
X106020455Y-93767411D01*
X106449253Y-93338613D01*
X106461561Y-93400489D01*
G37*
%TD.AperFunction*%
%TA.AperFunction,Conductor*%
G36*
X146661385Y-96449253D02*
G01*
X146599511Y-96461561D01*
X146516816Y-96516816D01*
X146461561Y-96599511D01*
X146449253Y-96661385D01*
X146020456Y-96232588D01*
X146134870Y-96134870D01*
X146232588Y-96020456D01*
X146661385Y-96449253D01*
G37*
%TD.AperFunction*%
%TA.AperFunction,Conductor*%
G36*
X143865130Y-96134870D02*
G01*
X143979543Y-96232587D01*
X143550746Y-96661384D01*
X143538439Y-96599511D01*
X143483184Y-96516816D01*
X143400489Y-96461561D01*
X143338613Y-96449253D01*
X143767411Y-96020455D01*
X143865130Y-96134870D01*
G37*
%TD.AperFunction*%
%TA.AperFunction,Conductor*%
G36*
X143979544Y-93767411D02*
G01*
X143865130Y-93865130D01*
X143767411Y-93979544D01*
X143338613Y-93550746D01*
X143400489Y-93538439D01*
X143483184Y-93483184D01*
X143538439Y-93400489D01*
X143550746Y-93338613D01*
X143979544Y-93767411D01*
G37*
%TD.AperFunction*%
%TA.AperFunction,Conductor*%
G36*
X146461561Y-93400489D02*
G01*
X146516816Y-93483184D01*
X146599511Y-93538439D01*
X146661384Y-93550746D01*
X146232587Y-93979543D01*
X146134870Y-93865130D01*
X146020455Y-93767411D01*
X146449253Y-93338613D01*
X146461561Y-93400489D01*
G37*
%TD.AperFunction*%
%TA.AperFunction,Conductor*%
G36*
X106661385Y-56449253D02*
G01*
X106599511Y-56461561D01*
X106516816Y-56516816D01*
X106461561Y-56599511D01*
X106449253Y-56661385D01*
X106020456Y-56232588D01*
X106134870Y-56134870D01*
X106232588Y-56020456D01*
X106661385Y-56449253D01*
G37*
%TD.AperFunction*%
%TA.AperFunction,Conductor*%
G36*
X103865130Y-56134870D02*
G01*
X103979543Y-56232587D01*
X103550746Y-56661384D01*
X103538439Y-56599511D01*
X103483184Y-56516816D01*
X103400489Y-56461561D01*
X103338613Y-56449253D01*
X103767411Y-56020455D01*
X103865130Y-56134870D01*
G37*
%TD.AperFunction*%
%TA.AperFunction,Conductor*%
G36*
X103979544Y-53767411D02*
G01*
X103865130Y-53865130D01*
X103767411Y-53979544D01*
X103338613Y-53550746D01*
X103400489Y-53538439D01*
X103483184Y-53483184D01*
X103538439Y-53400489D01*
X103550746Y-53338613D01*
X103979544Y-53767411D01*
G37*
%TD.AperFunction*%
%TA.AperFunction,Conductor*%
G36*
X106461561Y-53400489D02*
G01*
X106516816Y-53483184D01*
X106599511Y-53538439D01*
X106661384Y-53550746D01*
X106232587Y-53979543D01*
X106134870Y-53865130D01*
X106020455Y-53767411D01*
X106449253Y-53338613D01*
X106461561Y-53400489D01*
G37*
%TD.AperFunction*%
%TA.AperFunction,Conductor*%
G36*
X146661385Y-56449253D02*
G01*
X146599511Y-56461561D01*
X146516816Y-56516816D01*
X146461561Y-56599511D01*
X146449253Y-56661385D01*
X146020456Y-56232588D01*
X146134870Y-56134870D01*
X146232588Y-56020456D01*
X146661385Y-56449253D01*
G37*
%TD.AperFunction*%
%TA.AperFunction,Conductor*%
G36*
X143865130Y-56134870D02*
G01*
X143979543Y-56232587D01*
X143550746Y-56661384D01*
X143538439Y-56599511D01*
X143483184Y-56516816D01*
X143400489Y-56461561D01*
X143338613Y-56449253D01*
X143767411Y-56020455D01*
X143865130Y-56134870D01*
G37*
%TD.AperFunction*%
%TA.AperFunction,Conductor*%
G36*
X143979544Y-53767411D02*
G01*
X143865130Y-53865130D01*
X143767411Y-53979544D01*
X143338613Y-53550746D01*
X143400489Y-53538439D01*
X143483184Y-53483184D01*
X143538439Y-53400489D01*
X143550746Y-53338613D01*
X143979544Y-53767411D01*
G37*
%TD.AperFunction*%
%TA.AperFunction,Conductor*%
G36*
X146461561Y-53400489D02*
G01*
X146516816Y-53483184D01*
X146599511Y-53538439D01*
X146661384Y-53550746D01*
X146232587Y-53979543D01*
X146134870Y-53865130D01*
X146020455Y-53767411D01*
X146449253Y-53338613D01*
X146461561Y-53400489D01*
G37*
%TD.AperFunction*%
%TA.AperFunction,Conductor*%
G36*
X124666055Y-50000948D02*
G01*
X124887981Y-50001067D01*
X124888183Y-50001067D01*
X124888222Y-50001081D01*
X124888223Y-50001068D01*
X136272024Y-50013226D01*
X148177832Y-50025943D01*
X148185686Y-50026370D01*
X148430663Y-50052841D01*
X148443547Y-50055409D01*
X148681984Y-50125420D01*
X148686985Y-50127085D01*
X148694671Y-50129952D01*
X148699540Y-50131968D01*
X148951239Y-50246914D01*
X148960503Y-50251973D01*
X149191047Y-50400134D01*
X149199500Y-50406462D01*
X149406610Y-50585924D01*
X149414075Y-50593389D01*
X149593537Y-50800499D01*
X149599865Y-50808952D01*
X149748026Y-51039496D01*
X149753086Y-51048762D01*
X149868031Y-51300457D01*
X149870052Y-51305337D01*
X149874513Y-51317297D01*
X149876181Y-51322310D01*
X149943606Y-51551939D01*
X149946180Y-51564880D01*
X149971523Y-51800717D01*
X149971947Y-51808632D01*
X149966958Y-98226211D01*
X149966534Y-98234117D01*
X149943675Y-98446643D01*
X149941102Y-98459577D01*
X149880306Y-98666630D01*
X149878637Y-98671643D01*
X149870048Y-98694670D01*
X149868027Y-98699550D01*
X149753086Y-98951237D01*
X149748026Y-98960503D01*
X149599865Y-99191047D01*
X149593537Y-99199500D01*
X149414075Y-99406610D01*
X149406610Y-99414075D01*
X149199500Y-99593537D01*
X149191047Y-99599865D01*
X148960503Y-99748026D01*
X148951237Y-99753086D01*
X148699542Y-99868031D01*
X148694661Y-99870052D01*
X148673641Y-99877892D01*
X148668648Y-99879554D01*
X148457480Y-99941558D01*
X148444571Y-99944128D01*
X148227805Y-99967505D01*
X148219920Y-99967932D01*
X102116357Y-99998592D01*
X102113691Y-99998546D01*
X101852439Y-99989302D01*
X101844525Y-99988595D01*
X101587590Y-99951653D01*
X101582391Y-99950715D01*
X101580668Y-99950340D01*
X101578542Y-99949877D01*
X101573430Y-99948572D01*
X101307930Y-99870614D01*
X101298038Y-99866925D01*
X101048763Y-99753086D01*
X101039496Y-99748026D01*
X100808952Y-99599865D01*
X100800499Y-99593537D01*
X100593389Y-99414075D01*
X100585924Y-99406610D01*
X100406462Y-99199500D01*
X100400134Y-99191047D01*
X100251973Y-98960503D01*
X100246913Y-98951236D01*
X100133074Y-98701961D01*
X100129385Y-98692069D01*
X100052175Y-98429116D01*
X100049930Y-98418799D01*
X100037632Y-98333264D01*
X100010742Y-98146234D01*
X100010037Y-98138350D01*
X100000547Y-97872635D01*
X100000500Y-97869994D01*
X100000500Y-95000000D01*
X101495197Y-95000000D01*
X101514397Y-95366355D01*
X101514397Y-95366356D01*
X101571783Y-95728683D01*
X101666735Y-96083046D01*
X101798201Y-96425527D01*
X101798205Y-96425538D01*
X101964746Y-96752393D01*
X102164556Y-97060073D01*
X102395426Y-97345173D01*
X102419060Y-97368807D01*
X103055141Y-96732725D01*
X103067449Y-96794601D01*
X103122704Y-96877296D01*
X103205399Y-96932551D01*
X103267272Y-96944858D01*
X102631192Y-97580939D01*
X102654826Y-97604573D01*
X102939926Y-97835443D01*
X103247606Y-98035253D01*
X103574461Y-98201794D01*
X103574472Y-98201798D01*
X103916953Y-98333264D01*
X104271316Y-98428216D01*
X104633643Y-98485602D01*
X105000000Y-98504802D01*
X105366355Y-98485602D01*
X105366356Y-98485602D01*
X105728683Y-98428216D01*
X106083046Y-98333264D01*
X106425527Y-98201798D01*
X106425538Y-98201794D01*
X106752393Y-98035253D01*
X107060073Y-97835443D01*
X107345173Y-97604573D01*
X107368806Y-97580938D01*
X106732726Y-96944858D01*
X106794601Y-96932551D01*
X106877296Y-96877296D01*
X106932551Y-96794601D01*
X106944858Y-96732726D01*
X107580938Y-97368806D01*
X107604573Y-97345173D01*
X107835443Y-97060073D01*
X108035253Y-96752393D01*
X108201794Y-96425538D01*
X108201798Y-96425527D01*
X108333264Y-96083046D01*
X108428216Y-95728683D01*
X108485602Y-95366356D01*
X108485602Y-95366355D01*
X108504802Y-95000000D01*
X141495197Y-95000000D01*
X141514397Y-95366355D01*
X141514397Y-95366356D01*
X141571783Y-95728683D01*
X141666735Y-96083046D01*
X141798201Y-96425527D01*
X141798205Y-96425538D01*
X141964746Y-96752393D01*
X142164556Y-97060073D01*
X142395426Y-97345173D01*
X142419060Y-97368807D01*
X143055141Y-96732725D01*
X143067449Y-96794601D01*
X143122704Y-96877296D01*
X143205399Y-96932551D01*
X143267272Y-96944858D01*
X142631192Y-97580939D01*
X142654826Y-97604573D01*
X142939926Y-97835443D01*
X143247606Y-98035253D01*
X143574461Y-98201794D01*
X143574472Y-98201798D01*
X143916953Y-98333264D01*
X144271316Y-98428216D01*
X144633643Y-98485602D01*
X145000000Y-98504802D01*
X145366355Y-98485602D01*
X145366356Y-98485602D01*
X145728683Y-98428216D01*
X146083046Y-98333264D01*
X146425527Y-98201798D01*
X146425538Y-98201794D01*
X146752393Y-98035253D01*
X147060073Y-97835443D01*
X147345173Y-97604573D01*
X147368806Y-97580938D01*
X146732726Y-96944858D01*
X146794601Y-96932551D01*
X146877296Y-96877296D01*
X146932551Y-96794601D01*
X146944858Y-96732726D01*
X147580938Y-97368806D01*
X147604573Y-97345173D01*
X147835443Y-97060073D01*
X148035253Y-96752393D01*
X148201794Y-96425538D01*
X148201798Y-96425527D01*
X148333264Y-96083046D01*
X148428216Y-95728683D01*
X148485602Y-95366356D01*
X148485602Y-95366355D01*
X148504802Y-95000000D01*
X148485602Y-94633644D01*
X148485602Y-94633643D01*
X148428216Y-94271316D01*
X148333264Y-93916953D01*
X148201794Y-93574461D01*
X148201791Y-93574456D01*
X148035253Y-93247607D01*
X147835443Y-92939926D01*
X147604573Y-92654826D01*
X147580939Y-92631192D01*
X146944858Y-93267272D01*
X146932551Y-93205399D01*
X146877296Y-93122704D01*
X146794601Y-93067449D01*
X146732725Y-93055141D01*
X147368807Y-92419060D01*
X147345173Y-92395426D01*
X147060073Y-92164556D01*
X146752393Y-91964746D01*
X146425538Y-91798205D01*
X146425527Y-91798201D01*
X146083046Y-91666735D01*
X145728683Y-91571783D01*
X145366356Y-91514397D01*
X145000000Y-91495197D01*
X144633644Y-91514397D01*
X144633643Y-91514397D01*
X144271316Y-91571783D01*
X143916953Y-91666735D01*
X143574461Y-91798205D01*
X143574456Y-91798208D01*
X143247607Y-91964746D01*
X142939926Y-92164556D01*
X142654827Y-92395425D01*
X142631192Y-92419059D01*
X143267274Y-93055141D01*
X143205399Y-93067449D01*
X143122704Y-93122704D01*
X143067449Y-93205399D01*
X143055141Y-93267274D01*
X142419059Y-92631192D01*
X142395425Y-92654827D01*
X142164556Y-92939926D01*
X141964746Y-93247607D01*
X141798208Y-93574456D01*
X141798205Y-93574461D01*
X141666735Y-93916953D01*
X141571783Y-94271316D01*
X141514397Y-94633643D01*
X141514397Y-94633644D01*
X141495197Y-95000000D01*
X108504802Y-95000000D01*
X108485602Y-94633644D01*
X108485602Y-94633643D01*
X108428216Y-94271316D01*
X108333264Y-93916953D01*
X108201794Y-93574461D01*
X108201791Y-93574456D01*
X108035253Y-93247607D01*
X107835443Y-92939926D01*
X107604573Y-92654826D01*
X107580939Y-92631192D01*
X106944858Y-93267272D01*
X106932551Y-93205399D01*
X106877296Y-93122704D01*
X106794601Y-93067449D01*
X106732725Y-93055141D01*
X107368807Y-92419060D01*
X107345173Y-92395426D01*
X107060073Y-92164556D01*
X106752393Y-91964746D01*
X106425538Y-91798205D01*
X106425527Y-91798201D01*
X106083046Y-91666735D01*
X105728683Y-91571783D01*
X105366356Y-91514397D01*
X105000000Y-91495197D01*
X104633644Y-91514397D01*
X104633643Y-91514397D01*
X104271316Y-91571783D01*
X103916953Y-91666735D01*
X103574461Y-91798205D01*
X103574456Y-91798208D01*
X103247607Y-91964746D01*
X102939926Y-92164556D01*
X102654827Y-92395425D01*
X102631192Y-92419059D01*
X103267274Y-93055141D01*
X103205399Y-93067449D01*
X103122704Y-93122704D01*
X103067449Y-93205399D01*
X103055141Y-93267274D01*
X102419059Y-92631192D01*
X102395425Y-92654827D01*
X102164556Y-92939926D01*
X101964746Y-93247607D01*
X101798208Y-93574456D01*
X101798205Y-93574461D01*
X101666735Y-93916953D01*
X101571783Y-94271316D01*
X101514397Y-94633643D01*
X101514397Y-94633644D01*
X101495197Y-95000000D01*
X100000500Y-95000000D01*
X100000500Y-87600000D01*
X108994659Y-87600000D01*
X109013976Y-87796133D01*
X109071187Y-87984731D01*
X109158776Y-88148597D01*
X109164090Y-88158538D01*
X109289117Y-88310883D01*
X109441462Y-88435910D01*
X109518426Y-88477048D01*
X109615268Y-88528812D01*
X109615270Y-88528812D01*
X109615273Y-88528814D01*
X109803868Y-88586024D01*
X110000000Y-88605341D01*
X110196132Y-88586024D01*
X110384727Y-88528814D01*
X110558538Y-88435910D01*
X110710883Y-88310883D01*
X110835910Y-88158538D01*
X110928814Y-87984727D01*
X110986024Y-87796132D01*
X111005341Y-87600000D01*
X111534659Y-87600000D01*
X111553976Y-87796133D01*
X111611187Y-87984731D01*
X111698776Y-88148597D01*
X111704090Y-88158538D01*
X111829117Y-88310883D01*
X111981462Y-88435910D01*
X112058426Y-88477048D01*
X112155268Y-88528812D01*
X112155270Y-88528812D01*
X112155273Y-88528814D01*
X112343868Y-88586024D01*
X112540000Y-88605341D01*
X112736132Y-88586024D01*
X112924727Y-88528814D01*
X113098538Y-88435910D01*
X113250883Y-88310883D01*
X113375910Y-88158538D01*
X113468814Y-87984727D01*
X113526024Y-87796132D01*
X113545341Y-87600000D01*
X115994659Y-87600000D01*
X116013976Y-87796133D01*
X116071187Y-87984731D01*
X116158776Y-88148597D01*
X116164090Y-88158538D01*
X116289117Y-88310883D01*
X116441462Y-88435910D01*
X116518426Y-88477048D01*
X116615268Y-88528812D01*
X116615270Y-88528812D01*
X116615273Y-88528814D01*
X116803868Y-88586024D01*
X117000000Y-88605341D01*
X117196132Y-88586024D01*
X117384727Y-88528814D01*
X117558538Y-88435910D01*
X117710883Y-88310883D01*
X117835910Y-88158538D01*
X117928814Y-87984727D01*
X117986024Y-87796132D01*
X118005341Y-87600000D01*
X117986024Y-87403868D01*
X117928814Y-87215273D01*
X117928812Y-87215270D01*
X117928812Y-87215268D01*
X117845036Y-87058536D01*
X117835910Y-87041462D01*
X117710883Y-86889117D01*
X117558538Y-86764090D01*
X117548597Y-86758776D01*
X117384731Y-86671187D01*
X117196133Y-86613976D01*
X117000000Y-86594659D01*
X116803866Y-86613976D01*
X116615268Y-86671187D01*
X116441463Y-86764089D01*
X116289117Y-86889117D01*
X116164089Y-87041463D01*
X116071187Y-87215268D01*
X116013976Y-87403866D01*
X115994659Y-87600000D01*
X113545341Y-87600000D01*
X113526024Y-87403868D01*
X113468814Y-87215273D01*
X113468812Y-87215270D01*
X113468812Y-87215268D01*
X113385036Y-87058536D01*
X113375910Y-87041462D01*
X113250883Y-86889117D01*
X113098538Y-86764090D01*
X113088597Y-86758776D01*
X112924731Y-86671187D01*
X112736133Y-86613976D01*
X112540000Y-86594659D01*
X112343866Y-86613976D01*
X112155268Y-86671187D01*
X111981463Y-86764089D01*
X111829117Y-86889117D01*
X111704089Y-87041463D01*
X111611187Y-87215268D01*
X111553976Y-87403866D01*
X111534659Y-87600000D01*
X111005341Y-87600000D01*
X110986024Y-87403868D01*
X110928814Y-87215273D01*
X110928812Y-87215270D01*
X110928812Y-87215268D01*
X110845036Y-87058536D01*
X110835910Y-87041462D01*
X110710883Y-86889117D01*
X110558538Y-86764090D01*
X110548597Y-86758776D01*
X110384731Y-86671187D01*
X110196133Y-86613976D01*
X110000000Y-86594659D01*
X109803866Y-86613976D01*
X109615268Y-86671187D01*
X109441463Y-86764089D01*
X109289117Y-86889117D01*
X109164089Y-87041463D01*
X109071187Y-87215268D01*
X109013976Y-87403866D01*
X108994659Y-87600000D01*
X100000500Y-87600000D01*
X100000500Y-82800000D01*
X108994659Y-82800000D01*
X109013976Y-82996133D01*
X109071187Y-83184731D01*
X109137001Y-83307859D01*
X109164090Y-83358538D01*
X109289117Y-83510883D01*
X109441462Y-83635910D01*
X109518426Y-83677048D01*
X109615268Y-83728812D01*
X109615270Y-83728812D01*
X109615273Y-83728814D01*
X109803868Y-83786024D01*
X110000000Y-83805341D01*
X110196132Y-83786024D01*
X110384727Y-83728814D01*
X110558538Y-83635910D01*
X110710883Y-83510883D01*
X110835910Y-83358538D01*
X110928814Y-83184727D01*
X110986024Y-82996132D01*
X111005341Y-82800000D01*
X111534659Y-82800000D01*
X111553976Y-82996133D01*
X111611187Y-83184731D01*
X111677001Y-83307859D01*
X111704090Y-83358538D01*
X111829117Y-83510883D01*
X111981462Y-83635910D01*
X112058426Y-83677048D01*
X112155268Y-83728812D01*
X112155270Y-83728812D01*
X112155273Y-83728814D01*
X112343868Y-83786024D01*
X112540000Y-83805341D01*
X112736132Y-83786024D01*
X112924727Y-83728814D01*
X113098538Y-83635910D01*
X113250883Y-83510883D01*
X113375910Y-83358538D01*
X113468814Y-83184727D01*
X113526024Y-82996132D01*
X113545341Y-82800000D01*
X113526024Y-82603868D01*
X113524851Y-82600000D01*
X115994659Y-82600000D01*
X116013976Y-82796133D01*
X116071187Y-82984731D01*
X116157899Y-83146956D01*
X116164090Y-83158538D01*
X116289117Y-83310883D01*
X116441462Y-83435910D01*
X116483796Y-83458538D01*
X116615268Y-83528812D01*
X116615270Y-83528812D01*
X116615273Y-83528814D01*
X116803868Y-83586024D01*
X117000000Y-83605341D01*
X117196132Y-83586024D01*
X117384727Y-83528814D01*
X117558538Y-83435910D01*
X117710883Y-83310883D01*
X117835910Y-83158538D01*
X117928814Y-82984727D01*
X117986024Y-82796132D01*
X117998847Y-82665936D01*
X119770631Y-82665936D01*
X119801444Y-82867071D01*
X119837442Y-82964268D01*
X119872114Y-83057887D01*
X119934848Y-83158536D01*
X119979748Y-83230571D01*
X120119941Y-83378053D01*
X120286951Y-83494295D01*
X120473942Y-83574540D01*
X120473947Y-83574541D01*
X120673252Y-83615499D01*
X120673257Y-83615499D01*
X120673259Y-83615500D01*
X120673260Y-83615500D01*
X121625741Y-83615500D01*
X121625742Y-83615500D01*
X121671955Y-83610800D01*
X121721028Y-83623211D01*
X121731768Y-83632094D01*
X127042505Y-88942831D01*
X127046859Y-88947583D01*
X127072545Y-88978194D01*
X127107141Y-88998168D01*
X127107148Y-88998172D01*
X127112593Y-89001641D01*
X127145314Y-89024553D01*
X127145316Y-89024554D01*
X127149949Y-89025795D01*
X127167795Y-89033186D01*
X127171955Y-89035588D01*
X127201628Y-89040820D01*
X127211297Y-89042525D01*
X127217598Y-89043922D01*
X127256193Y-89054264D01*
X127256193Y-89054263D01*
X127256194Y-89054264D01*
X127281802Y-89052023D01*
X127295995Y-89050781D01*
X127302444Y-89050500D01*
X131835140Y-89050500D01*
X131882706Y-89067813D01*
X131908016Y-89111650D01*
X131907718Y-89138936D01*
X131899500Y-89180252D01*
X131899500Y-90819746D01*
X131911133Y-90878232D01*
X131940608Y-90922343D01*
X131955448Y-90944552D01*
X131999560Y-90974027D01*
X132021767Y-90988866D01*
X132021768Y-90988866D01*
X132021769Y-90988867D01*
X132080252Y-91000500D01*
X132080254Y-91000500D01*
X133719746Y-91000500D01*
X133719748Y-91000500D01*
X133778231Y-90988867D01*
X133844552Y-90944552D01*
X133888867Y-90878231D01*
X133900500Y-90819748D01*
X133900500Y-89180252D01*
X133892282Y-89138936D01*
X133899983Y-89088906D01*
X133938040Y-89055531D01*
X133964860Y-89050500D01*
X140357559Y-89050500D01*
X140364008Y-89050781D01*
X140375916Y-89051823D01*
X140403805Y-89054264D01*
X140403805Y-89054263D01*
X140403807Y-89054264D01*
X140442413Y-89043918D01*
X140448703Y-89042524D01*
X140488045Y-89035588D01*
X140492194Y-89033191D01*
X140510055Y-89025794D01*
X140510059Y-89025793D01*
X140514684Y-89024554D01*
X140547410Y-89001638D01*
X140552851Y-88998172D01*
X140587455Y-88978194D01*
X140613150Y-88947570D01*
X140617494Y-88942831D01*
X141021880Y-88538444D01*
X141067755Y-88517053D01*
X141109088Y-88525509D01*
X141115261Y-88528808D01*
X141115264Y-88528809D01*
X141115273Y-88528814D01*
X141303868Y-88586024D01*
X141500000Y-88605341D01*
X141696132Y-88586024D01*
X141884727Y-88528814D01*
X142058538Y-88435910D01*
X142210883Y-88310883D01*
X142335910Y-88158538D01*
X142428814Y-87984727D01*
X142486024Y-87796132D01*
X142505341Y-87600000D01*
X142486024Y-87403868D01*
X142428814Y-87215273D01*
X142428812Y-87215270D01*
X142428812Y-87215268D01*
X142345036Y-87058536D01*
X142335910Y-87041462D01*
X142210883Y-86889117D01*
X142058538Y-86764090D01*
X142048597Y-86758776D01*
X141884731Y-86671187D01*
X141696133Y-86613976D01*
X141500000Y-86594659D01*
X141303866Y-86613976D01*
X141115268Y-86671187D01*
X140941463Y-86764089D01*
X140789117Y-86889117D01*
X140664089Y-87041463D01*
X140571187Y-87215268D01*
X140513976Y-87403866D01*
X140494659Y-87600000D01*
X140513976Y-87796133D01*
X140571187Y-87984731D01*
X140574490Y-87990909D01*
X140581644Y-88041019D01*
X140561554Y-88078118D01*
X140261848Y-88377826D01*
X140215972Y-88399218D01*
X140209522Y-88399500D01*
X139754616Y-88399500D01*
X139707050Y-88382187D01*
X139681740Y-88338350D01*
X139690530Y-88288500D01*
X139697409Y-88278560D01*
X139795910Y-88158538D01*
X139888814Y-87984727D01*
X139946024Y-87796132D01*
X139965341Y-87600000D01*
X139946024Y-87403868D01*
X139888814Y-87215273D01*
X139888812Y-87215270D01*
X139888812Y-87215268D01*
X139805036Y-87058536D01*
X139795910Y-87041462D01*
X139670883Y-86889117D01*
X139518538Y-86764090D01*
X139508597Y-86758776D01*
X139344731Y-86671187D01*
X139156133Y-86613976D01*
X138960000Y-86594659D01*
X138763866Y-86613976D01*
X138575268Y-86671187D01*
X138401463Y-86764089D01*
X138249117Y-86889117D01*
X138124089Y-87041463D01*
X138031187Y-87215268D01*
X137973976Y-87403866D01*
X137954659Y-87600000D01*
X137973976Y-87796133D01*
X138031187Y-87984731D01*
X138124089Y-88158537D01*
X138124090Y-88158538D01*
X138222586Y-88278555D01*
X138239380Y-88326307D01*
X138221549Y-88373681D01*
X138177439Y-88398512D01*
X138165384Y-88399500D01*
X127450478Y-88399500D01*
X127402912Y-88382187D01*
X127398152Y-88377826D01*
X125520326Y-86500000D01*
X131894659Y-86500000D01*
X131913976Y-86696133D01*
X131971187Y-86884731D01*
X132054963Y-87041462D01*
X132064090Y-87058538D01*
X132189117Y-87210883D01*
X132341462Y-87335910D01*
X132418426Y-87377048D01*
X132515268Y-87428812D01*
X132515270Y-87428812D01*
X132515273Y-87428814D01*
X132703868Y-87486024D01*
X132900000Y-87505341D01*
X133096132Y-87486024D01*
X133284727Y-87428814D01*
X133458538Y-87335910D01*
X133610883Y-87210883D01*
X133735910Y-87058538D01*
X133818187Y-86904608D01*
X133828812Y-86884731D01*
X133828812Y-86884730D01*
X133828814Y-86884727D01*
X133886024Y-86696132D01*
X133905341Y-86500000D01*
X133886024Y-86303868D01*
X133828814Y-86115273D01*
X133828812Y-86115270D01*
X133828812Y-86115268D01*
X133777048Y-86018426D01*
X133735910Y-85941462D01*
X133610883Y-85789117D01*
X133458538Y-85664090D01*
X133448597Y-85658776D01*
X133284731Y-85571187D01*
X133096133Y-85513976D01*
X132900000Y-85494659D01*
X132703866Y-85513976D01*
X132515268Y-85571187D01*
X132341463Y-85664089D01*
X132189117Y-85789117D01*
X132064089Y-85941463D01*
X131971187Y-86115268D01*
X131913976Y-86303866D01*
X131894659Y-86500000D01*
X125520326Y-86500000D01*
X122360580Y-83340254D01*
X122339188Y-83294378D01*
X122352289Y-83245483D01*
X122354371Y-83242655D01*
X122428448Y-83146958D01*
X122518060Y-82964271D01*
X122569063Y-82767285D01*
X122574203Y-82665936D01*
X127390631Y-82665936D01*
X127421444Y-82867071D01*
X127457442Y-82964268D01*
X127492114Y-83057887D01*
X127554848Y-83158536D01*
X127599748Y-83230571D01*
X127739941Y-83378053D01*
X127906951Y-83494295D01*
X128093942Y-83574540D01*
X128093947Y-83574541D01*
X128293252Y-83615499D01*
X128293257Y-83615499D01*
X128293259Y-83615500D01*
X128293260Y-83615500D01*
X129245741Y-83615500D01*
X129245742Y-83615500D01*
X129295341Y-83610456D01*
X129397434Y-83600075D01*
X129397435Y-83600074D01*
X129397438Y-83600074D01*
X129591588Y-83539159D01*
X129769502Y-83440409D01*
X129923895Y-83307866D01*
X130048448Y-83146958D01*
X130138060Y-82964271D01*
X130154701Y-82900000D01*
X137954659Y-82900000D01*
X137973976Y-83096133D01*
X138031187Y-83284731D01*
X138111995Y-83435910D01*
X138124090Y-83458538D01*
X138249117Y-83610883D01*
X138401462Y-83735910D01*
X138478426Y-83777048D01*
X138575268Y-83828812D01*
X138575270Y-83828812D01*
X138575273Y-83828814D01*
X138763868Y-83886024D01*
X138960000Y-83905341D01*
X139156132Y-83886024D01*
X139344727Y-83828814D01*
X139518538Y-83735910D01*
X139670883Y-83610883D01*
X139795910Y-83458538D01*
X139888814Y-83284727D01*
X139946024Y-83096132D01*
X139965341Y-82900000D01*
X140494659Y-82900000D01*
X140513976Y-83096133D01*
X140571187Y-83284731D01*
X140651995Y-83435910D01*
X140664090Y-83458538D01*
X140789117Y-83610883D01*
X140941462Y-83735910D01*
X141018426Y-83777048D01*
X141115268Y-83828812D01*
X141115270Y-83828812D01*
X141115273Y-83828814D01*
X141303868Y-83886024D01*
X141500000Y-83905341D01*
X141696132Y-83886024D01*
X141884727Y-83828814D01*
X142058538Y-83735910D01*
X142210883Y-83610883D01*
X142335910Y-83458538D01*
X142428814Y-83284727D01*
X142486024Y-83096132D01*
X142505341Y-82900000D01*
X142486024Y-82703868D01*
X142428814Y-82515273D01*
X142428812Y-82515270D01*
X142428812Y-82515268D01*
X142347384Y-82362929D01*
X142335910Y-82341462D01*
X142210883Y-82189117D01*
X142058538Y-82064090D01*
X142016204Y-82041462D01*
X141884731Y-81971187D01*
X141696133Y-81913976D01*
X141500000Y-81894659D01*
X141303866Y-81913976D01*
X141115268Y-81971187D01*
X140941463Y-82064089D01*
X140789117Y-82189117D01*
X140664089Y-82341463D01*
X140571187Y-82515268D01*
X140513976Y-82703866D01*
X140494659Y-82900000D01*
X139965341Y-82900000D01*
X139946024Y-82703868D01*
X139888814Y-82515273D01*
X139888812Y-82515270D01*
X139888812Y-82515268D01*
X139807384Y-82362929D01*
X139795910Y-82341462D01*
X139670883Y-82189117D01*
X139518538Y-82064090D01*
X139476204Y-82041462D01*
X139344731Y-81971187D01*
X139156133Y-81913976D01*
X138960000Y-81894659D01*
X138763866Y-81913976D01*
X138575268Y-81971187D01*
X138401463Y-82064089D01*
X138249117Y-82189117D01*
X138124089Y-82341463D01*
X138031187Y-82515268D01*
X137973976Y-82703866D01*
X137954659Y-82900000D01*
X130154701Y-82900000D01*
X130189063Y-82767285D01*
X130199369Y-82564064D01*
X130168556Y-82362929D01*
X130097886Y-82172113D01*
X129990252Y-81999429D01*
X129850059Y-81851947D01*
X129795504Y-81813976D01*
X129723831Y-81764090D01*
X129683049Y-81735705D01*
X129496058Y-81655460D01*
X129496052Y-81655458D01*
X129296747Y-81614500D01*
X129296741Y-81614500D01*
X128344258Y-81614500D01*
X128344250Y-81614500D01*
X128192565Y-81629924D01*
X128192560Y-81629926D01*
X127998417Y-81690838D01*
X127998412Y-81690840D01*
X127820498Y-81789591D01*
X127820495Y-81789593D01*
X127666104Y-81922135D01*
X127666099Y-81922140D01*
X127541551Y-82083043D01*
X127451941Y-82265727D01*
X127451939Y-82265731D01*
X127400936Y-82462718D01*
X127390631Y-82665934D01*
X127390631Y-82665936D01*
X122574203Y-82665936D01*
X122579369Y-82564064D01*
X122548556Y-82362929D01*
X122477886Y-82172113D01*
X122370252Y-81999429D01*
X122230059Y-81851947D01*
X122175504Y-81813976D01*
X122103831Y-81764090D01*
X122063049Y-81735705D01*
X121876058Y-81655460D01*
X121876052Y-81655458D01*
X121676747Y-81614500D01*
X121676741Y-81614500D01*
X120724258Y-81614500D01*
X120724250Y-81614500D01*
X120572565Y-81629924D01*
X120572560Y-81629926D01*
X120378417Y-81690838D01*
X120378412Y-81690840D01*
X120200498Y-81789591D01*
X120200495Y-81789593D01*
X120046104Y-81922135D01*
X120046099Y-81922140D01*
X119921551Y-82083043D01*
X119831941Y-82265727D01*
X119831939Y-82265731D01*
X119780936Y-82462718D01*
X119770631Y-82665934D01*
X119770631Y-82665936D01*
X117998847Y-82665936D01*
X118005341Y-82600000D01*
X117986024Y-82403868D01*
X117928814Y-82215273D01*
X117928812Y-82215270D01*
X117928812Y-82215268D01*
X117861382Y-82089117D01*
X117835910Y-82041462D01*
X117710883Y-81889117D01*
X117558538Y-81764090D01*
X117548597Y-81758776D01*
X117384731Y-81671187D01*
X117196133Y-81613976D01*
X117000000Y-81594659D01*
X116803866Y-81613976D01*
X116615268Y-81671187D01*
X116441463Y-81764089D01*
X116289117Y-81889117D01*
X116164089Y-82041463D01*
X116071187Y-82215268D01*
X116013976Y-82403866D01*
X115994659Y-82600000D01*
X113524851Y-82600000D01*
X113468814Y-82415273D01*
X113468812Y-82415270D01*
X113468812Y-82415268D01*
X113388880Y-82265727D01*
X113375910Y-82241462D01*
X113250883Y-82089117D01*
X113098538Y-81964090D01*
X113088597Y-81958776D01*
X112924731Y-81871187D01*
X112736133Y-81813976D01*
X112540000Y-81794659D01*
X112343866Y-81813976D01*
X112155268Y-81871187D01*
X111981463Y-81964089D01*
X111829117Y-82089117D01*
X111704089Y-82241463D01*
X111611187Y-82415268D01*
X111553976Y-82603866D01*
X111534659Y-82800000D01*
X111005341Y-82800000D01*
X110986024Y-82603868D01*
X110928814Y-82415273D01*
X110928812Y-82415270D01*
X110928812Y-82415268D01*
X110848880Y-82265727D01*
X110835910Y-82241462D01*
X110710883Y-82089117D01*
X110558538Y-81964090D01*
X110548597Y-81958776D01*
X110384731Y-81871187D01*
X110196133Y-81813976D01*
X110000000Y-81794659D01*
X109803866Y-81813976D01*
X109615268Y-81871187D01*
X109441463Y-81964089D01*
X109289117Y-82089117D01*
X109164089Y-82241463D01*
X109071187Y-82415268D01*
X109013976Y-82603866D01*
X108994659Y-82800000D01*
X100000500Y-82800000D01*
X100000500Y-80125936D01*
X119770631Y-80125936D01*
X119801444Y-80327071D01*
X119872114Y-80517887D01*
X119979748Y-80690571D01*
X120119941Y-80838053D01*
X120286951Y-80954295D01*
X120473942Y-81034540D01*
X120473947Y-81034541D01*
X120673252Y-81075499D01*
X120673257Y-81075499D01*
X120673259Y-81075500D01*
X120673260Y-81075500D01*
X121625741Y-81075500D01*
X121625742Y-81075500D01*
X121675341Y-81070456D01*
X121777434Y-81060075D01*
X121777435Y-81060074D01*
X121777438Y-81060074D01*
X121971588Y-80999159D01*
X122149502Y-80900409D01*
X122303895Y-80767866D01*
X122428448Y-80606958D01*
X122518060Y-80424271D01*
X122569063Y-80227285D01*
X122579369Y-80024064D01*
X122548556Y-79822929D01*
X122477886Y-79632113D01*
X122370252Y-79459429D01*
X122230059Y-79311947D01*
X122063049Y-79195705D01*
X121876058Y-79115460D01*
X121876052Y-79115458D01*
X121676747Y-79074500D01*
X121676741Y-79074500D01*
X120724258Y-79074500D01*
X120724250Y-79074500D01*
X120572565Y-79089924D01*
X120572560Y-79089926D01*
X120378417Y-79150838D01*
X120378412Y-79150840D01*
X120200498Y-79249591D01*
X120200495Y-79249593D01*
X120046104Y-79382135D01*
X120046099Y-79382140D01*
X119921551Y-79543043D01*
X119831941Y-79725727D01*
X119831939Y-79725731D01*
X119780936Y-79922718D01*
X119775797Y-80024064D01*
X119770631Y-80125936D01*
X100000500Y-80125936D01*
X100000500Y-77500003D01*
X111195287Y-77500003D01*
X111214095Y-77702984D01*
X111269884Y-77899062D01*
X111269886Y-77899067D01*
X111360754Y-78081557D01*
X111360756Y-78081560D01*
X111423379Y-78164486D01*
X111930997Y-77656868D01*
X111972359Y-77738045D01*
X112061955Y-77827641D01*
X112143129Y-77869001D01*
X111632320Y-78379810D01*
X111634255Y-78381575D01*
X111634258Y-78381577D01*
X111807582Y-78488895D01*
X111807591Y-78488900D01*
X111997679Y-78562540D01*
X112198066Y-78599999D01*
X112198072Y-78600000D01*
X112401928Y-78600000D01*
X112401933Y-78599999D01*
X112602320Y-78562540D01*
X112792408Y-78488900D01*
X112792417Y-78488895D01*
X112965738Y-78381579D01*
X112967677Y-78379810D01*
X112967677Y-78379809D01*
X112456869Y-77869001D01*
X112538045Y-77827641D01*
X112627641Y-77738045D01*
X112669001Y-77656869D01*
X113176619Y-78164487D01*
X113239243Y-78081559D01*
X113239245Y-78081557D01*
X113330113Y-77899067D01*
X113330115Y-77899062D01*
X113385904Y-77702984D01*
X113404713Y-77500003D01*
X113404713Y-77500000D01*
X116294659Y-77500000D01*
X116313976Y-77696133D01*
X116371187Y-77884731D01*
X116420981Y-77977887D01*
X116464090Y-78058538D01*
X116589117Y-78210883D01*
X116741462Y-78335910D01*
X116818426Y-78377048D01*
X116915268Y-78428812D01*
X116915270Y-78428812D01*
X116915273Y-78428814D01*
X117103868Y-78486024D01*
X117300000Y-78505341D01*
X117496132Y-78486024D01*
X117684727Y-78428814D01*
X117858538Y-78335910D01*
X118010883Y-78210883D01*
X118135910Y-78058538D01*
X118228814Y-77884727D01*
X118286024Y-77696132D01*
X118296877Y-77585936D01*
X119770631Y-77585936D01*
X119801444Y-77787071D01*
X119843268Y-77900000D01*
X119872114Y-77977887D01*
X119936731Y-78081557D01*
X119979748Y-78150571D01*
X120119941Y-78298053D01*
X120286951Y-78414295D01*
X120473942Y-78494540D01*
X120473947Y-78494541D01*
X120673252Y-78535499D01*
X120673257Y-78535499D01*
X120673259Y-78535500D01*
X120673260Y-78535500D01*
X121625741Y-78535500D01*
X121625742Y-78535500D01*
X121675341Y-78530456D01*
X121777434Y-78520075D01*
X121777435Y-78520074D01*
X121777438Y-78520074D01*
X121971588Y-78459159D01*
X122149502Y-78360409D01*
X122303895Y-78227866D01*
X122428448Y-78066958D01*
X122518060Y-77884271D01*
X122569063Y-77687285D01*
X122579369Y-77484064D01*
X122548556Y-77282929D01*
X122477886Y-77092113D01*
X122370252Y-76919429D01*
X122230059Y-76771947D01*
X122063049Y-76655705D01*
X121980285Y-76620188D01*
X121876058Y-76575460D01*
X121876052Y-76575458D01*
X121676747Y-76534500D01*
X121676741Y-76534500D01*
X120724258Y-76534500D01*
X120724250Y-76534500D01*
X120572565Y-76549924D01*
X120572560Y-76549926D01*
X120378417Y-76610838D01*
X120378412Y-76610840D01*
X120200498Y-76709591D01*
X120200495Y-76709593D01*
X120046104Y-76842135D01*
X120046099Y-76842140D01*
X119921551Y-77003043D01*
X119831941Y-77185727D01*
X119831939Y-77185731D01*
X119780936Y-77382718D01*
X119775797Y-77484064D01*
X119770631Y-77585936D01*
X118296877Y-77585936D01*
X118305341Y-77500000D01*
X118286024Y-77303868D01*
X118228814Y-77115273D01*
X118228812Y-77115270D01*
X118228812Y-77115268D01*
X118168825Y-77003042D01*
X118135910Y-76941462D01*
X118010883Y-76789117D01*
X117858538Y-76664090D01*
X117842849Y-76655704D01*
X117684731Y-76571187D01*
X117496133Y-76513976D01*
X117300000Y-76494659D01*
X117103866Y-76513976D01*
X116915268Y-76571187D01*
X116741463Y-76664089D01*
X116589117Y-76789117D01*
X116464089Y-76941463D01*
X116371187Y-77115268D01*
X116313976Y-77303866D01*
X116294659Y-77500000D01*
X113404713Y-77500000D01*
X113404713Y-77499996D01*
X113385904Y-77297015D01*
X113330115Y-77100937D01*
X113330113Y-77100932D01*
X113239245Y-76918442D01*
X113239243Y-76918439D01*
X113176618Y-76835511D01*
X112669001Y-77343129D01*
X112627641Y-77261955D01*
X112538045Y-77172359D01*
X112456868Y-77130997D01*
X112967677Y-76620189D01*
X112965736Y-76618418D01*
X112792417Y-76511104D01*
X112792408Y-76511099D01*
X112602320Y-76437459D01*
X112401933Y-76400000D01*
X112198066Y-76400000D01*
X111997679Y-76437459D01*
X111807591Y-76511099D01*
X111807582Y-76511104D01*
X111634262Y-76618419D01*
X111634262Y-76618420D01*
X111632321Y-76620188D01*
X112143130Y-77130998D01*
X112061955Y-77172359D01*
X111972359Y-77261955D01*
X111930998Y-77343130D01*
X111423379Y-76835511D01*
X111360754Y-76918443D01*
X111360753Y-76918445D01*
X111269886Y-77100932D01*
X111269884Y-77100937D01*
X111214095Y-77297015D01*
X111195287Y-77499996D01*
X111195287Y-77500003D01*
X100000500Y-77500003D01*
X100000500Y-76415001D01*
X103858972Y-76415001D01*
X103864736Y-76477204D01*
X103864738Y-76477218D01*
X103923061Y-76682202D01*
X103923064Y-76682212D01*
X104018059Y-76872988D01*
X104018063Y-76872994D01*
X104146501Y-77043071D01*
X104304003Y-77186653D01*
X104485200Y-77298844D01*
X104485210Y-77298849D01*
X104683935Y-77375836D01*
X104849999Y-77406879D01*
X104850000Y-77406879D01*
X104850000Y-76746170D01*
X104857685Y-76749680D01*
X104964237Y-76765000D01*
X105035763Y-76765000D01*
X105142315Y-76749680D01*
X105150000Y-76746170D01*
X105150000Y-77406879D01*
X105316064Y-77375836D01*
X105514789Y-77298849D01*
X105514799Y-77298844D01*
X105695996Y-77186653D01*
X105853498Y-77043071D01*
X105981936Y-76872994D01*
X105981940Y-76872988D01*
X106076935Y-76682212D01*
X106076938Y-76682202D01*
X106135261Y-76477218D01*
X106135263Y-76477204D01*
X106141027Y-76415001D01*
X106141026Y-76415000D01*
X105477065Y-76415000D01*
X105500000Y-76336889D01*
X105500000Y-76193111D01*
X105477065Y-76115000D01*
X106141026Y-76115000D01*
X106141027Y-76114998D01*
X106135263Y-76052795D01*
X106135261Y-76052781D01*
X106076938Y-75847797D01*
X106076935Y-75847787D01*
X105981940Y-75657011D01*
X105981936Y-75657005D01*
X105853498Y-75486928D01*
X105695996Y-75343346D01*
X105514799Y-75231155D01*
X105514789Y-75231150D01*
X105316063Y-75154162D01*
X105150000Y-75123119D01*
X105150000Y-75783829D01*
X105142315Y-75780320D01*
X105035763Y-75765000D01*
X104964237Y-75765000D01*
X104857685Y-75780320D01*
X104850000Y-75783829D01*
X104850000Y-75123119D01*
X104849999Y-75123119D01*
X104683936Y-75154162D01*
X104485210Y-75231150D01*
X104485200Y-75231155D01*
X104304003Y-75343346D01*
X104146501Y-75486928D01*
X104018063Y-75657005D01*
X104018059Y-75657011D01*
X103923064Y-75847787D01*
X103923061Y-75847797D01*
X103864738Y-76052781D01*
X103864736Y-76052795D01*
X103858972Y-76114998D01*
X103858974Y-76115000D01*
X104522935Y-76115000D01*
X104500000Y-76193111D01*
X104500000Y-76336889D01*
X104522935Y-76415000D01*
X103858974Y-76415000D01*
X103858972Y-76415001D01*
X100000500Y-76415001D01*
X100000500Y-74594748D01*
X103949500Y-74594748D01*
X103952501Y-74609835D01*
X103961133Y-74653232D01*
X103970573Y-74667359D01*
X104005448Y-74719552D01*
X104040429Y-74742926D01*
X104071767Y-74763866D01*
X104071768Y-74763866D01*
X104071769Y-74763867D01*
X104130252Y-74775500D01*
X104130254Y-74775500D01*
X105869746Y-74775500D01*
X105869748Y-74775500D01*
X105928231Y-74763867D01*
X105994552Y-74719552D01*
X106038867Y-74653231D01*
X106050500Y-74594748D01*
X106050500Y-72855252D01*
X106038867Y-72796769D01*
X105994552Y-72730448D01*
X105967141Y-72712132D01*
X105928232Y-72686133D01*
X105928233Y-72686133D01*
X105898989Y-72680316D01*
X105869748Y-72674500D01*
X104130252Y-72674500D01*
X104101010Y-72680316D01*
X104071767Y-72686133D01*
X104005449Y-72730447D01*
X104005447Y-72730449D01*
X103961133Y-72796767D01*
X103959128Y-72806847D01*
X103949500Y-72855252D01*
X103949500Y-74594748D01*
X100000500Y-74594748D01*
X100000500Y-72500003D01*
X111195287Y-72500003D01*
X111214095Y-72702984D01*
X111269884Y-72899062D01*
X111269886Y-72899067D01*
X111360754Y-73081557D01*
X111360756Y-73081560D01*
X111423379Y-73164486D01*
X111930997Y-72656868D01*
X111972359Y-72738045D01*
X112061955Y-72827641D01*
X112143129Y-72869001D01*
X111632320Y-73379810D01*
X111634255Y-73381575D01*
X111634258Y-73381577D01*
X111807582Y-73488895D01*
X111807591Y-73488900D01*
X111997679Y-73562540D01*
X112198066Y-73599999D01*
X112198072Y-73600000D01*
X112401928Y-73600000D01*
X112401933Y-73599999D01*
X112602320Y-73562540D01*
X112792408Y-73488900D01*
X112792417Y-73488895D01*
X112965738Y-73381579D01*
X112967677Y-73379810D01*
X112967677Y-73379809D01*
X112456869Y-72869001D01*
X112538045Y-72827641D01*
X112627641Y-72738045D01*
X112669001Y-72656869D01*
X113176619Y-73164487D01*
X113239243Y-73081559D01*
X113239245Y-73081557D01*
X113330113Y-72899067D01*
X113330115Y-72899062D01*
X113385904Y-72702984D01*
X113404713Y-72500003D01*
X113404713Y-72500000D01*
X116294659Y-72500000D01*
X116313976Y-72696133D01*
X116371187Y-72884731D01*
X116429434Y-72993702D01*
X116464090Y-73058538D01*
X116589117Y-73210883D01*
X116741462Y-73335910D01*
X116818426Y-73377048D01*
X116915268Y-73428812D01*
X116915270Y-73428812D01*
X116915273Y-73428814D01*
X117103868Y-73486024D01*
X117300000Y-73505341D01*
X117496132Y-73486024D01*
X117684727Y-73428814D01*
X117858538Y-73335910D01*
X118010883Y-73210883D01*
X118135910Y-73058538D01*
X118228814Y-72884727D01*
X118286024Y-72696132D01*
X118305341Y-72500000D01*
X118286024Y-72303868D01*
X118228814Y-72115273D01*
X118228812Y-72115270D01*
X118228812Y-72115268D01*
X118167199Y-72000000D01*
X118135910Y-71941462D01*
X118010883Y-71789117D01*
X117858538Y-71664090D01*
X117793999Y-71629593D01*
X117684731Y-71571187D01*
X117496133Y-71513976D01*
X117300000Y-71494659D01*
X117103866Y-71513976D01*
X116915268Y-71571187D01*
X116741463Y-71664089D01*
X116589117Y-71789117D01*
X116464089Y-71941463D01*
X116371187Y-72115268D01*
X116313976Y-72303866D01*
X116294659Y-72500000D01*
X113404713Y-72500000D01*
X113404713Y-72499996D01*
X113385904Y-72297015D01*
X113330115Y-72100937D01*
X113330113Y-72100932D01*
X113239245Y-71918442D01*
X113239243Y-71918439D01*
X113176618Y-71835511D01*
X112669001Y-72343129D01*
X112627641Y-72261955D01*
X112538045Y-72172359D01*
X112456868Y-72130997D01*
X112967677Y-71620189D01*
X112965736Y-71618418D01*
X112792417Y-71511104D01*
X112792408Y-71511099D01*
X112602320Y-71437459D01*
X112401933Y-71400000D01*
X112198066Y-71400000D01*
X111997679Y-71437459D01*
X111807591Y-71511099D01*
X111807582Y-71511104D01*
X111634262Y-71618419D01*
X111634262Y-71618420D01*
X111632321Y-71620188D01*
X112143130Y-72130998D01*
X112061955Y-72172359D01*
X111972359Y-72261955D01*
X111930998Y-72343130D01*
X111423379Y-71835511D01*
X111360754Y-71918443D01*
X111360753Y-71918445D01*
X111269886Y-72100932D01*
X111269884Y-72100937D01*
X111214095Y-72297015D01*
X111195287Y-72499996D01*
X111195287Y-72500003D01*
X100000500Y-72500003D01*
X100000500Y-68800000D01*
X103994659Y-68800000D01*
X104013976Y-68996133D01*
X104071187Y-69184731D01*
X104158776Y-69348597D01*
X104164090Y-69358538D01*
X104289117Y-69510883D01*
X104441462Y-69635910D01*
X104492011Y-69662929D01*
X104615268Y-69728812D01*
X104615270Y-69728812D01*
X104615273Y-69728814D01*
X104803868Y-69786024D01*
X105000000Y-69805341D01*
X105196132Y-69786024D01*
X105384727Y-69728814D01*
X105558538Y-69635910D01*
X105710883Y-69510883D01*
X105835910Y-69358538D01*
X105928814Y-69184727D01*
X105986024Y-68996132D01*
X106005341Y-68800000D01*
X105986024Y-68603868D01*
X105928814Y-68415273D01*
X105928812Y-68415270D01*
X105928812Y-68415268D01*
X105842201Y-68253232D01*
X105835910Y-68241462D01*
X105710883Y-68089117D01*
X105558538Y-67964090D01*
X105548147Y-67958536D01*
X105384731Y-67871187D01*
X105196133Y-67813976D01*
X105000000Y-67794659D01*
X104803866Y-67813976D01*
X104615268Y-67871187D01*
X104441463Y-67964089D01*
X104289117Y-68089117D01*
X104164089Y-68241463D01*
X104071187Y-68415268D01*
X104013976Y-68603866D01*
X103994659Y-68800000D01*
X100000500Y-68800000D01*
X100000500Y-67700000D01*
X108994659Y-67700000D01*
X109013976Y-67896133D01*
X109071187Y-68084731D01*
X109151995Y-68235910D01*
X109164090Y-68258538D01*
X109289117Y-68410883D01*
X109441462Y-68535910D01*
X109518426Y-68577048D01*
X109615268Y-68628812D01*
X109615270Y-68628812D01*
X109615273Y-68628814D01*
X109803868Y-68686024D01*
X110000000Y-68705341D01*
X110196132Y-68686024D01*
X110384727Y-68628814D01*
X110558538Y-68535910D01*
X110710883Y-68410883D01*
X110835910Y-68258538D01*
X110918187Y-68104608D01*
X110928812Y-68084731D01*
X110928812Y-68084730D01*
X110928814Y-68084727D01*
X110986024Y-67896132D01*
X111005341Y-67700000D01*
X111534659Y-67700000D01*
X111553976Y-67896133D01*
X111611187Y-68084731D01*
X111691995Y-68235910D01*
X111704090Y-68258538D01*
X111829117Y-68410883D01*
X111981462Y-68535910D01*
X112058426Y-68577048D01*
X112155268Y-68628812D01*
X112155270Y-68628812D01*
X112155273Y-68628814D01*
X112343868Y-68686024D01*
X112540000Y-68705341D01*
X112736132Y-68686024D01*
X112924727Y-68628814D01*
X113098538Y-68535910D01*
X113250883Y-68410883D01*
X113375910Y-68258538D01*
X113458187Y-68104608D01*
X113468812Y-68084731D01*
X113468812Y-68084730D01*
X113468814Y-68084727D01*
X113526024Y-67896132D01*
X113545341Y-67700000D01*
X113526024Y-67503868D01*
X113494516Y-67400000D01*
X115994659Y-67400000D01*
X116013976Y-67596133D01*
X116071187Y-67784731D01*
X116136519Y-67906956D01*
X116164090Y-67958538D01*
X116289117Y-68110883D01*
X116441462Y-68235910D01*
X116483796Y-68258538D01*
X116615268Y-68328812D01*
X116615270Y-68328812D01*
X116615273Y-68328814D01*
X116803868Y-68386024D01*
X117000000Y-68405341D01*
X117196132Y-68386024D01*
X117384727Y-68328814D01*
X117558538Y-68235910D01*
X117710883Y-68110883D01*
X117835910Y-67958538D01*
X117928814Y-67784727D01*
X117986024Y-67596132D01*
X118005341Y-67400000D01*
X117986024Y-67203868D01*
X117928814Y-67015273D01*
X117928812Y-67015270D01*
X117928812Y-67015268D01*
X117836755Y-66843043D01*
X117835910Y-66841462D01*
X117710883Y-66689117D01*
X117558538Y-66564090D01*
X117531416Y-66549593D01*
X117384731Y-66471187D01*
X117196133Y-66413976D01*
X117000000Y-66394659D01*
X116803866Y-66413976D01*
X116615268Y-66471187D01*
X116441463Y-66564089D01*
X116289117Y-66689117D01*
X116164089Y-66841463D01*
X116071187Y-67015268D01*
X116013976Y-67203866D01*
X115994659Y-67400000D01*
X113494516Y-67400000D01*
X113468814Y-67315273D01*
X113468812Y-67315270D01*
X113468812Y-67315268D01*
X113407199Y-67200000D01*
X113375910Y-67141462D01*
X113250883Y-66989117D01*
X113098538Y-66864090D01*
X113056204Y-66841462D01*
X112924731Y-66771187D01*
X112736133Y-66713976D01*
X112540000Y-66694659D01*
X112343866Y-66713976D01*
X112155268Y-66771187D01*
X111981463Y-66864089D01*
X111829117Y-66989117D01*
X111704089Y-67141463D01*
X111611187Y-67315268D01*
X111553976Y-67503866D01*
X111534659Y-67700000D01*
X111005341Y-67700000D01*
X110986024Y-67503868D01*
X110928814Y-67315273D01*
X110928812Y-67315270D01*
X110928812Y-67315268D01*
X110867199Y-67200000D01*
X110835910Y-67141462D01*
X110710883Y-66989117D01*
X110558538Y-66864090D01*
X110516204Y-66841462D01*
X110384731Y-66771187D01*
X110196133Y-66713976D01*
X110000000Y-66694659D01*
X109803866Y-66713976D01*
X109615268Y-66771187D01*
X109441463Y-66864089D01*
X109289117Y-66989117D01*
X109164089Y-67141463D01*
X109071187Y-67315268D01*
X109013976Y-67503866D01*
X108994659Y-67700000D01*
X100000500Y-67700000D01*
X100000500Y-63800000D01*
X103994659Y-63800000D01*
X104013976Y-63996133D01*
X104071187Y-64184731D01*
X104124637Y-64284727D01*
X104164090Y-64358538D01*
X104289117Y-64510883D01*
X104441462Y-64635910D01*
X104518426Y-64677048D01*
X104615268Y-64728812D01*
X104615270Y-64728812D01*
X104615273Y-64728814D01*
X104803868Y-64786024D01*
X105000000Y-64805341D01*
X105196132Y-64786024D01*
X105384727Y-64728814D01*
X105558538Y-64635910D01*
X105710883Y-64510883D01*
X105835910Y-64358538D01*
X105928814Y-64184727D01*
X105986024Y-63996132D01*
X106005341Y-63800000D01*
X105986024Y-63603868D01*
X105928814Y-63415273D01*
X105928812Y-63415270D01*
X105928812Y-63415268D01*
X105877048Y-63318426D01*
X105835910Y-63241462D01*
X105710883Y-63089117D01*
X105602294Y-63000000D01*
X108994659Y-63000000D01*
X109013976Y-63196133D01*
X109071187Y-63384731D01*
X109140964Y-63515273D01*
X109164090Y-63558538D01*
X109289117Y-63710883D01*
X109441462Y-63835910D01*
X109518426Y-63877048D01*
X109615268Y-63928812D01*
X109615270Y-63928812D01*
X109615273Y-63928814D01*
X109803868Y-63986024D01*
X110000000Y-64005341D01*
X110196132Y-63986024D01*
X110384727Y-63928814D01*
X110558538Y-63835910D01*
X110710883Y-63710883D01*
X110835910Y-63558538D01*
X110928814Y-63384727D01*
X110986024Y-63196132D01*
X111005341Y-63000000D01*
X111534659Y-63000000D01*
X111553976Y-63196133D01*
X111611187Y-63384731D01*
X111680964Y-63515273D01*
X111704090Y-63558538D01*
X111829117Y-63710883D01*
X111981462Y-63835910D01*
X112058426Y-63877048D01*
X112155268Y-63928812D01*
X112155270Y-63928812D01*
X112155273Y-63928814D01*
X112343868Y-63986024D01*
X112540000Y-64005341D01*
X112736132Y-63986024D01*
X112924727Y-63928814D01*
X113098538Y-63835910D01*
X113250883Y-63710883D01*
X113375910Y-63558538D01*
X113468814Y-63384727D01*
X113526024Y-63196132D01*
X113545341Y-63000000D01*
X113526024Y-62803868D01*
X113468814Y-62615273D01*
X113468812Y-62615270D01*
X113468812Y-62615268D01*
X113410077Y-62505384D01*
X113375910Y-62441462D01*
X113341883Y-62400000D01*
X115994659Y-62400000D01*
X116013976Y-62596133D01*
X116071187Y-62784731D01*
X116129946Y-62894659D01*
X116164090Y-62958538D01*
X116289117Y-63110883D01*
X116441462Y-63235910D01*
X116518426Y-63277048D01*
X116615268Y-63328812D01*
X116615270Y-63328812D01*
X116615273Y-63328814D01*
X116803868Y-63386024D01*
X117000000Y-63405341D01*
X117196132Y-63386024D01*
X117384727Y-63328814D01*
X117558538Y-63235910D01*
X117710883Y-63110883D01*
X117835910Y-62958538D01*
X117928814Y-62784727D01*
X117986024Y-62596132D01*
X118005341Y-62400000D01*
X117986024Y-62203868D01*
X117928814Y-62015273D01*
X117928812Y-62015270D01*
X117928812Y-62015268D01*
X117867466Y-61900500D01*
X117835910Y-61841462D01*
X117710883Y-61689117D01*
X117558538Y-61564090D01*
X117548597Y-61558776D01*
X117384731Y-61471187D01*
X117196133Y-61413976D01*
X117000000Y-61394659D01*
X116803866Y-61413976D01*
X116615268Y-61471187D01*
X116441463Y-61564089D01*
X116289117Y-61689117D01*
X116164089Y-61841463D01*
X116071187Y-62015268D01*
X116013976Y-62203866D01*
X115994659Y-62400000D01*
X113341883Y-62400000D01*
X113250883Y-62289117D01*
X113098538Y-62164090D01*
X113088597Y-62158776D01*
X112924731Y-62071187D01*
X112736133Y-62013976D01*
X112540000Y-61994659D01*
X112343866Y-62013976D01*
X112155268Y-62071187D01*
X111981463Y-62164089D01*
X111829117Y-62289117D01*
X111704089Y-62441463D01*
X111611187Y-62615268D01*
X111553976Y-62803866D01*
X111534659Y-63000000D01*
X111005341Y-63000000D01*
X110986024Y-62803868D01*
X110928814Y-62615273D01*
X110928812Y-62615270D01*
X110928812Y-62615268D01*
X110870077Y-62505384D01*
X110835910Y-62441462D01*
X110710883Y-62289117D01*
X110558538Y-62164090D01*
X110548597Y-62158776D01*
X110384731Y-62071187D01*
X110196133Y-62013976D01*
X110000000Y-61994659D01*
X109803866Y-62013976D01*
X109615268Y-62071187D01*
X109441463Y-62164089D01*
X109289117Y-62289117D01*
X109164089Y-62441463D01*
X109071187Y-62615268D01*
X109013976Y-62803866D01*
X108994659Y-63000000D01*
X105602294Y-63000000D01*
X105558538Y-62964090D01*
X105548147Y-62958536D01*
X105384731Y-62871187D01*
X105196133Y-62813976D01*
X105000000Y-62794659D01*
X104803866Y-62813976D01*
X104615268Y-62871187D01*
X104441463Y-62964089D01*
X104289117Y-63089117D01*
X104164089Y-63241463D01*
X104071187Y-63415268D01*
X104013976Y-63603866D01*
X103994659Y-63800000D01*
X100000500Y-63800000D01*
X100000500Y-55000000D01*
X101495197Y-55000000D01*
X101514397Y-55366355D01*
X101514397Y-55366356D01*
X101571783Y-55728683D01*
X101666735Y-56083046D01*
X101798201Y-56425527D01*
X101798205Y-56425538D01*
X101964746Y-56752393D01*
X102164556Y-57060073D01*
X102395426Y-57345173D01*
X102419060Y-57368807D01*
X103055141Y-56732725D01*
X103067449Y-56794601D01*
X103122704Y-56877296D01*
X103205399Y-56932551D01*
X103267272Y-56944858D01*
X102631192Y-57580939D01*
X102654826Y-57604573D01*
X102939926Y-57835443D01*
X103247606Y-58035253D01*
X103574461Y-58201794D01*
X103574472Y-58201798D01*
X103916953Y-58333264D01*
X104271316Y-58428216D01*
X104633643Y-58485602D01*
X105000000Y-58504802D01*
X105366355Y-58485602D01*
X105366356Y-58485602D01*
X105728683Y-58428216D01*
X106083046Y-58333264D01*
X106299954Y-58250001D01*
X109269186Y-58250001D01*
X109274095Y-58302977D01*
X109274097Y-58302991D01*
X109329884Y-58499062D01*
X109329886Y-58499067D01*
X109420754Y-58681557D01*
X109420756Y-58681560D01*
X109543605Y-58844239D01*
X109543606Y-58844240D01*
X109694261Y-58981579D01*
X109867582Y-59088895D01*
X109867591Y-59088900D01*
X110057680Y-59162540D01*
X110209999Y-59191013D01*
X110210000Y-59191013D01*
X110210000Y-58472502D01*
X110234852Y-58485165D01*
X110328519Y-58500000D01*
X110391481Y-58500000D01*
X110485148Y-58485165D01*
X110510000Y-58472502D01*
X110510000Y-59191013D01*
X110662319Y-59162540D01*
X110852408Y-59088900D01*
X110852417Y-59088895D01*
X111025738Y-58981579D01*
X111025739Y-58981579D01*
X111176393Y-58844240D01*
X111176394Y-58844239D01*
X111299243Y-58681560D01*
X111299245Y-58681557D01*
X111390113Y-58499067D01*
X111390115Y-58499062D01*
X111445902Y-58302991D01*
X111445904Y-58302977D01*
X111450813Y-58250001D01*
X111450812Y-58250000D01*
X110732502Y-58250000D01*
X110745165Y-58225148D01*
X110764986Y-58100000D01*
X111894659Y-58100000D01*
X111913976Y-58296133D01*
X111971187Y-58484731D01*
X112058776Y-58648597D01*
X112064090Y-58658538D01*
X112189117Y-58810883D01*
X112341462Y-58935910D01*
X112418426Y-58977048D01*
X112515268Y-59028812D01*
X112515270Y-59028812D01*
X112515273Y-59028814D01*
X112703868Y-59086024D01*
X112900000Y-59105341D01*
X113096132Y-59086024D01*
X113284727Y-59028814D01*
X113458538Y-58935910D01*
X113610883Y-58810883D01*
X113735910Y-58658538D01*
X113828814Y-58484727D01*
X113886024Y-58296132D01*
X113905341Y-58100000D01*
X114754659Y-58100000D01*
X114773976Y-58296133D01*
X114831187Y-58484731D01*
X114918776Y-58648597D01*
X114924090Y-58658538D01*
X115049117Y-58810883D01*
X115201462Y-58935910D01*
X115278426Y-58977048D01*
X115375268Y-59028812D01*
X115375270Y-59028812D01*
X115375273Y-59028814D01*
X115563868Y-59086024D01*
X115760000Y-59105341D01*
X115956132Y-59086024D01*
X116144727Y-59028814D01*
X116318538Y-58935910D01*
X116470883Y-58810883D01*
X116595910Y-58658538D01*
X116688814Y-58484727D01*
X116746024Y-58296132D01*
X116765341Y-58100000D01*
X117294659Y-58100000D01*
X117313976Y-58296133D01*
X117371187Y-58484731D01*
X117458776Y-58648597D01*
X117464090Y-58658538D01*
X117589117Y-58810883D01*
X117741462Y-58935910D01*
X117818426Y-58977048D01*
X117915268Y-59028812D01*
X117915270Y-59028812D01*
X117915273Y-59028814D01*
X118103868Y-59086024D01*
X118300000Y-59105341D01*
X118496132Y-59086024D01*
X118679020Y-59030545D01*
X118729561Y-59033305D01*
X118766506Y-59067907D01*
X118774499Y-59101359D01*
X118774499Y-72902557D01*
X118774217Y-72909008D01*
X118770734Y-72948804D01*
X118770734Y-72948805D01*
X118781076Y-72987405D01*
X118782472Y-72993702D01*
X118789410Y-73033043D01*
X118791810Y-73037199D01*
X118799202Y-73055046D01*
X118800444Y-73059681D01*
X118800445Y-73059684D01*
X118823361Y-73092413D01*
X118826828Y-73097854D01*
X118846805Y-73132454D01*
X118846806Y-73132455D01*
X118846807Y-73132456D01*
X118877407Y-73158132D01*
X118882168Y-73162494D01*
X119989418Y-74269744D01*
X120010810Y-74315620D01*
X119997709Y-74364515D01*
X119995610Y-74367365D01*
X119921554Y-74463038D01*
X119921553Y-74463039D01*
X119921552Y-74463042D01*
X119831940Y-74645729D01*
X119831939Y-74645731D01*
X119780936Y-74842718D01*
X119775797Y-74944064D01*
X119770631Y-75045936D01*
X119801444Y-75247071D01*
X119872114Y-75437887D01*
X119979748Y-75610571D01*
X120119941Y-75758053D01*
X120286951Y-75874295D01*
X120473942Y-75954540D01*
X120473947Y-75954541D01*
X120673252Y-75995499D01*
X120673257Y-75995499D01*
X120673259Y-75995500D01*
X120673260Y-75995500D01*
X121625741Y-75995500D01*
X121625742Y-75995500D01*
X121675341Y-75990456D01*
X121777434Y-75980075D01*
X121777435Y-75980074D01*
X121777438Y-75980074D01*
X121971588Y-75919159D01*
X122149502Y-75820409D01*
X122303895Y-75687866D01*
X122428448Y-75526958D01*
X122518060Y-75344271D01*
X122569063Y-75147285D01*
X122569179Y-75145000D01*
X127300897Y-75145000D01*
X127301243Y-75152258D01*
X127301243Y-75152260D01*
X127350769Y-75356407D01*
X127438039Y-75547503D01*
X127559894Y-75718624D01*
X127711928Y-75863589D01*
X127888659Y-75977168D01*
X128083686Y-76055244D01*
X128289963Y-76095000D01*
X128645000Y-76095000D01*
X128645000Y-75367502D01*
X128669852Y-75380165D01*
X128763519Y-75395000D01*
X128826481Y-75395000D01*
X128920148Y-75380165D01*
X128945000Y-75367502D01*
X128945000Y-76095000D01*
X129247397Y-76095000D01*
X129247403Y-76094999D01*
X129404127Y-76080034D01*
X129605684Y-76020851D01*
X129605691Y-76020848D01*
X129792406Y-75924591D01*
X129874756Y-75859831D01*
X129922848Y-75844036D01*
X129969841Y-75862849D01*
X129993747Y-75907468D01*
X129994500Y-75917999D01*
X129994500Y-76738643D01*
X129977187Y-76786209D01*
X129933350Y-76811519D01*
X129883500Y-76802729D01*
X129866866Y-76789627D01*
X129850061Y-76771949D01*
X129850061Y-76771948D01*
X129732253Y-76689952D01*
X129683049Y-76655705D01*
X129600285Y-76620188D01*
X129496058Y-76575460D01*
X129496052Y-76575458D01*
X129296747Y-76534500D01*
X129296741Y-76534500D01*
X128344258Y-76534500D01*
X128344250Y-76534500D01*
X128192565Y-76549924D01*
X128192560Y-76549926D01*
X127998417Y-76610838D01*
X127998412Y-76610840D01*
X127820498Y-76709591D01*
X127820495Y-76709593D01*
X127666104Y-76842135D01*
X127666099Y-76842140D01*
X127541551Y-77003043D01*
X127451941Y-77185727D01*
X127451939Y-77185731D01*
X127400936Y-77382718D01*
X127395797Y-77484064D01*
X127390631Y-77585936D01*
X127421444Y-77787071D01*
X127463268Y-77900000D01*
X127492114Y-77977887D01*
X127556731Y-78081557D01*
X127599748Y-78150571D01*
X127739941Y-78298053D01*
X127906951Y-78414295D01*
X128093942Y-78494540D01*
X128093947Y-78494541D01*
X128293252Y-78535499D01*
X128293257Y-78535499D01*
X128293259Y-78535500D01*
X128293260Y-78535500D01*
X129245741Y-78535500D01*
X129245742Y-78535500D01*
X129295341Y-78530456D01*
X129397434Y-78520075D01*
X129397435Y-78520074D01*
X129397438Y-78520074D01*
X129591588Y-78459159D01*
X129769502Y-78360409D01*
X129872299Y-78272159D01*
X129919666Y-78254313D01*
X129967424Y-78271088D01*
X129993226Y-78314638D01*
X129994500Y-78328308D01*
X129994500Y-78384521D01*
X129977187Y-78432087D01*
X129972826Y-78436847D01*
X129356475Y-79053197D01*
X129310598Y-79074589D01*
X129297693Y-79074500D01*
X129296741Y-79074500D01*
X128344258Y-79074500D01*
X128344250Y-79074500D01*
X128192565Y-79089924D01*
X128192560Y-79089926D01*
X127998417Y-79150838D01*
X127998412Y-79150840D01*
X127820498Y-79249591D01*
X127820495Y-79249593D01*
X127666104Y-79382135D01*
X127666099Y-79382140D01*
X127541551Y-79543043D01*
X127451941Y-79725727D01*
X127451939Y-79725731D01*
X127400936Y-79922718D01*
X127395797Y-80024064D01*
X127390631Y-80125936D01*
X127421444Y-80327071D01*
X127492114Y-80517887D01*
X127599748Y-80690571D01*
X127739941Y-80838053D01*
X127906951Y-80954295D01*
X128093942Y-81034540D01*
X128093947Y-81034541D01*
X128293252Y-81075499D01*
X128293257Y-81075499D01*
X128293259Y-81075500D01*
X128293260Y-81075500D01*
X129245741Y-81075500D01*
X129245742Y-81075500D01*
X129295341Y-81070456D01*
X129397434Y-81060075D01*
X129397435Y-81060074D01*
X129397438Y-81060074D01*
X129591588Y-80999159D01*
X129769502Y-80900409D01*
X129923895Y-80767866D01*
X130048448Y-80606958D01*
X130138060Y-80424271D01*
X130189063Y-80227285D01*
X130199369Y-80024064D01*
X130168556Y-79822929D01*
X130097886Y-79632113D01*
X129990252Y-79459429D01*
X129989906Y-79459065D01*
X129981793Y-79450529D01*
X129961571Y-79404125D01*
X129975908Y-79355578D01*
X129983096Y-79347228D01*
X130537841Y-78792483D01*
X130542565Y-78788154D01*
X130573194Y-78762455D01*
X130593175Y-78727844D01*
X130596639Y-78722409D01*
X130619553Y-78689685D01*
X130619554Y-78689684D01*
X130620794Y-78685054D01*
X130628193Y-78667192D01*
X130630588Y-78663045D01*
X130637524Y-78623703D01*
X130638918Y-78617413D01*
X130649264Y-78578807D01*
X130645782Y-78539005D01*
X130645500Y-78532555D01*
X130645500Y-77500000D01*
X131694659Y-77500000D01*
X131713976Y-77696133D01*
X131771187Y-77884731D01*
X131820981Y-77977887D01*
X131864090Y-78058538D01*
X131989117Y-78210883D01*
X132141462Y-78335910D01*
X132218426Y-78377048D01*
X132315268Y-78428812D01*
X132315270Y-78428812D01*
X132315273Y-78428814D01*
X132503868Y-78486024D01*
X132700000Y-78505341D01*
X132896132Y-78486024D01*
X133084727Y-78428814D01*
X133258538Y-78335910D01*
X133410883Y-78210883D01*
X133535910Y-78058538D01*
X133628814Y-77884727D01*
X133686024Y-77696132D01*
X133705341Y-77500003D01*
X136595287Y-77500003D01*
X136614095Y-77702984D01*
X136669884Y-77899062D01*
X136669886Y-77899067D01*
X136760754Y-78081557D01*
X136760756Y-78081560D01*
X136823379Y-78164486D01*
X137330997Y-77656868D01*
X137372359Y-77738045D01*
X137461955Y-77827641D01*
X137543129Y-77869001D01*
X137032320Y-78379810D01*
X137034255Y-78381575D01*
X137034258Y-78381577D01*
X137207582Y-78488895D01*
X137207591Y-78488900D01*
X137397679Y-78562540D01*
X137598066Y-78599999D01*
X137598072Y-78600000D01*
X137801928Y-78600000D01*
X137801933Y-78599999D01*
X138002320Y-78562540D01*
X138192408Y-78488900D01*
X138192417Y-78488895D01*
X138365738Y-78381579D01*
X138367677Y-78379810D01*
X138367677Y-78379809D01*
X137856869Y-77869001D01*
X137938045Y-77827641D01*
X138027641Y-77738045D01*
X138069001Y-77656869D01*
X138576619Y-78164487D01*
X138639243Y-78081559D01*
X138639245Y-78081557D01*
X138730113Y-77899067D01*
X138730115Y-77899062D01*
X138785904Y-77702984D01*
X138804713Y-77500003D01*
X138804713Y-77499996D01*
X138785904Y-77297015D01*
X138730115Y-77100937D01*
X138730113Y-77100932D01*
X138639245Y-76918442D01*
X138639243Y-76918439D01*
X138576618Y-76835511D01*
X138069001Y-77343129D01*
X138027641Y-77261955D01*
X137938045Y-77172359D01*
X137856868Y-77130997D01*
X138367677Y-76620189D01*
X138365736Y-76618418D01*
X138192417Y-76511104D01*
X138192408Y-76511099D01*
X138002320Y-76437459D01*
X137882181Y-76415001D01*
X143858972Y-76415001D01*
X143864736Y-76477204D01*
X143864738Y-76477218D01*
X143923061Y-76682202D01*
X143923064Y-76682212D01*
X144018059Y-76872988D01*
X144018063Y-76872994D01*
X144146501Y-77043071D01*
X144304003Y-77186653D01*
X144485200Y-77298844D01*
X144485210Y-77298849D01*
X144683935Y-77375836D01*
X144849999Y-77406879D01*
X144850000Y-77406879D01*
X144850000Y-76746170D01*
X144857685Y-76749680D01*
X144964237Y-76765000D01*
X145035763Y-76765000D01*
X145142315Y-76749680D01*
X145150000Y-76746170D01*
X145150000Y-77406879D01*
X145316064Y-77375836D01*
X145514789Y-77298849D01*
X145514799Y-77298844D01*
X145695996Y-77186653D01*
X145853498Y-77043071D01*
X145981936Y-76872994D01*
X145981940Y-76872988D01*
X146076935Y-76682212D01*
X146076938Y-76682202D01*
X146135261Y-76477218D01*
X146135263Y-76477204D01*
X146141027Y-76415001D01*
X146141026Y-76415000D01*
X145477065Y-76415000D01*
X145500000Y-76336889D01*
X145500000Y-76193111D01*
X145477065Y-76115000D01*
X146141026Y-76115000D01*
X146141027Y-76114998D01*
X146135263Y-76052795D01*
X146135261Y-76052781D01*
X146076938Y-75847797D01*
X146076935Y-75847787D01*
X145981940Y-75657011D01*
X145981936Y-75657005D01*
X145853498Y-75486928D01*
X145695996Y-75343346D01*
X145514799Y-75231155D01*
X145514789Y-75231150D01*
X145316063Y-75154162D01*
X145150000Y-75123119D01*
X145150000Y-75783829D01*
X145142315Y-75780320D01*
X145035763Y-75765000D01*
X144964237Y-75765000D01*
X144857685Y-75780320D01*
X144850000Y-75783829D01*
X144850000Y-75123119D01*
X144849999Y-75123119D01*
X144683936Y-75154162D01*
X144485210Y-75231150D01*
X144485200Y-75231155D01*
X144304003Y-75343346D01*
X144146501Y-75486928D01*
X144018063Y-75657005D01*
X144018059Y-75657011D01*
X143923064Y-75847787D01*
X143923061Y-75847797D01*
X143864738Y-76052781D01*
X143864736Y-76052795D01*
X143858972Y-76114998D01*
X143858974Y-76115000D01*
X144522935Y-76115000D01*
X144500000Y-76193111D01*
X144500000Y-76336889D01*
X144522935Y-76415000D01*
X143858974Y-76415000D01*
X143858972Y-76415001D01*
X137882181Y-76415001D01*
X137801933Y-76400000D01*
X137598066Y-76400000D01*
X137397679Y-76437459D01*
X137207591Y-76511099D01*
X137207582Y-76511104D01*
X137034262Y-76618419D01*
X137034262Y-76618420D01*
X137032321Y-76620188D01*
X137543130Y-77130998D01*
X137461955Y-77172359D01*
X137372359Y-77261955D01*
X137330998Y-77343130D01*
X136823379Y-76835511D01*
X136760754Y-76918443D01*
X136760753Y-76918445D01*
X136669886Y-77100932D01*
X136669884Y-77100937D01*
X136614095Y-77297015D01*
X136595287Y-77499996D01*
X136595287Y-77500003D01*
X133705341Y-77500003D01*
X133705341Y-77500000D01*
X133686024Y-77303868D01*
X133628814Y-77115273D01*
X133628812Y-77115270D01*
X133628812Y-77115268D01*
X133568825Y-77003042D01*
X133535910Y-76941462D01*
X133410883Y-76789117D01*
X133258538Y-76664090D01*
X133242849Y-76655704D01*
X133084731Y-76571187D01*
X132896133Y-76513976D01*
X132700000Y-76494659D01*
X132503866Y-76513976D01*
X132315268Y-76571187D01*
X132141463Y-76664089D01*
X131989117Y-76789117D01*
X131864089Y-76941463D01*
X131771187Y-77115268D01*
X131713976Y-77303866D01*
X131694659Y-77500000D01*
X130645500Y-77500000D01*
X130645500Y-74594748D01*
X143949500Y-74594748D01*
X143952501Y-74609835D01*
X143961133Y-74653232D01*
X143970573Y-74667359D01*
X144005448Y-74719552D01*
X144040429Y-74742926D01*
X144071767Y-74763866D01*
X144071768Y-74763866D01*
X144071769Y-74763867D01*
X144130252Y-74775500D01*
X144130254Y-74775500D01*
X145869746Y-74775500D01*
X145869748Y-74775500D01*
X145928231Y-74763867D01*
X145994552Y-74719552D01*
X146038867Y-74653231D01*
X146050500Y-74594748D01*
X146050500Y-72855252D01*
X146038867Y-72796769D01*
X145994552Y-72730448D01*
X145967141Y-72712132D01*
X145928232Y-72686133D01*
X145928233Y-72686133D01*
X145898989Y-72680316D01*
X145869748Y-72674500D01*
X144130252Y-72674500D01*
X144101010Y-72680316D01*
X144071767Y-72686133D01*
X144005449Y-72730447D01*
X144005447Y-72730449D01*
X143961133Y-72796767D01*
X143959128Y-72806847D01*
X143949500Y-72855252D01*
X143949500Y-74594748D01*
X130645500Y-74594748D01*
X130645500Y-73354486D01*
X130662813Y-73306920D01*
X130667163Y-73302171D01*
X131572790Y-72396544D01*
X131618664Y-72375153D01*
X131667559Y-72388254D01*
X131696593Y-72429718D01*
X131698758Y-72441618D01*
X131713976Y-72596133D01*
X131771187Y-72784731D01*
X131858776Y-72948597D01*
X131864090Y-72958538D01*
X131989117Y-73110883D01*
X132141462Y-73235910D01*
X132218426Y-73277048D01*
X132315268Y-73328812D01*
X132315270Y-73328812D01*
X132315273Y-73328814D01*
X132503868Y-73386024D01*
X132700000Y-73405341D01*
X132896132Y-73386024D01*
X133084727Y-73328814D01*
X133258538Y-73235910D01*
X133410883Y-73110883D01*
X133535910Y-72958538D01*
X133622377Y-72796769D01*
X133628812Y-72784731D01*
X133628812Y-72784730D01*
X133628814Y-72784727D01*
X133686024Y-72596132D01*
X133705341Y-72400003D01*
X136595287Y-72400003D01*
X136614095Y-72602984D01*
X136669884Y-72799062D01*
X136669886Y-72799067D01*
X136760754Y-72981557D01*
X136760756Y-72981560D01*
X136823379Y-73064486D01*
X137330997Y-72556868D01*
X137372359Y-72638045D01*
X137461955Y-72727641D01*
X137543129Y-72769001D01*
X137032320Y-73279810D01*
X137034255Y-73281575D01*
X137034258Y-73281577D01*
X137207582Y-73388895D01*
X137207591Y-73388900D01*
X137397679Y-73462540D01*
X137598066Y-73499999D01*
X137598072Y-73500000D01*
X137801928Y-73500000D01*
X137801933Y-73499999D01*
X138002320Y-73462540D01*
X138192408Y-73388900D01*
X138192417Y-73388895D01*
X138365738Y-73281579D01*
X138367677Y-73279810D01*
X138367677Y-73279809D01*
X137856869Y-72769001D01*
X137938045Y-72727641D01*
X138027641Y-72638045D01*
X138069001Y-72556869D01*
X138576619Y-73064487D01*
X138639243Y-72981559D01*
X138639245Y-72981557D01*
X138730113Y-72799067D01*
X138730115Y-72799062D01*
X138785904Y-72602984D01*
X138804713Y-72400003D01*
X138804713Y-72399996D01*
X138785904Y-72197015D01*
X138730115Y-72000937D01*
X138730113Y-72000932D01*
X138639245Y-71818442D01*
X138639243Y-71818439D01*
X138576618Y-71735511D01*
X138069001Y-72243129D01*
X138027641Y-72161955D01*
X137938045Y-72072359D01*
X137856868Y-72030997D01*
X138367677Y-71520189D01*
X138365736Y-71518418D01*
X138192417Y-71411104D01*
X138192408Y-71411099D01*
X138002320Y-71337459D01*
X137801933Y-71300000D01*
X137598066Y-71300000D01*
X137397679Y-71337459D01*
X137207591Y-71411099D01*
X137207582Y-71411104D01*
X137034262Y-71518419D01*
X137034262Y-71518420D01*
X137032321Y-71520188D01*
X137543130Y-72030998D01*
X137461955Y-72072359D01*
X137372359Y-72161955D01*
X137330998Y-72243130D01*
X136823379Y-71735511D01*
X136760754Y-71818443D01*
X136760753Y-71818445D01*
X136669886Y-72000932D01*
X136669884Y-72000937D01*
X136614095Y-72197015D01*
X136595287Y-72399996D01*
X136595287Y-72400003D01*
X133705341Y-72400003D01*
X133705341Y-72400000D01*
X133686024Y-72203868D01*
X133628814Y-72015273D01*
X133628812Y-72015270D01*
X133628812Y-72015268D01*
X133577048Y-71918426D01*
X133535910Y-71841462D01*
X133410883Y-71689117D01*
X133258538Y-71564090D01*
X133196332Y-71530840D01*
X133084731Y-71471187D01*
X132896133Y-71413976D01*
X132754229Y-71400000D01*
X132741617Y-71398757D01*
X132695977Y-71376866D01*
X132675087Y-71330759D01*
X132688720Y-71282011D01*
X132696539Y-71272794D01*
X135069333Y-68900000D01*
X143994659Y-68900000D01*
X144013976Y-69096133D01*
X144071187Y-69284731D01*
X144123737Y-69383043D01*
X144164090Y-69458538D01*
X144289117Y-69610883D01*
X144441462Y-69735910D01*
X144518426Y-69777048D01*
X144615268Y-69828812D01*
X144615270Y-69828812D01*
X144615273Y-69828814D01*
X144803868Y-69886024D01*
X145000000Y-69905341D01*
X145196132Y-69886024D01*
X145384727Y-69828814D01*
X145558538Y-69735910D01*
X145710883Y-69610883D01*
X145835910Y-69458538D01*
X145928814Y-69284727D01*
X145986024Y-69096132D01*
X146005341Y-68900000D01*
X145986024Y-68703868D01*
X145928814Y-68515273D01*
X145928812Y-68515270D01*
X145928812Y-68515268D01*
X145870054Y-68405341D01*
X145835910Y-68341462D01*
X145710883Y-68189117D01*
X145558538Y-68064090D01*
X145548597Y-68058776D01*
X145384731Y-67971187D01*
X145196133Y-67913976D01*
X145000000Y-67894659D01*
X144803866Y-67913976D01*
X144615268Y-67971187D01*
X144441463Y-68064089D01*
X144289117Y-68189117D01*
X144164089Y-68341463D01*
X144071187Y-68515268D01*
X144013976Y-68703866D01*
X143994659Y-68900000D01*
X135069333Y-68900000D01*
X136769333Y-67200000D01*
X137954659Y-67200000D01*
X137973976Y-67396133D01*
X138031187Y-67584731D01*
X138105772Y-67724268D01*
X138124090Y-67758538D01*
X138249117Y-67910883D01*
X138401462Y-68035910D01*
X138478426Y-68077048D01*
X138575268Y-68128812D01*
X138575270Y-68128812D01*
X138575273Y-68128814D01*
X138763868Y-68186024D01*
X138960000Y-68205341D01*
X139156132Y-68186024D01*
X139344727Y-68128814D01*
X139518538Y-68035910D01*
X139670883Y-67910883D01*
X139795910Y-67758538D01*
X139888814Y-67584727D01*
X139946024Y-67396132D01*
X139965341Y-67200000D01*
X140494659Y-67200000D01*
X140513976Y-67396133D01*
X140571187Y-67584731D01*
X140645772Y-67724268D01*
X140664090Y-67758538D01*
X140789117Y-67910883D01*
X140941462Y-68035910D01*
X141018426Y-68077048D01*
X141115268Y-68128812D01*
X141115270Y-68128812D01*
X141115273Y-68128814D01*
X141303868Y-68186024D01*
X141500000Y-68205341D01*
X141696132Y-68186024D01*
X141884727Y-68128814D01*
X142058538Y-68035910D01*
X142210883Y-67910883D01*
X142335910Y-67758538D01*
X142428814Y-67584727D01*
X142486024Y-67396132D01*
X142505341Y-67200000D01*
X142486024Y-67003868D01*
X142428814Y-66815273D01*
X142428812Y-66815270D01*
X142428812Y-66815268D01*
X142357650Y-66682135D01*
X142335910Y-66641462D01*
X142210883Y-66489117D01*
X142058538Y-66364090D01*
X142048597Y-66358776D01*
X141884731Y-66271187D01*
X141696133Y-66213976D01*
X141500000Y-66194659D01*
X141303866Y-66213976D01*
X141115268Y-66271187D01*
X140941463Y-66364089D01*
X140789117Y-66489117D01*
X140664089Y-66641463D01*
X140571187Y-66815268D01*
X140513976Y-67003866D01*
X140494659Y-67200000D01*
X139965341Y-67200000D01*
X139946024Y-67003868D01*
X139888814Y-66815273D01*
X139888812Y-66815270D01*
X139888812Y-66815268D01*
X139817650Y-66682135D01*
X139795910Y-66641462D01*
X139670883Y-66489117D01*
X139518538Y-66364090D01*
X139508597Y-66358776D01*
X139344731Y-66271187D01*
X139156133Y-66213976D01*
X138960000Y-66194659D01*
X138763866Y-66213976D01*
X138575268Y-66271187D01*
X138401463Y-66364089D01*
X138249117Y-66489117D01*
X138124089Y-66641463D01*
X138031187Y-66815268D01*
X137973976Y-67003866D01*
X137954659Y-67200000D01*
X136769333Y-67200000D01*
X140069333Y-63900000D01*
X143994659Y-63900000D01*
X144013976Y-64096133D01*
X144071187Y-64284731D01*
X144158776Y-64448597D01*
X144164090Y-64458538D01*
X144289117Y-64610883D01*
X144441462Y-64735910D01*
X144518426Y-64777048D01*
X144615268Y-64828812D01*
X144615270Y-64828812D01*
X144615273Y-64828814D01*
X144803868Y-64886024D01*
X145000000Y-64905341D01*
X145196132Y-64886024D01*
X145384727Y-64828814D01*
X145558538Y-64735910D01*
X145710883Y-64610883D01*
X145835910Y-64458538D01*
X145928814Y-64284727D01*
X145986024Y-64096132D01*
X146005341Y-63900000D01*
X145986024Y-63703868D01*
X145928814Y-63515273D01*
X145928812Y-63515270D01*
X145928812Y-63515268D01*
X145870054Y-63405341D01*
X145835910Y-63341462D01*
X145710883Y-63189117D01*
X145558538Y-63064090D01*
X145548597Y-63058776D01*
X145384731Y-62971187D01*
X145196133Y-62913976D01*
X145000000Y-62894659D01*
X144803866Y-62913976D01*
X144615268Y-62971187D01*
X144441463Y-63064089D01*
X144289117Y-63189117D01*
X144164089Y-63341463D01*
X144071187Y-63515268D01*
X144013976Y-63703866D01*
X143994659Y-63900000D01*
X140069333Y-63900000D01*
X140779773Y-63189560D01*
X140825648Y-63168169D01*
X140874543Y-63181270D01*
X140879041Y-63184683D01*
X140941462Y-63235910D01*
X141115273Y-63328814D01*
X141303868Y-63386024D01*
X141500000Y-63405341D01*
X141696132Y-63386024D01*
X141884727Y-63328814D01*
X142058538Y-63235910D01*
X142210883Y-63110883D01*
X142335910Y-62958538D01*
X142428814Y-62784727D01*
X142486024Y-62596132D01*
X142505341Y-62400000D01*
X142486024Y-62203868D01*
X142428814Y-62015273D01*
X142428812Y-62015270D01*
X142428812Y-62015268D01*
X142367466Y-61900500D01*
X142335910Y-61841462D01*
X142210883Y-61689117D01*
X142058538Y-61564090D01*
X142048597Y-61558776D01*
X141884731Y-61471187D01*
X141696133Y-61413976D01*
X141500000Y-61394659D01*
X141303866Y-61413976D01*
X141115268Y-61471187D01*
X140941463Y-61564089D01*
X140789117Y-61689117D01*
X140664089Y-61841463D01*
X140571187Y-62015268D01*
X140513976Y-62203866D01*
X140494659Y-62400000D01*
X140505037Y-62505384D01*
X140492469Y-62554418D01*
X140483719Y-62564962D01*
X130292938Y-72755743D01*
X130247062Y-72777135D01*
X130198167Y-72764034D01*
X130169133Y-72722570D01*
X130168974Y-72684873D01*
X130189063Y-72607285D01*
X130199369Y-72404064D01*
X130168556Y-72202929D01*
X130097886Y-72012113D01*
X129990252Y-71839429D01*
X129850059Y-71691947D01*
X129683049Y-71575705D01*
X129553680Y-71520188D01*
X129496058Y-71495460D01*
X129496052Y-71495458D01*
X129296747Y-71454500D01*
X129296741Y-71454500D01*
X128344258Y-71454500D01*
X128344250Y-71454500D01*
X128192565Y-71469924D01*
X128192560Y-71469926D01*
X127998417Y-71530838D01*
X127998412Y-71530840D01*
X127820498Y-71629591D01*
X127820495Y-71629593D01*
X127666104Y-71762135D01*
X127666099Y-71762140D01*
X127541551Y-71923043D01*
X127451941Y-72105727D01*
X127451939Y-72105731D01*
X127400936Y-72302718D01*
X127390932Y-72499996D01*
X127390631Y-72505936D01*
X127421444Y-72707071D01*
X127455515Y-72799067D01*
X127492114Y-72897887D01*
X127592961Y-73059683D01*
X127599748Y-73070571D01*
X127739941Y-73218053D01*
X127906951Y-73334295D01*
X128093942Y-73414540D01*
X128093947Y-73414541D01*
X128293252Y-73455499D01*
X128293257Y-73455499D01*
X128293259Y-73455500D01*
X128293260Y-73455500D01*
X129245741Y-73455500D01*
X129245742Y-73455500D01*
X129295341Y-73450456D01*
X129397434Y-73440075D01*
X129397435Y-73440074D01*
X129397438Y-73440074D01*
X129583875Y-73381579D01*
X129591582Y-73379161D01*
X129591583Y-73379160D01*
X129591588Y-73379159D01*
X129769502Y-73280409D01*
X129872299Y-73192159D01*
X129919666Y-73174313D01*
X129967424Y-73191088D01*
X129993226Y-73234638D01*
X129994500Y-73248308D01*
X129994500Y-74065713D01*
X129977187Y-74113279D01*
X129933350Y-74138589D01*
X129883500Y-74129799D01*
X129880493Y-74127966D01*
X129701342Y-74012833D01*
X129506313Y-73934755D01*
X129300037Y-73895000D01*
X128945000Y-73895000D01*
X128945000Y-74622497D01*
X128920148Y-74609835D01*
X128826481Y-74595000D01*
X128763519Y-74595000D01*
X128669852Y-74609835D01*
X128645000Y-74622497D01*
X128645000Y-73895000D01*
X128342596Y-73895000D01*
X128185872Y-73909965D01*
X127984315Y-73969148D01*
X127984308Y-73969151D01*
X127797592Y-74065408D01*
X127632459Y-74195271D01*
X127494892Y-74354031D01*
X127389853Y-74535964D01*
X127389851Y-74535969D01*
X127321145Y-74734481D01*
X127321144Y-74734483D01*
X127305255Y-74844999D01*
X127305256Y-74845000D01*
X128422498Y-74845000D01*
X128409835Y-74869852D01*
X128390014Y-74995000D01*
X128409835Y-75120148D01*
X128422498Y-75145000D01*
X127300897Y-75145000D01*
X122569179Y-75145000D01*
X122579369Y-74944064D01*
X122548556Y-74742929D01*
X122477886Y-74552113D01*
X122370252Y-74379429D01*
X122230059Y-74231947D01*
X122063049Y-74115705D01*
X121876058Y-74035460D01*
X121876052Y-74035458D01*
X121676747Y-73994500D01*
X121676741Y-73994500D01*
X120724258Y-73994500D01*
X120696704Y-73997301D01*
X120678040Y-73999199D01*
X120628967Y-73986785D01*
X120618230Y-73977904D01*
X119447173Y-72806847D01*
X119425781Y-72760971D01*
X119425499Y-72754521D01*
X119425499Y-72505936D01*
X119770631Y-72505936D01*
X119801444Y-72707071D01*
X119835515Y-72799067D01*
X119872114Y-72897887D01*
X119972961Y-73059683D01*
X119979748Y-73070571D01*
X120119941Y-73218053D01*
X120286951Y-73334295D01*
X120473942Y-73414540D01*
X120473947Y-73414541D01*
X120673252Y-73455499D01*
X120673257Y-73455499D01*
X120673259Y-73455500D01*
X120673260Y-73455500D01*
X121625741Y-73455500D01*
X121625742Y-73455500D01*
X121675341Y-73450456D01*
X121777434Y-73440075D01*
X121777435Y-73440074D01*
X121777438Y-73440074D01*
X121963875Y-73381579D01*
X121971582Y-73379161D01*
X121971583Y-73379160D01*
X121971588Y-73379159D01*
X122149502Y-73280409D01*
X122303895Y-73147866D01*
X122428448Y-72986958D01*
X122518060Y-72804271D01*
X122569063Y-72607285D01*
X122579369Y-72404064D01*
X122548556Y-72202929D01*
X122477886Y-72012113D01*
X122370252Y-71839429D01*
X122230059Y-71691947D01*
X122063049Y-71575705D01*
X121933680Y-71520188D01*
X121876058Y-71495460D01*
X121876052Y-71495458D01*
X121676747Y-71454500D01*
X121676741Y-71454500D01*
X120724258Y-71454500D01*
X120724250Y-71454500D01*
X120572565Y-71469924D01*
X120572560Y-71469926D01*
X120378417Y-71530838D01*
X120378412Y-71530840D01*
X120200498Y-71629591D01*
X120200495Y-71629593D01*
X120046104Y-71762135D01*
X120046099Y-71762140D01*
X119921551Y-71923043D01*
X119831941Y-72105727D01*
X119831939Y-72105731D01*
X119780936Y-72302718D01*
X119770932Y-72499996D01*
X119770631Y-72505936D01*
X119425499Y-72505936D01*
X119425499Y-69965936D01*
X119770631Y-69965936D01*
X119801444Y-70167071D01*
X119872114Y-70357887D01*
X119979748Y-70530571D01*
X120119941Y-70678053D01*
X120286951Y-70794295D01*
X120473942Y-70874540D01*
X120473947Y-70874541D01*
X120673252Y-70915499D01*
X120673257Y-70915499D01*
X120673259Y-70915500D01*
X120673260Y-70915500D01*
X121625741Y-70915500D01*
X121625742Y-70915500D01*
X121675341Y-70910456D01*
X121777434Y-70900075D01*
X121777435Y-70900074D01*
X121777438Y-70900074D01*
X121971588Y-70839159D01*
X122149502Y-70740409D01*
X122303895Y-70607866D01*
X122428448Y-70446958D01*
X122518060Y-70264271D01*
X122569063Y-70067285D01*
X122574203Y-69965936D01*
X127390631Y-69965936D01*
X127421444Y-70167071D01*
X127492114Y-70357887D01*
X127599748Y-70530571D01*
X127739941Y-70678053D01*
X127906951Y-70794295D01*
X128093942Y-70874540D01*
X128093947Y-70874541D01*
X128293252Y-70915499D01*
X128293257Y-70915499D01*
X128293259Y-70915500D01*
X128293260Y-70915500D01*
X129245741Y-70915500D01*
X129245742Y-70915500D01*
X129295341Y-70910456D01*
X129397434Y-70900075D01*
X129397435Y-70900074D01*
X129397438Y-70900074D01*
X129591588Y-70839159D01*
X129769502Y-70740409D01*
X129923895Y-70607866D01*
X130048448Y-70446958D01*
X130138060Y-70264271D01*
X130189063Y-70067285D01*
X130199369Y-69864064D01*
X130168556Y-69662929D01*
X130097886Y-69472113D01*
X129990252Y-69299429D01*
X129850059Y-69151947D01*
X129683049Y-69035705D01*
X129496058Y-68955460D01*
X129496052Y-68955458D01*
X129296747Y-68914500D01*
X129296741Y-68914500D01*
X128344258Y-68914500D01*
X128344250Y-68914500D01*
X128192565Y-68929924D01*
X128192560Y-68929926D01*
X127998417Y-68990838D01*
X127998412Y-68990840D01*
X127820498Y-69089591D01*
X127820495Y-69089593D01*
X127666104Y-69222135D01*
X127666099Y-69222140D01*
X127541551Y-69383043D01*
X127451941Y-69565727D01*
X127451939Y-69565731D01*
X127400936Y-69762718D01*
X127393704Y-69905340D01*
X127390631Y-69965936D01*
X122574203Y-69965936D01*
X122579369Y-69864064D01*
X122548556Y-69662929D01*
X122477886Y-69472113D01*
X122370252Y-69299429D01*
X122230059Y-69151947D01*
X122063049Y-69035705D01*
X121876058Y-68955460D01*
X121876052Y-68955458D01*
X121676747Y-68914500D01*
X121676741Y-68914500D01*
X120724258Y-68914500D01*
X120724250Y-68914500D01*
X120572565Y-68929924D01*
X120572560Y-68929926D01*
X120378417Y-68990838D01*
X120378412Y-68990840D01*
X120200498Y-69089591D01*
X120200495Y-69089593D01*
X120046104Y-69222135D01*
X120046099Y-69222140D01*
X119921551Y-69383043D01*
X119831941Y-69565727D01*
X119831939Y-69565731D01*
X119780936Y-69762718D01*
X119773704Y-69905340D01*
X119770631Y-69965936D01*
X119425499Y-69965936D01*
X119425499Y-68194748D01*
X119774500Y-68194748D01*
X119775626Y-68200408D01*
X119786133Y-68253232D01*
X119815608Y-68297343D01*
X119830448Y-68319552D01*
X119863238Y-68341462D01*
X119896767Y-68363866D01*
X119896768Y-68363866D01*
X119896769Y-68363867D01*
X119955252Y-68375500D01*
X119955254Y-68375500D01*
X122394746Y-68375500D01*
X122394748Y-68375500D01*
X122453231Y-68363867D01*
X122519552Y-68319552D01*
X122563867Y-68253231D01*
X122575500Y-68194748D01*
X122575500Y-67425936D01*
X127390631Y-67425936D01*
X127421444Y-67627071D01*
X127421445Y-67627073D01*
X127492114Y-67817887D01*
X127579780Y-67958536D01*
X127599748Y-67990571D01*
X127739941Y-68138053D01*
X127906951Y-68254295D01*
X128093942Y-68334540D01*
X128093947Y-68334541D01*
X128293252Y-68375499D01*
X128293257Y-68375499D01*
X128293259Y-68375500D01*
X128293260Y-68375500D01*
X129245741Y-68375500D01*
X129245742Y-68375500D01*
X129295341Y-68370456D01*
X129397434Y-68360075D01*
X129397435Y-68360074D01*
X129397438Y-68360074D01*
X129591588Y-68299159D01*
X129769502Y-68200409D01*
X129923895Y-68067866D01*
X130048448Y-67906958D01*
X130138060Y-67724271D01*
X130189063Y-67527285D01*
X130199369Y-67324064D01*
X130168556Y-67122929D01*
X130097886Y-66932113D01*
X129990252Y-66759429D01*
X129850059Y-66611947D01*
X129683049Y-66495705D01*
X129667697Y-66489117D01*
X129496058Y-66415460D01*
X129496052Y-66415458D01*
X129296747Y-66374500D01*
X129296741Y-66374500D01*
X128344258Y-66374500D01*
X128344250Y-66374500D01*
X128192565Y-66389924D01*
X128192560Y-66389926D01*
X127998417Y-66450838D01*
X127998412Y-66450840D01*
X127820498Y-66549591D01*
X127820495Y-66549593D01*
X127666104Y-66682135D01*
X127666099Y-66682140D01*
X127541551Y-66843043D01*
X127451941Y-67025727D01*
X127451939Y-67025731D01*
X127400936Y-67222718D01*
X127396243Y-67315268D01*
X127390631Y-67425936D01*
X122575500Y-67425936D01*
X122575500Y-66555252D01*
X122563867Y-66496769D01*
X122563155Y-66495704D01*
X122533178Y-66450841D01*
X122519552Y-66430448D01*
X122494900Y-66413976D01*
X122453232Y-66386133D01*
X122453233Y-66386133D01*
X122423989Y-66380316D01*
X122394748Y-66374500D01*
X119955252Y-66374500D01*
X119926010Y-66380316D01*
X119896767Y-66386133D01*
X119830449Y-66430447D01*
X119830447Y-66430449D01*
X119786133Y-66496767D01*
X119786133Y-66496769D01*
X119774500Y-66555252D01*
X119774500Y-68194748D01*
X119425499Y-68194748D01*
X119425499Y-64400000D01*
X132294659Y-64400000D01*
X132313976Y-64596133D01*
X132371187Y-64784731D01*
X132458776Y-64948597D01*
X132464090Y-64958538D01*
X132589117Y-65110883D01*
X132741462Y-65235910D01*
X132818426Y-65277048D01*
X132915268Y-65328812D01*
X132915270Y-65328812D01*
X132915273Y-65328814D01*
X133103868Y-65386024D01*
X133300000Y-65405341D01*
X133496132Y-65386024D01*
X133684727Y-65328814D01*
X133858538Y-65235910D01*
X134010883Y-65110883D01*
X134135910Y-64958538D01*
X134228814Y-64784727D01*
X134286024Y-64596132D01*
X134305341Y-64400000D01*
X134286024Y-64203868D01*
X134228814Y-64015273D01*
X134228812Y-64015270D01*
X134228812Y-64015268D01*
X134167199Y-63900000D01*
X134135910Y-63841462D01*
X134010883Y-63689117D01*
X133858538Y-63564090D01*
X133848147Y-63558536D01*
X133684731Y-63471187D01*
X133496133Y-63413976D01*
X133300000Y-63394659D01*
X133103866Y-63413976D01*
X132915268Y-63471187D01*
X132741463Y-63564089D01*
X132589117Y-63689117D01*
X132464089Y-63841463D01*
X132371187Y-64015268D01*
X132313976Y-64203866D01*
X132294659Y-64400000D01*
X119425499Y-64400000D01*
X119425499Y-62400000D01*
X137954659Y-62400000D01*
X137973976Y-62596133D01*
X138031187Y-62784731D01*
X138089946Y-62894659D01*
X138124090Y-62958538D01*
X138249117Y-63110883D01*
X138401462Y-63235910D01*
X138478426Y-63277048D01*
X138575268Y-63328812D01*
X138575270Y-63328812D01*
X138575273Y-63328814D01*
X138763868Y-63386024D01*
X138960000Y-63405341D01*
X139156132Y-63386024D01*
X139344727Y-63328814D01*
X139518538Y-63235910D01*
X139670883Y-63110883D01*
X139795910Y-62958538D01*
X139888814Y-62784727D01*
X139946024Y-62596132D01*
X139965341Y-62400000D01*
X139946024Y-62203868D01*
X139888814Y-62015273D01*
X139888812Y-62015270D01*
X139888812Y-62015268D01*
X139827466Y-61900500D01*
X139795910Y-61841462D01*
X139670883Y-61689117D01*
X139518538Y-61564090D01*
X139508597Y-61558776D01*
X139344731Y-61471187D01*
X139156133Y-61413976D01*
X138960000Y-61394659D01*
X138763866Y-61413976D01*
X138575268Y-61471187D01*
X138401463Y-61564089D01*
X138249117Y-61689117D01*
X138124089Y-61841463D01*
X138031187Y-62015268D01*
X137973976Y-62203866D01*
X137954659Y-62400000D01*
X119425499Y-62400000D01*
X119425499Y-61719746D01*
X132299500Y-61719746D01*
X132311133Y-61778232D01*
X132340608Y-61822343D01*
X132355448Y-61844552D01*
X132399560Y-61874027D01*
X132421767Y-61888866D01*
X132421768Y-61888866D01*
X132421769Y-61888867D01*
X132480252Y-61900500D01*
X132480254Y-61900500D01*
X134119746Y-61900500D01*
X134119748Y-61900500D01*
X134178231Y-61888867D01*
X134244552Y-61844552D01*
X134288867Y-61778231D01*
X134300500Y-61719748D01*
X134300500Y-60080252D01*
X134288867Y-60021769D01*
X134244552Y-59955448D01*
X134222343Y-59940608D01*
X134178232Y-59911133D01*
X134178233Y-59911133D01*
X134148989Y-59905316D01*
X134119748Y-59899500D01*
X132480252Y-59899500D01*
X132451010Y-59905316D01*
X132421767Y-59911133D01*
X132355449Y-59955447D01*
X132355447Y-59955449D01*
X132311133Y-60021767D01*
X132299500Y-60080253D01*
X132299500Y-61719746D01*
X119425499Y-61719746D01*
X119425499Y-58917428D01*
X119425781Y-58910977D01*
X119429262Y-58871192D01*
X119418924Y-58832611D01*
X119417526Y-58826308D01*
X119410587Y-58786954D01*
X119408183Y-58782790D01*
X119400793Y-58764947D01*
X119399552Y-58760315D01*
X119376632Y-58727582D01*
X119373181Y-58722166D01*
X119353193Y-58687544D01*
X119353190Y-58687541D01*
X119322589Y-58661863D01*
X119317830Y-58657503D01*
X119238445Y-58578118D01*
X119217053Y-58532242D01*
X119225511Y-58490905D01*
X119228814Y-58484727D01*
X119286024Y-58296132D01*
X119305341Y-58100000D01*
X119286024Y-57903868D01*
X119228814Y-57715273D01*
X119228812Y-57715270D01*
X119228812Y-57715268D01*
X119177048Y-57618426D01*
X119135910Y-57541462D01*
X119010883Y-57389117D01*
X118858538Y-57264090D01*
X118848597Y-57258776D01*
X118684731Y-57171187D01*
X118496133Y-57113976D01*
X118300000Y-57094659D01*
X118103866Y-57113976D01*
X117915268Y-57171187D01*
X117741463Y-57264089D01*
X117589117Y-57389117D01*
X117464089Y-57541463D01*
X117371187Y-57715268D01*
X117313976Y-57903866D01*
X117294659Y-58100000D01*
X116765341Y-58100000D01*
X116746024Y-57903868D01*
X116688814Y-57715273D01*
X116688812Y-57715270D01*
X116688812Y-57715268D01*
X116637048Y-57618426D01*
X116595910Y-57541462D01*
X116470883Y-57389117D01*
X116318538Y-57264090D01*
X116308597Y-57258776D01*
X116144731Y-57171187D01*
X115956133Y-57113976D01*
X115760000Y-57094659D01*
X115563866Y-57113976D01*
X115375268Y-57171187D01*
X115201463Y-57264089D01*
X115049117Y-57389117D01*
X114924089Y-57541463D01*
X114831187Y-57715268D01*
X114773976Y-57903866D01*
X114754659Y-58100000D01*
X113905341Y-58100000D01*
X113886024Y-57903868D01*
X113828814Y-57715273D01*
X113828812Y-57715270D01*
X113828812Y-57715268D01*
X113777048Y-57618426D01*
X113735910Y-57541462D01*
X113610883Y-57389117D01*
X113458538Y-57264090D01*
X113448597Y-57258776D01*
X113284731Y-57171187D01*
X113096133Y-57113976D01*
X112900000Y-57094659D01*
X112703866Y-57113976D01*
X112515268Y-57171187D01*
X112341463Y-57264089D01*
X112189117Y-57389117D01*
X112064089Y-57541463D01*
X111971187Y-57715268D01*
X111913976Y-57903866D01*
X111894659Y-58100000D01*
X110764986Y-58100000D01*
X110745165Y-57974852D01*
X110732502Y-57950000D01*
X111450812Y-57950000D01*
X111450813Y-57949998D01*
X111445904Y-57897022D01*
X111445902Y-57897008D01*
X111390115Y-57700937D01*
X111390113Y-57700932D01*
X111299245Y-57518442D01*
X111299243Y-57518439D01*
X111176394Y-57355760D01*
X111176393Y-57355759D01*
X111025738Y-57218420D01*
X110852417Y-57111104D01*
X110852408Y-57111099D01*
X110662321Y-57037459D01*
X110567566Y-57019746D01*
X135699500Y-57019746D01*
X135711133Y-57078232D01*
X135722110Y-57094659D01*
X135755448Y-57144552D01*
X135799560Y-57174027D01*
X135821767Y-57188866D01*
X135821768Y-57188866D01*
X135821769Y-57188867D01*
X135880252Y-57200500D01*
X135880254Y-57200500D01*
X137519746Y-57200500D01*
X137519748Y-57200500D01*
X137578231Y-57188867D01*
X137644552Y-57144552D01*
X137688867Y-57078231D01*
X137700500Y-57019748D01*
X137700500Y-56200003D01*
X138095287Y-56200003D01*
X138114095Y-56402984D01*
X138169884Y-56599062D01*
X138169886Y-56599067D01*
X138260754Y-56781557D01*
X138260756Y-56781560D01*
X138323379Y-56864486D01*
X138830997Y-56356868D01*
X138872359Y-56438045D01*
X138961955Y-56527641D01*
X139043129Y-56569001D01*
X138532320Y-57079810D01*
X138534255Y-57081575D01*
X138534258Y-57081577D01*
X138707582Y-57188895D01*
X138707591Y-57188900D01*
X138897679Y-57262540D01*
X139098066Y-57299999D01*
X139098072Y-57300000D01*
X139301928Y-57300000D01*
X139301933Y-57299999D01*
X139502320Y-57262540D01*
X139692408Y-57188900D01*
X139692417Y-57188895D01*
X139865738Y-57081579D01*
X139867677Y-57079810D01*
X139867677Y-57079809D01*
X139356869Y-56569001D01*
X139438045Y-56527641D01*
X139527641Y-56438045D01*
X139569001Y-56356869D01*
X140076619Y-56864487D01*
X140139243Y-56781559D01*
X140139245Y-56781557D01*
X140230113Y-56599067D01*
X140230115Y-56599062D01*
X140285904Y-56402984D01*
X140304713Y-56200003D01*
X140304713Y-56199996D01*
X140285904Y-55997015D01*
X140230115Y-55800937D01*
X140230113Y-55800932D01*
X140139245Y-55618442D01*
X140139243Y-55618439D01*
X140076618Y-55535511D01*
X139569001Y-56043129D01*
X139527641Y-55961955D01*
X139438045Y-55872359D01*
X139356868Y-55830997D01*
X139867677Y-55320189D01*
X139865736Y-55318418D01*
X139692417Y-55211104D01*
X139692408Y-55211099D01*
X139502320Y-55137459D01*
X139301933Y-55100000D01*
X139098066Y-55100000D01*
X138897679Y-55137459D01*
X138707591Y-55211099D01*
X138707582Y-55211104D01*
X138534262Y-55318419D01*
X138534262Y-55318420D01*
X138532321Y-55320188D01*
X139043130Y-55830998D01*
X138961955Y-55872359D01*
X138872359Y-55961955D01*
X138830998Y-56043130D01*
X138323379Y-55535511D01*
X138260754Y-55618443D01*
X138260753Y-55618445D01*
X138169886Y-55800932D01*
X138169884Y-55800937D01*
X138114095Y-55997015D01*
X138095287Y-56199996D01*
X138095287Y-56200003D01*
X137700500Y-56200003D01*
X137700500Y-55380252D01*
X137688867Y-55321769D01*
X137687811Y-55320189D01*
X137674027Y-55299560D01*
X137644552Y-55255448D01*
X137614691Y-55235495D01*
X137578232Y-55211133D01*
X137578233Y-55211133D01*
X137548989Y-55205316D01*
X137519748Y-55199500D01*
X135880252Y-55199500D01*
X135851010Y-55205316D01*
X135821767Y-55211133D01*
X135755449Y-55255447D01*
X135755447Y-55255449D01*
X135711133Y-55321767D01*
X135699500Y-55380253D01*
X135699500Y-57019746D01*
X110567566Y-57019746D01*
X110510000Y-57008985D01*
X110510000Y-57727497D01*
X110485148Y-57714835D01*
X110391481Y-57700000D01*
X110328519Y-57700000D01*
X110234852Y-57714835D01*
X110210000Y-57727497D01*
X110210000Y-57008985D01*
X110209999Y-57008985D01*
X110057678Y-57037459D01*
X109867591Y-57111099D01*
X109867582Y-57111104D01*
X109694261Y-57218420D01*
X109694260Y-57218420D01*
X109543606Y-57355759D01*
X109543605Y-57355760D01*
X109420756Y-57518439D01*
X109420754Y-57518442D01*
X109329886Y-57700932D01*
X109329884Y-57700937D01*
X109274097Y-57897008D01*
X109274095Y-57897022D01*
X109269186Y-57949998D01*
X109269188Y-57950000D01*
X109987498Y-57950000D01*
X109974835Y-57974852D01*
X109955014Y-58100000D01*
X109974835Y-58225148D01*
X109987498Y-58250000D01*
X109269188Y-58250000D01*
X109269186Y-58250001D01*
X106299954Y-58250001D01*
X106425527Y-58201798D01*
X106425538Y-58201794D01*
X106752393Y-58035253D01*
X107060073Y-57835443D01*
X107345173Y-57604573D01*
X107368806Y-57580938D01*
X106732726Y-56944858D01*
X106794601Y-56932551D01*
X106877296Y-56877296D01*
X106932551Y-56794601D01*
X106944858Y-56732726D01*
X107580938Y-57368806D01*
X107604573Y-57345173D01*
X107835443Y-57060073D01*
X108035253Y-56752393D01*
X108201794Y-56425538D01*
X108201798Y-56425527D01*
X108333264Y-56083046D01*
X108390417Y-55869748D01*
X122674500Y-55869748D01*
X122682255Y-55908736D01*
X122686133Y-55928232D01*
X122696245Y-55943365D01*
X122730448Y-55994552D01*
X122774560Y-56024027D01*
X122796767Y-56038866D01*
X122796768Y-56038866D01*
X122796769Y-56038867D01*
X122855252Y-56050500D01*
X122855254Y-56050500D01*
X124594746Y-56050500D01*
X124594748Y-56050500D01*
X124653231Y-56038867D01*
X124719552Y-55994552D01*
X124763867Y-55928231D01*
X124775500Y-55869748D01*
X124775500Y-55150001D01*
X125123972Y-55150001D01*
X125129736Y-55212204D01*
X125129738Y-55212218D01*
X125188061Y-55417202D01*
X125188064Y-55417212D01*
X125283059Y-55607988D01*
X125283063Y-55607994D01*
X125411501Y-55778071D01*
X125569003Y-55921653D01*
X125750200Y-56033844D01*
X125750210Y-56033849D01*
X125948935Y-56110836D01*
X126114999Y-56141879D01*
X126115000Y-56141879D01*
X126115000Y-55481170D01*
X126122685Y-55484680D01*
X126229237Y-55500000D01*
X126300763Y-55500000D01*
X126407315Y-55484680D01*
X126415000Y-55481170D01*
X126415000Y-56141879D01*
X126581064Y-56110836D01*
X126779789Y-56033849D01*
X126779799Y-56033844D01*
X126960996Y-55921653D01*
X127118498Y-55778071D01*
X127246936Y-55607994D01*
X127246940Y-55607988D01*
X127341935Y-55417212D01*
X127341938Y-55417202D01*
X127400261Y-55212218D01*
X127400263Y-55212204D01*
X127401394Y-55200000D01*
X130054659Y-55200000D01*
X130073976Y-55396133D01*
X130131187Y-55584731D01*
X130208104Y-55728631D01*
X130224090Y-55758538D01*
X130349117Y-55910883D01*
X130501462Y-56035910D01*
X130574317Y-56074852D01*
X130675268Y-56128812D01*
X130675270Y-56128812D01*
X130675273Y-56128814D01*
X130863868Y-56186024D01*
X131060000Y-56205341D01*
X131256132Y-56186024D01*
X131444727Y-56128814D01*
X131618538Y-56035910D01*
X131770883Y-55910883D01*
X131895910Y-55758538D01*
X131988814Y-55584727D01*
X132046024Y-55396132D01*
X132065341Y-55200000D01*
X132594659Y-55200000D01*
X132613976Y-55396133D01*
X132671187Y-55584731D01*
X132748104Y-55728631D01*
X132764090Y-55758538D01*
X132889117Y-55910883D01*
X133041462Y-56035910D01*
X133114317Y-56074852D01*
X133215268Y-56128812D01*
X133215270Y-56128812D01*
X133215273Y-56128814D01*
X133403868Y-56186024D01*
X133600000Y-56205341D01*
X133796132Y-56186024D01*
X133984727Y-56128814D01*
X134158538Y-56035910D01*
X134310883Y-55910883D01*
X134435910Y-55758538D01*
X134528814Y-55584727D01*
X134586024Y-55396132D01*
X134605341Y-55200000D01*
X134586024Y-55003868D01*
X134584851Y-55000000D01*
X141495197Y-55000000D01*
X141514397Y-55366355D01*
X141514397Y-55366356D01*
X141571783Y-55728683D01*
X141666735Y-56083046D01*
X141798201Y-56425527D01*
X141798205Y-56425538D01*
X141964746Y-56752393D01*
X142164556Y-57060073D01*
X142395426Y-57345173D01*
X142419060Y-57368807D01*
X143055141Y-56732725D01*
X143067449Y-56794601D01*
X143122704Y-56877296D01*
X143205399Y-56932551D01*
X143267272Y-56944858D01*
X142631192Y-57580939D01*
X142654826Y-57604573D01*
X142939926Y-57835443D01*
X143247606Y-58035253D01*
X143574461Y-58201794D01*
X143574472Y-58201798D01*
X143916953Y-58333264D01*
X144271316Y-58428216D01*
X144633643Y-58485602D01*
X145000000Y-58504802D01*
X145366355Y-58485602D01*
X145366356Y-58485602D01*
X145728683Y-58428216D01*
X146083046Y-58333264D01*
X146425527Y-58201798D01*
X146425538Y-58201794D01*
X146752393Y-58035253D01*
X147060073Y-57835443D01*
X147345173Y-57604573D01*
X147368806Y-57580938D01*
X146732726Y-56944858D01*
X146794601Y-56932551D01*
X146877296Y-56877296D01*
X146932551Y-56794601D01*
X146944858Y-56732726D01*
X147580938Y-57368806D01*
X147604573Y-57345173D01*
X147835443Y-57060073D01*
X148035253Y-56752393D01*
X148201794Y-56425538D01*
X148201798Y-56425527D01*
X148333264Y-56083046D01*
X148428216Y-55728683D01*
X148485602Y-55366356D01*
X148485602Y-55366355D01*
X148504802Y-55000000D01*
X148485602Y-54633644D01*
X148485602Y-54633643D01*
X148428216Y-54271316D01*
X148333264Y-53916953D01*
X148201794Y-53574461D01*
X148201791Y-53574456D01*
X148035253Y-53247607D01*
X147835443Y-52939926D01*
X147604573Y-52654826D01*
X147580939Y-52631192D01*
X146944858Y-53267272D01*
X146932551Y-53205399D01*
X146877296Y-53122704D01*
X146794601Y-53067449D01*
X146732725Y-53055141D01*
X147368807Y-52419060D01*
X147345173Y-52395426D01*
X147060073Y-52164556D01*
X146752393Y-51964746D01*
X146425538Y-51798205D01*
X146425527Y-51798201D01*
X146083046Y-51666735D01*
X145728683Y-51571783D01*
X145366356Y-51514397D01*
X145000000Y-51495197D01*
X144633644Y-51514397D01*
X144633643Y-51514397D01*
X144271316Y-51571783D01*
X143916953Y-51666735D01*
X143574461Y-51798205D01*
X143574456Y-51798208D01*
X143247607Y-51964746D01*
X142939926Y-52164556D01*
X142654827Y-52395425D01*
X142631192Y-52419059D01*
X143267274Y-53055141D01*
X143205399Y-53067449D01*
X143122704Y-53122704D01*
X143067449Y-53205399D01*
X143055141Y-53267274D01*
X142419059Y-52631192D01*
X142395425Y-52654827D01*
X142164556Y-52939926D01*
X141964746Y-53247607D01*
X141798208Y-53574456D01*
X141798205Y-53574461D01*
X141666735Y-53916953D01*
X141571783Y-54271316D01*
X141514397Y-54633643D01*
X141514397Y-54633644D01*
X141495197Y-55000000D01*
X134584851Y-55000000D01*
X134528814Y-54815273D01*
X134528812Y-54815270D01*
X134528812Y-54815268D01*
X134450737Y-54669202D01*
X134435910Y-54641462D01*
X134310883Y-54489117D01*
X134158538Y-54364090D01*
X134148597Y-54358776D01*
X133984731Y-54271187D01*
X133796133Y-54213976D01*
X133600000Y-54194659D01*
X133403866Y-54213976D01*
X133215268Y-54271187D01*
X133041463Y-54364089D01*
X132889117Y-54489117D01*
X132764089Y-54641463D01*
X132671187Y-54815268D01*
X132613976Y-55003866D01*
X132594659Y-55200000D01*
X132065341Y-55200000D01*
X132046024Y-55003868D01*
X131988814Y-54815273D01*
X131988812Y-54815270D01*
X131988812Y-54815268D01*
X131910737Y-54669202D01*
X131895910Y-54641462D01*
X131770883Y-54489117D01*
X131618538Y-54364090D01*
X131608597Y-54358776D01*
X131444731Y-54271187D01*
X131256133Y-54213976D01*
X131060000Y-54194659D01*
X130863866Y-54213976D01*
X130675268Y-54271187D01*
X130501463Y-54364089D01*
X130349117Y-54489117D01*
X130224089Y-54641463D01*
X130131187Y-54815268D01*
X130073976Y-55003866D01*
X130054659Y-55200000D01*
X127401394Y-55200000D01*
X127406027Y-55150001D01*
X127406026Y-55150000D01*
X126742065Y-55150000D01*
X126765000Y-55071889D01*
X126765000Y-54928111D01*
X126742065Y-54850000D01*
X127406026Y-54850000D01*
X127406027Y-54849998D01*
X127400263Y-54787795D01*
X127400261Y-54787781D01*
X127341938Y-54582797D01*
X127341935Y-54582787D01*
X127246940Y-54392011D01*
X127246936Y-54392005D01*
X127118498Y-54221928D01*
X126960996Y-54078346D01*
X126779799Y-53966155D01*
X126779789Y-53966150D01*
X126581063Y-53889162D01*
X126415000Y-53858119D01*
X126415000Y-54518829D01*
X126407315Y-54515320D01*
X126300763Y-54500000D01*
X126229237Y-54500000D01*
X126122685Y-54515320D01*
X126115000Y-54518829D01*
X126115000Y-53858119D01*
X126114999Y-53858119D01*
X125948936Y-53889162D01*
X125750210Y-53966150D01*
X125750200Y-53966155D01*
X125569003Y-54078346D01*
X125411501Y-54221928D01*
X125283063Y-54392005D01*
X125283059Y-54392011D01*
X125188064Y-54582787D01*
X125188061Y-54582797D01*
X125129738Y-54787781D01*
X125129736Y-54787795D01*
X125123972Y-54849998D01*
X125123974Y-54850000D01*
X125787935Y-54850000D01*
X125765000Y-54928111D01*
X125765000Y-55071889D01*
X125787935Y-55150000D01*
X125123974Y-55150000D01*
X125123972Y-55150001D01*
X124775500Y-55150001D01*
X124775500Y-54130252D01*
X124763867Y-54071769D01*
X124719552Y-54005448D01*
X124697343Y-53990608D01*
X124653232Y-53961133D01*
X124653233Y-53961133D01*
X124623989Y-53955316D01*
X124594748Y-53949500D01*
X122855252Y-53949500D01*
X122826010Y-53955316D01*
X122796767Y-53961133D01*
X122730449Y-54005447D01*
X122730447Y-54005449D01*
X122686133Y-54071767D01*
X122678377Y-54110757D01*
X122674500Y-54130252D01*
X122674500Y-55869748D01*
X108390417Y-55869748D01*
X108428216Y-55728683D01*
X108485602Y-55366356D01*
X108485602Y-55366355D01*
X108504802Y-55000000D01*
X108485602Y-54633644D01*
X108485602Y-54633643D01*
X108428216Y-54271316D01*
X108333264Y-53916953D01*
X108201794Y-53574461D01*
X108201791Y-53574456D01*
X108035253Y-53247607D01*
X107835443Y-52939926D01*
X107604573Y-52654826D01*
X107580939Y-52631192D01*
X106944858Y-53267272D01*
X106932551Y-53205399D01*
X106877296Y-53122704D01*
X106794601Y-53067449D01*
X106732725Y-53055141D01*
X107368807Y-52419060D01*
X107345173Y-52395426D01*
X107060073Y-52164556D01*
X106752393Y-51964746D01*
X106425538Y-51798205D01*
X106425527Y-51798201D01*
X106083046Y-51666735D01*
X105728683Y-51571783D01*
X105366356Y-51514397D01*
X105000000Y-51495197D01*
X104633644Y-51514397D01*
X104633643Y-51514397D01*
X104271316Y-51571783D01*
X103916953Y-51666735D01*
X103574461Y-51798205D01*
X103574456Y-51798208D01*
X103247607Y-51964746D01*
X102939926Y-52164556D01*
X102654827Y-52395425D01*
X102631192Y-52419059D01*
X103267274Y-53055141D01*
X103205399Y-53067449D01*
X103122704Y-53122704D01*
X103067449Y-53205399D01*
X103055141Y-53267274D01*
X102419059Y-52631192D01*
X102395425Y-52654827D01*
X102164556Y-52939926D01*
X101964746Y-53247607D01*
X101798208Y-53574456D01*
X101798205Y-53574461D01*
X101666735Y-53916953D01*
X101571783Y-54271316D01*
X101514397Y-54633643D01*
X101514397Y-54633644D01*
X101495197Y-55000000D01*
X100000500Y-55000000D01*
X100000500Y-52130004D01*
X100000547Y-52127363D01*
X100010037Y-51861649D01*
X100010743Y-51853759D01*
X100049931Y-51581193D01*
X100052175Y-51570883D01*
X100129385Y-51307930D01*
X100133074Y-51298038D01*
X100246913Y-51048763D01*
X100251969Y-51039501D01*
X100400138Y-50808946D01*
X100406455Y-50800507D01*
X100585930Y-50593382D01*
X100593382Y-50585930D01*
X100800507Y-50406455D01*
X100808946Y-50400138D01*
X101039501Y-50251969D01*
X101048760Y-50246914D01*
X101298038Y-50133074D01*
X101307930Y-50129385D01*
X101570883Y-50052175D01*
X101581193Y-50049931D01*
X101853767Y-50010742D01*
X101861641Y-50010037D01*
X102127364Y-50000547D01*
X102130005Y-50000500D01*
X123824552Y-50000500D01*
X124666055Y-50000948D01*
G37*
%TD.AperFunction*%
%TD*%
M02*
