M48
; DRILL file {KiCad 7.0.10-7.0.10~ubuntu22.04.1} date Wed 03 Jan 2024 06:29:51 PM PST
; FORMAT={-:-/ absolute / inch / decimal}
; #@! TF.CreationDate,2024-01-03T18:29:51-08:00
; #@! TF.GenerationSoftware,Kicad,Pcbnew,7.0.10-7.0.10~ubuntu22.04.1
; #@! TF.FileFunction,Plated,1,2,PTH
FMAT,2
INCH
; #@! TA.AperFunction,Plated,PTH,ViaDrill
T1C0.0118
; #@! TA.AperFunction,Plated,PTH,ComponentDrill
T2C0.0197
; #@! TA.AperFunction,Plated,PTH,ComponentDrill
T3C0.0315
; #@! TA.AperFunction,Plated,PTH,ComponentDrill
T4C0.0394
; #@! TA.AperFunction,Plated,PTH,ComponentDrill
T5C0.1260
%
G90
G05
T1
X3.9764Y-2.0472
X3.9764Y-2.2441
X3.9764Y-2.4409
X3.9764Y-2.6378
X3.9764Y-2.8346
X3.9764Y-3.0315
X3.9764Y-3.2283
X3.9764Y-3.4252
X3.9764Y-3.622
X3.9764Y-3.8189
X4.0157Y-2.0079
X4.0157Y-3.8976
X4.2126Y-2.0079
X4.2126Y-3.8976
X4.4094Y-2.0079
X4.4094Y-3.8976
X4.6063Y-2.0079
X4.6063Y-3.8976
X4.8031Y-2.0079
X4.8031Y-3.8976
X5.0Y-2.0079
X5.0Y-3.8976
X5.1969Y-2.0079
X5.1969Y-3.8976
X5.3937Y-2.0079
X5.3937Y-3.8976
X5.5906Y-2.0079
X5.5906Y-3.8976
X5.7874Y-2.0079
X5.7874Y-3.8976
X5.8661Y-2.0472
X5.8661Y-2.2441
X5.8661Y-2.4409
X5.8661Y-2.6378
X5.8661Y-2.8346
X5.8661Y-3.0315
X5.8661Y-3.2283
X5.8661Y-3.4252
X5.8661Y-3.622
X5.8661Y-3.8189
T2
X4.0394Y-2.1654
X4.0394Y-3.7402
X4.067Y-2.0985
X4.067Y-2.2322
X4.067Y-3.6733
X4.067Y-3.807
X4.1339Y-2.0709
X4.1339Y-2.2598
X4.1339Y-3.6457
X4.1339Y-3.8346
X4.2007Y-2.0985
X4.2007Y-2.2322
X4.2007Y-3.6733
X4.2007Y-3.807
X4.2283Y-2.1654
X4.2283Y-3.7402
X5.6142Y-2.1654
X5.6142Y-3.7402
X5.6418Y-2.0985
X5.6418Y-2.2322
X5.6418Y-3.6733
X5.6418Y-3.807
X5.7087Y-2.0709
X5.7087Y-2.2598
X5.7087Y-3.6457
X5.7087Y-3.8346
X5.7755Y-2.0985
X5.7755Y-2.2322
X5.7755Y-3.6733
X5.7755Y-3.807
X5.8031Y-2.1654
X5.8031Y-3.7402
T3
X4.1339Y-2.5118
X4.1339Y-2.7087
X4.3307Y-2.4803
X4.3307Y-2.6654
X4.3307Y-3.2598
X4.3307Y-3.4488
X4.3449Y-2.2874
X4.4213Y-2.8543
X4.4213Y-3.0512
X4.4307Y-2.4803
X4.4307Y-2.6654
X4.4307Y-3.2598
X4.4307Y-3.4488
X4.4449Y-2.2874
X4.5575Y-2.2874
X4.6063Y-2.4567
X4.6063Y-2.6535
X4.6063Y-3.252
X4.6063Y-3.4488
X4.6181Y-2.8543
X4.6181Y-3.0512
X4.6575Y-2.2874
X4.7707Y-2.6526
X4.7707Y-2.7526
X4.7707Y-2.8526
X4.7707Y-2.9526
X4.7707Y-3.0526
X4.7707Y-3.1526
X4.7707Y-3.2526
X5.0707Y-2.6526
X5.0707Y-2.7526
X5.0707Y-2.8526
X5.0707Y-2.9526
X5.0707Y-3.0526
X5.0707Y-3.1526
X5.0707Y-3.2526
X5.1598Y-2.1732
X5.2244Y-2.8504
X5.2244Y-3.0512
X5.2323Y-3.4055
X5.2323Y-3.5433
X5.248Y-2.3976
X5.248Y-2.5354
X5.2598Y-2.1732
X5.3819Y-2.2126
X5.4213Y-2.8504
X5.4213Y-3.0512
X5.4709Y-2.4567
X5.4709Y-2.6457
X5.4709Y-3.2638
X5.4709Y-3.4488
X5.4803Y-2.2126
X5.5709Y-2.4567
X5.5709Y-2.6457
X5.5709Y-3.2638
X5.5709Y-3.4488
X5.7087Y-2.5157
X5.7087Y-2.7126
T4
X4.1339Y-2.9026
X4.1339Y-3.0026
X4.8711Y-2.1654
X4.9711Y-2.1654
X5.7087Y-2.9026
X5.7087Y-3.0026
T5
X4.1339Y-2.1654
X4.1339Y-3.7402
X5.7087Y-2.1654
X5.7087Y-3.7402
M30
