%TF.GenerationSoftware,KiCad,Pcbnew,7.0.10-7.0.10~ubuntu22.04.1*%
%TF.CreationDate,2024-01-03T18:29:50-08:00*%
%TF.ProjectId,YamhillActiveAFFilter,59616d68-696c-46c4-9163-746976654146,A*%
%TF.SameCoordinates,Original*%
%TF.FileFunction,Drillmap*%
%TF.FilePolarity,Positive*%
%FSLAX45Y45*%
G04 Gerber Fmt 4.5, Leading zero omitted, Abs format (unit mm)*
G04 Created by KiCad (PCBNEW 7.0.10-7.0.10~ubuntu22.04.1) date 2024-01-03 18:29:50*
%MOMM*%
%LPD*%
G01*
G04 APERTURE LIST*
%ADD10C,0.200000*%
%ADD11C,0.100000*%
%ADD12C,0.320000*%
G04 APERTURE END LIST*
D10*
X14800000Y-10000000D02*
X10200000Y-10000000D01*
X10000000Y-9800000D02*
G75*
G03*
X10200000Y-10000000I200000J0D01*
G01*
X15000000Y-5200000D02*
G75*
G03*
X14800000Y-5000000I-200000J0D01*
G01*
X10200000Y-5000000D02*
G75*
G03*
X10000000Y-5200000I0J-200000D01*
G01*
X10000000Y-9800000D02*
X10000000Y-5200000D01*
X10200000Y-5000000D02*
X14800000Y-5000000D01*
X14800000Y-10000000D02*
G75*
G03*
X15000000Y-9800000I0J200000D01*
G01*
X15000000Y-5200000D02*
X15000000Y-9800000D01*
D11*
X10085000Y-5185000D02*
X10115000Y-5215000D01*
X10115000Y-5185000D02*
X10085000Y-5215000D01*
X10085000Y-5685000D02*
X10115000Y-5715000D01*
X10115000Y-5685000D02*
X10085000Y-5715000D01*
X10085000Y-6185000D02*
X10115000Y-6215000D01*
X10115000Y-6185000D02*
X10085000Y-6215000D01*
X10085000Y-6685000D02*
X10115000Y-6715000D01*
X10115000Y-6685000D02*
X10085000Y-6715000D01*
X10085000Y-7185000D02*
X10115000Y-7215000D01*
X10115000Y-7185000D02*
X10085000Y-7215000D01*
X10085000Y-7685000D02*
X10115000Y-7715000D01*
X10115000Y-7685000D02*
X10085000Y-7715000D01*
X10085000Y-8185000D02*
X10115000Y-8215000D01*
X10115000Y-8185000D02*
X10085000Y-8215000D01*
X10085000Y-8685000D02*
X10115000Y-8715000D01*
X10115000Y-8685000D02*
X10085000Y-8715000D01*
X10085000Y-9185000D02*
X10115000Y-9215000D01*
X10115000Y-9185000D02*
X10085000Y-9215000D01*
X10085000Y-9685000D02*
X10115000Y-9715000D01*
X10115000Y-9685000D02*
X10085000Y-9715000D01*
X10185000Y-5085000D02*
X10215000Y-5115000D01*
X10215000Y-5085000D02*
X10185000Y-5115000D01*
X10185000Y-9885000D02*
X10215000Y-9915000D01*
X10215000Y-9885000D02*
X10185000Y-9915000D01*
X10685000Y-5085000D02*
X10715000Y-5115000D01*
X10715000Y-5085000D02*
X10685000Y-5115000D01*
X10685000Y-9885000D02*
X10715000Y-9915000D01*
X10715000Y-9885000D02*
X10685000Y-9915000D01*
X11185000Y-5085000D02*
X11215000Y-5115000D01*
X11215000Y-5085000D02*
X11185000Y-5115000D01*
X11185000Y-9885000D02*
X11215000Y-9915000D01*
X11215000Y-9885000D02*
X11185000Y-9915000D01*
X11685000Y-5085000D02*
X11715000Y-5115000D01*
X11715000Y-5085000D02*
X11685000Y-5115000D01*
X11685000Y-9885000D02*
X11715000Y-9915000D01*
X11715000Y-9885000D02*
X11685000Y-9915000D01*
X12185000Y-5085000D02*
X12215000Y-5115000D01*
X12215000Y-5085000D02*
X12185000Y-5115000D01*
X12185000Y-9885000D02*
X12215000Y-9915000D01*
X12215000Y-9885000D02*
X12185000Y-9915000D01*
X12685000Y-5085000D02*
X12715000Y-5115000D01*
X12715000Y-5085000D02*
X12685000Y-5115000D01*
X12685000Y-9885000D02*
X12715000Y-9915000D01*
X12715000Y-9885000D02*
X12685000Y-9915000D01*
X13185000Y-5085000D02*
X13215000Y-5115000D01*
X13215000Y-5085000D02*
X13185000Y-5115000D01*
X13185000Y-9885000D02*
X13215000Y-9915000D01*
X13215000Y-9885000D02*
X13185000Y-9915000D01*
X13685000Y-5085000D02*
X13715000Y-5115000D01*
X13715000Y-5085000D02*
X13685000Y-5115000D01*
X13685000Y-9885000D02*
X13715000Y-9915000D01*
X13715000Y-9885000D02*
X13685000Y-9915000D01*
X14185000Y-5085000D02*
X14215000Y-5115000D01*
X14215000Y-5085000D02*
X14185000Y-5115000D01*
X14185000Y-9885000D02*
X14215000Y-9915000D01*
X14215000Y-9885000D02*
X14185000Y-9915000D01*
X14685000Y-5085000D02*
X14715000Y-5115000D01*
X14715000Y-5085000D02*
X14685000Y-5115000D01*
X14685000Y-9885000D02*
X14715000Y-9915000D01*
X14715000Y-9885000D02*
X14685000Y-9915000D01*
X14885000Y-5185000D02*
X14915000Y-5215000D01*
X14915000Y-5185000D02*
X14885000Y-5215000D01*
X14885000Y-5685000D02*
X14915000Y-5715000D01*
X14915000Y-5685000D02*
X14885000Y-5715000D01*
X14885000Y-6185000D02*
X14915000Y-6215000D01*
X14915000Y-6185000D02*
X14885000Y-6215000D01*
X14885000Y-6685000D02*
X14915000Y-6715000D01*
X14915000Y-6685000D02*
X14885000Y-6715000D01*
X14885000Y-7185000D02*
X14915000Y-7215000D01*
X14915000Y-7185000D02*
X14885000Y-7215000D01*
X14885000Y-7685000D02*
X14915000Y-7715000D01*
X14915000Y-7685000D02*
X14885000Y-7715000D01*
X14885000Y-8185000D02*
X14915000Y-8215000D01*
X14915000Y-8185000D02*
X14885000Y-8215000D01*
X14885000Y-8685000D02*
X14915000Y-8715000D01*
X14915000Y-8685000D02*
X14885000Y-8715000D01*
X14885000Y-9185000D02*
X14915000Y-9215000D01*
X14915000Y-9185000D02*
X14885000Y-9215000D01*
X14885000Y-9685000D02*
X14915000Y-9715000D01*
X14915000Y-9685000D02*
X14885000Y-9715000D01*
X10285000Y-5500000D02*
G75*
G03*
X10235000Y-5500000I-25000J0D01*
G01*
X10235000Y-5500000D02*
G75*
G03*
X10285000Y-5500000I25000J0D01*
G01*
X10285000Y-9500000D02*
G75*
G03*
X10235000Y-9500000I-25000J0D01*
G01*
X10235000Y-9500000D02*
G75*
G03*
X10285000Y-9500000I25000J0D01*
G01*
X10355294Y-5330294D02*
G75*
G03*
X10305294Y-5330294I-25000J0D01*
G01*
X10305294Y-5330294D02*
G75*
G03*
X10355294Y-5330294I25000J0D01*
G01*
X10355294Y-5669706D02*
G75*
G03*
X10305294Y-5669706I-25000J0D01*
G01*
X10305294Y-5669706D02*
G75*
G03*
X10355294Y-5669706I25000J0D01*
G01*
X10355294Y-9330294D02*
G75*
G03*
X10305294Y-9330294I-25000J0D01*
G01*
X10305294Y-9330294D02*
G75*
G03*
X10355294Y-9330294I25000J0D01*
G01*
X10355294Y-9669706D02*
G75*
G03*
X10305294Y-9669706I-25000J0D01*
G01*
X10305294Y-9669706D02*
G75*
G03*
X10355294Y-9669706I25000J0D01*
G01*
X10525000Y-5260000D02*
G75*
G03*
X10475000Y-5260000I-25000J0D01*
G01*
X10475000Y-5260000D02*
G75*
G03*
X10525000Y-5260000I25000J0D01*
G01*
X10525000Y-5740000D02*
G75*
G03*
X10475000Y-5740000I-25000J0D01*
G01*
X10475000Y-5740000D02*
G75*
G03*
X10525000Y-5740000I25000J0D01*
G01*
X10525000Y-9260000D02*
G75*
G03*
X10475000Y-9260000I-25000J0D01*
G01*
X10475000Y-9260000D02*
G75*
G03*
X10525000Y-9260000I25000J0D01*
G01*
X10525000Y-9740000D02*
G75*
G03*
X10475000Y-9740000I-25000J0D01*
G01*
X10475000Y-9740000D02*
G75*
G03*
X10525000Y-9740000I25000J0D01*
G01*
X10694706Y-5330294D02*
G75*
G03*
X10644706Y-5330294I-25000J0D01*
G01*
X10644706Y-5330294D02*
G75*
G03*
X10694706Y-5330294I25000J0D01*
G01*
X10694706Y-5669706D02*
G75*
G03*
X10644706Y-5669706I-25000J0D01*
G01*
X10644706Y-5669706D02*
G75*
G03*
X10694706Y-5669706I25000J0D01*
G01*
X10694706Y-9330294D02*
G75*
G03*
X10644706Y-9330294I-25000J0D01*
G01*
X10644706Y-9330294D02*
G75*
G03*
X10694706Y-9330294I25000J0D01*
G01*
X10694706Y-9669706D02*
G75*
G03*
X10644706Y-9669706I-25000J0D01*
G01*
X10644706Y-9669706D02*
G75*
G03*
X10694706Y-9669706I25000J0D01*
G01*
X10765000Y-5500000D02*
G75*
G03*
X10715000Y-5500000I-25000J0D01*
G01*
X10715000Y-5500000D02*
G75*
G03*
X10765000Y-5500000I25000J0D01*
G01*
X10765000Y-9500000D02*
G75*
G03*
X10715000Y-9500000I-25000J0D01*
G01*
X10715000Y-9500000D02*
G75*
G03*
X10765000Y-9500000I25000J0D01*
G01*
X14285000Y-5500000D02*
G75*
G03*
X14235000Y-5500000I-25000J0D01*
G01*
X14235000Y-5500000D02*
G75*
G03*
X14285000Y-5500000I25000J0D01*
G01*
X14285000Y-9500000D02*
G75*
G03*
X14235000Y-9500000I-25000J0D01*
G01*
X14235000Y-9500000D02*
G75*
G03*
X14285000Y-9500000I25000J0D01*
G01*
X14355294Y-5330294D02*
G75*
G03*
X14305294Y-5330294I-25000J0D01*
G01*
X14305294Y-5330294D02*
G75*
G03*
X14355294Y-5330294I25000J0D01*
G01*
X14355294Y-5669706D02*
G75*
G03*
X14305294Y-5669706I-25000J0D01*
G01*
X14305294Y-5669706D02*
G75*
G03*
X14355294Y-5669706I25000J0D01*
G01*
X14355294Y-9330294D02*
G75*
G03*
X14305294Y-9330294I-25000J0D01*
G01*
X14305294Y-9330294D02*
G75*
G03*
X14355294Y-9330294I25000J0D01*
G01*
X14355294Y-9669706D02*
G75*
G03*
X14305294Y-9669706I-25000J0D01*
G01*
X14305294Y-9669706D02*
G75*
G03*
X14355294Y-9669706I25000J0D01*
G01*
X14525000Y-5260000D02*
G75*
G03*
X14475000Y-5260000I-25000J0D01*
G01*
X14475000Y-5260000D02*
G75*
G03*
X14525000Y-5260000I25000J0D01*
G01*
X14525000Y-5740000D02*
G75*
G03*
X14475000Y-5740000I-25000J0D01*
G01*
X14475000Y-5740000D02*
G75*
G03*
X14525000Y-5740000I25000J0D01*
G01*
X14525000Y-9260000D02*
G75*
G03*
X14475000Y-9260000I-25000J0D01*
G01*
X14475000Y-9260000D02*
G75*
G03*
X14525000Y-9260000I25000J0D01*
G01*
X14525000Y-9740000D02*
G75*
G03*
X14475000Y-9740000I-25000J0D01*
G01*
X14475000Y-9740000D02*
G75*
G03*
X14525000Y-9740000I25000J0D01*
G01*
X14694706Y-5330294D02*
G75*
G03*
X14644706Y-5330294I-25000J0D01*
G01*
X14644706Y-5330294D02*
G75*
G03*
X14694706Y-5330294I25000J0D01*
G01*
X14694706Y-5669706D02*
G75*
G03*
X14644706Y-5669706I-25000J0D01*
G01*
X14644706Y-5669706D02*
G75*
G03*
X14694706Y-5669706I25000J0D01*
G01*
X14694706Y-9330294D02*
G75*
G03*
X14644706Y-9330294I-25000J0D01*
G01*
X14644706Y-9330294D02*
G75*
G03*
X14694706Y-9330294I25000J0D01*
G01*
X14694706Y-9669706D02*
G75*
G03*
X14644706Y-9669706I-25000J0D01*
G01*
X14644706Y-9669706D02*
G75*
G03*
X14694706Y-9669706I25000J0D01*
G01*
X14765000Y-5500000D02*
G75*
G03*
X14715000Y-5500000I-25000J0D01*
G01*
X14715000Y-5500000D02*
G75*
G03*
X14765000Y-5500000I25000J0D01*
G01*
X14765000Y-9500000D02*
G75*
G03*
X14715000Y-9500000I-25000J0D01*
G01*
X14715000Y-9500000D02*
G75*
G03*
X14765000Y-9500000I25000J0D01*
G01*
X10500000Y-6340000D02*
X10500000Y-6420000D01*
X10460000Y-6380000D02*
X10540000Y-6380000D01*
X10500000Y-6840000D02*
X10500000Y-6920000D01*
X10460000Y-6880000D02*
X10540000Y-6880000D01*
X11000000Y-6260000D02*
X11000000Y-6340000D01*
X10960000Y-6300000D02*
X11040000Y-6300000D01*
X11000000Y-6730000D02*
X11000000Y-6810000D01*
X10960000Y-6770000D02*
X11040000Y-6770000D01*
X11000000Y-8240000D02*
X11000000Y-8320000D01*
X10960000Y-8280000D02*
X11040000Y-8280000D01*
X11000000Y-8720000D02*
X11000000Y-8800000D01*
X10960000Y-8760000D02*
X11040000Y-8760000D01*
X11036000Y-5770000D02*
X11036000Y-5850000D01*
X10996000Y-5810000D02*
X11076000Y-5810000D01*
X11230000Y-7210000D02*
X11230000Y-7290000D01*
X11190000Y-7250000D02*
X11270000Y-7250000D01*
X11230000Y-7710000D02*
X11230000Y-7790000D01*
X11190000Y-7750000D02*
X11270000Y-7750000D01*
X11254000Y-6260000D02*
X11254000Y-6340000D01*
X11214000Y-6300000D02*
X11294000Y-6300000D01*
X11254000Y-6730000D02*
X11254000Y-6810000D01*
X11214000Y-6770000D02*
X11294000Y-6770000D01*
X11254000Y-8240000D02*
X11254000Y-8320000D01*
X11214000Y-8280000D02*
X11294000Y-8280000D01*
X11254000Y-8720000D02*
X11254000Y-8800000D01*
X11214000Y-8760000D02*
X11294000Y-8760000D01*
X11290000Y-5770000D02*
X11290000Y-5850000D01*
X11250000Y-5810000D02*
X11330000Y-5810000D01*
X11576000Y-5770000D02*
X11576000Y-5850000D01*
X11536000Y-5810000D02*
X11616000Y-5810000D01*
X11700000Y-6200000D02*
X11700000Y-6280000D01*
X11660000Y-6240000D02*
X11740000Y-6240000D01*
X11700000Y-6700000D02*
X11700000Y-6780000D01*
X11660000Y-6740000D02*
X11740000Y-6740000D01*
X11700000Y-8220000D02*
X11700000Y-8300000D01*
X11660000Y-8260000D02*
X11740000Y-8260000D01*
X11700000Y-8720000D02*
X11700000Y-8800000D01*
X11660000Y-8760000D02*
X11740000Y-8760000D01*
X11730000Y-7210000D02*
X11730000Y-7290000D01*
X11690000Y-7250000D02*
X11770000Y-7250000D01*
X11730000Y-7710000D02*
X11730000Y-7790000D01*
X11690000Y-7750000D02*
X11770000Y-7750000D01*
X11830000Y-5770000D02*
X11830000Y-5850000D01*
X11790000Y-5810000D02*
X11870000Y-5810000D01*
X12117500Y-6697500D02*
X12117500Y-6777500D01*
X12077500Y-6737500D02*
X12157500Y-6737500D01*
X12117500Y-6951500D02*
X12117500Y-7031500D01*
X12077500Y-6991500D02*
X12157500Y-6991500D01*
X12117500Y-7205500D02*
X12117500Y-7285500D01*
X12077500Y-7245500D02*
X12157500Y-7245500D01*
X12117500Y-7459500D02*
X12117500Y-7539500D01*
X12077500Y-7499500D02*
X12157500Y-7499500D01*
X12117500Y-7713500D02*
X12117500Y-7793500D01*
X12077500Y-7753500D02*
X12157500Y-7753500D01*
X12117500Y-7967500D02*
X12117500Y-8047500D01*
X12077500Y-8007500D02*
X12157500Y-8007500D01*
X12117500Y-8221500D02*
X12117500Y-8301500D01*
X12077500Y-8261500D02*
X12157500Y-8261500D01*
X12879500Y-6697500D02*
X12879500Y-6777500D01*
X12839500Y-6737500D02*
X12919500Y-6737500D01*
X12879500Y-6951500D02*
X12879500Y-7031500D01*
X12839500Y-6991500D02*
X12919500Y-6991500D01*
X12879500Y-7205500D02*
X12879500Y-7285500D01*
X12839500Y-7245500D02*
X12919500Y-7245500D01*
X12879500Y-7459500D02*
X12879500Y-7539500D01*
X12839500Y-7499500D02*
X12919500Y-7499500D01*
X12879500Y-7713500D02*
X12879500Y-7793500D01*
X12839500Y-7753500D02*
X12919500Y-7753500D01*
X12879500Y-7967500D02*
X12879500Y-8047500D01*
X12839500Y-8007500D02*
X12919500Y-8007500D01*
X12879500Y-8221500D02*
X12879500Y-8301500D01*
X12839500Y-8261500D02*
X12919500Y-8261500D01*
X13106000Y-5480000D02*
X13106000Y-5560000D01*
X13066000Y-5520000D02*
X13146000Y-5520000D01*
X13270000Y-7200000D02*
X13270000Y-7280000D01*
X13230000Y-7240000D02*
X13310000Y-7240000D01*
X13270000Y-7710000D02*
X13270000Y-7790000D01*
X13230000Y-7750000D02*
X13310000Y-7750000D01*
X13290000Y-8610000D02*
X13290000Y-8690000D01*
X13250000Y-8650000D02*
X13330000Y-8650000D01*
X13290000Y-8960000D02*
X13290000Y-9040000D01*
X13250000Y-9000000D02*
X13330000Y-9000000D01*
X13330000Y-6050000D02*
X13330000Y-6130000D01*
X13290000Y-6090000D02*
X13370000Y-6090000D01*
X13330000Y-6400000D02*
X13330000Y-6480000D01*
X13290000Y-6440000D02*
X13370000Y-6440000D01*
X13360000Y-5480000D02*
X13360000Y-5560000D01*
X13320000Y-5520000D02*
X13400000Y-5520000D01*
X13670000Y-5580000D02*
X13670000Y-5660000D01*
X13630000Y-5620000D02*
X13710000Y-5620000D01*
X13770000Y-7200000D02*
X13770000Y-7280000D01*
X13730000Y-7240000D02*
X13810000Y-7240000D01*
X13770000Y-7710000D02*
X13770000Y-7790000D01*
X13730000Y-7750000D02*
X13810000Y-7750000D01*
X13896000Y-6200000D02*
X13896000Y-6280000D01*
X13856000Y-6240000D02*
X13936000Y-6240000D01*
X13896000Y-6680000D02*
X13896000Y-6760000D01*
X13856000Y-6720000D02*
X13936000Y-6720000D01*
X13896000Y-8250000D02*
X13896000Y-8330000D01*
X13856000Y-8290000D02*
X13936000Y-8290000D01*
X13896000Y-8720000D02*
X13896000Y-8800000D01*
X13856000Y-8760000D02*
X13936000Y-8760000D01*
X13920000Y-5580000D02*
X13920000Y-5660000D01*
X13880000Y-5620000D02*
X13960000Y-5620000D01*
X14150000Y-6200000D02*
X14150000Y-6280000D01*
X14110000Y-6240000D02*
X14190000Y-6240000D01*
X14150000Y-6680000D02*
X14150000Y-6760000D01*
X14110000Y-6720000D02*
X14190000Y-6720000D01*
X14150000Y-8250000D02*
X14150000Y-8330000D01*
X14110000Y-8290000D02*
X14190000Y-8290000D01*
X14150000Y-8720000D02*
X14150000Y-8800000D01*
X14110000Y-8760000D02*
X14190000Y-8760000D01*
X14500000Y-6350000D02*
X14500000Y-6430000D01*
X14460000Y-6390000D02*
X14540000Y-6390000D01*
X14500000Y-6850000D02*
X14500000Y-6930000D01*
X14460000Y-6890000D02*
X14540000Y-6890000D01*
X10535356Y-7407856D02*
X10535356Y-7337144D01*
X10464644Y-7337144D01*
X10464644Y-7407856D01*
X10535356Y-7407856D01*
X10535356Y-7661856D02*
X10535356Y-7591144D01*
X10464644Y-7591144D01*
X10464644Y-7661856D01*
X10535356Y-7661856D01*
X12407856Y-5535356D02*
X12407856Y-5464644D01*
X12337144Y-5464644D01*
X12337144Y-5535356D01*
X12407856Y-5535356D01*
X12661856Y-5535356D02*
X12661856Y-5464644D01*
X12591144Y-5464644D01*
X12591144Y-5535356D01*
X12661856Y-5535356D01*
X14535356Y-7407856D02*
X14535356Y-7337144D01*
X14464644Y-7337144D01*
X14464644Y-7407856D01*
X14535356Y-7407856D01*
X14535356Y-7661856D02*
X14535356Y-7591144D01*
X14464644Y-7591144D01*
X14464644Y-7661856D01*
X14535356Y-7661856D01*
D12*
X10500000Y-5660000D02*
X10660000Y-5500000D01*
X10500000Y-5340000D01*
X10340000Y-5500000D01*
X10500000Y-5660000D01*
X10500000Y-9660000D02*
X10660000Y-9500000D01*
X10500000Y-9340000D01*
X10340000Y-9500000D01*
X10500000Y-9660000D01*
X14500000Y-5660000D02*
X14660000Y-5500000D01*
X14500000Y-5340000D01*
X14340000Y-5500000D01*
X14500000Y-5660000D01*
X14500000Y-9660000D02*
X14660000Y-9500000D01*
X14500000Y-9340000D01*
X14340000Y-9500000D01*
X14500000Y-9660000D01*
D10*
X10250777Y-10321484D02*
X10250777Y-10121484D01*
X10250777Y-10121484D02*
X10298396Y-10121484D01*
X10298396Y-10121484D02*
X10326967Y-10131008D01*
X10326967Y-10131008D02*
X10346015Y-10150055D01*
X10346015Y-10150055D02*
X10355539Y-10169103D01*
X10355539Y-10169103D02*
X10365063Y-10207198D01*
X10365063Y-10207198D02*
X10365063Y-10235770D01*
X10365063Y-10235770D02*
X10355539Y-10273865D01*
X10355539Y-10273865D02*
X10346015Y-10292912D01*
X10346015Y-10292912D02*
X10326967Y-10311960D01*
X10326967Y-10311960D02*
X10298396Y-10321484D01*
X10298396Y-10321484D02*
X10250777Y-10321484D01*
X10450777Y-10321484D02*
X10450777Y-10188150D01*
X10450777Y-10226246D02*
X10460301Y-10207198D01*
X10460301Y-10207198D02*
X10469824Y-10197674D01*
X10469824Y-10197674D02*
X10488872Y-10188150D01*
X10488872Y-10188150D02*
X10507920Y-10188150D01*
X10574586Y-10321484D02*
X10574586Y-10188150D01*
X10574586Y-10121484D02*
X10565063Y-10131008D01*
X10565063Y-10131008D02*
X10574586Y-10140531D01*
X10574586Y-10140531D02*
X10584110Y-10131008D01*
X10584110Y-10131008D02*
X10574586Y-10121484D01*
X10574586Y-10121484D02*
X10574586Y-10140531D01*
X10698396Y-10321484D02*
X10679348Y-10311960D01*
X10679348Y-10311960D02*
X10669824Y-10292912D01*
X10669824Y-10292912D02*
X10669824Y-10121484D01*
X10803158Y-10321484D02*
X10784110Y-10311960D01*
X10784110Y-10311960D02*
X10774586Y-10292912D01*
X10774586Y-10292912D02*
X10774586Y-10121484D01*
X11031729Y-10321484D02*
X11031729Y-10121484D01*
X11031729Y-10121484D02*
X11098396Y-10264341D01*
X11098396Y-10264341D02*
X11165063Y-10121484D01*
X11165063Y-10121484D02*
X11165063Y-10321484D01*
X11346015Y-10321484D02*
X11346015Y-10216722D01*
X11346015Y-10216722D02*
X11336491Y-10197674D01*
X11336491Y-10197674D02*
X11317443Y-10188150D01*
X11317443Y-10188150D02*
X11279348Y-10188150D01*
X11279348Y-10188150D02*
X11260301Y-10197674D01*
X11346015Y-10311960D02*
X11326967Y-10321484D01*
X11326967Y-10321484D02*
X11279348Y-10321484D01*
X11279348Y-10321484D02*
X11260301Y-10311960D01*
X11260301Y-10311960D02*
X11250777Y-10292912D01*
X11250777Y-10292912D02*
X11250777Y-10273865D01*
X11250777Y-10273865D02*
X11260301Y-10254817D01*
X11260301Y-10254817D02*
X11279348Y-10245293D01*
X11279348Y-10245293D02*
X11326967Y-10245293D01*
X11326967Y-10245293D02*
X11346015Y-10235770D01*
X11441253Y-10188150D02*
X11441253Y-10388150D01*
X11441253Y-10197674D02*
X11460301Y-10188150D01*
X11460301Y-10188150D02*
X11498396Y-10188150D01*
X11498396Y-10188150D02*
X11517443Y-10197674D01*
X11517443Y-10197674D02*
X11526967Y-10207198D01*
X11526967Y-10207198D02*
X11536491Y-10226246D01*
X11536491Y-10226246D02*
X11536491Y-10283389D01*
X11536491Y-10283389D02*
X11526967Y-10302436D01*
X11526967Y-10302436D02*
X11517443Y-10311960D01*
X11517443Y-10311960D02*
X11498396Y-10321484D01*
X11498396Y-10321484D02*
X11460301Y-10321484D01*
X11460301Y-10321484D02*
X11441253Y-10311960D01*
X11622205Y-10302436D02*
X11631729Y-10311960D01*
X11631729Y-10311960D02*
X11622205Y-10321484D01*
X11622205Y-10321484D02*
X11612682Y-10311960D01*
X11612682Y-10311960D02*
X11622205Y-10302436D01*
X11622205Y-10302436D02*
X11622205Y-10321484D01*
X11622205Y-10197674D02*
X11631729Y-10207198D01*
X11631729Y-10207198D02*
X11622205Y-10216722D01*
X11622205Y-10216722D02*
X11612682Y-10207198D01*
X11612682Y-10207198D02*
X11622205Y-10197674D01*
X11622205Y-10197674D02*
X11622205Y-10216722D01*
D11*
X9960000Y-10635000D02*
X9990000Y-10665000D01*
X9990000Y-10635000D02*
X9960000Y-10665000D01*
D10*
X10288872Y-10541484D02*
X10307920Y-10541484D01*
X10307920Y-10541484D02*
X10326967Y-10551008D01*
X10326967Y-10551008D02*
X10336491Y-10560531D01*
X10336491Y-10560531D02*
X10346015Y-10579579D01*
X10346015Y-10579579D02*
X10355539Y-10617674D01*
X10355539Y-10617674D02*
X10355539Y-10665293D01*
X10355539Y-10665293D02*
X10346015Y-10703389D01*
X10346015Y-10703389D02*
X10336491Y-10722436D01*
X10336491Y-10722436D02*
X10326967Y-10731960D01*
X10326967Y-10731960D02*
X10307920Y-10741484D01*
X10307920Y-10741484D02*
X10288872Y-10741484D01*
X10288872Y-10741484D02*
X10269824Y-10731960D01*
X10269824Y-10731960D02*
X10260301Y-10722436D01*
X10260301Y-10722436D02*
X10250777Y-10703389D01*
X10250777Y-10703389D02*
X10241253Y-10665293D01*
X10241253Y-10665293D02*
X10241253Y-10617674D01*
X10241253Y-10617674D02*
X10250777Y-10579579D01*
X10250777Y-10579579D02*
X10260301Y-10560531D01*
X10260301Y-10560531D02*
X10269824Y-10551008D01*
X10269824Y-10551008D02*
X10288872Y-10541484D01*
X10441253Y-10722436D02*
X10450777Y-10731960D01*
X10450777Y-10731960D02*
X10441253Y-10741484D01*
X10441253Y-10741484D02*
X10431729Y-10731960D01*
X10431729Y-10731960D02*
X10441253Y-10722436D01*
X10441253Y-10722436D02*
X10441253Y-10741484D01*
X10517444Y-10541484D02*
X10641253Y-10541484D01*
X10641253Y-10541484D02*
X10574586Y-10617674D01*
X10574586Y-10617674D02*
X10603158Y-10617674D01*
X10603158Y-10617674D02*
X10622205Y-10627198D01*
X10622205Y-10627198D02*
X10631729Y-10636722D01*
X10631729Y-10636722D02*
X10641253Y-10655770D01*
X10641253Y-10655770D02*
X10641253Y-10703389D01*
X10641253Y-10703389D02*
X10631729Y-10722436D01*
X10631729Y-10722436D02*
X10622205Y-10731960D01*
X10622205Y-10731960D02*
X10603158Y-10741484D01*
X10603158Y-10741484D02*
X10546015Y-10741484D01*
X10546015Y-10741484D02*
X10526967Y-10731960D01*
X10526967Y-10731960D02*
X10517444Y-10722436D01*
X10765063Y-10541484D02*
X10784110Y-10541484D01*
X10784110Y-10541484D02*
X10803158Y-10551008D01*
X10803158Y-10551008D02*
X10812682Y-10560531D01*
X10812682Y-10560531D02*
X10822205Y-10579579D01*
X10822205Y-10579579D02*
X10831729Y-10617674D01*
X10831729Y-10617674D02*
X10831729Y-10665293D01*
X10831729Y-10665293D02*
X10822205Y-10703389D01*
X10822205Y-10703389D02*
X10812682Y-10722436D01*
X10812682Y-10722436D02*
X10803158Y-10731960D01*
X10803158Y-10731960D02*
X10784110Y-10741484D01*
X10784110Y-10741484D02*
X10765063Y-10741484D01*
X10765063Y-10741484D02*
X10746015Y-10731960D01*
X10746015Y-10731960D02*
X10736491Y-10722436D01*
X10736491Y-10722436D02*
X10726967Y-10703389D01*
X10726967Y-10703389D02*
X10717444Y-10665293D01*
X10717444Y-10665293D02*
X10717444Y-10617674D01*
X10717444Y-10617674D02*
X10726967Y-10579579D01*
X10726967Y-10579579D02*
X10736491Y-10560531D01*
X10736491Y-10560531D02*
X10746015Y-10551008D01*
X10746015Y-10551008D02*
X10765063Y-10541484D01*
X10955539Y-10541484D02*
X10974586Y-10541484D01*
X10974586Y-10541484D02*
X10993634Y-10551008D01*
X10993634Y-10551008D02*
X11003158Y-10560531D01*
X11003158Y-10560531D02*
X11012682Y-10579579D01*
X11012682Y-10579579D02*
X11022205Y-10617674D01*
X11022205Y-10617674D02*
X11022205Y-10665293D01*
X11022205Y-10665293D02*
X11012682Y-10703389D01*
X11012682Y-10703389D02*
X11003158Y-10722436D01*
X11003158Y-10722436D02*
X10993634Y-10731960D01*
X10993634Y-10731960D02*
X10974586Y-10741484D01*
X10974586Y-10741484D02*
X10955539Y-10741484D01*
X10955539Y-10741484D02*
X10936491Y-10731960D01*
X10936491Y-10731960D02*
X10926967Y-10722436D01*
X10926967Y-10722436D02*
X10917444Y-10703389D01*
X10917444Y-10703389D02*
X10907920Y-10665293D01*
X10907920Y-10665293D02*
X10907920Y-10617674D01*
X10907920Y-10617674D02*
X10917444Y-10579579D01*
X10917444Y-10579579D02*
X10926967Y-10560531D01*
X10926967Y-10560531D02*
X10936491Y-10551008D01*
X10936491Y-10551008D02*
X10955539Y-10541484D01*
X11107920Y-10741484D02*
X11107920Y-10608150D01*
X11107920Y-10627198D02*
X11117444Y-10617674D01*
X11117444Y-10617674D02*
X11136491Y-10608150D01*
X11136491Y-10608150D02*
X11165063Y-10608150D01*
X11165063Y-10608150D02*
X11184110Y-10617674D01*
X11184110Y-10617674D02*
X11193634Y-10636722D01*
X11193634Y-10636722D02*
X11193634Y-10741484D01*
X11193634Y-10636722D02*
X11203158Y-10617674D01*
X11203158Y-10617674D02*
X11222205Y-10608150D01*
X11222205Y-10608150D02*
X11250777Y-10608150D01*
X11250777Y-10608150D02*
X11269824Y-10617674D01*
X11269824Y-10617674D02*
X11279348Y-10636722D01*
X11279348Y-10636722D02*
X11279348Y-10741484D01*
X11374586Y-10741484D02*
X11374586Y-10608150D01*
X11374586Y-10627198D02*
X11384110Y-10617674D01*
X11384110Y-10617674D02*
X11403158Y-10608150D01*
X11403158Y-10608150D02*
X11431729Y-10608150D01*
X11431729Y-10608150D02*
X11450777Y-10617674D01*
X11450777Y-10617674D02*
X11460301Y-10636722D01*
X11460301Y-10636722D02*
X11460301Y-10741484D01*
X11460301Y-10636722D02*
X11469824Y-10617674D01*
X11469824Y-10617674D02*
X11488872Y-10608150D01*
X11488872Y-10608150D02*
X11517443Y-10608150D01*
X11517443Y-10608150D02*
X11536491Y-10617674D01*
X11536491Y-10617674D02*
X11546015Y-10636722D01*
X11546015Y-10636722D02*
X11546015Y-10741484D01*
X11936491Y-10531960D02*
X11765063Y-10789103D01*
X12193634Y-10541484D02*
X12212682Y-10541484D01*
X12212682Y-10541484D02*
X12231729Y-10551008D01*
X12231729Y-10551008D02*
X12241253Y-10560531D01*
X12241253Y-10560531D02*
X12250777Y-10579579D01*
X12250777Y-10579579D02*
X12260301Y-10617674D01*
X12260301Y-10617674D02*
X12260301Y-10665293D01*
X12260301Y-10665293D02*
X12250777Y-10703389D01*
X12250777Y-10703389D02*
X12241253Y-10722436D01*
X12241253Y-10722436D02*
X12231729Y-10731960D01*
X12231729Y-10731960D02*
X12212682Y-10741484D01*
X12212682Y-10741484D02*
X12193634Y-10741484D01*
X12193634Y-10741484D02*
X12174586Y-10731960D01*
X12174586Y-10731960D02*
X12165063Y-10722436D01*
X12165063Y-10722436D02*
X12155539Y-10703389D01*
X12155539Y-10703389D02*
X12146015Y-10665293D01*
X12146015Y-10665293D02*
X12146015Y-10617674D01*
X12146015Y-10617674D02*
X12155539Y-10579579D01*
X12155539Y-10579579D02*
X12165063Y-10560531D01*
X12165063Y-10560531D02*
X12174586Y-10551008D01*
X12174586Y-10551008D02*
X12193634Y-10541484D01*
X12346015Y-10722436D02*
X12355539Y-10731960D01*
X12355539Y-10731960D02*
X12346015Y-10741484D01*
X12346015Y-10741484D02*
X12336491Y-10731960D01*
X12336491Y-10731960D02*
X12346015Y-10722436D01*
X12346015Y-10722436D02*
X12346015Y-10741484D01*
X12479348Y-10541484D02*
X12498396Y-10541484D01*
X12498396Y-10541484D02*
X12517444Y-10551008D01*
X12517444Y-10551008D02*
X12526967Y-10560531D01*
X12526967Y-10560531D02*
X12536491Y-10579579D01*
X12536491Y-10579579D02*
X12546015Y-10617674D01*
X12546015Y-10617674D02*
X12546015Y-10665293D01*
X12546015Y-10665293D02*
X12536491Y-10703389D01*
X12536491Y-10703389D02*
X12526967Y-10722436D01*
X12526967Y-10722436D02*
X12517444Y-10731960D01*
X12517444Y-10731960D02*
X12498396Y-10741484D01*
X12498396Y-10741484D02*
X12479348Y-10741484D01*
X12479348Y-10741484D02*
X12460301Y-10731960D01*
X12460301Y-10731960D02*
X12450777Y-10722436D01*
X12450777Y-10722436D02*
X12441253Y-10703389D01*
X12441253Y-10703389D02*
X12431729Y-10665293D01*
X12431729Y-10665293D02*
X12431729Y-10617674D01*
X12431729Y-10617674D02*
X12441253Y-10579579D01*
X12441253Y-10579579D02*
X12450777Y-10560531D01*
X12450777Y-10560531D02*
X12460301Y-10551008D01*
X12460301Y-10551008D02*
X12479348Y-10541484D01*
X12736491Y-10741484D02*
X12622206Y-10741484D01*
X12679348Y-10741484D02*
X12679348Y-10541484D01*
X12679348Y-10541484D02*
X12660301Y-10570055D01*
X12660301Y-10570055D02*
X12641253Y-10589103D01*
X12641253Y-10589103D02*
X12622206Y-10598627D01*
X12926967Y-10741484D02*
X12812682Y-10741484D01*
X12869825Y-10741484D02*
X12869825Y-10541484D01*
X12869825Y-10541484D02*
X12850777Y-10570055D01*
X12850777Y-10570055D02*
X12831729Y-10589103D01*
X12831729Y-10589103D02*
X12812682Y-10598627D01*
X13041253Y-10627198D02*
X13022206Y-10617674D01*
X13022206Y-10617674D02*
X13012682Y-10608150D01*
X13012682Y-10608150D02*
X13003158Y-10589103D01*
X13003158Y-10589103D02*
X13003158Y-10579579D01*
X13003158Y-10579579D02*
X13012682Y-10560531D01*
X13012682Y-10560531D02*
X13022206Y-10551008D01*
X13022206Y-10551008D02*
X13041253Y-10541484D01*
X13041253Y-10541484D02*
X13079348Y-10541484D01*
X13079348Y-10541484D02*
X13098396Y-10551008D01*
X13098396Y-10551008D02*
X13107920Y-10560531D01*
X13107920Y-10560531D02*
X13117444Y-10579579D01*
X13117444Y-10579579D02*
X13117444Y-10589103D01*
X13117444Y-10589103D02*
X13107920Y-10608150D01*
X13107920Y-10608150D02*
X13098396Y-10617674D01*
X13098396Y-10617674D02*
X13079348Y-10627198D01*
X13079348Y-10627198D02*
X13041253Y-10627198D01*
X13041253Y-10627198D02*
X13022206Y-10636722D01*
X13022206Y-10636722D02*
X13012682Y-10646246D01*
X13012682Y-10646246D02*
X13003158Y-10665293D01*
X13003158Y-10665293D02*
X13003158Y-10703389D01*
X13003158Y-10703389D02*
X13012682Y-10722436D01*
X13012682Y-10722436D02*
X13022206Y-10731960D01*
X13022206Y-10731960D02*
X13041253Y-10741484D01*
X13041253Y-10741484D02*
X13079348Y-10741484D01*
X13079348Y-10741484D02*
X13098396Y-10731960D01*
X13098396Y-10731960D02*
X13107920Y-10722436D01*
X13107920Y-10722436D02*
X13117444Y-10703389D01*
X13117444Y-10703389D02*
X13117444Y-10665293D01*
X13117444Y-10665293D02*
X13107920Y-10646246D01*
X13107920Y-10646246D02*
X13098396Y-10636722D01*
X13098396Y-10636722D02*
X13079348Y-10627198D01*
X13193634Y-10541484D02*
X13193634Y-10579579D01*
X13269825Y-10541484D02*
X13269825Y-10579579D01*
X13565063Y-10817674D02*
X13555539Y-10808150D01*
X13555539Y-10808150D02*
X13536491Y-10779579D01*
X13536491Y-10779579D02*
X13526968Y-10760531D01*
X13526968Y-10760531D02*
X13517444Y-10731960D01*
X13517444Y-10731960D02*
X13507920Y-10684341D01*
X13507920Y-10684341D02*
X13507920Y-10646246D01*
X13507920Y-10646246D02*
X13517444Y-10598627D01*
X13517444Y-10598627D02*
X13526968Y-10570055D01*
X13526968Y-10570055D02*
X13536491Y-10551008D01*
X13536491Y-10551008D02*
X13555539Y-10522436D01*
X13555539Y-10522436D02*
X13565063Y-10512912D01*
X13726968Y-10608150D02*
X13726968Y-10741484D01*
X13679348Y-10531960D02*
X13631729Y-10674817D01*
X13631729Y-10674817D02*
X13755539Y-10674817D01*
X13869825Y-10541484D02*
X13888872Y-10541484D01*
X13888872Y-10541484D02*
X13907920Y-10551008D01*
X13907920Y-10551008D02*
X13917444Y-10560531D01*
X13917444Y-10560531D02*
X13926968Y-10579579D01*
X13926968Y-10579579D02*
X13936491Y-10617674D01*
X13936491Y-10617674D02*
X13936491Y-10665293D01*
X13936491Y-10665293D02*
X13926968Y-10703389D01*
X13926968Y-10703389D02*
X13917444Y-10722436D01*
X13917444Y-10722436D02*
X13907920Y-10731960D01*
X13907920Y-10731960D02*
X13888872Y-10741484D01*
X13888872Y-10741484D02*
X13869825Y-10741484D01*
X13869825Y-10741484D02*
X13850777Y-10731960D01*
X13850777Y-10731960D02*
X13841253Y-10722436D01*
X13841253Y-10722436D02*
X13831729Y-10703389D01*
X13831729Y-10703389D02*
X13822206Y-10665293D01*
X13822206Y-10665293D02*
X13822206Y-10617674D01*
X13822206Y-10617674D02*
X13831729Y-10579579D01*
X13831729Y-10579579D02*
X13841253Y-10560531D01*
X13841253Y-10560531D02*
X13850777Y-10551008D01*
X13850777Y-10551008D02*
X13869825Y-10541484D01*
X14174587Y-10741484D02*
X14174587Y-10541484D01*
X14260301Y-10741484D02*
X14260301Y-10636722D01*
X14260301Y-10636722D02*
X14250777Y-10617674D01*
X14250777Y-10617674D02*
X14231730Y-10608150D01*
X14231730Y-10608150D02*
X14203158Y-10608150D01*
X14203158Y-10608150D02*
X14184110Y-10617674D01*
X14184110Y-10617674D02*
X14174587Y-10627198D01*
X14384110Y-10741484D02*
X14365063Y-10731960D01*
X14365063Y-10731960D02*
X14355539Y-10722436D01*
X14355539Y-10722436D02*
X14346015Y-10703389D01*
X14346015Y-10703389D02*
X14346015Y-10646246D01*
X14346015Y-10646246D02*
X14355539Y-10627198D01*
X14355539Y-10627198D02*
X14365063Y-10617674D01*
X14365063Y-10617674D02*
X14384110Y-10608150D01*
X14384110Y-10608150D02*
X14412682Y-10608150D01*
X14412682Y-10608150D02*
X14431730Y-10617674D01*
X14431730Y-10617674D02*
X14441253Y-10627198D01*
X14441253Y-10627198D02*
X14450777Y-10646246D01*
X14450777Y-10646246D02*
X14450777Y-10703389D01*
X14450777Y-10703389D02*
X14441253Y-10722436D01*
X14441253Y-10722436D02*
X14431730Y-10731960D01*
X14431730Y-10731960D02*
X14412682Y-10741484D01*
X14412682Y-10741484D02*
X14384110Y-10741484D01*
X14565063Y-10741484D02*
X14546015Y-10731960D01*
X14546015Y-10731960D02*
X14536491Y-10712912D01*
X14536491Y-10712912D02*
X14536491Y-10541484D01*
X14717444Y-10731960D02*
X14698396Y-10741484D01*
X14698396Y-10741484D02*
X14660301Y-10741484D01*
X14660301Y-10741484D02*
X14641253Y-10731960D01*
X14641253Y-10731960D02*
X14631730Y-10712912D01*
X14631730Y-10712912D02*
X14631730Y-10636722D01*
X14631730Y-10636722D02*
X14641253Y-10617674D01*
X14641253Y-10617674D02*
X14660301Y-10608150D01*
X14660301Y-10608150D02*
X14698396Y-10608150D01*
X14698396Y-10608150D02*
X14717444Y-10617674D01*
X14717444Y-10617674D02*
X14726968Y-10636722D01*
X14726968Y-10636722D02*
X14726968Y-10655770D01*
X14726968Y-10655770D02*
X14631730Y-10674817D01*
X14803158Y-10731960D02*
X14822206Y-10741484D01*
X14822206Y-10741484D02*
X14860301Y-10741484D01*
X14860301Y-10741484D02*
X14879349Y-10731960D01*
X14879349Y-10731960D02*
X14888872Y-10712912D01*
X14888872Y-10712912D02*
X14888872Y-10703389D01*
X14888872Y-10703389D02*
X14879349Y-10684341D01*
X14879349Y-10684341D02*
X14860301Y-10674817D01*
X14860301Y-10674817D02*
X14831730Y-10674817D01*
X14831730Y-10674817D02*
X14812682Y-10665293D01*
X14812682Y-10665293D02*
X14803158Y-10646246D01*
X14803158Y-10646246D02*
X14803158Y-10636722D01*
X14803158Y-10636722D02*
X14812682Y-10617674D01*
X14812682Y-10617674D02*
X14831730Y-10608150D01*
X14831730Y-10608150D02*
X14860301Y-10608150D01*
X14860301Y-10608150D02*
X14879349Y-10617674D01*
X14955539Y-10817674D02*
X14965063Y-10808150D01*
X14965063Y-10808150D02*
X14984111Y-10779579D01*
X14984111Y-10779579D02*
X14993634Y-10760531D01*
X14993634Y-10760531D02*
X15003158Y-10731960D01*
X15003158Y-10731960D02*
X15012682Y-10684341D01*
X15012682Y-10684341D02*
X15012682Y-10646246D01*
X15012682Y-10646246D02*
X15003158Y-10598627D01*
X15003158Y-10598627D02*
X14993634Y-10570055D01*
X14993634Y-10570055D02*
X14984111Y-10551008D01*
X14984111Y-10551008D02*
X14965063Y-10522436D01*
X14965063Y-10522436D02*
X14955539Y-10512912D01*
D11*
X9990000Y-10914000D02*
G75*
G03*
X9940000Y-10914000I-25000J0D01*
G01*
X9940000Y-10914000D02*
G75*
G03*
X9990000Y-10914000I25000J0D01*
G01*
D10*
X10288872Y-10805484D02*
X10307920Y-10805484D01*
X10307920Y-10805484D02*
X10326967Y-10815008D01*
X10326967Y-10815008D02*
X10336491Y-10824531D01*
X10336491Y-10824531D02*
X10346015Y-10843579D01*
X10346015Y-10843579D02*
X10355539Y-10881674D01*
X10355539Y-10881674D02*
X10355539Y-10929293D01*
X10355539Y-10929293D02*
X10346015Y-10967389D01*
X10346015Y-10967389D02*
X10336491Y-10986436D01*
X10336491Y-10986436D02*
X10326967Y-10995960D01*
X10326967Y-10995960D02*
X10307920Y-11005484D01*
X10307920Y-11005484D02*
X10288872Y-11005484D01*
X10288872Y-11005484D02*
X10269824Y-10995960D01*
X10269824Y-10995960D02*
X10260301Y-10986436D01*
X10260301Y-10986436D02*
X10250777Y-10967389D01*
X10250777Y-10967389D02*
X10241253Y-10929293D01*
X10241253Y-10929293D02*
X10241253Y-10881674D01*
X10241253Y-10881674D02*
X10250777Y-10843579D01*
X10250777Y-10843579D02*
X10260301Y-10824531D01*
X10260301Y-10824531D02*
X10269824Y-10815008D01*
X10269824Y-10815008D02*
X10288872Y-10805484D01*
X10441253Y-10986436D02*
X10450777Y-10995960D01*
X10450777Y-10995960D02*
X10441253Y-11005484D01*
X10441253Y-11005484D02*
X10431729Y-10995960D01*
X10431729Y-10995960D02*
X10441253Y-10986436D01*
X10441253Y-10986436D02*
X10441253Y-11005484D01*
X10631729Y-10805484D02*
X10536491Y-10805484D01*
X10536491Y-10805484D02*
X10526967Y-10900722D01*
X10526967Y-10900722D02*
X10536491Y-10891198D01*
X10536491Y-10891198D02*
X10555539Y-10881674D01*
X10555539Y-10881674D02*
X10603158Y-10881674D01*
X10603158Y-10881674D02*
X10622205Y-10891198D01*
X10622205Y-10891198D02*
X10631729Y-10900722D01*
X10631729Y-10900722D02*
X10641253Y-10919770D01*
X10641253Y-10919770D02*
X10641253Y-10967389D01*
X10641253Y-10967389D02*
X10631729Y-10986436D01*
X10631729Y-10986436D02*
X10622205Y-10995960D01*
X10622205Y-10995960D02*
X10603158Y-11005484D01*
X10603158Y-11005484D02*
X10555539Y-11005484D01*
X10555539Y-11005484D02*
X10536491Y-10995960D01*
X10536491Y-10995960D02*
X10526967Y-10986436D01*
X10765063Y-10805484D02*
X10784110Y-10805484D01*
X10784110Y-10805484D02*
X10803158Y-10815008D01*
X10803158Y-10815008D02*
X10812682Y-10824531D01*
X10812682Y-10824531D02*
X10822205Y-10843579D01*
X10822205Y-10843579D02*
X10831729Y-10881674D01*
X10831729Y-10881674D02*
X10831729Y-10929293D01*
X10831729Y-10929293D02*
X10822205Y-10967389D01*
X10822205Y-10967389D02*
X10812682Y-10986436D01*
X10812682Y-10986436D02*
X10803158Y-10995960D01*
X10803158Y-10995960D02*
X10784110Y-11005484D01*
X10784110Y-11005484D02*
X10765063Y-11005484D01*
X10765063Y-11005484D02*
X10746015Y-10995960D01*
X10746015Y-10995960D02*
X10736491Y-10986436D01*
X10736491Y-10986436D02*
X10726967Y-10967389D01*
X10726967Y-10967389D02*
X10717444Y-10929293D01*
X10717444Y-10929293D02*
X10717444Y-10881674D01*
X10717444Y-10881674D02*
X10726967Y-10843579D01*
X10726967Y-10843579D02*
X10736491Y-10824531D01*
X10736491Y-10824531D02*
X10746015Y-10815008D01*
X10746015Y-10815008D02*
X10765063Y-10805484D01*
X10955539Y-10805484D02*
X10974586Y-10805484D01*
X10974586Y-10805484D02*
X10993634Y-10815008D01*
X10993634Y-10815008D02*
X11003158Y-10824531D01*
X11003158Y-10824531D02*
X11012682Y-10843579D01*
X11012682Y-10843579D02*
X11022205Y-10881674D01*
X11022205Y-10881674D02*
X11022205Y-10929293D01*
X11022205Y-10929293D02*
X11012682Y-10967389D01*
X11012682Y-10967389D02*
X11003158Y-10986436D01*
X11003158Y-10986436D02*
X10993634Y-10995960D01*
X10993634Y-10995960D02*
X10974586Y-11005484D01*
X10974586Y-11005484D02*
X10955539Y-11005484D01*
X10955539Y-11005484D02*
X10936491Y-10995960D01*
X10936491Y-10995960D02*
X10926967Y-10986436D01*
X10926967Y-10986436D02*
X10917444Y-10967389D01*
X10917444Y-10967389D02*
X10907920Y-10929293D01*
X10907920Y-10929293D02*
X10907920Y-10881674D01*
X10907920Y-10881674D02*
X10917444Y-10843579D01*
X10917444Y-10843579D02*
X10926967Y-10824531D01*
X10926967Y-10824531D02*
X10936491Y-10815008D01*
X10936491Y-10815008D02*
X10955539Y-10805484D01*
X11107920Y-11005484D02*
X11107920Y-10872150D01*
X11107920Y-10891198D02*
X11117444Y-10881674D01*
X11117444Y-10881674D02*
X11136491Y-10872150D01*
X11136491Y-10872150D02*
X11165063Y-10872150D01*
X11165063Y-10872150D02*
X11184110Y-10881674D01*
X11184110Y-10881674D02*
X11193634Y-10900722D01*
X11193634Y-10900722D02*
X11193634Y-11005484D01*
X11193634Y-10900722D02*
X11203158Y-10881674D01*
X11203158Y-10881674D02*
X11222205Y-10872150D01*
X11222205Y-10872150D02*
X11250777Y-10872150D01*
X11250777Y-10872150D02*
X11269824Y-10881674D01*
X11269824Y-10881674D02*
X11279348Y-10900722D01*
X11279348Y-10900722D02*
X11279348Y-11005484D01*
X11374586Y-11005484D02*
X11374586Y-10872150D01*
X11374586Y-10891198D02*
X11384110Y-10881674D01*
X11384110Y-10881674D02*
X11403158Y-10872150D01*
X11403158Y-10872150D02*
X11431729Y-10872150D01*
X11431729Y-10872150D02*
X11450777Y-10881674D01*
X11450777Y-10881674D02*
X11460301Y-10900722D01*
X11460301Y-10900722D02*
X11460301Y-11005484D01*
X11460301Y-10900722D02*
X11469824Y-10881674D01*
X11469824Y-10881674D02*
X11488872Y-10872150D01*
X11488872Y-10872150D02*
X11517443Y-10872150D01*
X11517443Y-10872150D02*
X11536491Y-10881674D01*
X11536491Y-10881674D02*
X11546015Y-10900722D01*
X11546015Y-10900722D02*
X11546015Y-11005484D01*
X11936491Y-10795960D02*
X11765063Y-11053103D01*
X12193634Y-10805484D02*
X12212682Y-10805484D01*
X12212682Y-10805484D02*
X12231729Y-10815008D01*
X12231729Y-10815008D02*
X12241253Y-10824531D01*
X12241253Y-10824531D02*
X12250777Y-10843579D01*
X12250777Y-10843579D02*
X12260301Y-10881674D01*
X12260301Y-10881674D02*
X12260301Y-10929293D01*
X12260301Y-10929293D02*
X12250777Y-10967389D01*
X12250777Y-10967389D02*
X12241253Y-10986436D01*
X12241253Y-10986436D02*
X12231729Y-10995960D01*
X12231729Y-10995960D02*
X12212682Y-11005484D01*
X12212682Y-11005484D02*
X12193634Y-11005484D01*
X12193634Y-11005484D02*
X12174586Y-10995960D01*
X12174586Y-10995960D02*
X12165063Y-10986436D01*
X12165063Y-10986436D02*
X12155539Y-10967389D01*
X12155539Y-10967389D02*
X12146015Y-10929293D01*
X12146015Y-10929293D02*
X12146015Y-10881674D01*
X12146015Y-10881674D02*
X12155539Y-10843579D01*
X12155539Y-10843579D02*
X12165063Y-10824531D01*
X12165063Y-10824531D02*
X12174586Y-10815008D01*
X12174586Y-10815008D02*
X12193634Y-10805484D01*
X12346015Y-10986436D02*
X12355539Y-10995960D01*
X12355539Y-10995960D02*
X12346015Y-11005484D01*
X12346015Y-11005484D02*
X12336491Y-10995960D01*
X12336491Y-10995960D02*
X12346015Y-10986436D01*
X12346015Y-10986436D02*
X12346015Y-11005484D01*
X12479348Y-10805484D02*
X12498396Y-10805484D01*
X12498396Y-10805484D02*
X12517444Y-10815008D01*
X12517444Y-10815008D02*
X12526967Y-10824531D01*
X12526967Y-10824531D02*
X12536491Y-10843579D01*
X12536491Y-10843579D02*
X12546015Y-10881674D01*
X12546015Y-10881674D02*
X12546015Y-10929293D01*
X12546015Y-10929293D02*
X12536491Y-10967389D01*
X12536491Y-10967389D02*
X12526967Y-10986436D01*
X12526967Y-10986436D02*
X12517444Y-10995960D01*
X12517444Y-10995960D02*
X12498396Y-11005484D01*
X12498396Y-11005484D02*
X12479348Y-11005484D01*
X12479348Y-11005484D02*
X12460301Y-10995960D01*
X12460301Y-10995960D02*
X12450777Y-10986436D01*
X12450777Y-10986436D02*
X12441253Y-10967389D01*
X12441253Y-10967389D02*
X12431729Y-10929293D01*
X12431729Y-10929293D02*
X12431729Y-10881674D01*
X12431729Y-10881674D02*
X12441253Y-10843579D01*
X12441253Y-10843579D02*
X12450777Y-10824531D01*
X12450777Y-10824531D02*
X12460301Y-10815008D01*
X12460301Y-10815008D02*
X12479348Y-10805484D01*
X12736491Y-11005484D02*
X12622206Y-11005484D01*
X12679348Y-11005484D02*
X12679348Y-10805484D01*
X12679348Y-10805484D02*
X12660301Y-10834055D01*
X12660301Y-10834055D02*
X12641253Y-10853103D01*
X12641253Y-10853103D02*
X12622206Y-10862627D01*
X12831729Y-11005484D02*
X12869825Y-11005484D01*
X12869825Y-11005484D02*
X12888872Y-10995960D01*
X12888872Y-10995960D02*
X12898396Y-10986436D01*
X12898396Y-10986436D02*
X12917444Y-10957865D01*
X12917444Y-10957865D02*
X12926967Y-10919770D01*
X12926967Y-10919770D02*
X12926967Y-10843579D01*
X12926967Y-10843579D02*
X12917444Y-10824531D01*
X12917444Y-10824531D02*
X12907920Y-10815008D01*
X12907920Y-10815008D02*
X12888872Y-10805484D01*
X12888872Y-10805484D02*
X12850777Y-10805484D01*
X12850777Y-10805484D02*
X12831729Y-10815008D01*
X12831729Y-10815008D02*
X12822206Y-10824531D01*
X12822206Y-10824531D02*
X12812682Y-10843579D01*
X12812682Y-10843579D02*
X12812682Y-10891198D01*
X12812682Y-10891198D02*
X12822206Y-10910246D01*
X12822206Y-10910246D02*
X12831729Y-10919770D01*
X12831729Y-10919770D02*
X12850777Y-10929293D01*
X12850777Y-10929293D02*
X12888872Y-10929293D01*
X12888872Y-10929293D02*
X12907920Y-10919770D01*
X12907920Y-10919770D02*
X12917444Y-10910246D01*
X12917444Y-10910246D02*
X12926967Y-10891198D01*
X12993634Y-10805484D02*
X13126967Y-10805484D01*
X13126967Y-10805484D02*
X13041253Y-11005484D01*
X13193634Y-10805484D02*
X13193634Y-10843579D01*
X13269825Y-10805484D02*
X13269825Y-10843579D01*
X13565063Y-11081674D02*
X13555539Y-11072150D01*
X13555539Y-11072150D02*
X13536491Y-11043579D01*
X13536491Y-11043579D02*
X13526968Y-11024531D01*
X13526968Y-11024531D02*
X13517444Y-10995960D01*
X13517444Y-10995960D02*
X13507920Y-10948341D01*
X13507920Y-10948341D02*
X13507920Y-10910246D01*
X13507920Y-10910246D02*
X13517444Y-10862627D01*
X13517444Y-10862627D02*
X13526968Y-10834055D01*
X13526968Y-10834055D02*
X13536491Y-10815008D01*
X13536491Y-10815008D02*
X13555539Y-10786436D01*
X13555539Y-10786436D02*
X13565063Y-10776912D01*
X13622206Y-10805484D02*
X13746015Y-10805484D01*
X13746015Y-10805484D02*
X13679348Y-10881674D01*
X13679348Y-10881674D02*
X13707920Y-10881674D01*
X13707920Y-10881674D02*
X13726968Y-10891198D01*
X13726968Y-10891198D02*
X13736491Y-10900722D01*
X13736491Y-10900722D02*
X13746015Y-10919770D01*
X13746015Y-10919770D02*
X13746015Y-10967389D01*
X13746015Y-10967389D02*
X13736491Y-10986436D01*
X13736491Y-10986436D02*
X13726968Y-10995960D01*
X13726968Y-10995960D02*
X13707920Y-11005484D01*
X13707920Y-11005484D02*
X13650777Y-11005484D01*
X13650777Y-11005484D02*
X13631729Y-10995960D01*
X13631729Y-10995960D02*
X13622206Y-10986436D01*
X13822206Y-10824531D02*
X13831729Y-10815008D01*
X13831729Y-10815008D02*
X13850777Y-10805484D01*
X13850777Y-10805484D02*
X13898396Y-10805484D01*
X13898396Y-10805484D02*
X13917444Y-10815008D01*
X13917444Y-10815008D02*
X13926968Y-10824531D01*
X13926968Y-10824531D02*
X13936491Y-10843579D01*
X13936491Y-10843579D02*
X13936491Y-10862627D01*
X13936491Y-10862627D02*
X13926968Y-10891198D01*
X13926968Y-10891198D02*
X13812682Y-11005484D01*
X13812682Y-11005484D02*
X13936491Y-11005484D01*
X14174587Y-11005484D02*
X14174587Y-10805484D01*
X14260301Y-11005484D02*
X14260301Y-10900722D01*
X14260301Y-10900722D02*
X14250777Y-10881674D01*
X14250777Y-10881674D02*
X14231730Y-10872150D01*
X14231730Y-10872150D02*
X14203158Y-10872150D01*
X14203158Y-10872150D02*
X14184110Y-10881674D01*
X14184110Y-10881674D02*
X14174587Y-10891198D01*
X14384110Y-11005484D02*
X14365063Y-10995960D01*
X14365063Y-10995960D02*
X14355539Y-10986436D01*
X14355539Y-10986436D02*
X14346015Y-10967389D01*
X14346015Y-10967389D02*
X14346015Y-10910246D01*
X14346015Y-10910246D02*
X14355539Y-10891198D01*
X14355539Y-10891198D02*
X14365063Y-10881674D01*
X14365063Y-10881674D02*
X14384110Y-10872150D01*
X14384110Y-10872150D02*
X14412682Y-10872150D01*
X14412682Y-10872150D02*
X14431730Y-10881674D01*
X14431730Y-10881674D02*
X14441253Y-10891198D01*
X14441253Y-10891198D02*
X14450777Y-10910246D01*
X14450777Y-10910246D02*
X14450777Y-10967389D01*
X14450777Y-10967389D02*
X14441253Y-10986436D01*
X14441253Y-10986436D02*
X14431730Y-10995960D01*
X14431730Y-10995960D02*
X14412682Y-11005484D01*
X14412682Y-11005484D02*
X14384110Y-11005484D01*
X14565063Y-11005484D02*
X14546015Y-10995960D01*
X14546015Y-10995960D02*
X14536491Y-10976912D01*
X14536491Y-10976912D02*
X14536491Y-10805484D01*
X14717444Y-10995960D02*
X14698396Y-11005484D01*
X14698396Y-11005484D02*
X14660301Y-11005484D01*
X14660301Y-11005484D02*
X14641253Y-10995960D01*
X14641253Y-10995960D02*
X14631730Y-10976912D01*
X14631730Y-10976912D02*
X14631730Y-10900722D01*
X14631730Y-10900722D02*
X14641253Y-10881674D01*
X14641253Y-10881674D02*
X14660301Y-10872150D01*
X14660301Y-10872150D02*
X14698396Y-10872150D01*
X14698396Y-10872150D02*
X14717444Y-10881674D01*
X14717444Y-10881674D02*
X14726968Y-10900722D01*
X14726968Y-10900722D02*
X14726968Y-10919770D01*
X14726968Y-10919770D02*
X14631730Y-10938817D01*
X14803158Y-10995960D02*
X14822206Y-11005484D01*
X14822206Y-11005484D02*
X14860301Y-11005484D01*
X14860301Y-11005484D02*
X14879349Y-10995960D01*
X14879349Y-10995960D02*
X14888872Y-10976912D01*
X14888872Y-10976912D02*
X14888872Y-10967389D01*
X14888872Y-10967389D02*
X14879349Y-10948341D01*
X14879349Y-10948341D02*
X14860301Y-10938817D01*
X14860301Y-10938817D02*
X14831730Y-10938817D01*
X14831730Y-10938817D02*
X14812682Y-10929293D01*
X14812682Y-10929293D02*
X14803158Y-10910246D01*
X14803158Y-10910246D02*
X14803158Y-10900722D01*
X14803158Y-10900722D02*
X14812682Y-10881674D01*
X14812682Y-10881674D02*
X14831730Y-10872150D01*
X14831730Y-10872150D02*
X14860301Y-10872150D01*
X14860301Y-10872150D02*
X14879349Y-10881674D01*
X14955539Y-11081674D02*
X14965063Y-11072150D01*
X14965063Y-11072150D02*
X14984111Y-11043579D01*
X14984111Y-11043579D02*
X14993634Y-11024531D01*
X14993634Y-11024531D02*
X15003158Y-10995960D01*
X15003158Y-10995960D02*
X15012682Y-10948341D01*
X15012682Y-10948341D02*
X15012682Y-10910246D01*
X15012682Y-10910246D02*
X15003158Y-10862627D01*
X15003158Y-10862627D02*
X14993634Y-10834055D01*
X14993634Y-10834055D02*
X14984111Y-10815008D01*
X14984111Y-10815008D02*
X14965063Y-10786436D01*
X14965063Y-10786436D02*
X14955539Y-10776912D01*
D11*
X9950000Y-11138000D02*
X9950000Y-11218000D01*
X9910000Y-11178000D02*
X9990000Y-11178000D01*
D10*
X10288872Y-11069484D02*
X10307920Y-11069484D01*
X10307920Y-11069484D02*
X10326967Y-11079008D01*
X10326967Y-11079008D02*
X10336491Y-11088531D01*
X10336491Y-11088531D02*
X10346015Y-11107579D01*
X10346015Y-11107579D02*
X10355539Y-11145674D01*
X10355539Y-11145674D02*
X10355539Y-11193293D01*
X10355539Y-11193293D02*
X10346015Y-11231388D01*
X10346015Y-11231388D02*
X10336491Y-11250436D01*
X10336491Y-11250436D02*
X10326967Y-11259960D01*
X10326967Y-11259960D02*
X10307920Y-11269484D01*
X10307920Y-11269484D02*
X10288872Y-11269484D01*
X10288872Y-11269484D02*
X10269824Y-11259960D01*
X10269824Y-11259960D02*
X10260301Y-11250436D01*
X10260301Y-11250436D02*
X10250777Y-11231388D01*
X10250777Y-11231388D02*
X10241253Y-11193293D01*
X10241253Y-11193293D02*
X10241253Y-11145674D01*
X10241253Y-11145674D02*
X10250777Y-11107579D01*
X10250777Y-11107579D02*
X10260301Y-11088531D01*
X10260301Y-11088531D02*
X10269824Y-11079008D01*
X10269824Y-11079008D02*
X10288872Y-11069484D01*
X10441253Y-11250436D02*
X10450777Y-11259960D01*
X10450777Y-11259960D02*
X10441253Y-11269484D01*
X10441253Y-11269484D02*
X10431729Y-11259960D01*
X10431729Y-11259960D02*
X10441253Y-11250436D01*
X10441253Y-11250436D02*
X10441253Y-11269484D01*
X10565063Y-11155198D02*
X10546015Y-11145674D01*
X10546015Y-11145674D02*
X10536491Y-11136150D01*
X10536491Y-11136150D02*
X10526967Y-11117103D01*
X10526967Y-11117103D02*
X10526967Y-11107579D01*
X10526967Y-11107579D02*
X10536491Y-11088531D01*
X10536491Y-11088531D02*
X10546015Y-11079008D01*
X10546015Y-11079008D02*
X10565063Y-11069484D01*
X10565063Y-11069484D02*
X10603158Y-11069484D01*
X10603158Y-11069484D02*
X10622205Y-11079008D01*
X10622205Y-11079008D02*
X10631729Y-11088531D01*
X10631729Y-11088531D02*
X10641253Y-11107579D01*
X10641253Y-11107579D02*
X10641253Y-11117103D01*
X10641253Y-11117103D02*
X10631729Y-11136150D01*
X10631729Y-11136150D02*
X10622205Y-11145674D01*
X10622205Y-11145674D02*
X10603158Y-11155198D01*
X10603158Y-11155198D02*
X10565063Y-11155198D01*
X10565063Y-11155198D02*
X10546015Y-11164722D01*
X10546015Y-11164722D02*
X10536491Y-11174246D01*
X10536491Y-11174246D02*
X10526967Y-11193293D01*
X10526967Y-11193293D02*
X10526967Y-11231388D01*
X10526967Y-11231388D02*
X10536491Y-11250436D01*
X10536491Y-11250436D02*
X10546015Y-11259960D01*
X10546015Y-11259960D02*
X10565063Y-11269484D01*
X10565063Y-11269484D02*
X10603158Y-11269484D01*
X10603158Y-11269484D02*
X10622205Y-11259960D01*
X10622205Y-11259960D02*
X10631729Y-11250436D01*
X10631729Y-11250436D02*
X10641253Y-11231388D01*
X10641253Y-11231388D02*
X10641253Y-11193293D01*
X10641253Y-11193293D02*
X10631729Y-11174246D01*
X10631729Y-11174246D02*
X10622205Y-11164722D01*
X10622205Y-11164722D02*
X10603158Y-11155198D01*
X10765063Y-11069484D02*
X10784110Y-11069484D01*
X10784110Y-11069484D02*
X10803158Y-11079008D01*
X10803158Y-11079008D02*
X10812682Y-11088531D01*
X10812682Y-11088531D02*
X10822205Y-11107579D01*
X10822205Y-11107579D02*
X10831729Y-11145674D01*
X10831729Y-11145674D02*
X10831729Y-11193293D01*
X10831729Y-11193293D02*
X10822205Y-11231388D01*
X10822205Y-11231388D02*
X10812682Y-11250436D01*
X10812682Y-11250436D02*
X10803158Y-11259960D01*
X10803158Y-11259960D02*
X10784110Y-11269484D01*
X10784110Y-11269484D02*
X10765063Y-11269484D01*
X10765063Y-11269484D02*
X10746015Y-11259960D01*
X10746015Y-11259960D02*
X10736491Y-11250436D01*
X10736491Y-11250436D02*
X10726967Y-11231388D01*
X10726967Y-11231388D02*
X10717444Y-11193293D01*
X10717444Y-11193293D02*
X10717444Y-11145674D01*
X10717444Y-11145674D02*
X10726967Y-11107579D01*
X10726967Y-11107579D02*
X10736491Y-11088531D01*
X10736491Y-11088531D02*
X10746015Y-11079008D01*
X10746015Y-11079008D02*
X10765063Y-11069484D01*
X10955539Y-11069484D02*
X10974586Y-11069484D01*
X10974586Y-11069484D02*
X10993634Y-11079008D01*
X10993634Y-11079008D02*
X11003158Y-11088531D01*
X11003158Y-11088531D02*
X11012682Y-11107579D01*
X11012682Y-11107579D02*
X11022205Y-11145674D01*
X11022205Y-11145674D02*
X11022205Y-11193293D01*
X11022205Y-11193293D02*
X11012682Y-11231388D01*
X11012682Y-11231388D02*
X11003158Y-11250436D01*
X11003158Y-11250436D02*
X10993634Y-11259960D01*
X10993634Y-11259960D02*
X10974586Y-11269484D01*
X10974586Y-11269484D02*
X10955539Y-11269484D01*
X10955539Y-11269484D02*
X10936491Y-11259960D01*
X10936491Y-11259960D02*
X10926967Y-11250436D01*
X10926967Y-11250436D02*
X10917444Y-11231388D01*
X10917444Y-11231388D02*
X10907920Y-11193293D01*
X10907920Y-11193293D02*
X10907920Y-11145674D01*
X10907920Y-11145674D02*
X10917444Y-11107579D01*
X10917444Y-11107579D02*
X10926967Y-11088531D01*
X10926967Y-11088531D02*
X10936491Y-11079008D01*
X10936491Y-11079008D02*
X10955539Y-11069484D01*
X11107920Y-11269484D02*
X11107920Y-11136150D01*
X11107920Y-11155198D02*
X11117444Y-11145674D01*
X11117444Y-11145674D02*
X11136491Y-11136150D01*
X11136491Y-11136150D02*
X11165063Y-11136150D01*
X11165063Y-11136150D02*
X11184110Y-11145674D01*
X11184110Y-11145674D02*
X11193634Y-11164722D01*
X11193634Y-11164722D02*
X11193634Y-11269484D01*
X11193634Y-11164722D02*
X11203158Y-11145674D01*
X11203158Y-11145674D02*
X11222205Y-11136150D01*
X11222205Y-11136150D02*
X11250777Y-11136150D01*
X11250777Y-11136150D02*
X11269824Y-11145674D01*
X11269824Y-11145674D02*
X11279348Y-11164722D01*
X11279348Y-11164722D02*
X11279348Y-11269484D01*
X11374586Y-11269484D02*
X11374586Y-11136150D01*
X11374586Y-11155198D02*
X11384110Y-11145674D01*
X11384110Y-11145674D02*
X11403158Y-11136150D01*
X11403158Y-11136150D02*
X11431729Y-11136150D01*
X11431729Y-11136150D02*
X11450777Y-11145674D01*
X11450777Y-11145674D02*
X11460301Y-11164722D01*
X11460301Y-11164722D02*
X11460301Y-11269484D01*
X11460301Y-11164722D02*
X11469824Y-11145674D01*
X11469824Y-11145674D02*
X11488872Y-11136150D01*
X11488872Y-11136150D02*
X11517443Y-11136150D01*
X11517443Y-11136150D02*
X11536491Y-11145674D01*
X11536491Y-11145674D02*
X11546015Y-11164722D01*
X11546015Y-11164722D02*
X11546015Y-11269484D01*
X11936491Y-11059960D02*
X11765063Y-11317103D01*
X12193634Y-11069484D02*
X12212682Y-11069484D01*
X12212682Y-11069484D02*
X12231729Y-11079008D01*
X12231729Y-11079008D02*
X12241253Y-11088531D01*
X12241253Y-11088531D02*
X12250777Y-11107579D01*
X12250777Y-11107579D02*
X12260301Y-11145674D01*
X12260301Y-11145674D02*
X12260301Y-11193293D01*
X12260301Y-11193293D02*
X12250777Y-11231388D01*
X12250777Y-11231388D02*
X12241253Y-11250436D01*
X12241253Y-11250436D02*
X12231729Y-11259960D01*
X12231729Y-11259960D02*
X12212682Y-11269484D01*
X12212682Y-11269484D02*
X12193634Y-11269484D01*
X12193634Y-11269484D02*
X12174586Y-11259960D01*
X12174586Y-11259960D02*
X12165063Y-11250436D01*
X12165063Y-11250436D02*
X12155539Y-11231388D01*
X12155539Y-11231388D02*
X12146015Y-11193293D01*
X12146015Y-11193293D02*
X12146015Y-11145674D01*
X12146015Y-11145674D02*
X12155539Y-11107579D01*
X12155539Y-11107579D02*
X12165063Y-11088531D01*
X12165063Y-11088531D02*
X12174586Y-11079008D01*
X12174586Y-11079008D02*
X12193634Y-11069484D01*
X12346015Y-11250436D02*
X12355539Y-11259960D01*
X12355539Y-11259960D02*
X12346015Y-11269484D01*
X12346015Y-11269484D02*
X12336491Y-11259960D01*
X12336491Y-11259960D02*
X12346015Y-11250436D01*
X12346015Y-11250436D02*
X12346015Y-11269484D01*
X12479348Y-11069484D02*
X12498396Y-11069484D01*
X12498396Y-11069484D02*
X12517444Y-11079008D01*
X12517444Y-11079008D02*
X12526967Y-11088531D01*
X12526967Y-11088531D02*
X12536491Y-11107579D01*
X12536491Y-11107579D02*
X12546015Y-11145674D01*
X12546015Y-11145674D02*
X12546015Y-11193293D01*
X12546015Y-11193293D02*
X12536491Y-11231388D01*
X12536491Y-11231388D02*
X12526967Y-11250436D01*
X12526967Y-11250436D02*
X12517444Y-11259960D01*
X12517444Y-11259960D02*
X12498396Y-11269484D01*
X12498396Y-11269484D02*
X12479348Y-11269484D01*
X12479348Y-11269484D02*
X12460301Y-11259960D01*
X12460301Y-11259960D02*
X12450777Y-11250436D01*
X12450777Y-11250436D02*
X12441253Y-11231388D01*
X12441253Y-11231388D02*
X12431729Y-11193293D01*
X12431729Y-11193293D02*
X12431729Y-11145674D01*
X12431729Y-11145674D02*
X12441253Y-11107579D01*
X12441253Y-11107579D02*
X12450777Y-11088531D01*
X12450777Y-11088531D02*
X12460301Y-11079008D01*
X12460301Y-11079008D02*
X12479348Y-11069484D01*
X12612682Y-11069484D02*
X12736491Y-11069484D01*
X12736491Y-11069484D02*
X12669825Y-11145674D01*
X12669825Y-11145674D02*
X12698396Y-11145674D01*
X12698396Y-11145674D02*
X12717444Y-11155198D01*
X12717444Y-11155198D02*
X12726967Y-11164722D01*
X12726967Y-11164722D02*
X12736491Y-11183770D01*
X12736491Y-11183770D02*
X12736491Y-11231388D01*
X12736491Y-11231388D02*
X12726967Y-11250436D01*
X12726967Y-11250436D02*
X12717444Y-11259960D01*
X12717444Y-11259960D02*
X12698396Y-11269484D01*
X12698396Y-11269484D02*
X12641253Y-11269484D01*
X12641253Y-11269484D02*
X12622206Y-11259960D01*
X12622206Y-11259960D02*
X12612682Y-11250436D01*
X12926967Y-11269484D02*
X12812682Y-11269484D01*
X12869825Y-11269484D02*
X12869825Y-11069484D01*
X12869825Y-11069484D02*
X12850777Y-11098055D01*
X12850777Y-11098055D02*
X12831729Y-11117103D01*
X12831729Y-11117103D02*
X12812682Y-11126627D01*
X13107920Y-11069484D02*
X13012682Y-11069484D01*
X13012682Y-11069484D02*
X13003158Y-11164722D01*
X13003158Y-11164722D02*
X13012682Y-11155198D01*
X13012682Y-11155198D02*
X13031729Y-11145674D01*
X13031729Y-11145674D02*
X13079348Y-11145674D01*
X13079348Y-11145674D02*
X13098396Y-11155198D01*
X13098396Y-11155198D02*
X13107920Y-11164722D01*
X13107920Y-11164722D02*
X13117444Y-11183770D01*
X13117444Y-11183770D02*
X13117444Y-11231388D01*
X13117444Y-11231388D02*
X13107920Y-11250436D01*
X13107920Y-11250436D02*
X13098396Y-11259960D01*
X13098396Y-11259960D02*
X13079348Y-11269484D01*
X13079348Y-11269484D02*
X13031729Y-11269484D01*
X13031729Y-11269484D02*
X13012682Y-11259960D01*
X13012682Y-11259960D02*
X13003158Y-11250436D01*
X13193634Y-11069484D02*
X13193634Y-11107579D01*
X13269825Y-11069484D02*
X13269825Y-11107579D01*
X13565063Y-11345674D02*
X13555539Y-11336150D01*
X13555539Y-11336150D02*
X13536491Y-11307579D01*
X13536491Y-11307579D02*
X13526968Y-11288531D01*
X13526968Y-11288531D02*
X13517444Y-11259960D01*
X13517444Y-11259960D02*
X13507920Y-11212341D01*
X13507920Y-11212341D02*
X13507920Y-11174246D01*
X13507920Y-11174246D02*
X13517444Y-11126627D01*
X13517444Y-11126627D02*
X13526968Y-11098055D01*
X13526968Y-11098055D02*
X13536491Y-11079008D01*
X13536491Y-11079008D02*
X13555539Y-11050436D01*
X13555539Y-11050436D02*
X13565063Y-11040912D01*
X13736491Y-11069484D02*
X13641253Y-11069484D01*
X13641253Y-11069484D02*
X13631729Y-11164722D01*
X13631729Y-11164722D02*
X13641253Y-11155198D01*
X13641253Y-11155198D02*
X13660301Y-11145674D01*
X13660301Y-11145674D02*
X13707920Y-11145674D01*
X13707920Y-11145674D02*
X13726968Y-11155198D01*
X13726968Y-11155198D02*
X13736491Y-11164722D01*
X13736491Y-11164722D02*
X13746015Y-11183770D01*
X13746015Y-11183770D02*
X13746015Y-11231388D01*
X13746015Y-11231388D02*
X13736491Y-11250436D01*
X13736491Y-11250436D02*
X13726968Y-11259960D01*
X13726968Y-11259960D02*
X13707920Y-11269484D01*
X13707920Y-11269484D02*
X13660301Y-11269484D01*
X13660301Y-11269484D02*
X13641253Y-11259960D01*
X13641253Y-11259960D02*
X13631729Y-11250436D01*
X13860301Y-11155198D02*
X13841253Y-11145674D01*
X13841253Y-11145674D02*
X13831729Y-11136150D01*
X13831729Y-11136150D02*
X13822206Y-11117103D01*
X13822206Y-11117103D02*
X13822206Y-11107579D01*
X13822206Y-11107579D02*
X13831729Y-11088531D01*
X13831729Y-11088531D02*
X13841253Y-11079008D01*
X13841253Y-11079008D02*
X13860301Y-11069484D01*
X13860301Y-11069484D02*
X13898396Y-11069484D01*
X13898396Y-11069484D02*
X13917444Y-11079008D01*
X13917444Y-11079008D02*
X13926968Y-11088531D01*
X13926968Y-11088531D02*
X13936491Y-11107579D01*
X13936491Y-11107579D02*
X13936491Y-11117103D01*
X13936491Y-11117103D02*
X13926968Y-11136150D01*
X13926968Y-11136150D02*
X13917444Y-11145674D01*
X13917444Y-11145674D02*
X13898396Y-11155198D01*
X13898396Y-11155198D02*
X13860301Y-11155198D01*
X13860301Y-11155198D02*
X13841253Y-11164722D01*
X13841253Y-11164722D02*
X13831729Y-11174246D01*
X13831729Y-11174246D02*
X13822206Y-11193293D01*
X13822206Y-11193293D02*
X13822206Y-11231388D01*
X13822206Y-11231388D02*
X13831729Y-11250436D01*
X13831729Y-11250436D02*
X13841253Y-11259960D01*
X13841253Y-11259960D02*
X13860301Y-11269484D01*
X13860301Y-11269484D02*
X13898396Y-11269484D01*
X13898396Y-11269484D02*
X13917444Y-11259960D01*
X13917444Y-11259960D02*
X13926968Y-11250436D01*
X13926968Y-11250436D02*
X13936491Y-11231388D01*
X13936491Y-11231388D02*
X13936491Y-11193293D01*
X13936491Y-11193293D02*
X13926968Y-11174246D01*
X13926968Y-11174246D02*
X13917444Y-11164722D01*
X13917444Y-11164722D02*
X13898396Y-11155198D01*
X14174587Y-11269484D02*
X14174587Y-11069484D01*
X14260301Y-11269484D02*
X14260301Y-11164722D01*
X14260301Y-11164722D02*
X14250777Y-11145674D01*
X14250777Y-11145674D02*
X14231730Y-11136150D01*
X14231730Y-11136150D02*
X14203158Y-11136150D01*
X14203158Y-11136150D02*
X14184110Y-11145674D01*
X14184110Y-11145674D02*
X14174587Y-11155198D01*
X14384110Y-11269484D02*
X14365063Y-11259960D01*
X14365063Y-11259960D02*
X14355539Y-11250436D01*
X14355539Y-11250436D02*
X14346015Y-11231388D01*
X14346015Y-11231388D02*
X14346015Y-11174246D01*
X14346015Y-11174246D02*
X14355539Y-11155198D01*
X14355539Y-11155198D02*
X14365063Y-11145674D01*
X14365063Y-11145674D02*
X14384110Y-11136150D01*
X14384110Y-11136150D02*
X14412682Y-11136150D01*
X14412682Y-11136150D02*
X14431730Y-11145674D01*
X14431730Y-11145674D02*
X14441253Y-11155198D01*
X14441253Y-11155198D02*
X14450777Y-11174246D01*
X14450777Y-11174246D02*
X14450777Y-11231388D01*
X14450777Y-11231388D02*
X14441253Y-11250436D01*
X14441253Y-11250436D02*
X14431730Y-11259960D01*
X14431730Y-11259960D02*
X14412682Y-11269484D01*
X14412682Y-11269484D02*
X14384110Y-11269484D01*
X14565063Y-11269484D02*
X14546015Y-11259960D01*
X14546015Y-11259960D02*
X14536491Y-11240912D01*
X14536491Y-11240912D02*
X14536491Y-11069484D01*
X14717444Y-11259960D02*
X14698396Y-11269484D01*
X14698396Y-11269484D02*
X14660301Y-11269484D01*
X14660301Y-11269484D02*
X14641253Y-11259960D01*
X14641253Y-11259960D02*
X14631730Y-11240912D01*
X14631730Y-11240912D02*
X14631730Y-11164722D01*
X14631730Y-11164722D02*
X14641253Y-11145674D01*
X14641253Y-11145674D02*
X14660301Y-11136150D01*
X14660301Y-11136150D02*
X14698396Y-11136150D01*
X14698396Y-11136150D02*
X14717444Y-11145674D01*
X14717444Y-11145674D02*
X14726968Y-11164722D01*
X14726968Y-11164722D02*
X14726968Y-11183770D01*
X14726968Y-11183770D02*
X14631730Y-11202817D01*
X14803158Y-11259960D02*
X14822206Y-11269484D01*
X14822206Y-11269484D02*
X14860301Y-11269484D01*
X14860301Y-11269484D02*
X14879349Y-11259960D01*
X14879349Y-11259960D02*
X14888872Y-11240912D01*
X14888872Y-11240912D02*
X14888872Y-11231388D01*
X14888872Y-11231388D02*
X14879349Y-11212341D01*
X14879349Y-11212341D02*
X14860301Y-11202817D01*
X14860301Y-11202817D02*
X14831730Y-11202817D01*
X14831730Y-11202817D02*
X14812682Y-11193293D01*
X14812682Y-11193293D02*
X14803158Y-11174246D01*
X14803158Y-11174246D02*
X14803158Y-11164722D01*
X14803158Y-11164722D02*
X14812682Y-11145674D01*
X14812682Y-11145674D02*
X14831730Y-11136150D01*
X14831730Y-11136150D02*
X14860301Y-11136150D01*
X14860301Y-11136150D02*
X14879349Y-11145674D01*
X14955539Y-11345674D02*
X14965063Y-11336150D01*
X14965063Y-11336150D02*
X14984111Y-11307579D01*
X14984111Y-11307579D02*
X14993634Y-11288531D01*
X14993634Y-11288531D02*
X15003158Y-11259960D01*
X15003158Y-11259960D02*
X15012682Y-11212341D01*
X15012682Y-11212341D02*
X15012682Y-11174246D01*
X15012682Y-11174246D02*
X15003158Y-11126627D01*
X15003158Y-11126627D02*
X14993634Y-11098055D01*
X14993634Y-11098055D02*
X14984111Y-11079008D01*
X14984111Y-11079008D02*
X14965063Y-11050436D01*
X14965063Y-11050436D02*
X14955539Y-11040912D01*
D11*
X9975356Y-11477356D02*
X9975356Y-11406644D01*
X9904644Y-11406644D01*
X9904644Y-11477356D01*
X9975356Y-11477356D01*
D10*
X10355539Y-11533484D02*
X10241253Y-11533484D01*
X10298396Y-11533484D02*
X10298396Y-11333484D01*
X10298396Y-11333484D02*
X10279348Y-11362055D01*
X10279348Y-11362055D02*
X10260301Y-11381103D01*
X10260301Y-11381103D02*
X10241253Y-11390627D01*
X10441253Y-11514436D02*
X10450777Y-11523960D01*
X10450777Y-11523960D02*
X10441253Y-11533484D01*
X10441253Y-11533484D02*
X10431729Y-11523960D01*
X10431729Y-11523960D02*
X10441253Y-11514436D01*
X10441253Y-11514436D02*
X10441253Y-11533484D01*
X10574586Y-11333484D02*
X10593634Y-11333484D01*
X10593634Y-11333484D02*
X10612682Y-11343008D01*
X10612682Y-11343008D02*
X10622205Y-11352531D01*
X10622205Y-11352531D02*
X10631729Y-11371579D01*
X10631729Y-11371579D02*
X10641253Y-11409674D01*
X10641253Y-11409674D02*
X10641253Y-11457293D01*
X10641253Y-11457293D02*
X10631729Y-11495388D01*
X10631729Y-11495388D02*
X10622205Y-11514436D01*
X10622205Y-11514436D02*
X10612682Y-11523960D01*
X10612682Y-11523960D02*
X10593634Y-11533484D01*
X10593634Y-11533484D02*
X10574586Y-11533484D01*
X10574586Y-11533484D02*
X10555539Y-11523960D01*
X10555539Y-11523960D02*
X10546015Y-11514436D01*
X10546015Y-11514436D02*
X10536491Y-11495388D01*
X10536491Y-11495388D02*
X10526967Y-11457293D01*
X10526967Y-11457293D02*
X10526967Y-11409674D01*
X10526967Y-11409674D02*
X10536491Y-11371579D01*
X10536491Y-11371579D02*
X10546015Y-11352531D01*
X10546015Y-11352531D02*
X10555539Y-11343008D01*
X10555539Y-11343008D02*
X10574586Y-11333484D01*
X10765063Y-11333484D02*
X10784110Y-11333484D01*
X10784110Y-11333484D02*
X10803158Y-11343008D01*
X10803158Y-11343008D02*
X10812682Y-11352531D01*
X10812682Y-11352531D02*
X10822205Y-11371579D01*
X10822205Y-11371579D02*
X10831729Y-11409674D01*
X10831729Y-11409674D02*
X10831729Y-11457293D01*
X10831729Y-11457293D02*
X10822205Y-11495388D01*
X10822205Y-11495388D02*
X10812682Y-11514436D01*
X10812682Y-11514436D02*
X10803158Y-11523960D01*
X10803158Y-11523960D02*
X10784110Y-11533484D01*
X10784110Y-11533484D02*
X10765063Y-11533484D01*
X10765063Y-11533484D02*
X10746015Y-11523960D01*
X10746015Y-11523960D02*
X10736491Y-11514436D01*
X10736491Y-11514436D02*
X10726967Y-11495388D01*
X10726967Y-11495388D02*
X10717444Y-11457293D01*
X10717444Y-11457293D02*
X10717444Y-11409674D01*
X10717444Y-11409674D02*
X10726967Y-11371579D01*
X10726967Y-11371579D02*
X10736491Y-11352531D01*
X10736491Y-11352531D02*
X10746015Y-11343008D01*
X10746015Y-11343008D02*
X10765063Y-11333484D01*
X10955539Y-11333484D02*
X10974586Y-11333484D01*
X10974586Y-11333484D02*
X10993634Y-11343008D01*
X10993634Y-11343008D02*
X11003158Y-11352531D01*
X11003158Y-11352531D02*
X11012682Y-11371579D01*
X11012682Y-11371579D02*
X11022205Y-11409674D01*
X11022205Y-11409674D02*
X11022205Y-11457293D01*
X11022205Y-11457293D02*
X11012682Y-11495388D01*
X11012682Y-11495388D02*
X11003158Y-11514436D01*
X11003158Y-11514436D02*
X10993634Y-11523960D01*
X10993634Y-11523960D02*
X10974586Y-11533484D01*
X10974586Y-11533484D02*
X10955539Y-11533484D01*
X10955539Y-11533484D02*
X10936491Y-11523960D01*
X10936491Y-11523960D02*
X10926967Y-11514436D01*
X10926967Y-11514436D02*
X10917444Y-11495388D01*
X10917444Y-11495388D02*
X10907920Y-11457293D01*
X10907920Y-11457293D02*
X10907920Y-11409674D01*
X10907920Y-11409674D02*
X10917444Y-11371579D01*
X10917444Y-11371579D02*
X10926967Y-11352531D01*
X10926967Y-11352531D02*
X10936491Y-11343008D01*
X10936491Y-11343008D02*
X10955539Y-11333484D01*
X11107920Y-11533484D02*
X11107920Y-11400150D01*
X11107920Y-11419198D02*
X11117444Y-11409674D01*
X11117444Y-11409674D02*
X11136491Y-11400150D01*
X11136491Y-11400150D02*
X11165063Y-11400150D01*
X11165063Y-11400150D02*
X11184110Y-11409674D01*
X11184110Y-11409674D02*
X11193634Y-11428722D01*
X11193634Y-11428722D02*
X11193634Y-11533484D01*
X11193634Y-11428722D02*
X11203158Y-11409674D01*
X11203158Y-11409674D02*
X11222205Y-11400150D01*
X11222205Y-11400150D02*
X11250777Y-11400150D01*
X11250777Y-11400150D02*
X11269824Y-11409674D01*
X11269824Y-11409674D02*
X11279348Y-11428722D01*
X11279348Y-11428722D02*
X11279348Y-11533484D01*
X11374586Y-11533484D02*
X11374586Y-11400150D01*
X11374586Y-11419198D02*
X11384110Y-11409674D01*
X11384110Y-11409674D02*
X11403158Y-11400150D01*
X11403158Y-11400150D02*
X11431729Y-11400150D01*
X11431729Y-11400150D02*
X11450777Y-11409674D01*
X11450777Y-11409674D02*
X11460301Y-11428722D01*
X11460301Y-11428722D02*
X11460301Y-11533484D01*
X11460301Y-11428722D02*
X11469824Y-11409674D01*
X11469824Y-11409674D02*
X11488872Y-11400150D01*
X11488872Y-11400150D02*
X11517443Y-11400150D01*
X11517443Y-11400150D02*
X11536491Y-11409674D01*
X11536491Y-11409674D02*
X11546015Y-11428722D01*
X11546015Y-11428722D02*
X11546015Y-11533484D01*
X11936491Y-11323960D02*
X11765063Y-11581103D01*
X12193634Y-11333484D02*
X12212682Y-11333484D01*
X12212682Y-11333484D02*
X12231729Y-11343008D01*
X12231729Y-11343008D02*
X12241253Y-11352531D01*
X12241253Y-11352531D02*
X12250777Y-11371579D01*
X12250777Y-11371579D02*
X12260301Y-11409674D01*
X12260301Y-11409674D02*
X12260301Y-11457293D01*
X12260301Y-11457293D02*
X12250777Y-11495388D01*
X12250777Y-11495388D02*
X12241253Y-11514436D01*
X12241253Y-11514436D02*
X12231729Y-11523960D01*
X12231729Y-11523960D02*
X12212682Y-11533484D01*
X12212682Y-11533484D02*
X12193634Y-11533484D01*
X12193634Y-11533484D02*
X12174586Y-11523960D01*
X12174586Y-11523960D02*
X12165063Y-11514436D01*
X12165063Y-11514436D02*
X12155539Y-11495388D01*
X12155539Y-11495388D02*
X12146015Y-11457293D01*
X12146015Y-11457293D02*
X12146015Y-11409674D01*
X12146015Y-11409674D02*
X12155539Y-11371579D01*
X12155539Y-11371579D02*
X12165063Y-11352531D01*
X12165063Y-11352531D02*
X12174586Y-11343008D01*
X12174586Y-11343008D02*
X12193634Y-11333484D01*
X12346015Y-11514436D02*
X12355539Y-11523960D01*
X12355539Y-11523960D02*
X12346015Y-11533484D01*
X12346015Y-11533484D02*
X12336491Y-11523960D01*
X12336491Y-11523960D02*
X12346015Y-11514436D01*
X12346015Y-11514436D02*
X12346015Y-11533484D01*
X12479348Y-11333484D02*
X12498396Y-11333484D01*
X12498396Y-11333484D02*
X12517444Y-11343008D01*
X12517444Y-11343008D02*
X12526967Y-11352531D01*
X12526967Y-11352531D02*
X12536491Y-11371579D01*
X12536491Y-11371579D02*
X12546015Y-11409674D01*
X12546015Y-11409674D02*
X12546015Y-11457293D01*
X12546015Y-11457293D02*
X12536491Y-11495388D01*
X12536491Y-11495388D02*
X12526967Y-11514436D01*
X12526967Y-11514436D02*
X12517444Y-11523960D01*
X12517444Y-11523960D02*
X12498396Y-11533484D01*
X12498396Y-11533484D02*
X12479348Y-11533484D01*
X12479348Y-11533484D02*
X12460301Y-11523960D01*
X12460301Y-11523960D02*
X12450777Y-11514436D01*
X12450777Y-11514436D02*
X12441253Y-11495388D01*
X12441253Y-11495388D02*
X12431729Y-11457293D01*
X12431729Y-11457293D02*
X12431729Y-11409674D01*
X12431729Y-11409674D02*
X12441253Y-11371579D01*
X12441253Y-11371579D02*
X12450777Y-11352531D01*
X12450777Y-11352531D02*
X12460301Y-11343008D01*
X12460301Y-11343008D02*
X12479348Y-11333484D01*
X12612682Y-11333484D02*
X12736491Y-11333484D01*
X12736491Y-11333484D02*
X12669825Y-11409674D01*
X12669825Y-11409674D02*
X12698396Y-11409674D01*
X12698396Y-11409674D02*
X12717444Y-11419198D01*
X12717444Y-11419198D02*
X12726967Y-11428722D01*
X12726967Y-11428722D02*
X12736491Y-11447769D01*
X12736491Y-11447769D02*
X12736491Y-11495388D01*
X12736491Y-11495388D02*
X12726967Y-11514436D01*
X12726967Y-11514436D02*
X12717444Y-11523960D01*
X12717444Y-11523960D02*
X12698396Y-11533484D01*
X12698396Y-11533484D02*
X12641253Y-11533484D01*
X12641253Y-11533484D02*
X12622206Y-11523960D01*
X12622206Y-11523960D02*
X12612682Y-11514436D01*
X12831729Y-11533484D02*
X12869825Y-11533484D01*
X12869825Y-11533484D02*
X12888872Y-11523960D01*
X12888872Y-11523960D02*
X12898396Y-11514436D01*
X12898396Y-11514436D02*
X12917444Y-11485865D01*
X12917444Y-11485865D02*
X12926967Y-11447769D01*
X12926967Y-11447769D02*
X12926967Y-11371579D01*
X12926967Y-11371579D02*
X12917444Y-11352531D01*
X12917444Y-11352531D02*
X12907920Y-11343008D01*
X12907920Y-11343008D02*
X12888872Y-11333484D01*
X12888872Y-11333484D02*
X12850777Y-11333484D01*
X12850777Y-11333484D02*
X12831729Y-11343008D01*
X12831729Y-11343008D02*
X12822206Y-11352531D01*
X12822206Y-11352531D02*
X12812682Y-11371579D01*
X12812682Y-11371579D02*
X12812682Y-11419198D01*
X12812682Y-11419198D02*
X12822206Y-11438246D01*
X12822206Y-11438246D02*
X12831729Y-11447769D01*
X12831729Y-11447769D02*
X12850777Y-11457293D01*
X12850777Y-11457293D02*
X12888872Y-11457293D01*
X12888872Y-11457293D02*
X12907920Y-11447769D01*
X12907920Y-11447769D02*
X12917444Y-11438246D01*
X12917444Y-11438246D02*
X12926967Y-11419198D01*
X13098396Y-11400150D02*
X13098396Y-11533484D01*
X13050777Y-11323960D02*
X13003158Y-11466817D01*
X13003158Y-11466817D02*
X13126967Y-11466817D01*
X13193634Y-11333484D02*
X13193634Y-11371579D01*
X13269825Y-11333484D02*
X13269825Y-11371579D01*
X13565063Y-11609674D02*
X13555539Y-11600150D01*
X13555539Y-11600150D02*
X13536491Y-11571579D01*
X13536491Y-11571579D02*
X13526968Y-11552531D01*
X13526968Y-11552531D02*
X13517444Y-11523960D01*
X13517444Y-11523960D02*
X13507920Y-11476341D01*
X13507920Y-11476341D02*
X13507920Y-11438246D01*
X13507920Y-11438246D02*
X13517444Y-11390627D01*
X13517444Y-11390627D02*
X13526968Y-11362055D01*
X13526968Y-11362055D02*
X13536491Y-11343008D01*
X13536491Y-11343008D02*
X13555539Y-11314436D01*
X13555539Y-11314436D02*
X13565063Y-11304912D01*
X13726968Y-11333484D02*
X13688872Y-11333484D01*
X13688872Y-11333484D02*
X13669825Y-11343008D01*
X13669825Y-11343008D02*
X13660301Y-11352531D01*
X13660301Y-11352531D02*
X13641253Y-11381103D01*
X13641253Y-11381103D02*
X13631729Y-11419198D01*
X13631729Y-11419198D02*
X13631729Y-11495388D01*
X13631729Y-11495388D02*
X13641253Y-11514436D01*
X13641253Y-11514436D02*
X13650777Y-11523960D01*
X13650777Y-11523960D02*
X13669825Y-11533484D01*
X13669825Y-11533484D02*
X13707920Y-11533484D01*
X13707920Y-11533484D02*
X13726968Y-11523960D01*
X13726968Y-11523960D02*
X13736491Y-11514436D01*
X13736491Y-11514436D02*
X13746015Y-11495388D01*
X13746015Y-11495388D02*
X13746015Y-11447769D01*
X13746015Y-11447769D02*
X13736491Y-11428722D01*
X13736491Y-11428722D02*
X13726968Y-11419198D01*
X13726968Y-11419198D02*
X13707920Y-11409674D01*
X13707920Y-11409674D02*
X13669825Y-11409674D01*
X13669825Y-11409674D02*
X13650777Y-11419198D01*
X13650777Y-11419198D02*
X13641253Y-11428722D01*
X13641253Y-11428722D02*
X13631729Y-11447769D01*
X13984110Y-11533484D02*
X13984110Y-11333484D01*
X14069825Y-11533484D02*
X14069825Y-11428722D01*
X14069825Y-11428722D02*
X14060301Y-11409674D01*
X14060301Y-11409674D02*
X14041253Y-11400150D01*
X14041253Y-11400150D02*
X14012682Y-11400150D01*
X14012682Y-11400150D02*
X13993634Y-11409674D01*
X13993634Y-11409674D02*
X13984110Y-11419198D01*
X14193634Y-11533484D02*
X14174587Y-11523960D01*
X14174587Y-11523960D02*
X14165063Y-11514436D01*
X14165063Y-11514436D02*
X14155539Y-11495388D01*
X14155539Y-11495388D02*
X14155539Y-11438246D01*
X14155539Y-11438246D02*
X14165063Y-11419198D01*
X14165063Y-11419198D02*
X14174587Y-11409674D01*
X14174587Y-11409674D02*
X14193634Y-11400150D01*
X14193634Y-11400150D02*
X14222206Y-11400150D01*
X14222206Y-11400150D02*
X14241253Y-11409674D01*
X14241253Y-11409674D02*
X14250777Y-11419198D01*
X14250777Y-11419198D02*
X14260301Y-11438246D01*
X14260301Y-11438246D02*
X14260301Y-11495388D01*
X14260301Y-11495388D02*
X14250777Y-11514436D01*
X14250777Y-11514436D02*
X14241253Y-11523960D01*
X14241253Y-11523960D02*
X14222206Y-11533484D01*
X14222206Y-11533484D02*
X14193634Y-11533484D01*
X14374587Y-11533484D02*
X14355539Y-11523960D01*
X14355539Y-11523960D02*
X14346015Y-11504912D01*
X14346015Y-11504912D02*
X14346015Y-11333484D01*
X14526968Y-11523960D02*
X14507920Y-11533484D01*
X14507920Y-11533484D02*
X14469825Y-11533484D01*
X14469825Y-11533484D02*
X14450777Y-11523960D01*
X14450777Y-11523960D02*
X14441253Y-11504912D01*
X14441253Y-11504912D02*
X14441253Y-11428722D01*
X14441253Y-11428722D02*
X14450777Y-11409674D01*
X14450777Y-11409674D02*
X14469825Y-11400150D01*
X14469825Y-11400150D02*
X14507920Y-11400150D01*
X14507920Y-11400150D02*
X14526968Y-11409674D01*
X14526968Y-11409674D02*
X14536491Y-11428722D01*
X14536491Y-11428722D02*
X14536491Y-11447769D01*
X14536491Y-11447769D02*
X14441253Y-11466817D01*
X14612682Y-11523960D02*
X14631730Y-11533484D01*
X14631730Y-11533484D02*
X14669825Y-11533484D01*
X14669825Y-11533484D02*
X14688872Y-11523960D01*
X14688872Y-11523960D02*
X14698396Y-11504912D01*
X14698396Y-11504912D02*
X14698396Y-11495388D01*
X14698396Y-11495388D02*
X14688872Y-11476341D01*
X14688872Y-11476341D02*
X14669825Y-11466817D01*
X14669825Y-11466817D02*
X14641253Y-11466817D01*
X14641253Y-11466817D02*
X14622206Y-11457293D01*
X14622206Y-11457293D02*
X14612682Y-11438246D01*
X14612682Y-11438246D02*
X14612682Y-11428722D01*
X14612682Y-11428722D02*
X14622206Y-11409674D01*
X14622206Y-11409674D02*
X14641253Y-11400150D01*
X14641253Y-11400150D02*
X14669825Y-11400150D01*
X14669825Y-11400150D02*
X14688872Y-11409674D01*
X14765063Y-11609674D02*
X14774587Y-11600150D01*
X14774587Y-11600150D02*
X14793634Y-11571579D01*
X14793634Y-11571579D02*
X14803158Y-11552531D01*
X14803158Y-11552531D02*
X14812682Y-11523960D01*
X14812682Y-11523960D02*
X14822206Y-11476341D01*
X14822206Y-11476341D02*
X14822206Y-11438246D01*
X14822206Y-11438246D02*
X14812682Y-11390627D01*
X14812682Y-11390627D02*
X14803158Y-11362055D01*
X14803158Y-11362055D02*
X14793634Y-11343008D01*
X14793634Y-11343008D02*
X14774587Y-11314436D01*
X14774587Y-11314436D02*
X14765063Y-11304912D01*
X9890000Y-11806000D02*
X9990000Y-11706000D01*
X9890000Y-11606000D01*
X9790000Y-11706000D01*
X9890000Y-11806000D01*
X10231729Y-11597484D02*
X10355539Y-11597484D01*
X10355539Y-11597484D02*
X10288872Y-11673674D01*
X10288872Y-11673674D02*
X10317444Y-11673674D01*
X10317444Y-11673674D02*
X10336491Y-11683198D01*
X10336491Y-11683198D02*
X10346015Y-11692722D01*
X10346015Y-11692722D02*
X10355539Y-11711769D01*
X10355539Y-11711769D02*
X10355539Y-11759388D01*
X10355539Y-11759388D02*
X10346015Y-11778436D01*
X10346015Y-11778436D02*
X10336491Y-11787960D01*
X10336491Y-11787960D02*
X10317444Y-11797484D01*
X10317444Y-11797484D02*
X10260301Y-11797484D01*
X10260301Y-11797484D02*
X10241253Y-11787960D01*
X10241253Y-11787960D02*
X10231729Y-11778436D01*
X10441253Y-11778436D02*
X10450777Y-11787960D01*
X10450777Y-11787960D02*
X10441253Y-11797484D01*
X10441253Y-11797484D02*
X10431729Y-11787960D01*
X10431729Y-11787960D02*
X10441253Y-11778436D01*
X10441253Y-11778436D02*
X10441253Y-11797484D01*
X10526967Y-11616531D02*
X10536491Y-11607008D01*
X10536491Y-11607008D02*
X10555539Y-11597484D01*
X10555539Y-11597484D02*
X10603158Y-11597484D01*
X10603158Y-11597484D02*
X10622205Y-11607008D01*
X10622205Y-11607008D02*
X10631729Y-11616531D01*
X10631729Y-11616531D02*
X10641253Y-11635579D01*
X10641253Y-11635579D02*
X10641253Y-11654627D01*
X10641253Y-11654627D02*
X10631729Y-11683198D01*
X10631729Y-11683198D02*
X10517444Y-11797484D01*
X10517444Y-11797484D02*
X10641253Y-11797484D01*
X10765063Y-11597484D02*
X10784110Y-11597484D01*
X10784110Y-11597484D02*
X10803158Y-11607008D01*
X10803158Y-11607008D02*
X10812682Y-11616531D01*
X10812682Y-11616531D02*
X10822205Y-11635579D01*
X10822205Y-11635579D02*
X10831729Y-11673674D01*
X10831729Y-11673674D02*
X10831729Y-11721293D01*
X10831729Y-11721293D02*
X10822205Y-11759388D01*
X10822205Y-11759388D02*
X10812682Y-11778436D01*
X10812682Y-11778436D02*
X10803158Y-11787960D01*
X10803158Y-11787960D02*
X10784110Y-11797484D01*
X10784110Y-11797484D02*
X10765063Y-11797484D01*
X10765063Y-11797484D02*
X10746015Y-11787960D01*
X10746015Y-11787960D02*
X10736491Y-11778436D01*
X10736491Y-11778436D02*
X10726967Y-11759388D01*
X10726967Y-11759388D02*
X10717444Y-11721293D01*
X10717444Y-11721293D02*
X10717444Y-11673674D01*
X10717444Y-11673674D02*
X10726967Y-11635579D01*
X10726967Y-11635579D02*
X10736491Y-11616531D01*
X10736491Y-11616531D02*
X10746015Y-11607008D01*
X10746015Y-11607008D02*
X10765063Y-11597484D01*
X10955539Y-11597484D02*
X10974586Y-11597484D01*
X10974586Y-11597484D02*
X10993634Y-11607008D01*
X10993634Y-11607008D02*
X11003158Y-11616531D01*
X11003158Y-11616531D02*
X11012682Y-11635579D01*
X11012682Y-11635579D02*
X11022205Y-11673674D01*
X11022205Y-11673674D02*
X11022205Y-11721293D01*
X11022205Y-11721293D02*
X11012682Y-11759388D01*
X11012682Y-11759388D02*
X11003158Y-11778436D01*
X11003158Y-11778436D02*
X10993634Y-11787960D01*
X10993634Y-11787960D02*
X10974586Y-11797484D01*
X10974586Y-11797484D02*
X10955539Y-11797484D01*
X10955539Y-11797484D02*
X10936491Y-11787960D01*
X10936491Y-11787960D02*
X10926967Y-11778436D01*
X10926967Y-11778436D02*
X10917444Y-11759388D01*
X10917444Y-11759388D02*
X10907920Y-11721293D01*
X10907920Y-11721293D02*
X10907920Y-11673674D01*
X10907920Y-11673674D02*
X10917444Y-11635579D01*
X10917444Y-11635579D02*
X10926967Y-11616531D01*
X10926967Y-11616531D02*
X10936491Y-11607008D01*
X10936491Y-11607008D02*
X10955539Y-11597484D01*
X11107920Y-11797484D02*
X11107920Y-11664150D01*
X11107920Y-11683198D02*
X11117444Y-11673674D01*
X11117444Y-11673674D02*
X11136491Y-11664150D01*
X11136491Y-11664150D02*
X11165063Y-11664150D01*
X11165063Y-11664150D02*
X11184110Y-11673674D01*
X11184110Y-11673674D02*
X11193634Y-11692722D01*
X11193634Y-11692722D02*
X11193634Y-11797484D01*
X11193634Y-11692722D02*
X11203158Y-11673674D01*
X11203158Y-11673674D02*
X11222205Y-11664150D01*
X11222205Y-11664150D02*
X11250777Y-11664150D01*
X11250777Y-11664150D02*
X11269824Y-11673674D01*
X11269824Y-11673674D02*
X11279348Y-11692722D01*
X11279348Y-11692722D02*
X11279348Y-11797484D01*
X11374586Y-11797484D02*
X11374586Y-11664150D01*
X11374586Y-11683198D02*
X11384110Y-11673674D01*
X11384110Y-11673674D02*
X11403158Y-11664150D01*
X11403158Y-11664150D02*
X11431729Y-11664150D01*
X11431729Y-11664150D02*
X11450777Y-11673674D01*
X11450777Y-11673674D02*
X11460301Y-11692722D01*
X11460301Y-11692722D02*
X11460301Y-11797484D01*
X11460301Y-11692722D02*
X11469824Y-11673674D01*
X11469824Y-11673674D02*
X11488872Y-11664150D01*
X11488872Y-11664150D02*
X11517443Y-11664150D01*
X11517443Y-11664150D02*
X11536491Y-11673674D01*
X11536491Y-11673674D02*
X11546015Y-11692722D01*
X11546015Y-11692722D02*
X11546015Y-11797484D01*
X11936491Y-11587960D02*
X11765063Y-11845103D01*
X12193634Y-11597484D02*
X12212682Y-11597484D01*
X12212682Y-11597484D02*
X12231729Y-11607008D01*
X12231729Y-11607008D02*
X12241253Y-11616531D01*
X12241253Y-11616531D02*
X12250777Y-11635579D01*
X12250777Y-11635579D02*
X12260301Y-11673674D01*
X12260301Y-11673674D02*
X12260301Y-11721293D01*
X12260301Y-11721293D02*
X12250777Y-11759388D01*
X12250777Y-11759388D02*
X12241253Y-11778436D01*
X12241253Y-11778436D02*
X12231729Y-11787960D01*
X12231729Y-11787960D02*
X12212682Y-11797484D01*
X12212682Y-11797484D02*
X12193634Y-11797484D01*
X12193634Y-11797484D02*
X12174586Y-11787960D01*
X12174586Y-11787960D02*
X12165063Y-11778436D01*
X12165063Y-11778436D02*
X12155539Y-11759388D01*
X12155539Y-11759388D02*
X12146015Y-11721293D01*
X12146015Y-11721293D02*
X12146015Y-11673674D01*
X12146015Y-11673674D02*
X12155539Y-11635579D01*
X12155539Y-11635579D02*
X12165063Y-11616531D01*
X12165063Y-11616531D02*
X12174586Y-11607008D01*
X12174586Y-11607008D02*
X12193634Y-11597484D01*
X12346015Y-11778436D02*
X12355539Y-11787960D01*
X12355539Y-11787960D02*
X12346015Y-11797484D01*
X12346015Y-11797484D02*
X12336491Y-11787960D01*
X12336491Y-11787960D02*
X12346015Y-11778436D01*
X12346015Y-11778436D02*
X12346015Y-11797484D01*
X12546015Y-11797484D02*
X12431729Y-11797484D01*
X12488872Y-11797484D02*
X12488872Y-11597484D01*
X12488872Y-11597484D02*
X12469825Y-11626055D01*
X12469825Y-11626055D02*
X12450777Y-11645103D01*
X12450777Y-11645103D02*
X12431729Y-11654627D01*
X12622206Y-11616531D02*
X12631729Y-11607008D01*
X12631729Y-11607008D02*
X12650777Y-11597484D01*
X12650777Y-11597484D02*
X12698396Y-11597484D01*
X12698396Y-11597484D02*
X12717444Y-11607008D01*
X12717444Y-11607008D02*
X12726967Y-11616531D01*
X12726967Y-11616531D02*
X12736491Y-11635579D01*
X12736491Y-11635579D02*
X12736491Y-11654627D01*
X12736491Y-11654627D02*
X12726967Y-11683198D01*
X12726967Y-11683198D02*
X12612682Y-11797484D01*
X12612682Y-11797484D02*
X12736491Y-11797484D01*
X12907920Y-11597484D02*
X12869825Y-11597484D01*
X12869825Y-11597484D02*
X12850777Y-11607008D01*
X12850777Y-11607008D02*
X12841253Y-11616531D01*
X12841253Y-11616531D02*
X12822206Y-11645103D01*
X12822206Y-11645103D02*
X12812682Y-11683198D01*
X12812682Y-11683198D02*
X12812682Y-11759388D01*
X12812682Y-11759388D02*
X12822206Y-11778436D01*
X12822206Y-11778436D02*
X12831729Y-11787960D01*
X12831729Y-11787960D02*
X12850777Y-11797484D01*
X12850777Y-11797484D02*
X12888872Y-11797484D01*
X12888872Y-11797484D02*
X12907920Y-11787960D01*
X12907920Y-11787960D02*
X12917444Y-11778436D01*
X12917444Y-11778436D02*
X12926967Y-11759388D01*
X12926967Y-11759388D02*
X12926967Y-11711769D01*
X12926967Y-11711769D02*
X12917444Y-11692722D01*
X12917444Y-11692722D02*
X12907920Y-11683198D01*
X12907920Y-11683198D02*
X12888872Y-11673674D01*
X12888872Y-11673674D02*
X12850777Y-11673674D01*
X12850777Y-11673674D02*
X12831729Y-11683198D01*
X12831729Y-11683198D02*
X12822206Y-11692722D01*
X12822206Y-11692722D02*
X12812682Y-11711769D01*
X13050777Y-11597484D02*
X13069825Y-11597484D01*
X13069825Y-11597484D02*
X13088872Y-11607008D01*
X13088872Y-11607008D02*
X13098396Y-11616531D01*
X13098396Y-11616531D02*
X13107920Y-11635579D01*
X13107920Y-11635579D02*
X13117444Y-11673674D01*
X13117444Y-11673674D02*
X13117444Y-11721293D01*
X13117444Y-11721293D02*
X13107920Y-11759388D01*
X13107920Y-11759388D02*
X13098396Y-11778436D01*
X13098396Y-11778436D02*
X13088872Y-11787960D01*
X13088872Y-11787960D02*
X13069825Y-11797484D01*
X13069825Y-11797484D02*
X13050777Y-11797484D01*
X13050777Y-11797484D02*
X13031729Y-11787960D01*
X13031729Y-11787960D02*
X13022206Y-11778436D01*
X13022206Y-11778436D02*
X13012682Y-11759388D01*
X13012682Y-11759388D02*
X13003158Y-11721293D01*
X13003158Y-11721293D02*
X13003158Y-11673674D01*
X13003158Y-11673674D02*
X13012682Y-11635579D01*
X13012682Y-11635579D02*
X13022206Y-11616531D01*
X13022206Y-11616531D02*
X13031729Y-11607008D01*
X13031729Y-11607008D02*
X13050777Y-11597484D01*
X13193634Y-11597484D02*
X13193634Y-11635579D01*
X13269825Y-11597484D02*
X13269825Y-11635579D01*
X13565063Y-11873674D02*
X13555539Y-11864150D01*
X13555539Y-11864150D02*
X13536491Y-11835579D01*
X13536491Y-11835579D02*
X13526968Y-11816531D01*
X13526968Y-11816531D02*
X13517444Y-11787960D01*
X13517444Y-11787960D02*
X13507920Y-11740341D01*
X13507920Y-11740341D02*
X13507920Y-11702246D01*
X13507920Y-11702246D02*
X13517444Y-11654627D01*
X13517444Y-11654627D02*
X13526968Y-11626055D01*
X13526968Y-11626055D02*
X13536491Y-11607008D01*
X13536491Y-11607008D02*
X13555539Y-11578436D01*
X13555539Y-11578436D02*
X13565063Y-11568912D01*
X13726968Y-11664150D02*
X13726968Y-11797484D01*
X13679348Y-11587960D02*
X13631729Y-11730817D01*
X13631729Y-11730817D02*
X13755539Y-11730817D01*
X13984110Y-11797484D02*
X13984110Y-11597484D01*
X14069825Y-11797484D02*
X14069825Y-11692722D01*
X14069825Y-11692722D02*
X14060301Y-11673674D01*
X14060301Y-11673674D02*
X14041253Y-11664150D01*
X14041253Y-11664150D02*
X14012682Y-11664150D01*
X14012682Y-11664150D02*
X13993634Y-11673674D01*
X13993634Y-11673674D02*
X13984110Y-11683198D01*
X14193634Y-11797484D02*
X14174587Y-11787960D01*
X14174587Y-11787960D02*
X14165063Y-11778436D01*
X14165063Y-11778436D02*
X14155539Y-11759388D01*
X14155539Y-11759388D02*
X14155539Y-11702246D01*
X14155539Y-11702246D02*
X14165063Y-11683198D01*
X14165063Y-11683198D02*
X14174587Y-11673674D01*
X14174587Y-11673674D02*
X14193634Y-11664150D01*
X14193634Y-11664150D02*
X14222206Y-11664150D01*
X14222206Y-11664150D02*
X14241253Y-11673674D01*
X14241253Y-11673674D02*
X14250777Y-11683198D01*
X14250777Y-11683198D02*
X14260301Y-11702246D01*
X14260301Y-11702246D02*
X14260301Y-11759388D01*
X14260301Y-11759388D02*
X14250777Y-11778436D01*
X14250777Y-11778436D02*
X14241253Y-11787960D01*
X14241253Y-11787960D02*
X14222206Y-11797484D01*
X14222206Y-11797484D02*
X14193634Y-11797484D01*
X14374587Y-11797484D02*
X14355539Y-11787960D01*
X14355539Y-11787960D02*
X14346015Y-11768912D01*
X14346015Y-11768912D02*
X14346015Y-11597484D01*
X14526968Y-11787960D02*
X14507920Y-11797484D01*
X14507920Y-11797484D02*
X14469825Y-11797484D01*
X14469825Y-11797484D02*
X14450777Y-11787960D01*
X14450777Y-11787960D02*
X14441253Y-11768912D01*
X14441253Y-11768912D02*
X14441253Y-11692722D01*
X14441253Y-11692722D02*
X14450777Y-11673674D01*
X14450777Y-11673674D02*
X14469825Y-11664150D01*
X14469825Y-11664150D02*
X14507920Y-11664150D01*
X14507920Y-11664150D02*
X14526968Y-11673674D01*
X14526968Y-11673674D02*
X14536491Y-11692722D01*
X14536491Y-11692722D02*
X14536491Y-11711769D01*
X14536491Y-11711769D02*
X14441253Y-11730817D01*
X14612682Y-11787960D02*
X14631730Y-11797484D01*
X14631730Y-11797484D02*
X14669825Y-11797484D01*
X14669825Y-11797484D02*
X14688872Y-11787960D01*
X14688872Y-11787960D02*
X14698396Y-11768912D01*
X14698396Y-11768912D02*
X14698396Y-11759388D01*
X14698396Y-11759388D02*
X14688872Y-11740341D01*
X14688872Y-11740341D02*
X14669825Y-11730817D01*
X14669825Y-11730817D02*
X14641253Y-11730817D01*
X14641253Y-11730817D02*
X14622206Y-11721293D01*
X14622206Y-11721293D02*
X14612682Y-11702246D01*
X14612682Y-11702246D02*
X14612682Y-11692722D01*
X14612682Y-11692722D02*
X14622206Y-11673674D01*
X14622206Y-11673674D02*
X14641253Y-11664150D01*
X14641253Y-11664150D02*
X14669825Y-11664150D01*
X14669825Y-11664150D02*
X14688872Y-11673674D01*
X14765063Y-11873674D02*
X14774587Y-11864150D01*
X14774587Y-11864150D02*
X14793634Y-11835579D01*
X14793634Y-11835579D02*
X14803158Y-11816531D01*
X14803158Y-11816531D02*
X14812682Y-11787960D01*
X14812682Y-11787960D02*
X14822206Y-11740341D01*
X14822206Y-11740341D02*
X14822206Y-11702246D01*
X14822206Y-11702246D02*
X14812682Y-11654627D01*
X14812682Y-11654627D02*
X14803158Y-11626055D01*
X14803158Y-11626055D02*
X14793634Y-11607008D01*
X14793634Y-11607008D02*
X14774587Y-11578436D01*
X14774587Y-11578436D02*
X14765063Y-11568912D01*
M02*
