%TF.GenerationSoftware,KiCad,Pcbnew,7.0.10-7.0.10~ubuntu22.04.1*%
%TF.CreationDate,2024-01-03T18:08:33-08:00*%
%TF.ProjectId,YamhillDualDoubleTunedCircuit,59616d68-696c-46c4-9475-616c446f7562,A*%
%TF.SameCoordinates,Original*%
%TF.FileFunction,Copper,L2,Bot*%
%TF.FilePolarity,Positive*%
%FSLAX46Y46*%
G04 Gerber Fmt 4.6, Leading zero omitted, Abs format (unit mm)*
G04 Created by KiCad (PCBNEW 7.0.10-7.0.10~ubuntu22.04.1) date 2024-01-03 18:08:33*
%MOMM*%
%LPD*%
G01*
G04 APERTURE LIST*
%TA.AperFunction,ComponentPad*%
%ADD10C,2.500000*%
%TD*%
%TA.AperFunction,ComponentPad*%
%ADD11C,1.600000*%
%TD*%
%TA.AperFunction,ComponentPad*%
%ADD12R,1.700000X1.700000*%
%TD*%
%TA.AperFunction,ComponentPad*%
%ADD13O,1.700000X1.700000*%
%TD*%
%TA.AperFunction,ComponentPad*%
%ADD14C,0.800000*%
%TD*%
%TA.AperFunction,ComponentPad*%
%ADD15C,6.400000*%
%TD*%
%TA.AperFunction,ComponentPad*%
%ADD16C,2.600000*%
%TD*%
%TA.AperFunction,ViaPad*%
%ADD17C,0.600000*%
%TD*%
G04 APERTURE END LIST*
D10*
%TO.P,C14,1*%
%TO.N,Net-(C10-Pad1)*%
X139000000Y-88500000D03*
%TO.P,C14,2*%
%TO.N,GND*%
X139000000Y-83500000D03*
%TD*%
D11*
%TO.P,L1,1,1*%
%TO.N,Net-(C1-Pad2)*%
X123100000Y-61575010D03*
%TO.P,L1,2,2*%
%TO.N,GND*%
X120900000Y-66575010D03*
%TD*%
D12*
%TO.P,J3,1,Pin_1*%
%TO.N,Net-(J3-Pin_1)*%
X135000000Y-72475000D03*
D13*
%TO.P,J3,2,Pin_2*%
%TO.N,Net-(J3-Pin_2)*%
X135000000Y-75015000D03*
%TO.P,J3,3,Pin_3*%
%TO.N,Net-(J3-Pin_3)*%
X135000000Y-77555000D03*
%TD*%
D11*
%TO.P,C13,1*%
%TO.N,Net-(C10-Pad1)*%
X133000000Y-88500000D03*
%TO.P,C13,2*%
%TO.N,GND*%
X133000000Y-83500000D03*
%TD*%
D10*
%TO.P,C7,1*%
%TO.N,Net-(C2-Pad2)*%
X139000000Y-61500000D03*
%TO.P,C7,2*%
%TO.N,GND*%
X139000000Y-66500000D03*
%TD*%
D11*
%TO.P,C1,1*%
%TO.N,Net-(J2-Pin_1)*%
X105000000Y-66500000D03*
%TO.P,C1,2*%
%TO.N,Net-(C1-Pad2)*%
X105000000Y-61500000D03*
%TD*%
D14*
%TO.P,H2,1,1*%
%TO.N,GND*%
X102600000Y-55000000D03*
X103302944Y-53302944D03*
X103302944Y-56697056D03*
X105000000Y-52600000D03*
D15*
X105000000Y-55000000D03*
D14*
X105000000Y-57400000D03*
X106697056Y-53302944D03*
X106697056Y-56697056D03*
X107400000Y-55000000D03*
%TD*%
D12*
%TO.P,J2,1,Pin_1*%
%TO.N,Net-(J2-Pin_1)*%
X115000000Y-72475000D03*
D13*
%TO.P,J2,2,Pin_2*%
%TO.N,Net-(J1-In)*%
X115000000Y-75015000D03*
%TO.P,J2,3,Pin_3*%
%TO.N,Net-(J2-Pin_3)*%
X115000000Y-77555000D03*
%TD*%
D10*
%TO.P,C11,1*%
%TO.N,Net-(C11-Pad1)*%
X111000000Y-88500000D03*
%TO.P,C11,2*%
%TO.N,GND*%
X111000000Y-83500000D03*
%TD*%
D11*
%TO.P,C10,1*%
%TO.N,Net-(C10-Pad1)*%
X145000000Y-88500000D03*
%TO.P,C10,2*%
%TO.N,Net-(J3-Pin_3)*%
X145000000Y-83500000D03*
%TD*%
D10*
%TO.P,C4,1*%
%TO.N,Net-(C1-Pad2)*%
X111000000Y-61500000D03*
%TO.P,C4,2*%
%TO.N,GND*%
X111000000Y-66500000D03*
%TD*%
D11*
%TO.P,C2,1*%
%TO.N,Net-(C1-Pad2)*%
X122500000Y-55700000D03*
%TO.P,C2,2*%
%TO.N,Net-(C2-Pad2)*%
X127500000Y-55700000D03*
%TD*%
D14*
%TO.P,H1,1,1*%
%TO.N,GND*%
X142600000Y-55000000D03*
X143302944Y-53302944D03*
X143302944Y-56697056D03*
X145000000Y-52600000D03*
D15*
X145000000Y-55000000D03*
D14*
X145000000Y-57400000D03*
X146697056Y-53302944D03*
X146697056Y-56697056D03*
X147400000Y-55000000D03*
%TD*%
D11*
%TO.P,C8,1*%
%TO.N,Net-(J2-Pin_3)*%
X105000000Y-83500000D03*
%TO.P,C8,2*%
%TO.N,Net-(C11-Pad1)*%
X105000000Y-88500000D03*
%TD*%
D14*
%TO.P,H3,1,1*%
%TO.N,GND*%
X142600000Y-95000000D03*
X143302944Y-93302944D03*
X143302944Y-96697056D03*
X145000000Y-92600000D03*
D15*
X145000000Y-95000000D03*
D14*
X145000000Y-97400000D03*
X146697056Y-93302944D03*
X146697056Y-96697056D03*
X147400000Y-95000000D03*
%TD*%
D11*
%TO.P,C5,1*%
%TO.N,Net-(C1-Pad2)*%
X117000000Y-61500000D03*
%TO.P,C5,2*%
%TO.N,GND*%
X117000000Y-66500000D03*
%TD*%
D14*
%TO.P,H4,1,1*%
%TO.N,GND*%
X102600000Y-95000000D03*
X103302944Y-93302944D03*
X103302944Y-96697056D03*
X105000000Y-92600000D03*
D15*
X105000000Y-95000000D03*
D14*
X105000000Y-97400000D03*
X106697056Y-93302944D03*
X106697056Y-96697056D03*
X107400000Y-95000000D03*
%TD*%
D11*
%TO.P,C9,1*%
%TO.N,Net-(C11-Pad1)*%
X122500000Y-94500000D03*
%TO.P,C9,2*%
%TO.N,Net-(C10-Pad1)*%
X127500000Y-94500000D03*
%TD*%
D10*
%TO.P,J4,1,In*%
%TO.N,Net-(J3-Pin_2)*%
X143000000Y-75000000D03*
D16*
%TO.P,J4,2,Ext*%
%TO.N,GND*%
X140450000Y-72450000D03*
X140450000Y-77550000D03*
X145550000Y-72450000D03*
X145550000Y-77550000D03*
%TD*%
D11*
%TO.P,L3,1,1*%
%TO.N,Net-(C11-Pad1)*%
X120900000Y-88424990D03*
%TO.P,L3,2,2*%
%TO.N,GND*%
X123100000Y-83424990D03*
%TD*%
%TO.P,C12,1*%
%TO.N,Net-(C11-Pad1)*%
X117000000Y-88500000D03*
%TO.P,C12,2*%
%TO.N,GND*%
X117000000Y-83500000D03*
%TD*%
%TO.P,C3,1*%
%TO.N,Net-(C2-Pad2)*%
X145000000Y-61500000D03*
%TO.P,C3,2*%
%TO.N,Net-(J3-Pin_1)*%
X145000000Y-66500000D03*
%TD*%
%TO.P,L4,1,1*%
%TO.N,Net-(C10-Pad1)*%
X126900000Y-88424990D03*
%TO.P,L4,2,2*%
%TO.N,GND*%
X129100000Y-83424990D03*
%TD*%
%TO.P,C6,1*%
%TO.N,Net-(C2-Pad2)*%
X133000000Y-61500000D03*
%TO.P,C6,2*%
%TO.N,GND*%
X133000000Y-66500000D03*
%TD*%
D10*
%TO.P,J1,1,In*%
%TO.N,Net-(J1-In)*%
X107000000Y-75000000D03*
D16*
%TO.P,J1,2,Ext*%
%TO.N,GND*%
X104450000Y-72450000D03*
X104450000Y-77550000D03*
X109550000Y-72450000D03*
X109550000Y-77550000D03*
%TD*%
D11*
%TO.P,L2,1,1*%
%TO.N,Net-(C2-Pad2)*%
X129100000Y-61575010D03*
%TO.P,L2,2,2*%
%TO.N,GND*%
X126900000Y-66575010D03*
%TD*%
D17*
%TO.N,GND*%
X122000000Y-99000000D03*
X142000000Y-99000000D03*
X149000000Y-87000000D03*
X147000000Y-51000000D03*
X101000000Y-87000000D03*
X149000000Y-77000000D03*
X101000000Y-72000000D03*
X122000000Y-51000000D03*
X112000000Y-99000000D03*
X142000000Y-51000000D03*
X127000000Y-51000000D03*
X149000000Y-67000000D03*
X149000000Y-97000000D03*
X149000000Y-52000000D03*
X149000000Y-82000000D03*
X101000000Y-57000000D03*
X101000000Y-52000000D03*
X107000000Y-99000000D03*
X132000000Y-51000000D03*
X117000000Y-51000000D03*
X127000000Y-99000000D03*
X102000000Y-51000000D03*
X149000000Y-72000000D03*
X137000000Y-99000000D03*
X101000000Y-62000000D03*
X101000000Y-67000000D03*
X112000000Y-51000000D03*
X107000000Y-51000000D03*
X149000000Y-62000000D03*
X149000000Y-57000000D03*
X137000000Y-51000000D03*
X101000000Y-82000000D03*
X149000000Y-92000000D03*
X132000000Y-99000000D03*
X101000000Y-97000000D03*
X102000000Y-99000000D03*
X147000000Y-99000000D03*
X101000000Y-92000000D03*
X101000000Y-77000000D03*
X117000000Y-99000000D03*
%TD*%
%TA.AperFunction,Conductor*%
%TO.N,GND*%
G36*
X106856420Y-96502867D02*
G01*
X106794601Y-96461561D01*
X106721680Y-96447056D01*
X106672432Y-96447056D01*
X106599511Y-96461561D01*
X106516816Y-96516816D01*
X106461561Y-96599511D01*
X106442158Y-96697056D01*
X106461561Y-96794601D01*
X106502867Y-96856420D01*
X105944180Y-96297733D01*
X106134870Y-96134870D01*
X106297733Y-95944180D01*
X106856420Y-96502867D01*
G37*
%TD.AperFunction*%
%TA.AperFunction,Conductor*%
G36*
X103865130Y-96134870D02*
G01*
X104055819Y-96297733D01*
X103497135Y-96856416D01*
X103538439Y-96794601D01*
X103557842Y-96697056D01*
X103538439Y-96599511D01*
X103483184Y-96516816D01*
X103400489Y-96461561D01*
X103327568Y-96447056D01*
X103278320Y-96447056D01*
X103205399Y-96461561D01*
X103143573Y-96502871D01*
X103702265Y-95944179D01*
X103865130Y-96134870D01*
G37*
%TD.AperFunction*%
%TA.AperFunction,Conductor*%
G36*
X104055819Y-93702266D02*
G01*
X103865130Y-93865130D01*
X103702266Y-94055819D01*
X103143579Y-93497132D01*
X103205399Y-93538439D01*
X103278320Y-93552944D01*
X103327568Y-93552944D01*
X103400489Y-93538439D01*
X103483184Y-93483184D01*
X103538439Y-93400489D01*
X103557842Y-93302944D01*
X103538439Y-93205399D01*
X103497132Y-93143579D01*
X104055819Y-93702266D01*
G37*
%TD.AperFunction*%
%TA.AperFunction,Conductor*%
G36*
X106461561Y-93205399D02*
G01*
X106442158Y-93302944D01*
X106461561Y-93400489D01*
X106516816Y-93483184D01*
X106599511Y-93538439D01*
X106672432Y-93552944D01*
X106721680Y-93552944D01*
X106794601Y-93538439D01*
X106856415Y-93497135D01*
X106297732Y-94055818D01*
X106134870Y-93865130D01*
X105944179Y-93702265D01*
X106502871Y-93143573D01*
X106461561Y-93205399D01*
G37*
%TD.AperFunction*%
%TA.AperFunction,Conductor*%
G36*
X146856420Y-96502867D02*
G01*
X146794601Y-96461561D01*
X146721680Y-96447056D01*
X146672432Y-96447056D01*
X146599511Y-96461561D01*
X146516816Y-96516816D01*
X146461561Y-96599511D01*
X146442158Y-96697056D01*
X146461561Y-96794601D01*
X146502867Y-96856420D01*
X145944180Y-96297733D01*
X146134870Y-96134870D01*
X146297733Y-95944180D01*
X146856420Y-96502867D01*
G37*
%TD.AperFunction*%
%TA.AperFunction,Conductor*%
G36*
X143865130Y-96134870D02*
G01*
X144055819Y-96297733D01*
X143497135Y-96856416D01*
X143538439Y-96794601D01*
X143557842Y-96697056D01*
X143538439Y-96599511D01*
X143483184Y-96516816D01*
X143400489Y-96461561D01*
X143327568Y-96447056D01*
X143278320Y-96447056D01*
X143205399Y-96461561D01*
X143143573Y-96502871D01*
X143702265Y-95944179D01*
X143865130Y-96134870D01*
G37*
%TD.AperFunction*%
%TA.AperFunction,Conductor*%
G36*
X144055819Y-93702266D02*
G01*
X143865130Y-93865130D01*
X143702266Y-94055819D01*
X143143579Y-93497132D01*
X143205399Y-93538439D01*
X143278320Y-93552944D01*
X143327568Y-93552944D01*
X143400489Y-93538439D01*
X143483184Y-93483184D01*
X143538439Y-93400489D01*
X143557842Y-93302944D01*
X143538439Y-93205399D01*
X143497132Y-93143579D01*
X144055819Y-93702266D01*
G37*
%TD.AperFunction*%
%TA.AperFunction,Conductor*%
G36*
X146461561Y-93205399D02*
G01*
X146442158Y-93302944D01*
X146461561Y-93400489D01*
X146516816Y-93483184D01*
X146599511Y-93538439D01*
X146672432Y-93552944D01*
X146721680Y-93552944D01*
X146794601Y-93538439D01*
X146856415Y-93497135D01*
X146297732Y-94055818D01*
X146134870Y-93865130D01*
X145944179Y-93702265D01*
X146502871Y-93143573D01*
X146461561Y-93205399D01*
G37*
%TD.AperFunction*%
%TA.AperFunction,Conductor*%
G36*
X106856420Y-56502867D02*
G01*
X106794601Y-56461561D01*
X106721680Y-56447056D01*
X106672432Y-56447056D01*
X106599511Y-56461561D01*
X106516816Y-56516816D01*
X106461561Y-56599511D01*
X106442158Y-56697056D01*
X106461561Y-56794601D01*
X106502867Y-56856420D01*
X105944180Y-56297733D01*
X106134870Y-56134870D01*
X106297733Y-55944180D01*
X106856420Y-56502867D01*
G37*
%TD.AperFunction*%
%TA.AperFunction,Conductor*%
G36*
X103865130Y-56134870D02*
G01*
X104055819Y-56297733D01*
X103497135Y-56856416D01*
X103538439Y-56794601D01*
X103557842Y-56697056D01*
X103538439Y-56599511D01*
X103483184Y-56516816D01*
X103400489Y-56461561D01*
X103327568Y-56447056D01*
X103278320Y-56447056D01*
X103205399Y-56461561D01*
X103143573Y-56502871D01*
X103702265Y-55944179D01*
X103865130Y-56134870D01*
G37*
%TD.AperFunction*%
%TA.AperFunction,Conductor*%
G36*
X104055819Y-53702266D02*
G01*
X103865130Y-53865130D01*
X103702266Y-54055819D01*
X103143579Y-53497132D01*
X103205399Y-53538439D01*
X103278320Y-53552944D01*
X103327568Y-53552944D01*
X103400489Y-53538439D01*
X103483184Y-53483184D01*
X103538439Y-53400489D01*
X103557842Y-53302944D01*
X103538439Y-53205399D01*
X103497132Y-53143579D01*
X104055819Y-53702266D01*
G37*
%TD.AperFunction*%
%TA.AperFunction,Conductor*%
G36*
X106461561Y-53205399D02*
G01*
X106442158Y-53302944D01*
X106461561Y-53400489D01*
X106516816Y-53483184D01*
X106599511Y-53538439D01*
X106672432Y-53552944D01*
X106721680Y-53552944D01*
X106794601Y-53538439D01*
X106856415Y-53497135D01*
X106297732Y-54055818D01*
X106134870Y-53865130D01*
X105944179Y-53702265D01*
X106502871Y-53143573D01*
X106461561Y-53205399D01*
G37*
%TD.AperFunction*%
%TA.AperFunction,Conductor*%
G36*
X146856420Y-56502867D02*
G01*
X146794601Y-56461561D01*
X146721680Y-56447056D01*
X146672432Y-56447056D01*
X146599511Y-56461561D01*
X146516816Y-56516816D01*
X146461561Y-56599511D01*
X146442158Y-56697056D01*
X146461561Y-56794601D01*
X146502867Y-56856420D01*
X145944180Y-56297733D01*
X146134870Y-56134870D01*
X146297733Y-55944180D01*
X146856420Y-56502867D01*
G37*
%TD.AperFunction*%
%TA.AperFunction,Conductor*%
G36*
X143865130Y-56134870D02*
G01*
X144055819Y-56297733D01*
X143497135Y-56856416D01*
X143538439Y-56794601D01*
X143557842Y-56697056D01*
X143538439Y-56599511D01*
X143483184Y-56516816D01*
X143400489Y-56461561D01*
X143327568Y-56447056D01*
X143278320Y-56447056D01*
X143205399Y-56461561D01*
X143143573Y-56502871D01*
X143702265Y-55944179D01*
X143865130Y-56134870D01*
G37*
%TD.AperFunction*%
%TA.AperFunction,Conductor*%
G36*
X144055819Y-53702266D02*
G01*
X143865130Y-53865130D01*
X143702266Y-54055819D01*
X143143579Y-53497132D01*
X143205399Y-53538439D01*
X143278320Y-53552944D01*
X143327568Y-53552944D01*
X143400489Y-53538439D01*
X143483184Y-53483184D01*
X143538439Y-53400489D01*
X143557842Y-53302944D01*
X143538439Y-53205399D01*
X143497132Y-53143579D01*
X144055819Y-53702266D01*
G37*
%TD.AperFunction*%
%TA.AperFunction,Conductor*%
G36*
X146461561Y-53205399D02*
G01*
X146442158Y-53302944D01*
X146461561Y-53400489D01*
X146516816Y-53483184D01*
X146599511Y-53538439D01*
X146672432Y-53552944D01*
X146721680Y-53552944D01*
X146794601Y-53538439D01*
X146856415Y-53497135D01*
X146297732Y-54055818D01*
X146134870Y-53865130D01*
X145944179Y-53702265D01*
X146502871Y-53143573D01*
X146461561Y-53205399D01*
G37*
%TD.AperFunction*%
%TA.AperFunction,Conductor*%
G36*
X124666055Y-50000948D02*
G01*
X124887981Y-50001067D01*
X124888183Y-50001067D01*
X124888222Y-50001081D01*
X124888223Y-50001068D01*
X136272024Y-50013226D01*
X148177832Y-50025943D01*
X148185686Y-50026370D01*
X148430663Y-50052841D01*
X148443547Y-50055409D01*
X148681984Y-50125420D01*
X148686985Y-50127085D01*
X148694671Y-50129952D01*
X148699540Y-50131968D01*
X148951239Y-50246914D01*
X148960503Y-50251973D01*
X149191047Y-50400134D01*
X149199500Y-50406462D01*
X149406610Y-50585924D01*
X149414075Y-50593389D01*
X149593537Y-50800499D01*
X149599865Y-50808952D01*
X149748026Y-51039496D01*
X149753086Y-51048762D01*
X149868031Y-51300457D01*
X149870052Y-51305337D01*
X149874513Y-51317297D01*
X149876181Y-51322310D01*
X149943606Y-51551939D01*
X149946180Y-51564880D01*
X149971523Y-51800717D01*
X149971947Y-51808632D01*
X149966958Y-98226211D01*
X149966534Y-98234117D01*
X149954616Y-98344913D01*
X149950332Y-98384755D01*
X149943675Y-98446643D01*
X149941102Y-98459577D01*
X149880306Y-98666630D01*
X149878637Y-98671643D01*
X149870048Y-98694670D01*
X149868027Y-98699550D01*
X149753086Y-98951237D01*
X149748026Y-98960503D01*
X149599865Y-99191047D01*
X149593537Y-99199500D01*
X149414075Y-99406610D01*
X149406610Y-99414075D01*
X149199500Y-99593537D01*
X149191047Y-99599865D01*
X148960503Y-99748026D01*
X148951237Y-99753086D01*
X148699542Y-99868031D01*
X148694661Y-99870052D01*
X148673641Y-99877892D01*
X148668648Y-99879554D01*
X148457480Y-99941558D01*
X148444571Y-99944128D01*
X148227805Y-99967505D01*
X148219920Y-99967932D01*
X102116357Y-99998592D01*
X102113691Y-99998546D01*
X101852439Y-99989302D01*
X101844525Y-99988595D01*
X101587590Y-99951653D01*
X101582391Y-99950715D01*
X101580668Y-99950340D01*
X101578542Y-99949877D01*
X101573430Y-99948572D01*
X101307930Y-99870614D01*
X101298038Y-99866925D01*
X101048763Y-99753086D01*
X101039496Y-99748026D01*
X100808952Y-99599865D01*
X100800499Y-99593537D01*
X100593389Y-99414075D01*
X100585924Y-99406610D01*
X100406462Y-99199500D01*
X100400134Y-99191047D01*
X100251973Y-98960503D01*
X100246913Y-98951236D01*
X100133074Y-98701961D01*
X100129385Y-98692069D01*
X100052175Y-98429116D01*
X100049930Y-98418799D01*
X100045035Y-98384755D01*
X100010742Y-98146234D01*
X100010037Y-98138350D01*
X100005005Y-97997469D01*
X100000547Y-97872635D01*
X100000500Y-97869994D01*
X100000500Y-95000000D01*
X101294922Y-95000000D01*
X101315219Y-95387289D01*
X101315219Y-95387290D01*
X101375885Y-95770322D01*
X101476262Y-96144934D01*
X101615244Y-96506992D01*
X101791307Y-96852537D01*
X102002530Y-97177791D01*
X102211096Y-97435349D01*
X103108759Y-96537685D01*
X103067449Y-96599511D01*
X103048046Y-96697056D01*
X103067449Y-96794601D01*
X103122704Y-96877296D01*
X103205399Y-96932551D01*
X103278320Y-96947056D01*
X103327568Y-96947056D01*
X103400489Y-96932551D01*
X103462304Y-96891247D01*
X102564649Y-97788902D01*
X102564649Y-97788903D01*
X102822208Y-97997469D01*
X103147462Y-98208692D01*
X103493007Y-98384755D01*
X103855065Y-98523737D01*
X104229677Y-98624114D01*
X104612709Y-98684780D01*
X105000000Y-98705077D01*
X105387289Y-98684780D01*
X105387290Y-98684780D01*
X105770322Y-98624114D01*
X106144934Y-98523737D01*
X106506992Y-98384755D01*
X106852537Y-98208692D01*
X107177791Y-97997469D01*
X107435349Y-97788903D01*
X107435349Y-97788902D01*
X106537691Y-96891244D01*
X106599511Y-96932551D01*
X106672432Y-96947056D01*
X106721680Y-96947056D01*
X106794601Y-96932551D01*
X106877296Y-96877296D01*
X106932551Y-96794601D01*
X106951954Y-96697056D01*
X106932551Y-96599511D01*
X106891244Y-96537691D01*
X107788902Y-97435349D01*
X107788903Y-97435349D01*
X107997469Y-97177791D01*
X108208692Y-96852537D01*
X108384755Y-96506992D01*
X108523737Y-96144934D01*
X108624114Y-95770322D01*
X108684780Y-95387290D01*
X108684780Y-95387289D01*
X108705077Y-95000000D01*
X108684780Y-94612710D01*
X108684780Y-94612709D01*
X108666929Y-94500000D01*
X121494659Y-94500000D01*
X121513976Y-94696133D01*
X121571187Y-94884731D01*
X121658776Y-95048597D01*
X121664090Y-95058538D01*
X121789117Y-95210883D01*
X121941462Y-95335910D01*
X121974470Y-95353553D01*
X122115268Y-95428812D01*
X122115270Y-95428812D01*
X122115273Y-95428814D01*
X122303868Y-95486024D01*
X122500000Y-95505341D01*
X122696132Y-95486024D01*
X122884727Y-95428814D01*
X123058538Y-95335910D01*
X123210883Y-95210883D01*
X123335910Y-95058538D01*
X123428814Y-94884727D01*
X123486024Y-94696132D01*
X123505341Y-94500000D01*
X126494659Y-94500000D01*
X126513976Y-94696133D01*
X126571187Y-94884731D01*
X126658776Y-95048597D01*
X126664090Y-95058538D01*
X126789117Y-95210883D01*
X126941462Y-95335910D01*
X126974470Y-95353553D01*
X127115268Y-95428812D01*
X127115270Y-95428812D01*
X127115273Y-95428814D01*
X127303868Y-95486024D01*
X127500000Y-95505341D01*
X127696132Y-95486024D01*
X127884727Y-95428814D01*
X128058538Y-95335910D01*
X128210883Y-95210883D01*
X128335910Y-95058538D01*
X128367199Y-95000000D01*
X141294922Y-95000000D01*
X141315219Y-95387289D01*
X141315219Y-95387290D01*
X141375885Y-95770322D01*
X141476262Y-96144934D01*
X141615244Y-96506992D01*
X141791307Y-96852537D01*
X142002530Y-97177791D01*
X142211096Y-97435349D01*
X143108759Y-96537685D01*
X143067449Y-96599511D01*
X143048046Y-96697056D01*
X143067449Y-96794601D01*
X143122704Y-96877296D01*
X143205399Y-96932551D01*
X143278320Y-96947056D01*
X143327568Y-96947056D01*
X143400489Y-96932551D01*
X143462304Y-96891247D01*
X142564649Y-97788902D01*
X142564649Y-97788903D01*
X142822208Y-97997469D01*
X143147462Y-98208692D01*
X143493007Y-98384755D01*
X143855065Y-98523737D01*
X144229677Y-98624114D01*
X144612709Y-98684780D01*
X145000000Y-98705077D01*
X145387289Y-98684780D01*
X145387290Y-98684780D01*
X145770322Y-98624114D01*
X146144934Y-98523737D01*
X146506992Y-98384755D01*
X146852537Y-98208692D01*
X147177791Y-97997469D01*
X147435349Y-97788903D01*
X147435349Y-97788902D01*
X146537691Y-96891244D01*
X146599511Y-96932551D01*
X146672432Y-96947056D01*
X146721680Y-96947056D01*
X146794601Y-96932551D01*
X146877296Y-96877296D01*
X146932551Y-96794601D01*
X146951954Y-96697056D01*
X146932551Y-96599511D01*
X146891244Y-96537691D01*
X147788902Y-97435349D01*
X147788903Y-97435349D01*
X147997469Y-97177791D01*
X148208692Y-96852537D01*
X148384755Y-96506992D01*
X148523737Y-96144934D01*
X148624114Y-95770322D01*
X148684780Y-95387290D01*
X148684780Y-95387289D01*
X148705077Y-95000000D01*
X148684780Y-94612710D01*
X148684780Y-94612709D01*
X148624114Y-94229677D01*
X148523737Y-93855065D01*
X148384755Y-93493007D01*
X148208692Y-93147462D01*
X147997469Y-92822208D01*
X147788902Y-92564649D01*
X146891247Y-93462303D01*
X146932551Y-93400489D01*
X146951954Y-93302944D01*
X146932551Y-93205399D01*
X146877296Y-93122704D01*
X146794601Y-93067449D01*
X146721680Y-93052944D01*
X146672432Y-93052944D01*
X146599511Y-93067449D01*
X146537685Y-93108759D01*
X147435349Y-92211096D01*
X147435349Y-92211095D01*
X147177791Y-92002530D01*
X146852537Y-91791307D01*
X146506992Y-91615244D01*
X146144934Y-91476262D01*
X145770322Y-91375885D01*
X145387290Y-91315219D01*
X145000000Y-91294922D01*
X144612710Y-91315219D01*
X144612709Y-91315219D01*
X144229677Y-91375885D01*
X143855065Y-91476262D01*
X143493007Y-91615244D01*
X143147462Y-91791307D01*
X142822205Y-92002532D01*
X142822202Y-92002535D01*
X142564649Y-92211095D01*
X142564649Y-92211096D01*
X143462308Y-93108755D01*
X143400489Y-93067449D01*
X143327568Y-93052944D01*
X143278320Y-93052944D01*
X143205399Y-93067449D01*
X143122704Y-93122704D01*
X143067449Y-93205399D01*
X143048046Y-93302944D01*
X143067449Y-93400489D01*
X143108755Y-93462308D01*
X142211096Y-92564649D01*
X142211095Y-92564649D01*
X142002535Y-92822202D01*
X142002532Y-92822205D01*
X141791307Y-93147462D01*
X141615244Y-93493007D01*
X141476262Y-93855065D01*
X141375885Y-94229677D01*
X141315219Y-94612709D01*
X141315219Y-94612710D01*
X141294922Y-95000000D01*
X128367199Y-95000000D01*
X128428814Y-94884727D01*
X128486024Y-94696132D01*
X128505341Y-94500000D01*
X128486024Y-94303868D01*
X128428814Y-94115273D01*
X128428812Y-94115270D01*
X128428812Y-94115268D01*
X128377048Y-94018426D01*
X128335910Y-93941462D01*
X128210883Y-93789117D01*
X128058538Y-93664090D01*
X128048597Y-93658776D01*
X127884731Y-93571187D01*
X127696133Y-93513976D01*
X127500000Y-93494659D01*
X127303866Y-93513976D01*
X127115268Y-93571187D01*
X126941463Y-93664089D01*
X126789117Y-93789117D01*
X126664089Y-93941463D01*
X126571187Y-94115268D01*
X126513976Y-94303866D01*
X126494659Y-94500000D01*
X123505341Y-94500000D01*
X123486024Y-94303868D01*
X123428814Y-94115273D01*
X123428812Y-94115270D01*
X123428812Y-94115268D01*
X123377048Y-94018426D01*
X123335910Y-93941462D01*
X123210883Y-93789117D01*
X123058538Y-93664090D01*
X123048597Y-93658776D01*
X122884731Y-93571187D01*
X122696133Y-93513976D01*
X122500000Y-93494659D01*
X122303866Y-93513976D01*
X122115268Y-93571187D01*
X121941463Y-93664089D01*
X121789117Y-93789117D01*
X121664089Y-93941463D01*
X121571187Y-94115268D01*
X121513976Y-94303866D01*
X121494659Y-94500000D01*
X108666929Y-94500000D01*
X108624114Y-94229677D01*
X108523737Y-93855065D01*
X108384755Y-93493007D01*
X108208692Y-93147462D01*
X107997469Y-92822208D01*
X107788902Y-92564649D01*
X106891247Y-93462303D01*
X106932551Y-93400489D01*
X106951954Y-93302944D01*
X106932551Y-93205399D01*
X106877296Y-93122704D01*
X106794601Y-93067449D01*
X106721680Y-93052944D01*
X106672432Y-93052944D01*
X106599511Y-93067449D01*
X106537685Y-93108759D01*
X107435349Y-92211096D01*
X107435349Y-92211095D01*
X107177791Y-92002530D01*
X106852537Y-91791307D01*
X106506992Y-91615244D01*
X106144934Y-91476262D01*
X105770322Y-91375885D01*
X105387290Y-91315219D01*
X105000000Y-91294922D01*
X104612710Y-91315219D01*
X104612709Y-91315219D01*
X104229677Y-91375885D01*
X103855065Y-91476262D01*
X103493007Y-91615244D01*
X103147462Y-91791307D01*
X102822205Y-92002532D01*
X102822202Y-92002535D01*
X102564649Y-92211095D01*
X102564649Y-92211096D01*
X103462308Y-93108755D01*
X103400489Y-93067449D01*
X103327568Y-93052944D01*
X103278320Y-93052944D01*
X103205399Y-93067449D01*
X103122704Y-93122704D01*
X103067449Y-93205399D01*
X103048046Y-93302944D01*
X103067449Y-93400489D01*
X103108755Y-93462308D01*
X102211096Y-92564649D01*
X102211095Y-92564649D01*
X102002535Y-92822202D01*
X102002532Y-92822205D01*
X101791307Y-93147462D01*
X101615244Y-93493007D01*
X101476262Y-93855065D01*
X101375885Y-94229677D01*
X101315219Y-94612709D01*
X101315219Y-94612710D01*
X101294922Y-95000000D01*
X100000500Y-95000000D01*
X100000500Y-88500000D01*
X103994659Y-88500000D01*
X104013976Y-88696133D01*
X104071187Y-88884731D01*
X104123995Y-88983526D01*
X104164090Y-89058538D01*
X104289117Y-89210883D01*
X104441462Y-89335910D01*
X104518426Y-89377048D01*
X104615268Y-89428812D01*
X104615270Y-89428812D01*
X104615273Y-89428814D01*
X104803868Y-89486024D01*
X105000000Y-89505341D01*
X105196132Y-89486024D01*
X105384727Y-89428814D01*
X105558538Y-89335910D01*
X105710883Y-89210883D01*
X105835910Y-89058538D01*
X105928814Y-88884727D01*
X105986024Y-88696132D01*
X106005341Y-88500003D01*
X109544529Y-88500003D01*
X109564378Y-88739556D01*
X109564378Y-88739557D01*
X109623392Y-88972597D01*
X109695012Y-89135873D01*
X109719951Y-89192728D01*
X109851429Y-89393969D01*
X110014236Y-89570825D01*
X110203933Y-89718472D01*
X110415344Y-89832882D01*
X110642703Y-89910934D01*
X110879808Y-89950500D01*
X111120192Y-89950500D01*
X111357297Y-89910934D01*
X111584656Y-89832882D01*
X111796067Y-89718472D01*
X111985764Y-89570825D01*
X112148571Y-89393969D01*
X112280049Y-89192728D01*
X112376610Y-88972591D01*
X112435620Y-88739563D01*
X112435620Y-88739559D01*
X112435621Y-88739557D01*
X112435621Y-88739556D01*
X112455471Y-88500003D01*
X112455471Y-88500000D01*
X115994659Y-88500000D01*
X116013976Y-88696133D01*
X116071187Y-88884731D01*
X116123995Y-88983526D01*
X116164090Y-89058538D01*
X116289117Y-89210883D01*
X116441462Y-89335910D01*
X116518426Y-89377048D01*
X116615268Y-89428812D01*
X116615270Y-89428812D01*
X116615273Y-89428814D01*
X116803868Y-89486024D01*
X117000000Y-89505341D01*
X117196132Y-89486024D01*
X117384727Y-89428814D01*
X117558538Y-89335910D01*
X117710883Y-89210883D01*
X117835910Y-89058538D01*
X117928814Y-88884727D01*
X117986024Y-88696132D01*
X118005341Y-88500000D01*
X117997953Y-88424990D01*
X119894659Y-88424990D01*
X119913976Y-88621123D01*
X119971187Y-88809721D01*
X120058244Y-88972591D01*
X120064090Y-88983528D01*
X120189117Y-89135873D01*
X120341462Y-89260900D01*
X120418426Y-89302038D01*
X120515268Y-89353802D01*
X120515270Y-89353802D01*
X120515273Y-89353804D01*
X120703868Y-89411014D01*
X120900000Y-89430331D01*
X121096132Y-89411014D01*
X121284727Y-89353804D01*
X121458538Y-89260900D01*
X121610883Y-89135873D01*
X121735910Y-88983528D01*
X121828814Y-88809717D01*
X121886024Y-88621122D01*
X121905341Y-88424990D01*
X125894659Y-88424990D01*
X125913976Y-88621123D01*
X125971187Y-88809721D01*
X126058244Y-88972591D01*
X126064090Y-88983528D01*
X126189117Y-89135873D01*
X126341462Y-89260900D01*
X126418426Y-89302038D01*
X126515268Y-89353802D01*
X126515270Y-89353802D01*
X126515273Y-89353804D01*
X126703868Y-89411014D01*
X126900000Y-89430331D01*
X127096132Y-89411014D01*
X127284727Y-89353804D01*
X127458538Y-89260900D01*
X127610883Y-89135873D01*
X127735910Y-88983528D01*
X127828814Y-88809717D01*
X127886024Y-88621122D01*
X127897953Y-88500000D01*
X131994659Y-88500000D01*
X132013976Y-88696133D01*
X132071187Y-88884731D01*
X132123995Y-88983526D01*
X132164090Y-89058538D01*
X132289117Y-89210883D01*
X132441462Y-89335910D01*
X132518426Y-89377048D01*
X132615268Y-89428812D01*
X132615270Y-89428812D01*
X132615273Y-89428814D01*
X132803868Y-89486024D01*
X133000000Y-89505341D01*
X133196132Y-89486024D01*
X133384727Y-89428814D01*
X133558538Y-89335910D01*
X133710883Y-89210883D01*
X133835910Y-89058538D01*
X133928814Y-88884727D01*
X133986024Y-88696132D01*
X134005341Y-88500003D01*
X137544529Y-88500003D01*
X137564378Y-88739556D01*
X137564378Y-88739557D01*
X137623392Y-88972597D01*
X137695012Y-89135873D01*
X137719951Y-89192728D01*
X137851429Y-89393969D01*
X138014236Y-89570825D01*
X138203933Y-89718472D01*
X138415344Y-89832882D01*
X138642703Y-89910934D01*
X138879808Y-89950500D01*
X139120192Y-89950500D01*
X139357297Y-89910934D01*
X139584656Y-89832882D01*
X139796067Y-89718472D01*
X139985764Y-89570825D01*
X140148571Y-89393969D01*
X140280049Y-89192728D01*
X140376610Y-88972591D01*
X140435620Y-88739563D01*
X140435620Y-88739559D01*
X140435621Y-88739557D01*
X140435621Y-88739556D01*
X140455471Y-88500003D01*
X140455471Y-88500000D01*
X143994659Y-88500000D01*
X144013976Y-88696133D01*
X144071187Y-88884731D01*
X144123995Y-88983526D01*
X144164090Y-89058538D01*
X144289117Y-89210883D01*
X144441462Y-89335910D01*
X144518426Y-89377048D01*
X144615268Y-89428812D01*
X144615270Y-89428812D01*
X144615273Y-89428814D01*
X144803868Y-89486024D01*
X145000000Y-89505341D01*
X145196132Y-89486024D01*
X145384727Y-89428814D01*
X145558538Y-89335910D01*
X145710883Y-89210883D01*
X145835910Y-89058538D01*
X145928814Y-88884727D01*
X145986024Y-88696132D01*
X146005341Y-88500000D01*
X145986024Y-88303868D01*
X145928814Y-88115273D01*
X145928812Y-88115270D01*
X145928812Y-88115268D01*
X145877048Y-88018426D01*
X145835910Y-87941462D01*
X145710883Y-87789117D01*
X145558538Y-87664090D01*
X145548597Y-87658776D01*
X145384731Y-87571187D01*
X145196133Y-87513976D01*
X145000000Y-87494659D01*
X144803866Y-87513976D01*
X144615268Y-87571187D01*
X144441463Y-87664089D01*
X144289117Y-87789117D01*
X144164089Y-87941463D01*
X144071187Y-88115268D01*
X144013976Y-88303866D01*
X143994659Y-88500000D01*
X140455471Y-88500000D01*
X140455471Y-88499996D01*
X140435621Y-88260443D01*
X140435621Y-88260442D01*
X140427623Y-88228858D01*
X140376610Y-88027409D01*
X140280049Y-87807272D01*
X140148571Y-87606031D01*
X139985764Y-87429175D01*
X139796067Y-87281528D01*
X139707715Y-87233714D01*
X139584655Y-87167117D01*
X139357295Y-87089065D01*
X139120194Y-87049500D01*
X139120192Y-87049500D01*
X138879808Y-87049500D01*
X138879805Y-87049500D01*
X138642704Y-87089065D01*
X138415344Y-87167117D01*
X138203940Y-87281524D01*
X138203928Y-87281531D01*
X138014234Y-87429176D01*
X137851427Y-87606033D01*
X137719951Y-87807271D01*
X137623392Y-88027402D01*
X137564378Y-88260442D01*
X137564378Y-88260443D01*
X137544529Y-88499996D01*
X137544529Y-88500003D01*
X134005341Y-88500003D01*
X134005341Y-88500000D01*
X133986024Y-88303868D01*
X133928814Y-88115273D01*
X133928812Y-88115270D01*
X133928812Y-88115268D01*
X133877048Y-88018426D01*
X133835910Y-87941462D01*
X133710883Y-87789117D01*
X133558538Y-87664090D01*
X133548597Y-87658776D01*
X133384731Y-87571187D01*
X133196133Y-87513976D01*
X133000000Y-87494659D01*
X132803866Y-87513976D01*
X132615268Y-87571187D01*
X132441463Y-87664089D01*
X132289117Y-87789117D01*
X132164089Y-87941463D01*
X132071187Y-88115268D01*
X132013976Y-88303866D01*
X131994659Y-88500000D01*
X127897953Y-88500000D01*
X127905341Y-88424990D01*
X127886024Y-88228858D01*
X127828814Y-88040263D01*
X127828812Y-88040260D01*
X127828812Y-88040258D01*
X127776004Y-87941462D01*
X127735910Y-87866452D01*
X127610883Y-87714107D01*
X127458538Y-87589080D01*
X127425061Y-87571186D01*
X127284731Y-87496177D01*
X127096133Y-87438966D01*
X126900000Y-87419649D01*
X126703866Y-87438966D01*
X126515268Y-87496177D01*
X126341463Y-87589079D01*
X126189117Y-87714107D01*
X126064089Y-87866453D01*
X125971187Y-88040258D01*
X125913976Y-88228856D01*
X125894659Y-88424990D01*
X121905341Y-88424990D01*
X121886024Y-88228858D01*
X121828814Y-88040263D01*
X121828812Y-88040260D01*
X121828812Y-88040258D01*
X121776004Y-87941462D01*
X121735910Y-87866452D01*
X121610883Y-87714107D01*
X121458538Y-87589080D01*
X121425061Y-87571186D01*
X121284731Y-87496177D01*
X121096133Y-87438966D01*
X120900000Y-87419649D01*
X120703866Y-87438966D01*
X120515268Y-87496177D01*
X120341463Y-87589079D01*
X120189117Y-87714107D01*
X120064089Y-87866453D01*
X119971187Y-88040258D01*
X119913976Y-88228856D01*
X119894659Y-88424990D01*
X117997953Y-88424990D01*
X117986024Y-88303868D01*
X117928814Y-88115273D01*
X117928812Y-88115270D01*
X117928812Y-88115268D01*
X117877048Y-88018426D01*
X117835910Y-87941462D01*
X117710883Y-87789117D01*
X117558538Y-87664090D01*
X117548597Y-87658776D01*
X117384731Y-87571187D01*
X117196133Y-87513976D01*
X117000000Y-87494659D01*
X116803866Y-87513976D01*
X116615268Y-87571187D01*
X116441463Y-87664089D01*
X116289117Y-87789117D01*
X116164089Y-87941463D01*
X116071187Y-88115268D01*
X116013976Y-88303866D01*
X115994659Y-88500000D01*
X112455471Y-88500000D01*
X112455471Y-88499996D01*
X112435621Y-88260443D01*
X112435621Y-88260442D01*
X112427623Y-88228858D01*
X112376610Y-88027409D01*
X112280049Y-87807272D01*
X112148571Y-87606031D01*
X111985764Y-87429175D01*
X111796067Y-87281528D01*
X111707715Y-87233714D01*
X111584655Y-87167117D01*
X111357295Y-87089065D01*
X111120194Y-87049500D01*
X111120192Y-87049500D01*
X110879808Y-87049500D01*
X110879805Y-87049500D01*
X110642704Y-87089065D01*
X110415344Y-87167117D01*
X110203940Y-87281524D01*
X110203928Y-87281531D01*
X110014234Y-87429176D01*
X109851427Y-87606033D01*
X109719951Y-87807271D01*
X109623392Y-88027402D01*
X109564378Y-88260442D01*
X109564378Y-88260443D01*
X109544529Y-88499996D01*
X109544529Y-88500003D01*
X106005341Y-88500003D01*
X106005341Y-88500000D01*
X105986024Y-88303868D01*
X105928814Y-88115273D01*
X105928812Y-88115270D01*
X105928812Y-88115268D01*
X105877048Y-88018426D01*
X105835910Y-87941462D01*
X105710883Y-87789117D01*
X105558538Y-87664090D01*
X105548597Y-87658776D01*
X105384731Y-87571187D01*
X105196133Y-87513976D01*
X105000000Y-87494659D01*
X104803866Y-87513976D01*
X104615268Y-87571187D01*
X104441463Y-87664089D01*
X104289117Y-87789117D01*
X104164089Y-87941463D01*
X104071187Y-88115268D01*
X104013976Y-88303866D01*
X103994659Y-88500000D01*
X100000500Y-88500000D01*
X100000500Y-83500000D01*
X103994659Y-83500000D01*
X104013976Y-83696133D01*
X104071187Y-83884731D01*
X104104112Y-83946328D01*
X104164090Y-84058538D01*
X104289117Y-84210883D01*
X104441462Y-84335910D01*
X104518426Y-84377048D01*
X104615268Y-84428812D01*
X104615270Y-84428812D01*
X104615273Y-84428814D01*
X104803868Y-84486024D01*
X105000000Y-84505341D01*
X105196132Y-84486024D01*
X105384727Y-84428814D01*
X105558538Y-84335910D01*
X105710883Y-84210883D01*
X105835910Y-84058538D01*
X105928814Y-83884727D01*
X105986024Y-83696132D01*
X106005341Y-83500001D01*
X109245093Y-83500001D01*
X109264694Y-83761553D01*
X109323058Y-84017265D01*
X109418882Y-84261424D01*
X109550028Y-84488574D01*
X109597873Y-84548570D01*
X110397452Y-83748992D01*
X110407188Y-83778956D01*
X110495186Y-83917619D01*
X110614903Y-84030040D01*
X110749510Y-84104041D01*
X109950831Y-84902720D01*
X110122541Y-85019790D01*
X110358860Y-85133596D01*
X110358868Y-85133599D01*
X110609488Y-85210906D01*
X110868861Y-85250000D01*
X111131139Y-85250000D01*
X111390511Y-85210906D01*
X111641131Y-85133599D01*
X111641139Y-85133596D01*
X111877454Y-85019793D01*
X112049167Y-84902720D01*
X111247533Y-84101086D01*
X111315629Y-84074126D01*
X111448492Y-83977595D01*
X111553175Y-83851055D01*
X111601631Y-83748078D01*
X112402124Y-84548571D01*
X112402125Y-84548571D01*
X112449968Y-84488578D01*
X112581117Y-84261424D01*
X112676941Y-84017265D01*
X112735305Y-83761553D01*
X112754907Y-83500005D01*
X115695034Y-83500005D01*
X115714858Y-83726602D01*
X115714859Y-83726608D01*
X115773730Y-83946317D01*
X115773735Y-83946328D01*
X115869867Y-84152483D01*
X115920973Y-84225471D01*
X116602045Y-83544399D01*
X116614835Y-83625148D01*
X116672359Y-83738045D01*
X116761955Y-83827641D01*
X116874852Y-83885165D01*
X116955599Y-83897953D01*
X116274526Y-84579025D01*
X116347516Y-84630132D01*
X116553671Y-84726264D01*
X116553682Y-84726269D01*
X116773391Y-84785140D01*
X116773397Y-84785141D01*
X116999995Y-84804966D01*
X117000005Y-84804966D01*
X117226602Y-84785141D01*
X117226608Y-84785140D01*
X117446317Y-84726269D01*
X117446328Y-84726264D01*
X117652483Y-84630133D01*
X117725471Y-84579024D01*
X117044400Y-83897953D01*
X117125148Y-83885165D01*
X117238045Y-83827641D01*
X117327641Y-83738045D01*
X117385165Y-83625148D01*
X117397953Y-83544400D01*
X118079024Y-84225471D01*
X118130133Y-84152483D01*
X118226264Y-83946328D01*
X118226269Y-83946317D01*
X118285140Y-83726608D01*
X118285141Y-83726602D01*
X118304966Y-83500005D01*
X118304966Y-83499994D01*
X118298404Y-83424995D01*
X121795034Y-83424995D01*
X121814858Y-83651592D01*
X121814859Y-83651598D01*
X121873730Y-83871307D01*
X121873735Y-83871318D01*
X121969867Y-84077473D01*
X122020973Y-84150461D01*
X122702045Y-83469389D01*
X122714835Y-83550138D01*
X122772359Y-83663035D01*
X122861955Y-83752631D01*
X122974852Y-83810155D01*
X123055599Y-83822943D01*
X122374526Y-84504015D01*
X122447516Y-84555122D01*
X122653671Y-84651254D01*
X122653682Y-84651259D01*
X122873391Y-84710130D01*
X122873397Y-84710131D01*
X123099995Y-84729956D01*
X123100005Y-84729956D01*
X123326602Y-84710131D01*
X123326608Y-84710130D01*
X123546317Y-84651259D01*
X123546328Y-84651254D01*
X123752483Y-84555123D01*
X123825471Y-84504014D01*
X123144400Y-83822943D01*
X123225148Y-83810155D01*
X123338045Y-83752631D01*
X123427641Y-83663035D01*
X123485165Y-83550138D01*
X123497953Y-83469390D01*
X124179024Y-84150461D01*
X124230133Y-84077473D01*
X124326264Y-83871318D01*
X124326269Y-83871307D01*
X124385140Y-83651598D01*
X124385141Y-83651592D01*
X124404966Y-83424995D01*
X127795034Y-83424995D01*
X127814858Y-83651592D01*
X127814859Y-83651598D01*
X127873730Y-83871307D01*
X127873735Y-83871318D01*
X127969867Y-84077473D01*
X128020973Y-84150461D01*
X128702045Y-83469389D01*
X128714835Y-83550138D01*
X128772359Y-83663035D01*
X128861955Y-83752631D01*
X128974852Y-83810155D01*
X129055599Y-83822943D01*
X128374526Y-84504015D01*
X128447516Y-84555122D01*
X128653671Y-84651254D01*
X128653682Y-84651259D01*
X128873391Y-84710130D01*
X128873397Y-84710131D01*
X129099995Y-84729956D01*
X129100005Y-84729956D01*
X129326602Y-84710131D01*
X129326608Y-84710130D01*
X129546317Y-84651259D01*
X129546328Y-84651254D01*
X129752483Y-84555123D01*
X129825471Y-84504014D01*
X129144400Y-83822943D01*
X129225148Y-83810155D01*
X129338045Y-83752631D01*
X129427641Y-83663035D01*
X129485165Y-83550138D01*
X129497953Y-83469390D01*
X130179024Y-84150461D01*
X130230133Y-84077473D01*
X130326264Y-83871318D01*
X130326269Y-83871307D01*
X130385140Y-83651598D01*
X130385141Y-83651592D01*
X130398403Y-83500005D01*
X131695034Y-83500005D01*
X131714858Y-83726602D01*
X131714859Y-83726608D01*
X131773730Y-83946317D01*
X131773735Y-83946328D01*
X131869867Y-84152483D01*
X131920973Y-84225471D01*
X132602045Y-83544399D01*
X132614835Y-83625148D01*
X132672359Y-83738045D01*
X132761955Y-83827641D01*
X132874852Y-83885165D01*
X132955599Y-83897953D01*
X132274526Y-84579025D01*
X132347516Y-84630132D01*
X132553671Y-84726264D01*
X132553682Y-84726269D01*
X132773391Y-84785140D01*
X132773397Y-84785141D01*
X132999995Y-84804966D01*
X133000005Y-84804966D01*
X133226602Y-84785141D01*
X133226608Y-84785140D01*
X133446317Y-84726269D01*
X133446328Y-84726264D01*
X133652483Y-84630133D01*
X133725471Y-84579024D01*
X133044400Y-83897953D01*
X133125148Y-83885165D01*
X133238045Y-83827641D01*
X133327641Y-83738045D01*
X133385165Y-83625148D01*
X133397953Y-83544400D01*
X134079024Y-84225471D01*
X134130133Y-84152483D01*
X134226264Y-83946328D01*
X134226269Y-83946317D01*
X134285140Y-83726608D01*
X134285141Y-83726602D01*
X134304966Y-83500005D01*
X134304966Y-83500001D01*
X137245093Y-83500001D01*
X137264694Y-83761553D01*
X137323058Y-84017265D01*
X137418882Y-84261424D01*
X137550028Y-84488574D01*
X137597873Y-84548570D01*
X138397452Y-83748992D01*
X138407188Y-83778956D01*
X138495186Y-83917619D01*
X138614903Y-84030040D01*
X138749510Y-84104041D01*
X137950831Y-84902720D01*
X138122541Y-85019790D01*
X138358860Y-85133596D01*
X138358868Y-85133599D01*
X138609488Y-85210906D01*
X138868861Y-85250000D01*
X139131139Y-85250000D01*
X139390511Y-85210906D01*
X139641131Y-85133599D01*
X139641139Y-85133596D01*
X139877454Y-85019793D01*
X140049167Y-84902720D01*
X139247533Y-84101086D01*
X139315629Y-84074126D01*
X139448492Y-83977595D01*
X139553175Y-83851055D01*
X139601631Y-83748078D01*
X140402124Y-84548571D01*
X140402125Y-84548571D01*
X140449968Y-84488578D01*
X140581117Y-84261424D01*
X140676941Y-84017265D01*
X140735305Y-83761553D01*
X140754907Y-83500001D01*
X140754907Y-83500000D01*
X143994659Y-83500000D01*
X144013976Y-83696133D01*
X144071187Y-83884731D01*
X144104112Y-83946328D01*
X144164090Y-84058538D01*
X144289117Y-84210883D01*
X144441462Y-84335910D01*
X144518426Y-84377048D01*
X144615268Y-84428812D01*
X144615270Y-84428812D01*
X144615273Y-84428814D01*
X144803868Y-84486024D01*
X145000000Y-84505341D01*
X145196132Y-84486024D01*
X145384727Y-84428814D01*
X145558538Y-84335910D01*
X145710883Y-84210883D01*
X145835910Y-84058538D01*
X145928814Y-83884727D01*
X145986024Y-83696132D01*
X146005341Y-83500000D01*
X145986024Y-83303868D01*
X145928814Y-83115273D01*
X145928812Y-83115270D01*
X145928812Y-83115268D01*
X145855793Y-82978661D01*
X145835910Y-82941462D01*
X145710883Y-82789117D01*
X145558538Y-82664090D01*
X145548597Y-82658776D01*
X145384731Y-82571187D01*
X145196133Y-82513976D01*
X145000000Y-82494659D01*
X144803866Y-82513976D01*
X144615268Y-82571187D01*
X144441463Y-82664089D01*
X144289117Y-82789117D01*
X144164089Y-82941463D01*
X144071187Y-83115268D01*
X144013976Y-83303866D01*
X143994659Y-83500000D01*
X140754907Y-83500000D01*
X140754907Y-83499998D01*
X140735305Y-83238446D01*
X140676941Y-82982734D01*
X140581117Y-82738575D01*
X140449971Y-82511426D01*
X140402124Y-82451427D01*
X139602547Y-83251005D01*
X139592812Y-83221044D01*
X139504814Y-83082381D01*
X139385097Y-82969960D01*
X139250487Y-82895957D01*
X140049168Y-82097278D01*
X139877459Y-81980209D01*
X139641139Y-81866403D01*
X139641131Y-81866400D01*
X139390511Y-81789093D01*
X139131139Y-81750000D01*
X138868861Y-81750000D01*
X138609488Y-81789093D01*
X138358868Y-81866400D01*
X138358860Y-81866403D01*
X138122539Y-81980210D01*
X138122537Y-81980211D01*
X137950831Y-82097277D01*
X137950831Y-82097278D01*
X138752466Y-82898913D01*
X138684371Y-82925874D01*
X138551508Y-83022405D01*
X138446825Y-83148945D01*
X138398367Y-83251921D01*
X137597873Y-82451427D01*
X137597872Y-82451427D01*
X137550033Y-82511418D01*
X137550028Y-82511425D01*
X137418882Y-82738575D01*
X137323058Y-82982734D01*
X137264694Y-83238446D01*
X137245093Y-83499998D01*
X137245093Y-83500001D01*
X134304966Y-83500001D01*
X134304966Y-83499994D01*
X134285141Y-83273397D01*
X134285140Y-83273391D01*
X134226269Y-83053682D01*
X134226264Y-83053671D01*
X134130132Y-82847516D01*
X134079024Y-82774526D01*
X133397953Y-83455598D01*
X133385165Y-83374852D01*
X133327641Y-83261955D01*
X133238045Y-83172359D01*
X133125148Y-83114835D01*
X133044399Y-83102045D01*
X133725472Y-82420973D01*
X133652483Y-82369867D01*
X133446328Y-82273735D01*
X133446317Y-82273730D01*
X133226608Y-82214859D01*
X133226602Y-82214858D01*
X133000005Y-82195034D01*
X132999995Y-82195034D01*
X132773397Y-82214858D01*
X132773391Y-82214859D01*
X132553682Y-82273730D01*
X132553671Y-82273735D01*
X132347513Y-82369868D01*
X132274526Y-82420973D01*
X132955599Y-83102046D01*
X132874852Y-83114835D01*
X132761955Y-83172359D01*
X132672359Y-83261955D01*
X132614835Y-83374852D01*
X132602046Y-83455599D01*
X131920973Y-82774526D01*
X131869868Y-82847513D01*
X131773735Y-83053671D01*
X131773730Y-83053682D01*
X131714859Y-83273391D01*
X131714858Y-83273397D01*
X131695034Y-83499994D01*
X131695034Y-83500005D01*
X130398403Y-83500005D01*
X130404966Y-83424995D01*
X130404966Y-83424984D01*
X130385141Y-83198387D01*
X130385140Y-83198381D01*
X130326269Y-82978672D01*
X130326264Y-82978661D01*
X130230132Y-82772506D01*
X130179024Y-82699516D01*
X129497953Y-83380588D01*
X129485165Y-83299842D01*
X129427641Y-83186945D01*
X129338045Y-83097349D01*
X129225148Y-83039825D01*
X129144399Y-83027035D01*
X129825472Y-82345963D01*
X129752483Y-82294857D01*
X129546328Y-82198725D01*
X129546317Y-82198720D01*
X129326608Y-82139849D01*
X129326602Y-82139848D01*
X129100005Y-82120024D01*
X129099995Y-82120024D01*
X128873397Y-82139848D01*
X128873391Y-82139849D01*
X128653682Y-82198720D01*
X128653671Y-82198725D01*
X128447513Y-82294858D01*
X128374526Y-82345963D01*
X129055599Y-83027036D01*
X128974852Y-83039825D01*
X128861955Y-83097349D01*
X128772359Y-83186945D01*
X128714835Y-83299842D01*
X128702046Y-83380589D01*
X128020973Y-82699516D01*
X127969868Y-82772503D01*
X127873735Y-82978661D01*
X127873730Y-82978672D01*
X127814859Y-83198381D01*
X127814858Y-83198387D01*
X127795034Y-83424984D01*
X127795034Y-83424995D01*
X124404966Y-83424995D01*
X124404966Y-83424984D01*
X124385141Y-83198387D01*
X124385140Y-83198381D01*
X124326269Y-82978672D01*
X124326264Y-82978661D01*
X124230132Y-82772506D01*
X124179024Y-82699516D01*
X123497953Y-83380588D01*
X123485165Y-83299842D01*
X123427641Y-83186945D01*
X123338045Y-83097349D01*
X123225148Y-83039825D01*
X123144399Y-83027035D01*
X123825472Y-82345963D01*
X123752483Y-82294857D01*
X123546328Y-82198725D01*
X123546317Y-82198720D01*
X123326608Y-82139849D01*
X123326602Y-82139848D01*
X123100005Y-82120024D01*
X123099995Y-82120024D01*
X122873397Y-82139848D01*
X122873391Y-82139849D01*
X122653682Y-82198720D01*
X122653671Y-82198725D01*
X122447513Y-82294858D01*
X122374526Y-82345963D01*
X123055599Y-83027036D01*
X122974852Y-83039825D01*
X122861955Y-83097349D01*
X122772359Y-83186945D01*
X122714835Y-83299842D01*
X122702046Y-83380589D01*
X122020973Y-82699516D01*
X121969868Y-82772503D01*
X121873735Y-82978661D01*
X121873730Y-82978672D01*
X121814859Y-83198381D01*
X121814858Y-83198387D01*
X121795034Y-83424984D01*
X121795034Y-83424995D01*
X118298404Y-83424995D01*
X118285141Y-83273397D01*
X118285140Y-83273391D01*
X118226269Y-83053682D01*
X118226264Y-83053671D01*
X118130132Y-82847516D01*
X118079024Y-82774526D01*
X117397953Y-83455598D01*
X117385165Y-83374852D01*
X117327641Y-83261955D01*
X117238045Y-83172359D01*
X117125148Y-83114835D01*
X117044399Y-83102045D01*
X117725472Y-82420973D01*
X117652483Y-82369867D01*
X117446328Y-82273735D01*
X117446317Y-82273730D01*
X117226608Y-82214859D01*
X117226602Y-82214858D01*
X117000005Y-82195034D01*
X116999995Y-82195034D01*
X116773397Y-82214858D01*
X116773391Y-82214859D01*
X116553682Y-82273730D01*
X116553671Y-82273735D01*
X116347513Y-82369868D01*
X116274526Y-82420973D01*
X116955599Y-83102046D01*
X116874852Y-83114835D01*
X116761955Y-83172359D01*
X116672359Y-83261955D01*
X116614835Y-83374852D01*
X116602046Y-83455599D01*
X115920973Y-82774526D01*
X115869868Y-82847513D01*
X115773735Y-83053671D01*
X115773730Y-83053682D01*
X115714859Y-83273391D01*
X115714858Y-83273397D01*
X115695034Y-83499994D01*
X115695034Y-83500005D01*
X112754907Y-83500005D01*
X112754907Y-83500001D01*
X112754907Y-83499998D01*
X112735305Y-83238446D01*
X112676941Y-82982734D01*
X112581117Y-82738575D01*
X112449971Y-82511426D01*
X112402124Y-82451427D01*
X111602547Y-83251005D01*
X111592812Y-83221044D01*
X111504814Y-83082381D01*
X111385097Y-82969960D01*
X111250487Y-82895957D01*
X112049168Y-82097278D01*
X111877459Y-81980209D01*
X111641139Y-81866403D01*
X111641131Y-81866400D01*
X111390511Y-81789093D01*
X111131139Y-81750000D01*
X110868861Y-81750000D01*
X110609488Y-81789093D01*
X110358868Y-81866400D01*
X110358860Y-81866403D01*
X110122539Y-81980210D01*
X110122537Y-81980211D01*
X109950831Y-82097277D01*
X109950831Y-82097278D01*
X110752466Y-82898913D01*
X110684371Y-82925874D01*
X110551508Y-83022405D01*
X110446825Y-83148945D01*
X110398367Y-83251921D01*
X109597873Y-82451427D01*
X109597872Y-82451427D01*
X109550033Y-82511418D01*
X109550028Y-82511425D01*
X109418882Y-82738575D01*
X109323058Y-82982734D01*
X109264694Y-83238446D01*
X109245093Y-83499998D01*
X109245093Y-83500001D01*
X106005341Y-83500001D01*
X106005341Y-83500000D01*
X105986024Y-83303868D01*
X105928814Y-83115273D01*
X105928812Y-83115270D01*
X105928812Y-83115268D01*
X105855793Y-82978661D01*
X105835910Y-82941462D01*
X105710883Y-82789117D01*
X105558538Y-82664090D01*
X105548597Y-82658776D01*
X105384731Y-82571187D01*
X105196133Y-82513976D01*
X105000000Y-82494659D01*
X104803866Y-82513976D01*
X104615268Y-82571187D01*
X104441463Y-82664089D01*
X104289117Y-82789117D01*
X104164089Y-82941463D01*
X104071187Y-83115268D01*
X104013976Y-83303866D01*
X103994659Y-83500000D01*
X100000500Y-83500000D01*
X100000500Y-77550001D01*
X102644953Y-77550001D01*
X102665114Y-77819028D01*
X102725144Y-78082043D01*
X102823708Y-78333179D01*
X102958600Y-78566819D01*
X103012294Y-78634149D01*
X103733337Y-77913106D01*
X103820577Y-78051948D01*
X103948052Y-78179423D01*
X104086891Y-78266661D01*
X103364849Y-78988702D01*
X103547476Y-79113216D01*
X103790542Y-79230270D01*
X103790550Y-79230273D01*
X104048331Y-79309789D01*
X104315114Y-79350000D01*
X104584886Y-79350000D01*
X104851668Y-79309789D01*
X105109449Y-79230273D01*
X105109463Y-79230268D01*
X105352521Y-79113217D01*
X105535149Y-78988702D01*
X104813108Y-78266661D01*
X104951948Y-78179423D01*
X105079423Y-78051948D01*
X105166661Y-77913108D01*
X105887703Y-78634150D01*
X105887704Y-78634150D01*
X105941396Y-78566823D01*
X106076291Y-78333179D01*
X106174855Y-78082043D01*
X106234885Y-77819028D01*
X106255047Y-77550001D01*
X107744953Y-77550001D01*
X107765114Y-77819028D01*
X107825144Y-78082043D01*
X107923708Y-78333179D01*
X108058600Y-78566819D01*
X108112294Y-78634149D01*
X108833337Y-77913106D01*
X108920577Y-78051948D01*
X109048052Y-78179423D01*
X109186891Y-78266661D01*
X108464849Y-78988702D01*
X108647476Y-79113216D01*
X108890542Y-79230270D01*
X108890550Y-79230273D01*
X109148331Y-79309789D01*
X109415114Y-79350000D01*
X109684886Y-79350000D01*
X109951668Y-79309789D01*
X110209449Y-79230273D01*
X110209463Y-79230268D01*
X110452521Y-79113217D01*
X110635149Y-78988702D01*
X109913108Y-78266661D01*
X110051948Y-78179423D01*
X110179423Y-78051948D01*
X110266661Y-77913108D01*
X110987703Y-78634150D01*
X110987704Y-78634150D01*
X111041396Y-78566823D01*
X111176291Y-78333179D01*
X111274855Y-78082043D01*
X111334885Y-77819028D01*
X111354672Y-77555000D01*
X113944417Y-77555000D01*
X113964700Y-77760934D01*
X114024768Y-77958954D01*
X114122315Y-78141450D01*
X114253590Y-78301410D01*
X114413550Y-78432685D01*
X114596046Y-78530232D01*
X114794066Y-78590300D01*
X115000000Y-78610583D01*
X115205934Y-78590300D01*
X115403954Y-78530232D01*
X115586450Y-78432685D01*
X115746410Y-78301410D01*
X115877685Y-78141450D01*
X115975232Y-77958954D01*
X116035300Y-77760934D01*
X116055583Y-77555000D01*
X133944417Y-77555000D01*
X133964700Y-77760934D01*
X134024768Y-77958954D01*
X134122315Y-78141450D01*
X134253590Y-78301410D01*
X134413550Y-78432685D01*
X134596046Y-78530232D01*
X134794066Y-78590300D01*
X135000000Y-78610583D01*
X135205934Y-78590300D01*
X135403954Y-78530232D01*
X135586450Y-78432685D01*
X135746410Y-78301410D01*
X135877685Y-78141450D01*
X135975232Y-77958954D01*
X136035300Y-77760934D01*
X136055583Y-77555000D01*
X136055091Y-77550001D01*
X138644953Y-77550001D01*
X138665114Y-77819028D01*
X138725144Y-78082043D01*
X138823708Y-78333179D01*
X138958600Y-78566819D01*
X139012294Y-78634149D01*
X139733337Y-77913106D01*
X139820577Y-78051948D01*
X139948052Y-78179423D01*
X140086891Y-78266661D01*
X139364849Y-78988702D01*
X139547476Y-79113216D01*
X139790542Y-79230270D01*
X139790550Y-79230273D01*
X140048331Y-79309789D01*
X140315114Y-79350000D01*
X140584886Y-79350000D01*
X140851668Y-79309789D01*
X141109449Y-79230273D01*
X141109463Y-79230268D01*
X141352521Y-79113217D01*
X141535149Y-78988702D01*
X140813108Y-78266661D01*
X140951948Y-78179423D01*
X141079423Y-78051948D01*
X141166661Y-77913108D01*
X141887703Y-78634150D01*
X141887704Y-78634150D01*
X141941396Y-78566823D01*
X142076291Y-78333179D01*
X142174855Y-78082043D01*
X142234885Y-77819028D01*
X142255047Y-77550001D01*
X143744953Y-77550001D01*
X143765114Y-77819028D01*
X143825144Y-78082043D01*
X143923708Y-78333179D01*
X144058600Y-78566819D01*
X144112294Y-78634149D01*
X144833337Y-77913106D01*
X144920577Y-78051948D01*
X145048052Y-78179423D01*
X145186891Y-78266661D01*
X144464849Y-78988702D01*
X144647476Y-79113216D01*
X144890542Y-79230270D01*
X144890550Y-79230273D01*
X145148331Y-79309789D01*
X145415114Y-79350000D01*
X145684886Y-79350000D01*
X145951668Y-79309789D01*
X146209449Y-79230273D01*
X146209463Y-79230268D01*
X146452521Y-79113217D01*
X146635149Y-78988702D01*
X145913108Y-78266661D01*
X146051948Y-78179423D01*
X146179423Y-78051948D01*
X146266661Y-77913108D01*
X146987703Y-78634150D01*
X146987704Y-78634150D01*
X147041396Y-78566823D01*
X147176291Y-78333179D01*
X147274855Y-78082043D01*
X147334885Y-77819028D01*
X147355047Y-77550001D01*
X147355047Y-77549998D01*
X147334885Y-77280971D01*
X147274855Y-77017956D01*
X147176291Y-76766820D01*
X147041399Y-76533181D01*
X146987703Y-76465848D01*
X146266660Y-77186890D01*
X146179423Y-77048052D01*
X146051948Y-76920577D01*
X145913107Y-76833337D01*
X146635150Y-76111296D01*
X146452521Y-75986782D01*
X146209463Y-75869731D01*
X146209449Y-75869726D01*
X145951668Y-75790210D01*
X145684886Y-75750000D01*
X145415114Y-75750000D01*
X145148331Y-75790210D01*
X144890550Y-75869726D01*
X144890542Y-75869729D01*
X144647471Y-75986786D01*
X144464849Y-76111296D01*
X145186891Y-76833338D01*
X145048052Y-76920577D01*
X144920577Y-77048052D01*
X144833338Y-77186891D01*
X144112294Y-76465848D01*
X144112293Y-76465848D01*
X144058602Y-76533177D01*
X144058596Y-76533186D01*
X143923708Y-76766820D01*
X143825144Y-77017956D01*
X143765114Y-77280971D01*
X143744953Y-77549998D01*
X143744953Y-77550001D01*
X142255047Y-77550001D01*
X142255047Y-77549998D01*
X142234885Y-77280971D01*
X142174855Y-77017956D01*
X142076291Y-76766820D01*
X141941399Y-76533181D01*
X141887703Y-76465848D01*
X141166660Y-77186890D01*
X141079423Y-77048052D01*
X140951948Y-76920577D01*
X140813107Y-76833337D01*
X141535149Y-76111296D01*
X141352521Y-75986782D01*
X141109463Y-75869731D01*
X141109449Y-75869726D01*
X140851668Y-75790210D01*
X140584886Y-75750000D01*
X140315114Y-75750000D01*
X140048331Y-75790210D01*
X139790550Y-75869726D01*
X139790542Y-75869729D01*
X139547471Y-75986786D01*
X139364849Y-76111296D01*
X140086891Y-76833338D01*
X139948052Y-76920577D01*
X139820577Y-77048052D01*
X139733338Y-77186891D01*
X139012294Y-76465848D01*
X139012293Y-76465848D01*
X138958602Y-76533177D01*
X138958596Y-76533186D01*
X138823708Y-76766820D01*
X138725144Y-77017956D01*
X138665114Y-77280971D01*
X138644953Y-77549998D01*
X138644953Y-77550001D01*
X136055091Y-77550001D01*
X136035300Y-77349066D01*
X135975232Y-77151046D01*
X135877685Y-76968550D01*
X135746410Y-76808590D01*
X135675017Y-76750000D01*
X135586450Y-76677315D01*
X135403956Y-76579769D01*
X135403955Y-76579768D01*
X135403954Y-76579768D01*
X135250392Y-76533186D01*
X135205935Y-76519700D01*
X135000000Y-76499417D01*
X134794064Y-76519700D01*
X134596043Y-76579769D01*
X134413549Y-76677315D01*
X134253590Y-76808589D01*
X134253589Y-76808590D01*
X134122315Y-76968549D01*
X134024769Y-77151043D01*
X133964700Y-77349064D01*
X133964700Y-77349066D01*
X133944417Y-77555000D01*
X116055583Y-77555000D01*
X116035300Y-77349066D01*
X115975232Y-77151046D01*
X115877685Y-76968550D01*
X115746410Y-76808590D01*
X115675017Y-76750000D01*
X115586450Y-76677315D01*
X115403956Y-76579769D01*
X115403955Y-76579768D01*
X115403954Y-76579768D01*
X115250392Y-76533186D01*
X115205935Y-76519700D01*
X115000000Y-76499417D01*
X114794064Y-76519700D01*
X114596043Y-76579769D01*
X114413549Y-76677315D01*
X114253590Y-76808589D01*
X114253589Y-76808590D01*
X114122315Y-76968549D01*
X114024769Y-77151043D01*
X113964700Y-77349064D01*
X113964700Y-77349066D01*
X113944417Y-77555000D01*
X111354672Y-77555000D01*
X111355047Y-77550001D01*
X111355047Y-77549998D01*
X111334885Y-77280971D01*
X111274855Y-77017956D01*
X111176291Y-76766820D01*
X111041399Y-76533181D01*
X110987703Y-76465848D01*
X110266660Y-77186890D01*
X110179423Y-77048052D01*
X110051948Y-76920577D01*
X109913107Y-76833337D01*
X110635150Y-76111296D01*
X110452521Y-75986782D01*
X110209463Y-75869731D01*
X110209449Y-75869726D01*
X109951668Y-75790210D01*
X109684886Y-75750000D01*
X109415114Y-75750000D01*
X109148331Y-75790210D01*
X108890550Y-75869726D01*
X108890542Y-75869729D01*
X108647471Y-75986786D01*
X108464849Y-76111296D01*
X109186891Y-76833338D01*
X109048052Y-76920577D01*
X108920577Y-77048052D01*
X108833338Y-77186891D01*
X108112294Y-76465848D01*
X108112293Y-76465848D01*
X108058602Y-76533177D01*
X108058596Y-76533186D01*
X107923708Y-76766820D01*
X107825144Y-77017956D01*
X107765114Y-77280971D01*
X107744953Y-77549998D01*
X107744953Y-77550001D01*
X106255047Y-77550001D01*
X106255047Y-77549998D01*
X106234885Y-77280971D01*
X106174855Y-77017956D01*
X106076291Y-76766820D01*
X105941399Y-76533181D01*
X105887703Y-76465848D01*
X105166660Y-77186890D01*
X105079423Y-77048052D01*
X104951948Y-76920577D01*
X104813107Y-76833337D01*
X105535150Y-76111296D01*
X105352521Y-75986782D01*
X105109463Y-75869731D01*
X105109449Y-75869726D01*
X104851668Y-75790210D01*
X104584886Y-75750000D01*
X104315114Y-75750000D01*
X104048331Y-75790210D01*
X103790550Y-75869726D01*
X103790542Y-75869729D01*
X103547471Y-75986786D01*
X103364849Y-76111296D01*
X104086891Y-76833338D01*
X103948052Y-76920577D01*
X103820577Y-77048052D01*
X103733338Y-77186891D01*
X103012294Y-76465848D01*
X103012293Y-76465848D01*
X102958602Y-76533177D01*
X102958596Y-76533186D01*
X102823708Y-76766820D01*
X102725144Y-77017956D01*
X102665114Y-77280971D01*
X102644953Y-77549998D01*
X102644953Y-77550001D01*
X100000500Y-77550001D01*
X100000500Y-75000003D01*
X105544529Y-75000003D01*
X105564378Y-75239556D01*
X105564378Y-75239557D01*
X105564380Y-75239563D01*
X105609807Y-75418954D01*
X105623392Y-75472597D01*
X105719951Y-75692728D01*
X105783639Y-75790210D01*
X105851429Y-75893969D01*
X105940045Y-75990232D01*
X105995340Y-76050299D01*
X106014236Y-76070825D01*
X106203933Y-76218472D01*
X106415344Y-76332882D01*
X106642703Y-76410934D01*
X106879808Y-76450500D01*
X107120192Y-76450500D01*
X107357297Y-76410934D01*
X107584656Y-76332882D01*
X107796067Y-76218472D01*
X107985764Y-76070825D01*
X108148571Y-75893969D01*
X108280049Y-75692728D01*
X108376610Y-75472591D01*
X108435620Y-75239563D01*
X108435620Y-75239559D01*
X108435621Y-75239557D01*
X108435621Y-75239556D01*
X108454228Y-75015000D01*
X113944417Y-75015000D01*
X113964700Y-75220934D01*
X114024768Y-75418954D01*
X114122315Y-75601450D01*
X114253590Y-75761410D01*
X114413550Y-75892685D01*
X114596046Y-75990232D01*
X114794066Y-76050300D01*
X115000000Y-76070583D01*
X115205934Y-76050300D01*
X115403954Y-75990232D01*
X115586450Y-75892685D01*
X115746410Y-75761410D01*
X115877685Y-75601450D01*
X115975232Y-75418954D01*
X116035300Y-75220934D01*
X116055583Y-75015000D01*
X133944417Y-75015000D01*
X133964700Y-75220934D01*
X134024768Y-75418954D01*
X134122315Y-75601450D01*
X134253590Y-75761410D01*
X134413550Y-75892685D01*
X134596046Y-75990232D01*
X134794066Y-76050300D01*
X135000000Y-76070583D01*
X135205934Y-76050300D01*
X135403954Y-75990232D01*
X135586450Y-75892685D01*
X135746410Y-75761410D01*
X135877685Y-75601450D01*
X135975232Y-75418954D01*
X136035300Y-75220934D01*
X136055583Y-75015000D01*
X136054106Y-75000003D01*
X141544529Y-75000003D01*
X141564378Y-75239556D01*
X141564378Y-75239557D01*
X141564380Y-75239563D01*
X141609807Y-75418954D01*
X141623392Y-75472597D01*
X141719951Y-75692728D01*
X141783639Y-75790210D01*
X141851429Y-75893969D01*
X141940045Y-75990232D01*
X141995340Y-76050299D01*
X142014236Y-76070825D01*
X142203933Y-76218472D01*
X142415344Y-76332882D01*
X142642703Y-76410934D01*
X142879808Y-76450500D01*
X143120192Y-76450500D01*
X143357297Y-76410934D01*
X143584656Y-76332882D01*
X143796067Y-76218472D01*
X143985764Y-76070825D01*
X144148571Y-75893969D01*
X144280049Y-75692728D01*
X144376610Y-75472591D01*
X144435620Y-75239563D01*
X144435620Y-75239559D01*
X144435621Y-75239557D01*
X144435621Y-75239556D01*
X144455471Y-75000003D01*
X144455471Y-74999996D01*
X144435621Y-74760443D01*
X144435621Y-74760442D01*
X144435620Y-74760437D01*
X144376610Y-74527409D01*
X144280049Y-74307272D01*
X144148571Y-74106031D01*
X143985764Y-73929175D01*
X143796067Y-73781528D01*
X143707715Y-73733714D01*
X143584655Y-73667117D01*
X143357295Y-73589065D01*
X143120194Y-73549500D01*
X143120192Y-73549500D01*
X142879808Y-73549500D01*
X142879805Y-73549500D01*
X142642704Y-73589065D01*
X142415344Y-73667117D01*
X142203940Y-73781524D01*
X142203928Y-73781531D01*
X142014234Y-73929176D01*
X141851427Y-74106033D01*
X141719951Y-74307271D01*
X141623392Y-74527402D01*
X141564378Y-74760442D01*
X141564378Y-74760443D01*
X141544529Y-74999996D01*
X141544529Y-75000003D01*
X136054106Y-75000003D01*
X136035300Y-74809066D01*
X135975232Y-74611046D01*
X135877685Y-74428550D01*
X135746410Y-74268590D01*
X135586450Y-74137315D01*
X135403954Y-74039768D01*
X135292158Y-74005855D01*
X135205935Y-73979700D01*
X135000000Y-73959417D01*
X134794064Y-73979700D01*
X134596043Y-74039769D01*
X134413549Y-74137315D01*
X134253590Y-74268589D01*
X134253589Y-74268590D01*
X134122315Y-74428549D01*
X134024769Y-74611043D01*
X133964700Y-74809064D01*
X133964700Y-74809066D01*
X133944417Y-75015000D01*
X116055583Y-75015000D01*
X116035300Y-74809066D01*
X115975232Y-74611046D01*
X115877685Y-74428550D01*
X115746410Y-74268590D01*
X115586450Y-74137315D01*
X115403954Y-74039768D01*
X115292158Y-74005855D01*
X115205935Y-73979700D01*
X115000000Y-73959417D01*
X114794064Y-73979700D01*
X114596043Y-74039769D01*
X114413549Y-74137315D01*
X114253590Y-74268589D01*
X114253589Y-74268590D01*
X114122315Y-74428549D01*
X114024769Y-74611043D01*
X113964700Y-74809064D01*
X113964700Y-74809066D01*
X113944417Y-75015000D01*
X108454228Y-75015000D01*
X108455471Y-75000003D01*
X108455471Y-74999996D01*
X108435621Y-74760443D01*
X108435621Y-74760442D01*
X108435620Y-74760437D01*
X108376610Y-74527409D01*
X108280049Y-74307272D01*
X108148571Y-74106031D01*
X107985764Y-73929175D01*
X107796067Y-73781528D01*
X107707715Y-73733714D01*
X107584655Y-73667117D01*
X107357295Y-73589065D01*
X107120194Y-73549500D01*
X107120192Y-73549500D01*
X106879808Y-73549500D01*
X106879805Y-73549500D01*
X106642704Y-73589065D01*
X106415344Y-73667117D01*
X106203940Y-73781524D01*
X106203928Y-73781531D01*
X106014234Y-73929176D01*
X105851427Y-74106033D01*
X105719951Y-74307271D01*
X105623392Y-74527402D01*
X105564378Y-74760442D01*
X105564378Y-74760443D01*
X105544529Y-74999996D01*
X105544529Y-75000003D01*
X100000500Y-75000003D01*
X100000500Y-72450001D01*
X102644953Y-72450001D01*
X102665114Y-72719028D01*
X102725144Y-72982043D01*
X102823708Y-73233179D01*
X102958600Y-73466819D01*
X103012294Y-73534149D01*
X103733337Y-72813106D01*
X103820577Y-72951948D01*
X103948052Y-73079423D01*
X104086891Y-73166661D01*
X103364849Y-73888702D01*
X103547476Y-74013216D01*
X103790542Y-74130270D01*
X103790550Y-74130273D01*
X104048331Y-74209789D01*
X104315114Y-74250000D01*
X104584886Y-74250000D01*
X104851668Y-74209789D01*
X105109449Y-74130273D01*
X105109463Y-74130268D01*
X105352521Y-74013217D01*
X105535149Y-73888702D01*
X104813108Y-73166661D01*
X104951948Y-73079423D01*
X105079423Y-72951948D01*
X105166661Y-72813108D01*
X105887703Y-73534150D01*
X105887704Y-73534150D01*
X105941396Y-73466823D01*
X106076291Y-73233179D01*
X106174855Y-72982043D01*
X106234885Y-72719028D01*
X106255047Y-72450001D01*
X107744953Y-72450001D01*
X107765114Y-72719028D01*
X107825144Y-72982043D01*
X107923708Y-73233179D01*
X108058600Y-73466819D01*
X108112294Y-73534149D01*
X108833337Y-72813106D01*
X108920577Y-72951948D01*
X109048052Y-73079423D01*
X109186891Y-73166661D01*
X108464849Y-73888702D01*
X108647476Y-74013216D01*
X108890542Y-74130270D01*
X108890550Y-74130273D01*
X109148331Y-74209789D01*
X109415114Y-74250000D01*
X109684886Y-74250000D01*
X109951668Y-74209789D01*
X110209449Y-74130273D01*
X110209463Y-74130268D01*
X110452521Y-74013217D01*
X110635149Y-73888702D01*
X109913108Y-73166661D01*
X110051948Y-73079423D01*
X110179423Y-72951948D01*
X110266661Y-72813108D01*
X110987703Y-73534150D01*
X110987704Y-73534150D01*
X111041396Y-73466823D01*
X111111877Y-73344746D01*
X113949500Y-73344746D01*
X113961133Y-73403232D01*
X113990608Y-73447343D01*
X114005448Y-73469552D01*
X114049560Y-73499027D01*
X114071767Y-73513866D01*
X114071768Y-73513866D01*
X114071769Y-73513867D01*
X114130252Y-73525500D01*
X114130254Y-73525500D01*
X115869746Y-73525500D01*
X115869748Y-73525500D01*
X115928231Y-73513867D01*
X115994552Y-73469552D01*
X116038867Y-73403231D01*
X116050500Y-73344748D01*
X116050500Y-73344746D01*
X133949500Y-73344746D01*
X133961133Y-73403232D01*
X133990608Y-73447343D01*
X134005448Y-73469552D01*
X134049560Y-73499027D01*
X134071767Y-73513866D01*
X134071768Y-73513866D01*
X134071769Y-73513867D01*
X134130252Y-73525500D01*
X134130254Y-73525500D01*
X135869746Y-73525500D01*
X135869748Y-73525500D01*
X135928231Y-73513867D01*
X135994552Y-73469552D01*
X136038867Y-73403231D01*
X136050500Y-73344748D01*
X136050500Y-72450001D01*
X138644953Y-72450001D01*
X138665114Y-72719028D01*
X138725144Y-72982043D01*
X138823708Y-73233179D01*
X138958600Y-73466819D01*
X139012294Y-73534149D01*
X139733337Y-72813106D01*
X139820577Y-72951948D01*
X139948052Y-73079423D01*
X140086891Y-73166661D01*
X139364849Y-73888702D01*
X139547476Y-74013216D01*
X139790542Y-74130270D01*
X139790550Y-74130273D01*
X140048331Y-74209789D01*
X140315114Y-74250000D01*
X140584886Y-74250000D01*
X140851668Y-74209789D01*
X141109449Y-74130273D01*
X141109463Y-74130268D01*
X141352521Y-74013217D01*
X141535149Y-73888702D01*
X140813108Y-73166661D01*
X140951948Y-73079423D01*
X141079423Y-72951948D01*
X141166661Y-72813108D01*
X141887703Y-73534150D01*
X141887704Y-73534150D01*
X141941396Y-73466823D01*
X142076291Y-73233179D01*
X142174855Y-72982043D01*
X142234885Y-72719028D01*
X142255047Y-72450001D01*
X143744953Y-72450001D01*
X143765114Y-72719028D01*
X143825144Y-72982043D01*
X143923708Y-73233179D01*
X144058600Y-73466819D01*
X144112294Y-73534149D01*
X144833337Y-72813106D01*
X144920577Y-72951948D01*
X145048052Y-73079423D01*
X145186891Y-73166661D01*
X144464849Y-73888702D01*
X144647476Y-74013216D01*
X144890542Y-74130270D01*
X144890550Y-74130273D01*
X145148331Y-74209789D01*
X145415114Y-74250000D01*
X145684886Y-74250000D01*
X145951668Y-74209789D01*
X146209449Y-74130273D01*
X146209463Y-74130268D01*
X146452521Y-74013217D01*
X146635149Y-73888702D01*
X145913108Y-73166661D01*
X146051948Y-73079423D01*
X146179423Y-72951948D01*
X146266661Y-72813108D01*
X146987703Y-73534150D01*
X146987704Y-73534150D01*
X147041396Y-73466823D01*
X147176291Y-73233179D01*
X147274855Y-72982043D01*
X147334885Y-72719028D01*
X147355047Y-72450001D01*
X147355047Y-72449998D01*
X147334885Y-72180971D01*
X147274855Y-71917956D01*
X147176291Y-71666820D01*
X147041399Y-71433181D01*
X146987703Y-71365848D01*
X146266660Y-72086890D01*
X146179423Y-71948052D01*
X146051948Y-71820577D01*
X145913107Y-71733337D01*
X146635149Y-71011296D01*
X146452521Y-70886782D01*
X146209463Y-70769731D01*
X146209449Y-70769726D01*
X145951668Y-70690210D01*
X145684886Y-70650000D01*
X145415114Y-70650000D01*
X145148331Y-70690210D01*
X144890550Y-70769726D01*
X144890542Y-70769729D01*
X144647471Y-70886786D01*
X144464849Y-71011296D01*
X145186891Y-71733338D01*
X145048052Y-71820577D01*
X144920577Y-71948052D01*
X144833338Y-72086891D01*
X144112294Y-71365848D01*
X144112293Y-71365848D01*
X144058602Y-71433177D01*
X144058596Y-71433186D01*
X143923708Y-71666820D01*
X143825144Y-71917956D01*
X143765114Y-72180971D01*
X143744953Y-72449998D01*
X143744953Y-72450001D01*
X142255047Y-72450001D01*
X142255047Y-72449998D01*
X142234885Y-72180971D01*
X142174855Y-71917956D01*
X142076291Y-71666820D01*
X141941399Y-71433181D01*
X141887703Y-71365848D01*
X141166660Y-72086890D01*
X141079423Y-71948052D01*
X140951948Y-71820577D01*
X140813107Y-71733337D01*
X141535150Y-71011296D01*
X141352521Y-70886782D01*
X141109463Y-70769731D01*
X141109449Y-70769726D01*
X140851668Y-70690210D01*
X140584886Y-70650000D01*
X140315114Y-70650000D01*
X140048331Y-70690210D01*
X139790550Y-70769726D01*
X139790542Y-70769729D01*
X139547471Y-70886786D01*
X139364849Y-71011296D01*
X140086891Y-71733338D01*
X139948052Y-71820577D01*
X139820577Y-71948052D01*
X139733338Y-72086891D01*
X139012294Y-71365848D01*
X139012293Y-71365848D01*
X138958602Y-71433177D01*
X138958596Y-71433186D01*
X138823708Y-71666820D01*
X138725144Y-71917956D01*
X138665114Y-72180971D01*
X138644953Y-72449998D01*
X138644953Y-72450001D01*
X136050500Y-72450001D01*
X136050500Y-71605252D01*
X136038867Y-71546769D01*
X135994552Y-71480448D01*
X135972343Y-71465608D01*
X135928232Y-71436133D01*
X135928233Y-71436133D01*
X135898989Y-71430316D01*
X135869748Y-71424500D01*
X134130252Y-71424500D01*
X134101010Y-71430316D01*
X134071767Y-71436133D01*
X134005449Y-71480447D01*
X134005447Y-71480449D01*
X133961133Y-71546767D01*
X133949500Y-71605253D01*
X133949500Y-73344746D01*
X116050500Y-73344746D01*
X116050500Y-71605252D01*
X116038867Y-71546769D01*
X115994552Y-71480448D01*
X115972343Y-71465608D01*
X115928232Y-71436133D01*
X115928233Y-71436133D01*
X115898989Y-71430316D01*
X115869748Y-71424500D01*
X114130252Y-71424500D01*
X114101010Y-71430316D01*
X114071767Y-71436133D01*
X114005449Y-71480447D01*
X114005447Y-71480449D01*
X113961133Y-71546767D01*
X113949500Y-71605253D01*
X113949500Y-73344746D01*
X111111877Y-73344746D01*
X111176291Y-73233179D01*
X111274855Y-72982043D01*
X111334885Y-72719028D01*
X111355047Y-72450001D01*
X111355047Y-72449998D01*
X111334885Y-72180971D01*
X111274855Y-71917956D01*
X111176291Y-71666820D01*
X111041399Y-71433181D01*
X110987703Y-71365848D01*
X110266660Y-72086890D01*
X110179423Y-71948052D01*
X110051948Y-71820577D01*
X109913107Y-71733337D01*
X110635149Y-71011296D01*
X110452521Y-70886782D01*
X110209463Y-70769731D01*
X110209449Y-70769726D01*
X109951668Y-70690210D01*
X109684886Y-70650000D01*
X109415114Y-70650000D01*
X109148331Y-70690210D01*
X108890550Y-70769726D01*
X108890542Y-70769729D01*
X108647471Y-70886786D01*
X108464849Y-71011296D01*
X109186891Y-71733338D01*
X109048052Y-71820577D01*
X108920577Y-71948052D01*
X108833338Y-72086891D01*
X108112294Y-71365848D01*
X108112293Y-71365848D01*
X108058602Y-71433177D01*
X108058596Y-71433186D01*
X107923708Y-71666820D01*
X107825144Y-71917956D01*
X107765114Y-72180971D01*
X107744953Y-72449998D01*
X107744953Y-72450001D01*
X106255047Y-72450001D01*
X106255047Y-72449998D01*
X106234885Y-72180971D01*
X106174855Y-71917956D01*
X106076291Y-71666820D01*
X105941399Y-71433181D01*
X105887703Y-71365848D01*
X105166660Y-72086890D01*
X105079423Y-71948052D01*
X104951948Y-71820577D01*
X104813107Y-71733337D01*
X105535150Y-71011296D01*
X105352521Y-70886782D01*
X105109463Y-70769731D01*
X105109449Y-70769726D01*
X104851668Y-70690210D01*
X104584886Y-70650000D01*
X104315114Y-70650000D01*
X104048331Y-70690210D01*
X103790550Y-70769726D01*
X103790542Y-70769729D01*
X103547471Y-70886786D01*
X103364849Y-71011296D01*
X104086891Y-71733338D01*
X103948052Y-71820577D01*
X103820577Y-71948052D01*
X103733338Y-72086891D01*
X103012294Y-71365848D01*
X103012293Y-71365848D01*
X102958602Y-71433177D01*
X102958596Y-71433186D01*
X102823708Y-71666820D01*
X102725144Y-71917956D01*
X102665114Y-72180971D01*
X102644953Y-72449998D01*
X102644953Y-72450001D01*
X100000500Y-72450001D01*
X100000500Y-66500000D01*
X103994659Y-66500000D01*
X104013976Y-66696133D01*
X104071187Y-66884731D01*
X104119443Y-66975010D01*
X104164090Y-67058538D01*
X104289117Y-67210883D01*
X104441462Y-67335910D01*
X104518426Y-67377048D01*
X104615268Y-67428812D01*
X104615270Y-67428812D01*
X104615273Y-67428814D01*
X104803868Y-67486024D01*
X105000000Y-67505341D01*
X105196132Y-67486024D01*
X105384727Y-67428814D01*
X105558538Y-67335910D01*
X105710883Y-67210883D01*
X105835910Y-67058538D01*
X105928814Y-66884727D01*
X105986024Y-66696132D01*
X106005341Y-66500001D01*
X109245093Y-66500001D01*
X109264694Y-66761553D01*
X109323058Y-67017265D01*
X109418882Y-67261424D01*
X109550028Y-67488574D01*
X109597873Y-67548570D01*
X110397452Y-66748992D01*
X110407188Y-66778956D01*
X110495186Y-66917619D01*
X110614903Y-67030040D01*
X110749510Y-67104041D01*
X109950831Y-67902720D01*
X110122541Y-68019790D01*
X110358860Y-68133596D01*
X110358868Y-68133599D01*
X110609488Y-68210906D01*
X110868861Y-68250000D01*
X111131139Y-68250000D01*
X111390511Y-68210906D01*
X111641131Y-68133599D01*
X111641139Y-68133596D01*
X111877454Y-68019793D01*
X112049167Y-67902720D01*
X111247533Y-67101086D01*
X111315629Y-67074126D01*
X111448492Y-66977595D01*
X111553175Y-66851055D01*
X111601631Y-66748078D01*
X112402124Y-67548571D01*
X112402125Y-67548571D01*
X112449968Y-67488578D01*
X112581117Y-67261424D01*
X112676941Y-67017265D01*
X112735305Y-66761553D01*
X112754907Y-66500005D01*
X115695034Y-66500005D01*
X115714858Y-66726602D01*
X115714859Y-66726608D01*
X115773730Y-66946317D01*
X115773735Y-66946328D01*
X115869867Y-67152483D01*
X115920973Y-67225471D01*
X116602045Y-66544399D01*
X116614835Y-66625148D01*
X116672359Y-66738045D01*
X116761955Y-66827641D01*
X116874852Y-66885165D01*
X116955599Y-66897953D01*
X116274526Y-67579025D01*
X116347516Y-67630132D01*
X116553671Y-67726264D01*
X116553682Y-67726269D01*
X116773391Y-67785140D01*
X116773397Y-67785141D01*
X116999995Y-67804966D01*
X117000005Y-67804966D01*
X117226602Y-67785141D01*
X117226608Y-67785140D01*
X117446317Y-67726269D01*
X117446328Y-67726264D01*
X117652483Y-67630133D01*
X117725471Y-67579024D01*
X117044400Y-66897953D01*
X117125148Y-66885165D01*
X117238045Y-66827641D01*
X117327641Y-66738045D01*
X117385165Y-66625148D01*
X117397953Y-66544400D01*
X118079024Y-67225471D01*
X118130133Y-67152483D01*
X118226264Y-66946328D01*
X118226269Y-66946317D01*
X118285140Y-66726608D01*
X118285141Y-66726602D01*
X118298403Y-66575015D01*
X119595034Y-66575015D01*
X119614858Y-66801612D01*
X119614859Y-66801618D01*
X119673730Y-67021327D01*
X119673735Y-67021338D01*
X119769867Y-67227493D01*
X119820973Y-67300481D01*
X120502045Y-66619409D01*
X120514835Y-66700158D01*
X120572359Y-66813055D01*
X120661955Y-66902651D01*
X120774852Y-66960175D01*
X120855599Y-66972963D01*
X120174526Y-67654035D01*
X120247516Y-67705142D01*
X120453671Y-67801274D01*
X120453682Y-67801279D01*
X120673391Y-67860150D01*
X120673397Y-67860151D01*
X120899995Y-67879976D01*
X120900005Y-67879976D01*
X121126602Y-67860151D01*
X121126608Y-67860150D01*
X121346317Y-67801279D01*
X121346328Y-67801274D01*
X121552483Y-67705143D01*
X121625471Y-67654034D01*
X120944400Y-66972963D01*
X121025148Y-66960175D01*
X121138045Y-66902651D01*
X121227641Y-66813055D01*
X121285165Y-66700158D01*
X121297953Y-66619410D01*
X121979024Y-67300481D01*
X122030133Y-67227493D01*
X122126264Y-67021338D01*
X122126269Y-67021327D01*
X122185140Y-66801618D01*
X122185141Y-66801612D01*
X122204966Y-66575015D01*
X125595034Y-66575015D01*
X125614858Y-66801612D01*
X125614859Y-66801618D01*
X125673730Y-67021327D01*
X125673735Y-67021338D01*
X125769867Y-67227493D01*
X125820973Y-67300481D01*
X126502045Y-66619409D01*
X126514835Y-66700158D01*
X126572359Y-66813055D01*
X126661955Y-66902651D01*
X126774852Y-66960175D01*
X126855599Y-66972963D01*
X126174526Y-67654035D01*
X126247516Y-67705142D01*
X126453671Y-67801274D01*
X126453682Y-67801279D01*
X126673391Y-67860150D01*
X126673397Y-67860151D01*
X126899995Y-67879976D01*
X126900005Y-67879976D01*
X127126602Y-67860151D01*
X127126608Y-67860150D01*
X127346317Y-67801279D01*
X127346328Y-67801274D01*
X127552483Y-67705143D01*
X127625471Y-67654034D01*
X126944400Y-66972963D01*
X127025148Y-66960175D01*
X127138045Y-66902651D01*
X127227641Y-66813055D01*
X127285165Y-66700158D01*
X127297953Y-66619410D01*
X127979024Y-67300481D01*
X128030133Y-67227493D01*
X128126264Y-67021338D01*
X128126269Y-67021327D01*
X128185140Y-66801618D01*
X128185141Y-66801612D01*
X128204966Y-66575015D01*
X128204966Y-66575004D01*
X128198404Y-66500005D01*
X131695034Y-66500005D01*
X131714858Y-66726602D01*
X131714859Y-66726608D01*
X131773730Y-66946317D01*
X131773735Y-66946328D01*
X131869867Y-67152483D01*
X131920973Y-67225471D01*
X132602045Y-66544399D01*
X132614835Y-66625148D01*
X132672359Y-66738045D01*
X132761955Y-66827641D01*
X132874852Y-66885165D01*
X132955599Y-66897953D01*
X132274526Y-67579025D01*
X132347516Y-67630132D01*
X132553671Y-67726264D01*
X132553682Y-67726269D01*
X132773391Y-67785140D01*
X132773397Y-67785141D01*
X132999995Y-67804966D01*
X133000005Y-67804966D01*
X133226602Y-67785141D01*
X133226608Y-67785140D01*
X133446317Y-67726269D01*
X133446328Y-67726264D01*
X133652483Y-67630133D01*
X133725471Y-67579024D01*
X133044400Y-66897953D01*
X133125148Y-66885165D01*
X133238045Y-66827641D01*
X133327641Y-66738045D01*
X133385165Y-66625148D01*
X133397953Y-66544400D01*
X134079024Y-67225471D01*
X134130133Y-67152483D01*
X134226264Y-66946328D01*
X134226269Y-66946317D01*
X134285140Y-66726608D01*
X134285141Y-66726602D01*
X134304966Y-66500005D01*
X134304966Y-66500001D01*
X137245093Y-66500001D01*
X137264694Y-66761553D01*
X137323058Y-67017265D01*
X137418882Y-67261424D01*
X137550028Y-67488574D01*
X137597873Y-67548570D01*
X138397452Y-66748992D01*
X138407188Y-66778956D01*
X138495186Y-66917619D01*
X138614903Y-67030040D01*
X138749510Y-67104041D01*
X137950831Y-67902720D01*
X138122541Y-68019790D01*
X138358860Y-68133596D01*
X138358868Y-68133599D01*
X138609488Y-68210906D01*
X138868861Y-68250000D01*
X139131139Y-68250000D01*
X139390511Y-68210906D01*
X139641131Y-68133599D01*
X139641139Y-68133596D01*
X139877454Y-68019793D01*
X140049167Y-67902720D01*
X139247533Y-67101086D01*
X139315629Y-67074126D01*
X139448492Y-66977595D01*
X139553175Y-66851055D01*
X139601631Y-66748078D01*
X140402124Y-67548571D01*
X140402125Y-67548571D01*
X140449968Y-67488578D01*
X140581117Y-67261424D01*
X140676941Y-67017265D01*
X140735305Y-66761553D01*
X140754907Y-66500001D01*
X140754907Y-66500000D01*
X143994659Y-66500000D01*
X144013976Y-66696133D01*
X144071187Y-66884731D01*
X144119443Y-66975010D01*
X144164090Y-67058538D01*
X144289117Y-67210883D01*
X144441462Y-67335910D01*
X144518426Y-67377048D01*
X144615268Y-67428812D01*
X144615270Y-67428812D01*
X144615273Y-67428814D01*
X144803868Y-67486024D01*
X145000000Y-67505341D01*
X145196132Y-67486024D01*
X145384727Y-67428814D01*
X145558538Y-67335910D01*
X145710883Y-67210883D01*
X145835910Y-67058538D01*
X145928814Y-66884727D01*
X145986024Y-66696132D01*
X146005341Y-66500000D01*
X145986024Y-66303868D01*
X145928814Y-66115273D01*
X145928812Y-66115270D01*
X145928812Y-66115268D01*
X145857970Y-65982734D01*
X145835910Y-65941462D01*
X145710883Y-65789117D01*
X145558538Y-65664090D01*
X145548597Y-65658776D01*
X145384731Y-65571187D01*
X145196133Y-65513976D01*
X145000000Y-65494659D01*
X144803866Y-65513976D01*
X144615268Y-65571187D01*
X144441463Y-65664089D01*
X144289117Y-65789117D01*
X144164089Y-65941463D01*
X144071187Y-66115268D01*
X144013976Y-66303866D01*
X143994659Y-66500000D01*
X140754907Y-66500000D01*
X140754907Y-66499998D01*
X140735305Y-66238446D01*
X140676941Y-65982734D01*
X140581117Y-65738575D01*
X140449971Y-65511426D01*
X140402124Y-65451427D01*
X139602547Y-66251005D01*
X139592812Y-66221044D01*
X139504814Y-66082381D01*
X139385097Y-65969960D01*
X139250487Y-65895957D01*
X140049168Y-65097278D01*
X139877459Y-64980209D01*
X139641139Y-64866403D01*
X139641131Y-64866400D01*
X139390511Y-64789093D01*
X139131139Y-64750000D01*
X138868861Y-64750000D01*
X138609488Y-64789093D01*
X138358868Y-64866400D01*
X138358860Y-64866403D01*
X138122539Y-64980210D01*
X138122537Y-64980211D01*
X137950831Y-65097277D01*
X137950831Y-65097278D01*
X138752466Y-65898913D01*
X138684371Y-65925874D01*
X138551508Y-66022405D01*
X138446825Y-66148945D01*
X138398367Y-66251921D01*
X137597873Y-65451427D01*
X137597872Y-65451427D01*
X137550033Y-65511418D01*
X137550028Y-65511425D01*
X137418882Y-65738575D01*
X137323058Y-65982734D01*
X137264694Y-66238446D01*
X137245093Y-66499998D01*
X137245093Y-66500001D01*
X134304966Y-66500001D01*
X134304966Y-66499994D01*
X134285141Y-66273397D01*
X134285140Y-66273391D01*
X134226269Y-66053682D01*
X134226264Y-66053671D01*
X134130132Y-65847516D01*
X134079024Y-65774526D01*
X133397953Y-66455598D01*
X133385165Y-66374852D01*
X133327641Y-66261955D01*
X133238045Y-66172359D01*
X133125148Y-66114835D01*
X133044399Y-66102045D01*
X133725472Y-65420973D01*
X133652483Y-65369867D01*
X133446328Y-65273735D01*
X133446317Y-65273730D01*
X133226608Y-65214859D01*
X133226602Y-65214858D01*
X133000005Y-65195034D01*
X132999995Y-65195034D01*
X132773397Y-65214858D01*
X132773391Y-65214859D01*
X132553682Y-65273730D01*
X132553671Y-65273735D01*
X132347513Y-65369868D01*
X132274526Y-65420973D01*
X132955599Y-66102046D01*
X132874852Y-66114835D01*
X132761955Y-66172359D01*
X132672359Y-66261955D01*
X132614835Y-66374852D01*
X132602046Y-66455599D01*
X131920973Y-65774526D01*
X131869868Y-65847513D01*
X131773735Y-66053671D01*
X131773730Y-66053682D01*
X131714859Y-66273391D01*
X131714858Y-66273397D01*
X131695034Y-66499994D01*
X131695034Y-66500005D01*
X128198404Y-66500005D01*
X128185141Y-66348407D01*
X128185140Y-66348401D01*
X128126269Y-66128692D01*
X128126264Y-66128681D01*
X128030132Y-65922526D01*
X127979024Y-65849536D01*
X127297953Y-66530608D01*
X127285165Y-66449862D01*
X127227641Y-66336965D01*
X127138045Y-66247369D01*
X127025148Y-66189845D01*
X126944399Y-66177055D01*
X127625472Y-65495983D01*
X127552483Y-65444877D01*
X127346328Y-65348745D01*
X127346317Y-65348740D01*
X127126608Y-65289869D01*
X127126602Y-65289868D01*
X126900005Y-65270044D01*
X126899995Y-65270044D01*
X126673397Y-65289868D01*
X126673391Y-65289869D01*
X126453682Y-65348740D01*
X126453671Y-65348745D01*
X126247513Y-65444878D01*
X126174526Y-65495983D01*
X126855599Y-66177056D01*
X126774852Y-66189845D01*
X126661955Y-66247369D01*
X126572359Y-66336965D01*
X126514835Y-66449862D01*
X126502046Y-66530609D01*
X125820973Y-65849536D01*
X125769868Y-65922523D01*
X125673735Y-66128681D01*
X125673730Y-66128692D01*
X125614859Y-66348401D01*
X125614858Y-66348407D01*
X125595034Y-66575004D01*
X125595034Y-66575015D01*
X122204966Y-66575015D01*
X122204966Y-66575004D01*
X122185141Y-66348407D01*
X122185140Y-66348401D01*
X122126269Y-66128692D01*
X122126264Y-66128681D01*
X122030132Y-65922526D01*
X121979024Y-65849536D01*
X121297953Y-66530608D01*
X121285165Y-66449862D01*
X121227641Y-66336965D01*
X121138045Y-66247369D01*
X121025148Y-66189845D01*
X120944399Y-66177055D01*
X121625472Y-65495983D01*
X121552483Y-65444877D01*
X121346328Y-65348745D01*
X121346317Y-65348740D01*
X121126608Y-65289869D01*
X121126602Y-65289868D01*
X120900005Y-65270044D01*
X120899995Y-65270044D01*
X120673397Y-65289868D01*
X120673391Y-65289869D01*
X120453682Y-65348740D01*
X120453671Y-65348745D01*
X120247513Y-65444878D01*
X120174526Y-65495983D01*
X120855599Y-66177056D01*
X120774852Y-66189845D01*
X120661955Y-66247369D01*
X120572359Y-66336965D01*
X120514835Y-66449862D01*
X120502046Y-66530609D01*
X119820973Y-65849536D01*
X119769868Y-65922523D01*
X119673735Y-66128681D01*
X119673730Y-66128692D01*
X119614859Y-66348401D01*
X119614858Y-66348407D01*
X119595034Y-66575004D01*
X119595034Y-66575015D01*
X118298403Y-66575015D01*
X118304966Y-66500005D01*
X118304966Y-66499994D01*
X118285141Y-66273397D01*
X118285140Y-66273391D01*
X118226269Y-66053682D01*
X118226264Y-66053671D01*
X118130132Y-65847516D01*
X118079024Y-65774526D01*
X117397953Y-66455598D01*
X117385165Y-66374852D01*
X117327641Y-66261955D01*
X117238045Y-66172359D01*
X117125148Y-66114835D01*
X117044399Y-66102045D01*
X117725472Y-65420973D01*
X117652483Y-65369867D01*
X117446328Y-65273735D01*
X117446317Y-65273730D01*
X117226608Y-65214859D01*
X117226602Y-65214858D01*
X117000005Y-65195034D01*
X116999995Y-65195034D01*
X116773397Y-65214858D01*
X116773391Y-65214859D01*
X116553682Y-65273730D01*
X116553671Y-65273735D01*
X116347513Y-65369868D01*
X116274526Y-65420973D01*
X116955599Y-66102046D01*
X116874852Y-66114835D01*
X116761955Y-66172359D01*
X116672359Y-66261955D01*
X116614835Y-66374852D01*
X116602046Y-66455599D01*
X115920973Y-65774526D01*
X115869868Y-65847513D01*
X115773735Y-66053671D01*
X115773730Y-66053682D01*
X115714859Y-66273391D01*
X115714858Y-66273397D01*
X115695034Y-66499994D01*
X115695034Y-66500005D01*
X112754907Y-66500005D01*
X112754907Y-66500001D01*
X112754907Y-66499998D01*
X112735305Y-66238446D01*
X112676941Y-65982734D01*
X112581117Y-65738575D01*
X112449971Y-65511426D01*
X112402124Y-65451427D01*
X111602547Y-66251005D01*
X111592812Y-66221044D01*
X111504814Y-66082381D01*
X111385097Y-65969960D01*
X111250487Y-65895957D01*
X112049168Y-65097278D01*
X111877459Y-64980209D01*
X111641139Y-64866403D01*
X111641131Y-64866400D01*
X111390511Y-64789093D01*
X111131139Y-64750000D01*
X110868861Y-64750000D01*
X110609488Y-64789093D01*
X110358868Y-64866400D01*
X110358860Y-64866403D01*
X110122539Y-64980210D01*
X110122537Y-64980211D01*
X109950831Y-65097277D01*
X109950831Y-65097278D01*
X110752466Y-65898913D01*
X110684371Y-65925874D01*
X110551508Y-66022405D01*
X110446825Y-66148945D01*
X110398367Y-66251921D01*
X109597873Y-65451427D01*
X109597872Y-65451427D01*
X109550033Y-65511418D01*
X109550028Y-65511425D01*
X109418882Y-65738575D01*
X109323058Y-65982734D01*
X109264694Y-66238446D01*
X109245093Y-66499998D01*
X109245093Y-66500001D01*
X106005341Y-66500001D01*
X106005341Y-66500000D01*
X105986024Y-66303868D01*
X105928814Y-66115273D01*
X105928812Y-66115270D01*
X105928812Y-66115268D01*
X105857970Y-65982734D01*
X105835910Y-65941462D01*
X105710883Y-65789117D01*
X105558538Y-65664090D01*
X105548597Y-65658776D01*
X105384731Y-65571187D01*
X105196133Y-65513976D01*
X105000000Y-65494659D01*
X104803866Y-65513976D01*
X104615268Y-65571187D01*
X104441463Y-65664089D01*
X104289117Y-65789117D01*
X104164089Y-65941463D01*
X104071187Y-66115268D01*
X104013976Y-66303866D01*
X103994659Y-66500000D01*
X100000500Y-66500000D01*
X100000500Y-61500000D01*
X103994659Y-61500000D01*
X104013976Y-61696133D01*
X104071187Y-61884731D01*
X104158776Y-62048597D01*
X104164090Y-62058538D01*
X104289117Y-62210883D01*
X104441462Y-62335910D01*
X104518426Y-62377048D01*
X104615268Y-62428812D01*
X104615270Y-62428812D01*
X104615273Y-62428814D01*
X104803868Y-62486024D01*
X105000000Y-62505341D01*
X105196132Y-62486024D01*
X105384727Y-62428814D01*
X105558538Y-62335910D01*
X105710883Y-62210883D01*
X105835910Y-62058538D01*
X105928814Y-61884727D01*
X105986024Y-61696132D01*
X106005341Y-61500003D01*
X109544529Y-61500003D01*
X109564378Y-61739556D01*
X109564378Y-61739557D01*
X109623392Y-61972597D01*
X109693991Y-62133546D01*
X109719951Y-62192728D01*
X109851429Y-62393969D01*
X110014236Y-62570825D01*
X110203933Y-62718472D01*
X110415344Y-62832882D01*
X110642703Y-62910934D01*
X110879808Y-62950500D01*
X111120192Y-62950500D01*
X111357297Y-62910934D01*
X111584656Y-62832882D01*
X111796067Y-62718472D01*
X111985764Y-62570825D01*
X112148571Y-62393969D01*
X112280049Y-62192728D01*
X112376610Y-61972591D01*
X112435620Y-61739563D01*
X112435620Y-61739559D01*
X112435621Y-61739557D01*
X112435621Y-61739556D01*
X112455471Y-61500003D01*
X112455471Y-61500000D01*
X115994659Y-61500000D01*
X116013976Y-61696133D01*
X116071187Y-61884731D01*
X116158776Y-62048597D01*
X116164090Y-62058538D01*
X116289117Y-62210883D01*
X116441462Y-62335910D01*
X116518426Y-62377048D01*
X116615268Y-62428812D01*
X116615270Y-62428812D01*
X116615273Y-62428814D01*
X116803868Y-62486024D01*
X117000000Y-62505341D01*
X117196132Y-62486024D01*
X117384727Y-62428814D01*
X117558538Y-62335910D01*
X117710883Y-62210883D01*
X117835910Y-62058538D01*
X117928814Y-61884727D01*
X117986024Y-61696132D01*
X117997953Y-61575010D01*
X122094659Y-61575010D01*
X122113976Y-61771143D01*
X122171187Y-61959741D01*
X122223995Y-62058536D01*
X122264090Y-62133548D01*
X122389117Y-62285893D01*
X122541462Y-62410920D01*
X122618426Y-62452058D01*
X122715268Y-62503822D01*
X122715270Y-62503822D01*
X122715273Y-62503824D01*
X122903868Y-62561034D01*
X123100000Y-62580351D01*
X123296132Y-62561034D01*
X123484727Y-62503824D01*
X123658538Y-62410920D01*
X123810883Y-62285893D01*
X123935910Y-62133548D01*
X124028814Y-61959737D01*
X124086024Y-61771142D01*
X124105341Y-61575010D01*
X128094659Y-61575010D01*
X128113976Y-61771143D01*
X128171187Y-61959741D01*
X128223995Y-62058536D01*
X128264090Y-62133548D01*
X128389117Y-62285893D01*
X128541462Y-62410920D01*
X128618426Y-62452058D01*
X128715268Y-62503822D01*
X128715270Y-62503822D01*
X128715273Y-62503824D01*
X128903868Y-62561034D01*
X129100000Y-62580351D01*
X129296132Y-62561034D01*
X129484727Y-62503824D01*
X129658538Y-62410920D01*
X129810883Y-62285893D01*
X129935910Y-62133548D01*
X130028814Y-61959737D01*
X130086024Y-61771142D01*
X130105341Y-61575010D01*
X130097953Y-61500000D01*
X131994659Y-61500000D01*
X132013976Y-61696133D01*
X132071187Y-61884731D01*
X132158776Y-62048597D01*
X132164090Y-62058538D01*
X132289117Y-62210883D01*
X132441462Y-62335910D01*
X132518426Y-62377048D01*
X132615268Y-62428812D01*
X132615270Y-62428812D01*
X132615273Y-62428814D01*
X132803868Y-62486024D01*
X133000000Y-62505341D01*
X133196132Y-62486024D01*
X133384727Y-62428814D01*
X133558538Y-62335910D01*
X133710883Y-62210883D01*
X133835910Y-62058538D01*
X133928814Y-61884727D01*
X133986024Y-61696132D01*
X134005341Y-61500003D01*
X137544529Y-61500003D01*
X137564378Y-61739556D01*
X137564378Y-61739557D01*
X137623392Y-61972597D01*
X137693991Y-62133546D01*
X137719951Y-62192728D01*
X137851429Y-62393969D01*
X138014236Y-62570825D01*
X138203933Y-62718472D01*
X138415344Y-62832882D01*
X138642703Y-62910934D01*
X138879808Y-62950500D01*
X139120192Y-62950500D01*
X139357297Y-62910934D01*
X139584656Y-62832882D01*
X139796067Y-62718472D01*
X139985764Y-62570825D01*
X140148571Y-62393969D01*
X140280049Y-62192728D01*
X140376610Y-61972591D01*
X140435620Y-61739563D01*
X140435620Y-61739559D01*
X140435621Y-61739557D01*
X140435621Y-61739556D01*
X140455471Y-61500003D01*
X140455471Y-61500000D01*
X143994659Y-61500000D01*
X144013976Y-61696133D01*
X144071187Y-61884731D01*
X144158776Y-62048597D01*
X144164090Y-62058538D01*
X144289117Y-62210883D01*
X144441462Y-62335910D01*
X144518426Y-62377048D01*
X144615268Y-62428812D01*
X144615270Y-62428812D01*
X144615273Y-62428814D01*
X144803868Y-62486024D01*
X145000000Y-62505341D01*
X145196132Y-62486024D01*
X145384727Y-62428814D01*
X145558538Y-62335910D01*
X145710883Y-62210883D01*
X145835910Y-62058538D01*
X145928814Y-61884727D01*
X145986024Y-61696132D01*
X146005341Y-61500000D01*
X145986024Y-61303868D01*
X145928814Y-61115273D01*
X145928812Y-61115270D01*
X145928812Y-61115268D01*
X145876004Y-61016472D01*
X145835910Y-60941462D01*
X145710883Y-60789117D01*
X145558538Y-60664090D01*
X145525061Y-60646196D01*
X145384731Y-60571187D01*
X145196133Y-60513976D01*
X145000000Y-60494659D01*
X144803866Y-60513976D01*
X144615268Y-60571187D01*
X144441463Y-60664089D01*
X144289117Y-60789117D01*
X144164089Y-60941463D01*
X144071187Y-61115268D01*
X144013976Y-61303866D01*
X143994659Y-61500000D01*
X140455471Y-61500000D01*
X140455471Y-61499996D01*
X140435621Y-61260443D01*
X140435621Y-61260442D01*
X140435620Y-61260437D01*
X140376610Y-61027409D01*
X140280049Y-60807272D01*
X140148571Y-60606031D01*
X139985764Y-60429175D01*
X139796067Y-60281528D01*
X139707715Y-60233714D01*
X139584655Y-60167117D01*
X139357295Y-60089065D01*
X139120194Y-60049500D01*
X139120192Y-60049500D01*
X138879808Y-60049500D01*
X138879805Y-60049500D01*
X138642704Y-60089065D01*
X138415344Y-60167117D01*
X138203940Y-60281524D01*
X138203928Y-60281531D01*
X138014234Y-60429176D01*
X137851427Y-60606033D01*
X137719951Y-60807271D01*
X137623392Y-61027402D01*
X137564378Y-61260442D01*
X137564378Y-61260443D01*
X137544529Y-61499996D01*
X137544529Y-61500003D01*
X134005341Y-61500003D01*
X134005341Y-61500000D01*
X133986024Y-61303868D01*
X133928814Y-61115273D01*
X133928812Y-61115270D01*
X133928812Y-61115268D01*
X133876004Y-61016472D01*
X133835910Y-60941462D01*
X133710883Y-60789117D01*
X133558538Y-60664090D01*
X133525061Y-60646196D01*
X133384731Y-60571187D01*
X133196133Y-60513976D01*
X133000000Y-60494659D01*
X132803866Y-60513976D01*
X132615268Y-60571187D01*
X132441463Y-60664089D01*
X132289117Y-60789117D01*
X132164089Y-60941463D01*
X132071187Y-61115268D01*
X132013976Y-61303866D01*
X131994659Y-61500000D01*
X130097953Y-61500000D01*
X130086024Y-61378878D01*
X130028814Y-61190283D01*
X130028812Y-61190280D01*
X130028812Y-61190278D01*
X129977048Y-61093436D01*
X129935910Y-61016472D01*
X129810883Y-60864127D01*
X129658538Y-60739100D01*
X129648597Y-60733786D01*
X129484731Y-60646197D01*
X129296133Y-60588986D01*
X129100000Y-60569669D01*
X128903866Y-60588986D01*
X128715268Y-60646197D01*
X128541463Y-60739099D01*
X128389117Y-60864127D01*
X128264089Y-61016473D01*
X128171187Y-61190278D01*
X128113976Y-61378876D01*
X128094659Y-61575010D01*
X124105341Y-61575010D01*
X124086024Y-61378878D01*
X124028814Y-61190283D01*
X124028812Y-61190280D01*
X124028812Y-61190278D01*
X123977048Y-61093436D01*
X123935910Y-61016472D01*
X123810883Y-60864127D01*
X123658538Y-60739100D01*
X123648597Y-60733786D01*
X123484731Y-60646197D01*
X123296133Y-60588986D01*
X123100000Y-60569669D01*
X122903866Y-60588986D01*
X122715268Y-60646197D01*
X122541463Y-60739099D01*
X122389117Y-60864127D01*
X122264089Y-61016473D01*
X122171187Y-61190278D01*
X122113976Y-61378876D01*
X122094659Y-61575010D01*
X117997953Y-61575010D01*
X118005341Y-61500000D01*
X117986024Y-61303868D01*
X117928814Y-61115273D01*
X117928812Y-61115270D01*
X117928812Y-61115268D01*
X117876004Y-61016472D01*
X117835910Y-60941462D01*
X117710883Y-60789117D01*
X117558538Y-60664090D01*
X117525061Y-60646196D01*
X117384731Y-60571187D01*
X117196133Y-60513976D01*
X117000000Y-60494659D01*
X116803866Y-60513976D01*
X116615268Y-60571187D01*
X116441463Y-60664089D01*
X116289117Y-60789117D01*
X116164089Y-60941463D01*
X116071187Y-61115268D01*
X116013976Y-61303866D01*
X115994659Y-61500000D01*
X112455471Y-61500000D01*
X112455471Y-61499996D01*
X112435621Y-61260443D01*
X112435621Y-61260442D01*
X112435620Y-61260437D01*
X112376610Y-61027409D01*
X112280049Y-60807272D01*
X112148571Y-60606031D01*
X111985764Y-60429175D01*
X111796067Y-60281528D01*
X111707715Y-60233714D01*
X111584655Y-60167117D01*
X111357295Y-60089065D01*
X111120194Y-60049500D01*
X111120192Y-60049500D01*
X110879808Y-60049500D01*
X110879805Y-60049500D01*
X110642704Y-60089065D01*
X110415344Y-60167117D01*
X110203940Y-60281524D01*
X110203928Y-60281531D01*
X110014234Y-60429176D01*
X109851427Y-60606033D01*
X109719951Y-60807271D01*
X109623392Y-61027402D01*
X109564378Y-61260442D01*
X109564378Y-61260443D01*
X109544529Y-61499996D01*
X109544529Y-61500003D01*
X106005341Y-61500003D01*
X106005341Y-61500000D01*
X105986024Y-61303868D01*
X105928814Y-61115273D01*
X105928812Y-61115270D01*
X105928812Y-61115268D01*
X105876004Y-61016472D01*
X105835910Y-60941462D01*
X105710883Y-60789117D01*
X105558538Y-60664090D01*
X105525061Y-60646196D01*
X105384731Y-60571187D01*
X105196133Y-60513976D01*
X105000000Y-60494659D01*
X104803866Y-60513976D01*
X104615268Y-60571187D01*
X104441463Y-60664089D01*
X104289117Y-60789117D01*
X104164089Y-60941463D01*
X104071187Y-61115268D01*
X104013976Y-61303866D01*
X103994659Y-61500000D01*
X100000500Y-61500000D01*
X100000500Y-55000000D01*
X101294922Y-55000000D01*
X101315219Y-55387289D01*
X101315219Y-55387290D01*
X101375885Y-55770322D01*
X101476262Y-56144934D01*
X101615244Y-56506992D01*
X101791307Y-56852537D01*
X102002530Y-57177791D01*
X102211096Y-57435349D01*
X103108759Y-56537685D01*
X103067449Y-56599511D01*
X103048046Y-56697056D01*
X103067449Y-56794601D01*
X103122704Y-56877296D01*
X103205399Y-56932551D01*
X103278320Y-56947056D01*
X103327568Y-56947056D01*
X103400489Y-56932551D01*
X103462304Y-56891247D01*
X102564649Y-57788902D01*
X102564649Y-57788903D01*
X102822208Y-57997469D01*
X103147462Y-58208692D01*
X103493007Y-58384755D01*
X103855065Y-58523737D01*
X104229677Y-58624114D01*
X104612709Y-58684780D01*
X105000000Y-58705077D01*
X105387289Y-58684780D01*
X105387290Y-58684780D01*
X105770322Y-58624114D01*
X106144934Y-58523737D01*
X106506992Y-58384755D01*
X106852537Y-58208692D01*
X107177791Y-57997469D01*
X107435349Y-57788903D01*
X107435349Y-57788902D01*
X106537691Y-56891244D01*
X106599511Y-56932551D01*
X106672432Y-56947056D01*
X106721680Y-56947056D01*
X106794601Y-56932551D01*
X106877296Y-56877296D01*
X106932551Y-56794601D01*
X106951954Y-56697056D01*
X106932551Y-56599511D01*
X106891244Y-56537691D01*
X107788902Y-57435349D01*
X107788903Y-57435349D01*
X107997469Y-57177791D01*
X108208692Y-56852537D01*
X108384755Y-56506992D01*
X108523737Y-56144934D01*
X108624114Y-55770322D01*
X108635252Y-55700000D01*
X121494659Y-55700000D01*
X121513976Y-55896133D01*
X121571187Y-56084731D01*
X121603367Y-56144934D01*
X121664090Y-56258538D01*
X121789117Y-56410883D01*
X121941462Y-56535910D01*
X122018426Y-56577048D01*
X122115268Y-56628812D01*
X122115270Y-56628812D01*
X122115273Y-56628814D01*
X122303868Y-56686024D01*
X122500000Y-56705341D01*
X122696132Y-56686024D01*
X122884727Y-56628814D01*
X123058538Y-56535910D01*
X123210883Y-56410883D01*
X123335910Y-56258538D01*
X123428814Y-56084727D01*
X123486024Y-55896132D01*
X123505341Y-55700000D01*
X126494659Y-55700000D01*
X126513976Y-55896133D01*
X126571187Y-56084731D01*
X126603367Y-56144934D01*
X126664090Y-56258538D01*
X126789117Y-56410883D01*
X126941462Y-56535910D01*
X127018426Y-56577048D01*
X127115268Y-56628812D01*
X127115270Y-56628812D01*
X127115273Y-56628814D01*
X127303868Y-56686024D01*
X127500000Y-56705341D01*
X127696132Y-56686024D01*
X127884727Y-56628814D01*
X128058538Y-56535910D01*
X128210883Y-56410883D01*
X128335910Y-56258538D01*
X128428814Y-56084727D01*
X128486024Y-55896132D01*
X128505341Y-55700000D01*
X128486024Y-55503868D01*
X128428814Y-55315273D01*
X128428812Y-55315270D01*
X128428812Y-55315268D01*
X128356637Y-55180240D01*
X128335910Y-55141462D01*
X128219814Y-55000000D01*
X141294922Y-55000000D01*
X141315219Y-55387289D01*
X141315219Y-55387290D01*
X141375885Y-55770322D01*
X141476262Y-56144934D01*
X141615244Y-56506992D01*
X141791307Y-56852537D01*
X142002530Y-57177791D01*
X142211096Y-57435349D01*
X143108759Y-56537685D01*
X143067449Y-56599511D01*
X143048046Y-56697056D01*
X143067449Y-56794601D01*
X143122704Y-56877296D01*
X143205399Y-56932551D01*
X143278320Y-56947056D01*
X143327568Y-56947056D01*
X143400489Y-56932551D01*
X143462304Y-56891247D01*
X142564649Y-57788902D01*
X142564649Y-57788903D01*
X142822208Y-57997469D01*
X143147462Y-58208692D01*
X143493007Y-58384755D01*
X143855065Y-58523737D01*
X144229677Y-58624114D01*
X144612709Y-58684780D01*
X145000000Y-58705077D01*
X145387289Y-58684780D01*
X145387290Y-58684780D01*
X145770322Y-58624114D01*
X146144934Y-58523737D01*
X146506992Y-58384755D01*
X146852537Y-58208692D01*
X147177791Y-57997469D01*
X147435349Y-57788903D01*
X147435349Y-57788902D01*
X146537691Y-56891244D01*
X146599511Y-56932551D01*
X146672432Y-56947056D01*
X146721680Y-56947056D01*
X146794601Y-56932551D01*
X146877296Y-56877296D01*
X146932551Y-56794601D01*
X146951954Y-56697056D01*
X146932551Y-56599511D01*
X146891244Y-56537691D01*
X147788902Y-57435349D01*
X147788903Y-57435349D01*
X147997469Y-57177791D01*
X148208692Y-56852537D01*
X148384755Y-56506992D01*
X148523737Y-56144934D01*
X148624114Y-55770322D01*
X148684780Y-55387290D01*
X148684780Y-55387289D01*
X148705077Y-55000000D01*
X148684780Y-54612710D01*
X148684780Y-54612709D01*
X148624114Y-54229677D01*
X148523737Y-53855065D01*
X148384755Y-53493007D01*
X148208692Y-53147462D01*
X147997469Y-52822208D01*
X147788902Y-52564649D01*
X146891247Y-53462303D01*
X146932551Y-53400489D01*
X146951954Y-53302944D01*
X146932551Y-53205399D01*
X146877296Y-53122704D01*
X146794601Y-53067449D01*
X146721680Y-53052944D01*
X146672432Y-53052944D01*
X146599511Y-53067449D01*
X146537685Y-53108759D01*
X147435349Y-52211096D01*
X147435349Y-52211095D01*
X147177791Y-52002530D01*
X146852537Y-51791307D01*
X146506992Y-51615244D01*
X146144934Y-51476262D01*
X145770322Y-51375885D01*
X145387290Y-51315219D01*
X145000000Y-51294922D01*
X144612710Y-51315219D01*
X144612709Y-51315219D01*
X144229677Y-51375885D01*
X143855065Y-51476262D01*
X143493007Y-51615244D01*
X143147462Y-51791307D01*
X142822205Y-52002532D01*
X142822202Y-52002535D01*
X142564649Y-52211095D01*
X142564649Y-52211096D01*
X143462308Y-53108755D01*
X143400489Y-53067449D01*
X143327568Y-53052944D01*
X143278320Y-53052944D01*
X143205399Y-53067449D01*
X143122704Y-53122704D01*
X143067449Y-53205399D01*
X143048046Y-53302944D01*
X143067449Y-53400489D01*
X143108755Y-53462308D01*
X142211096Y-52564649D01*
X142211095Y-52564649D01*
X142002535Y-52822202D01*
X142002532Y-52822205D01*
X141791307Y-53147462D01*
X141615244Y-53493007D01*
X141476262Y-53855065D01*
X141375885Y-54229677D01*
X141315219Y-54612709D01*
X141315219Y-54612710D01*
X141294922Y-55000000D01*
X128219814Y-55000000D01*
X128210883Y-54989117D01*
X128058538Y-54864090D01*
X128048597Y-54858776D01*
X127884731Y-54771187D01*
X127696133Y-54713976D01*
X127500000Y-54694659D01*
X127303866Y-54713976D01*
X127115268Y-54771187D01*
X126941463Y-54864089D01*
X126789117Y-54989117D01*
X126664089Y-55141463D01*
X126571187Y-55315268D01*
X126513976Y-55503866D01*
X126494659Y-55700000D01*
X123505341Y-55700000D01*
X123486024Y-55503868D01*
X123428814Y-55315273D01*
X123428812Y-55315270D01*
X123428812Y-55315268D01*
X123356637Y-55180240D01*
X123335910Y-55141462D01*
X123210883Y-54989117D01*
X123058538Y-54864090D01*
X123048597Y-54858776D01*
X122884731Y-54771187D01*
X122696133Y-54713976D01*
X122500000Y-54694659D01*
X122303866Y-54713976D01*
X122115268Y-54771187D01*
X121941463Y-54864089D01*
X121789117Y-54989117D01*
X121664089Y-55141463D01*
X121571187Y-55315268D01*
X121513976Y-55503866D01*
X121494659Y-55700000D01*
X108635252Y-55700000D01*
X108684780Y-55387290D01*
X108684780Y-55387289D01*
X108705077Y-55000000D01*
X108684780Y-54612710D01*
X108684780Y-54612709D01*
X108624114Y-54229677D01*
X108523737Y-53855065D01*
X108384755Y-53493007D01*
X108208692Y-53147462D01*
X107997469Y-52822208D01*
X107788902Y-52564649D01*
X106891247Y-53462303D01*
X106932551Y-53400489D01*
X106951954Y-53302944D01*
X106932551Y-53205399D01*
X106877296Y-53122704D01*
X106794601Y-53067449D01*
X106721680Y-53052944D01*
X106672432Y-53052944D01*
X106599511Y-53067449D01*
X106537685Y-53108759D01*
X107435349Y-52211096D01*
X107435349Y-52211095D01*
X107177791Y-52002530D01*
X106852537Y-51791307D01*
X106506992Y-51615244D01*
X106144934Y-51476262D01*
X105770322Y-51375885D01*
X105387290Y-51315219D01*
X105000000Y-51294922D01*
X104612710Y-51315219D01*
X104612709Y-51315219D01*
X104229677Y-51375885D01*
X103855065Y-51476262D01*
X103493007Y-51615244D01*
X103147462Y-51791307D01*
X102822205Y-52002532D01*
X102822202Y-52002535D01*
X102564649Y-52211095D01*
X102564649Y-52211096D01*
X103462308Y-53108755D01*
X103400489Y-53067449D01*
X103327568Y-53052944D01*
X103278320Y-53052944D01*
X103205399Y-53067449D01*
X103122704Y-53122704D01*
X103067449Y-53205399D01*
X103048046Y-53302944D01*
X103067449Y-53400489D01*
X103108755Y-53462308D01*
X102211096Y-52564649D01*
X102211095Y-52564649D01*
X102002535Y-52822202D01*
X102002532Y-52822205D01*
X101791307Y-53147462D01*
X101615244Y-53493007D01*
X101476262Y-53855065D01*
X101375885Y-54229677D01*
X101315219Y-54612709D01*
X101315219Y-54612710D01*
X101294922Y-55000000D01*
X100000500Y-55000000D01*
X100000500Y-52130004D01*
X100000547Y-52127363D01*
X100005005Y-52002535D01*
X100010037Y-51861641D01*
X100010743Y-51853759D01*
X100049931Y-51581193D01*
X100052175Y-51570883D01*
X100129385Y-51307930D01*
X100133074Y-51298038D01*
X100246913Y-51048763D01*
X100251969Y-51039501D01*
X100400138Y-50808946D01*
X100406455Y-50800507D01*
X100585930Y-50593382D01*
X100593382Y-50585930D01*
X100800507Y-50406455D01*
X100808946Y-50400138D01*
X101039501Y-50251969D01*
X101048760Y-50246914D01*
X101298038Y-50133074D01*
X101307930Y-50129385D01*
X101570883Y-50052175D01*
X101581193Y-50049931D01*
X101853767Y-50010742D01*
X101861641Y-50010037D01*
X102127364Y-50000547D01*
X102130005Y-50000500D01*
X123824552Y-50000500D01*
X124666055Y-50000948D01*
G37*
%TD.AperFunction*%
%TD*%
M02*
