%TF.GenerationSoftware,KiCad,Pcbnew,7.0.10-7.0.10~ubuntu22.04.1*%
%TF.CreationDate,2024-01-03T18:25:55-08:00*%
%TF.ProjectId,YamhillAFFeedbackAmp,59616d68-696c-46c4-9146-466565646261,A*%
%TF.SameCoordinates,Original*%
%TF.FileFunction,Legend,Top*%
%TF.FilePolarity,Positive*%
%FSLAX46Y46*%
G04 Gerber Fmt 4.6, Leading zero omitted, Abs format (unit mm)*
G04 Created by KiCad (PCBNEW 7.0.10-7.0.10~ubuntu22.04.1) date 2024-01-03 18:25:55*
%MOMM*%
%LPD*%
G01*
G04 APERTURE LIST*
%ADD10C,0.150000*%
%ADD11C,0.175000*%
%ADD12C,0.120000*%
%ADD13C,0.002540*%
%ADD14C,0.200000*%
%ADD15R,1.300000X1.300000*%
%ADD16C,1.300000*%
%ADD17R,1.600000X1.600000*%
%ADD18C,1.600000*%
%ADD19O,1.600000X1.600000*%
%ADD20C,0.800000*%
%ADD21C,6.400000*%
%ADD22R,1.700000X1.700000*%
%ADD23O,1.700000X1.700000*%
G04 APERTURE END LIST*
D10*
X103222493Y-81250771D02*
X103174874Y-81203152D01*
X103174874Y-81203152D02*
X103079636Y-81060295D01*
X103079636Y-81060295D02*
X103032017Y-80965057D01*
X103032017Y-80965057D02*
X102984398Y-80822200D01*
X102984398Y-80822200D02*
X102936779Y-80584104D01*
X102936779Y-80584104D02*
X102936779Y-80393628D01*
X102936779Y-80393628D02*
X102984398Y-80155533D01*
X102984398Y-80155533D02*
X103032017Y-80012676D01*
X103032017Y-80012676D02*
X103079636Y-79917438D01*
X103079636Y-79917438D02*
X103174874Y-79774580D01*
X103174874Y-79774580D02*
X103222493Y-79726961D01*
X104079636Y-79869819D02*
X103603446Y-79869819D01*
X103603446Y-79869819D02*
X103555827Y-80346009D01*
X103555827Y-80346009D02*
X103603446Y-80298390D01*
X103603446Y-80298390D02*
X103698684Y-80250771D01*
X103698684Y-80250771D02*
X103936779Y-80250771D01*
X103936779Y-80250771D02*
X104032017Y-80298390D01*
X104032017Y-80298390D02*
X104079636Y-80346009D01*
X104079636Y-80346009D02*
X104127255Y-80441247D01*
X104127255Y-80441247D02*
X104127255Y-80679342D01*
X104127255Y-80679342D02*
X104079636Y-80774580D01*
X104079636Y-80774580D02*
X104032017Y-80822200D01*
X104032017Y-80822200D02*
X103936779Y-80869819D01*
X103936779Y-80869819D02*
X103698684Y-80869819D01*
X103698684Y-80869819D02*
X103603446Y-80822200D01*
X103603446Y-80822200D02*
X103555827Y-80774580D01*
X104746303Y-79869819D02*
X104841541Y-79869819D01*
X104841541Y-79869819D02*
X104936779Y-79917438D01*
X104936779Y-79917438D02*
X104984398Y-79965057D01*
X104984398Y-79965057D02*
X105032017Y-80060295D01*
X105032017Y-80060295D02*
X105079636Y-80250771D01*
X105079636Y-80250771D02*
X105079636Y-80488866D01*
X105079636Y-80488866D02*
X105032017Y-80679342D01*
X105032017Y-80679342D02*
X104984398Y-80774580D01*
X104984398Y-80774580D02*
X104936779Y-80822200D01*
X104936779Y-80822200D02*
X104841541Y-80869819D01*
X104841541Y-80869819D02*
X104746303Y-80869819D01*
X104746303Y-80869819D02*
X104651065Y-80822200D01*
X104651065Y-80822200D02*
X104603446Y-80774580D01*
X104603446Y-80774580D02*
X104555827Y-80679342D01*
X104555827Y-80679342D02*
X104508208Y-80488866D01*
X104508208Y-80488866D02*
X104508208Y-80250771D01*
X104508208Y-80250771D02*
X104555827Y-80060295D01*
X104555827Y-80060295D02*
X104603446Y-79965057D01*
X104603446Y-79965057D02*
X104651065Y-79917438D01*
X104651065Y-79917438D02*
X104746303Y-79869819D01*
X106222494Y-80869819D02*
X106460589Y-80869819D01*
X106460589Y-80869819D02*
X106460589Y-80679342D01*
X106460589Y-80679342D02*
X106365351Y-80631723D01*
X106365351Y-80631723D02*
X106270113Y-80536485D01*
X106270113Y-80536485D02*
X106222494Y-80393628D01*
X106222494Y-80393628D02*
X106222494Y-80155533D01*
X106222494Y-80155533D02*
X106270113Y-80012676D01*
X106270113Y-80012676D02*
X106365351Y-79917438D01*
X106365351Y-79917438D02*
X106508208Y-79869819D01*
X106508208Y-79869819D02*
X106698684Y-79869819D01*
X106698684Y-79869819D02*
X106841541Y-79917438D01*
X106841541Y-79917438D02*
X106936779Y-80012676D01*
X106936779Y-80012676D02*
X106984398Y-80155533D01*
X106984398Y-80155533D02*
X106984398Y-80393628D01*
X106984398Y-80393628D02*
X106936779Y-80536485D01*
X106936779Y-80536485D02*
X106841541Y-80631723D01*
X106841541Y-80631723D02*
X106746303Y-80679342D01*
X106746303Y-80679342D02*
X106746303Y-80869819D01*
X106746303Y-80869819D02*
X106984398Y-80869819D01*
X107317732Y-81250771D02*
X107365351Y-81203152D01*
X107365351Y-81203152D02*
X107460589Y-81060295D01*
X107460589Y-81060295D02*
X107508208Y-80965057D01*
X107508208Y-80965057D02*
X107555827Y-80822200D01*
X107555827Y-80822200D02*
X107603446Y-80584104D01*
X107603446Y-80584104D02*
X107603446Y-80393628D01*
X107603446Y-80393628D02*
X107555827Y-80155533D01*
X107555827Y-80155533D02*
X107508208Y-80012676D01*
X107508208Y-80012676D02*
X107460589Y-79917438D01*
X107460589Y-79917438D02*
X107365351Y-79774580D01*
X107365351Y-79774580D02*
X107317732Y-79726961D01*
D11*
X109281797Y-96131757D02*
X109281797Y-95231757D01*
X109281797Y-95231757D02*
X109548464Y-95231757D01*
X109548464Y-95231757D02*
X109615131Y-95274614D01*
X109615131Y-95274614D02*
X109648464Y-95317471D01*
X109648464Y-95317471D02*
X109681797Y-95403185D01*
X109681797Y-95403185D02*
X109681797Y-95531757D01*
X109681797Y-95531757D02*
X109648464Y-95617471D01*
X109648464Y-95617471D02*
X109615131Y-95660328D01*
X109615131Y-95660328D02*
X109548464Y-95703185D01*
X109548464Y-95703185D02*
X109281797Y-95703185D01*
X109981797Y-96131757D02*
X109981797Y-95531757D01*
X109981797Y-95703185D02*
X110015131Y-95617471D01*
X110015131Y-95617471D02*
X110048464Y-95574614D01*
X110048464Y-95574614D02*
X110115131Y-95531757D01*
X110115131Y-95531757D02*
X110181797Y-95531757D01*
X110515130Y-96131757D02*
X110448464Y-96088900D01*
X110448464Y-96088900D02*
X110415130Y-96046042D01*
X110415130Y-96046042D02*
X110381797Y-95960328D01*
X110381797Y-95960328D02*
X110381797Y-95703185D01*
X110381797Y-95703185D02*
X110415130Y-95617471D01*
X110415130Y-95617471D02*
X110448464Y-95574614D01*
X110448464Y-95574614D02*
X110515130Y-95531757D01*
X110515130Y-95531757D02*
X110615130Y-95531757D01*
X110615130Y-95531757D02*
X110681797Y-95574614D01*
X110681797Y-95574614D02*
X110715130Y-95617471D01*
X110715130Y-95617471D02*
X110748464Y-95703185D01*
X110748464Y-95703185D02*
X110748464Y-95960328D01*
X110748464Y-95960328D02*
X110715130Y-96046042D01*
X110715130Y-96046042D02*
X110681797Y-96088900D01*
X110681797Y-96088900D02*
X110615130Y-96131757D01*
X110615130Y-96131757D02*
X110515130Y-96131757D01*
X111048463Y-95531757D02*
X111048463Y-96303185D01*
X111048463Y-96303185D02*
X111015130Y-96388900D01*
X111015130Y-96388900D02*
X110948463Y-96431757D01*
X110948463Y-96431757D02*
X110915130Y-96431757D01*
X111048463Y-95231757D02*
X111015130Y-95274614D01*
X111015130Y-95274614D02*
X111048463Y-95317471D01*
X111048463Y-95317471D02*
X111081797Y-95274614D01*
X111081797Y-95274614D02*
X111048463Y-95231757D01*
X111048463Y-95231757D02*
X111048463Y-95317471D01*
X111648463Y-96088900D02*
X111581796Y-96131757D01*
X111581796Y-96131757D02*
X111448463Y-96131757D01*
X111448463Y-96131757D02*
X111381796Y-96088900D01*
X111381796Y-96088900D02*
X111348463Y-96003185D01*
X111348463Y-96003185D02*
X111348463Y-95660328D01*
X111348463Y-95660328D02*
X111381796Y-95574614D01*
X111381796Y-95574614D02*
X111448463Y-95531757D01*
X111448463Y-95531757D02*
X111581796Y-95531757D01*
X111581796Y-95531757D02*
X111648463Y-95574614D01*
X111648463Y-95574614D02*
X111681796Y-95660328D01*
X111681796Y-95660328D02*
X111681796Y-95746042D01*
X111681796Y-95746042D02*
X111348463Y-95831757D01*
X112281796Y-96088900D02*
X112215130Y-96131757D01*
X112215130Y-96131757D02*
X112081796Y-96131757D01*
X112081796Y-96131757D02*
X112015130Y-96088900D01*
X112015130Y-96088900D02*
X111981796Y-96046042D01*
X111981796Y-96046042D02*
X111948463Y-95960328D01*
X111948463Y-95960328D02*
X111948463Y-95703185D01*
X111948463Y-95703185D02*
X111981796Y-95617471D01*
X111981796Y-95617471D02*
X112015130Y-95574614D01*
X112015130Y-95574614D02*
X112081796Y-95531757D01*
X112081796Y-95531757D02*
X112215130Y-95531757D01*
X112215130Y-95531757D02*
X112281796Y-95574614D01*
X112481796Y-95531757D02*
X112748463Y-95531757D01*
X112581796Y-95231757D02*
X112581796Y-96003185D01*
X112581796Y-96003185D02*
X112615130Y-96088900D01*
X112615130Y-96088900D02*
X112681796Y-96131757D01*
X112681796Y-96131757D02*
X112748463Y-96131757D01*
X113648463Y-95703185D02*
X113648463Y-96131757D01*
X113415129Y-95231757D02*
X113648463Y-95703185D01*
X113648463Y-95703185D02*
X113881796Y-95231757D01*
X114415129Y-96131757D02*
X114415129Y-95660328D01*
X114415129Y-95660328D02*
X114381796Y-95574614D01*
X114381796Y-95574614D02*
X114315129Y-95531757D01*
X114315129Y-95531757D02*
X114181796Y-95531757D01*
X114181796Y-95531757D02*
X114115129Y-95574614D01*
X114415129Y-96088900D02*
X114348463Y-96131757D01*
X114348463Y-96131757D02*
X114181796Y-96131757D01*
X114181796Y-96131757D02*
X114115129Y-96088900D01*
X114115129Y-96088900D02*
X114081796Y-96003185D01*
X114081796Y-96003185D02*
X114081796Y-95917471D01*
X114081796Y-95917471D02*
X114115129Y-95831757D01*
X114115129Y-95831757D02*
X114181796Y-95788900D01*
X114181796Y-95788900D02*
X114348463Y-95788900D01*
X114348463Y-95788900D02*
X114415129Y-95746042D01*
X114748462Y-96131757D02*
X114748462Y-95531757D01*
X114748462Y-95617471D02*
X114781796Y-95574614D01*
X114781796Y-95574614D02*
X114848462Y-95531757D01*
X114848462Y-95531757D02*
X114948462Y-95531757D01*
X114948462Y-95531757D02*
X115015129Y-95574614D01*
X115015129Y-95574614D02*
X115048462Y-95660328D01*
X115048462Y-95660328D02*
X115048462Y-96131757D01*
X115048462Y-95660328D02*
X115081796Y-95574614D01*
X115081796Y-95574614D02*
X115148462Y-95531757D01*
X115148462Y-95531757D02*
X115248462Y-95531757D01*
X115248462Y-95531757D02*
X115315129Y-95574614D01*
X115315129Y-95574614D02*
X115348462Y-95660328D01*
X115348462Y-95660328D02*
X115348462Y-96131757D01*
X115681795Y-96131757D02*
X115681795Y-95231757D01*
X115981795Y-96131757D02*
X115981795Y-95660328D01*
X115981795Y-95660328D02*
X115948462Y-95574614D01*
X115948462Y-95574614D02*
X115881795Y-95531757D01*
X115881795Y-95531757D02*
X115781795Y-95531757D01*
X115781795Y-95531757D02*
X115715129Y-95574614D01*
X115715129Y-95574614D02*
X115681795Y-95617471D01*
X116315128Y-96131757D02*
X116315128Y-95531757D01*
X116315128Y-95231757D02*
X116281795Y-95274614D01*
X116281795Y-95274614D02*
X116315128Y-95317471D01*
X116315128Y-95317471D02*
X116348462Y-95274614D01*
X116348462Y-95274614D02*
X116315128Y-95231757D01*
X116315128Y-95231757D02*
X116315128Y-95317471D01*
X116748461Y-96131757D02*
X116681795Y-96088900D01*
X116681795Y-96088900D02*
X116648461Y-96003185D01*
X116648461Y-96003185D02*
X116648461Y-95231757D01*
X117115128Y-96131757D02*
X117048462Y-96088900D01*
X117048462Y-96088900D02*
X117015128Y-96003185D01*
X117015128Y-96003185D02*
X117015128Y-95231757D01*
X109681797Y-97495042D02*
X109648464Y-97537900D01*
X109648464Y-97537900D02*
X109548464Y-97580757D01*
X109548464Y-97580757D02*
X109481797Y-97580757D01*
X109481797Y-97580757D02*
X109381797Y-97537900D01*
X109381797Y-97537900D02*
X109315131Y-97452185D01*
X109315131Y-97452185D02*
X109281797Y-97366471D01*
X109281797Y-97366471D02*
X109248464Y-97195042D01*
X109248464Y-97195042D02*
X109248464Y-97066471D01*
X109248464Y-97066471D02*
X109281797Y-96895042D01*
X109281797Y-96895042D02*
X109315131Y-96809328D01*
X109315131Y-96809328D02*
X109381797Y-96723614D01*
X109381797Y-96723614D02*
X109481797Y-96680757D01*
X109481797Y-96680757D02*
X109548464Y-96680757D01*
X109548464Y-96680757D02*
X109648464Y-96723614D01*
X109648464Y-96723614D02*
X109681797Y-96766471D01*
X109981797Y-97580757D02*
X109981797Y-96980757D01*
X109981797Y-97152185D02*
X110015131Y-97066471D01*
X110015131Y-97066471D02*
X110048464Y-97023614D01*
X110048464Y-97023614D02*
X110115131Y-96980757D01*
X110115131Y-96980757D02*
X110181797Y-96980757D01*
X110681797Y-97537900D02*
X110615130Y-97580757D01*
X110615130Y-97580757D02*
X110481797Y-97580757D01*
X110481797Y-97580757D02*
X110415130Y-97537900D01*
X110415130Y-97537900D02*
X110381797Y-97452185D01*
X110381797Y-97452185D02*
X110381797Y-97109328D01*
X110381797Y-97109328D02*
X110415130Y-97023614D01*
X110415130Y-97023614D02*
X110481797Y-96980757D01*
X110481797Y-96980757D02*
X110615130Y-96980757D01*
X110615130Y-96980757D02*
X110681797Y-97023614D01*
X110681797Y-97023614D02*
X110715130Y-97109328D01*
X110715130Y-97109328D02*
X110715130Y-97195042D01*
X110715130Y-97195042D02*
X110381797Y-97280757D01*
X111315130Y-97580757D02*
X111315130Y-97109328D01*
X111315130Y-97109328D02*
X111281797Y-97023614D01*
X111281797Y-97023614D02*
X111215130Y-96980757D01*
X111215130Y-96980757D02*
X111081797Y-96980757D01*
X111081797Y-96980757D02*
X111015130Y-97023614D01*
X111315130Y-97537900D02*
X111248464Y-97580757D01*
X111248464Y-97580757D02*
X111081797Y-97580757D01*
X111081797Y-97580757D02*
X111015130Y-97537900D01*
X111015130Y-97537900D02*
X110981797Y-97452185D01*
X110981797Y-97452185D02*
X110981797Y-97366471D01*
X110981797Y-97366471D02*
X111015130Y-97280757D01*
X111015130Y-97280757D02*
X111081797Y-97237900D01*
X111081797Y-97237900D02*
X111248464Y-97237900D01*
X111248464Y-97237900D02*
X111315130Y-97195042D01*
X111548463Y-96980757D02*
X111815130Y-96980757D01*
X111648463Y-96680757D02*
X111648463Y-97452185D01*
X111648463Y-97452185D02*
X111681797Y-97537900D01*
X111681797Y-97537900D02*
X111748463Y-97580757D01*
X111748463Y-97580757D02*
X111815130Y-97580757D01*
X112048463Y-97580757D02*
X112048463Y-96980757D01*
X112048463Y-96680757D02*
X112015130Y-96723614D01*
X112015130Y-96723614D02*
X112048463Y-96766471D01*
X112048463Y-96766471D02*
X112081797Y-96723614D01*
X112081797Y-96723614D02*
X112048463Y-96680757D01*
X112048463Y-96680757D02*
X112048463Y-96766471D01*
X112315130Y-96980757D02*
X112481796Y-97580757D01*
X112481796Y-97580757D02*
X112648463Y-96980757D01*
X113181796Y-97537900D02*
X113115129Y-97580757D01*
X113115129Y-97580757D02*
X112981796Y-97580757D01*
X112981796Y-97580757D02*
X112915129Y-97537900D01*
X112915129Y-97537900D02*
X112881796Y-97452185D01*
X112881796Y-97452185D02*
X112881796Y-97109328D01*
X112881796Y-97109328D02*
X112915129Y-97023614D01*
X112915129Y-97023614D02*
X112981796Y-96980757D01*
X112981796Y-96980757D02*
X113115129Y-96980757D01*
X113115129Y-96980757D02*
X113181796Y-97023614D01*
X113181796Y-97023614D02*
X113215129Y-97109328D01*
X113215129Y-97109328D02*
X113215129Y-97195042D01*
X113215129Y-97195042D02*
X112881796Y-97280757D01*
X114448462Y-97495042D02*
X114415129Y-97537900D01*
X114415129Y-97537900D02*
X114315129Y-97580757D01*
X114315129Y-97580757D02*
X114248462Y-97580757D01*
X114248462Y-97580757D02*
X114148462Y-97537900D01*
X114148462Y-97537900D02*
X114081796Y-97452185D01*
X114081796Y-97452185D02*
X114048462Y-97366471D01*
X114048462Y-97366471D02*
X114015129Y-97195042D01*
X114015129Y-97195042D02*
X114015129Y-97066471D01*
X114015129Y-97066471D02*
X114048462Y-96895042D01*
X114048462Y-96895042D02*
X114081796Y-96809328D01*
X114081796Y-96809328D02*
X114148462Y-96723614D01*
X114148462Y-96723614D02*
X114248462Y-96680757D01*
X114248462Y-96680757D02*
X114315129Y-96680757D01*
X114315129Y-96680757D02*
X114415129Y-96723614D01*
X114415129Y-96723614D02*
X114448462Y-96766471D01*
X114848462Y-97580757D02*
X114781796Y-97537900D01*
X114781796Y-97537900D02*
X114748462Y-97495042D01*
X114748462Y-97495042D02*
X114715129Y-97409328D01*
X114715129Y-97409328D02*
X114715129Y-97152185D01*
X114715129Y-97152185D02*
X114748462Y-97066471D01*
X114748462Y-97066471D02*
X114781796Y-97023614D01*
X114781796Y-97023614D02*
X114848462Y-96980757D01*
X114848462Y-96980757D02*
X114948462Y-96980757D01*
X114948462Y-96980757D02*
X115015129Y-97023614D01*
X115015129Y-97023614D02*
X115048462Y-97066471D01*
X115048462Y-97066471D02*
X115081796Y-97152185D01*
X115081796Y-97152185D02*
X115081796Y-97409328D01*
X115081796Y-97409328D02*
X115048462Y-97495042D01*
X115048462Y-97495042D02*
X115015129Y-97537900D01*
X115015129Y-97537900D02*
X114948462Y-97580757D01*
X114948462Y-97580757D02*
X114848462Y-97580757D01*
X115381795Y-97580757D02*
X115381795Y-96980757D01*
X115381795Y-97066471D02*
X115415129Y-97023614D01*
X115415129Y-97023614D02*
X115481795Y-96980757D01*
X115481795Y-96980757D02*
X115581795Y-96980757D01*
X115581795Y-96980757D02*
X115648462Y-97023614D01*
X115648462Y-97023614D02*
X115681795Y-97109328D01*
X115681795Y-97109328D02*
X115681795Y-97580757D01*
X115681795Y-97109328D02*
X115715129Y-97023614D01*
X115715129Y-97023614D02*
X115781795Y-96980757D01*
X115781795Y-96980757D02*
X115881795Y-96980757D01*
X115881795Y-96980757D02*
X115948462Y-97023614D01*
X115948462Y-97023614D02*
X115981795Y-97109328D01*
X115981795Y-97109328D02*
X115981795Y-97580757D01*
X116315128Y-97580757D02*
X116315128Y-96980757D01*
X116315128Y-97066471D02*
X116348462Y-97023614D01*
X116348462Y-97023614D02*
X116415128Y-96980757D01*
X116415128Y-96980757D02*
X116515128Y-96980757D01*
X116515128Y-96980757D02*
X116581795Y-97023614D01*
X116581795Y-97023614D02*
X116615128Y-97109328D01*
X116615128Y-97109328D02*
X116615128Y-97580757D01*
X116615128Y-97109328D02*
X116648462Y-97023614D01*
X116648462Y-97023614D02*
X116715128Y-96980757D01*
X116715128Y-96980757D02*
X116815128Y-96980757D01*
X116815128Y-96980757D02*
X116881795Y-97023614D01*
X116881795Y-97023614D02*
X116915128Y-97109328D01*
X116915128Y-97109328D02*
X116915128Y-97580757D01*
X117348461Y-97580757D02*
X117281795Y-97537900D01*
X117281795Y-97537900D02*
X117248461Y-97495042D01*
X117248461Y-97495042D02*
X117215128Y-97409328D01*
X117215128Y-97409328D02*
X117215128Y-97152185D01*
X117215128Y-97152185D02*
X117248461Y-97066471D01*
X117248461Y-97066471D02*
X117281795Y-97023614D01*
X117281795Y-97023614D02*
X117348461Y-96980757D01*
X117348461Y-96980757D02*
X117448461Y-96980757D01*
X117448461Y-96980757D02*
X117515128Y-97023614D01*
X117515128Y-97023614D02*
X117548461Y-97066471D01*
X117548461Y-97066471D02*
X117581795Y-97152185D01*
X117581795Y-97152185D02*
X117581795Y-97409328D01*
X117581795Y-97409328D02*
X117548461Y-97495042D01*
X117548461Y-97495042D02*
X117515128Y-97537900D01*
X117515128Y-97537900D02*
X117448461Y-97580757D01*
X117448461Y-97580757D02*
X117348461Y-97580757D01*
X117881794Y-96980757D02*
X117881794Y-97580757D01*
X117881794Y-97066471D02*
X117915128Y-97023614D01*
X117915128Y-97023614D02*
X117981794Y-96980757D01*
X117981794Y-96980757D02*
X118081794Y-96980757D01*
X118081794Y-96980757D02*
X118148461Y-97023614D01*
X118148461Y-97023614D02*
X118181794Y-97109328D01*
X118181794Y-97109328D02*
X118181794Y-97580757D01*
X118481794Y-97537900D02*
X118548461Y-97580757D01*
X118548461Y-97580757D02*
X118681794Y-97580757D01*
X118681794Y-97580757D02*
X118748461Y-97537900D01*
X118748461Y-97537900D02*
X118781794Y-97452185D01*
X118781794Y-97452185D02*
X118781794Y-97409328D01*
X118781794Y-97409328D02*
X118748461Y-97323614D01*
X118748461Y-97323614D02*
X118681794Y-97280757D01*
X118681794Y-97280757D02*
X118581794Y-97280757D01*
X118581794Y-97280757D02*
X118515127Y-97237900D01*
X118515127Y-97237900D02*
X118481794Y-97152185D01*
X118481794Y-97152185D02*
X118481794Y-97109328D01*
X118481794Y-97109328D02*
X118515127Y-97023614D01*
X118515127Y-97023614D02*
X118581794Y-96980757D01*
X118581794Y-96980757D02*
X118681794Y-96980757D01*
X118681794Y-96980757D02*
X118748461Y-97023614D01*
X120015127Y-97495042D02*
X119981794Y-97537900D01*
X119981794Y-97537900D02*
X119881794Y-97580757D01*
X119881794Y-97580757D02*
X119815127Y-97580757D01*
X119815127Y-97580757D02*
X119715127Y-97537900D01*
X119715127Y-97537900D02*
X119648461Y-97452185D01*
X119648461Y-97452185D02*
X119615127Y-97366471D01*
X119615127Y-97366471D02*
X119581794Y-97195042D01*
X119581794Y-97195042D02*
X119581794Y-97066471D01*
X119581794Y-97066471D02*
X119615127Y-96895042D01*
X119615127Y-96895042D02*
X119648461Y-96809328D01*
X119648461Y-96809328D02*
X119715127Y-96723614D01*
X119715127Y-96723614D02*
X119815127Y-96680757D01*
X119815127Y-96680757D02*
X119881794Y-96680757D01*
X119881794Y-96680757D02*
X119981794Y-96723614D01*
X119981794Y-96723614D02*
X120015127Y-96766471D01*
X120715127Y-97495042D02*
X120681794Y-97537900D01*
X120681794Y-97537900D02*
X120581794Y-97580757D01*
X120581794Y-97580757D02*
X120515127Y-97580757D01*
X120515127Y-97580757D02*
X120415127Y-97537900D01*
X120415127Y-97537900D02*
X120348461Y-97452185D01*
X120348461Y-97452185D02*
X120315127Y-97366471D01*
X120315127Y-97366471D02*
X120281794Y-97195042D01*
X120281794Y-97195042D02*
X120281794Y-97066471D01*
X120281794Y-97066471D02*
X120315127Y-96895042D01*
X120315127Y-96895042D02*
X120348461Y-96809328D01*
X120348461Y-96809328D02*
X120415127Y-96723614D01*
X120415127Y-96723614D02*
X120515127Y-96680757D01*
X120515127Y-96680757D02*
X120581794Y-96680757D01*
X120581794Y-96680757D02*
X120681794Y-96723614D01*
X120681794Y-96723614D02*
X120715127Y-96766471D01*
X121015127Y-97237900D02*
X121548461Y-97237900D01*
X122115128Y-97109328D02*
X122215128Y-97152185D01*
X122215128Y-97152185D02*
X122248461Y-97195042D01*
X122248461Y-97195042D02*
X122281794Y-97280757D01*
X122281794Y-97280757D02*
X122281794Y-97409328D01*
X122281794Y-97409328D02*
X122248461Y-97495042D01*
X122248461Y-97495042D02*
X122215128Y-97537900D01*
X122215128Y-97537900D02*
X122148461Y-97580757D01*
X122148461Y-97580757D02*
X121881794Y-97580757D01*
X121881794Y-97580757D02*
X121881794Y-96680757D01*
X121881794Y-96680757D02*
X122115128Y-96680757D01*
X122115128Y-96680757D02*
X122181794Y-96723614D01*
X122181794Y-96723614D02*
X122215128Y-96766471D01*
X122215128Y-96766471D02*
X122248461Y-96852185D01*
X122248461Y-96852185D02*
X122248461Y-96937900D01*
X122248461Y-96937900D02*
X122215128Y-97023614D01*
X122215128Y-97023614D02*
X122181794Y-97066471D01*
X122181794Y-97066471D02*
X122115128Y-97109328D01*
X122115128Y-97109328D02*
X121881794Y-97109328D01*
X122715128Y-97152185D02*
X122715128Y-97580757D01*
X122481794Y-96680757D02*
X122715128Y-97152185D01*
X122715128Y-97152185D02*
X122948461Y-96680757D01*
X123181794Y-97237900D02*
X123715128Y-97237900D01*
X124015128Y-97537900D02*
X124115128Y-97580757D01*
X124115128Y-97580757D02*
X124281795Y-97580757D01*
X124281795Y-97580757D02*
X124348461Y-97537900D01*
X124348461Y-97537900D02*
X124381795Y-97495042D01*
X124381795Y-97495042D02*
X124415128Y-97409328D01*
X124415128Y-97409328D02*
X124415128Y-97323614D01*
X124415128Y-97323614D02*
X124381795Y-97237900D01*
X124381795Y-97237900D02*
X124348461Y-97195042D01*
X124348461Y-97195042D02*
X124281795Y-97152185D01*
X124281795Y-97152185D02*
X124148461Y-97109328D01*
X124148461Y-97109328D02*
X124081795Y-97066471D01*
X124081795Y-97066471D02*
X124048461Y-97023614D01*
X124048461Y-97023614D02*
X124015128Y-96937900D01*
X124015128Y-96937900D02*
X124015128Y-96852185D01*
X124015128Y-96852185D02*
X124048461Y-96766471D01*
X124048461Y-96766471D02*
X124081795Y-96723614D01*
X124081795Y-96723614D02*
X124148461Y-96680757D01*
X124148461Y-96680757D02*
X124315128Y-96680757D01*
X124315128Y-96680757D02*
X124415128Y-96723614D01*
X124681795Y-97323614D02*
X125015128Y-97323614D01*
X124615128Y-97580757D02*
X124848462Y-96680757D01*
X124848462Y-96680757D02*
X125081795Y-97580757D01*
X126148461Y-96980757D02*
X126148461Y-97580757D01*
X125981795Y-96637900D02*
X125815128Y-97280757D01*
X125815128Y-97280757D02*
X126248461Y-97280757D01*
X126515128Y-97495042D02*
X126548462Y-97537900D01*
X126548462Y-97537900D02*
X126515128Y-97580757D01*
X126515128Y-97580757D02*
X126481795Y-97537900D01*
X126481795Y-97537900D02*
X126515128Y-97495042D01*
X126515128Y-97495042D02*
X126515128Y-97580757D01*
X126981795Y-96680757D02*
X127048461Y-96680757D01*
X127048461Y-96680757D02*
X127115128Y-96723614D01*
X127115128Y-96723614D02*
X127148461Y-96766471D01*
X127148461Y-96766471D02*
X127181795Y-96852185D01*
X127181795Y-96852185D02*
X127215128Y-97023614D01*
X127215128Y-97023614D02*
X127215128Y-97237900D01*
X127215128Y-97237900D02*
X127181795Y-97409328D01*
X127181795Y-97409328D02*
X127148461Y-97495042D01*
X127148461Y-97495042D02*
X127115128Y-97537900D01*
X127115128Y-97537900D02*
X127048461Y-97580757D01*
X127048461Y-97580757D02*
X126981795Y-97580757D01*
X126981795Y-97580757D02*
X126915128Y-97537900D01*
X126915128Y-97537900D02*
X126881795Y-97495042D01*
X126881795Y-97495042D02*
X126848461Y-97409328D01*
X126848461Y-97409328D02*
X126815128Y-97237900D01*
X126815128Y-97237900D02*
X126815128Y-97023614D01*
X126815128Y-97023614D02*
X126848461Y-96852185D01*
X126848461Y-96852185D02*
X126881795Y-96766471D01*
X126881795Y-96766471D02*
X126915128Y-96723614D01*
X126915128Y-96723614D02*
X126981795Y-96680757D01*
X109548464Y-53074614D02*
X109881797Y-53074614D01*
X109481797Y-53331757D02*
X109715131Y-52431757D01*
X109715131Y-52431757D02*
X109948464Y-53331757D01*
X110415131Y-52860328D02*
X110181797Y-52860328D01*
X110181797Y-53331757D02*
X110181797Y-52431757D01*
X110181797Y-52431757D02*
X110515131Y-52431757D01*
X111548464Y-52860328D02*
X111315130Y-52860328D01*
X111315130Y-53331757D02*
X111315130Y-52431757D01*
X111315130Y-52431757D02*
X111648464Y-52431757D01*
X112181797Y-53288900D02*
X112115130Y-53331757D01*
X112115130Y-53331757D02*
X111981797Y-53331757D01*
X111981797Y-53331757D02*
X111915130Y-53288900D01*
X111915130Y-53288900D02*
X111881797Y-53203185D01*
X111881797Y-53203185D02*
X111881797Y-52860328D01*
X111881797Y-52860328D02*
X111915130Y-52774614D01*
X111915130Y-52774614D02*
X111981797Y-52731757D01*
X111981797Y-52731757D02*
X112115130Y-52731757D01*
X112115130Y-52731757D02*
X112181797Y-52774614D01*
X112181797Y-52774614D02*
X112215130Y-52860328D01*
X112215130Y-52860328D02*
X112215130Y-52946042D01*
X112215130Y-52946042D02*
X111881797Y-53031757D01*
X112781797Y-53288900D02*
X112715130Y-53331757D01*
X112715130Y-53331757D02*
X112581797Y-53331757D01*
X112581797Y-53331757D02*
X112515130Y-53288900D01*
X112515130Y-53288900D02*
X112481797Y-53203185D01*
X112481797Y-53203185D02*
X112481797Y-52860328D01*
X112481797Y-52860328D02*
X112515130Y-52774614D01*
X112515130Y-52774614D02*
X112581797Y-52731757D01*
X112581797Y-52731757D02*
X112715130Y-52731757D01*
X112715130Y-52731757D02*
X112781797Y-52774614D01*
X112781797Y-52774614D02*
X112815130Y-52860328D01*
X112815130Y-52860328D02*
X112815130Y-52946042D01*
X112815130Y-52946042D02*
X112481797Y-53031757D01*
X113415130Y-53331757D02*
X113415130Y-52431757D01*
X113415130Y-53288900D02*
X113348464Y-53331757D01*
X113348464Y-53331757D02*
X113215130Y-53331757D01*
X113215130Y-53331757D02*
X113148464Y-53288900D01*
X113148464Y-53288900D02*
X113115130Y-53246042D01*
X113115130Y-53246042D02*
X113081797Y-53160328D01*
X113081797Y-53160328D02*
X113081797Y-52903185D01*
X113081797Y-52903185D02*
X113115130Y-52817471D01*
X113115130Y-52817471D02*
X113148464Y-52774614D01*
X113148464Y-52774614D02*
X113215130Y-52731757D01*
X113215130Y-52731757D02*
X113348464Y-52731757D01*
X113348464Y-52731757D02*
X113415130Y-52774614D01*
X113748463Y-53331757D02*
X113748463Y-52431757D01*
X113748463Y-52774614D02*
X113815130Y-52731757D01*
X113815130Y-52731757D02*
X113948463Y-52731757D01*
X113948463Y-52731757D02*
X114015130Y-52774614D01*
X114015130Y-52774614D02*
X114048463Y-52817471D01*
X114048463Y-52817471D02*
X114081797Y-52903185D01*
X114081797Y-52903185D02*
X114081797Y-53160328D01*
X114081797Y-53160328D02*
X114048463Y-53246042D01*
X114048463Y-53246042D02*
X114015130Y-53288900D01*
X114015130Y-53288900D02*
X113948463Y-53331757D01*
X113948463Y-53331757D02*
X113815130Y-53331757D01*
X113815130Y-53331757D02*
X113748463Y-53288900D01*
X114681796Y-53331757D02*
X114681796Y-52860328D01*
X114681796Y-52860328D02*
X114648463Y-52774614D01*
X114648463Y-52774614D02*
X114581796Y-52731757D01*
X114581796Y-52731757D02*
X114448463Y-52731757D01*
X114448463Y-52731757D02*
X114381796Y-52774614D01*
X114681796Y-53288900D02*
X114615130Y-53331757D01*
X114615130Y-53331757D02*
X114448463Y-53331757D01*
X114448463Y-53331757D02*
X114381796Y-53288900D01*
X114381796Y-53288900D02*
X114348463Y-53203185D01*
X114348463Y-53203185D02*
X114348463Y-53117471D01*
X114348463Y-53117471D02*
X114381796Y-53031757D01*
X114381796Y-53031757D02*
X114448463Y-52988900D01*
X114448463Y-52988900D02*
X114615130Y-52988900D01*
X114615130Y-52988900D02*
X114681796Y-52946042D01*
X115315129Y-53288900D02*
X115248463Y-53331757D01*
X115248463Y-53331757D02*
X115115129Y-53331757D01*
X115115129Y-53331757D02*
X115048463Y-53288900D01*
X115048463Y-53288900D02*
X115015129Y-53246042D01*
X115015129Y-53246042D02*
X114981796Y-53160328D01*
X114981796Y-53160328D02*
X114981796Y-52903185D01*
X114981796Y-52903185D02*
X115015129Y-52817471D01*
X115015129Y-52817471D02*
X115048463Y-52774614D01*
X115048463Y-52774614D02*
X115115129Y-52731757D01*
X115115129Y-52731757D02*
X115248463Y-52731757D01*
X115248463Y-52731757D02*
X115315129Y-52774614D01*
X115615129Y-53331757D02*
X115615129Y-52431757D01*
X115681796Y-52988900D02*
X115881796Y-53331757D01*
X115881796Y-52731757D02*
X115615129Y-53074614D01*
X116681796Y-53074614D02*
X117015129Y-53074614D01*
X116615129Y-53331757D02*
X116848463Y-52431757D01*
X116848463Y-52431757D02*
X117081796Y-53331757D01*
X117315129Y-53331757D02*
X117315129Y-52731757D01*
X117315129Y-52817471D02*
X117348463Y-52774614D01*
X117348463Y-52774614D02*
X117415129Y-52731757D01*
X117415129Y-52731757D02*
X117515129Y-52731757D01*
X117515129Y-52731757D02*
X117581796Y-52774614D01*
X117581796Y-52774614D02*
X117615129Y-52860328D01*
X117615129Y-52860328D02*
X117615129Y-53331757D01*
X117615129Y-52860328D02*
X117648463Y-52774614D01*
X117648463Y-52774614D02*
X117715129Y-52731757D01*
X117715129Y-52731757D02*
X117815129Y-52731757D01*
X117815129Y-52731757D02*
X117881796Y-52774614D01*
X117881796Y-52774614D02*
X117915129Y-52860328D01*
X117915129Y-52860328D02*
X117915129Y-53331757D01*
X118248462Y-52731757D02*
X118248462Y-53631757D01*
X118248462Y-52774614D02*
X118315129Y-52731757D01*
X118315129Y-52731757D02*
X118448462Y-52731757D01*
X118448462Y-52731757D02*
X118515129Y-52774614D01*
X118515129Y-52774614D02*
X118548462Y-52817471D01*
X118548462Y-52817471D02*
X118581796Y-52903185D01*
X118581796Y-52903185D02*
X118581796Y-53160328D01*
X118581796Y-53160328D02*
X118548462Y-53246042D01*
X118548462Y-53246042D02*
X118515129Y-53288900D01*
X118515129Y-53288900D02*
X118448462Y-53331757D01*
X118448462Y-53331757D02*
X118315129Y-53331757D01*
X118315129Y-53331757D02*
X118248462Y-53288900D01*
X118981795Y-53331757D02*
X118915129Y-53288900D01*
X118915129Y-53288900D02*
X118881795Y-53203185D01*
X118881795Y-53203185D02*
X118881795Y-52431757D01*
X119248462Y-53331757D02*
X119248462Y-52731757D01*
X119248462Y-52431757D02*
X119215129Y-52474614D01*
X119215129Y-52474614D02*
X119248462Y-52517471D01*
X119248462Y-52517471D02*
X119281796Y-52474614D01*
X119281796Y-52474614D02*
X119248462Y-52431757D01*
X119248462Y-52431757D02*
X119248462Y-52517471D01*
X119481795Y-52731757D02*
X119748462Y-52731757D01*
X119581795Y-53331757D02*
X119581795Y-52560328D01*
X119581795Y-52560328D02*
X119615129Y-52474614D01*
X119615129Y-52474614D02*
X119681795Y-52431757D01*
X119681795Y-52431757D02*
X119748462Y-52431757D01*
X119981795Y-53331757D02*
X119981795Y-52731757D01*
X119981795Y-52431757D02*
X119948462Y-52474614D01*
X119948462Y-52474614D02*
X119981795Y-52517471D01*
X119981795Y-52517471D02*
X120015129Y-52474614D01*
X120015129Y-52474614D02*
X119981795Y-52431757D01*
X119981795Y-52431757D02*
X119981795Y-52517471D01*
X120581795Y-53288900D02*
X120515128Y-53331757D01*
X120515128Y-53331757D02*
X120381795Y-53331757D01*
X120381795Y-53331757D02*
X120315128Y-53288900D01*
X120315128Y-53288900D02*
X120281795Y-53203185D01*
X120281795Y-53203185D02*
X120281795Y-52860328D01*
X120281795Y-52860328D02*
X120315128Y-52774614D01*
X120315128Y-52774614D02*
X120381795Y-52731757D01*
X120381795Y-52731757D02*
X120515128Y-52731757D01*
X120515128Y-52731757D02*
X120581795Y-52774614D01*
X120581795Y-52774614D02*
X120615128Y-52860328D01*
X120615128Y-52860328D02*
X120615128Y-52946042D01*
X120615128Y-52946042D02*
X120281795Y-53031757D01*
X120915128Y-53331757D02*
X120915128Y-52731757D01*
X120915128Y-52903185D02*
X120948462Y-52817471D01*
X120948462Y-52817471D02*
X120981795Y-52774614D01*
X120981795Y-52774614D02*
X121048462Y-52731757D01*
X121048462Y-52731757D02*
X121115128Y-52731757D01*
X109581797Y-54309328D02*
X109815131Y-54309328D01*
X109915131Y-54780757D02*
X109581797Y-54780757D01*
X109581797Y-54780757D02*
X109581797Y-53880757D01*
X109581797Y-53880757D02*
X109915131Y-53880757D01*
X110115130Y-54180757D02*
X110381797Y-54180757D01*
X110215130Y-53880757D02*
X110215130Y-54652185D01*
X110215130Y-54652185D02*
X110248464Y-54737900D01*
X110248464Y-54737900D02*
X110315130Y-54780757D01*
X110315130Y-54780757D02*
X110381797Y-54780757D01*
X110615130Y-54780757D02*
X110615130Y-53880757D01*
X110915130Y-54780757D02*
X110915130Y-54309328D01*
X110915130Y-54309328D02*
X110881797Y-54223614D01*
X110881797Y-54223614D02*
X110815130Y-54180757D01*
X110815130Y-54180757D02*
X110715130Y-54180757D01*
X110715130Y-54180757D02*
X110648464Y-54223614D01*
X110648464Y-54223614D02*
X110615130Y-54266471D01*
X111515130Y-54737900D02*
X111448463Y-54780757D01*
X111448463Y-54780757D02*
X111315130Y-54780757D01*
X111315130Y-54780757D02*
X111248463Y-54737900D01*
X111248463Y-54737900D02*
X111215130Y-54652185D01*
X111215130Y-54652185D02*
X111215130Y-54309328D01*
X111215130Y-54309328D02*
X111248463Y-54223614D01*
X111248463Y-54223614D02*
X111315130Y-54180757D01*
X111315130Y-54180757D02*
X111448463Y-54180757D01*
X111448463Y-54180757D02*
X111515130Y-54223614D01*
X111515130Y-54223614D02*
X111548463Y-54309328D01*
X111548463Y-54309328D02*
X111548463Y-54395042D01*
X111548463Y-54395042D02*
X111215130Y-54480757D01*
X111848463Y-54780757D02*
X111848463Y-54180757D01*
X111848463Y-54352185D02*
X111881797Y-54266471D01*
X111881797Y-54266471D02*
X111915130Y-54223614D01*
X111915130Y-54223614D02*
X111981797Y-54180757D01*
X111981797Y-54180757D02*
X112048463Y-54180757D01*
X112281796Y-54780757D02*
X112281796Y-53880757D01*
X112348463Y-54437900D02*
X112548463Y-54780757D01*
X112548463Y-54180757D02*
X112281796Y-54523614D01*
X112848463Y-54780757D02*
X112848463Y-54180757D01*
X112848463Y-53880757D02*
X112815130Y-53923614D01*
X112815130Y-53923614D02*
X112848463Y-53966471D01*
X112848463Y-53966471D02*
X112881797Y-53923614D01*
X112881797Y-53923614D02*
X112848463Y-53880757D01*
X112848463Y-53880757D02*
X112848463Y-53966471D01*
X113081796Y-54180757D02*
X113348463Y-54180757D01*
X113181796Y-53880757D02*
X113181796Y-54652185D01*
X113181796Y-54652185D02*
X113215130Y-54737900D01*
X113215130Y-54737900D02*
X113281796Y-54780757D01*
X113281796Y-54780757D02*
X113348463Y-54780757D01*
X114081796Y-53966471D02*
X114115129Y-53923614D01*
X114115129Y-53923614D02*
X114181796Y-53880757D01*
X114181796Y-53880757D02*
X114348463Y-53880757D01*
X114348463Y-53880757D02*
X114415129Y-53923614D01*
X114415129Y-53923614D02*
X114448463Y-53966471D01*
X114448463Y-53966471D02*
X114481796Y-54052185D01*
X114481796Y-54052185D02*
X114481796Y-54137900D01*
X114481796Y-54137900D02*
X114448463Y-54266471D01*
X114448463Y-54266471D02*
X114048463Y-54780757D01*
X114048463Y-54780757D02*
X114481796Y-54780757D01*
X114915130Y-53880757D02*
X114981796Y-53880757D01*
X114981796Y-53880757D02*
X115048463Y-53923614D01*
X115048463Y-53923614D02*
X115081796Y-53966471D01*
X115081796Y-53966471D02*
X115115130Y-54052185D01*
X115115130Y-54052185D02*
X115148463Y-54223614D01*
X115148463Y-54223614D02*
X115148463Y-54437900D01*
X115148463Y-54437900D02*
X115115130Y-54609328D01*
X115115130Y-54609328D02*
X115081796Y-54695042D01*
X115081796Y-54695042D02*
X115048463Y-54737900D01*
X115048463Y-54737900D02*
X114981796Y-54780757D01*
X114981796Y-54780757D02*
X114915130Y-54780757D01*
X114915130Y-54780757D02*
X114848463Y-54737900D01*
X114848463Y-54737900D02*
X114815130Y-54695042D01*
X114815130Y-54695042D02*
X114781796Y-54609328D01*
X114781796Y-54609328D02*
X114748463Y-54437900D01*
X114748463Y-54437900D02*
X114748463Y-54223614D01*
X114748463Y-54223614D02*
X114781796Y-54052185D01*
X114781796Y-54052185D02*
X114815130Y-53966471D01*
X114815130Y-53966471D02*
X114848463Y-53923614D01*
X114848463Y-53923614D02*
X114915130Y-53880757D01*
X115415130Y-53966471D02*
X115448463Y-53923614D01*
X115448463Y-53923614D02*
X115515130Y-53880757D01*
X115515130Y-53880757D02*
X115681797Y-53880757D01*
X115681797Y-53880757D02*
X115748463Y-53923614D01*
X115748463Y-53923614D02*
X115781797Y-53966471D01*
X115781797Y-53966471D02*
X115815130Y-54052185D01*
X115815130Y-54052185D02*
X115815130Y-54137900D01*
X115815130Y-54137900D02*
X115781797Y-54266471D01*
X115781797Y-54266471D02*
X115381797Y-54780757D01*
X115381797Y-54780757D02*
X115815130Y-54780757D01*
X116415130Y-54180757D02*
X116415130Y-54780757D01*
X116248464Y-53837900D02*
X116081797Y-54480757D01*
X116081797Y-54480757D02*
X116515130Y-54480757D01*
D10*
X124904761Y-76550057D02*
X124809523Y-76502438D01*
X124809523Y-76502438D02*
X124714285Y-76407200D01*
X124714285Y-76407200D02*
X124571428Y-76264342D01*
X124571428Y-76264342D02*
X124476190Y-76216723D01*
X124476190Y-76216723D02*
X124380952Y-76216723D01*
X124428571Y-76454819D02*
X124333333Y-76407200D01*
X124333333Y-76407200D02*
X124238095Y-76311961D01*
X124238095Y-76311961D02*
X124190476Y-76121485D01*
X124190476Y-76121485D02*
X124190476Y-75788152D01*
X124190476Y-75788152D02*
X124238095Y-75597676D01*
X124238095Y-75597676D02*
X124333333Y-75502438D01*
X124333333Y-75502438D02*
X124428571Y-75454819D01*
X124428571Y-75454819D02*
X124619047Y-75454819D01*
X124619047Y-75454819D02*
X124714285Y-75502438D01*
X124714285Y-75502438D02*
X124809523Y-75597676D01*
X124809523Y-75597676D02*
X124857142Y-75788152D01*
X124857142Y-75788152D02*
X124857142Y-76121485D01*
X124857142Y-76121485D02*
X124809523Y-76311961D01*
X124809523Y-76311961D02*
X124714285Y-76407200D01*
X124714285Y-76407200D02*
X124619047Y-76454819D01*
X124619047Y-76454819D02*
X124428571Y-76454819D01*
X125238095Y-75550057D02*
X125285714Y-75502438D01*
X125285714Y-75502438D02*
X125380952Y-75454819D01*
X125380952Y-75454819D02*
X125619047Y-75454819D01*
X125619047Y-75454819D02*
X125714285Y-75502438D01*
X125714285Y-75502438D02*
X125761904Y-75550057D01*
X125761904Y-75550057D02*
X125809523Y-75645295D01*
X125809523Y-75645295D02*
X125809523Y-75740533D01*
X125809523Y-75740533D02*
X125761904Y-75883390D01*
X125761904Y-75883390D02*
X125190476Y-76454819D01*
X125190476Y-76454819D02*
X125809523Y-76454819D01*
X139883333Y-59559580D02*
X139835714Y-59607200D01*
X139835714Y-59607200D02*
X139692857Y-59654819D01*
X139692857Y-59654819D02*
X139597619Y-59654819D01*
X139597619Y-59654819D02*
X139454762Y-59607200D01*
X139454762Y-59607200D02*
X139359524Y-59511961D01*
X139359524Y-59511961D02*
X139311905Y-59416723D01*
X139311905Y-59416723D02*
X139264286Y-59226247D01*
X139264286Y-59226247D02*
X139264286Y-59083390D01*
X139264286Y-59083390D02*
X139311905Y-58892914D01*
X139311905Y-58892914D02*
X139359524Y-58797676D01*
X139359524Y-58797676D02*
X139454762Y-58702438D01*
X139454762Y-58702438D02*
X139597619Y-58654819D01*
X139597619Y-58654819D02*
X139692857Y-58654819D01*
X139692857Y-58654819D02*
X139835714Y-58702438D01*
X139835714Y-58702438D02*
X139883333Y-58750057D01*
X140835714Y-59654819D02*
X140264286Y-59654819D01*
X140550000Y-59654819D02*
X140550000Y-58654819D01*
X140550000Y-58654819D02*
X140454762Y-58797676D01*
X140454762Y-58797676D02*
X140359524Y-58892914D01*
X140359524Y-58892914D02*
X140264286Y-58940533D01*
X139133333Y-71009580D02*
X139085714Y-71057200D01*
X139085714Y-71057200D02*
X138942857Y-71104819D01*
X138942857Y-71104819D02*
X138847619Y-71104819D01*
X138847619Y-71104819D02*
X138704762Y-71057200D01*
X138704762Y-71057200D02*
X138609524Y-70961961D01*
X138609524Y-70961961D02*
X138561905Y-70866723D01*
X138561905Y-70866723D02*
X138514286Y-70676247D01*
X138514286Y-70676247D02*
X138514286Y-70533390D01*
X138514286Y-70533390D02*
X138561905Y-70342914D01*
X138561905Y-70342914D02*
X138609524Y-70247676D01*
X138609524Y-70247676D02*
X138704762Y-70152438D01*
X138704762Y-70152438D02*
X138847619Y-70104819D01*
X138847619Y-70104819D02*
X138942857Y-70104819D01*
X138942857Y-70104819D02*
X139085714Y-70152438D01*
X139085714Y-70152438D02*
X139133333Y-70200057D01*
X139466667Y-70104819D02*
X140085714Y-70104819D01*
X140085714Y-70104819D02*
X139752381Y-70485771D01*
X139752381Y-70485771D02*
X139895238Y-70485771D01*
X139895238Y-70485771D02*
X139990476Y-70533390D01*
X139990476Y-70533390D02*
X140038095Y-70581009D01*
X140038095Y-70581009D02*
X140085714Y-70676247D01*
X140085714Y-70676247D02*
X140085714Y-70914342D01*
X140085714Y-70914342D02*
X140038095Y-71009580D01*
X140038095Y-71009580D02*
X139990476Y-71057200D01*
X139990476Y-71057200D02*
X139895238Y-71104819D01*
X139895238Y-71104819D02*
X139609524Y-71104819D01*
X139609524Y-71104819D02*
X139514286Y-71057200D01*
X139514286Y-71057200D02*
X139466667Y-71009580D01*
X132933333Y-65554819D02*
X132600000Y-65078628D01*
X132361905Y-65554819D02*
X132361905Y-64554819D01*
X132361905Y-64554819D02*
X132742857Y-64554819D01*
X132742857Y-64554819D02*
X132838095Y-64602438D01*
X132838095Y-64602438D02*
X132885714Y-64650057D01*
X132885714Y-64650057D02*
X132933333Y-64745295D01*
X132933333Y-64745295D02*
X132933333Y-64888152D01*
X132933333Y-64888152D02*
X132885714Y-64983390D01*
X132885714Y-64983390D02*
X132838095Y-65031009D01*
X132838095Y-65031009D02*
X132742857Y-65078628D01*
X132742857Y-65078628D02*
X132361905Y-65078628D01*
X133266667Y-64554819D02*
X133885714Y-64554819D01*
X133885714Y-64554819D02*
X133552381Y-64935771D01*
X133552381Y-64935771D02*
X133695238Y-64935771D01*
X133695238Y-64935771D02*
X133790476Y-64983390D01*
X133790476Y-64983390D02*
X133838095Y-65031009D01*
X133838095Y-65031009D02*
X133885714Y-65126247D01*
X133885714Y-65126247D02*
X133885714Y-65364342D01*
X133885714Y-65364342D02*
X133838095Y-65459580D01*
X133838095Y-65459580D02*
X133790476Y-65507200D01*
X133790476Y-65507200D02*
X133695238Y-65554819D01*
X133695238Y-65554819D02*
X133409524Y-65554819D01*
X133409524Y-65554819D02*
X133314286Y-65507200D01*
X133314286Y-65507200D02*
X133266667Y-65459580D01*
X132933333Y-80454819D02*
X132600000Y-79978628D01*
X132361905Y-80454819D02*
X132361905Y-79454819D01*
X132361905Y-79454819D02*
X132742857Y-79454819D01*
X132742857Y-79454819D02*
X132838095Y-79502438D01*
X132838095Y-79502438D02*
X132885714Y-79550057D01*
X132885714Y-79550057D02*
X132933333Y-79645295D01*
X132933333Y-79645295D02*
X132933333Y-79788152D01*
X132933333Y-79788152D02*
X132885714Y-79883390D01*
X132885714Y-79883390D02*
X132838095Y-79931009D01*
X132838095Y-79931009D02*
X132742857Y-79978628D01*
X132742857Y-79978628D02*
X132361905Y-79978628D01*
X133838095Y-79454819D02*
X133361905Y-79454819D01*
X133361905Y-79454819D02*
X133314286Y-79931009D01*
X133314286Y-79931009D02*
X133361905Y-79883390D01*
X133361905Y-79883390D02*
X133457143Y-79835771D01*
X133457143Y-79835771D02*
X133695238Y-79835771D01*
X133695238Y-79835771D02*
X133790476Y-79883390D01*
X133790476Y-79883390D02*
X133838095Y-79931009D01*
X133838095Y-79931009D02*
X133885714Y-80026247D01*
X133885714Y-80026247D02*
X133885714Y-80264342D01*
X133885714Y-80264342D02*
X133838095Y-80359580D01*
X133838095Y-80359580D02*
X133790476Y-80407200D01*
X133790476Y-80407200D02*
X133695238Y-80454819D01*
X133695238Y-80454819D02*
X133457143Y-80454819D01*
X133457143Y-80454819D02*
X133361905Y-80407200D01*
X133361905Y-80407200D02*
X133314286Y-80359580D01*
X132933333Y-57954819D02*
X132600000Y-57478628D01*
X132361905Y-57954819D02*
X132361905Y-56954819D01*
X132361905Y-56954819D02*
X132742857Y-56954819D01*
X132742857Y-56954819D02*
X132838095Y-57002438D01*
X132838095Y-57002438D02*
X132885714Y-57050057D01*
X132885714Y-57050057D02*
X132933333Y-57145295D01*
X132933333Y-57145295D02*
X132933333Y-57288152D01*
X132933333Y-57288152D02*
X132885714Y-57383390D01*
X132885714Y-57383390D02*
X132838095Y-57431009D01*
X132838095Y-57431009D02*
X132742857Y-57478628D01*
X132742857Y-57478628D02*
X132361905Y-57478628D01*
X133885714Y-57954819D02*
X133314286Y-57954819D01*
X133600000Y-57954819D02*
X133600000Y-56954819D01*
X133600000Y-56954819D02*
X133504762Y-57097676D01*
X133504762Y-57097676D02*
X133409524Y-57192914D01*
X133409524Y-57192914D02*
X133314286Y-57240533D01*
X126103333Y-83784819D02*
X125770000Y-83308628D01*
X125531905Y-83784819D02*
X125531905Y-82784819D01*
X125531905Y-82784819D02*
X125912857Y-82784819D01*
X125912857Y-82784819D02*
X126008095Y-82832438D01*
X126008095Y-82832438D02*
X126055714Y-82880057D01*
X126055714Y-82880057D02*
X126103333Y-82975295D01*
X126103333Y-82975295D02*
X126103333Y-83118152D01*
X126103333Y-83118152D02*
X126055714Y-83213390D01*
X126055714Y-83213390D02*
X126008095Y-83261009D01*
X126008095Y-83261009D02*
X125912857Y-83308628D01*
X125912857Y-83308628D02*
X125531905Y-83308628D01*
X126674762Y-83213390D02*
X126579524Y-83165771D01*
X126579524Y-83165771D02*
X126531905Y-83118152D01*
X126531905Y-83118152D02*
X126484286Y-83022914D01*
X126484286Y-83022914D02*
X126484286Y-82975295D01*
X126484286Y-82975295D02*
X126531905Y-82880057D01*
X126531905Y-82880057D02*
X126579524Y-82832438D01*
X126579524Y-82832438D02*
X126674762Y-82784819D01*
X126674762Y-82784819D02*
X126865238Y-82784819D01*
X126865238Y-82784819D02*
X126960476Y-82832438D01*
X126960476Y-82832438D02*
X127008095Y-82880057D01*
X127008095Y-82880057D02*
X127055714Y-82975295D01*
X127055714Y-82975295D02*
X127055714Y-83022914D01*
X127055714Y-83022914D02*
X127008095Y-83118152D01*
X127008095Y-83118152D02*
X126960476Y-83165771D01*
X126960476Y-83165771D02*
X126865238Y-83213390D01*
X126865238Y-83213390D02*
X126674762Y-83213390D01*
X126674762Y-83213390D02*
X126579524Y-83261009D01*
X126579524Y-83261009D02*
X126531905Y-83308628D01*
X126531905Y-83308628D02*
X126484286Y-83403866D01*
X126484286Y-83403866D02*
X126484286Y-83594342D01*
X126484286Y-83594342D02*
X126531905Y-83689580D01*
X126531905Y-83689580D02*
X126579524Y-83737200D01*
X126579524Y-83737200D02*
X126674762Y-83784819D01*
X126674762Y-83784819D02*
X126865238Y-83784819D01*
X126865238Y-83784819D02*
X126960476Y-83737200D01*
X126960476Y-83737200D02*
X127008095Y-83689580D01*
X127008095Y-83689580D02*
X127055714Y-83594342D01*
X127055714Y-83594342D02*
X127055714Y-83403866D01*
X127055714Y-83403866D02*
X127008095Y-83308628D01*
X127008095Y-83308628D02*
X126960476Y-83261009D01*
X126960476Y-83261009D02*
X126865238Y-83213390D01*
X133004761Y-72650057D02*
X132909523Y-72602438D01*
X132909523Y-72602438D02*
X132814285Y-72507200D01*
X132814285Y-72507200D02*
X132671428Y-72364342D01*
X132671428Y-72364342D02*
X132576190Y-72316723D01*
X132576190Y-72316723D02*
X132480952Y-72316723D01*
X132528571Y-72554819D02*
X132433333Y-72507200D01*
X132433333Y-72507200D02*
X132338095Y-72411961D01*
X132338095Y-72411961D02*
X132290476Y-72221485D01*
X132290476Y-72221485D02*
X132290476Y-71888152D01*
X132290476Y-71888152D02*
X132338095Y-71697676D01*
X132338095Y-71697676D02*
X132433333Y-71602438D01*
X132433333Y-71602438D02*
X132528571Y-71554819D01*
X132528571Y-71554819D02*
X132719047Y-71554819D01*
X132719047Y-71554819D02*
X132814285Y-71602438D01*
X132814285Y-71602438D02*
X132909523Y-71697676D01*
X132909523Y-71697676D02*
X132957142Y-71888152D01*
X132957142Y-71888152D02*
X132957142Y-72221485D01*
X132957142Y-72221485D02*
X132909523Y-72411961D01*
X132909523Y-72411961D02*
X132814285Y-72507200D01*
X132814285Y-72507200D02*
X132719047Y-72554819D01*
X132719047Y-72554819D02*
X132528571Y-72554819D01*
X133909523Y-72554819D02*
X133338095Y-72554819D01*
X133623809Y-72554819D02*
X133623809Y-71554819D01*
X133623809Y-71554819D02*
X133528571Y-71697676D01*
X133528571Y-71697676D02*
X133433333Y-71792914D01*
X133433333Y-71792914D02*
X133338095Y-71840533D01*
X110833333Y-76754819D02*
X110357143Y-76754819D01*
X110357143Y-76754819D02*
X110357143Y-75754819D01*
X111690476Y-76754819D02*
X111119048Y-76754819D01*
X111404762Y-76754819D02*
X111404762Y-75754819D01*
X111404762Y-75754819D02*
X111309524Y-75897676D01*
X111309524Y-75897676D02*
X111214286Y-75992914D01*
X111214286Y-75992914D02*
X111119048Y-76040533D01*
X117833333Y-67559580D02*
X117785714Y-67607200D01*
X117785714Y-67607200D02*
X117642857Y-67654819D01*
X117642857Y-67654819D02*
X117547619Y-67654819D01*
X117547619Y-67654819D02*
X117404762Y-67607200D01*
X117404762Y-67607200D02*
X117309524Y-67511961D01*
X117309524Y-67511961D02*
X117261905Y-67416723D01*
X117261905Y-67416723D02*
X117214286Y-67226247D01*
X117214286Y-67226247D02*
X117214286Y-67083390D01*
X117214286Y-67083390D02*
X117261905Y-66892914D01*
X117261905Y-66892914D02*
X117309524Y-66797676D01*
X117309524Y-66797676D02*
X117404762Y-66702438D01*
X117404762Y-66702438D02*
X117547619Y-66654819D01*
X117547619Y-66654819D02*
X117642857Y-66654819D01*
X117642857Y-66654819D02*
X117785714Y-66702438D01*
X117785714Y-66702438D02*
X117833333Y-66750057D01*
X118690476Y-66988152D02*
X118690476Y-67654819D01*
X118452381Y-66607200D02*
X118214286Y-67321485D01*
X118214286Y-67321485D02*
X118833333Y-67321485D01*
X110133333Y-69854819D02*
X109800000Y-69378628D01*
X109561905Y-69854819D02*
X109561905Y-68854819D01*
X109561905Y-68854819D02*
X109942857Y-68854819D01*
X109942857Y-68854819D02*
X110038095Y-68902438D01*
X110038095Y-68902438D02*
X110085714Y-68950057D01*
X110085714Y-68950057D02*
X110133333Y-69045295D01*
X110133333Y-69045295D02*
X110133333Y-69188152D01*
X110133333Y-69188152D02*
X110085714Y-69283390D01*
X110085714Y-69283390D02*
X110038095Y-69331009D01*
X110038095Y-69331009D02*
X109942857Y-69378628D01*
X109942857Y-69378628D02*
X109561905Y-69378628D01*
X110990476Y-68854819D02*
X110800000Y-68854819D01*
X110800000Y-68854819D02*
X110704762Y-68902438D01*
X110704762Y-68902438D02*
X110657143Y-68950057D01*
X110657143Y-68950057D02*
X110561905Y-69092914D01*
X110561905Y-69092914D02*
X110514286Y-69283390D01*
X110514286Y-69283390D02*
X110514286Y-69664342D01*
X110514286Y-69664342D02*
X110561905Y-69759580D01*
X110561905Y-69759580D02*
X110609524Y-69807200D01*
X110609524Y-69807200D02*
X110704762Y-69854819D01*
X110704762Y-69854819D02*
X110895238Y-69854819D01*
X110895238Y-69854819D02*
X110990476Y-69807200D01*
X110990476Y-69807200D02*
X111038095Y-69759580D01*
X111038095Y-69759580D02*
X111085714Y-69664342D01*
X111085714Y-69664342D02*
X111085714Y-69426247D01*
X111085714Y-69426247D02*
X111038095Y-69331009D01*
X111038095Y-69331009D02*
X110990476Y-69283390D01*
X110990476Y-69283390D02*
X110895238Y-69235771D01*
X110895238Y-69235771D02*
X110704762Y-69235771D01*
X110704762Y-69235771D02*
X110609524Y-69283390D01*
X110609524Y-69283390D02*
X110561905Y-69331009D01*
X110561905Y-69331009D02*
X110514286Y-69426247D01*
X120849819Y-55333333D02*
X121564104Y-55333333D01*
X121564104Y-55333333D02*
X121706961Y-55380952D01*
X121706961Y-55380952D02*
X121802200Y-55476190D01*
X121802200Y-55476190D02*
X121849819Y-55619047D01*
X121849819Y-55619047D02*
X121849819Y-55714285D01*
X121849819Y-54333333D02*
X121849819Y-54904761D01*
X121849819Y-54619047D02*
X120849819Y-54619047D01*
X120849819Y-54619047D02*
X120992676Y-54714285D01*
X120992676Y-54714285D02*
X121087914Y-54809523D01*
X121087914Y-54809523D02*
X121135533Y-54904761D01*
X127857143Y-55073866D02*
X128619048Y-55073866D01*
X128238095Y-55454819D02*
X128238095Y-54692914D01*
X129619047Y-55454819D02*
X129047619Y-55454819D01*
X129333333Y-55454819D02*
X129333333Y-54454819D01*
X129333333Y-54454819D02*
X129238095Y-54597676D01*
X129238095Y-54597676D02*
X129142857Y-54692914D01*
X129142857Y-54692914D02*
X129047619Y-54740533D01*
X130000000Y-54550057D02*
X130047619Y-54502438D01*
X130047619Y-54502438D02*
X130142857Y-54454819D01*
X130142857Y-54454819D02*
X130380952Y-54454819D01*
X130380952Y-54454819D02*
X130476190Y-54502438D01*
X130476190Y-54502438D02*
X130523809Y-54550057D01*
X130523809Y-54550057D02*
X130571428Y-54645295D01*
X130571428Y-54645295D02*
X130571428Y-54740533D01*
X130571428Y-54740533D02*
X130523809Y-54883390D01*
X130523809Y-54883390D02*
X129952381Y-55454819D01*
X129952381Y-55454819D02*
X130571428Y-55454819D01*
X131619048Y-54454819D02*
X131952381Y-55454819D01*
X131952381Y-55454819D02*
X132285714Y-54454819D01*
X132619048Y-55454819D02*
X132619048Y-54454819D01*
X132619048Y-54454819D02*
X132857143Y-54454819D01*
X132857143Y-54454819D02*
X133000000Y-54502438D01*
X133000000Y-54502438D02*
X133095238Y-54597676D01*
X133095238Y-54597676D02*
X133142857Y-54692914D01*
X133142857Y-54692914D02*
X133190476Y-54883390D01*
X133190476Y-54883390D02*
X133190476Y-55026247D01*
X133190476Y-55026247D02*
X133142857Y-55216723D01*
X133142857Y-55216723D02*
X133095238Y-55311961D01*
X133095238Y-55311961D02*
X133000000Y-55407200D01*
X133000000Y-55407200D02*
X132857143Y-55454819D01*
X132857143Y-55454819D02*
X132619048Y-55454819D01*
X134190476Y-55359580D02*
X134142857Y-55407200D01*
X134142857Y-55407200D02*
X134000000Y-55454819D01*
X134000000Y-55454819D02*
X133904762Y-55454819D01*
X133904762Y-55454819D02*
X133761905Y-55407200D01*
X133761905Y-55407200D02*
X133666667Y-55311961D01*
X133666667Y-55311961D02*
X133619048Y-55216723D01*
X133619048Y-55216723D02*
X133571429Y-55026247D01*
X133571429Y-55026247D02*
X133571429Y-54883390D01*
X133571429Y-54883390D02*
X133619048Y-54692914D01*
X133619048Y-54692914D02*
X133666667Y-54597676D01*
X133666667Y-54597676D02*
X133761905Y-54502438D01*
X133761905Y-54502438D02*
X133904762Y-54454819D01*
X133904762Y-54454819D02*
X134000000Y-54454819D01*
X134000000Y-54454819D02*
X134142857Y-54502438D01*
X134142857Y-54502438D02*
X134190476Y-54550057D01*
X125833333Y-60654819D02*
X125500000Y-60178628D01*
X125261905Y-60654819D02*
X125261905Y-59654819D01*
X125261905Y-59654819D02*
X125642857Y-59654819D01*
X125642857Y-59654819D02*
X125738095Y-59702438D01*
X125738095Y-59702438D02*
X125785714Y-59750057D01*
X125785714Y-59750057D02*
X125833333Y-59845295D01*
X125833333Y-59845295D02*
X125833333Y-59988152D01*
X125833333Y-59988152D02*
X125785714Y-60083390D01*
X125785714Y-60083390D02*
X125738095Y-60131009D01*
X125738095Y-60131009D02*
X125642857Y-60178628D01*
X125642857Y-60178628D02*
X125261905Y-60178628D01*
X126214286Y-59750057D02*
X126261905Y-59702438D01*
X126261905Y-59702438D02*
X126357143Y-59654819D01*
X126357143Y-59654819D02*
X126595238Y-59654819D01*
X126595238Y-59654819D02*
X126690476Y-59702438D01*
X126690476Y-59702438D02*
X126738095Y-59750057D01*
X126738095Y-59750057D02*
X126785714Y-59845295D01*
X126785714Y-59845295D02*
X126785714Y-59940533D01*
X126785714Y-59940533D02*
X126738095Y-60083390D01*
X126738095Y-60083390D02*
X126166667Y-60654819D01*
X126166667Y-60654819D02*
X126785714Y-60654819D01*
X117815713Y-57959580D02*
X117768094Y-58007200D01*
X117768094Y-58007200D02*
X117625237Y-58054819D01*
X117625237Y-58054819D02*
X117529999Y-58054819D01*
X117529999Y-58054819D02*
X117387142Y-58007200D01*
X117387142Y-58007200D02*
X117291904Y-57911961D01*
X117291904Y-57911961D02*
X117244285Y-57816723D01*
X117244285Y-57816723D02*
X117196666Y-57626247D01*
X117196666Y-57626247D02*
X117196666Y-57483390D01*
X117196666Y-57483390D02*
X117244285Y-57292914D01*
X117244285Y-57292914D02*
X117291904Y-57197676D01*
X117291904Y-57197676D02*
X117387142Y-57102438D01*
X117387142Y-57102438D02*
X117529999Y-57054819D01*
X117529999Y-57054819D02*
X117625237Y-57054819D01*
X117625237Y-57054819D02*
X117768094Y-57102438D01*
X117768094Y-57102438D02*
X117815713Y-57150057D01*
X118196666Y-57150057D02*
X118244285Y-57102438D01*
X118244285Y-57102438D02*
X118339523Y-57054819D01*
X118339523Y-57054819D02*
X118577618Y-57054819D01*
X118577618Y-57054819D02*
X118672856Y-57102438D01*
X118672856Y-57102438D02*
X118720475Y-57150057D01*
X118720475Y-57150057D02*
X118768094Y-57245295D01*
X118768094Y-57245295D02*
X118768094Y-57340533D01*
X118768094Y-57340533D02*
X118720475Y-57483390D01*
X118720475Y-57483390D02*
X118149047Y-58054819D01*
X118149047Y-58054819D02*
X118768094Y-58054819D01*
X126103333Y-88584819D02*
X125770000Y-88108628D01*
X125531905Y-88584819D02*
X125531905Y-87584819D01*
X125531905Y-87584819D02*
X125912857Y-87584819D01*
X125912857Y-87584819D02*
X126008095Y-87632438D01*
X126008095Y-87632438D02*
X126055714Y-87680057D01*
X126055714Y-87680057D02*
X126103333Y-87775295D01*
X126103333Y-87775295D02*
X126103333Y-87918152D01*
X126103333Y-87918152D02*
X126055714Y-88013390D01*
X126055714Y-88013390D02*
X126008095Y-88061009D01*
X126008095Y-88061009D02*
X125912857Y-88108628D01*
X125912857Y-88108628D02*
X125531905Y-88108628D01*
X126579524Y-88584819D02*
X126770000Y-88584819D01*
X126770000Y-88584819D02*
X126865238Y-88537200D01*
X126865238Y-88537200D02*
X126912857Y-88489580D01*
X126912857Y-88489580D02*
X127008095Y-88346723D01*
X127008095Y-88346723D02*
X127055714Y-88156247D01*
X127055714Y-88156247D02*
X127055714Y-87775295D01*
X127055714Y-87775295D02*
X127008095Y-87680057D01*
X127008095Y-87680057D02*
X126960476Y-87632438D01*
X126960476Y-87632438D02*
X126865238Y-87584819D01*
X126865238Y-87584819D02*
X126674762Y-87584819D01*
X126674762Y-87584819D02*
X126579524Y-87632438D01*
X126579524Y-87632438D02*
X126531905Y-87680057D01*
X126531905Y-87680057D02*
X126484286Y-87775295D01*
X126484286Y-87775295D02*
X126484286Y-88013390D01*
X126484286Y-88013390D02*
X126531905Y-88108628D01*
X126531905Y-88108628D02*
X126579524Y-88156247D01*
X126579524Y-88156247D02*
X126674762Y-88203866D01*
X126674762Y-88203866D02*
X126865238Y-88203866D01*
X126865238Y-88203866D02*
X126960476Y-88156247D01*
X126960476Y-88156247D02*
X127008095Y-88108628D01*
X127008095Y-88108628D02*
X127055714Y-88013390D01*
X107633333Y-64159580D02*
X107585714Y-64207200D01*
X107585714Y-64207200D02*
X107442857Y-64254819D01*
X107442857Y-64254819D02*
X107347619Y-64254819D01*
X107347619Y-64254819D02*
X107204762Y-64207200D01*
X107204762Y-64207200D02*
X107109524Y-64111961D01*
X107109524Y-64111961D02*
X107061905Y-64016723D01*
X107061905Y-64016723D02*
X107014286Y-63826247D01*
X107014286Y-63826247D02*
X107014286Y-63683390D01*
X107014286Y-63683390D02*
X107061905Y-63492914D01*
X107061905Y-63492914D02*
X107109524Y-63397676D01*
X107109524Y-63397676D02*
X107204762Y-63302438D01*
X107204762Y-63302438D02*
X107347619Y-63254819D01*
X107347619Y-63254819D02*
X107442857Y-63254819D01*
X107442857Y-63254819D02*
X107585714Y-63302438D01*
X107585714Y-63302438D02*
X107633333Y-63350057D01*
X108538095Y-63254819D02*
X108061905Y-63254819D01*
X108061905Y-63254819D02*
X108014286Y-63731009D01*
X108014286Y-63731009D02*
X108061905Y-63683390D01*
X108061905Y-63683390D02*
X108157143Y-63635771D01*
X108157143Y-63635771D02*
X108395238Y-63635771D01*
X108395238Y-63635771D02*
X108490476Y-63683390D01*
X108490476Y-63683390D02*
X108538095Y-63731009D01*
X108538095Y-63731009D02*
X108585714Y-63826247D01*
X108585714Y-63826247D02*
X108585714Y-64064342D01*
X108585714Y-64064342D02*
X108538095Y-64159580D01*
X108538095Y-64159580D02*
X108490476Y-64207200D01*
X108490476Y-64207200D02*
X108395238Y-64254819D01*
X108395238Y-64254819D02*
X108157143Y-64254819D01*
X108157143Y-64254819D02*
X108061905Y-64207200D01*
X108061905Y-64207200D02*
X108014286Y-64159580D01*
X117163333Y-83754819D02*
X116830000Y-83278628D01*
X116591905Y-83754819D02*
X116591905Y-82754819D01*
X116591905Y-82754819D02*
X116972857Y-82754819D01*
X116972857Y-82754819D02*
X117068095Y-82802438D01*
X117068095Y-82802438D02*
X117115714Y-82850057D01*
X117115714Y-82850057D02*
X117163333Y-82945295D01*
X117163333Y-82945295D02*
X117163333Y-83088152D01*
X117163333Y-83088152D02*
X117115714Y-83183390D01*
X117115714Y-83183390D02*
X117068095Y-83231009D01*
X117068095Y-83231009D02*
X116972857Y-83278628D01*
X116972857Y-83278628D02*
X116591905Y-83278628D01*
X117496667Y-82754819D02*
X118163333Y-82754819D01*
X118163333Y-82754819D02*
X117734762Y-83754819D01*
X144666666Y-70849819D02*
X144666666Y-71564104D01*
X144666666Y-71564104D02*
X144619047Y-71706961D01*
X144619047Y-71706961D02*
X144523809Y-71802200D01*
X144523809Y-71802200D02*
X144380952Y-71849819D01*
X144380952Y-71849819D02*
X144285714Y-71849819D01*
X145095238Y-70945057D02*
X145142857Y-70897438D01*
X145142857Y-70897438D02*
X145238095Y-70849819D01*
X145238095Y-70849819D02*
X145476190Y-70849819D01*
X145476190Y-70849819D02*
X145571428Y-70897438D01*
X145571428Y-70897438D02*
X145619047Y-70945057D01*
X145619047Y-70945057D02*
X145666666Y-71040295D01*
X145666666Y-71040295D02*
X145666666Y-71135533D01*
X145666666Y-71135533D02*
X145619047Y-71278390D01*
X145619047Y-71278390D02*
X145047619Y-71849819D01*
X145047619Y-71849819D02*
X145666666Y-71849819D01*
X142976190Y-78049819D02*
X143166666Y-78049819D01*
X143166666Y-78049819D02*
X143261904Y-78097438D01*
X143261904Y-78097438D02*
X143357142Y-78192676D01*
X143357142Y-78192676D02*
X143404761Y-78383152D01*
X143404761Y-78383152D02*
X143404761Y-78716485D01*
X143404761Y-78716485D02*
X143357142Y-78906961D01*
X143357142Y-78906961D02*
X143261904Y-79002200D01*
X143261904Y-79002200D02*
X143166666Y-79049819D01*
X143166666Y-79049819D02*
X142976190Y-79049819D01*
X142976190Y-79049819D02*
X142880952Y-79002200D01*
X142880952Y-79002200D02*
X142785714Y-78906961D01*
X142785714Y-78906961D02*
X142738095Y-78716485D01*
X142738095Y-78716485D02*
X142738095Y-78383152D01*
X142738095Y-78383152D02*
X142785714Y-78192676D01*
X142785714Y-78192676D02*
X142880952Y-78097438D01*
X142880952Y-78097438D02*
X142976190Y-78049819D01*
X144261904Y-78383152D02*
X144261904Y-79049819D01*
X143833333Y-78383152D02*
X143833333Y-78906961D01*
X143833333Y-78906961D02*
X143880952Y-79002200D01*
X143880952Y-79002200D02*
X143976190Y-79049819D01*
X143976190Y-79049819D02*
X144119047Y-79049819D01*
X144119047Y-79049819D02*
X144214285Y-79002200D01*
X144214285Y-79002200D02*
X144261904Y-78954580D01*
X144595238Y-78383152D02*
X144976190Y-78383152D01*
X144738095Y-78049819D02*
X144738095Y-78906961D01*
X144738095Y-78906961D02*
X144785714Y-79002200D01*
X144785714Y-79002200D02*
X144880952Y-79049819D01*
X144880952Y-79049819D02*
X144976190Y-79049819D01*
X145309524Y-78383152D02*
X145309524Y-79383152D01*
X145309524Y-78430771D02*
X145404762Y-78383152D01*
X145404762Y-78383152D02*
X145595238Y-78383152D01*
X145595238Y-78383152D02*
X145690476Y-78430771D01*
X145690476Y-78430771D02*
X145738095Y-78478390D01*
X145738095Y-78478390D02*
X145785714Y-78573628D01*
X145785714Y-78573628D02*
X145785714Y-78859342D01*
X145785714Y-78859342D02*
X145738095Y-78954580D01*
X145738095Y-78954580D02*
X145690476Y-79002200D01*
X145690476Y-79002200D02*
X145595238Y-79049819D01*
X145595238Y-79049819D02*
X145404762Y-79049819D01*
X145404762Y-79049819D02*
X145309524Y-79002200D01*
X146642857Y-78383152D02*
X146642857Y-79049819D01*
X146214286Y-78383152D02*
X146214286Y-78906961D01*
X146214286Y-78906961D02*
X146261905Y-79002200D01*
X146261905Y-79002200D02*
X146357143Y-79049819D01*
X146357143Y-79049819D02*
X146500000Y-79049819D01*
X146500000Y-79049819D02*
X146595238Y-79002200D01*
X146595238Y-79002200D02*
X146642857Y-78954580D01*
X146976191Y-78383152D02*
X147357143Y-78383152D01*
X147119048Y-78049819D02*
X147119048Y-78906961D01*
X147119048Y-78906961D02*
X147166667Y-79002200D01*
X147166667Y-79002200D02*
X147261905Y-79049819D01*
X147261905Y-79049819D02*
X147357143Y-79049819D01*
X104666666Y-70849819D02*
X104666666Y-71564104D01*
X104666666Y-71564104D02*
X104619047Y-71706961D01*
X104619047Y-71706961D02*
X104523809Y-71802200D01*
X104523809Y-71802200D02*
X104380952Y-71849819D01*
X104380952Y-71849819D02*
X104285714Y-71849819D01*
X105047619Y-70849819D02*
X105666666Y-70849819D01*
X105666666Y-70849819D02*
X105333333Y-71230771D01*
X105333333Y-71230771D02*
X105476190Y-71230771D01*
X105476190Y-71230771D02*
X105571428Y-71278390D01*
X105571428Y-71278390D02*
X105619047Y-71326009D01*
X105619047Y-71326009D02*
X105666666Y-71421247D01*
X105666666Y-71421247D02*
X105666666Y-71659342D01*
X105666666Y-71659342D02*
X105619047Y-71754580D01*
X105619047Y-71754580D02*
X105571428Y-71802200D01*
X105571428Y-71802200D02*
X105476190Y-71849819D01*
X105476190Y-71849819D02*
X105190476Y-71849819D01*
X105190476Y-71849819D02*
X105095238Y-71802200D01*
X105095238Y-71802200D02*
X105047619Y-71754580D01*
X103357143Y-79049819D02*
X103357143Y-78049819D01*
X103833333Y-78383152D02*
X103833333Y-79049819D01*
X103833333Y-78478390D02*
X103880952Y-78430771D01*
X103880952Y-78430771D02*
X103976190Y-78383152D01*
X103976190Y-78383152D02*
X104119047Y-78383152D01*
X104119047Y-78383152D02*
X104214285Y-78430771D01*
X104214285Y-78430771D02*
X104261904Y-78526009D01*
X104261904Y-78526009D02*
X104261904Y-79049819D01*
X104738095Y-78383152D02*
X104738095Y-79383152D01*
X104738095Y-78430771D02*
X104833333Y-78383152D01*
X104833333Y-78383152D02*
X105023809Y-78383152D01*
X105023809Y-78383152D02*
X105119047Y-78430771D01*
X105119047Y-78430771D02*
X105166666Y-78478390D01*
X105166666Y-78478390D02*
X105214285Y-78573628D01*
X105214285Y-78573628D02*
X105214285Y-78859342D01*
X105214285Y-78859342D02*
X105166666Y-78954580D01*
X105166666Y-78954580D02*
X105119047Y-79002200D01*
X105119047Y-79002200D02*
X105023809Y-79049819D01*
X105023809Y-79049819D02*
X104833333Y-79049819D01*
X104833333Y-79049819D02*
X104738095Y-79002200D01*
X106071428Y-78383152D02*
X106071428Y-79049819D01*
X105642857Y-78383152D02*
X105642857Y-78906961D01*
X105642857Y-78906961D02*
X105690476Y-79002200D01*
X105690476Y-79002200D02*
X105785714Y-79049819D01*
X105785714Y-79049819D02*
X105928571Y-79049819D01*
X105928571Y-79049819D02*
X106023809Y-79002200D01*
X106023809Y-79002200D02*
X106071428Y-78954580D01*
X106404762Y-78383152D02*
X106785714Y-78383152D01*
X106547619Y-78049819D02*
X106547619Y-78906961D01*
X106547619Y-78906961D02*
X106595238Y-79002200D01*
X106595238Y-79002200D02*
X106690476Y-79049819D01*
X106690476Y-79049819D02*
X106785714Y-79049819D01*
X125833333Y-68854819D02*
X125500000Y-68378628D01*
X125261905Y-68854819D02*
X125261905Y-67854819D01*
X125261905Y-67854819D02*
X125642857Y-67854819D01*
X125642857Y-67854819D02*
X125738095Y-67902438D01*
X125738095Y-67902438D02*
X125785714Y-67950057D01*
X125785714Y-67950057D02*
X125833333Y-68045295D01*
X125833333Y-68045295D02*
X125833333Y-68188152D01*
X125833333Y-68188152D02*
X125785714Y-68283390D01*
X125785714Y-68283390D02*
X125738095Y-68331009D01*
X125738095Y-68331009D02*
X125642857Y-68378628D01*
X125642857Y-68378628D02*
X125261905Y-68378628D01*
X126690476Y-68188152D02*
X126690476Y-68854819D01*
X126452381Y-67807200D02*
X126214286Y-68521485D01*
X126214286Y-68521485D02*
X126833333Y-68521485D01*
D12*
%TO.C,Q2*%
X126850000Y-81430000D02*
X126850000Y-77830000D01*
X122400000Y-79630000D02*
G75*
G03*
X126838478Y-81468478I2600000J0D01*
G01*
X126838478Y-77791522D02*
G75*
G03*
X122400000Y-79630000I-1838478J-1838478D01*
G01*
%TO.C,C1*%
X136549759Y-61761000D02*
X137179759Y-61761000D01*
X136864759Y-61446000D02*
X136864759Y-62076000D01*
X140050000Y-60370000D02*
X140050000Y-66830000D01*
X140090000Y-60370000D02*
X140090000Y-66830000D01*
X140130000Y-60370000D02*
X140130000Y-66830000D01*
X140170000Y-60372000D02*
X140170000Y-66828000D01*
X140210000Y-60373000D02*
X140210000Y-66827000D01*
X140250000Y-60376000D02*
X140250000Y-66824000D01*
X140290000Y-60378000D02*
X140290000Y-62560000D01*
X140290000Y-64640000D02*
X140290000Y-66822000D01*
X140330000Y-60382000D02*
X140330000Y-62560000D01*
X140330000Y-64640000D02*
X140330000Y-66818000D01*
X140370000Y-60385000D02*
X140370000Y-62560000D01*
X140370000Y-64640000D02*
X140370000Y-66815000D01*
X140410000Y-60389000D02*
X140410000Y-62560000D01*
X140410000Y-64640000D02*
X140410000Y-66811000D01*
X140450000Y-60394000D02*
X140450000Y-62560000D01*
X140450000Y-64640000D02*
X140450000Y-66806000D01*
X140490000Y-60399000D02*
X140490000Y-62560000D01*
X140490000Y-64640000D02*
X140490000Y-66801000D01*
X140530000Y-60405000D02*
X140530000Y-62560000D01*
X140530000Y-64640000D02*
X140530000Y-66795000D01*
X140570000Y-60411000D02*
X140570000Y-62560000D01*
X140570000Y-64640000D02*
X140570000Y-66789000D01*
X140610000Y-60418000D02*
X140610000Y-62560000D01*
X140610000Y-64640000D02*
X140610000Y-66782000D01*
X140650000Y-60425000D02*
X140650000Y-62560000D01*
X140650000Y-64640000D02*
X140650000Y-66775000D01*
X140690000Y-60433000D02*
X140690000Y-62560000D01*
X140690000Y-64640000D02*
X140690000Y-66767000D01*
X140730000Y-60441000D02*
X140730000Y-62560000D01*
X140730000Y-64640000D02*
X140730000Y-66759000D01*
X140771000Y-60450000D02*
X140771000Y-62560000D01*
X140771000Y-64640000D02*
X140771000Y-66750000D01*
X140811000Y-60459000D02*
X140811000Y-62560000D01*
X140811000Y-64640000D02*
X140811000Y-66741000D01*
X140851000Y-60469000D02*
X140851000Y-62560000D01*
X140851000Y-64640000D02*
X140851000Y-66731000D01*
X140891000Y-60479000D02*
X140891000Y-62560000D01*
X140891000Y-64640000D02*
X140891000Y-66721000D01*
X140931000Y-60490000D02*
X140931000Y-62560000D01*
X140931000Y-64640000D02*
X140931000Y-66710000D01*
X140971000Y-60502000D02*
X140971000Y-62560000D01*
X140971000Y-64640000D02*
X140971000Y-66698000D01*
X141011000Y-60514000D02*
X141011000Y-62560000D01*
X141011000Y-64640000D02*
X141011000Y-66686000D01*
X141051000Y-60526000D02*
X141051000Y-62560000D01*
X141051000Y-64640000D02*
X141051000Y-66674000D01*
X141091000Y-60539000D02*
X141091000Y-62560000D01*
X141091000Y-64640000D02*
X141091000Y-66661000D01*
X141131000Y-60553000D02*
X141131000Y-62560000D01*
X141131000Y-64640000D02*
X141131000Y-66647000D01*
X141171000Y-60567000D02*
X141171000Y-62560000D01*
X141171000Y-64640000D02*
X141171000Y-66633000D01*
X141211000Y-60582000D02*
X141211000Y-62560000D01*
X141211000Y-64640000D02*
X141211000Y-66618000D01*
X141251000Y-60598000D02*
X141251000Y-62560000D01*
X141251000Y-64640000D02*
X141251000Y-66602000D01*
X141291000Y-60614000D02*
X141291000Y-62560000D01*
X141291000Y-64640000D02*
X141291000Y-66586000D01*
X141331000Y-60630000D02*
X141331000Y-62560000D01*
X141331000Y-64640000D02*
X141331000Y-66570000D01*
X141371000Y-60648000D02*
X141371000Y-62560000D01*
X141371000Y-64640000D02*
X141371000Y-66552000D01*
X141411000Y-60666000D02*
X141411000Y-62560000D01*
X141411000Y-64640000D02*
X141411000Y-66534000D01*
X141451000Y-60684000D02*
X141451000Y-62560000D01*
X141451000Y-64640000D02*
X141451000Y-66516000D01*
X141491000Y-60704000D02*
X141491000Y-62560000D01*
X141491000Y-64640000D02*
X141491000Y-66496000D01*
X141531000Y-60724000D02*
X141531000Y-62560000D01*
X141531000Y-64640000D02*
X141531000Y-66476000D01*
X141571000Y-60744000D02*
X141571000Y-62560000D01*
X141571000Y-64640000D02*
X141571000Y-66456000D01*
X141611000Y-60766000D02*
X141611000Y-62560000D01*
X141611000Y-64640000D02*
X141611000Y-66434000D01*
X141651000Y-60788000D02*
X141651000Y-62560000D01*
X141651000Y-64640000D02*
X141651000Y-66412000D01*
X141691000Y-60810000D02*
X141691000Y-62560000D01*
X141691000Y-64640000D02*
X141691000Y-66390000D01*
X141731000Y-60834000D02*
X141731000Y-62560000D01*
X141731000Y-64640000D02*
X141731000Y-66366000D01*
X141771000Y-60858000D02*
X141771000Y-62560000D01*
X141771000Y-64640000D02*
X141771000Y-66342000D01*
X141811000Y-60884000D02*
X141811000Y-62560000D01*
X141811000Y-64640000D02*
X141811000Y-66316000D01*
X141851000Y-60910000D02*
X141851000Y-62560000D01*
X141851000Y-64640000D02*
X141851000Y-66290000D01*
X141891000Y-60936000D02*
X141891000Y-62560000D01*
X141891000Y-64640000D02*
X141891000Y-66264000D01*
X141931000Y-60964000D02*
X141931000Y-62560000D01*
X141931000Y-64640000D02*
X141931000Y-66236000D01*
X141971000Y-60993000D02*
X141971000Y-62560000D01*
X141971000Y-64640000D02*
X141971000Y-66207000D01*
X142011000Y-61022000D02*
X142011000Y-62560000D01*
X142011000Y-64640000D02*
X142011000Y-66178000D01*
X142051000Y-61052000D02*
X142051000Y-62560000D01*
X142051000Y-64640000D02*
X142051000Y-66148000D01*
X142091000Y-61084000D02*
X142091000Y-62560000D01*
X142091000Y-64640000D02*
X142091000Y-66116000D01*
X142131000Y-61116000D02*
X142131000Y-62560000D01*
X142131000Y-64640000D02*
X142131000Y-66084000D01*
X142171000Y-61150000D02*
X142171000Y-62560000D01*
X142171000Y-64640000D02*
X142171000Y-66050000D01*
X142211000Y-61184000D02*
X142211000Y-62560000D01*
X142211000Y-64640000D02*
X142211000Y-66016000D01*
X142251000Y-61220000D02*
X142251000Y-62560000D01*
X142251000Y-64640000D02*
X142251000Y-65980000D01*
X142291000Y-61257000D02*
X142291000Y-62560000D01*
X142291000Y-64640000D02*
X142291000Y-65943000D01*
X142331000Y-61295000D02*
X142331000Y-62560000D01*
X142331000Y-64640000D02*
X142331000Y-65905000D01*
X142371000Y-61335000D02*
X142371000Y-65865000D01*
X142411000Y-61376000D02*
X142411000Y-65824000D01*
X142451000Y-61418000D02*
X142451000Y-65782000D01*
X142491000Y-61463000D02*
X142491000Y-65737000D01*
X142531000Y-61508000D02*
X142531000Y-65692000D01*
X142571000Y-61556000D02*
X142571000Y-65644000D01*
X142611000Y-61605000D02*
X142611000Y-65595000D01*
X142651000Y-61656000D02*
X142651000Y-65544000D01*
X142691000Y-61710000D02*
X142691000Y-65490000D01*
X142731000Y-61766000D02*
X142731000Y-65434000D01*
X142771000Y-61824000D02*
X142771000Y-65376000D01*
X142811000Y-61886000D02*
X142811000Y-65314000D01*
X142851000Y-61950000D02*
X142851000Y-65250000D01*
X142891000Y-62019000D02*
X142891000Y-65181000D01*
X142931000Y-62091000D02*
X142931000Y-65109000D01*
X142971000Y-62168000D02*
X142971000Y-65032000D01*
X143011000Y-62250000D02*
X143011000Y-64950000D01*
X143051000Y-62338000D02*
X143051000Y-64862000D01*
X143091000Y-62435000D02*
X143091000Y-64765000D01*
X143131000Y-62541000D02*
X143131000Y-64659000D01*
X143171000Y-62660000D02*
X143171000Y-64540000D01*
X143211000Y-62798000D02*
X143211000Y-64402000D01*
X143251000Y-62967000D02*
X143251000Y-64233000D01*
X143291000Y-63198000D02*
X143291000Y-64002000D01*
X143320000Y-63600000D02*
G75*
G03*
X136780000Y-63600000I-3270000J0D01*
G01*
X136780000Y-63600000D02*
G75*
G03*
X143320000Y-63600000I3270000J0D01*
G01*
%TO.C,C3*%
X136495225Y-72925000D02*
X136995225Y-72925000D01*
X136745225Y-72675000D02*
X136745225Y-73175000D01*
X139300000Y-71820000D02*
X139300000Y-73360000D01*
X139300000Y-75440000D02*
X139300000Y-76980000D01*
X139340000Y-71820000D02*
X139340000Y-73360000D01*
X139340000Y-75440000D02*
X139340000Y-76980000D01*
X139380000Y-71821000D02*
X139380000Y-73360000D01*
X139380000Y-75440000D02*
X139380000Y-76979000D01*
X139420000Y-71822000D02*
X139420000Y-73360000D01*
X139420000Y-75440000D02*
X139420000Y-76978000D01*
X139460000Y-71824000D02*
X139460000Y-73360000D01*
X139460000Y-75440000D02*
X139460000Y-76976000D01*
X139500000Y-71827000D02*
X139500000Y-73360000D01*
X139500000Y-75440000D02*
X139500000Y-76973000D01*
X139540000Y-71831000D02*
X139540000Y-73360000D01*
X139540000Y-75440000D02*
X139540000Y-76969000D01*
X139580000Y-71835000D02*
X139580000Y-73360000D01*
X139580000Y-75440000D02*
X139580000Y-76965000D01*
X139620000Y-71839000D02*
X139620000Y-73360000D01*
X139620000Y-75440000D02*
X139620000Y-76961000D01*
X139660000Y-71844000D02*
X139660000Y-73360000D01*
X139660000Y-75440000D02*
X139660000Y-76956000D01*
X139700000Y-71850000D02*
X139700000Y-73360000D01*
X139700000Y-75440000D02*
X139700000Y-76950000D01*
X139740000Y-71857000D02*
X139740000Y-73360000D01*
X139740000Y-75440000D02*
X139740000Y-76943000D01*
X139780000Y-71864000D02*
X139780000Y-73360000D01*
X139780000Y-75440000D02*
X139780000Y-76936000D01*
X139820000Y-71872000D02*
X139820000Y-73360000D01*
X139820000Y-75440000D02*
X139820000Y-76928000D01*
X139860000Y-71880000D02*
X139860000Y-73360000D01*
X139860000Y-75440000D02*
X139860000Y-76920000D01*
X139900000Y-71889000D02*
X139900000Y-73360000D01*
X139900000Y-75440000D02*
X139900000Y-76911000D01*
X139940000Y-71899000D02*
X139940000Y-73360000D01*
X139940000Y-75440000D02*
X139940000Y-76901000D01*
X139980000Y-71909000D02*
X139980000Y-73360000D01*
X139980000Y-75440000D02*
X139980000Y-76891000D01*
X140021000Y-71920000D02*
X140021000Y-73360000D01*
X140021000Y-75440000D02*
X140021000Y-76880000D01*
X140061000Y-71932000D02*
X140061000Y-73360000D01*
X140061000Y-75440000D02*
X140061000Y-76868000D01*
X140101000Y-71945000D02*
X140101000Y-73360000D01*
X140101000Y-75440000D02*
X140101000Y-76855000D01*
X140141000Y-71958000D02*
X140141000Y-73360000D01*
X140141000Y-75440000D02*
X140141000Y-76842000D01*
X140181000Y-71972000D02*
X140181000Y-73360000D01*
X140181000Y-75440000D02*
X140181000Y-76828000D01*
X140221000Y-71986000D02*
X140221000Y-73360000D01*
X140221000Y-75440000D02*
X140221000Y-76814000D01*
X140261000Y-72002000D02*
X140261000Y-73360000D01*
X140261000Y-75440000D02*
X140261000Y-76798000D01*
X140301000Y-72018000D02*
X140301000Y-73360000D01*
X140301000Y-75440000D02*
X140301000Y-76782000D01*
X140341000Y-72035000D02*
X140341000Y-73360000D01*
X140341000Y-75440000D02*
X140341000Y-76765000D01*
X140381000Y-72052000D02*
X140381000Y-73360000D01*
X140381000Y-75440000D02*
X140381000Y-76748000D01*
X140421000Y-72071000D02*
X140421000Y-73360000D01*
X140421000Y-75440000D02*
X140421000Y-76729000D01*
X140461000Y-72090000D02*
X140461000Y-73360000D01*
X140461000Y-75440000D02*
X140461000Y-76710000D01*
X140501000Y-72110000D02*
X140501000Y-73360000D01*
X140501000Y-75440000D02*
X140501000Y-76690000D01*
X140541000Y-72132000D02*
X140541000Y-73360000D01*
X140541000Y-75440000D02*
X140541000Y-76668000D01*
X140581000Y-72153000D02*
X140581000Y-73360000D01*
X140581000Y-75440000D02*
X140581000Y-76647000D01*
X140621000Y-72176000D02*
X140621000Y-73360000D01*
X140621000Y-75440000D02*
X140621000Y-76624000D01*
X140661000Y-72200000D02*
X140661000Y-73360000D01*
X140661000Y-75440000D02*
X140661000Y-76600000D01*
X140701000Y-72225000D02*
X140701000Y-73360000D01*
X140701000Y-75440000D02*
X140701000Y-76575000D01*
X140741000Y-72251000D02*
X140741000Y-73360000D01*
X140741000Y-75440000D02*
X140741000Y-76549000D01*
X140781000Y-72278000D02*
X140781000Y-73360000D01*
X140781000Y-75440000D02*
X140781000Y-76522000D01*
X140821000Y-72305000D02*
X140821000Y-73360000D01*
X140821000Y-75440000D02*
X140821000Y-76495000D01*
X140861000Y-72335000D02*
X140861000Y-73360000D01*
X140861000Y-75440000D02*
X140861000Y-76465000D01*
X140901000Y-72365000D02*
X140901000Y-73360000D01*
X140901000Y-75440000D02*
X140901000Y-76435000D01*
X140941000Y-72396000D02*
X140941000Y-73360000D01*
X140941000Y-75440000D02*
X140941000Y-76404000D01*
X140981000Y-72429000D02*
X140981000Y-73360000D01*
X140981000Y-75440000D02*
X140981000Y-76371000D01*
X141021000Y-72463000D02*
X141021000Y-73360000D01*
X141021000Y-75440000D02*
X141021000Y-76337000D01*
X141061000Y-72499000D02*
X141061000Y-73360000D01*
X141061000Y-75440000D02*
X141061000Y-76301000D01*
X141101000Y-72536000D02*
X141101000Y-73360000D01*
X141101000Y-75440000D02*
X141101000Y-76264000D01*
X141141000Y-72574000D02*
X141141000Y-73360000D01*
X141141000Y-75440000D02*
X141141000Y-76226000D01*
X141181000Y-72615000D02*
X141181000Y-73360000D01*
X141181000Y-75440000D02*
X141181000Y-76185000D01*
X141221000Y-72657000D02*
X141221000Y-73360000D01*
X141221000Y-75440000D02*
X141221000Y-76143000D01*
X141261000Y-72701000D02*
X141261000Y-73360000D01*
X141261000Y-75440000D02*
X141261000Y-76099000D01*
X141301000Y-72747000D02*
X141301000Y-73360000D01*
X141301000Y-75440000D02*
X141301000Y-76053000D01*
X141341000Y-72795000D02*
X141341000Y-76005000D01*
X141381000Y-72846000D02*
X141381000Y-75954000D01*
X141421000Y-72900000D02*
X141421000Y-75900000D01*
X141461000Y-72957000D02*
X141461000Y-75843000D01*
X141501000Y-73017000D02*
X141501000Y-75783000D01*
X141541000Y-73081000D02*
X141541000Y-75719000D01*
X141581000Y-73149000D02*
X141581000Y-75651000D01*
X141621000Y-73222000D02*
X141621000Y-75578000D01*
X141661000Y-73302000D02*
X141661000Y-75498000D01*
X141701000Y-73389000D02*
X141701000Y-75411000D01*
X141741000Y-73485000D02*
X141741000Y-75315000D01*
X141781000Y-73595000D02*
X141781000Y-75205000D01*
X141821000Y-73723000D02*
X141821000Y-75077000D01*
X141861000Y-73882000D02*
X141861000Y-74918000D01*
X141901000Y-74116000D02*
X141901000Y-74684000D01*
X141920000Y-74400000D02*
G75*
G03*
X136680000Y-74400000I-2620000J0D01*
G01*
X136680000Y-74400000D02*
G75*
G03*
X141920000Y-74400000I2620000J0D01*
G01*
%TO.C,R3*%
X133100000Y-68825000D02*
X133100000Y-68895000D01*
X134470000Y-67455000D02*
G75*
G03*
X131730000Y-67455000I-1370000J0D01*
G01*
X131730000Y-67455000D02*
G75*
G03*
X134470000Y-67455000I1370000J0D01*
G01*
%TO.C,R5*%
X133100000Y-83770000D02*
X133100000Y-83840000D01*
X134470000Y-82400000D02*
G75*
G03*
X131730000Y-82400000I-1370000J0D01*
G01*
X131730000Y-82400000D02*
G75*
G03*
X134470000Y-82400000I1370000J0D01*
G01*
%TO.C,G\u002A\u002A\u002A*%
D13*
X105241300Y-86603560D02*
X105292100Y-86608640D01*
X105307340Y-86611180D01*
X105314960Y-86636580D01*
X105327660Y-86697540D01*
X105342900Y-86783900D01*
X105363220Y-86890580D01*
X105368300Y-86908360D01*
X105388620Y-87017580D01*
X105406400Y-87109020D01*
X105421640Y-87175060D01*
X105431800Y-87205540D01*
X105431800Y-87208080D01*
X105459740Y-87223320D01*
X105515620Y-87248720D01*
X105589280Y-87279200D01*
X105673100Y-87312220D01*
X105749300Y-87342700D01*
X105812800Y-87365560D01*
X105848360Y-87375720D01*
X105853440Y-87375720D01*
X105876300Y-87363020D01*
X105929640Y-87327460D01*
X106003300Y-87276660D01*
X106092200Y-87215700D01*
X106097280Y-87213160D01*
X106188720Y-87152200D01*
X106264920Y-87098860D01*
X106320800Y-87063300D01*
X106348740Y-87045520D01*
X106366520Y-87053140D01*
X106404620Y-87081080D01*
X106463040Y-87136960D01*
X106549400Y-87220780D01*
X106574800Y-87246180D01*
X106653540Y-87324920D01*
X106717040Y-87393500D01*
X106762760Y-87444300D01*
X106783080Y-87469700D01*
X106783080Y-87472240D01*
X106770380Y-87495100D01*
X106739900Y-87548440D01*
X106689100Y-87624640D01*
X106628140Y-87713540D01*
X106625600Y-87721160D01*
X106562100Y-87810060D01*
X106511300Y-87886260D01*
X106475740Y-87939600D01*
X106460500Y-87965000D01*
X106465580Y-87990400D01*
X106485900Y-88046280D01*
X106516380Y-88119940D01*
X106549400Y-88203760D01*
X106584960Y-88282500D01*
X106615440Y-88348540D01*
X106635760Y-88389180D01*
X106640840Y-88396800D01*
X106668780Y-88404420D01*
X106729740Y-88419660D01*
X106818640Y-88437440D01*
X106922780Y-88457760D01*
X106930400Y-88460300D01*
X107034540Y-88480620D01*
X107123440Y-88495860D01*
X107186940Y-88511100D01*
X107214880Y-88516180D01*
X107217420Y-88541580D01*
X107222500Y-88600000D01*
X107222500Y-88693980D01*
X107225040Y-88810820D01*
X107225040Y-88823520D01*
X107225040Y-88947980D01*
X107222500Y-89031800D01*
X107219960Y-89085140D01*
X107217420Y-89115620D01*
X107212340Y-89130860D01*
X107204720Y-89133400D01*
X107176780Y-89138480D01*
X107110740Y-89151180D01*
X107024380Y-89168960D01*
X106925320Y-89186740D01*
X106821180Y-89207060D01*
X106734820Y-89224840D01*
X106676400Y-89237540D01*
X106653540Y-89247700D01*
X106640840Y-89273100D01*
X106615440Y-89328980D01*
X106579880Y-89410260D01*
X106554480Y-89476300D01*
X106465580Y-89694740D01*
X106625600Y-89925880D01*
X106686560Y-90014780D01*
X106734820Y-90090980D01*
X106770380Y-90144320D01*
X106783080Y-90169720D01*
X106767840Y-90192580D01*
X106727200Y-90238300D01*
X106666240Y-90301800D01*
X106590040Y-90380540D01*
X106574800Y-90393240D01*
X106483360Y-90484680D01*
X106417320Y-90545640D01*
X106374140Y-90583740D01*
X106351280Y-90596440D01*
X106346200Y-90596440D01*
X106320800Y-90581200D01*
X106264920Y-90545640D01*
X106191260Y-90497380D01*
X106109980Y-90441500D01*
X106023620Y-90383080D01*
X105952500Y-90334820D01*
X105904240Y-90304340D01*
X105883920Y-90294180D01*
X105861060Y-90301800D01*
X105810260Y-90327200D01*
X105767080Y-90350060D01*
X105698500Y-90383080D01*
X105662940Y-90395780D01*
X105645160Y-90393240D01*
X105645160Y-90390700D01*
X105632460Y-90367840D01*
X105607060Y-90306880D01*
X105566420Y-90217980D01*
X105518160Y-90103680D01*
X105464820Y-89974140D01*
X105431800Y-89897940D01*
X105233680Y-89417880D01*
X105261620Y-89395020D01*
X105297180Y-89367080D01*
X105350520Y-89328980D01*
X105365760Y-89318820D01*
X105480060Y-89207060D01*
X105561340Y-89074980D01*
X105607060Y-88925120D01*
X105614680Y-88767640D01*
X105609600Y-88732080D01*
X105566420Y-88589840D01*
X105490220Y-88457760D01*
X105434340Y-88394260D01*
X105302260Y-88292660D01*
X105154940Y-88234240D01*
X105000000Y-88216460D01*
X104837440Y-88236780D01*
X104695200Y-88300280D01*
X104570740Y-88396800D01*
X104469140Y-88528880D01*
X104408180Y-88673660D01*
X104390400Y-88823520D01*
X104413260Y-88988620D01*
X104476760Y-89135940D01*
X104580900Y-89265480D01*
X104685040Y-89351840D01*
X104733300Y-89387400D01*
X104761240Y-89415340D01*
X104763780Y-89420420D01*
X104756160Y-89445820D01*
X104733300Y-89506780D01*
X104697740Y-89593140D01*
X104654560Y-89699820D01*
X104606300Y-89819200D01*
X104552960Y-89941120D01*
X104502160Y-90063040D01*
X104453900Y-90177340D01*
X104410720Y-90273860D01*
X104380240Y-90347520D01*
X104359920Y-90388160D01*
X104354840Y-90395780D01*
X104326900Y-90390700D01*
X104271020Y-90367840D01*
X104235460Y-90350060D01*
X104174500Y-90317040D01*
X104133860Y-90296720D01*
X104121160Y-90294180D01*
X104100840Y-90304340D01*
X104050040Y-90337360D01*
X103976380Y-90385620D01*
X103890020Y-90446580D01*
X103801120Y-90505000D01*
X103727460Y-90553260D01*
X103674120Y-90586280D01*
X103651260Y-90598980D01*
X103630940Y-90583740D01*
X103585220Y-90543100D01*
X103519180Y-90482140D01*
X103440440Y-90405940D01*
X103425200Y-90390700D01*
X103326140Y-90294180D01*
X103260100Y-90225600D01*
X103227080Y-90184960D01*
X103219460Y-90167180D01*
X103234700Y-90141780D01*
X103267720Y-90088440D01*
X103318520Y-90014780D01*
X103379480Y-89925880D01*
X103437900Y-89839520D01*
X103486160Y-89765860D01*
X103519180Y-89715060D01*
X103531880Y-89692200D01*
X103524260Y-89659180D01*
X103501400Y-89600760D01*
X103470920Y-89522020D01*
X103435360Y-89438200D01*
X103402340Y-89356920D01*
X103369320Y-89288340D01*
X103349000Y-89247700D01*
X103341380Y-89237540D01*
X103313440Y-89232460D01*
X103249940Y-89219760D01*
X103161040Y-89201980D01*
X103074680Y-89186740D01*
X102973080Y-89166420D01*
X102886720Y-89148640D01*
X102825760Y-89135940D01*
X102800360Y-89128320D01*
X102774960Y-89118160D01*
X102780040Y-88516180D01*
X102945140Y-88485700D01*
X103049280Y-88465380D01*
X103161040Y-88442520D01*
X103239780Y-88429820D01*
X103369320Y-88404420D01*
X103455680Y-88206300D01*
X103493780Y-88117400D01*
X103521720Y-88043740D01*
X103539500Y-87995480D01*
X103542040Y-87982780D01*
X103531880Y-87954840D01*
X103496320Y-87893880D01*
X103440440Y-87810060D01*
X103392180Y-87736400D01*
X103331220Y-87647500D01*
X103277880Y-87571300D01*
X103242320Y-87517960D01*
X103227080Y-87492560D01*
X103224540Y-87479860D01*
X103232160Y-87462080D01*
X103255020Y-87431600D01*
X103300740Y-87383340D01*
X103369320Y-87312220D01*
X103427740Y-87256340D01*
X103506480Y-87177600D01*
X103572520Y-87111560D01*
X103623320Y-87065840D01*
X103648720Y-87042980D01*
X103671580Y-87053140D01*
X103722380Y-87086160D01*
X103796040Y-87136960D01*
X103884940Y-87197920D01*
X103907800Y-87213160D01*
X104159260Y-87383340D01*
X104362460Y-87302060D01*
X104448820Y-87266500D01*
X104519940Y-87236020D01*
X104565660Y-87218240D01*
X104573280Y-87213160D01*
X104580900Y-87190300D01*
X104593600Y-87129340D01*
X104611380Y-87042980D01*
X104631700Y-86936300D01*
X104634240Y-86918520D01*
X104657100Y-86809300D01*
X104674880Y-86715320D01*
X104690120Y-86649280D01*
X104697740Y-86616260D01*
X104700280Y-86616260D01*
X104725680Y-86611180D01*
X104784100Y-86606100D01*
X104867920Y-86603560D01*
X104966980Y-86601020D01*
X105066040Y-86601020D01*
X105162560Y-86601020D01*
X105241300Y-86603560D01*
G36*
X105241300Y-86603560D02*
G01*
X105292100Y-86608640D01*
X105307340Y-86611180D01*
X105314960Y-86636580D01*
X105327660Y-86697540D01*
X105342900Y-86783900D01*
X105363220Y-86890580D01*
X105368300Y-86908360D01*
X105388620Y-87017580D01*
X105406400Y-87109020D01*
X105421640Y-87175060D01*
X105431800Y-87205540D01*
X105431800Y-87208080D01*
X105459740Y-87223320D01*
X105515620Y-87248720D01*
X105589280Y-87279200D01*
X105673100Y-87312220D01*
X105749300Y-87342700D01*
X105812800Y-87365560D01*
X105848360Y-87375720D01*
X105853440Y-87375720D01*
X105876300Y-87363020D01*
X105929640Y-87327460D01*
X106003300Y-87276660D01*
X106092200Y-87215700D01*
X106097280Y-87213160D01*
X106188720Y-87152200D01*
X106264920Y-87098860D01*
X106320800Y-87063300D01*
X106348740Y-87045520D01*
X106366520Y-87053140D01*
X106404620Y-87081080D01*
X106463040Y-87136960D01*
X106549400Y-87220780D01*
X106574800Y-87246180D01*
X106653540Y-87324920D01*
X106717040Y-87393500D01*
X106762760Y-87444300D01*
X106783080Y-87469700D01*
X106783080Y-87472240D01*
X106770380Y-87495100D01*
X106739900Y-87548440D01*
X106689100Y-87624640D01*
X106628140Y-87713540D01*
X106625600Y-87721160D01*
X106562100Y-87810060D01*
X106511300Y-87886260D01*
X106475740Y-87939600D01*
X106460500Y-87965000D01*
X106465580Y-87990400D01*
X106485900Y-88046280D01*
X106516380Y-88119940D01*
X106549400Y-88203760D01*
X106584960Y-88282500D01*
X106615440Y-88348540D01*
X106635760Y-88389180D01*
X106640840Y-88396800D01*
X106668780Y-88404420D01*
X106729740Y-88419660D01*
X106818640Y-88437440D01*
X106922780Y-88457760D01*
X106930400Y-88460300D01*
X107034540Y-88480620D01*
X107123440Y-88495860D01*
X107186940Y-88511100D01*
X107214880Y-88516180D01*
X107217420Y-88541580D01*
X107222500Y-88600000D01*
X107222500Y-88693980D01*
X107225040Y-88810820D01*
X107225040Y-88823520D01*
X107225040Y-88947980D01*
X107222500Y-89031800D01*
X107219960Y-89085140D01*
X107217420Y-89115620D01*
X107212340Y-89130860D01*
X107204720Y-89133400D01*
X107176780Y-89138480D01*
X107110740Y-89151180D01*
X107024380Y-89168960D01*
X106925320Y-89186740D01*
X106821180Y-89207060D01*
X106734820Y-89224840D01*
X106676400Y-89237540D01*
X106653540Y-89247700D01*
X106640840Y-89273100D01*
X106615440Y-89328980D01*
X106579880Y-89410260D01*
X106554480Y-89476300D01*
X106465580Y-89694740D01*
X106625600Y-89925880D01*
X106686560Y-90014780D01*
X106734820Y-90090980D01*
X106770380Y-90144320D01*
X106783080Y-90169720D01*
X106767840Y-90192580D01*
X106727200Y-90238300D01*
X106666240Y-90301800D01*
X106590040Y-90380540D01*
X106574800Y-90393240D01*
X106483360Y-90484680D01*
X106417320Y-90545640D01*
X106374140Y-90583740D01*
X106351280Y-90596440D01*
X106346200Y-90596440D01*
X106320800Y-90581200D01*
X106264920Y-90545640D01*
X106191260Y-90497380D01*
X106109980Y-90441500D01*
X106023620Y-90383080D01*
X105952500Y-90334820D01*
X105904240Y-90304340D01*
X105883920Y-90294180D01*
X105861060Y-90301800D01*
X105810260Y-90327200D01*
X105767080Y-90350060D01*
X105698500Y-90383080D01*
X105662940Y-90395780D01*
X105645160Y-90393240D01*
X105645160Y-90390700D01*
X105632460Y-90367840D01*
X105607060Y-90306880D01*
X105566420Y-90217980D01*
X105518160Y-90103680D01*
X105464820Y-89974140D01*
X105431800Y-89897940D01*
X105233680Y-89417880D01*
X105261620Y-89395020D01*
X105297180Y-89367080D01*
X105350520Y-89328980D01*
X105365760Y-89318820D01*
X105480060Y-89207060D01*
X105561340Y-89074980D01*
X105607060Y-88925120D01*
X105614680Y-88767640D01*
X105609600Y-88732080D01*
X105566420Y-88589840D01*
X105490220Y-88457760D01*
X105434340Y-88394260D01*
X105302260Y-88292660D01*
X105154940Y-88234240D01*
X105000000Y-88216460D01*
X104837440Y-88236780D01*
X104695200Y-88300280D01*
X104570740Y-88396800D01*
X104469140Y-88528880D01*
X104408180Y-88673660D01*
X104390400Y-88823520D01*
X104413260Y-88988620D01*
X104476760Y-89135940D01*
X104580900Y-89265480D01*
X104685040Y-89351840D01*
X104733300Y-89387400D01*
X104761240Y-89415340D01*
X104763780Y-89420420D01*
X104756160Y-89445820D01*
X104733300Y-89506780D01*
X104697740Y-89593140D01*
X104654560Y-89699820D01*
X104606300Y-89819200D01*
X104552960Y-89941120D01*
X104502160Y-90063040D01*
X104453900Y-90177340D01*
X104410720Y-90273860D01*
X104380240Y-90347520D01*
X104359920Y-90388160D01*
X104354840Y-90395780D01*
X104326900Y-90390700D01*
X104271020Y-90367840D01*
X104235460Y-90350060D01*
X104174500Y-90317040D01*
X104133860Y-90296720D01*
X104121160Y-90294180D01*
X104100840Y-90304340D01*
X104050040Y-90337360D01*
X103976380Y-90385620D01*
X103890020Y-90446580D01*
X103801120Y-90505000D01*
X103727460Y-90553260D01*
X103674120Y-90586280D01*
X103651260Y-90598980D01*
X103630940Y-90583740D01*
X103585220Y-90543100D01*
X103519180Y-90482140D01*
X103440440Y-90405940D01*
X103425200Y-90390700D01*
X103326140Y-90294180D01*
X103260100Y-90225600D01*
X103227080Y-90184960D01*
X103219460Y-90167180D01*
X103234700Y-90141780D01*
X103267720Y-90088440D01*
X103318520Y-90014780D01*
X103379480Y-89925880D01*
X103437900Y-89839520D01*
X103486160Y-89765860D01*
X103519180Y-89715060D01*
X103531880Y-89692200D01*
X103524260Y-89659180D01*
X103501400Y-89600760D01*
X103470920Y-89522020D01*
X103435360Y-89438200D01*
X103402340Y-89356920D01*
X103369320Y-89288340D01*
X103349000Y-89247700D01*
X103341380Y-89237540D01*
X103313440Y-89232460D01*
X103249940Y-89219760D01*
X103161040Y-89201980D01*
X103074680Y-89186740D01*
X102973080Y-89166420D01*
X102886720Y-89148640D01*
X102825760Y-89135940D01*
X102800360Y-89128320D01*
X102774960Y-89118160D01*
X102780040Y-88516180D01*
X102945140Y-88485700D01*
X103049280Y-88465380D01*
X103161040Y-88442520D01*
X103239780Y-88429820D01*
X103369320Y-88404420D01*
X103455680Y-88206300D01*
X103493780Y-88117400D01*
X103521720Y-88043740D01*
X103539500Y-87995480D01*
X103542040Y-87982780D01*
X103531880Y-87954840D01*
X103496320Y-87893880D01*
X103440440Y-87810060D01*
X103392180Y-87736400D01*
X103331220Y-87647500D01*
X103277880Y-87571300D01*
X103242320Y-87517960D01*
X103227080Y-87492560D01*
X103224540Y-87479860D01*
X103232160Y-87462080D01*
X103255020Y-87431600D01*
X103300740Y-87383340D01*
X103369320Y-87312220D01*
X103427740Y-87256340D01*
X103506480Y-87177600D01*
X103572520Y-87111560D01*
X103623320Y-87065840D01*
X103648720Y-87042980D01*
X103671580Y-87053140D01*
X103722380Y-87086160D01*
X103796040Y-87136960D01*
X103884940Y-87197920D01*
X103907800Y-87213160D01*
X104159260Y-87383340D01*
X104362460Y-87302060D01*
X104448820Y-87266500D01*
X104519940Y-87236020D01*
X104565660Y-87218240D01*
X104573280Y-87213160D01*
X104580900Y-87190300D01*
X104593600Y-87129340D01*
X104611380Y-87042980D01*
X104631700Y-86936300D01*
X104634240Y-86918520D01*
X104657100Y-86809300D01*
X104674880Y-86715320D01*
X104690120Y-86649280D01*
X104697740Y-86616260D01*
X104700280Y-86616260D01*
X104725680Y-86611180D01*
X104784100Y-86606100D01*
X104867920Y-86603560D01*
X104966980Y-86601020D01*
X105066040Y-86601020D01*
X105162560Y-86601020D01*
X105241300Y-86603560D01*
G37*
D12*
%TO.C,R1*%
X133100000Y-61170000D02*
X133100000Y-61240000D01*
X134470000Y-59800000D02*
G75*
G03*
X131730000Y-59800000I-1370000J0D01*
G01*
X131730000Y-59800000D02*
G75*
G03*
X134470000Y-59800000I1370000J0D01*
G01*
%TO.C,R8*%
X126370000Y-85700000D02*
X126440000Y-85700000D01*
X126370000Y-85700000D02*
G75*
G03*
X123630000Y-85700000I-1370000J0D01*
G01*
X123630000Y-85700000D02*
G75*
G03*
X126370000Y-85700000I1370000J0D01*
G01*
%TO.C,Q1*%
X134950000Y-77530000D02*
X134950000Y-73930000D01*
X130500000Y-75730000D02*
G75*
G03*
X134938478Y-77568478I2600000J0D01*
G01*
X134938478Y-73891522D02*
G75*
G03*
X130500000Y-75730000I-1838478J-1838478D01*
G01*
D14*
%TO.C,L1*%
X120199980Y-77298760D02*
X110200000Y-77298760D01*
X110200000Y-77298760D02*
X110200000Y-81901240D01*
X120199980Y-81901240D02*
X120199980Y-77298760D01*
X110200000Y-81901240D02*
X120199980Y-81901240D01*
D12*
%TO.C,C4*%
X120315000Y-68040302D02*
X120315000Y-68840302D01*
X120715000Y-68440302D02*
X119915000Y-68440302D01*
X122080000Y-72450000D02*
X113920000Y-72450000D01*
X122080000Y-72490000D02*
X113920000Y-72490000D01*
X122080000Y-72530000D02*
X113920000Y-72530000D01*
X122079000Y-72570000D02*
X113921000Y-72570000D01*
X122077000Y-72610000D02*
X113923000Y-72610000D01*
X122076000Y-72650000D02*
X113924000Y-72650000D01*
X122074000Y-72690000D02*
X113926000Y-72690000D01*
X122071000Y-72730000D02*
X113929000Y-72730000D01*
X122068000Y-72770000D02*
X113932000Y-72770000D01*
X122065000Y-72810000D02*
X113935000Y-72810000D01*
X122061000Y-72850000D02*
X113939000Y-72850000D01*
X122057000Y-72890000D02*
X113943000Y-72890000D01*
X122052000Y-72930000D02*
X113948000Y-72930000D01*
X122048000Y-72970000D02*
X113952000Y-72970000D01*
X122042000Y-73010000D02*
X113958000Y-73010000D01*
X122037000Y-73050000D02*
X113963000Y-73050000D01*
X122030000Y-73090000D02*
X113970000Y-73090000D01*
X122024000Y-73130000D02*
X113976000Y-73130000D01*
X122017000Y-73171000D02*
X119040000Y-73171000D01*
X116960000Y-73171000D02*
X113983000Y-73171000D01*
X122010000Y-73211000D02*
X119040000Y-73211000D01*
X116960000Y-73211000D02*
X113990000Y-73211000D01*
X122002000Y-73251000D02*
X119040000Y-73251000D01*
X116960000Y-73251000D02*
X113998000Y-73251000D01*
X121994000Y-73291000D02*
X119040000Y-73291000D01*
X116960000Y-73291000D02*
X114006000Y-73291000D01*
X121985000Y-73331000D02*
X119040000Y-73331000D01*
X116960000Y-73331000D02*
X114015000Y-73331000D01*
X121976000Y-73371000D02*
X119040000Y-73371000D01*
X116960000Y-73371000D02*
X114024000Y-73371000D01*
X121967000Y-73411000D02*
X119040000Y-73411000D01*
X116960000Y-73411000D02*
X114033000Y-73411000D01*
X121957000Y-73451000D02*
X119040000Y-73451000D01*
X116960000Y-73451000D02*
X114043000Y-73451000D01*
X121947000Y-73491000D02*
X119040000Y-73491000D01*
X116960000Y-73491000D02*
X114053000Y-73491000D01*
X121936000Y-73531000D02*
X119040000Y-73531000D01*
X116960000Y-73531000D02*
X114064000Y-73531000D01*
X121925000Y-73571000D02*
X119040000Y-73571000D01*
X116960000Y-73571000D02*
X114075000Y-73571000D01*
X121914000Y-73611000D02*
X119040000Y-73611000D01*
X116960000Y-73611000D02*
X114086000Y-73611000D01*
X121902000Y-73651000D02*
X119040000Y-73651000D01*
X116960000Y-73651000D02*
X114098000Y-73651000D01*
X121889000Y-73691000D02*
X119040000Y-73691000D01*
X116960000Y-73691000D02*
X114111000Y-73691000D01*
X121877000Y-73731000D02*
X119040000Y-73731000D01*
X116960000Y-73731000D02*
X114123000Y-73731000D01*
X121863000Y-73771000D02*
X119040000Y-73771000D01*
X116960000Y-73771000D02*
X114137000Y-73771000D01*
X121850000Y-73811000D02*
X119040000Y-73811000D01*
X116960000Y-73811000D02*
X114150000Y-73811000D01*
X121835000Y-73851000D02*
X119040000Y-73851000D01*
X116960000Y-73851000D02*
X114165000Y-73851000D01*
X121821000Y-73891000D02*
X119040000Y-73891000D01*
X116960000Y-73891000D02*
X114179000Y-73891000D01*
X121805000Y-73931000D02*
X119040000Y-73931000D01*
X116960000Y-73931000D02*
X114195000Y-73931000D01*
X121790000Y-73971000D02*
X119040000Y-73971000D01*
X116960000Y-73971000D02*
X114210000Y-73971000D01*
X121774000Y-74011000D02*
X119040000Y-74011000D01*
X116960000Y-74011000D02*
X114226000Y-74011000D01*
X121757000Y-74051000D02*
X119040000Y-74051000D01*
X116960000Y-74051000D02*
X114243000Y-74051000D01*
X121740000Y-74091000D02*
X119040000Y-74091000D01*
X116960000Y-74091000D02*
X114260000Y-74091000D01*
X121722000Y-74131000D02*
X119040000Y-74131000D01*
X116960000Y-74131000D02*
X114278000Y-74131000D01*
X121704000Y-74171000D02*
X119040000Y-74171000D01*
X116960000Y-74171000D02*
X114296000Y-74171000D01*
X121686000Y-74211000D02*
X119040000Y-74211000D01*
X116960000Y-74211000D02*
X114314000Y-74211000D01*
X121666000Y-74251000D02*
X119040000Y-74251000D01*
X116960000Y-74251000D02*
X114334000Y-74251000D01*
X121647000Y-74291000D02*
X119040000Y-74291000D01*
X116960000Y-74291000D02*
X114353000Y-74291000D01*
X121627000Y-74331000D02*
X119040000Y-74331000D01*
X116960000Y-74331000D02*
X114373000Y-74331000D01*
X121606000Y-74371000D02*
X119040000Y-74371000D01*
X116960000Y-74371000D02*
X114394000Y-74371000D01*
X121584000Y-74411000D02*
X119040000Y-74411000D01*
X116960000Y-74411000D02*
X114416000Y-74411000D01*
X121562000Y-74451000D02*
X119040000Y-74451000D01*
X116960000Y-74451000D02*
X114438000Y-74451000D01*
X121540000Y-74491000D02*
X119040000Y-74491000D01*
X116960000Y-74491000D02*
X114460000Y-74491000D01*
X121517000Y-74531000D02*
X119040000Y-74531000D01*
X116960000Y-74531000D02*
X114483000Y-74531000D01*
X121493000Y-74571000D02*
X119040000Y-74571000D01*
X116960000Y-74571000D02*
X114507000Y-74571000D01*
X121469000Y-74611000D02*
X119040000Y-74611000D01*
X116960000Y-74611000D02*
X114531000Y-74611000D01*
X121444000Y-74651000D02*
X119040000Y-74651000D01*
X116960000Y-74651000D02*
X114556000Y-74651000D01*
X121418000Y-74691000D02*
X119040000Y-74691000D01*
X116960000Y-74691000D02*
X114582000Y-74691000D01*
X121392000Y-74731000D02*
X119040000Y-74731000D01*
X116960000Y-74731000D02*
X114608000Y-74731000D01*
X121365000Y-74771000D02*
X119040000Y-74771000D01*
X116960000Y-74771000D02*
X114635000Y-74771000D01*
X121338000Y-74811000D02*
X119040000Y-74811000D01*
X116960000Y-74811000D02*
X114662000Y-74811000D01*
X121309000Y-74851000D02*
X119040000Y-74851000D01*
X116960000Y-74851000D02*
X114691000Y-74851000D01*
X121280000Y-74891000D02*
X119040000Y-74891000D01*
X116960000Y-74891000D02*
X114720000Y-74891000D01*
X121250000Y-74931000D02*
X119040000Y-74931000D01*
X116960000Y-74931000D02*
X114750000Y-74931000D01*
X121220000Y-74971000D02*
X119040000Y-74971000D01*
X116960000Y-74971000D02*
X114780000Y-74971000D01*
X121189000Y-75011000D02*
X119040000Y-75011000D01*
X116960000Y-75011000D02*
X114811000Y-75011000D01*
X121156000Y-75051000D02*
X119040000Y-75051000D01*
X116960000Y-75051000D02*
X114844000Y-75051000D01*
X121124000Y-75091000D02*
X119040000Y-75091000D01*
X116960000Y-75091000D02*
X114876000Y-75091000D01*
X121090000Y-75131000D02*
X119040000Y-75131000D01*
X116960000Y-75131000D02*
X114910000Y-75131000D01*
X121055000Y-75171000D02*
X119040000Y-75171000D01*
X116960000Y-75171000D02*
X114945000Y-75171000D01*
X121019000Y-75211000D02*
X119040000Y-75211000D01*
X116960000Y-75211000D02*
X114981000Y-75211000D01*
X120983000Y-75251000D02*
X115017000Y-75251000D01*
X120945000Y-75291000D02*
X115055000Y-75291000D01*
X120907000Y-75331000D02*
X115093000Y-75331000D01*
X120867000Y-75371000D02*
X115133000Y-75371000D01*
X120826000Y-75411000D02*
X115174000Y-75411000D01*
X120784000Y-75451000D02*
X115216000Y-75451000D01*
X120741000Y-75491000D02*
X115259000Y-75491000D01*
X120697000Y-75531000D02*
X115303000Y-75531000D01*
X120651000Y-75571000D02*
X115349000Y-75571000D01*
X120604000Y-75611000D02*
X115396000Y-75611000D01*
X120556000Y-75651000D02*
X115444000Y-75651000D01*
X120505000Y-75691000D02*
X115495000Y-75691000D01*
X120454000Y-75731000D02*
X115546000Y-75731000D01*
X120400000Y-75771000D02*
X115600000Y-75771000D01*
X120345000Y-75811000D02*
X115655000Y-75811000D01*
X120287000Y-75851000D02*
X115713000Y-75851000D01*
X120228000Y-75891000D02*
X115772000Y-75891000D01*
X120166000Y-75931000D02*
X115834000Y-75931000D01*
X120102000Y-75971000D02*
X115898000Y-75971000D01*
X120034000Y-76011000D02*
X115966000Y-76011000D01*
X119964000Y-76051000D02*
X116036000Y-76051000D01*
X119890000Y-76091000D02*
X116110000Y-76091000D01*
X119813000Y-76131000D02*
X116187000Y-76131000D01*
X119731000Y-76171000D02*
X116269000Y-76171000D01*
X119645000Y-76211000D02*
X116355000Y-76211000D01*
X119552000Y-76251000D02*
X116448000Y-76251000D01*
X119453000Y-76291000D02*
X116547000Y-76291000D01*
X119346000Y-76331000D02*
X116654000Y-76331000D01*
X119229000Y-76371000D02*
X116771000Y-76371000D01*
X119098000Y-76411000D02*
X116902000Y-76411000D01*
X118948000Y-76451000D02*
X117052000Y-76451000D01*
X118768000Y-76491000D02*
X117232000Y-76491000D01*
X118533000Y-76531000D02*
X117467000Y-76531000D01*
X122120000Y-72450000D02*
G75*
G03*
X113880000Y-72450000I-4120000J0D01*
G01*
X113880000Y-72450000D02*
G75*
G03*
X122120000Y-72450000I4120000J0D01*
G01*
%TO.C,R6*%
X110300000Y-72330000D02*
X110300000Y-72260000D01*
X111670000Y-73700000D02*
G75*
G03*
X108930000Y-73700000I-1370000J0D01*
G01*
X108930000Y-73700000D02*
G75*
G03*
X111670000Y-73700000I1370000J0D01*
G01*
%TO.C,J1*%
X122395000Y-56330000D02*
X122395000Y-55000000D01*
X123725000Y-56330000D02*
X122395000Y-56330000D01*
X124995000Y-56330000D02*
X127595000Y-56330000D01*
X124995000Y-56330000D02*
X124995000Y-53670000D01*
X127595000Y-56330000D02*
X127595000Y-53670000D01*
X124995000Y-53670000D02*
X127595000Y-53670000D01*
%TO.C,R2*%
X126000000Y-63970000D02*
X126000000Y-64040000D01*
X127370000Y-62600000D02*
G75*
G03*
X124630000Y-62600000I-1370000J0D01*
G01*
X124630000Y-62600000D02*
G75*
G03*
X127370000Y-62600000I1370000J0D01*
G01*
%TO.C,C2*%
X121532621Y-63739000D02*
X120902621Y-63739000D01*
X121217621Y-64054000D02*
X121217621Y-63424000D01*
X118032380Y-65130000D02*
X118032380Y-58670000D01*
X117992380Y-65130000D02*
X117992380Y-58670000D01*
X117952380Y-65130000D02*
X117952380Y-58670000D01*
X117912380Y-65128000D02*
X117912380Y-58672000D01*
X117872380Y-65127000D02*
X117872380Y-58673000D01*
X117832380Y-65124000D02*
X117832380Y-58676000D01*
X117792380Y-65122000D02*
X117792380Y-62940000D01*
X117792380Y-60860000D02*
X117792380Y-58678000D01*
X117752380Y-65118000D02*
X117752380Y-62940000D01*
X117752380Y-60860000D02*
X117752380Y-58682000D01*
X117712380Y-65115000D02*
X117712380Y-62940000D01*
X117712380Y-60860000D02*
X117712380Y-58685000D01*
X117672380Y-65111000D02*
X117672380Y-62940000D01*
X117672380Y-60860000D02*
X117672380Y-58689000D01*
X117632380Y-65106000D02*
X117632380Y-62940000D01*
X117632380Y-60860000D02*
X117632380Y-58694000D01*
X117592380Y-65101000D02*
X117592380Y-62940000D01*
X117592380Y-60860000D02*
X117592380Y-58699000D01*
X117552380Y-65095000D02*
X117552380Y-62940000D01*
X117552380Y-60860000D02*
X117552380Y-58705000D01*
X117512380Y-65089000D02*
X117512380Y-62940000D01*
X117512380Y-60860000D02*
X117512380Y-58711000D01*
X117472380Y-65082000D02*
X117472380Y-62940000D01*
X117472380Y-60860000D02*
X117472380Y-58718000D01*
X117432380Y-65075000D02*
X117432380Y-62940000D01*
X117432380Y-60860000D02*
X117432380Y-58725000D01*
X117392380Y-65067000D02*
X117392380Y-62940000D01*
X117392380Y-60860000D02*
X117392380Y-58733000D01*
X117352380Y-65059000D02*
X117352380Y-62940000D01*
X117352380Y-60860000D02*
X117352380Y-58741000D01*
X117311380Y-65050000D02*
X117311380Y-62940000D01*
X117311380Y-60860000D02*
X117311380Y-58750000D01*
X117271380Y-65041000D02*
X117271380Y-62940000D01*
X117271380Y-60860000D02*
X117271380Y-58759000D01*
X117231380Y-65031000D02*
X117231380Y-62940000D01*
X117231380Y-60860000D02*
X117231380Y-58769000D01*
X117191380Y-65021000D02*
X117191380Y-62940000D01*
X117191380Y-60860000D02*
X117191380Y-58779000D01*
X117151380Y-65010000D02*
X117151380Y-62940000D01*
X117151380Y-60860000D02*
X117151380Y-58790000D01*
X117111380Y-64998000D02*
X117111380Y-62940000D01*
X117111380Y-60860000D02*
X117111380Y-58802000D01*
X117071380Y-64986000D02*
X117071380Y-62940000D01*
X117071380Y-60860000D02*
X117071380Y-58814000D01*
X117031380Y-64974000D02*
X117031380Y-62940000D01*
X117031380Y-60860000D02*
X117031380Y-58826000D01*
X116991380Y-64961000D02*
X116991380Y-62940000D01*
X116991380Y-60860000D02*
X116991380Y-58839000D01*
X116951380Y-64947000D02*
X116951380Y-62940000D01*
X116951380Y-60860000D02*
X116951380Y-58853000D01*
X116911380Y-64933000D02*
X116911380Y-62940000D01*
X116911380Y-60860000D02*
X116911380Y-58867000D01*
X116871380Y-64918000D02*
X116871380Y-62940000D01*
X116871380Y-60860000D02*
X116871380Y-58882000D01*
X116831380Y-64902000D02*
X116831380Y-62940000D01*
X116831380Y-60860000D02*
X116831380Y-58898000D01*
X116791380Y-64886000D02*
X116791380Y-62940000D01*
X116791380Y-60860000D02*
X116791380Y-58914000D01*
X116751380Y-64870000D02*
X116751380Y-62940000D01*
X116751380Y-60860000D02*
X116751380Y-58930000D01*
X116711380Y-64852000D02*
X116711380Y-62940000D01*
X116711380Y-60860000D02*
X116711380Y-58948000D01*
X116671380Y-64834000D02*
X116671380Y-62940000D01*
X116671380Y-60860000D02*
X116671380Y-58966000D01*
X116631380Y-64816000D02*
X116631380Y-62940000D01*
X116631380Y-60860000D02*
X116631380Y-58984000D01*
X116591380Y-64796000D02*
X116591380Y-62940000D01*
X116591380Y-60860000D02*
X116591380Y-59004000D01*
X116551380Y-64776000D02*
X116551380Y-62940000D01*
X116551380Y-60860000D02*
X116551380Y-59024000D01*
X116511380Y-64756000D02*
X116511380Y-62940000D01*
X116511380Y-60860000D02*
X116511380Y-59044000D01*
X116471380Y-64734000D02*
X116471380Y-62940000D01*
X116471380Y-60860000D02*
X116471380Y-59066000D01*
X116431380Y-64712000D02*
X116431380Y-62940000D01*
X116431380Y-60860000D02*
X116431380Y-59088000D01*
X116391380Y-64690000D02*
X116391380Y-62940000D01*
X116391380Y-60860000D02*
X116391380Y-59110000D01*
X116351380Y-64666000D02*
X116351380Y-62940000D01*
X116351380Y-60860000D02*
X116351380Y-59134000D01*
X116311380Y-64642000D02*
X116311380Y-62940000D01*
X116311380Y-60860000D02*
X116311380Y-59158000D01*
X116271380Y-64616000D02*
X116271380Y-62940000D01*
X116271380Y-60860000D02*
X116271380Y-59184000D01*
X116231380Y-64590000D02*
X116231380Y-62940000D01*
X116231380Y-60860000D02*
X116231380Y-59210000D01*
X116191380Y-64564000D02*
X116191380Y-62940000D01*
X116191380Y-60860000D02*
X116191380Y-59236000D01*
X116151380Y-64536000D02*
X116151380Y-62940000D01*
X116151380Y-60860000D02*
X116151380Y-59264000D01*
X116111380Y-64507000D02*
X116111380Y-62940000D01*
X116111380Y-60860000D02*
X116111380Y-59293000D01*
X116071380Y-64478000D02*
X116071380Y-62940000D01*
X116071380Y-60860000D02*
X116071380Y-59322000D01*
X116031380Y-64448000D02*
X116031380Y-62940000D01*
X116031380Y-60860000D02*
X116031380Y-59352000D01*
X115991380Y-64416000D02*
X115991380Y-62940000D01*
X115991380Y-60860000D02*
X115991380Y-59384000D01*
X115951380Y-64384000D02*
X115951380Y-62940000D01*
X115951380Y-60860000D02*
X115951380Y-59416000D01*
X115911380Y-64350000D02*
X115911380Y-62940000D01*
X115911380Y-60860000D02*
X115911380Y-59450000D01*
X115871380Y-64316000D02*
X115871380Y-62940000D01*
X115871380Y-60860000D02*
X115871380Y-59484000D01*
X115831380Y-64280000D02*
X115831380Y-62940000D01*
X115831380Y-60860000D02*
X115831380Y-59520000D01*
X115791380Y-64243000D02*
X115791380Y-62940000D01*
X115791380Y-60860000D02*
X115791380Y-59557000D01*
X115751380Y-64205000D02*
X115751380Y-62940000D01*
X115751380Y-60860000D02*
X115751380Y-59595000D01*
X115711380Y-64165000D02*
X115711380Y-59635000D01*
X115671380Y-64124000D02*
X115671380Y-59676000D01*
X115631380Y-64082000D02*
X115631380Y-59718000D01*
X115591380Y-64037000D02*
X115591380Y-59763000D01*
X115551380Y-63992000D02*
X115551380Y-59808000D01*
X115511380Y-63944000D02*
X115511380Y-59856000D01*
X115471380Y-63895000D02*
X115471380Y-59905000D01*
X115431380Y-63844000D02*
X115431380Y-59956000D01*
X115391380Y-63790000D02*
X115391380Y-60010000D01*
X115351380Y-63734000D02*
X115351380Y-60066000D01*
X115311380Y-63676000D02*
X115311380Y-60124000D01*
X115271380Y-63614000D02*
X115271380Y-60186000D01*
X115231380Y-63550000D02*
X115231380Y-60250000D01*
X115191380Y-63481000D02*
X115191380Y-60319000D01*
X115151380Y-63409000D02*
X115151380Y-60391000D01*
X115111380Y-63332000D02*
X115111380Y-60468000D01*
X115071380Y-63250000D02*
X115071380Y-60550000D01*
X115031380Y-63162000D02*
X115031380Y-60638000D01*
X114991380Y-63065000D02*
X114991380Y-60735000D01*
X114951380Y-62959000D02*
X114951380Y-60841000D01*
X114911380Y-62840000D02*
X114911380Y-60960000D01*
X114871380Y-62702000D02*
X114871380Y-61098000D01*
X114831380Y-62533000D02*
X114831380Y-61267000D01*
X114791380Y-62302000D02*
X114791380Y-61498000D01*
X121302380Y-61900000D02*
G75*
G03*
X114762380Y-61900000I-3270000J0D01*
G01*
X114762380Y-61900000D02*
G75*
G03*
X121302380Y-61900000I3270000J0D01*
G01*
%TO.C,R9*%
X126370000Y-90500000D02*
X126440000Y-90500000D01*
X126370000Y-90500000D02*
G75*
G03*
X123630000Y-90500000I-1370000J0D01*
G01*
X123630000Y-90500000D02*
G75*
G03*
X126370000Y-90500000I1370000J0D01*
G01*
%TO.C,C5*%
X111420000Y-67670000D02*
X111420000Y-64930000D01*
X111420000Y-67670000D02*
X104180000Y-67670000D01*
X111420000Y-64930000D02*
X104180000Y-64930000D01*
X104180000Y-67670000D02*
X104180000Y-64930000D01*
%TO.C,R7*%
X117230000Y-85700000D02*
X117160000Y-85700000D01*
X119970000Y-85700000D02*
G75*
G03*
X117230000Y-85700000I-1370000J0D01*
G01*
X117230000Y-85700000D02*
G75*
G03*
X119970000Y-85700000I1370000J0D01*
G01*
%TO.C,J2*%
X143670000Y-72395000D02*
X145000000Y-72395000D01*
X143670000Y-73725000D02*
X143670000Y-72395000D01*
X143670000Y-74995000D02*
X143670000Y-77595000D01*
X143670000Y-74995000D02*
X146330000Y-74995000D01*
X143670000Y-77595000D02*
X146330000Y-77595000D01*
X146330000Y-74995000D02*
X146330000Y-77595000D01*
%TO.C,J3*%
X103670000Y-72395000D02*
X105000000Y-72395000D01*
X103670000Y-73725000D02*
X103670000Y-72395000D01*
X103670000Y-74995000D02*
X103670000Y-77595000D01*
X103670000Y-74995000D02*
X106330000Y-74995000D01*
X103670000Y-77595000D02*
X106330000Y-77595000D01*
X106330000Y-74995000D02*
X106330000Y-77595000D01*
%TO.C,R4*%
X126000000Y-72170000D02*
X126000000Y-72240000D01*
X127370000Y-70800000D02*
G75*
G03*
X124630000Y-70800000I-1370000J0D01*
G01*
X124630000Y-70800000D02*
G75*
G03*
X127370000Y-70800000I1370000J0D01*
G01*
%TO.C,Ref\u002A\u002A*%
D13*
X139655880Y-92229520D02*
X139673660Y-92234600D01*
X139833680Y-92310800D01*
X139960680Y-92437800D01*
X140049580Y-92595280D01*
X140085140Y-92775620D01*
X140087680Y-92806100D01*
X140080060Y-92864520D01*
X140064820Y-92971200D01*
X140044500Y-93105820D01*
X140016560Y-93258220D01*
X139988620Y-93410620D01*
X139963220Y-93550320D01*
X139940360Y-93657000D01*
X139937820Y-93664620D01*
X139927660Y-93700180D01*
X139419660Y-93700180D01*
X139246940Y-93702720D01*
X139102160Y-93702720D01*
X139064060Y-93702720D01*
X138990400Y-93705260D01*
X138924360Y-93705260D01*
X138909120Y-93707800D01*
X138904040Y-93738280D01*
X138888800Y-93814480D01*
X138868480Y-93905920D01*
X138845620Y-94040540D01*
X138838000Y-94131980D01*
X138853240Y-94190400D01*
X138891340Y-94238660D01*
X138901500Y-94248820D01*
X138959920Y-94286920D01*
X139031040Y-94297080D01*
X139036120Y-94297080D01*
X139125020Y-94286920D01*
X139196140Y-94248820D01*
X139236780Y-94213260D01*
X139295200Y-94144680D01*
X139335840Y-94060860D01*
X139363780Y-93944020D01*
X139389180Y-93819560D01*
X139643180Y-93814480D01*
X139770180Y-93814480D01*
X139846380Y-93814480D01*
X139884480Y-93819560D01*
X139897180Y-93829720D01*
X139897180Y-93837340D01*
X139892100Y-93875440D01*
X139874320Y-93964340D01*
X139848920Y-94101500D01*
X139815900Y-94279300D01*
X139775260Y-94487580D01*
X139727000Y-94721260D01*
X139693980Y-94893980D01*
X139645720Y-95137820D01*
X139602540Y-95361340D01*
X139564440Y-95559460D01*
X139533960Y-95719480D01*
X139511100Y-95838860D01*
X139498400Y-95909980D01*
X139495860Y-95925220D01*
X139516180Y-95902360D01*
X139566980Y-95838860D01*
X139648260Y-95737260D01*
X139749860Y-95607720D01*
X139866700Y-95457860D01*
X139922580Y-95389280D01*
X140344220Y-94848260D01*
X140857300Y-94848260D01*
X140455980Y-95343560D01*
X140334060Y-95495960D01*
X140227380Y-95630580D01*
X140141020Y-95742340D01*
X140082600Y-95823620D01*
X140054660Y-95864260D01*
X140054660Y-95866800D01*
X140062280Y-95902360D01*
X140085140Y-95991260D01*
X140120700Y-96120800D01*
X140163880Y-96288440D01*
X140217220Y-96478940D01*
X140316280Y-96839620D01*
X140367080Y-97025040D01*
X140407720Y-97179980D01*
X140440740Y-97299360D01*
X140458520Y-97370480D01*
X140463600Y-97390800D01*
X140433120Y-97398420D01*
X140349300Y-97403500D01*
X140222300Y-97406040D01*
X140181660Y-97406040D01*
X140047040Y-97406040D01*
X139963220Y-97403500D01*
X139917500Y-97398420D01*
X139897180Y-97388260D01*
X139892100Y-97373020D01*
X139889560Y-97370480D01*
X139881940Y-97329840D01*
X139861620Y-97238400D01*
X139836220Y-97106320D01*
X139803200Y-96948840D01*
X139777800Y-96832000D01*
X139744780Y-96664360D01*
X139714300Y-96519580D01*
X139691440Y-96407820D01*
X139676200Y-96341780D01*
X139671120Y-96326540D01*
X139650800Y-96346860D01*
X139600000Y-96400200D01*
X139526340Y-96476400D01*
X139447600Y-96565300D01*
X139371400Y-96651660D01*
X139361240Y-96661820D01*
X139340920Y-96710080D01*
X139312980Y-96811680D01*
X139277420Y-96974240D01*
X139269800Y-97014880D01*
X139241860Y-97152040D01*
X139221540Y-97266340D01*
X139203760Y-97345080D01*
X139198680Y-97370480D01*
X139193600Y-97388260D01*
X139173280Y-97398420D01*
X139130100Y-97403500D01*
X139046280Y-97406040D01*
X138942140Y-97406040D01*
X138822760Y-97403500D01*
X138733860Y-97400960D01*
X138688140Y-97395880D01*
X138685600Y-97393340D01*
X138688140Y-97362860D01*
X138703380Y-97273960D01*
X138728780Y-97139340D01*
X138764340Y-96959000D01*
X138804980Y-96745640D01*
X138853240Y-96501800D01*
X138906580Y-96237640D01*
X138990400Y-95821080D01*
X139041200Y-95567080D01*
X139084380Y-95338480D01*
X139122480Y-95140360D01*
X139152960Y-94985420D01*
X139175820Y-94873660D01*
X139185980Y-94812700D01*
X139185980Y-94805080D01*
X139155500Y-94805080D01*
X139084380Y-94815240D01*
X139061520Y-94817780D01*
X138865940Y-94822860D01*
X138683060Y-94777140D01*
X138525580Y-94685700D01*
X138408740Y-94556160D01*
X138388420Y-94523140D01*
X138337620Y-94385980D01*
X138317300Y-94220880D01*
X138317300Y-94119280D01*
X138327460Y-94048160D01*
X138347780Y-93931320D01*
X138375720Y-93781460D01*
X138408740Y-93608740D01*
X138444300Y-93428400D01*
X138479860Y-93253140D01*
X138480434Y-93250600D01*
X138992940Y-93250600D01*
X138995480Y-93263300D01*
X139013260Y-93270920D01*
X139064060Y-93276000D01*
X139158040Y-93276000D01*
X139241860Y-93273460D01*
X139495860Y-93268380D01*
X139523800Y-93151540D01*
X139546660Y-93011840D01*
X139551740Y-92887380D01*
X139533960Y-92798480D01*
X139531420Y-92793400D01*
X139467920Y-92732440D01*
X139379020Y-92712120D01*
X139274880Y-92727360D01*
X139178360Y-92775620D01*
X139107240Y-92854360D01*
X139099620Y-92867060D01*
X139071680Y-92935640D01*
X139043740Y-93034700D01*
X139033580Y-93075340D01*
X139013260Y-93169320D01*
X138998020Y-93235360D01*
X138992940Y-93250600D01*
X138480434Y-93250600D01*
X138515420Y-93095660D01*
X138543360Y-92966120D01*
X138563680Y-92877220D01*
X138571300Y-92854360D01*
X138665280Y-92674020D01*
X138802440Y-92506380D01*
X138970080Y-92364140D01*
X139152960Y-92262540D01*
X139272340Y-92226980D01*
X139396800Y-92211740D01*
X139536500Y-92211740D01*
X139655880Y-92229520D01*
G36*
X139655880Y-92229520D02*
G01*
X139673660Y-92234600D01*
X139833680Y-92310800D01*
X139960680Y-92437800D01*
X140049580Y-92595280D01*
X140085140Y-92775620D01*
X140087680Y-92806100D01*
X140080060Y-92864520D01*
X140064820Y-92971200D01*
X140044500Y-93105820D01*
X140016560Y-93258220D01*
X139988620Y-93410620D01*
X139963220Y-93550320D01*
X139940360Y-93657000D01*
X139937820Y-93664620D01*
X139927660Y-93700180D01*
X139419660Y-93700180D01*
X139246940Y-93702720D01*
X139102160Y-93702720D01*
X139064060Y-93702720D01*
X138990400Y-93705260D01*
X138924360Y-93705260D01*
X138909120Y-93707800D01*
X138904040Y-93738280D01*
X138888800Y-93814480D01*
X138868480Y-93905920D01*
X138845620Y-94040540D01*
X138838000Y-94131980D01*
X138853240Y-94190400D01*
X138891340Y-94238660D01*
X138901500Y-94248820D01*
X138959920Y-94286920D01*
X139031040Y-94297080D01*
X139036120Y-94297080D01*
X139125020Y-94286920D01*
X139196140Y-94248820D01*
X139236780Y-94213260D01*
X139295200Y-94144680D01*
X139335840Y-94060860D01*
X139363780Y-93944020D01*
X139389180Y-93819560D01*
X139643180Y-93814480D01*
X139770180Y-93814480D01*
X139846380Y-93814480D01*
X139884480Y-93819560D01*
X139897180Y-93829720D01*
X139897180Y-93837340D01*
X139892100Y-93875440D01*
X139874320Y-93964340D01*
X139848920Y-94101500D01*
X139815900Y-94279300D01*
X139775260Y-94487580D01*
X139727000Y-94721260D01*
X139693980Y-94893980D01*
X139645720Y-95137820D01*
X139602540Y-95361340D01*
X139564440Y-95559460D01*
X139533960Y-95719480D01*
X139511100Y-95838860D01*
X139498400Y-95909980D01*
X139495860Y-95925220D01*
X139516180Y-95902360D01*
X139566980Y-95838860D01*
X139648260Y-95737260D01*
X139749860Y-95607720D01*
X139866700Y-95457860D01*
X139922580Y-95389280D01*
X140344220Y-94848260D01*
X140857300Y-94848260D01*
X140455980Y-95343560D01*
X140334060Y-95495960D01*
X140227380Y-95630580D01*
X140141020Y-95742340D01*
X140082600Y-95823620D01*
X140054660Y-95864260D01*
X140054660Y-95866800D01*
X140062280Y-95902360D01*
X140085140Y-95991260D01*
X140120700Y-96120800D01*
X140163880Y-96288440D01*
X140217220Y-96478940D01*
X140316280Y-96839620D01*
X140367080Y-97025040D01*
X140407720Y-97179980D01*
X140440740Y-97299360D01*
X140458520Y-97370480D01*
X140463600Y-97390800D01*
X140433120Y-97398420D01*
X140349300Y-97403500D01*
X140222300Y-97406040D01*
X140181660Y-97406040D01*
X140047040Y-97406040D01*
X139963220Y-97403500D01*
X139917500Y-97398420D01*
X139897180Y-97388260D01*
X139892100Y-97373020D01*
X139889560Y-97370480D01*
X139881940Y-97329840D01*
X139861620Y-97238400D01*
X139836220Y-97106320D01*
X139803200Y-96948840D01*
X139777800Y-96832000D01*
X139744780Y-96664360D01*
X139714300Y-96519580D01*
X139691440Y-96407820D01*
X139676200Y-96341780D01*
X139671120Y-96326540D01*
X139650800Y-96346860D01*
X139600000Y-96400200D01*
X139526340Y-96476400D01*
X139447600Y-96565300D01*
X139371400Y-96651660D01*
X139361240Y-96661820D01*
X139340920Y-96710080D01*
X139312980Y-96811680D01*
X139277420Y-96974240D01*
X139269800Y-97014880D01*
X139241860Y-97152040D01*
X139221540Y-97266340D01*
X139203760Y-97345080D01*
X139198680Y-97370480D01*
X139193600Y-97388260D01*
X139173280Y-97398420D01*
X139130100Y-97403500D01*
X139046280Y-97406040D01*
X138942140Y-97406040D01*
X138822760Y-97403500D01*
X138733860Y-97400960D01*
X138688140Y-97395880D01*
X138685600Y-97393340D01*
X138688140Y-97362860D01*
X138703380Y-97273960D01*
X138728780Y-97139340D01*
X138764340Y-96959000D01*
X138804980Y-96745640D01*
X138853240Y-96501800D01*
X138906580Y-96237640D01*
X138990400Y-95821080D01*
X139041200Y-95567080D01*
X139084380Y-95338480D01*
X139122480Y-95140360D01*
X139152960Y-94985420D01*
X139175820Y-94873660D01*
X139185980Y-94812700D01*
X139185980Y-94805080D01*
X139155500Y-94805080D01*
X139084380Y-94815240D01*
X139061520Y-94817780D01*
X138865940Y-94822860D01*
X138683060Y-94777140D01*
X138525580Y-94685700D01*
X138408740Y-94556160D01*
X138388420Y-94523140D01*
X138337620Y-94385980D01*
X138317300Y-94220880D01*
X138317300Y-94119280D01*
X138327460Y-94048160D01*
X138347780Y-93931320D01*
X138375720Y-93781460D01*
X138408740Y-93608740D01*
X138444300Y-93428400D01*
X138479860Y-93253140D01*
X138480434Y-93250600D01*
X138992940Y-93250600D01*
X138995480Y-93263300D01*
X139013260Y-93270920D01*
X139064060Y-93276000D01*
X139158040Y-93276000D01*
X139241860Y-93273460D01*
X139495860Y-93268380D01*
X139523800Y-93151540D01*
X139546660Y-93011840D01*
X139551740Y-92887380D01*
X139533960Y-92798480D01*
X139531420Y-92793400D01*
X139467920Y-92732440D01*
X139379020Y-92712120D01*
X139274880Y-92727360D01*
X139178360Y-92775620D01*
X139107240Y-92854360D01*
X139099620Y-92867060D01*
X139071680Y-92935640D01*
X139043740Y-93034700D01*
X139033580Y-93075340D01*
X139013260Y-93169320D01*
X138998020Y-93235360D01*
X138992940Y-93250600D01*
X138480434Y-93250600D01*
X138515420Y-93095660D01*
X138543360Y-92966120D01*
X138563680Y-92877220D01*
X138571300Y-92854360D01*
X138665280Y-92674020D01*
X138802440Y-92506380D01*
X138970080Y-92364140D01*
X139152960Y-92262540D01*
X139272340Y-92226980D01*
X139396800Y-92211740D01*
X139536500Y-92211740D01*
X139655880Y-92229520D01*
G37*
%TD*%
%LPC*%
D15*
%TO.C,Q2*%
X125000000Y-80900000D03*
D16*
X123730000Y-79630000D03*
X125000000Y-78360000D03*
%TD*%
D17*
%TO.C,C1*%
X138800000Y-63600000D03*
D18*
X141300000Y-63600000D03*
%TD*%
D17*
%TO.C,C3*%
X138300000Y-74400000D03*
D18*
X140300000Y-74400000D03*
%TD*%
%TO.C,R3*%
X133100000Y-67455000D03*
D19*
X133100000Y-69995000D03*
%TD*%
D18*
%TO.C,R5*%
X133100000Y-82400000D03*
D19*
X133100000Y-84940000D03*
%TD*%
D18*
%TO.C,R1*%
X133100000Y-59800000D03*
D19*
X133100000Y-62340000D03*
%TD*%
D20*
%TO.C,H2*%
X102600000Y-55000000D03*
X103302944Y-53302944D03*
X103302944Y-56697056D03*
X105000000Y-52600000D03*
D21*
X105000000Y-55000000D03*
D20*
X105000000Y-57400000D03*
X106697056Y-53302944D03*
X106697056Y-56697056D03*
X107400000Y-55000000D03*
%TD*%
D18*
%TO.C,R8*%
X125000000Y-85700000D03*
D19*
X127540000Y-85700000D03*
%TD*%
D15*
%TO.C,Q1*%
X133100000Y-77000000D03*
D16*
X131830000Y-75730000D03*
X133100000Y-74460000D03*
%TD*%
D18*
%TO.C,L1*%
X112700000Y-78500000D03*
X117700000Y-80700000D03*
%TD*%
D17*
%TO.C,C4*%
X118000000Y-70700000D03*
D18*
X118000000Y-74200000D03*
%TD*%
%TO.C,R6*%
X110300000Y-73700000D03*
D19*
X110300000Y-71160000D03*
%TD*%
D20*
%TO.C,H1*%
X142600000Y-55000000D03*
X143302944Y-53302944D03*
X143302944Y-56697056D03*
X145000000Y-52600000D03*
D21*
X145000000Y-55000000D03*
D20*
X145000000Y-57400000D03*
X146697056Y-53302944D03*
X146697056Y-56697056D03*
X147400000Y-55000000D03*
%TD*%
%TO.C,H3*%
X142600000Y-95000000D03*
X143302944Y-93302944D03*
X143302944Y-96697056D03*
X145000000Y-92600000D03*
D21*
X145000000Y-95000000D03*
D20*
X145000000Y-97400000D03*
X146697056Y-93302944D03*
X146697056Y-96697056D03*
X147400000Y-95000000D03*
%TD*%
%TO.C,H4*%
X102600000Y-95000000D03*
X103302944Y-93302944D03*
X103302944Y-96697056D03*
X105000000Y-92600000D03*
D21*
X105000000Y-95000000D03*
D20*
X105000000Y-97400000D03*
X106697056Y-93302944D03*
X106697056Y-96697056D03*
X107400000Y-95000000D03*
%TD*%
D22*
%TO.C,J1*%
X123725000Y-55000000D03*
D23*
X126265000Y-55000000D03*
%TD*%
D18*
%TO.C,R2*%
X126000000Y-62600000D03*
D19*
X126000000Y-65140000D03*
%TD*%
D17*
%TO.C,C2*%
X119282380Y-61900000D03*
D18*
X116782380Y-61900000D03*
%TD*%
%TO.C,R9*%
X125000000Y-90500000D03*
D19*
X127540000Y-90500000D03*
%TD*%
D18*
%TO.C,C5*%
X110300000Y-66300000D03*
X105300000Y-66300000D03*
%TD*%
%TO.C,R7*%
X118600000Y-85700000D03*
D19*
X116060000Y-85700000D03*
%TD*%
D22*
%TO.C,J2*%
X145000000Y-73725000D03*
D23*
X145000000Y-76265000D03*
%TD*%
D22*
%TO.C,J3*%
X105000000Y-73725000D03*
D23*
X105000000Y-76265000D03*
%TD*%
D18*
%TO.C,R4*%
X126000000Y-70800000D03*
D19*
X126000000Y-73340000D03*
%TD*%
G36*
X102003031Y-51750149D02*
G01*
X102018420Y-51750905D01*
X102030531Y-51752098D01*
X102038917Y-51753342D01*
X102102343Y-51782651D01*
X102139854Y-51841597D01*
X102139542Y-51911466D01*
X102101505Y-51970075D01*
X102037820Y-51998815D01*
X102020722Y-52000000D01*
X102000000Y-52000000D01*
X102000000Y-98000000D01*
X102020722Y-98000000D01*
X102087761Y-98019685D01*
X102133516Y-98072489D01*
X102143460Y-98141647D01*
X102114435Y-98205203D01*
X102055657Y-98242977D01*
X102038903Y-98246660D01*
X102030517Y-98247903D01*
X102018428Y-98249093D01*
X102003039Y-98249850D01*
X101996947Y-98250000D01*
X100133328Y-98250000D01*
X100066289Y-98230315D01*
X100020534Y-98177511D01*
X100009644Y-98134846D01*
X100000316Y-98004418D01*
X100000000Y-97995572D01*
X100000000Y-52004427D01*
X100000316Y-51995581D01*
X100009644Y-51865154D01*
X100034061Y-51799690D01*
X100089994Y-51757818D01*
X100133328Y-51750000D01*
X101996947Y-51750000D01*
X102003031Y-51750149D01*
G37*
G36*
X101943039Y-97769685D02*
G01*
X101988794Y-97822489D01*
X102000000Y-97874000D01*
X102000000Y-98000000D01*
X148000000Y-98000000D01*
X148000000Y-97874000D01*
X148019685Y-97806961D01*
X148072489Y-97761206D01*
X148124000Y-97750000D01*
X149876000Y-97750000D01*
X149943039Y-97769685D01*
X149988794Y-97822489D01*
X150000000Y-97874000D01*
X150000000Y-97995572D01*
X149999684Y-98004418D01*
X149980275Y-98275785D01*
X149977757Y-98293297D01*
X149920872Y-98554794D01*
X149915888Y-98571770D01*
X149822361Y-98822524D01*
X149815011Y-98838617D01*
X149686758Y-99073496D01*
X149677193Y-99088380D01*
X149516811Y-99302624D01*
X149505225Y-99315994D01*
X149315994Y-99505225D01*
X149302624Y-99516811D01*
X149088380Y-99677193D01*
X149073496Y-99686758D01*
X148838617Y-99815011D01*
X148822524Y-99822361D01*
X148571770Y-99915888D01*
X148554794Y-99920872D01*
X148293297Y-99977757D01*
X148275785Y-99980275D01*
X148004418Y-99999684D01*
X147995572Y-100000000D01*
X102004428Y-100000000D01*
X101995582Y-99999684D01*
X101724214Y-99980275D01*
X101706702Y-99977757D01*
X101445205Y-99920872D01*
X101428229Y-99915888D01*
X101177475Y-99822361D01*
X101161382Y-99815011D01*
X100926503Y-99686758D01*
X100911619Y-99677193D01*
X100697375Y-99516811D01*
X100684005Y-99505225D01*
X100494774Y-99315994D01*
X100483188Y-99302624D01*
X100322806Y-99088380D01*
X100313241Y-99073496D01*
X100184988Y-98838617D01*
X100177638Y-98822524D01*
X100084111Y-98571770D01*
X100079127Y-98554794D01*
X100022242Y-98293297D01*
X100019724Y-98275785D01*
X100000316Y-98004418D01*
X100000000Y-97995572D01*
X100000000Y-97874000D01*
X100019685Y-97806961D01*
X100072489Y-97761206D01*
X100124000Y-97750000D01*
X101876000Y-97750000D01*
X101943039Y-97769685D01*
G37*
G36*
X149933711Y-51769685D02*
G01*
X149979466Y-51822489D01*
X149990356Y-51865154D01*
X149999684Y-51995581D01*
X150000000Y-52004427D01*
X150000000Y-97995572D01*
X149999684Y-98004418D01*
X149990356Y-98134846D01*
X149965939Y-98200310D01*
X149910006Y-98242182D01*
X149866672Y-98250000D01*
X148003053Y-98250000D01*
X147996961Y-98249850D01*
X147981571Y-98249093D01*
X147969480Y-98247903D01*
X147961095Y-98246660D01*
X147897667Y-98217357D01*
X147860149Y-98158415D01*
X147860455Y-98088546D01*
X147898486Y-98029933D01*
X147962167Y-98001186D01*
X147979278Y-98000000D01*
X148000000Y-98000000D01*
X148000000Y-52000000D01*
X147979278Y-52000000D01*
X147912239Y-51980315D01*
X147866484Y-51927511D01*
X147856540Y-51858353D01*
X147885565Y-51794797D01*
X147944343Y-51757023D01*
X147961081Y-51753343D01*
X147969466Y-51752099D01*
X147981579Y-51750905D01*
X147996969Y-51750149D01*
X148003053Y-51750000D01*
X149866672Y-51750000D01*
X149933711Y-51769685D01*
G37*
G36*
X148004418Y-50000316D02*
G01*
X148275785Y-50019724D01*
X148293297Y-50022242D01*
X148554794Y-50079127D01*
X148571770Y-50084111D01*
X148822524Y-50177638D01*
X148838617Y-50184988D01*
X149073496Y-50313241D01*
X149088380Y-50322806D01*
X149302624Y-50483188D01*
X149315994Y-50494774D01*
X149505225Y-50684005D01*
X149516811Y-50697375D01*
X149677193Y-50911619D01*
X149686758Y-50926503D01*
X149815011Y-51161382D01*
X149822361Y-51177475D01*
X149915888Y-51428229D01*
X149920872Y-51445205D01*
X149977757Y-51706702D01*
X149980275Y-51724214D01*
X149999684Y-51995581D01*
X150000000Y-52004427D01*
X150000000Y-52126000D01*
X149980315Y-52193039D01*
X149927511Y-52238794D01*
X149876000Y-52250000D01*
X148124000Y-52250000D01*
X148056961Y-52230315D01*
X148011206Y-52177511D01*
X148000000Y-52126000D01*
X148000000Y-52000000D01*
X102000000Y-52000000D01*
X102000000Y-52126000D01*
X101980315Y-52193039D01*
X101927511Y-52238794D01*
X101876000Y-52250000D01*
X100124000Y-52250000D01*
X100056961Y-52230315D01*
X100011206Y-52177511D01*
X100000000Y-52126000D01*
X100000000Y-52004427D01*
X100000316Y-51995581D01*
X100019724Y-51724214D01*
X100022242Y-51706702D01*
X100079127Y-51445205D01*
X100084111Y-51428229D01*
X100177638Y-51177475D01*
X100184988Y-51161382D01*
X100313241Y-50926503D01*
X100322806Y-50911619D01*
X100483188Y-50697375D01*
X100494774Y-50684005D01*
X100684005Y-50494774D01*
X100697375Y-50483188D01*
X100911619Y-50322806D01*
X100926503Y-50313241D01*
X101161382Y-50184988D01*
X101177475Y-50177638D01*
X101428229Y-50084111D01*
X101445205Y-50079127D01*
X101706702Y-50022242D01*
X101724214Y-50019724D01*
X101995582Y-50000316D01*
X102004428Y-50000000D01*
X147995572Y-50000000D01*
X148004418Y-50000316D01*
G37*
%LPD*%
M02*
