%TF.GenerationSoftware,KiCad,Pcbnew,7.0.10-7.0.10~ubuntu22.04.1*%
%TF.CreationDate,2024-01-03T18:25:55-08:00*%
%TF.ProjectId,YamhillAFFeedbackAmp,59616d68-696c-46c4-9146-466565646261,A*%
%TF.SameCoordinates,Original*%
%TF.FileFunction,Copper,L1,Top*%
%TF.FilePolarity,Positive*%
%FSLAX46Y46*%
G04 Gerber Fmt 4.6, Leading zero omitted, Abs format (unit mm)*
G04 Created by KiCad (PCBNEW 7.0.10-7.0.10~ubuntu22.04.1) date 2024-01-03 18:25:55*
%MOMM*%
%LPD*%
G01*
G04 APERTURE LIST*
%ADD10C,0.250000*%
%TA.AperFunction,ComponentPad*%
%ADD11R,1.300000X1.300000*%
%TD*%
%TA.AperFunction,ComponentPad*%
%ADD12C,1.300000*%
%TD*%
%TA.AperFunction,ComponentPad*%
%ADD13R,1.600000X1.600000*%
%TD*%
%TA.AperFunction,ComponentPad*%
%ADD14C,1.600000*%
%TD*%
%TA.AperFunction,ComponentPad*%
%ADD15O,1.600000X1.600000*%
%TD*%
%TA.AperFunction,ComponentPad*%
%ADD16C,0.800000*%
%TD*%
%TA.AperFunction,ComponentPad*%
%ADD17C,6.400000*%
%TD*%
%TA.AperFunction,ComponentPad*%
%ADD18R,1.700000X1.700000*%
%TD*%
%TA.AperFunction,ComponentPad*%
%ADD19O,1.700000X1.700000*%
%TD*%
%TA.AperFunction,ViaPad*%
%ADD20C,0.600000*%
%TD*%
%TA.AperFunction,Conductor*%
%ADD21C,0.250000*%
%TD*%
G04 APERTURE END LIST*
D10*
G36*
X144583949Y-89383316D02*
G01*
X144602629Y-89428149D01*
X144379949Y-89481593D01*
X144379949Y-89436571D01*
X144402138Y-89383316D01*
X144432429Y-89365142D01*
X144553658Y-89365142D01*
X144583949Y-89383316D01*
G37*
G36*
X143696287Y-88993576D02*
G01*
X143718256Y-89019940D01*
X143748996Y-89093714D01*
X143748996Y-89215141D01*
X143718256Y-89288915D01*
X143696287Y-89315279D01*
X143648896Y-89343714D01*
X143427568Y-89343714D01*
X143427568Y-88965142D01*
X143648896Y-88965142D01*
X143696287Y-88993576D01*
G37*
G36*
X146947637Y-89572285D02*
G01*
X146800357Y-89572285D01*
X146873997Y-89307181D01*
X146947637Y-89572285D01*
G37*
G36*
X147503746Y-90336571D02*
G01*
X143006139Y-90336571D01*
X143006139Y-90040142D01*
X143177568Y-90040142D01*
X143197411Y-90107722D01*
X143250641Y-90153846D01*
X143320357Y-90163870D01*
X143384426Y-90134611D01*
X143422505Y-90075359D01*
X143427568Y-90040142D01*
X143427568Y-89593714D01*
X143468867Y-89593714D01*
X143766023Y-90103126D01*
X143817215Y-90151501D01*
X143886435Y-90164521D01*
X143951705Y-90138052D01*
X143992303Y-90080496D01*
X143995340Y-90010129D01*
X143981968Y-89977158D01*
X143918709Y-89868714D01*
X144129949Y-89868714D01*
X144131922Y-89875436D01*
X144130693Y-89882335D01*
X144139564Y-89916791D01*
X144187183Y-90031077D01*
X144200957Y-90048097D01*
X144210663Y-90067727D01*
X144228773Y-90082468D01*
X144231492Y-90085827D01*
X144233863Y-90086610D01*
X144238257Y-90090187D01*
X144333494Y-90147329D01*
X144349057Y-90151383D01*
X144362589Y-90160079D01*
X144397806Y-90165142D01*
X144588282Y-90165142D01*
X144603713Y-90160610D01*
X144619790Y-90161106D01*
X144652593Y-90147329D01*
X144747831Y-90090187D01*
X144795572Y-90038403D01*
X144807736Y-89969028D01*
X144780464Y-89904089D01*
X144722411Y-89864204D01*
X144652012Y-89862036D01*
X144619208Y-89875813D01*
X144553659Y-89915142D01*
X144432428Y-89915142D01*
X144402138Y-89896968D01*
X144379949Y-89843713D01*
X144379949Y-89738691D01*
X144760310Y-89647405D01*
X144786018Y-89632646D01*
X144812997Y-89620326D01*
X144816222Y-89615307D01*
X144821393Y-89612339D01*
X144835041Y-89586023D01*
X144851076Y-89561074D01*
X144852262Y-89552822D01*
X144853822Y-89549815D01*
X144853379Y-89545053D01*
X144856139Y-89525857D01*
X144856139Y-89411571D01*
X144854165Y-89404848D01*
X144855395Y-89397950D01*
X144846524Y-89363494D01*
X144798905Y-89249208D01*
X144791939Y-89240601D01*
X144939473Y-89240601D01*
X144944666Y-89275799D01*
X145182761Y-90075799D01*
X145201714Y-90105053D01*
X145220364Y-90134309D01*
X145220796Y-90134508D01*
X145221057Y-90134910D01*
X145252708Y-90149224D01*
X145284324Y-90163804D01*
X145284798Y-90163737D01*
X145285233Y-90163934D01*
X145319619Y-90158861D01*
X145354077Y-90154036D01*
X145354438Y-90153724D01*
X145354912Y-90153655D01*
X145381156Y-90130745D01*
X145407476Y-90108108D01*
X145407736Y-90107542D01*
X145407973Y-90107336D01*
X145408211Y-90106513D01*
X145422375Y-90075799D01*
X145442944Y-90006687D01*
X146420224Y-90006687D01*
X146421256Y-90077112D01*
X146460199Y-90135800D01*
X146524689Y-90164117D01*
X146594252Y-90153073D01*
X146646800Y-90106175D01*
X146661104Y-90073597D01*
X146730913Y-89822285D01*
X147017081Y-89822285D01*
X147086890Y-90073597D01*
X147124097Y-90133401D01*
X147187730Y-90163596D01*
X147257585Y-90154595D01*
X147311486Y-90109256D01*
X147332317Y-90041974D01*
X147327770Y-90006687D01*
X146994437Y-88806687D01*
X146993432Y-88805073D01*
X146993405Y-88803172D01*
X146974899Y-88775284D01*
X146957230Y-88746883D01*
X146955513Y-88746068D01*
X146954462Y-88744484D01*
X146923820Y-88731029D01*
X146893597Y-88716688D01*
X146891711Y-88716930D01*
X146889972Y-88716167D01*
X146856936Y-88721411D01*
X146823742Y-88725689D01*
X146822287Y-88726912D01*
X146820409Y-88727211D01*
X146795439Y-88749495D01*
X146769841Y-88771028D01*
X146769278Y-88772843D01*
X146767861Y-88774109D01*
X146753557Y-88806687D01*
X146420224Y-90006687D01*
X145442944Y-90006687D01*
X145660469Y-89275799D01*
X145660728Y-89205366D01*
X145622867Y-89145975D01*
X145558907Y-89116480D01*
X145489154Y-89126248D01*
X145435755Y-89172176D01*
X145420856Y-89204485D01*
X145302567Y-89601933D01*
X145184280Y-89204485D01*
X145145984Y-89145373D01*
X145081808Y-89116350D01*
X145012129Y-89126629D01*
X144959068Y-89172948D01*
X144939473Y-89240601D01*
X144791939Y-89240601D01*
X144785131Y-89232188D01*
X144775426Y-89212559D01*
X144757312Y-89197815D01*
X144754596Y-89194459D01*
X144752226Y-89193675D01*
X144747832Y-89190099D01*
X144652594Y-89132955D01*
X144637029Y-89128900D01*
X144623499Y-89120205D01*
X144588282Y-89115142D01*
X144397806Y-89115142D01*
X144382374Y-89119672D01*
X144366297Y-89119178D01*
X144333494Y-89132955D01*
X144238256Y-89190098D01*
X144223415Y-89206195D01*
X144205402Y-89218647D01*
X144193441Y-89238709D01*
X144190516Y-89241883D01*
X144190085Y-89244339D01*
X144187183Y-89249208D01*
X144139564Y-89363494D01*
X144138800Y-89370459D01*
X144135012Y-89376354D01*
X144129949Y-89411571D01*
X144129949Y-89868714D01*
X143918709Y-89868714D01*
X143747883Y-89575870D01*
X143843070Y-89518757D01*
X143845262Y-89516378D01*
X143848351Y-89515407D01*
X143874786Y-89491594D01*
X143922405Y-89434451D01*
X143922776Y-89433595D01*
X143923543Y-89433065D01*
X143941762Y-89402505D01*
X143989381Y-89288219D01*
X143990144Y-89281253D01*
X143993933Y-89275359D01*
X143998996Y-89240142D01*
X143998996Y-89068714D01*
X143997022Y-89061991D01*
X143998252Y-89055093D01*
X143989381Y-89020637D01*
X143941762Y-88906351D01*
X143941174Y-88905625D01*
X143941060Y-88904701D01*
X143922405Y-88874405D01*
X143874786Y-88817262D01*
X143872098Y-88815460D01*
X143870664Y-88812559D01*
X143843070Y-88790099D01*
X143747832Y-88732955D01*
X143732267Y-88728900D01*
X143718737Y-88720205D01*
X143683520Y-88715142D01*
X143302568Y-88715142D01*
X143293812Y-88717712D01*
X143284779Y-88716414D01*
X143260546Y-88727480D01*
X143234988Y-88734985D01*
X143229012Y-88741881D01*
X143220710Y-88745673D01*
X143206306Y-88768085D01*
X143188864Y-88788215D01*
X143187565Y-88797247D01*
X143182631Y-88804925D01*
X143177568Y-88840142D01*
X143177568Y-90040142D01*
X143006139Y-90040142D01*
X143006139Y-88543713D01*
X147503746Y-88543713D01*
X147503746Y-90336571D01*
G37*
D11*
%TO.P,Q2,1,E*%
%TO.N,Net-(Q2-E)*%
X125000000Y-80900000D03*
D12*
%TO.P,Q2,2,B*%
%TO.N,Net-(Q2-B)*%
X123730000Y-79630000D03*
%TO.P,Q2,3,C*%
%TO.N,Net-(Q1-B)*%
X125000000Y-78360000D03*
%TD*%
D13*
%TO.P,C1,1*%
%TO.N,Net-(C1-Pad1)*%
X138800000Y-63600000D03*
D14*
%TO.P,C1,2*%
%TO.N,GND*%
X141300000Y-63600000D03*
%TD*%
D13*
%TO.P,C3,1*%
%TO.N,Net-(Q1-C)*%
X138300000Y-74400000D03*
D14*
%TO.P,C3,2*%
%TO.N,Net-(J2-Pin_1)*%
X140300000Y-74400000D03*
%TD*%
%TO.P,R3,1*%
%TO.N,Net-(C1-Pad1)*%
X133100000Y-67455000D03*
D15*
%TO.P,R3,2*%
%TO.N,Net-(Q1-C)*%
X133100000Y-69995000D03*
%TD*%
D14*
%TO.P,R5,1*%
%TO.N,Net-(Q1-E)*%
X133100000Y-82400000D03*
D15*
%TO.P,R5,2*%
%TO.N,GND*%
X133100000Y-84940000D03*
%TD*%
D14*
%TO.P,R1,1*%
%TO.N,Net-(J1-Pin_1)*%
X133100000Y-59800000D03*
D15*
%TO.P,R1,2*%
%TO.N,Net-(C1-Pad1)*%
X133100000Y-62340000D03*
%TD*%
D16*
%TO.P,H2,1,1*%
%TO.N,GND*%
X102600000Y-55000000D03*
X103302944Y-53302944D03*
X103302944Y-56697056D03*
X105000000Y-52600000D03*
D17*
X105000000Y-55000000D03*
D16*
X105000000Y-57400000D03*
X106697056Y-53302944D03*
X106697056Y-56697056D03*
X107400000Y-55000000D03*
%TD*%
D14*
%TO.P,R8,1*%
%TO.N,Net-(Q2-E)*%
X125000000Y-85700000D03*
D15*
%TO.P,R8,2*%
%TO.N,GND*%
X127540000Y-85700000D03*
%TD*%
D11*
%TO.P,Q1,1,E*%
%TO.N,Net-(Q1-E)*%
X133100000Y-77000000D03*
D12*
%TO.P,Q1,2,B*%
%TO.N,Net-(Q1-B)*%
X131830000Y-75730000D03*
%TO.P,Q1,3,C*%
%TO.N,Net-(Q1-C)*%
X133100000Y-74460000D03*
%TD*%
D14*
%TO.P,L1,1,1*%
%TO.N,Net-(J3-Pin_1)*%
X112700000Y-78500000D03*
%TO.P,L1,2,2*%
%TO.N,Net-(C4-Pad2)*%
X117700000Y-80700000D03*
%TD*%
D13*
%TO.P,C4,1*%
%TO.N,Net-(Q2-B)*%
X118000000Y-70700000D03*
D14*
%TO.P,C4,2*%
%TO.N,Net-(C4-Pad2)*%
X118000000Y-74200000D03*
%TD*%
%TO.P,R6,1*%
%TO.N,Net-(J3-Pin_1)*%
X110300000Y-73700000D03*
D15*
%TO.P,R6,2*%
%TO.N,Net-(C5-Pad1)*%
X110300000Y-71160000D03*
%TD*%
D16*
%TO.P,H1,1,1*%
%TO.N,GND*%
X142600000Y-55000000D03*
X143302944Y-53302944D03*
X143302944Y-56697056D03*
X145000000Y-52600000D03*
D17*
X145000000Y-55000000D03*
D16*
X145000000Y-57400000D03*
X146697056Y-53302944D03*
X146697056Y-56697056D03*
X147400000Y-55000000D03*
%TD*%
%TO.P,H3,1,1*%
%TO.N,GND*%
X142600000Y-95000000D03*
X143302944Y-93302944D03*
X143302944Y-96697056D03*
X145000000Y-92600000D03*
D17*
X145000000Y-95000000D03*
D16*
X145000000Y-97400000D03*
X146697056Y-93302944D03*
X146697056Y-96697056D03*
X147400000Y-95000000D03*
%TD*%
%TO.P,H4,1,1*%
%TO.N,GND*%
X102600000Y-95000000D03*
X103302944Y-93302944D03*
X103302944Y-96697056D03*
X105000000Y-92600000D03*
D17*
X105000000Y-95000000D03*
D16*
X105000000Y-97400000D03*
X106697056Y-93302944D03*
X106697056Y-96697056D03*
X107400000Y-95000000D03*
%TD*%
D18*
%TO.P,J1,1,Pin_1*%
%TO.N,Net-(J1-Pin_1)*%
X123725000Y-55000000D03*
D19*
%TO.P,J1,2,Pin_2*%
%TO.N,GND*%
X126265000Y-55000000D03*
%TD*%
D14*
%TO.P,R2,1*%
%TO.N,Net-(J1-Pin_1)*%
X126000000Y-62600000D03*
D15*
%TO.P,R2,2*%
%TO.N,Net-(C2-Pad1)*%
X126000000Y-65140000D03*
%TD*%
D13*
%TO.P,C2,1*%
%TO.N,Net-(C2-Pad1)*%
X119282380Y-61900000D03*
D14*
%TO.P,C2,2*%
%TO.N,GND*%
X116782380Y-61900000D03*
%TD*%
%TO.P,R9,1*%
%TO.N,Net-(Q2-B)*%
X125000000Y-90500000D03*
D15*
%TO.P,R9,2*%
%TO.N,Net-(Q1-E)*%
X127540000Y-90500000D03*
%TD*%
D14*
%TO.P,C5,1*%
%TO.N,Net-(C5-Pad1)*%
X110300000Y-66300000D03*
%TO.P,C5,2*%
%TO.N,GND*%
X105300000Y-66300000D03*
%TD*%
%TO.P,R7,1*%
%TO.N,Net-(Q2-B)*%
X118600000Y-85700000D03*
D15*
%TO.P,R7,2*%
%TO.N,GND*%
X116060000Y-85700000D03*
%TD*%
D18*
%TO.P,J2,1,Pin_1*%
%TO.N,Net-(J2-Pin_1)*%
X145000000Y-73725000D03*
D19*
%TO.P,J2,2,Pin_2*%
%TO.N,GND*%
X145000000Y-76265000D03*
%TD*%
D18*
%TO.P,J3,1,Pin_1*%
%TO.N,Net-(J3-Pin_1)*%
X105000000Y-73725000D03*
D19*
%TO.P,J3,2,Pin_2*%
%TO.N,GND*%
X105000000Y-76265000D03*
%TD*%
D14*
%TO.P,R4,1*%
%TO.N,Net-(C2-Pad1)*%
X126000000Y-70800000D03*
D15*
%TO.P,R4,2*%
%TO.N,Net-(Q1-B)*%
X126000000Y-73340000D03*
%TD*%
D20*
%TO.N,GND*%
X122000000Y-99000000D03*
X142000000Y-99000000D03*
X149000000Y-87000000D03*
X147000000Y-51000000D03*
X101000000Y-87000000D03*
X149000000Y-77000000D03*
X101000000Y-72000000D03*
X122000000Y-51000000D03*
X112000000Y-99000000D03*
X142000000Y-51000000D03*
X127000000Y-51000000D03*
X149000000Y-67000000D03*
X149000000Y-97000000D03*
X149000000Y-52000000D03*
X149000000Y-82000000D03*
X101000000Y-57000000D03*
X101000000Y-52000000D03*
X107000000Y-99000000D03*
X132000000Y-51000000D03*
X117000000Y-51000000D03*
X127000000Y-99000000D03*
X102000000Y-51000000D03*
X149000000Y-72000000D03*
X137000000Y-99000000D03*
X101000000Y-62000000D03*
X101000000Y-67000000D03*
X112000000Y-51000000D03*
X107000000Y-51000000D03*
X149000000Y-62000000D03*
X149000000Y-57000000D03*
X137000000Y-51000000D03*
X101000000Y-82000000D03*
X149000000Y-92000000D03*
X132000000Y-99000000D03*
X101000000Y-97000000D03*
X102000000Y-99000000D03*
X147000000Y-99000000D03*
X101000000Y-92000000D03*
X101000000Y-77000000D03*
X117000000Y-99000000D03*
%TD*%
D21*
%TO.N,Net-(C1-Pad1)*%
X133100000Y-62340000D02*
X133100000Y-67455000D01*
X133100000Y-62340000D02*
X137540000Y-62340000D01*
X137540000Y-62340000D02*
X138800000Y-63600000D01*
%TO.N,Net-(C2-Pad1)*%
X126000000Y-70800000D02*
X126000000Y-65140000D01*
X126000000Y-65140000D02*
X122522380Y-65140000D01*
X122522380Y-65140000D02*
X119282380Y-61900000D01*
%TO.N,Net-(Q1-C)*%
X133100000Y-74460000D02*
X138240000Y-74460000D01*
X133100000Y-69995000D02*
X133100000Y-74460000D01*
X138240000Y-74460000D02*
X138300000Y-74400000D01*
%TO.N,Net-(J2-Pin_1)*%
X140300000Y-74400000D02*
X144325000Y-74400000D01*
X144325000Y-74400000D02*
X145000000Y-73725000D01*
%TO.N,Net-(Q2-B)*%
X123730000Y-76430000D02*
X123730000Y-79630000D01*
X123400000Y-90500000D02*
X118600000Y-85700000D01*
X123730000Y-79630000D02*
X118600000Y-84760000D01*
X118600000Y-84760000D02*
X118600000Y-85700000D01*
X125000000Y-90500000D02*
X123400000Y-90500000D01*
X118000000Y-70700000D02*
X123730000Y-76430000D01*
%TO.N,Net-(C4-Pad2)*%
X118000000Y-74200000D02*
X118000000Y-80400000D01*
X118000000Y-80400000D02*
X117700000Y-80700000D01*
%TO.N,Net-(C5-Pad1)*%
X110300000Y-66300000D02*
X110300000Y-71160000D01*
%TO.N,Net-(J1-Pin_1)*%
X123725000Y-55000000D02*
X123725000Y-60325000D01*
X126000000Y-62600000D02*
X130300000Y-62600000D01*
X123725000Y-60325000D02*
X126000000Y-62600000D01*
X130300000Y-62600000D02*
X133100000Y-59800000D01*
%TO.N,Net-(J3-Pin_1)*%
X110300000Y-73700000D02*
X110300000Y-76100000D01*
X110300000Y-76100000D02*
X112700000Y-78500000D01*
X110275000Y-73725000D02*
X110300000Y-73700000D01*
X105000000Y-73725000D02*
X110275000Y-73725000D01*
%TO.N,Net-(Q1-E)*%
X127540000Y-87960000D02*
X127540000Y-90500000D01*
X133100000Y-77000000D02*
X133100000Y-82400000D01*
X133100000Y-82400000D02*
X127540000Y-87960000D01*
%TO.N,Net-(Q1-B)*%
X131830000Y-75730000D02*
X127630000Y-75730000D01*
X126000000Y-77360000D02*
X126000000Y-73340000D01*
X127630000Y-75730000D02*
X125000000Y-78360000D01*
X125000000Y-78360000D02*
X126000000Y-77360000D01*
%TO.N,Net-(Q2-E)*%
X125000000Y-80900000D02*
X125000000Y-85700000D01*
%TD*%
%TA.AperFunction,Conductor*%
%TO.N,GND*%
G36*
X106661385Y-96449253D02*
G01*
X106599511Y-96461561D01*
X106516816Y-96516816D01*
X106461561Y-96599511D01*
X106449253Y-96661385D01*
X106020456Y-96232588D01*
X106134870Y-96134870D01*
X106232588Y-96020456D01*
X106661385Y-96449253D01*
G37*
%TD.AperFunction*%
%TA.AperFunction,Conductor*%
G36*
X103865130Y-96134870D02*
G01*
X103979543Y-96232587D01*
X103550746Y-96661384D01*
X103538439Y-96599511D01*
X103483184Y-96516816D01*
X103400489Y-96461561D01*
X103338613Y-96449253D01*
X103767411Y-96020455D01*
X103865130Y-96134870D01*
G37*
%TD.AperFunction*%
%TA.AperFunction,Conductor*%
G36*
X103979544Y-93767411D02*
G01*
X103865130Y-93865130D01*
X103767411Y-93979544D01*
X103338613Y-93550746D01*
X103400489Y-93538439D01*
X103483184Y-93483184D01*
X103538439Y-93400489D01*
X103550746Y-93338613D01*
X103979544Y-93767411D01*
G37*
%TD.AperFunction*%
%TA.AperFunction,Conductor*%
G36*
X106461561Y-93400489D02*
G01*
X106516816Y-93483184D01*
X106599511Y-93538439D01*
X106661384Y-93550746D01*
X106232587Y-93979543D01*
X106134870Y-93865130D01*
X106020455Y-93767411D01*
X106449253Y-93338613D01*
X106461561Y-93400489D01*
G37*
%TD.AperFunction*%
%TA.AperFunction,Conductor*%
G36*
X146661385Y-96449253D02*
G01*
X146599511Y-96461561D01*
X146516816Y-96516816D01*
X146461561Y-96599511D01*
X146449253Y-96661385D01*
X146020456Y-96232588D01*
X146134870Y-96134870D01*
X146232588Y-96020456D01*
X146661385Y-96449253D01*
G37*
%TD.AperFunction*%
%TA.AperFunction,Conductor*%
G36*
X143865130Y-96134870D02*
G01*
X143979543Y-96232587D01*
X143550746Y-96661384D01*
X143538439Y-96599511D01*
X143483184Y-96516816D01*
X143400489Y-96461561D01*
X143338613Y-96449253D01*
X143767411Y-96020455D01*
X143865130Y-96134870D01*
G37*
%TD.AperFunction*%
%TA.AperFunction,Conductor*%
G36*
X143979544Y-93767411D02*
G01*
X143865130Y-93865130D01*
X143767411Y-93979544D01*
X143338613Y-93550746D01*
X143400489Y-93538439D01*
X143483184Y-93483184D01*
X143538439Y-93400489D01*
X143550746Y-93338613D01*
X143979544Y-93767411D01*
G37*
%TD.AperFunction*%
%TA.AperFunction,Conductor*%
G36*
X146461561Y-93400489D02*
G01*
X146516816Y-93483184D01*
X146599511Y-93538439D01*
X146661384Y-93550746D01*
X146232587Y-93979543D01*
X146134870Y-93865130D01*
X146020455Y-93767411D01*
X146449253Y-93338613D01*
X146461561Y-93400489D01*
G37*
%TD.AperFunction*%
%TA.AperFunction,Conductor*%
G36*
X106661385Y-56449253D02*
G01*
X106599511Y-56461561D01*
X106516816Y-56516816D01*
X106461561Y-56599511D01*
X106449253Y-56661385D01*
X106020456Y-56232588D01*
X106134870Y-56134870D01*
X106232588Y-56020456D01*
X106661385Y-56449253D01*
G37*
%TD.AperFunction*%
%TA.AperFunction,Conductor*%
G36*
X103865130Y-56134870D02*
G01*
X103979543Y-56232587D01*
X103550746Y-56661384D01*
X103538439Y-56599511D01*
X103483184Y-56516816D01*
X103400489Y-56461561D01*
X103338613Y-56449253D01*
X103767411Y-56020455D01*
X103865130Y-56134870D01*
G37*
%TD.AperFunction*%
%TA.AperFunction,Conductor*%
G36*
X103979544Y-53767411D02*
G01*
X103865130Y-53865130D01*
X103767411Y-53979544D01*
X103338613Y-53550746D01*
X103400489Y-53538439D01*
X103483184Y-53483184D01*
X103538439Y-53400489D01*
X103550746Y-53338613D01*
X103979544Y-53767411D01*
G37*
%TD.AperFunction*%
%TA.AperFunction,Conductor*%
G36*
X106461561Y-53400489D02*
G01*
X106516816Y-53483184D01*
X106599511Y-53538439D01*
X106661384Y-53550746D01*
X106232587Y-53979543D01*
X106134870Y-53865130D01*
X106020455Y-53767411D01*
X106449253Y-53338613D01*
X106461561Y-53400489D01*
G37*
%TD.AperFunction*%
%TA.AperFunction,Conductor*%
G36*
X146661385Y-56449253D02*
G01*
X146599511Y-56461561D01*
X146516816Y-56516816D01*
X146461561Y-56599511D01*
X146449253Y-56661385D01*
X146020456Y-56232588D01*
X146134870Y-56134870D01*
X146232588Y-56020456D01*
X146661385Y-56449253D01*
G37*
%TD.AperFunction*%
%TA.AperFunction,Conductor*%
G36*
X143865130Y-56134870D02*
G01*
X143979543Y-56232587D01*
X143550746Y-56661384D01*
X143538439Y-56599511D01*
X143483184Y-56516816D01*
X143400489Y-56461561D01*
X143338613Y-56449253D01*
X143767411Y-56020455D01*
X143865130Y-56134870D01*
G37*
%TD.AperFunction*%
%TA.AperFunction,Conductor*%
G36*
X143979544Y-53767411D02*
G01*
X143865130Y-53865130D01*
X143767411Y-53979544D01*
X143338613Y-53550746D01*
X143400489Y-53538439D01*
X143483184Y-53483184D01*
X143538439Y-53400489D01*
X143550746Y-53338613D01*
X143979544Y-53767411D01*
G37*
%TD.AperFunction*%
%TA.AperFunction,Conductor*%
G36*
X146461561Y-53400489D02*
G01*
X146516816Y-53483184D01*
X146599511Y-53538439D01*
X146661384Y-53550746D01*
X146232587Y-53979543D01*
X146134870Y-53865130D01*
X146020455Y-53767411D01*
X146449253Y-53338613D01*
X146461561Y-53400489D01*
G37*
%TD.AperFunction*%
%TA.AperFunction,Conductor*%
G36*
X124666055Y-50000948D02*
G01*
X124887981Y-50001067D01*
X124888183Y-50001067D01*
X124888222Y-50001081D01*
X124888223Y-50001068D01*
X136272024Y-50013226D01*
X148177832Y-50025943D01*
X148185686Y-50026370D01*
X148430663Y-50052841D01*
X148443547Y-50055409D01*
X148681984Y-50125420D01*
X148686985Y-50127085D01*
X148694671Y-50129952D01*
X148699540Y-50131968D01*
X148951239Y-50246914D01*
X148960503Y-50251973D01*
X149191047Y-50400134D01*
X149199500Y-50406462D01*
X149406610Y-50585924D01*
X149414075Y-50593389D01*
X149593537Y-50800499D01*
X149599865Y-50808952D01*
X149748026Y-51039496D01*
X149753086Y-51048762D01*
X149868031Y-51300457D01*
X149870052Y-51305337D01*
X149874513Y-51317297D01*
X149876181Y-51322310D01*
X149943606Y-51551939D01*
X149946180Y-51564880D01*
X149971523Y-51800717D01*
X149971947Y-51808632D01*
X149966958Y-98226211D01*
X149966534Y-98234117D01*
X149943675Y-98446643D01*
X149941102Y-98459577D01*
X149880306Y-98666630D01*
X149878637Y-98671643D01*
X149870048Y-98694670D01*
X149868027Y-98699550D01*
X149753086Y-98951237D01*
X149748026Y-98960503D01*
X149599865Y-99191047D01*
X149593537Y-99199500D01*
X149414075Y-99406610D01*
X149406610Y-99414075D01*
X149199500Y-99593537D01*
X149191047Y-99599865D01*
X148960503Y-99748026D01*
X148951237Y-99753086D01*
X148699542Y-99868031D01*
X148694661Y-99870052D01*
X148673641Y-99877892D01*
X148668648Y-99879554D01*
X148457480Y-99941558D01*
X148444571Y-99944128D01*
X148227805Y-99967505D01*
X148219920Y-99967932D01*
X102116357Y-99998592D01*
X102113691Y-99998546D01*
X101852439Y-99989302D01*
X101844525Y-99988595D01*
X101587590Y-99951653D01*
X101582391Y-99950715D01*
X101580668Y-99950340D01*
X101578542Y-99949877D01*
X101573430Y-99948572D01*
X101307930Y-99870614D01*
X101298038Y-99866925D01*
X101048763Y-99753086D01*
X101039496Y-99748026D01*
X100808952Y-99599865D01*
X100800499Y-99593537D01*
X100593389Y-99414075D01*
X100585924Y-99406610D01*
X100406462Y-99199500D01*
X100400134Y-99191047D01*
X100251973Y-98960503D01*
X100246913Y-98951236D01*
X100133074Y-98701961D01*
X100129385Y-98692069D01*
X100052175Y-98429116D01*
X100049930Y-98418799D01*
X100037632Y-98333264D01*
X100010742Y-98146234D01*
X100010037Y-98138350D01*
X100000547Y-97872635D01*
X100000500Y-97869994D01*
X100000500Y-95000000D01*
X101495197Y-95000000D01*
X101514397Y-95366355D01*
X101514397Y-95366356D01*
X101571783Y-95728683D01*
X101666735Y-96083046D01*
X101798201Y-96425527D01*
X101798205Y-96425538D01*
X101964746Y-96752393D01*
X102164556Y-97060073D01*
X102395426Y-97345173D01*
X102419060Y-97368807D01*
X103055141Y-96732725D01*
X103067449Y-96794601D01*
X103122704Y-96877296D01*
X103205399Y-96932551D01*
X103267272Y-96944858D01*
X102631192Y-97580939D01*
X102654826Y-97604573D01*
X102939926Y-97835443D01*
X103247606Y-98035253D01*
X103574461Y-98201794D01*
X103574472Y-98201798D01*
X103916953Y-98333264D01*
X104271316Y-98428216D01*
X104633643Y-98485602D01*
X105000000Y-98504802D01*
X105366355Y-98485602D01*
X105366356Y-98485602D01*
X105728683Y-98428216D01*
X106083046Y-98333264D01*
X106425527Y-98201798D01*
X106425538Y-98201794D01*
X106752393Y-98035253D01*
X107060073Y-97835443D01*
X107345173Y-97604573D01*
X107368806Y-97580938D01*
X106732726Y-96944858D01*
X106794601Y-96932551D01*
X106877296Y-96877296D01*
X106932551Y-96794601D01*
X106944858Y-96732726D01*
X107580938Y-97368806D01*
X107604573Y-97345173D01*
X107835443Y-97060073D01*
X108035253Y-96752393D01*
X108201794Y-96425538D01*
X108201798Y-96425527D01*
X108333264Y-96083046D01*
X108428216Y-95728683D01*
X108485602Y-95366356D01*
X108485602Y-95366355D01*
X108504802Y-95000000D01*
X141495197Y-95000000D01*
X141514397Y-95366355D01*
X141514397Y-95366356D01*
X141571783Y-95728683D01*
X141666735Y-96083046D01*
X141798201Y-96425527D01*
X141798205Y-96425538D01*
X141964746Y-96752393D01*
X142164556Y-97060073D01*
X142395426Y-97345173D01*
X142419060Y-97368807D01*
X143055141Y-96732725D01*
X143067449Y-96794601D01*
X143122704Y-96877296D01*
X143205399Y-96932551D01*
X143267272Y-96944858D01*
X142631192Y-97580939D01*
X142654826Y-97604573D01*
X142939926Y-97835443D01*
X143247606Y-98035253D01*
X143574461Y-98201794D01*
X143574472Y-98201798D01*
X143916953Y-98333264D01*
X144271316Y-98428216D01*
X144633643Y-98485602D01*
X145000000Y-98504802D01*
X145366355Y-98485602D01*
X145366356Y-98485602D01*
X145728683Y-98428216D01*
X146083046Y-98333264D01*
X146425527Y-98201798D01*
X146425538Y-98201794D01*
X146752393Y-98035253D01*
X147060073Y-97835443D01*
X147345173Y-97604573D01*
X147368806Y-97580938D01*
X146732726Y-96944858D01*
X146794601Y-96932551D01*
X146877296Y-96877296D01*
X146932551Y-96794601D01*
X146944858Y-96732726D01*
X147580938Y-97368806D01*
X147604573Y-97345173D01*
X147835443Y-97060073D01*
X148035253Y-96752393D01*
X148201794Y-96425538D01*
X148201798Y-96425527D01*
X148333264Y-96083046D01*
X148428216Y-95728683D01*
X148485602Y-95366356D01*
X148485602Y-95366355D01*
X148504802Y-95000000D01*
X148485602Y-94633644D01*
X148485602Y-94633643D01*
X148428216Y-94271316D01*
X148333264Y-93916953D01*
X148201794Y-93574461D01*
X148201791Y-93574456D01*
X148035253Y-93247607D01*
X147835443Y-92939926D01*
X147604573Y-92654826D01*
X147580939Y-92631192D01*
X146944858Y-93267272D01*
X146932551Y-93205399D01*
X146877296Y-93122704D01*
X146794601Y-93067449D01*
X146732725Y-93055141D01*
X147368807Y-92419060D01*
X147345173Y-92395426D01*
X147060073Y-92164556D01*
X146752393Y-91964746D01*
X146425538Y-91798205D01*
X146425527Y-91798201D01*
X146083046Y-91666735D01*
X145728683Y-91571783D01*
X145366356Y-91514397D01*
X145000000Y-91495197D01*
X144633644Y-91514397D01*
X144633643Y-91514397D01*
X144271316Y-91571783D01*
X143916953Y-91666735D01*
X143574461Y-91798205D01*
X143574456Y-91798208D01*
X143247607Y-91964746D01*
X142939926Y-92164556D01*
X142654827Y-92395425D01*
X142631192Y-92419059D01*
X143267274Y-93055141D01*
X143205399Y-93067449D01*
X143122704Y-93122704D01*
X143067449Y-93205399D01*
X143055141Y-93267274D01*
X142419059Y-92631192D01*
X142395425Y-92654827D01*
X142164556Y-92939926D01*
X141964746Y-93247607D01*
X141798208Y-93574456D01*
X141798205Y-93574461D01*
X141666735Y-93916953D01*
X141571783Y-94271316D01*
X141514397Y-94633643D01*
X141514397Y-94633644D01*
X141495197Y-95000000D01*
X108504802Y-95000000D01*
X108485602Y-94633644D01*
X108485602Y-94633643D01*
X108428216Y-94271316D01*
X108333264Y-93916953D01*
X108201794Y-93574461D01*
X108201791Y-93574456D01*
X108035253Y-93247607D01*
X107835443Y-92939926D01*
X107604573Y-92654826D01*
X107580939Y-92631192D01*
X106944858Y-93267272D01*
X106932551Y-93205399D01*
X106877296Y-93122704D01*
X106794601Y-93067449D01*
X106732725Y-93055141D01*
X107368807Y-92419060D01*
X107345173Y-92395426D01*
X107060073Y-92164556D01*
X106752393Y-91964746D01*
X106425538Y-91798205D01*
X106425527Y-91798201D01*
X106083046Y-91666735D01*
X105728683Y-91571783D01*
X105366356Y-91514397D01*
X105000000Y-91495197D01*
X104633644Y-91514397D01*
X104633643Y-91514397D01*
X104271316Y-91571783D01*
X103916953Y-91666735D01*
X103574461Y-91798205D01*
X103574456Y-91798208D01*
X103247607Y-91964746D01*
X102939926Y-92164556D01*
X102654827Y-92395425D01*
X102631192Y-92419059D01*
X103267274Y-93055141D01*
X103205399Y-93067449D01*
X103122704Y-93122704D01*
X103067449Y-93205399D01*
X103055141Y-93267274D01*
X102419059Y-92631192D01*
X102395425Y-92654827D01*
X102164556Y-92939926D01*
X101964746Y-93247607D01*
X101798208Y-93574456D01*
X101798205Y-93574461D01*
X101666735Y-93916953D01*
X101571783Y-94271316D01*
X101514397Y-94633643D01*
X101514397Y-94633644D01*
X101495197Y-95000000D01*
X100000500Y-95000000D01*
X100000500Y-85850001D01*
X114969186Y-85850001D01*
X114974095Y-85902977D01*
X114974097Y-85902991D01*
X115029884Y-86099062D01*
X115029886Y-86099067D01*
X115120754Y-86281557D01*
X115120756Y-86281560D01*
X115243605Y-86444239D01*
X115243606Y-86444240D01*
X115394261Y-86581579D01*
X115567582Y-86688895D01*
X115567591Y-86688900D01*
X115757680Y-86762540D01*
X115909999Y-86791013D01*
X115910000Y-86791013D01*
X115910000Y-86072502D01*
X115934852Y-86085165D01*
X116028519Y-86100000D01*
X116091481Y-86100000D01*
X116185148Y-86085165D01*
X116210000Y-86072502D01*
X116210000Y-86791013D01*
X116362319Y-86762540D01*
X116552408Y-86688900D01*
X116552417Y-86688895D01*
X116725738Y-86581579D01*
X116725739Y-86581579D01*
X116876393Y-86444240D01*
X116876394Y-86444239D01*
X116999243Y-86281560D01*
X116999245Y-86281557D01*
X117090113Y-86099067D01*
X117090115Y-86099062D01*
X117145902Y-85902991D01*
X117145904Y-85902977D01*
X117150813Y-85850001D01*
X117150812Y-85850000D01*
X116432502Y-85850000D01*
X116445165Y-85825148D01*
X116464986Y-85700000D01*
X116445165Y-85574852D01*
X116432502Y-85550000D01*
X117150812Y-85550000D01*
X117150813Y-85549998D01*
X117145904Y-85497022D01*
X117145902Y-85497008D01*
X117090115Y-85300937D01*
X117090113Y-85300932D01*
X116999245Y-85118442D01*
X116999243Y-85118439D01*
X116876394Y-84955760D01*
X116876393Y-84955759D01*
X116725738Y-84818420D01*
X116552417Y-84711104D01*
X116552408Y-84711099D01*
X116362321Y-84637459D01*
X116210000Y-84608985D01*
X116210000Y-85327497D01*
X116185148Y-85314835D01*
X116091481Y-85300000D01*
X116028519Y-85300000D01*
X115934852Y-85314835D01*
X115910000Y-85327497D01*
X115910000Y-84608985D01*
X115909999Y-84608985D01*
X115757678Y-84637459D01*
X115567591Y-84711099D01*
X115567582Y-84711104D01*
X115394261Y-84818420D01*
X115394260Y-84818420D01*
X115243606Y-84955759D01*
X115243605Y-84955760D01*
X115120756Y-85118439D01*
X115120754Y-85118442D01*
X115029886Y-85300932D01*
X115029884Y-85300937D01*
X114974097Y-85497008D01*
X114974095Y-85497022D01*
X114969186Y-85549998D01*
X114969188Y-85550000D01*
X115687498Y-85550000D01*
X115674835Y-85574852D01*
X115655014Y-85700000D01*
X115674835Y-85825148D01*
X115687498Y-85850000D01*
X114969188Y-85850000D01*
X114969186Y-85850001D01*
X100000500Y-85850001D01*
X100000500Y-80700000D01*
X116694659Y-80700000D01*
X116713976Y-80896133D01*
X116771187Y-81084731D01*
X116858776Y-81248597D01*
X116864090Y-81258538D01*
X116989117Y-81410883D01*
X117141462Y-81535910D01*
X117218426Y-81577048D01*
X117315268Y-81628812D01*
X117315270Y-81628812D01*
X117315273Y-81628814D01*
X117503868Y-81686024D01*
X117700000Y-81705341D01*
X117896132Y-81686024D01*
X118084727Y-81628814D01*
X118258538Y-81535910D01*
X118410883Y-81410883D01*
X118535910Y-81258538D01*
X118628814Y-81084727D01*
X118686024Y-80896132D01*
X118705341Y-80700000D01*
X118686024Y-80503868D01*
X118628814Y-80315273D01*
X118628812Y-80315270D01*
X118628812Y-80315268D01*
X118552108Y-80171767D01*
X118535910Y-80141462D01*
X118410883Y-79989117D01*
X118410881Y-79989115D01*
X118410880Y-79989114D01*
X118369696Y-79955315D01*
X118352554Y-79941247D01*
X118326769Y-79897689D01*
X118325500Y-79884045D01*
X118325500Y-75201662D01*
X118342813Y-75154096D01*
X118378018Y-75130848D01*
X118384727Y-75128814D01*
X118558538Y-75035910D01*
X118710883Y-74910883D01*
X118835910Y-74758538D01*
X118928814Y-74584727D01*
X118986024Y-74396132D01*
X119005341Y-74200000D01*
X118986024Y-74003868D01*
X118928814Y-73815273D01*
X118928812Y-73815270D01*
X118928812Y-73815268D01*
X118844918Y-73658315D01*
X118835910Y-73641462D01*
X118710883Y-73489117D01*
X118558538Y-73364090D01*
X118548597Y-73358776D01*
X118384731Y-73271187D01*
X118196133Y-73213976D01*
X118000000Y-73194659D01*
X117803866Y-73213976D01*
X117615268Y-73271187D01*
X117441463Y-73364089D01*
X117289117Y-73489117D01*
X117164089Y-73641463D01*
X117071187Y-73815268D01*
X117013976Y-74003866D01*
X116994659Y-74200000D01*
X117013976Y-74396133D01*
X117071187Y-74584731D01*
X117146431Y-74725500D01*
X117164090Y-74758538D01*
X117289117Y-74910883D01*
X117441462Y-75035910D01*
X117615269Y-75128812D01*
X117615270Y-75128812D01*
X117615273Y-75128814D01*
X117621981Y-75130848D01*
X117662473Y-75161222D01*
X117674500Y-75201662D01*
X117674500Y-79630100D01*
X117657187Y-79677666D01*
X117613350Y-79702976D01*
X117607754Y-79703744D01*
X117503866Y-79713976D01*
X117315268Y-79771187D01*
X117141463Y-79864089D01*
X116989117Y-79989117D01*
X116864089Y-80141463D01*
X116771187Y-80315268D01*
X116713976Y-80503866D01*
X116694659Y-80700000D01*
X100000500Y-80700000D01*
X100000500Y-76415001D01*
X103858972Y-76415001D01*
X103864736Y-76477204D01*
X103864738Y-76477218D01*
X103923061Y-76682202D01*
X103923064Y-76682212D01*
X104018059Y-76872988D01*
X104018063Y-76872994D01*
X104146501Y-77043071D01*
X104304003Y-77186653D01*
X104485200Y-77298844D01*
X104485210Y-77298849D01*
X104683935Y-77375836D01*
X104849999Y-77406879D01*
X104850000Y-77406879D01*
X104850000Y-76746170D01*
X104857685Y-76749680D01*
X104964237Y-76765000D01*
X105035763Y-76765000D01*
X105142315Y-76749680D01*
X105150000Y-76746170D01*
X105150000Y-77406879D01*
X105316064Y-77375836D01*
X105514789Y-77298849D01*
X105514799Y-77298844D01*
X105695996Y-77186653D01*
X105853498Y-77043071D01*
X105981936Y-76872994D01*
X105981940Y-76872988D01*
X106076935Y-76682212D01*
X106076938Y-76682202D01*
X106135261Y-76477218D01*
X106135263Y-76477204D01*
X106141027Y-76415001D01*
X106141026Y-76415000D01*
X105477065Y-76415000D01*
X105500000Y-76336889D01*
X105500000Y-76193111D01*
X105477065Y-76115000D01*
X106141026Y-76115000D01*
X106141027Y-76114998D01*
X106135263Y-76052795D01*
X106135261Y-76052781D01*
X106076938Y-75847797D01*
X106076935Y-75847787D01*
X105981940Y-75657011D01*
X105981936Y-75657005D01*
X105853498Y-75486928D01*
X105695996Y-75343346D01*
X105514799Y-75231155D01*
X105514789Y-75231150D01*
X105316063Y-75154162D01*
X105150000Y-75123119D01*
X105150000Y-75783829D01*
X105142315Y-75780320D01*
X105035763Y-75765000D01*
X104964237Y-75765000D01*
X104857685Y-75780320D01*
X104850000Y-75783829D01*
X104850000Y-75123119D01*
X104849999Y-75123119D01*
X104683936Y-75154162D01*
X104485210Y-75231150D01*
X104485200Y-75231155D01*
X104304003Y-75343346D01*
X104146501Y-75486928D01*
X104018063Y-75657005D01*
X104018059Y-75657011D01*
X103923064Y-75847787D01*
X103923061Y-75847797D01*
X103864738Y-76052781D01*
X103864736Y-76052795D01*
X103858972Y-76114998D01*
X103858974Y-76115000D01*
X104522935Y-76115000D01*
X104500000Y-76193111D01*
X104500000Y-76336889D01*
X104522935Y-76415000D01*
X103858974Y-76415000D01*
X103858972Y-76415001D01*
X100000500Y-76415001D01*
X100000500Y-74594748D01*
X103949500Y-74594748D01*
X103956276Y-74628812D01*
X103961133Y-74653232D01*
X103990608Y-74697343D01*
X104005448Y-74719552D01*
X104014350Y-74725500D01*
X104071767Y-74763866D01*
X104071768Y-74763866D01*
X104071769Y-74763867D01*
X104130252Y-74775500D01*
X104130254Y-74775500D01*
X105869746Y-74775500D01*
X105869748Y-74775500D01*
X105928231Y-74763867D01*
X105994552Y-74719552D01*
X106038867Y-74653231D01*
X106050500Y-74594748D01*
X106050500Y-74124500D01*
X106067813Y-74076934D01*
X106111650Y-74051624D01*
X106124500Y-74050500D01*
X109308537Y-74050500D01*
X109356103Y-74067813D01*
X109373799Y-74089616D01*
X109388536Y-74117187D01*
X109464090Y-74258538D01*
X109589117Y-74410883D01*
X109741462Y-74535910D01*
X109915269Y-74628812D01*
X109915270Y-74628812D01*
X109915273Y-74628814D01*
X109921981Y-74630848D01*
X109962473Y-74661222D01*
X109974500Y-74701662D01*
X109974500Y-76082558D01*
X109974218Y-76089009D01*
X109970735Y-76128805D01*
X109970735Y-76128806D01*
X109981077Y-76167406D01*
X109982473Y-76173703D01*
X109989411Y-76213044D01*
X109991811Y-76217200D01*
X109999203Y-76235047D01*
X110000445Y-76239682D01*
X110000446Y-76239685D01*
X110023362Y-76272414D01*
X110026829Y-76277855D01*
X110046806Y-76312455D01*
X110046807Y-76312456D01*
X110046808Y-76312457D01*
X110077408Y-76338133D01*
X110082169Y-76342495D01*
X111761554Y-78021880D01*
X111782946Y-78067756D01*
X111774493Y-78109084D01*
X111771188Y-78115268D01*
X111713976Y-78303866D01*
X111694659Y-78500000D01*
X111713976Y-78696133D01*
X111771187Y-78884731D01*
X111829845Y-78994471D01*
X111864090Y-79058538D01*
X111989117Y-79210883D01*
X112141462Y-79335910D01*
X112218426Y-79377048D01*
X112315268Y-79428812D01*
X112315270Y-79428812D01*
X112315273Y-79428814D01*
X112503868Y-79486024D01*
X112700000Y-79505341D01*
X112896132Y-79486024D01*
X113084727Y-79428814D01*
X113258538Y-79335910D01*
X113410883Y-79210883D01*
X113535910Y-79058538D01*
X113628814Y-78884727D01*
X113686024Y-78696132D01*
X113705341Y-78500000D01*
X113686024Y-78303868D01*
X113628814Y-78115273D01*
X113628812Y-78115270D01*
X113628812Y-78115268D01*
X113567418Y-78000410D01*
X113535910Y-77941462D01*
X113410883Y-77789117D01*
X113258538Y-77664090D01*
X113248597Y-77658776D01*
X113084731Y-77571187D01*
X112896133Y-77513976D01*
X112700000Y-77494659D01*
X112503866Y-77513976D01*
X112398887Y-77545821D01*
X112315273Y-77571186D01*
X112315270Y-77571187D01*
X112315268Y-77571188D01*
X112309084Y-77574493D01*
X112258972Y-77581643D01*
X112221880Y-77561554D01*
X110647174Y-75986848D01*
X110625782Y-75940972D01*
X110625500Y-75934522D01*
X110625500Y-74701662D01*
X110642813Y-74654096D01*
X110678018Y-74630848D01*
X110684727Y-74628814D01*
X110858538Y-74535910D01*
X111010883Y-74410883D01*
X111135910Y-74258538D01*
X111228814Y-74084727D01*
X111286024Y-73896132D01*
X111305341Y-73700000D01*
X111286024Y-73503868D01*
X111228814Y-73315273D01*
X111228812Y-73315270D01*
X111228812Y-73315268D01*
X111137196Y-73143868D01*
X111135910Y-73141462D01*
X111010883Y-72989117D01*
X110858538Y-72864090D01*
X110842003Y-72855252D01*
X110684731Y-72771187D01*
X110496133Y-72713976D01*
X110300000Y-72694659D01*
X110103866Y-72713976D01*
X109915268Y-72771187D01*
X109741463Y-72864089D01*
X109589117Y-72989117D01*
X109464089Y-73141463D01*
X109371187Y-73315268D01*
X109366409Y-73331017D01*
X109361567Y-73346982D01*
X109331192Y-73387474D01*
X109290754Y-73399500D01*
X106124500Y-73399500D01*
X106076934Y-73382187D01*
X106051624Y-73338350D01*
X106050500Y-73325500D01*
X106050500Y-72855253D01*
X106050500Y-72855252D01*
X106038867Y-72796769D01*
X105994552Y-72730448D01*
X105969900Y-72713976D01*
X105928232Y-72686133D01*
X105928233Y-72686133D01*
X105898989Y-72680316D01*
X105869748Y-72674500D01*
X104130252Y-72674500D01*
X104101010Y-72680316D01*
X104071767Y-72686133D01*
X104005449Y-72730447D01*
X104005447Y-72730449D01*
X103961133Y-72796767D01*
X103961133Y-72796769D01*
X103949500Y-72855252D01*
X103949500Y-74594748D01*
X100000500Y-74594748D01*
X100000500Y-71160000D01*
X109294659Y-71160000D01*
X109313976Y-71356133D01*
X109371187Y-71544731D01*
X109454448Y-71700500D01*
X109464090Y-71718538D01*
X109589117Y-71870883D01*
X109741462Y-71995910D01*
X109818426Y-72037048D01*
X109915268Y-72088812D01*
X109915270Y-72088812D01*
X109915273Y-72088814D01*
X110103868Y-72146024D01*
X110300000Y-72165341D01*
X110496132Y-72146024D01*
X110684727Y-72088814D01*
X110858538Y-71995910D01*
X111010883Y-71870883D01*
X111135910Y-71718538D01*
X111228814Y-71544727D01*
X111236391Y-71519748D01*
X116999500Y-71519748D01*
X117007255Y-71558736D01*
X117011133Y-71578232D01*
X117040608Y-71622343D01*
X117055448Y-71644552D01*
X117099560Y-71674027D01*
X117121767Y-71688866D01*
X117121768Y-71688866D01*
X117121769Y-71688867D01*
X117180252Y-71700500D01*
X118509522Y-71700500D01*
X118557088Y-71717813D01*
X118561848Y-71722174D01*
X123382826Y-76543152D01*
X123404218Y-76589028D01*
X123404500Y-76595478D01*
X123404500Y-78795877D01*
X123387187Y-78843443D01*
X123360599Y-78863479D01*
X123302409Y-78889386D01*
X123302404Y-78889389D01*
X123157772Y-78994471D01*
X123038141Y-79127334D01*
X123038138Y-79127337D01*
X122948748Y-79282168D01*
X122893504Y-79452191D01*
X122893503Y-79452195D01*
X122893503Y-79452197D01*
X122874815Y-79630000D01*
X122889654Y-79771187D01*
X122893504Y-79807808D01*
X122928136Y-79914395D01*
X122926370Y-79964983D01*
X122910084Y-79989588D01*
X118382172Y-84517500D01*
X118377414Y-84521860D01*
X118346807Y-84547542D01*
X118346806Y-84547545D01*
X118326826Y-84582149D01*
X118323359Y-84587590D01*
X118300447Y-84620312D01*
X118300445Y-84620317D01*
X118299201Y-84624959D01*
X118291815Y-84642790D01*
X118289412Y-84646951D01*
X118289412Y-84646952D01*
X118282473Y-84686296D01*
X118281077Y-84692593D01*
X118274622Y-84716686D01*
X118245589Y-84758151D01*
X118224629Y-84768347D01*
X118215273Y-84771185D01*
X118215270Y-84771187D01*
X118041463Y-84864089D01*
X117889117Y-84989117D01*
X117764089Y-85141463D01*
X117671187Y-85315268D01*
X117613976Y-85503866D01*
X117594659Y-85700000D01*
X117613976Y-85896133D01*
X117671187Y-86084731D01*
X117758776Y-86248597D01*
X117764090Y-86258538D01*
X117889117Y-86410883D01*
X118041462Y-86535910D01*
X118118426Y-86577048D01*
X118215268Y-86628812D01*
X118215270Y-86628812D01*
X118215273Y-86628814D01*
X118403868Y-86686024D01*
X118600000Y-86705341D01*
X118796132Y-86686024D01*
X118984727Y-86628814D01*
X118990905Y-86625511D01*
X119041010Y-86618352D01*
X119078118Y-86638444D01*
X123157505Y-90717831D01*
X123161866Y-90722591D01*
X123187545Y-90753194D01*
X123222148Y-90773172D01*
X123227593Y-90776641D01*
X123260314Y-90799553D01*
X123260315Y-90799553D01*
X123260316Y-90799554D01*
X123264945Y-90800794D01*
X123282800Y-90808189D01*
X123286955Y-90810588D01*
X123326312Y-90817527D01*
X123332588Y-90818918D01*
X123371193Y-90829263D01*
X123410983Y-90825781D01*
X123417432Y-90825500D01*
X123998338Y-90825500D01*
X124045904Y-90842813D01*
X124069151Y-90878018D01*
X124071186Y-90884727D01*
X124071187Y-90884730D01*
X124071188Y-90884731D01*
X124164090Y-91058538D01*
X124289117Y-91210883D01*
X124441462Y-91335910D01*
X124518426Y-91377048D01*
X124615268Y-91428812D01*
X124615270Y-91428812D01*
X124615273Y-91428814D01*
X124803868Y-91486024D01*
X125000000Y-91505341D01*
X125196132Y-91486024D01*
X125384727Y-91428814D01*
X125558538Y-91335910D01*
X125710883Y-91210883D01*
X125835910Y-91058538D01*
X125928814Y-90884727D01*
X125986024Y-90696132D01*
X126005341Y-90500000D01*
X125986024Y-90303868D01*
X125928814Y-90115273D01*
X125928812Y-90115269D01*
X125928812Y-90115268D01*
X125877048Y-90018426D01*
X125835910Y-89941462D01*
X125710883Y-89789117D01*
X125558538Y-89664090D01*
X125548597Y-89658776D01*
X125384731Y-89571187D01*
X125196133Y-89513976D01*
X125000000Y-89494659D01*
X124803866Y-89513976D01*
X124615268Y-89571187D01*
X124441463Y-89664089D01*
X124289117Y-89789117D01*
X124164089Y-89941463D01*
X124071187Y-90115269D01*
X124071186Y-90115273D01*
X124069151Y-90121981D01*
X124038778Y-90162473D01*
X123998338Y-90174500D01*
X123565478Y-90174500D01*
X123517912Y-90157187D01*
X123513152Y-90152826D01*
X119538444Y-86178118D01*
X119517052Y-86132242D01*
X119525510Y-86090907D01*
X119528814Y-86084727D01*
X119586024Y-85896132D01*
X119605341Y-85700000D01*
X119586024Y-85503868D01*
X119528814Y-85315273D01*
X119528812Y-85315270D01*
X119528812Y-85315268D01*
X119436727Y-85142991D01*
X119435910Y-85141462D01*
X119310883Y-84989117D01*
X119158538Y-84864090D01*
X119114697Y-84840656D01*
X119080909Y-84802966D01*
X119079253Y-84752374D01*
X119097253Y-84723071D01*
X123368371Y-80451953D01*
X123414246Y-80430562D01*
X123450796Y-80436678D01*
X123465733Y-80443329D01*
X123640609Y-80480500D01*
X123640610Y-80480500D01*
X123819390Y-80480500D01*
X123819391Y-80480500D01*
X123994267Y-80443329D01*
X124045403Y-80420561D01*
X124095896Y-80417030D01*
X124136848Y-80446783D01*
X124149500Y-80488164D01*
X124149500Y-81569746D01*
X124161133Y-81628232D01*
X124190608Y-81672343D01*
X124205448Y-81694552D01*
X124221595Y-81705341D01*
X124271767Y-81738866D01*
X124271768Y-81738866D01*
X124271769Y-81738867D01*
X124330252Y-81750500D01*
X124600500Y-81750500D01*
X124648066Y-81767813D01*
X124673376Y-81811650D01*
X124674500Y-81824500D01*
X124674500Y-84698337D01*
X124657187Y-84745903D01*
X124621986Y-84769149D01*
X124615273Y-84771185D01*
X124615270Y-84771187D01*
X124441463Y-84864089D01*
X124289117Y-84989117D01*
X124164089Y-85141463D01*
X124071187Y-85315268D01*
X124013976Y-85503866D01*
X123994659Y-85700000D01*
X124013976Y-85896133D01*
X124071187Y-86084731D01*
X124158776Y-86248597D01*
X124164090Y-86258538D01*
X124289117Y-86410883D01*
X124441462Y-86535910D01*
X124518426Y-86577048D01*
X124615268Y-86628812D01*
X124615270Y-86628812D01*
X124615273Y-86628814D01*
X124803868Y-86686024D01*
X125000000Y-86705341D01*
X125196132Y-86686024D01*
X125384727Y-86628814D01*
X125558538Y-86535910D01*
X125710883Y-86410883D01*
X125835910Y-86258538D01*
X125921152Y-86099062D01*
X125928812Y-86084731D01*
X125928812Y-86084730D01*
X125928814Y-86084727D01*
X125986024Y-85896132D01*
X125990567Y-85850001D01*
X126449186Y-85850001D01*
X126454095Y-85902977D01*
X126454097Y-85902991D01*
X126509884Y-86099062D01*
X126509886Y-86099067D01*
X126600754Y-86281557D01*
X126600756Y-86281560D01*
X126723605Y-86444239D01*
X126723606Y-86444240D01*
X126874261Y-86581579D01*
X127047582Y-86688895D01*
X127047591Y-86688900D01*
X127237680Y-86762540D01*
X127389999Y-86791013D01*
X127390000Y-86791013D01*
X127390000Y-86072502D01*
X127414852Y-86085165D01*
X127508519Y-86100000D01*
X127571481Y-86100000D01*
X127665148Y-86085165D01*
X127690000Y-86072502D01*
X127690000Y-86791013D01*
X127842319Y-86762540D01*
X128032408Y-86688900D01*
X128032417Y-86688895D01*
X128205738Y-86581579D01*
X128205739Y-86581579D01*
X128356393Y-86444240D01*
X128356394Y-86444239D01*
X128479243Y-86281560D01*
X128479245Y-86281557D01*
X128570113Y-86099067D01*
X128570115Y-86099062D01*
X128625902Y-85902991D01*
X128625904Y-85902977D01*
X128630813Y-85850001D01*
X128630812Y-85850000D01*
X127912502Y-85850000D01*
X127925165Y-85825148D01*
X127944986Y-85700000D01*
X127925165Y-85574852D01*
X127912502Y-85550000D01*
X128630812Y-85550000D01*
X128630813Y-85549998D01*
X128625904Y-85497022D01*
X128625902Y-85497008D01*
X128570115Y-85300937D01*
X128570113Y-85300932D01*
X128479245Y-85118442D01*
X128479243Y-85118439D01*
X128356394Y-84955760D01*
X128356393Y-84955759D01*
X128205738Y-84818420D01*
X128032417Y-84711104D01*
X128032408Y-84711099D01*
X127842321Y-84637459D01*
X127690000Y-84608985D01*
X127690000Y-85327497D01*
X127665148Y-85314835D01*
X127571481Y-85300000D01*
X127508519Y-85300000D01*
X127414852Y-85314835D01*
X127390000Y-85327497D01*
X127390000Y-84608985D01*
X127389999Y-84608985D01*
X127237678Y-84637459D01*
X127047591Y-84711099D01*
X127047582Y-84711104D01*
X126874261Y-84818420D01*
X126874260Y-84818420D01*
X126723606Y-84955759D01*
X126723605Y-84955760D01*
X126600756Y-85118439D01*
X126600754Y-85118442D01*
X126509886Y-85300932D01*
X126509884Y-85300937D01*
X126454097Y-85497008D01*
X126454095Y-85497022D01*
X126449186Y-85549998D01*
X126449188Y-85550000D01*
X127167498Y-85550000D01*
X127154835Y-85574852D01*
X127135014Y-85700000D01*
X127154835Y-85825148D01*
X127167498Y-85850000D01*
X126449188Y-85850000D01*
X126449186Y-85850001D01*
X125990567Y-85850001D01*
X126005341Y-85700000D01*
X125986024Y-85503868D01*
X125928814Y-85315273D01*
X125928812Y-85315270D01*
X125928812Y-85315268D01*
X125836727Y-85142991D01*
X125835910Y-85141462D01*
X125710883Y-84989117D01*
X125558538Y-84864090D01*
X125426702Y-84793622D01*
X125384729Y-84771187D01*
X125384726Y-84771185D01*
X125378014Y-84769149D01*
X125337524Y-84738771D01*
X125325500Y-84698337D01*
X125325500Y-81824500D01*
X125342813Y-81776934D01*
X125386650Y-81751624D01*
X125399500Y-81750500D01*
X125669746Y-81750500D01*
X125669748Y-81750500D01*
X125728231Y-81738867D01*
X125794552Y-81694552D01*
X125838867Y-81628231D01*
X125850500Y-81569748D01*
X125850500Y-80230252D01*
X125838867Y-80171769D01*
X125794552Y-80105448D01*
X125772343Y-80090608D01*
X125728232Y-80061133D01*
X125728233Y-80061133D01*
X125698989Y-80055316D01*
X125669748Y-80049500D01*
X125669746Y-80049500D01*
X124589817Y-80049500D01*
X124542251Y-80032187D01*
X124516941Y-79988350D01*
X124519439Y-79952632D01*
X124566495Y-79807808D01*
X124566497Y-79807803D01*
X124585185Y-79630000D01*
X124566497Y-79452197D01*
X124511250Y-79282165D01*
X124460572Y-79194389D01*
X124451783Y-79144541D01*
X124477093Y-79100704D01*
X124524659Y-79083391D01*
X124568153Y-79097522D01*
X124571926Y-79100263D01*
X124572407Y-79100612D01*
X124735733Y-79173329D01*
X124910609Y-79210500D01*
X124910610Y-79210500D01*
X125089390Y-79210500D01*
X125089391Y-79210500D01*
X125264267Y-79173329D01*
X125427593Y-79100612D01*
X125451296Y-79083391D01*
X125572227Y-78995528D01*
X125572226Y-78995528D01*
X125572230Y-78995526D01*
X125691859Y-78862665D01*
X125701794Y-78845458D01*
X125730419Y-78795877D01*
X125781250Y-78707835D01*
X125836497Y-78537803D01*
X125855185Y-78360000D01*
X125836497Y-78182197D01*
X125801862Y-78075603D01*
X125803628Y-78025016D01*
X125819912Y-78000412D01*
X126217841Y-77602483D01*
X126222577Y-77598144D01*
X126253194Y-77572455D01*
X126255595Y-77568295D01*
X126267349Y-77552975D01*
X127743152Y-76077174D01*
X127789029Y-76055782D01*
X127795478Y-76055500D01*
X130993131Y-76055500D01*
X131040697Y-76072813D01*
X131057217Y-76092500D01*
X131138138Y-76232662D01*
X131138141Y-76232665D01*
X131209984Y-76312455D01*
X131257772Y-76365528D01*
X131402400Y-76470608D01*
X131402407Y-76470612D01*
X131565733Y-76543329D01*
X131740609Y-76580500D01*
X131740610Y-76580500D01*
X131919390Y-76580500D01*
X131919391Y-76580500D01*
X132094267Y-76543329D01*
X132145403Y-76520561D01*
X132195896Y-76517030D01*
X132236848Y-76546783D01*
X132249500Y-76588164D01*
X132249500Y-77669746D01*
X132261133Y-77728232D01*
X132290608Y-77772343D01*
X132305448Y-77794552D01*
X132349560Y-77824027D01*
X132371767Y-77838866D01*
X132371768Y-77838866D01*
X132371769Y-77838867D01*
X132430252Y-77850500D01*
X132700500Y-77850500D01*
X132748066Y-77867813D01*
X132773376Y-77911650D01*
X132774500Y-77924500D01*
X132774500Y-81398337D01*
X132757187Y-81445903D01*
X132721986Y-81469149D01*
X132715273Y-81471185D01*
X132715270Y-81471187D01*
X132541463Y-81564089D01*
X132389117Y-81689117D01*
X132264089Y-81841463D01*
X132171187Y-82015268D01*
X132113976Y-82203866D01*
X132094659Y-82400000D01*
X132113976Y-82596133D01*
X132171187Y-82784731D01*
X132174492Y-82790914D01*
X132181642Y-82841025D01*
X132161553Y-82878118D01*
X127322172Y-87717500D01*
X127317414Y-87721860D01*
X127286807Y-87747542D01*
X127286806Y-87747545D01*
X127266826Y-87782149D01*
X127263359Y-87787590D01*
X127240447Y-87820312D01*
X127240445Y-87820317D01*
X127239201Y-87824959D01*
X127231815Y-87842790D01*
X127229412Y-87846951D01*
X127229412Y-87846952D01*
X127222473Y-87886296D01*
X127221077Y-87892591D01*
X127210735Y-87931192D01*
X127210736Y-87931194D01*
X127214218Y-87970989D01*
X127214500Y-87977440D01*
X127214500Y-89498337D01*
X127197187Y-89545903D01*
X127161986Y-89569149D01*
X127155273Y-89571185D01*
X127155270Y-89571187D01*
X126981463Y-89664089D01*
X126829117Y-89789117D01*
X126704089Y-89941463D01*
X126611187Y-90115268D01*
X126553976Y-90303866D01*
X126534659Y-90500000D01*
X126553976Y-90696133D01*
X126611187Y-90884731D01*
X126698776Y-91048597D01*
X126704090Y-91058538D01*
X126829117Y-91210883D01*
X126981462Y-91335910D01*
X127058426Y-91377048D01*
X127155268Y-91428812D01*
X127155270Y-91428812D01*
X127155273Y-91428814D01*
X127343868Y-91486024D01*
X127540000Y-91505341D01*
X127736132Y-91486024D01*
X127924727Y-91428814D01*
X128098538Y-91335910D01*
X128250883Y-91210883D01*
X128375910Y-91058538D01*
X128468814Y-90884727D01*
X128526024Y-90696132D01*
X128545341Y-90500000D01*
X128526024Y-90303868D01*
X128468814Y-90115273D01*
X128468812Y-90115269D01*
X128468812Y-90115268D01*
X128417048Y-90018426D01*
X128375910Y-89941462D01*
X128250883Y-89789117D01*
X128098538Y-89664090D01*
X127924727Y-89571186D01*
X127924726Y-89571185D01*
X127918014Y-89569149D01*
X127877524Y-89538771D01*
X127865500Y-89498337D01*
X127865500Y-88548498D01*
X143012188Y-88548498D01*
X143012188Y-90331786D01*
X147499022Y-90331786D01*
X147499022Y-88548498D01*
X143012188Y-88548498D01*
X127865500Y-88548498D01*
X127865500Y-88125478D01*
X127882813Y-88077912D01*
X127887174Y-88073152D01*
X130138747Y-85821579D01*
X130870325Y-85090001D01*
X132009186Y-85090001D01*
X132014095Y-85142977D01*
X132014097Y-85142991D01*
X132069884Y-85339062D01*
X132069886Y-85339067D01*
X132160754Y-85521557D01*
X132160756Y-85521560D01*
X132283605Y-85684239D01*
X132283606Y-85684240D01*
X132434261Y-85821579D01*
X132607582Y-85928895D01*
X132607591Y-85928900D01*
X132797680Y-86002540D01*
X132949999Y-86031013D01*
X132950000Y-86031013D01*
X132950000Y-85312502D01*
X132974852Y-85325165D01*
X133068519Y-85340000D01*
X133131481Y-85340000D01*
X133225148Y-85325165D01*
X133250000Y-85312502D01*
X133250000Y-86031013D01*
X133402319Y-86002540D01*
X133592408Y-85928900D01*
X133592417Y-85928895D01*
X133765738Y-85821579D01*
X133765739Y-85821579D01*
X133916393Y-85684240D01*
X133916394Y-85684239D01*
X134039243Y-85521560D01*
X134039245Y-85521557D01*
X134130113Y-85339067D01*
X134130115Y-85339062D01*
X134185902Y-85142991D01*
X134185904Y-85142977D01*
X134190813Y-85090001D01*
X134190812Y-85090000D01*
X133472502Y-85090000D01*
X133485165Y-85065148D01*
X133504986Y-84940000D01*
X133485165Y-84814852D01*
X133472502Y-84790000D01*
X134190812Y-84790000D01*
X134190813Y-84789998D01*
X134185904Y-84737022D01*
X134185902Y-84737008D01*
X134130115Y-84540937D01*
X134130113Y-84540932D01*
X134039245Y-84358442D01*
X134039243Y-84358439D01*
X133916394Y-84195760D01*
X133916393Y-84195759D01*
X133765738Y-84058420D01*
X133592417Y-83951104D01*
X133592408Y-83951099D01*
X133402321Y-83877459D01*
X133250000Y-83848985D01*
X133250000Y-84567497D01*
X133225148Y-84554835D01*
X133131481Y-84540000D01*
X133068519Y-84540000D01*
X132974852Y-84554835D01*
X132950000Y-84567497D01*
X132950000Y-83848985D01*
X132949999Y-83848985D01*
X132797678Y-83877459D01*
X132607591Y-83951099D01*
X132607582Y-83951104D01*
X132434261Y-84058420D01*
X132434260Y-84058420D01*
X132283606Y-84195759D01*
X132283605Y-84195760D01*
X132160756Y-84358439D01*
X132160754Y-84358442D01*
X132069886Y-84540932D01*
X132069884Y-84540937D01*
X132014097Y-84737008D01*
X132014095Y-84737022D01*
X132009186Y-84789998D01*
X132009188Y-84790000D01*
X132727498Y-84790000D01*
X132714835Y-84814852D01*
X132695014Y-84940000D01*
X132714835Y-85065148D01*
X132727498Y-85090000D01*
X132009188Y-85090000D01*
X132009186Y-85090001D01*
X130870325Y-85090001D01*
X132621881Y-83338444D01*
X132667756Y-83317053D01*
X132709089Y-83325509D01*
X132715268Y-83328812D01*
X132715270Y-83328812D01*
X132715273Y-83328814D01*
X132903868Y-83386024D01*
X133100000Y-83405341D01*
X133296132Y-83386024D01*
X133484727Y-83328814D01*
X133658538Y-83235910D01*
X133810883Y-83110883D01*
X133935910Y-82958538D01*
X134028814Y-82784727D01*
X134086024Y-82596132D01*
X134105341Y-82400000D01*
X134086024Y-82203868D01*
X134028814Y-82015273D01*
X134028812Y-82015270D01*
X134028812Y-82015268D01*
X133977048Y-81918426D01*
X133935910Y-81841462D01*
X133810883Y-81689117D01*
X133658538Y-81564090D01*
X133484727Y-81471186D01*
X133484726Y-81471185D01*
X133478014Y-81469149D01*
X133437524Y-81438771D01*
X133425500Y-81398337D01*
X133425500Y-77924500D01*
X133442813Y-77876934D01*
X133486650Y-77851624D01*
X133499500Y-77850500D01*
X133769746Y-77850500D01*
X133769748Y-77850500D01*
X133828231Y-77838867D01*
X133894552Y-77794552D01*
X133938867Y-77728231D01*
X133950500Y-77669748D01*
X133950500Y-76415001D01*
X143858972Y-76415001D01*
X143864736Y-76477204D01*
X143864738Y-76477218D01*
X143923061Y-76682202D01*
X143923064Y-76682212D01*
X144018059Y-76872988D01*
X144018063Y-76872994D01*
X144146501Y-77043071D01*
X144304003Y-77186653D01*
X144485200Y-77298844D01*
X144485210Y-77298849D01*
X144683935Y-77375836D01*
X144849999Y-77406879D01*
X144850000Y-77406879D01*
X144850000Y-76746170D01*
X144857685Y-76749680D01*
X144964237Y-76765000D01*
X145035763Y-76765000D01*
X145142315Y-76749680D01*
X145150000Y-76746170D01*
X145150000Y-77406879D01*
X145316064Y-77375836D01*
X145514789Y-77298849D01*
X145514799Y-77298844D01*
X145695996Y-77186653D01*
X145853498Y-77043071D01*
X145981936Y-76872994D01*
X145981940Y-76872988D01*
X146076935Y-76682212D01*
X146076938Y-76682202D01*
X146135261Y-76477218D01*
X146135263Y-76477204D01*
X146141027Y-76415001D01*
X146141026Y-76415000D01*
X145477065Y-76415000D01*
X145500000Y-76336889D01*
X145500000Y-76193111D01*
X145477065Y-76115000D01*
X146141026Y-76115000D01*
X146141027Y-76114998D01*
X146135263Y-76052795D01*
X146135261Y-76052781D01*
X146076938Y-75847797D01*
X146076935Y-75847787D01*
X145981940Y-75657011D01*
X145981936Y-75657005D01*
X145853498Y-75486928D01*
X145695996Y-75343346D01*
X145514799Y-75231155D01*
X145514789Y-75231150D01*
X145316063Y-75154162D01*
X145150000Y-75123119D01*
X145150000Y-75783829D01*
X145142315Y-75780320D01*
X145035763Y-75765000D01*
X144964237Y-75765000D01*
X144857685Y-75780320D01*
X144850000Y-75783829D01*
X144850000Y-75123119D01*
X144683936Y-75154162D01*
X144485210Y-75231150D01*
X144485200Y-75231155D01*
X144304003Y-75343346D01*
X144146501Y-75486928D01*
X144018063Y-75657005D01*
X144018059Y-75657011D01*
X143923064Y-75847787D01*
X143923061Y-75847797D01*
X143864738Y-76052781D01*
X143864736Y-76052795D01*
X143858972Y-76114998D01*
X143858974Y-76115000D01*
X144522935Y-76115000D01*
X144500000Y-76193111D01*
X144500000Y-76336889D01*
X144522935Y-76415000D01*
X143858974Y-76415000D01*
X143858972Y-76415001D01*
X133950500Y-76415001D01*
X133950500Y-76330252D01*
X133938867Y-76271769D01*
X133894552Y-76205448D01*
X133867688Y-76187498D01*
X133828232Y-76161133D01*
X133828233Y-76161133D01*
X133798989Y-76155316D01*
X133769748Y-76149500D01*
X133769746Y-76149500D01*
X132689817Y-76149500D01*
X132642251Y-76132187D01*
X132616941Y-76088350D01*
X132619439Y-76052632D01*
X132620180Y-76050349D01*
X132666497Y-75907803D01*
X132685185Y-75730000D01*
X132666497Y-75552197D01*
X132618507Y-75404500D01*
X132611251Y-75382168D01*
X132611250Y-75382167D01*
X132611250Y-75382165D01*
X132560572Y-75294389D01*
X132551783Y-75244541D01*
X132577093Y-75200704D01*
X132624659Y-75183391D01*
X132668153Y-75197522D01*
X132671926Y-75200263D01*
X132672407Y-75200612D01*
X132835733Y-75273329D01*
X133010609Y-75310500D01*
X133010610Y-75310500D01*
X133189390Y-75310500D01*
X133189391Y-75310500D01*
X133364267Y-75273329D01*
X133527593Y-75200612D01*
X133551296Y-75183391D01*
X133672227Y-75095528D01*
X133672226Y-75095528D01*
X133672230Y-75095526D01*
X133791859Y-74962665D01*
X133794243Y-74958537D01*
X133872783Y-74822500D01*
X133911559Y-74789963D01*
X133936869Y-74785500D01*
X137225500Y-74785500D01*
X137273066Y-74802813D01*
X137298376Y-74846650D01*
X137299500Y-74859500D01*
X137299500Y-75219746D01*
X137311133Y-75278232D01*
X137321931Y-75294391D01*
X137355448Y-75344552D01*
X137389792Y-75367500D01*
X137421767Y-75388866D01*
X137421768Y-75388866D01*
X137421769Y-75388867D01*
X137480252Y-75400500D01*
X137480254Y-75400500D01*
X139119746Y-75400500D01*
X139119748Y-75400500D01*
X139178231Y-75388867D01*
X139244552Y-75344552D01*
X139288867Y-75278231D01*
X139300500Y-75219748D01*
X139300500Y-74947906D01*
X139317813Y-74900340D01*
X139361650Y-74875030D01*
X139411500Y-74883820D01*
X139439762Y-74913023D01*
X139464088Y-74958536D01*
X139464090Y-74958538D01*
X139589117Y-75110883D01*
X139741462Y-75235910D01*
X139811466Y-75273328D01*
X139915268Y-75328812D01*
X139915270Y-75328812D01*
X139915273Y-75328814D01*
X140103868Y-75386024D01*
X140300000Y-75405341D01*
X140496132Y-75386024D01*
X140684727Y-75328814D01*
X140858538Y-75235910D01*
X141010883Y-75110883D01*
X141135910Y-74958538D01*
X141228814Y-74784727D01*
X141230848Y-74778018D01*
X141261222Y-74737527D01*
X141301662Y-74725500D01*
X143991902Y-74725500D01*
X144033015Y-74737972D01*
X144071767Y-74763866D01*
X144071768Y-74763866D01*
X144071769Y-74763867D01*
X144130252Y-74775500D01*
X144130254Y-74775500D01*
X145869746Y-74775500D01*
X145869748Y-74775500D01*
X145928231Y-74763867D01*
X145994552Y-74719552D01*
X146038867Y-74653231D01*
X146050500Y-74594748D01*
X146050500Y-72855252D01*
X146038867Y-72796769D01*
X145994552Y-72730448D01*
X145969900Y-72713976D01*
X145928232Y-72686133D01*
X145928233Y-72686133D01*
X145898989Y-72680316D01*
X145869748Y-72674500D01*
X144130252Y-72674500D01*
X144101010Y-72680316D01*
X144071767Y-72686133D01*
X144005449Y-72730447D01*
X144005447Y-72730449D01*
X143961133Y-72796767D01*
X143949500Y-72855253D01*
X143949500Y-74000500D01*
X143932187Y-74048066D01*
X143888350Y-74073376D01*
X143875500Y-74074500D01*
X141301662Y-74074500D01*
X141254096Y-74057187D01*
X141230848Y-74021981D01*
X141228814Y-74015273D01*
X141135910Y-73841462D01*
X141010883Y-73689117D01*
X140858538Y-73564090D01*
X140848597Y-73558776D01*
X140684731Y-73471187D01*
X140496133Y-73413976D01*
X140300000Y-73394659D01*
X140103866Y-73413976D01*
X139915268Y-73471187D01*
X139741463Y-73564089D01*
X139589117Y-73689117D01*
X139464089Y-73841463D01*
X139439762Y-73886976D01*
X139402071Y-73920765D01*
X139351479Y-73922421D01*
X139311659Y-73891170D01*
X139300500Y-73852093D01*
X139300500Y-73580253D01*
X139291724Y-73536133D01*
X139288867Y-73521769D01*
X139244552Y-73455448D01*
X139222343Y-73440608D01*
X139178232Y-73411133D01*
X139178233Y-73411133D01*
X139148989Y-73405316D01*
X139119748Y-73399500D01*
X137480252Y-73399500D01*
X137451010Y-73405316D01*
X137421767Y-73411133D01*
X137355449Y-73455447D01*
X137355447Y-73455449D01*
X137311133Y-73521767D01*
X137299500Y-73580253D01*
X137299500Y-74060500D01*
X137282187Y-74108066D01*
X137238350Y-74133376D01*
X137225500Y-74134500D01*
X133936869Y-74134500D01*
X133889303Y-74117187D01*
X133872783Y-74097500D01*
X133791861Y-73957337D01*
X133791858Y-73957334D01*
X133736751Y-73896132D01*
X133672230Y-73824474D01*
X133672229Y-73824473D01*
X133672227Y-73824471D01*
X133527596Y-73719389D01*
X133527591Y-73719386D01*
X133469401Y-73693478D01*
X133432989Y-73658315D01*
X133425500Y-73625876D01*
X133425500Y-70996662D01*
X133442813Y-70949096D01*
X133478018Y-70925848D01*
X133484727Y-70923814D01*
X133658538Y-70830910D01*
X133810883Y-70705883D01*
X133935910Y-70553538D01*
X134028814Y-70379727D01*
X134086024Y-70191132D01*
X134105341Y-69995000D01*
X134086024Y-69798868D01*
X134028814Y-69610273D01*
X134028812Y-69610270D01*
X134028812Y-69610268D01*
X133977048Y-69513426D01*
X133935910Y-69436462D01*
X133810883Y-69284117D01*
X133658538Y-69159090D01*
X133648597Y-69153776D01*
X133484731Y-69066187D01*
X133296133Y-69008976D01*
X133100000Y-68989659D01*
X132903866Y-69008976D01*
X132715268Y-69066187D01*
X132541463Y-69159089D01*
X132389117Y-69284117D01*
X132264089Y-69436463D01*
X132171187Y-69610268D01*
X132113976Y-69798866D01*
X132094659Y-69995000D01*
X132113976Y-70191133D01*
X132171187Y-70379731D01*
X132258776Y-70543597D01*
X132264090Y-70553538D01*
X132389117Y-70705883D01*
X132541462Y-70830910D01*
X132715269Y-70923812D01*
X132715270Y-70923812D01*
X132715273Y-70923814D01*
X132721981Y-70925848D01*
X132762473Y-70956222D01*
X132774500Y-70996662D01*
X132774500Y-73625877D01*
X132757187Y-73673443D01*
X132730599Y-73693479D01*
X132672409Y-73719386D01*
X132672404Y-73719389D01*
X132527772Y-73824471D01*
X132408141Y-73957334D01*
X132408138Y-73957337D01*
X132318748Y-74112168D01*
X132263504Y-74282191D01*
X132263503Y-74282195D01*
X132263503Y-74282197D01*
X132244815Y-74460000D01*
X132262558Y-74628814D01*
X132263504Y-74637808D01*
X132318748Y-74807831D01*
X132369426Y-74895608D01*
X132378216Y-74945458D01*
X132352906Y-74989295D01*
X132305340Y-75006608D01*
X132261848Y-74992478D01*
X132257600Y-74989392D01*
X132257592Y-74989387D01*
X132094268Y-74916671D01*
X132094266Y-74916670D01*
X131939715Y-74883820D01*
X131919391Y-74879500D01*
X131740609Y-74879500D01*
X131720285Y-74883820D01*
X131565733Y-74916670D01*
X131565731Y-74916671D01*
X131402408Y-74989387D01*
X131402401Y-74989391D01*
X131257772Y-75094471D01*
X131138141Y-75227334D01*
X131138138Y-75227337D01*
X131057217Y-75367500D01*
X131018441Y-75400037D01*
X130993131Y-75404500D01*
X127647441Y-75404500D01*
X127640991Y-75404218D01*
X127638431Y-75403994D01*
X127601194Y-75400735D01*
X127601191Y-75400735D01*
X127562591Y-75411077D01*
X127556296Y-75412473D01*
X127516952Y-75419412D01*
X127516951Y-75419412D01*
X127512790Y-75421815D01*
X127494959Y-75429201D01*
X127490317Y-75430445D01*
X127490312Y-75430447D01*
X127457590Y-75453359D01*
X127452150Y-75456825D01*
X127417548Y-75476804D01*
X127417543Y-75476807D01*
X127391865Y-75507409D01*
X127387505Y-75512167D01*
X126451826Y-76447847D01*
X126405950Y-76469239D01*
X126357055Y-76456138D01*
X126328021Y-76414674D01*
X126325500Y-76395521D01*
X126325500Y-74341662D01*
X126342813Y-74294096D01*
X126378018Y-74270848D01*
X126384727Y-74268814D01*
X126558538Y-74175910D01*
X126710883Y-74050883D01*
X126835910Y-73898538D01*
X126928814Y-73724727D01*
X126986024Y-73536132D01*
X127005341Y-73340000D01*
X126986024Y-73143868D01*
X126928814Y-72955273D01*
X126928812Y-72955270D01*
X126928812Y-72955268D01*
X126875352Y-72855252D01*
X126835910Y-72781462D01*
X126710883Y-72629117D01*
X126558538Y-72504090D01*
X126548597Y-72498776D01*
X126384731Y-72411187D01*
X126196133Y-72353976D01*
X126000000Y-72334659D01*
X125803866Y-72353976D01*
X125615268Y-72411187D01*
X125441463Y-72504089D01*
X125289117Y-72629117D01*
X125164089Y-72781463D01*
X125071187Y-72955268D01*
X125013976Y-73143866D01*
X124994659Y-73340000D01*
X125013976Y-73536133D01*
X125071187Y-73724731D01*
X125157910Y-73886976D01*
X125164090Y-73898538D01*
X125289117Y-74050883D01*
X125441462Y-74175910D01*
X125615269Y-74268812D01*
X125615270Y-74268812D01*
X125615273Y-74268814D01*
X125621981Y-74270848D01*
X125662473Y-74301222D01*
X125674500Y-74341662D01*
X125674500Y-77194521D01*
X125657187Y-77242087D01*
X125652826Y-77246847D01*
X125361628Y-77538044D01*
X125315751Y-77559436D01*
X125279206Y-77553321D01*
X125264270Y-77546671D01*
X125264265Y-77546670D01*
X125136594Y-77519533D01*
X125089391Y-77509500D01*
X124910609Y-77509500D01*
X124889551Y-77513976D01*
X124735733Y-77546670D01*
X124735731Y-77546671D01*
X124572408Y-77619387D01*
X124572401Y-77619391D01*
X124427772Y-77724471D01*
X124308141Y-77857334D01*
X124308138Y-77857337D01*
X124218748Y-78012167D01*
X124199878Y-78070245D01*
X124168714Y-78110133D01*
X124119201Y-78120657D01*
X124074507Y-78096892D01*
X124055545Y-78049959D01*
X124055500Y-78047377D01*
X124055500Y-76447440D01*
X124055782Y-76440989D01*
X124059264Y-76401193D01*
X124049707Y-76365528D01*
X124048920Y-76362593D01*
X124047525Y-76356298D01*
X124044103Y-76336889D01*
X124040588Y-76316955D01*
X124038186Y-76312795D01*
X124030795Y-76294949D01*
X124029554Y-76290316D01*
X124018867Y-76275054D01*
X124006641Y-76257593D01*
X124003172Y-76252148D01*
X123983193Y-76217543D01*
X123952584Y-76191859D01*
X123947824Y-76187498D01*
X119022174Y-71261848D01*
X119000782Y-71215972D01*
X119000500Y-71209522D01*
X119000500Y-69880253D01*
X118998697Y-69871187D01*
X118988867Y-69821769D01*
X118944552Y-69755448D01*
X118922343Y-69740608D01*
X118878232Y-69711133D01*
X118878233Y-69711133D01*
X118848989Y-69705316D01*
X118819748Y-69699500D01*
X117180252Y-69699500D01*
X117151010Y-69705316D01*
X117121767Y-69711133D01*
X117055449Y-69755447D01*
X117055447Y-69755449D01*
X117011133Y-69821767D01*
X117011133Y-69821769D01*
X116999500Y-69880252D01*
X116999500Y-71519748D01*
X111236391Y-71519748D01*
X111286024Y-71356132D01*
X111305341Y-71160000D01*
X111286024Y-70963868D01*
X111228814Y-70775273D01*
X111228812Y-70775270D01*
X111228812Y-70775268D01*
X111137196Y-70603868D01*
X111135910Y-70601462D01*
X111010883Y-70449117D01*
X110858538Y-70324090D01*
X110684727Y-70231186D01*
X110684726Y-70231185D01*
X110678014Y-70229149D01*
X110637524Y-70198771D01*
X110625500Y-70158337D01*
X110625500Y-67301662D01*
X110642813Y-67254096D01*
X110678018Y-67230848D01*
X110684727Y-67228814D01*
X110858538Y-67135910D01*
X111010883Y-67010883D01*
X111135910Y-66858538D01*
X111228814Y-66684727D01*
X111286024Y-66496132D01*
X111305341Y-66300000D01*
X111286024Y-66103868D01*
X111228814Y-65915273D01*
X111228812Y-65915270D01*
X111228812Y-65915268D01*
X111177048Y-65818426D01*
X111135910Y-65741462D01*
X111010883Y-65589117D01*
X110858538Y-65464090D01*
X110833278Y-65450588D01*
X110684731Y-65371187D01*
X110496133Y-65313976D01*
X110300000Y-65294659D01*
X110103866Y-65313976D01*
X109915268Y-65371187D01*
X109741463Y-65464089D01*
X109589117Y-65589117D01*
X109464089Y-65741463D01*
X109371187Y-65915268D01*
X109313976Y-66103866D01*
X109294659Y-66300000D01*
X109313976Y-66496133D01*
X109371187Y-66684731D01*
X109458776Y-66848597D01*
X109464090Y-66858538D01*
X109589117Y-67010883D01*
X109741462Y-67135910D01*
X109915269Y-67228812D01*
X109915270Y-67228812D01*
X109915273Y-67228814D01*
X109921981Y-67230848D01*
X109962473Y-67261222D01*
X109974500Y-67301662D01*
X109974500Y-70158337D01*
X109957187Y-70205903D01*
X109921986Y-70229149D01*
X109915273Y-70231185D01*
X109915270Y-70231187D01*
X109741463Y-70324089D01*
X109589117Y-70449117D01*
X109464089Y-70601463D01*
X109371187Y-70775268D01*
X109313976Y-70963866D01*
X109294659Y-71160000D01*
X100000500Y-71160000D01*
X100000500Y-66300003D01*
X104195287Y-66300003D01*
X104214095Y-66502984D01*
X104269884Y-66699062D01*
X104269886Y-66699067D01*
X104360754Y-66881557D01*
X104360756Y-66881560D01*
X104423379Y-66964486D01*
X104930997Y-66456868D01*
X104972359Y-66538045D01*
X105061955Y-66627641D01*
X105143129Y-66669001D01*
X104632320Y-67179810D01*
X104634255Y-67181575D01*
X104634258Y-67181577D01*
X104807582Y-67288895D01*
X104807591Y-67288900D01*
X104997679Y-67362540D01*
X105198066Y-67399999D01*
X105198072Y-67400000D01*
X105401928Y-67400000D01*
X105401933Y-67399999D01*
X105602320Y-67362540D01*
X105792408Y-67288900D01*
X105792417Y-67288895D01*
X105965738Y-67181579D01*
X105967677Y-67179810D01*
X105967677Y-67179809D01*
X105456869Y-66669001D01*
X105538045Y-66627641D01*
X105627641Y-66538045D01*
X105669001Y-66456869D01*
X106176619Y-66964487D01*
X106239243Y-66881559D01*
X106239245Y-66881557D01*
X106330113Y-66699067D01*
X106330115Y-66699062D01*
X106385904Y-66502984D01*
X106404713Y-66300003D01*
X106404713Y-66299996D01*
X106385904Y-66097015D01*
X106330115Y-65900937D01*
X106330113Y-65900932D01*
X106239245Y-65718442D01*
X106239243Y-65718439D01*
X106176618Y-65635511D01*
X105669001Y-66143129D01*
X105627641Y-66061955D01*
X105538045Y-65972359D01*
X105456868Y-65930997D01*
X105967677Y-65420189D01*
X105965736Y-65418418D01*
X105792417Y-65311104D01*
X105792408Y-65311099D01*
X105602320Y-65237459D01*
X105401933Y-65200000D01*
X105198066Y-65200000D01*
X104997679Y-65237459D01*
X104807591Y-65311099D01*
X104807582Y-65311104D01*
X104634262Y-65418419D01*
X104634262Y-65418420D01*
X104632321Y-65420188D01*
X105143130Y-65930998D01*
X105061955Y-65972359D01*
X104972359Y-66061955D01*
X104930998Y-66143130D01*
X104423379Y-65635511D01*
X104360754Y-65718443D01*
X104360753Y-65718445D01*
X104269886Y-65900932D01*
X104269884Y-65900937D01*
X104214095Y-66097015D01*
X104195287Y-66299996D01*
X104195287Y-66300003D01*
X100000500Y-66300003D01*
X100000500Y-61900003D01*
X115677667Y-61900003D01*
X115696475Y-62102984D01*
X115752264Y-62299062D01*
X115752266Y-62299067D01*
X115843134Y-62481557D01*
X115843136Y-62481560D01*
X115905759Y-62564486D01*
X116413377Y-62056868D01*
X116454739Y-62138045D01*
X116544335Y-62227641D01*
X116625509Y-62269001D01*
X116114700Y-62779810D01*
X116116635Y-62781575D01*
X116116638Y-62781577D01*
X116289962Y-62888895D01*
X116289971Y-62888900D01*
X116480059Y-62962540D01*
X116680446Y-62999999D01*
X116680452Y-63000000D01*
X116884308Y-63000000D01*
X116884313Y-62999999D01*
X117084700Y-62962540D01*
X117274788Y-62888900D01*
X117274797Y-62888895D01*
X117448118Y-62781579D01*
X117450057Y-62779810D01*
X117450057Y-62779809D01*
X117389996Y-62719748D01*
X118281880Y-62719748D01*
X118289635Y-62758736D01*
X118293513Y-62778232D01*
X118305474Y-62796132D01*
X118337828Y-62844552D01*
X118380654Y-62873168D01*
X118404147Y-62888866D01*
X118404148Y-62888866D01*
X118404149Y-62888867D01*
X118462632Y-62900500D01*
X119791902Y-62900500D01*
X119839468Y-62917813D01*
X119844228Y-62922174D01*
X122279885Y-65357831D01*
X122284246Y-65362591D01*
X122309925Y-65393194D01*
X122344528Y-65413172D01*
X122349970Y-65416639D01*
X122355040Y-65420189D01*
X122382694Y-65439553D01*
X122382696Y-65439554D01*
X122387329Y-65440795D01*
X122405175Y-65448186D01*
X122409335Y-65450588D01*
X122439008Y-65455820D01*
X122448677Y-65457525D01*
X122454978Y-65458922D01*
X122493573Y-65469264D01*
X122533371Y-65465781D01*
X122539821Y-65465500D01*
X124998338Y-65465500D01*
X125045904Y-65482813D01*
X125069151Y-65518018D01*
X125071186Y-65524727D01*
X125071187Y-65524730D01*
X125071188Y-65524731D01*
X125164090Y-65698538D01*
X125289117Y-65850883D01*
X125441462Y-65975910D01*
X125615269Y-66068812D01*
X125615270Y-66068812D01*
X125615273Y-66068814D01*
X125621981Y-66070848D01*
X125662473Y-66101222D01*
X125674500Y-66141662D01*
X125674500Y-69798337D01*
X125657187Y-69845903D01*
X125621986Y-69869149D01*
X125615273Y-69871185D01*
X125615270Y-69871187D01*
X125441463Y-69964089D01*
X125289117Y-70089117D01*
X125164089Y-70241463D01*
X125071187Y-70415268D01*
X125013976Y-70603866D01*
X124994659Y-70800000D01*
X125013976Y-70996133D01*
X125071187Y-71184731D01*
X125158776Y-71348597D01*
X125164090Y-71358538D01*
X125289117Y-71510883D01*
X125441462Y-71635910D01*
X125518426Y-71677048D01*
X125615268Y-71728812D01*
X125615270Y-71728812D01*
X125615273Y-71728814D01*
X125803868Y-71786024D01*
X126000000Y-71805341D01*
X126196132Y-71786024D01*
X126384727Y-71728814D01*
X126558538Y-71635910D01*
X126710883Y-71510883D01*
X126835910Y-71358538D01*
X126928814Y-71184727D01*
X126986024Y-70996132D01*
X127005341Y-70800000D01*
X126986024Y-70603868D01*
X126928814Y-70415273D01*
X126928812Y-70415270D01*
X126928812Y-70415268D01*
X126877048Y-70318426D01*
X126835910Y-70241462D01*
X126710883Y-70089117D01*
X126558538Y-69964090D01*
X126384727Y-69871186D01*
X126384726Y-69871185D01*
X126378014Y-69869149D01*
X126337524Y-69838771D01*
X126325500Y-69798337D01*
X126325500Y-67455000D01*
X132094659Y-67455000D01*
X132113976Y-67651133D01*
X132171187Y-67839731D01*
X132258776Y-68003597D01*
X132264090Y-68013538D01*
X132389117Y-68165883D01*
X132541462Y-68290910D01*
X132618426Y-68332048D01*
X132715268Y-68383812D01*
X132715270Y-68383812D01*
X132715273Y-68383814D01*
X132903868Y-68441024D01*
X133100000Y-68460341D01*
X133296132Y-68441024D01*
X133484727Y-68383814D01*
X133658538Y-68290910D01*
X133810883Y-68165883D01*
X133935910Y-68013538D01*
X134028814Y-67839727D01*
X134086024Y-67651132D01*
X134105341Y-67455000D01*
X134086024Y-67258868D01*
X134028814Y-67070273D01*
X134028812Y-67070270D01*
X134028812Y-67070268D01*
X133972270Y-66964486D01*
X133935910Y-66896462D01*
X133810883Y-66744117D01*
X133658538Y-66619090D01*
X133484727Y-66526186D01*
X133484726Y-66526185D01*
X133478014Y-66524149D01*
X133437524Y-66493771D01*
X133425500Y-66453337D01*
X133425500Y-63341662D01*
X133442813Y-63294096D01*
X133478018Y-63270848D01*
X133484727Y-63268814D01*
X133658538Y-63175910D01*
X133810883Y-63050883D01*
X133935910Y-62898538D01*
X134028814Y-62724727D01*
X134030848Y-62718018D01*
X134061222Y-62677527D01*
X134101662Y-62665500D01*
X137374522Y-62665500D01*
X137422088Y-62682813D01*
X137426848Y-62687174D01*
X137777826Y-63038152D01*
X137799218Y-63084028D01*
X137799500Y-63090478D01*
X137799500Y-64419746D01*
X137811133Y-64478232D01*
X137840608Y-64522343D01*
X137855448Y-64544552D01*
X137899560Y-64574027D01*
X137921767Y-64588866D01*
X137921768Y-64588866D01*
X137921769Y-64588867D01*
X137980252Y-64600500D01*
X137980254Y-64600500D01*
X139619746Y-64600500D01*
X139619748Y-64600500D01*
X139678231Y-64588867D01*
X139744552Y-64544552D01*
X139788867Y-64478231D01*
X139800500Y-64419748D01*
X139800500Y-63600003D01*
X140195287Y-63600003D01*
X140214095Y-63802984D01*
X140269884Y-63999062D01*
X140269886Y-63999067D01*
X140360754Y-64181557D01*
X140360756Y-64181560D01*
X140423379Y-64264486D01*
X140930997Y-63756868D01*
X140972359Y-63838045D01*
X141061955Y-63927641D01*
X141143129Y-63969001D01*
X140632320Y-64479810D01*
X140634255Y-64481575D01*
X140634258Y-64481577D01*
X140807582Y-64588895D01*
X140807591Y-64588900D01*
X140997679Y-64662540D01*
X141198066Y-64699999D01*
X141198072Y-64700000D01*
X141401928Y-64700000D01*
X141401933Y-64699999D01*
X141602320Y-64662540D01*
X141792408Y-64588900D01*
X141792417Y-64588895D01*
X141965738Y-64481579D01*
X141967677Y-64479810D01*
X141967677Y-64479809D01*
X141456869Y-63969001D01*
X141538045Y-63927641D01*
X141627641Y-63838045D01*
X141669001Y-63756869D01*
X142176619Y-64264487D01*
X142239243Y-64181559D01*
X142239245Y-64181557D01*
X142330113Y-63999067D01*
X142330115Y-63999062D01*
X142385904Y-63802984D01*
X142404713Y-63600003D01*
X142404713Y-63599996D01*
X142385904Y-63397015D01*
X142330115Y-63200937D01*
X142330113Y-63200932D01*
X142239245Y-63018442D01*
X142239243Y-63018439D01*
X142176618Y-62935511D01*
X141669001Y-63443129D01*
X141627641Y-63361955D01*
X141538045Y-63272359D01*
X141456868Y-63230997D01*
X141967677Y-62720189D01*
X141965736Y-62718418D01*
X141792417Y-62611104D01*
X141792408Y-62611099D01*
X141602320Y-62537459D01*
X141401933Y-62500000D01*
X141198066Y-62500000D01*
X140997679Y-62537459D01*
X140807591Y-62611099D01*
X140807582Y-62611104D01*
X140634262Y-62718419D01*
X140634262Y-62718420D01*
X140632321Y-62720188D01*
X141143130Y-63230998D01*
X141061955Y-63272359D01*
X140972359Y-63361955D01*
X140930998Y-63443130D01*
X140423379Y-62935511D01*
X140360754Y-63018443D01*
X140360753Y-63018445D01*
X140269886Y-63200932D01*
X140269884Y-63200937D01*
X140214095Y-63397015D01*
X140195287Y-63599996D01*
X140195287Y-63600003D01*
X139800500Y-63600003D01*
X139800500Y-62780252D01*
X139788867Y-62721769D01*
X139787811Y-62720189D01*
X139759305Y-62677527D01*
X139744552Y-62655448D01*
X139722343Y-62640608D01*
X139678232Y-62611133D01*
X139678233Y-62611133D01*
X139648989Y-62605316D01*
X139619748Y-62599500D01*
X139619746Y-62599500D01*
X138290478Y-62599500D01*
X138242912Y-62582187D01*
X138238152Y-62577826D01*
X137782499Y-62122173D01*
X137778138Y-62117414D01*
X137773706Y-62112132D01*
X137752455Y-62086806D01*
X137717855Y-62066829D01*
X137712414Y-62063362D01*
X137679685Y-62040446D01*
X137679682Y-62040445D01*
X137675047Y-62039203D01*
X137657200Y-62031811D01*
X137653044Y-62029411D01*
X137613703Y-62022473D01*
X137607406Y-62021077D01*
X137568806Y-62010735D01*
X137568805Y-62010735D01*
X137531388Y-62014009D01*
X137529008Y-62014218D01*
X137522559Y-62014500D01*
X134101662Y-62014500D01*
X134054096Y-61997187D01*
X134030848Y-61961981D01*
X134028814Y-61955273D01*
X133935910Y-61781462D01*
X133810883Y-61629117D01*
X133658538Y-61504090D01*
X133648597Y-61498776D01*
X133484731Y-61411187D01*
X133296133Y-61353976D01*
X133100000Y-61334659D01*
X132903866Y-61353976D01*
X132715268Y-61411187D01*
X132541463Y-61504089D01*
X132389117Y-61629117D01*
X132264089Y-61781463D01*
X132171187Y-61955268D01*
X132113976Y-62143866D01*
X132094659Y-62340000D01*
X132113976Y-62536133D01*
X132171187Y-62724731D01*
X132239853Y-62853194D01*
X132264090Y-62898538D01*
X132389117Y-63050883D01*
X132541462Y-63175910D01*
X132715269Y-63268812D01*
X132715270Y-63268812D01*
X132715273Y-63268814D01*
X132721981Y-63270848D01*
X132762473Y-63301222D01*
X132774500Y-63341662D01*
X132774500Y-66453337D01*
X132757187Y-66500903D01*
X132721986Y-66524149D01*
X132715273Y-66526185D01*
X132715270Y-66526187D01*
X132541463Y-66619089D01*
X132389117Y-66744117D01*
X132264089Y-66896463D01*
X132171187Y-67070268D01*
X132113976Y-67258866D01*
X132094659Y-67455000D01*
X126325500Y-67455000D01*
X126325500Y-66141662D01*
X126342813Y-66094096D01*
X126378018Y-66070848D01*
X126384727Y-66068814D01*
X126558538Y-65975910D01*
X126710883Y-65850883D01*
X126835910Y-65698538D01*
X126928814Y-65524727D01*
X126986024Y-65336132D01*
X127005341Y-65140000D01*
X126986024Y-64943868D01*
X126928814Y-64755273D01*
X126928812Y-64755269D01*
X126928812Y-64755268D01*
X126846086Y-64600500D01*
X126835910Y-64581462D01*
X126710883Y-64429117D01*
X126558538Y-64304090D01*
X126548597Y-64298776D01*
X126384731Y-64211187D01*
X126196133Y-64153976D01*
X126000000Y-64134659D01*
X125803866Y-64153976D01*
X125615268Y-64211187D01*
X125441463Y-64304089D01*
X125289117Y-64429117D01*
X125164089Y-64581463D01*
X125071187Y-64755269D01*
X125071186Y-64755273D01*
X125069151Y-64761981D01*
X125038778Y-64802473D01*
X124998338Y-64814500D01*
X122687858Y-64814500D01*
X122640292Y-64797187D01*
X122635532Y-64792826D01*
X120304554Y-62461848D01*
X120283162Y-62415972D01*
X120282880Y-62409522D01*
X120282880Y-61080253D01*
X120282880Y-61080252D01*
X120271247Y-61021769D01*
X120270191Y-61020189D01*
X120256407Y-60999560D01*
X120226932Y-60955448D01*
X120204723Y-60940608D01*
X120160612Y-60911133D01*
X120160613Y-60911133D01*
X120131369Y-60905316D01*
X120102128Y-60899500D01*
X118462632Y-60899500D01*
X118433390Y-60905316D01*
X118404147Y-60911133D01*
X118337829Y-60955447D01*
X118337827Y-60955449D01*
X118293513Y-61021767D01*
X118293513Y-61021769D01*
X118281880Y-61080252D01*
X118281880Y-62719748D01*
X117389996Y-62719748D01*
X116939249Y-62269001D01*
X117020425Y-62227641D01*
X117110021Y-62138045D01*
X117151381Y-62056869D01*
X117658999Y-62564487D01*
X117721623Y-62481559D01*
X117721625Y-62481557D01*
X117812493Y-62299067D01*
X117812495Y-62299062D01*
X117868284Y-62102984D01*
X117887093Y-61900003D01*
X117887093Y-61899996D01*
X117868284Y-61697015D01*
X117812495Y-61500937D01*
X117812493Y-61500932D01*
X117721625Y-61318442D01*
X117721623Y-61318439D01*
X117658998Y-61235511D01*
X117151381Y-61743129D01*
X117110021Y-61661955D01*
X117020425Y-61572359D01*
X116939248Y-61530997D01*
X117450057Y-61020189D01*
X117448116Y-61018418D01*
X117274797Y-60911104D01*
X117274788Y-60911099D01*
X117084700Y-60837459D01*
X116884313Y-60800000D01*
X116680446Y-60800000D01*
X116480059Y-60837459D01*
X116289971Y-60911099D01*
X116289962Y-60911104D01*
X116116642Y-61018419D01*
X116116642Y-61018420D01*
X116114701Y-61020188D01*
X116625510Y-61530998D01*
X116544335Y-61572359D01*
X116454739Y-61661955D01*
X116413378Y-61743130D01*
X115905759Y-61235511D01*
X115843134Y-61318443D01*
X115843133Y-61318445D01*
X115752266Y-61500932D01*
X115752264Y-61500937D01*
X115696475Y-61697015D01*
X115677667Y-61899996D01*
X115677667Y-61900003D01*
X100000500Y-61900003D01*
X100000500Y-55000000D01*
X101495197Y-55000000D01*
X101514397Y-55366355D01*
X101514397Y-55366356D01*
X101571783Y-55728683D01*
X101666735Y-56083046D01*
X101798201Y-56425527D01*
X101798205Y-56425538D01*
X101964746Y-56752393D01*
X102164556Y-57060073D01*
X102395426Y-57345173D01*
X102419060Y-57368807D01*
X103055141Y-56732725D01*
X103067449Y-56794601D01*
X103122704Y-56877296D01*
X103205399Y-56932551D01*
X103267272Y-56944858D01*
X102631192Y-57580939D01*
X102654826Y-57604573D01*
X102939926Y-57835443D01*
X103247606Y-58035253D01*
X103574461Y-58201794D01*
X103574472Y-58201798D01*
X103916953Y-58333264D01*
X104271316Y-58428216D01*
X104633643Y-58485602D01*
X105000000Y-58504802D01*
X105366355Y-58485602D01*
X105366356Y-58485602D01*
X105728683Y-58428216D01*
X106083046Y-58333264D01*
X106425527Y-58201798D01*
X106425538Y-58201794D01*
X106752393Y-58035253D01*
X107060073Y-57835443D01*
X107345173Y-57604573D01*
X107368806Y-57580938D01*
X106732726Y-56944858D01*
X106794601Y-56932551D01*
X106877296Y-56877296D01*
X106932551Y-56794601D01*
X106944858Y-56732726D01*
X107580938Y-57368806D01*
X107604573Y-57345173D01*
X107835443Y-57060073D01*
X108035253Y-56752393D01*
X108201794Y-56425538D01*
X108201798Y-56425527D01*
X108333264Y-56083046D01*
X108390418Y-55869746D01*
X122674500Y-55869746D01*
X122686133Y-55928232D01*
X122696245Y-55943365D01*
X122730448Y-55994552D01*
X122774560Y-56024027D01*
X122796767Y-56038866D01*
X122796768Y-56038866D01*
X122796769Y-56038867D01*
X122855252Y-56050500D01*
X123325500Y-56050500D01*
X123373066Y-56067813D01*
X123398376Y-56111650D01*
X123399500Y-56124500D01*
X123399500Y-60307558D01*
X123399218Y-60314009D01*
X123395735Y-60353805D01*
X123395735Y-60353806D01*
X123406077Y-60392406D01*
X123407473Y-60398703D01*
X123414411Y-60438044D01*
X123416811Y-60442200D01*
X123424203Y-60460047D01*
X123425445Y-60464682D01*
X123425446Y-60464685D01*
X123448362Y-60497414D01*
X123451829Y-60502855D01*
X123471806Y-60537455D01*
X123471807Y-60537456D01*
X123471808Y-60537457D01*
X123502408Y-60563133D01*
X123507169Y-60567495D01*
X125061554Y-62121880D01*
X125082946Y-62167756D01*
X125074493Y-62209084D01*
X125071188Y-62215268D01*
X125071188Y-62215269D01*
X125071186Y-62215273D01*
X125053305Y-62274218D01*
X125013976Y-62403866D01*
X124994659Y-62600000D01*
X125013976Y-62796133D01*
X125071187Y-62984731D01*
X125127711Y-63090478D01*
X125164090Y-63158538D01*
X125289117Y-63310883D01*
X125441462Y-63435910D01*
X125514317Y-63474852D01*
X125615268Y-63528812D01*
X125615270Y-63528812D01*
X125615273Y-63528814D01*
X125803868Y-63586024D01*
X126000000Y-63605341D01*
X126196132Y-63586024D01*
X126384727Y-63528814D01*
X126558538Y-63435910D01*
X126710883Y-63310883D01*
X126835910Y-63158538D01*
X126928814Y-62984727D01*
X126930848Y-62978018D01*
X126961222Y-62937527D01*
X127001662Y-62925500D01*
X130282559Y-62925500D01*
X130289008Y-62925781D01*
X130300916Y-62926823D01*
X130328805Y-62929264D01*
X130328805Y-62929263D01*
X130328807Y-62929264D01*
X130367413Y-62918918D01*
X130373703Y-62917524D01*
X130413045Y-62910588D01*
X130417194Y-62908191D01*
X130435055Y-62900794D01*
X130439684Y-62899554D01*
X130472410Y-62876638D01*
X130477844Y-62873175D01*
X130512455Y-62853194D01*
X130538150Y-62822570D01*
X130542490Y-62817834D01*
X132621880Y-60738444D01*
X132667755Y-60717053D01*
X132709088Y-60725509D01*
X132715261Y-60728808D01*
X132715264Y-60728809D01*
X132715273Y-60728814D01*
X132903868Y-60786024D01*
X133100000Y-60805341D01*
X133296132Y-60786024D01*
X133484727Y-60728814D01*
X133658538Y-60635910D01*
X133810883Y-60510883D01*
X133935910Y-60358538D01*
X134028814Y-60184727D01*
X134086024Y-59996132D01*
X134105341Y-59800000D01*
X134086024Y-59603868D01*
X134028814Y-59415273D01*
X134028812Y-59415270D01*
X134028812Y-59415268D01*
X133977048Y-59318426D01*
X133935910Y-59241462D01*
X133810883Y-59089117D01*
X133658538Y-58964090D01*
X133648597Y-58958776D01*
X133484731Y-58871187D01*
X133296133Y-58813976D01*
X133100000Y-58794659D01*
X132903866Y-58813976D01*
X132715268Y-58871187D01*
X132541463Y-58964089D01*
X132389117Y-59089117D01*
X132264089Y-59241463D01*
X132171187Y-59415268D01*
X132113976Y-59603866D01*
X132094659Y-59800000D01*
X132113976Y-59996133D01*
X132171187Y-60184731D01*
X132174490Y-60190909D01*
X132181644Y-60241019D01*
X132161554Y-60278118D01*
X130186848Y-62252826D01*
X130140972Y-62274218D01*
X130134522Y-62274500D01*
X127001662Y-62274500D01*
X126954096Y-62257187D01*
X126930848Y-62221981D01*
X126928814Y-62215273D01*
X126835910Y-62041462D01*
X126710883Y-61889117D01*
X126558538Y-61764090D01*
X126548597Y-61758776D01*
X126384731Y-61671187D01*
X126196133Y-61613976D01*
X126000000Y-61594659D01*
X125803866Y-61613976D01*
X125698887Y-61645821D01*
X125615273Y-61671186D01*
X125615270Y-61671187D01*
X125615268Y-61671188D01*
X125609084Y-61674493D01*
X125558972Y-61681643D01*
X125521880Y-61661554D01*
X124072174Y-60211848D01*
X124050782Y-60165972D01*
X124050500Y-60159522D01*
X124050500Y-56124500D01*
X124067813Y-56076934D01*
X124111650Y-56051624D01*
X124124500Y-56050500D01*
X124594746Y-56050500D01*
X124594748Y-56050500D01*
X124653231Y-56038867D01*
X124719552Y-55994552D01*
X124763867Y-55928231D01*
X124775500Y-55869748D01*
X124775500Y-55150001D01*
X125123972Y-55150001D01*
X125129736Y-55212204D01*
X125129738Y-55212218D01*
X125188061Y-55417202D01*
X125188064Y-55417212D01*
X125283059Y-55607988D01*
X125283063Y-55607994D01*
X125411501Y-55778071D01*
X125569003Y-55921653D01*
X125750200Y-56033844D01*
X125750210Y-56033849D01*
X125948935Y-56110836D01*
X126114999Y-56141879D01*
X126115000Y-56141879D01*
X126115000Y-55481170D01*
X126122685Y-55484680D01*
X126229237Y-55500000D01*
X126300763Y-55500000D01*
X126407315Y-55484680D01*
X126415000Y-55481170D01*
X126415000Y-56141879D01*
X126581064Y-56110836D01*
X126779789Y-56033849D01*
X126779799Y-56033844D01*
X126960996Y-55921653D01*
X127118498Y-55778071D01*
X127246936Y-55607994D01*
X127246940Y-55607988D01*
X127341935Y-55417212D01*
X127341938Y-55417202D01*
X127400261Y-55212218D01*
X127400263Y-55212204D01*
X127406027Y-55150001D01*
X127406026Y-55150000D01*
X126742065Y-55150000D01*
X126765000Y-55071889D01*
X126765000Y-55000000D01*
X141495197Y-55000000D01*
X141514397Y-55366355D01*
X141514397Y-55366356D01*
X141571783Y-55728683D01*
X141666735Y-56083046D01*
X141798201Y-56425527D01*
X141798205Y-56425538D01*
X141964746Y-56752393D01*
X142164556Y-57060073D01*
X142395426Y-57345173D01*
X142419060Y-57368807D01*
X143055141Y-56732725D01*
X143067449Y-56794601D01*
X143122704Y-56877296D01*
X143205399Y-56932551D01*
X143267272Y-56944858D01*
X142631192Y-57580939D01*
X142654826Y-57604573D01*
X142939926Y-57835443D01*
X143247606Y-58035253D01*
X143574461Y-58201794D01*
X143574472Y-58201798D01*
X143916953Y-58333264D01*
X144271316Y-58428216D01*
X144633643Y-58485602D01*
X145000000Y-58504802D01*
X145366355Y-58485602D01*
X145366356Y-58485602D01*
X145728683Y-58428216D01*
X146083046Y-58333264D01*
X146425527Y-58201798D01*
X146425538Y-58201794D01*
X146752393Y-58035253D01*
X147060073Y-57835443D01*
X147345173Y-57604573D01*
X147368806Y-57580938D01*
X146732726Y-56944858D01*
X146794601Y-56932551D01*
X146877296Y-56877296D01*
X146932551Y-56794601D01*
X146944858Y-56732726D01*
X147580938Y-57368806D01*
X147604573Y-57345173D01*
X147835443Y-57060073D01*
X148035253Y-56752393D01*
X148201794Y-56425538D01*
X148201798Y-56425527D01*
X148333264Y-56083046D01*
X148428216Y-55728683D01*
X148485602Y-55366356D01*
X148485602Y-55366355D01*
X148504802Y-55000000D01*
X148485602Y-54633644D01*
X148485602Y-54633643D01*
X148428216Y-54271316D01*
X148333264Y-53916953D01*
X148201794Y-53574461D01*
X148201791Y-53574456D01*
X148035253Y-53247607D01*
X147835443Y-52939926D01*
X147604573Y-52654826D01*
X147580939Y-52631192D01*
X146944858Y-53267272D01*
X146932551Y-53205399D01*
X146877296Y-53122704D01*
X146794601Y-53067449D01*
X146732725Y-53055141D01*
X147368807Y-52419060D01*
X147345173Y-52395426D01*
X147060073Y-52164556D01*
X146752393Y-51964746D01*
X146425538Y-51798205D01*
X146425527Y-51798201D01*
X146083046Y-51666735D01*
X145728683Y-51571783D01*
X145366356Y-51514397D01*
X145000000Y-51495197D01*
X144633644Y-51514397D01*
X144633643Y-51514397D01*
X144271316Y-51571783D01*
X143916953Y-51666735D01*
X143574461Y-51798205D01*
X143574456Y-51798208D01*
X143247607Y-51964746D01*
X142939926Y-52164556D01*
X142654827Y-52395425D01*
X142631192Y-52419059D01*
X143267274Y-53055141D01*
X143205399Y-53067449D01*
X143122704Y-53122704D01*
X143067449Y-53205399D01*
X143055141Y-53267274D01*
X142419059Y-52631192D01*
X142395425Y-52654827D01*
X142164556Y-52939926D01*
X141964746Y-53247607D01*
X141798208Y-53574456D01*
X141798205Y-53574461D01*
X141666735Y-53916953D01*
X141571783Y-54271316D01*
X141514397Y-54633643D01*
X141514397Y-54633644D01*
X141495197Y-55000000D01*
X126765000Y-55000000D01*
X126765000Y-54928111D01*
X126742065Y-54850000D01*
X127406026Y-54850000D01*
X127406027Y-54849998D01*
X127400263Y-54787795D01*
X127400261Y-54787781D01*
X127341938Y-54582797D01*
X127341935Y-54582787D01*
X127246940Y-54392011D01*
X127246936Y-54392005D01*
X127118498Y-54221928D01*
X126960996Y-54078346D01*
X126779799Y-53966155D01*
X126779789Y-53966150D01*
X126581063Y-53889162D01*
X126415000Y-53858119D01*
X126415000Y-54518829D01*
X126407315Y-54515320D01*
X126300763Y-54500000D01*
X126229237Y-54500000D01*
X126122685Y-54515320D01*
X126115000Y-54518829D01*
X126115000Y-53858119D01*
X126114999Y-53858119D01*
X125948936Y-53889162D01*
X125750210Y-53966150D01*
X125750200Y-53966155D01*
X125569003Y-54078346D01*
X125411501Y-54221928D01*
X125283063Y-54392005D01*
X125283059Y-54392011D01*
X125188064Y-54582787D01*
X125188061Y-54582797D01*
X125129738Y-54787781D01*
X125129736Y-54787795D01*
X125123972Y-54849998D01*
X125123974Y-54850000D01*
X125787935Y-54850000D01*
X125765000Y-54928111D01*
X125765000Y-55071889D01*
X125787935Y-55150000D01*
X125123974Y-55150000D01*
X125123972Y-55150001D01*
X124775500Y-55150001D01*
X124775500Y-54130252D01*
X124763867Y-54071769D01*
X124719552Y-54005448D01*
X124697343Y-53990608D01*
X124653232Y-53961133D01*
X124653233Y-53961133D01*
X124623989Y-53955316D01*
X124594748Y-53949500D01*
X122855252Y-53949500D01*
X122826010Y-53955316D01*
X122796767Y-53961133D01*
X122730449Y-54005447D01*
X122730447Y-54005449D01*
X122686133Y-54071767D01*
X122674500Y-54130253D01*
X122674500Y-55869746D01*
X108390418Y-55869746D01*
X108428216Y-55728683D01*
X108485602Y-55366356D01*
X108485602Y-55366355D01*
X108504802Y-55000000D01*
X108485602Y-54633644D01*
X108485602Y-54633643D01*
X108428216Y-54271316D01*
X108333264Y-53916953D01*
X108201794Y-53574461D01*
X108201791Y-53574456D01*
X108035253Y-53247607D01*
X107835443Y-52939926D01*
X107604573Y-52654826D01*
X107580939Y-52631192D01*
X106944858Y-53267272D01*
X106932551Y-53205399D01*
X106877296Y-53122704D01*
X106794601Y-53067449D01*
X106732725Y-53055141D01*
X107368807Y-52419060D01*
X107345173Y-52395426D01*
X107060073Y-52164556D01*
X106752393Y-51964746D01*
X106425538Y-51798205D01*
X106425527Y-51798201D01*
X106083046Y-51666735D01*
X105728683Y-51571783D01*
X105366356Y-51514397D01*
X105000000Y-51495197D01*
X104633644Y-51514397D01*
X104633643Y-51514397D01*
X104271316Y-51571783D01*
X103916953Y-51666735D01*
X103574461Y-51798205D01*
X103574456Y-51798208D01*
X103247607Y-51964746D01*
X102939926Y-52164556D01*
X102654827Y-52395425D01*
X102631192Y-52419059D01*
X103267274Y-53055141D01*
X103205399Y-53067449D01*
X103122704Y-53122704D01*
X103067449Y-53205399D01*
X103055141Y-53267274D01*
X102419059Y-52631192D01*
X102395425Y-52654827D01*
X102164556Y-52939926D01*
X101964746Y-53247607D01*
X101798208Y-53574456D01*
X101798205Y-53574461D01*
X101666735Y-53916953D01*
X101571783Y-54271316D01*
X101514397Y-54633643D01*
X101514397Y-54633644D01*
X101495197Y-55000000D01*
X100000500Y-55000000D01*
X100000500Y-52130004D01*
X100000547Y-52127363D01*
X100010037Y-51861649D01*
X100010743Y-51853759D01*
X100049931Y-51581193D01*
X100052175Y-51570883D01*
X100129385Y-51307930D01*
X100133074Y-51298038D01*
X100246913Y-51048763D01*
X100251969Y-51039501D01*
X100400138Y-50808946D01*
X100406455Y-50800507D01*
X100585930Y-50593382D01*
X100593382Y-50585930D01*
X100800507Y-50406455D01*
X100808946Y-50400138D01*
X101039501Y-50251969D01*
X101048760Y-50246914D01*
X101298038Y-50133074D01*
X101307930Y-50129385D01*
X101570883Y-50052175D01*
X101581193Y-50049931D01*
X101853767Y-50010742D01*
X101861641Y-50010037D01*
X102127364Y-50000547D01*
X102130005Y-50000500D01*
X123824552Y-50000500D01*
X124666055Y-50000948D01*
G37*
%TD.AperFunction*%
%TD*%
M02*
