%TF.GenerationSoftware,KiCad,Pcbnew,7.0.10-7.0.10~ubuntu22.04.1*%
%TF.CreationDate,2024-01-03T17:58:32-08:00*%
%TF.ProjectId,YamhillProtoBoard1x1,59616d68-696c-46c5-9072-6f746f426f61,A*%
%TF.SameCoordinates,Original*%
%TF.FileFunction,Copper,L1,Top*%
%TF.FilePolarity,Positive*%
%FSLAX46Y46*%
G04 Gerber Fmt 4.6, Leading zero omitted, Abs format (unit mm)*
G04 Created by KiCad (PCBNEW 7.0.10-7.0.10~ubuntu22.04.1) date 2024-01-03 17:58:32*
%MOMM*%
%LPD*%
G01*
G04 APERTURE LIST*
G04 Aperture macros list*
%AMRoundRect*
0 Rectangle with rounded corners*
0 $1 Rounding radius*
0 $2 $3 $4 $5 $6 $7 $8 $9 X,Y pos of 4 corners*
0 Add a 4 corners polygon primitive as box body*
4,1,4,$2,$3,$4,$5,$6,$7,$8,$9,$2,$3,0*
0 Add four circle primitives for the rounded corners*
1,1,$1+$1,$2,$3*
1,1,$1+$1,$4,$5*
1,1,$1+$1,$6,$7*
1,1,$1+$1,$8,$9*
0 Add four rect primitives between the rounded corners*
20,1,$1+$1,$2,$3,$4,$5,0*
20,1,$1+$1,$4,$5,$6,$7,0*
20,1,$1+$1,$6,$7,$8,$9,0*
20,1,$1+$1,$8,$9,$2,$3,0*%
G04 Aperture macros list end*
%TA.AperFunction,ComponentPad*%
%ADD10C,1.000000*%
%TD*%
%TA.AperFunction,SMDPad,CuDef*%
%ADD11RoundRect,0.300000X-1.200000X-1.200000X1.200000X-1.200000X1.200000X1.200000X-1.200000X1.200000X0*%
%TD*%
%TA.AperFunction,SMDPad,CuDef*%
%ADD12RoundRect,0.300000X1.200000X-4.200000X1.200000X4.200000X-1.200000X4.200000X-1.200000X-4.200000X0*%
%TD*%
%TA.AperFunction,ComponentPad*%
%ADD13C,0.800000*%
%TD*%
%TA.AperFunction,ComponentPad*%
%ADD14C,6.400000*%
%TD*%
%TA.AperFunction,ComponentPad*%
%ADD15R,1.700000X1.700000*%
%TD*%
%TA.AperFunction,ComponentPad*%
%ADD16O,1.700000X1.700000*%
%TD*%
%TA.AperFunction,ComponentPad*%
%ADD17C,2.500000*%
%TD*%
%TA.AperFunction,ComponentPad*%
%ADD18C,2.600000*%
%TD*%
%TA.AperFunction,SMDPad,CuDef*%
%ADD19RoundRect,0.300000X-1.200000X-19.700000X1.200000X-19.700000X1.200000X19.700000X-1.200000X19.700000X0*%
%TD*%
%TA.AperFunction,ViaPad*%
%ADD20C,0.600000*%
%TD*%
%TA.AperFunction,Conductor*%
%ADD21C,0.250000*%
%TD*%
G04 APERTURE END LIST*
D10*
%TO.P,REF\u002A\u002A,1*%
%TO.N,N/C*%
X105200000Y-62500000D03*
D11*
X105200000Y-62500000D03*
%TD*%
D10*
%TO.P,REF\u002A\u002A,1*%
%TO.N,N/C*%
X105200000Y-82400000D03*
D11*
X105200000Y-82400000D03*
%TD*%
D10*
%TO.P,REF\u002A\u002A,1*%
%TO.N,N/C*%
X144800000Y-82400000D03*
D11*
X144800000Y-82400000D03*
%TD*%
D10*
%TO.P,REF\u002A\u002A,1*%
%TO.N,N/C*%
X116300000Y-57400000D03*
D11*
X116300000Y-57400000D03*
%TD*%
D10*
%TO.P,REF\u002A\u002A,1*%
%TO.N,N/C*%
X120000000Y-92600000D03*
D11*
X120000000Y-92600000D03*
%TD*%
D10*
%TO.P,REF\u002A\u002A,1*%
%TO.N,N/C*%
X112600000Y-92600000D03*
D11*
X112600000Y-92600000D03*
%TD*%
D10*
%TO.P,REF\u002A\u002A,1*%
%TO.N,N/C*%
X112600000Y-96300000D03*
D11*
X112600000Y-96300000D03*
%TD*%
D10*
%TO.P,REF\u002A\u002A,1*%
%TO.N,N/C*%
X120000000Y-67600000D03*
D11*
X120000000Y-67600000D03*
%TD*%
D10*
%TO.P,REF\u002A\u002A,1*%
%TO.N,N/C*%
X130000000Y-87500000D03*
D11*
X130000000Y-87500000D03*
%TD*%
D10*
%TO.P,REF\u002A\u002A,1*%
%TO.N,N/C*%
X130000000Y-96300000D03*
D11*
X130000000Y-96300000D03*
%TD*%
D10*
%TO.P,REF\u002A\u002A,1*%
%TO.N,N/C*%
X129900000Y-57400000D03*
D11*
X129900000Y-57400000D03*
%TD*%
D10*
%TO.P,REF\u002A\u002A,1*%
%TO.N,N/C*%
X129900000Y-53700000D03*
D11*
X129900000Y-53700000D03*
%TD*%
D10*
%TO.P,REF\u002A\u002A,1*%
%TO.N,N/C*%
X116300000Y-62500000D03*
D11*
X116300000Y-62500000D03*
%TD*%
D10*
%TO.P,REF\u002A\u002A,1*%
%TO.N,N/C*%
X130000000Y-67600000D03*
D11*
X130000000Y-67600000D03*
%TD*%
D10*
%TO.P,REF\u002A\u002A,1*%
%TO.N,N/C*%
X120000000Y-96300000D03*
D11*
X120000000Y-96300000D03*
%TD*%
D10*
%TO.P,REF\u002A\u002A,1*%
%TO.N,N/C*%
X144800000Y-62500000D03*
D11*
X144800000Y-62500000D03*
%TD*%
D10*
%TO.P,REF\u002A\u002A,1*%
%TO.N,N/C*%
X137400000Y-62500000D03*
D11*
X137400000Y-62500000D03*
%TD*%
D10*
%TO.P,REF\u002A\u002A,1*%
%TO.N,N/C*%
X133700000Y-67600000D03*
D11*
X133700000Y-67600000D03*
%TD*%
D10*
%TO.P,REF\u002A\u002A,1*%
%TO.N,N/C*%
X120000000Y-82400000D03*
D11*
X120000000Y-82400000D03*
%TD*%
D10*
%TO.P,REF\u002A\u002A,1*%
%TO.N,N/C*%
X141100000Y-62500000D03*
D11*
X141100000Y-62500000D03*
%TD*%
D10*
%TO.P,REF\u002A\u002A,1*%
%TO.N,N/C*%
X120000000Y-78700000D03*
D11*
X120000000Y-78700000D03*
%TD*%
D10*
%TO.P,REF\u002A\u002A,1*%
%TO.N,N/C*%
X120000000Y-75000000D03*
D11*
X120000000Y-75000000D03*
%TD*%
D10*
%TO.P,REF\u002A\u002A,1*%
%TO.N,N/C*%
X105200000Y-67600000D03*
D11*
X105200000Y-67600000D03*
%TD*%
D10*
%TO.P,REF\u002A\u002A,1*%
%TO.N,N/C*%
X141100000Y-82400000D03*
D11*
X141100000Y-82400000D03*
%TD*%
D10*
%TO.P,REF\u002A\u002A,1*%
%TO.N,N/C*%
X133700000Y-87500000D03*
D11*
X133700000Y-87500000D03*
%TD*%
D10*
%TO.P,J2,1,Pin_1*%
%TO.N,Net-(J1-In)*%
X116000000Y-78000000D03*
X116000000Y-75000000D03*
D12*
X116000000Y-75000000D03*
D10*
X116000000Y-72000000D03*
%TD*%
%TO.P,REF\u002A\u002A,1*%
%TO.N,N/C*%
X144800000Y-87500000D03*
D11*
X144800000Y-87500000D03*
%TD*%
D10*
%TO.P,REF\u002A\u002A,1*%
%TO.N,N/C*%
X112600000Y-82400000D03*
D11*
X112600000Y-82400000D03*
%TD*%
D10*
%TO.P,REF\u002A\u002A,1*%
%TO.N,N/C*%
X120000000Y-62500000D03*
D11*
X120000000Y-62500000D03*
%TD*%
D10*
%TO.P,REF\u002A\u002A,1*%
%TO.N,N/C*%
X116300000Y-53700000D03*
D11*
X116300000Y-53700000D03*
%TD*%
D13*
%TO.P,H1,1,1*%
%TO.N,GND*%
X102600000Y-55000000D03*
X103302944Y-53302944D03*
X103302944Y-56697056D03*
X105000000Y-52600000D03*
D14*
X105000000Y-55000000D03*
D13*
X105000000Y-57400000D03*
X106697056Y-53302944D03*
X106697056Y-56697056D03*
X107400000Y-55000000D03*
%TD*%
D15*
%TO.P,J3,1,Pin_1*%
%TO.N,Net-(J1-In)*%
X104000000Y-73725000D03*
D16*
%TO.P,J3,2,Pin_2*%
%TO.N,GND*%
X104000000Y-76265000D03*
%TD*%
D10*
%TO.P,REF\u002A\u002A,1*%
%TO.N,N/C*%
X120000000Y-87500000D03*
D11*
X120000000Y-87500000D03*
%TD*%
D10*
%TO.P,REF\u002A\u002A,1*%
%TO.N,N/C*%
X112600000Y-57400000D03*
D11*
X112600000Y-57400000D03*
%TD*%
D10*
%TO.P,REF\u002A\u002A,1*%
%TO.N,N/C*%
X130000000Y-78700000D03*
D11*
X130000000Y-78700000D03*
%TD*%
D10*
%TO.P,REF\u002A\u002A,1*%
%TO.N,N/C*%
X130000000Y-82400000D03*
D11*
X130000000Y-82400000D03*
%TD*%
D10*
%TO.P,REF\u002A\u002A,1*%
%TO.N,N/C*%
X137400000Y-82400000D03*
D11*
X137400000Y-82400000D03*
%TD*%
D10*
%TO.P,REF\u002A\u002A,1*%
%TO.N,N/C*%
X108900000Y-62500000D03*
D11*
X108900000Y-62500000D03*
%TD*%
D10*
%TO.P,REF\u002A\u002A,1*%
%TO.N,N/C*%
X116300000Y-82400000D03*
D11*
X116300000Y-82400000D03*
%TD*%
D17*
%TO.P,J1,1,In*%
%TO.N,Net-(J1-In)*%
X110000000Y-75000000D03*
D18*
%TO.P,J1,2,Ext*%
%TO.N,GND*%
X107450000Y-72450000D03*
X107450000Y-77550000D03*
X112550000Y-72450000D03*
X112550000Y-77550000D03*
%TD*%
D10*
%TO.P,REF\u002A\u002A,1*%
%TO.N,N/C*%
X112600000Y-53700000D03*
D11*
X112600000Y-53700000D03*
%TD*%
D10*
%TO.P,REF\u002A\u002A,1*%
%TO.N,N/C*%
X120000000Y-71300000D03*
D11*
X120000000Y-71300000D03*
%TD*%
D10*
%TO.P,REF\u002A\u002A,1*%
%TO.N,N/C*%
X116300000Y-92600000D03*
D11*
X116300000Y-92600000D03*
%TD*%
D10*
%TO.P,REF\u002A\u002A,1*%
%TO.N,N/C*%
X116300000Y-67600000D03*
D11*
X116300000Y-67600000D03*
%TD*%
D10*
%TO.P,REF\u002A\u002A,1*%
%TO.N,N/C*%
X108900000Y-67600000D03*
D11*
X108900000Y-67600000D03*
%TD*%
D10*
%TO.P,REF\u002A\u002A,1*%
%TO.N,N/C*%
X137400000Y-96300000D03*
D11*
X137400000Y-96300000D03*
%TD*%
D15*
%TO.P,J5,1,Pin_1*%
%TO.N,Net-(J4-In)*%
X146000000Y-73725000D03*
D16*
%TO.P,J5,2,Pin_2*%
%TO.N,GND*%
X146000000Y-76265000D03*
%TD*%
D10*
%TO.P,REF\u002A\u002A,1*%
%TO.N,N/C*%
X133700000Y-82400000D03*
D11*
X133700000Y-82400000D03*
%TD*%
D10*
%TO.P,REF\u002A\u002A,1*%
%TO.N,N/C*%
X137300000Y-53700000D03*
D11*
X137300000Y-53700000D03*
%TD*%
D10*
%TO.P,REF\u002A\u002A,1*%
%TO.N,N/C*%
X133700000Y-96300000D03*
D11*
X133700000Y-96300000D03*
%TD*%
D10*
%TO.P,REF\u002A\u002A,1*%
%TO.N,N/C*%
X130000000Y-92600000D03*
D11*
X130000000Y-92600000D03*
%TD*%
D10*
%TO.P,REF\u002A\u002A,1*%
%TO.N,N/C*%
X116300000Y-87500000D03*
D11*
X116300000Y-87500000D03*
%TD*%
D13*
%TO.P,H2,1,1*%
%TO.N,GND*%
X142600000Y-55000000D03*
X143302944Y-53302944D03*
X143302944Y-56697056D03*
X145000000Y-52600000D03*
D14*
X145000000Y-55000000D03*
D13*
X145000000Y-57400000D03*
X146697056Y-53302944D03*
X146697056Y-56697056D03*
X147400000Y-55000000D03*
%TD*%
D10*
%TO.P,REF\u002A\u002A,1*%
%TO.N,N/C*%
X133700000Y-92600000D03*
D11*
X133700000Y-92600000D03*
%TD*%
D10*
%TO.P,REF\u002A\u002A,1*%
%TO.N,N/C*%
X105200000Y-87500000D03*
D11*
X105200000Y-87500000D03*
%TD*%
D10*
%TO.P,REF\u002A\u002A,1*%
%TO.N,N/C*%
X120000000Y-57400000D03*
D11*
X120000000Y-57400000D03*
%TD*%
D13*
%TO.P,H4,1,1*%
%TO.N,GND*%
X142600000Y-95000000D03*
X143302944Y-93302944D03*
X143302944Y-96697056D03*
X145000000Y-92600000D03*
D14*
X145000000Y-95000000D03*
D13*
X145000000Y-97400000D03*
X146697056Y-93302944D03*
X146697056Y-96697056D03*
X147400000Y-95000000D03*
%TD*%
D10*
%TO.P,REF\u002A\u002A,1*%
%TO.N,N/C*%
X130000000Y-75000000D03*
D11*
X130000000Y-75000000D03*
%TD*%
D10*
%TO.P,J11,1,Pin_1*%
%TO.N,Net-(J10-Pin_1)*%
X123700000Y-58100000D03*
X123700000Y-61100000D03*
X123700000Y-64100000D03*
X123700000Y-67100000D03*
X123700000Y-70100000D03*
X123700000Y-73100000D03*
X123700000Y-76100000D03*
D19*
X123700000Y-76100000D03*
D10*
X123700000Y-79100000D03*
X123700000Y-82100000D03*
X123700000Y-85100000D03*
X123700000Y-88100000D03*
X123700000Y-91100000D03*
X123700000Y-94100000D03*
%TD*%
D13*
%TO.P,H3,1,1*%
%TO.N,GND*%
X102600000Y-95000000D03*
X103302944Y-93302944D03*
X103302944Y-96697056D03*
X105000000Y-92600000D03*
D14*
X105000000Y-95000000D03*
D13*
X105000000Y-97400000D03*
X106697056Y-93302944D03*
X106697056Y-96697056D03*
X107400000Y-95000000D03*
%TD*%
D10*
%TO.P,REF\u002A\u002A,1*%
%TO.N,N/C*%
X130000000Y-71300000D03*
D11*
X130000000Y-71300000D03*
%TD*%
D10*
%TO.P,REF\u002A\u002A,1*%
%TO.N,N/C*%
X137400000Y-92600000D03*
D11*
X137400000Y-92600000D03*
%TD*%
D10*
%TO.P,REF\u002A\u002A,1*%
%TO.N,N/C*%
X112600000Y-62500000D03*
D11*
X112600000Y-62500000D03*
%TD*%
D10*
%TO.P,REF\u002A\u002A,1*%
%TO.N,N/C*%
X144800000Y-67600000D03*
D11*
X144800000Y-67600000D03*
%TD*%
D10*
%TO.P,REF\u002A\u002A,1*%
%TO.N,N/C*%
X108900000Y-87500000D03*
D11*
X108900000Y-87500000D03*
%TD*%
D10*
%TO.P,REF\u002A\u002A,1*%
%TO.N,N/C*%
X112600000Y-87500000D03*
D11*
X112600000Y-87500000D03*
%TD*%
D10*
%TO.P,REF\u002A\u002A,1*%
%TO.N,N/C*%
X137400000Y-67600000D03*
D11*
X137400000Y-67600000D03*
%TD*%
D10*
%TO.P,REF\u002A\u002A,1*%
%TO.N,N/C*%
X141100000Y-67600000D03*
D11*
X141100000Y-67600000D03*
%TD*%
D10*
%TO.P,REF\u002A\u002A,1*%
%TO.N,N/C*%
X137300000Y-57400000D03*
D11*
X137300000Y-57400000D03*
%TD*%
D10*
%TO.P,REF\u002A\u002A,1*%
%TO.N,N/C*%
X130000000Y-62500000D03*
D11*
X130000000Y-62500000D03*
%TD*%
D10*
%TO.P,REF\u002A\u002A,1*%
%TO.N,N/C*%
X116300000Y-96300000D03*
D11*
X116300000Y-96300000D03*
%TD*%
D10*
%TO.P,J6,1,Pin_1*%
%TO.N,Net-(J4-In)*%
X134000000Y-78000000D03*
X134000000Y-75000000D03*
D12*
X134000000Y-75000000D03*
D10*
X134000000Y-72000000D03*
%TD*%
%TO.P,REF\u002A\u002A,1*%
%TO.N,N/C*%
X133600000Y-57400000D03*
D11*
X133600000Y-57400000D03*
%TD*%
D10*
%TO.P,REF\u002A\u002A,1*%
%TO.N,N/C*%
X133700000Y-62500000D03*
D11*
X133700000Y-62500000D03*
%TD*%
D10*
%TO.P,REF\u002A\u002A,1*%
%TO.N,N/C*%
X112600000Y-67600000D03*
D11*
X112600000Y-67600000D03*
%TD*%
D10*
%TO.P,REF\u002A\u002A,1*%
%TO.N,N/C*%
X108900000Y-82400000D03*
D11*
X108900000Y-82400000D03*
%TD*%
D10*
%TO.P,REF\u002A\u002A,1*%
%TO.N,N/C*%
X141100000Y-87500000D03*
D11*
X141100000Y-87500000D03*
%TD*%
D10*
%TO.P,REF\u002A\u002A,1*%
%TO.N,N/C*%
X120000000Y-53700000D03*
D11*
X120000000Y-53700000D03*
%TD*%
D10*
%TO.P,REF\u002A\u002A,1*%
%TO.N,N/C*%
X137400000Y-87500000D03*
D11*
X137400000Y-87500000D03*
%TD*%
D17*
%TO.P,J4,1,In*%
%TO.N,Net-(J4-In)*%
X140000000Y-75000000D03*
D18*
%TO.P,J4,2,Ext*%
%TO.N,GND*%
X137450000Y-72450000D03*
X137450000Y-77550000D03*
X142550000Y-72450000D03*
X142550000Y-77550000D03*
%TD*%
D15*
%TO.P,J10,1,Pin_1*%
%TO.N,Net-(J10-Pin_1)*%
X123825000Y-54000000D03*
D16*
%TO.P,J10,2,Pin_2*%
%TO.N,GND*%
X126365000Y-54000000D03*
%TD*%
D10*
%TO.P,REF\u002A\u002A,1*%
%TO.N,N/C*%
X133600000Y-53700000D03*
D11*
X133600000Y-53700000D03*
%TD*%
D20*
%TO.N,GND*%
X122000000Y-99000000D03*
X142000000Y-99000000D03*
X149000000Y-87000000D03*
X147000000Y-51000000D03*
X101000000Y-87000000D03*
X149000000Y-77000000D03*
X101000000Y-72000000D03*
X122000000Y-51000000D03*
X112000000Y-99000000D03*
X142000000Y-51000000D03*
X127000000Y-51000000D03*
X149000000Y-67000000D03*
X149000000Y-97000000D03*
X149000000Y-52000000D03*
X149000000Y-82000000D03*
X101000000Y-57000000D03*
X101000000Y-52000000D03*
X107000000Y-99000000D03*
X132000000Y-51000000D03*
X117000000Y-51000000D03*
X127000000Y-99000000D03*
X102000000Y-51000000D03*
X149000000Y-72000000D03*
X137000000Y-99000000D03*
X101000000Y-62000000D03*
X101000000Y-67000000D03*
X112000000Y-51000000D03*
X107000000Y-51000000D03*
X149000000Y-62000000D03*
X149000000Y-57000000D03*
X137000000Y-51000000D03*
X101000000Y-82000000D03*
X149000000Y-92000000D03*
X132000000Y-99000000D03*
X101000000Y-97000000D03*
X102000000Y-99000000D03*
X147000000Y-99000000D03*
X101000000Y-92000000D03*
X101000000Y-77000000D03*
X117000000Y-99000000D03*
%TD*%
D21*
%TO.N,Net-(J1-In)*%
X110000000Y-75000000D02*
X116000000Y-75000000D01*
X110000000Y-75000000D02*
X105275000Y-75000000D01*
X105275000Y-75000000D02*
X104000000Y-73725000D01*
%TO.N,Net-(J4-In)*%
X140000000Y-75000000D02*
X144725000Y-75000000D01*
X140000000Y-75000000D02*
X134000000Y-75000000D01*
X144725000Y-75000000D02*
X146000000Y-73725000D01*
%TO.N,Net-(J10-Pin_1)*%
X123725000Y-58075000D02*
X123700000Y-58100000D01*
X123725000Y-54000000D02*
X123725000Y-58075000D01*
%TD*%
%TA.AperFunction,Conductor*%
%TO.N,GND*%
G36*
X106661385Y-96449253D02*
G01*
X106599511Y-96461561D01*
X106516816Y-96516816D01*
X106461561Y-96599511D01*
X106449253Y-96661385D01*
X106020456Y-96232588D01*
X106134870Y-96134870D01*
X106232588Y-96020456D01*
X106661385Y-96449253D01*
G37*
%TD.AperFunction*%
%TA.AperFunction,Conductor*%
G36*
X103865130Y-96134870D02*
G01*
X103979543Y-96232587D01*
X103550746Y-96661384D01*
X103538439Y-96599511D01*
X103483184Y-96516816D01*
X103400489Y-96461561D01*
X103338613Y-96449253D01*
X103767411Y-96020455D01*
X103865130Y-96134870D01*
G37*
%TD.AperFunction*%
%TA.AperFunction,Conductor*%
G36*
X103979544Y-93767411D02*
G01*
X103865130Y-93865130D01*
X103767411Y-93979544D01*
X103338613Y-93550746D01*
X103400489Y-93538439D01*
X103483184Y-93483184D01*
X103538439Y-93400489D01*
X103550746Y-93338613D01*
X103979544Y-93767411D01*
G37*
%TD.AperFunction*%
%TA.AperFunction,Conductor*%
G36*
X106461561Y-93400489D02*
G01*
X106516816Y-93483184D01*
X106599511Y-93538439D01*
X106661384Y-93550746D01*
X106232587Y-93979543D01*
X106134870Y-93865130D01*
X106020455Y-93767411D01*
X106449253Y-93338613D01*
X106461561Y-93400489D01*
G37*
%TD.AperFunction*%
%TA.AperFunction,Conductor*%
G36*
X146661385Y-96449253D02*
G01*
X146599511Y-96461561D01*
X146516816Y-96516816D01*
X146461561Y-96599511D01*
X146449253Y-96661385D01*
X146020456Y-96232588D01*
X146134870Y-96134870D01*
X146232588Y-96020456D01*
X146661385Y-96449253D01*
G37*
%TD.AperFunction*%
%TA.AperFunction,Conductor*%
G36*
X143865130Y-96134870D02*
G01*
X143979543Y-96232587D01*
X143550746Y-96661384D01*
X143538439Y-96599511D01*
X143483184Y-96516816D01*
X143400489Y-96461561D01*
X143338613Y-96449253D01*
X143767411Y-96020455D01*
X143865130Y-96134870D01*
G37*
%TD.AperFunction*%
%TA.AperFunction,Conductor*%
G36*
X143979544Y-93767411D02*
G01*
X143865130Y-93865130D01*
X143767411Y-93979544D01*
X143338613Y-93550746D01*
X143400489Y-93538439D01*
X143483184Y-93483184D01*
X143538439Y-93400489D01*
X143550746Y-93338613D01*
X143979544Y-93767411D01*
G37*
%TD.AperFunction*%
%TA.AperFunction,Conductor*%
G36*
X146461561Y-93400489D02*
G01*
X146516816Y-93483184D01*
X146599511Y-93538439D01*
X146661384Y-93550746D01*
X146232587Y-93979543D01*
X146134870Y-93865130D01*
X146020455Y-93767411D01*
X146449253Y-93338613D01*
X146461561Y-93400489D01*
G37*
%TD.AperFunction*%
%TA.AperFunction,Conductor*%
G36*
X106661385Y-56449253D02*
G01*
X106599511Y-56461561D01*
X106516816Y-56516816D01*
X106461561Y-56599511D01*
X106449253Y-56661385D01*
X106020456Y-56232588D01*
X106134870Y-56134870D01*
X106232588Y-56020456D01*
X106661385Y-56449253D01*
G37*
%TD.AperFunction*%
%TA.AperFunction,Conductor*%
G36*
X103865130Y-56134870D02*
G01*
X103979543Y-56232587D01*
X103550746Y-56661384D01*
X103538439Y-56599511D01*
X103483184Y-56516816D01*
X103400489Y-56461561D01*
X103338613Y-56449253D01*
X103767411Y-56020455D01*
X103865130Y-56134870D01*
G37*
%TD.AperFunction*%
%TA.AperFunction,Conductor*%
G36*
X103979544Y-53767411D02*
G01*
X103865130Y-53865130D01*
X103767411Y-53979544D01*
X103338613Y-53550746D01*
X103400489Y-53538439D01*
X103483184Y-53483184D01*
X103538439Y-53400489D01*
X103550746Y-53338613D01*
X103979544Y-53767411D01*
G37*
%TD.AperFunction*%
%TA.AperFunction,Conductor*%
G36*
X106461561Y-53400489D02*
G01*
X106516816Y-53483184D01*
X106599511Y-53538439D01*
X106661384Y-53550746D01*
X106232587Y-53979543D01*
X106134870Y-53865130D01*
X106020455Y-53767411D01*
X106449253Y-53338613D01*
X106461561Y-53400489D01*
G37*
%TD.AperFunction*%
%TA.AperFunction,Conductor*%
G36*
X146661385Y-56449253D02*
G01*
X146599511Y-56461561D01*
X146516816Y-56516816D01*
X146461561Y-56599511D01*
X146449253Y-56661385D01*
X146020456Y-56232588D01*
X146134870Y-56134870D01*
X146232588Y-56020456D01*
X146661385Y-56449253D01*
G37*
%TD.AperFunction*%
%TA.AperFunction,Conductor*%
G36*
X143865130Y-56134870D02*
G01*
X143979543Y-56232587D01*
X143550746Y-56661384D01*
X143538439Y-56599511D01*
X143483184Y-56516816D01*
X143400489Y-56461561D01*
X143338613Y-56449253D01*
X143767411Y-56020455D01*
X143865130Y-56134870D01*
G37*
%TD.AperFunction*%
%TA.AperFunction,Conductor*%
G36*
X143979544Y-53767411D02*
G01*
X143865130Y-53865130D01*
X143767411Y-53979544D01*
X143338613Y-53550746D01*
X143400489Y-53538439D01*
X143483184Y-53483184D01*
X143538439Y-53400489D01*
X143550746Y-53338613D01*
X143979544Y-53767411D01*
G37*
%TD.AperFunction*%
%TA.AperFunction,Conductor*%
G36*
X146461561Y-53400489D02*
G01*
X146516816Y-53483184D01*
X146599511Y-53538439D01*
X146661384Y-53550746D01*
X146232587Y-53979543D01*
X146134870Y-53865130D01*
X146020455Y-53767411D01*
X146449253Y-53338613D01*
X146461561Y-53400489D01*
G37*
%TD.AperFunction*%
%TA.AperFunction,Conductor*%
G36*
X124666055Y-50000948D02*
G01*
X124887981Y-50001067D01*
X124888183Y-50001067D01*
X124888222Y-50001081D01*
X124888223Y-50001068D01*
X136272024Y-50013226D01*
X148177832Y-50025943D01*
X148185686Y-50026370D01*
X148430663Y-50052841D01*
X148443547Y-50055409D01*
X148681984Y-50125420D01*
X148686985Y-50127085D01*
X148694671Y-50129952D01*
X148699540Y-50131968D01*
X148951239Y-50246914D01*
X148960503Y-50251973D01*
X149191047Y-50400134D01*
X149199500Y-50406462D01*
X149406610Y-50585924D01*
X149414075Y-50593389D01*
X149593537Y-50800499D01*
X149599865Y-50808952D01*
X149748026Y-51039496D01*
X149753086Y-51048762D01*
X149868031Y-51300457D01*
X149870052Y-51305337D01*
X149874513Y-51317297D01*
X149876181Y-51322310D01*
X149943606Y-51551939D01*
X149946180Y-51564880D01*
X149971523Y-51800717D01*
X149971947Y-51808632D01*
X149966958Y-98226211D01*
X149966534Y-98234117D01*
X149943675Y-98446643D01*
X149941102Y-98459577D01*
X149880306Y-98666630D01*
X149878637Y-98671643D01*
X149870048Y-98694670D01*
X149868027Y-98699550D01*
X149753086Y-98951237D01*
X149748026Y-98960503D01*
X149599865Y-99191047D01*
X149593537Y-99199500D01*
X149414075Y-99406610D01*
X149406610Y-99414075D01*
X149199500Y-99593537D01*
X149191047Y-99599865D01*
X148960503Y-99748026D01*
X148951237Y-99753086D01*
X148699542Y-99868031D01*
X148694661Y-99870052D01*
X148673641Y-99877892D01*
X148668648Y-99879554D01*
X148457480Y-99941558D01*
X148444571Y-99944128D01*
X148227805Y-99967505D01*
X148219920Y-99967932D01*
X102116357Y-99998592D01*
X102113691Y-99998546D01*
X101852439Y-99989302D01*
X101844525Y-99988595D01*
X101587590Y-99951653D01*
X101582391Y-99950715D01*
X101580668Y-99950340D01*
X101578542Y-99949877D01*
X101573430Y-99948572D01*
X101307930Y-99870614D01*
X101298038Y-99866925D01*
X101048763Y-99753086D01*
X101039496Y-99748026D01*
X100808952Y-99599865D01*
X100800499Y-99593537D01*
X100593389Y-99414075D01*
X100585924Y-99406610D01*
X100406462Y-99199500D01*
X100400134Y-99191047D01*
X100251973Y-98960503D01*
X100246913Y-98951236D01*
X100133074Y-98701961D01*
X100129385Y-98692069D01*
X100052175Y-98429116D01*
X100049930Y-98418799D01*
X100037632Y-98333264D01*
X100010742Y-98146234D01*
X100010037Y-98138350D01*
X100000547Y-97872635D01*
X100000500Y-97869994D01*
X100000500Y-95000000D01*
X101495197Y-95000000D01*
X101514397Y-95366355D01*
X101514397Y-95366356D01*
X101571783Y-95728683D01*
X101666735Y-96083046D01*
X101798201Y-96425527D01*
X101798205Y-96425538D01*
X101964746Y-96752393D01*
X102164556Y-97060073D01*
X102395426Y-97345173D01*
X102419060Y-97368807D01*
X103055141Y-96732725D01*
X103067449Y-96794601D01*
X103122704Y-96877296D01*
X103205399Y-96932551D01*
X103267272Y-96944858D01*
X102631192Y-97580939D01*
X102654826Y-97604573D01*
X102939926Y-97835443D01*
X103247606Y-98035253D01*
X103574461Y-98201794D01*
X103574472Y-98201798D01*
X103916953Y-98333264D01*
X104271316Y-98428216D01*
X104633643Y-98485602D01*
X105000000Y-98504802D01*
X105366355Y-98485602D01*
X105366356Y-98485602D01*
X105728683Y-98428216D01*
X106083046Y-98333264D01*
X106425527Y-98201798D01*
X106425538Y-98201794D01*
X106752393Y-98035253D01*
X107060073Y-97835443D01*
X107345173Y-97604573D01*
X107368806Y-97580938D01*
X107335741Y-97547873D01*
X110899500Y-97547873D01*
X110905909Y-97607485D01*
X110956202Y-97742329D01*
X110956203Y-97742330D01*
X110956204Y-97742331D01*
X111042454Y-97857546D01*
X111157669Y-97943796D01*
X111157670Y-97943797D01*
X111268605Y-97985172D01*
X111292517Y-97994091D01*
X111352127Y-98000500D01*
X113847872Y-98000499D01*
X113907483Y-97994091D01*
X113974907Y-97968943D01*
X114042329Y-97943797D01*
X114042329Y-97943796D01*
X114042331Y-97943796D01*
X114157546Y-97857546D01*
X114243796Y-97742331D01*
X114294091Y-97607483D01*
X114300500Y-97547873D01*
X114599500Y-97547873D01*
X114605909Y-97607485D01*
X114656202Y-97742329D01*
X114656203Y-97742330D01*
X114656204Y-97742331D01*
X114742454Y-97857546D01*
X114857669Y-97943796D01*
X114857670Y-97943797D01*
X114968605Y-97985172D01*
X114992517Y-97994091D01*
X115052127Y-98000500D01*
X117547872Y-98000499D01*
X117607483Y-97994091D01*
X117674907Y-97968943D01*
X117742329Y-97943797D01*
X117742329Y-97943796D01*
X117742331Y-97943796D01*
X117857546Y-97857546D01*
X117943796Y-97742331D01*
X117994091Y-97607483D01*
X118000500Y-97547873D01*
X118299500Y-97547873D01*
X118305909Y-97607485D01*
X118356202Y-97742329D01*
X118356203Y-97742330D01*
X118356204Y-97742331D01*
X118442454Y-97857546D01*
X118557669Y-97943796D01*
X118557670Y-97943797D01*
X118668605Y-97985172D01*
X118692517Y-97994091D01*
X118752127Y-98000500D01*
X121247872Y-98000499D01*
X121307483Y-97994091D01*
X121374907Y-97968943D01*
X121442329Y-97943797D01*
X121442329Y-97943796D01*
X121442331Y-97943796D01*
X121557546Y-97857546D01*
X121643796Y-97742331D01*
X121694091Y-97607483D01*
X121700500Y-97547873D01*
X128299500Y-97547873D01*
X128305909Y-97607485D01*
X128356202Y-97742329D01*
X128356203Y-97742330D01*
X128356204Y-97742331D01*
X128442454Y-97857546D01*
X128557669Y-97943796D01*
X128557670Y-97943797D01*
X128668605Y-97985172D01*
X128692517Y-97994091D01*
X128752127Y-98000500D01*
X131247872Y-98000499D01*
X131307483Y-97994091D01*
X131374907Y-97968943D01*
X131442329Y-97943797D01*
X131442329Y-97943796D01*
X131442331Y-97943796D01*
X131557546Y-97857546D01*
X131643796Y-97742331D01*
X131694091Y-97607483D01*
X131700500Y-97547873D01*
X131999500Y-97547873D01*
X132005909Y-97607485D01*
X132056202Y-97742329D01*
X132056203Y-97742330D01*
X132056204Y-97742331D01*
X132142454Y-97857546D01*
X132257669Y-97943796D01*
X132257670Y-97943797D01*
X132368605Y-97985172D01*
X132392517Y-97994091D01*
X132452127Y-98000500D01*
X134947872Y-98000499D01*
X135007483Y-97994091D01*
X135074907Y-97968943D01*
X135142329Y-97943797D01*
X135142329Y-97943796D01*
X135142331Y-97943796D01*
X135257546Y-97857546D01*
X135343796Y-97742331D01*
X135394091Y-97607483D01*
X135400500Y-97547873D01*
X135699500Y-97547873D01*
X135705909Y-97607485D01*
X135756202Y-97742329D01*
X135756203Y-97742330D01*
X135756204Y-97742331D01*
X135842454Y-97857546D01*
X135957669Y-97943796D01*
X135957670Y-97943797D01*
X136068605Y-97985172D01*
X136092517Y-97994091D01*
X136152127Y-98000500D01*
X138647872Y-98000499D01*
X138707483Y-97994091D01*
X138774907Y-97968943D01*
X138842329Y-97943797D01*
X138842329Y-97943796D01*
X138842331Y-97943796D01*
X138957546Y-97857546D01*
X139043796Y-97742331D01*
X139094091Y-97607483D01*
X139100500Y-97547873D01*
X139100499Y-95052128D01*
X139094895Y-95000000D01*
X141495197Y-95000000D01*
X141514397Y-95366355D01*
X141514397Y-95366356D01*
X141571783Y-95728683D01*
X141666735Y-96083046D01*
X141798201Y-96425527D01*
X141798205Y-96425538D01*
X141964746Y-96752393D01*
X142164556Y-97060073D01*
X142395426Y-97345173D01*
X142419060Y-97368807D01*
X143055141Y-96732725D01*
X143067449Y-96794601D01*
X143122704Y-96877296D01*
X143205399Y-96932551D01*
X143267272Y-96944858D01*
X142631192Y-97580939D01*
X142654826Y-97604573D01*
X142939926Y-97835443D01*
X143247606Y-98035253D01*
X143574461Y-98201794D01*
X143574472Y-98201798D01*
X143916953Y-98333264D01*
X144271316Y-98428216D01*
X144633643Y-98485602D01*
X145000000Y-98504802D01*
X145366355Y-98485602D01*
X145366356Y-98485602D01*
X145728683Y-98428216D01*
X146083046Y-98333264D01*
X146425527Y-98201798D01*
X146425538Y-98201794D01*
X146752393Y-98035253D01*
X147060073Y-97835443D01*
X147345173Y-97604573D01*
X147368806Y-97580938D01*
X146732726Y-96944858D01*
X146794601Y-96932551D01*
X146877296Y-96877296D01*
X146932551Y-96794601D01*
X146944858Y-96732726D01*
X147580938Y-97368806D01*
X147604573Y-97345173D01*
X147835443Y-97060073D01*
X148035253Y-96752393D01*
X148201794Y-96425538D01*
X148201798Y-96425527D01*
X148333264Y-96083046D01*
X148428216Y-95728683D01*
X148485602Y-95366356D01*
X148485602Y-95366355D01*
X148504802Y-95000000D01*
X148485602Y-94633644D01*
X148485602Y-94633643D01*
X148428216Y-94271316D01*
X148333264Y-93916953D01*
X148201794Y-93574461D01*
X148201791Y-93574456D01*
X148035253Y-93247607D01*
X147835443Y-92939926D01*
X147604573Y-92654826D01*
X147580939Y-92631192D01*
X146944858Y-93267272D01*
X146932551Y-93205399D01*
X146877296Y-93122704D01*
X146794601Y-93067449D01*
X146732725Y-93055141D01*
X147368807Y-92419060D01*
X147345173Y-92395426D01*
X147060073Y-92164556D01*
X146752393Y-91964746D01*
X146425538Y-91798205D01*
X146425527Y-91798201D01*
X146083046Y-91666735D01*
X145728683Y-91571783D01*
X145366356Y-91514397D01*
X145000000Y-91495197D01*
X144633644Y-91514397D01*
X144633643Y-91514397D01*
X144271316Y-91571783D01*
X143916953Y-91666735D01*
X143574461Y-91798205D01*
X143574456Y-91798208D01*
X143247607Y-91964746D01*
X142939926Y-92164556D01*
X142654827Y-92395425D01*
X142631192Y-92419059D01*
X143267274Y-93055141D01*
X143205399Y-93067449D01*
X143122704Y-93122704D01*
X143067449Y-93205399D01*
X143055141Y-93267274D01*
X142419059Y-92631192D01*
X142395425Y-92654827D01*
X142164556Y-92939926D01*
X141964746Y-93247607D01*
X141798208Y-93574456D01*
X141798205Y-93574461D01*
X141666735Y-93916953D01*
X141571783Y-94271316D01*
X141514397Y-94633643D01*
X141514397Y-94633644D01*
X141495197Y-95000000D01*
X139094895Y-95000000D01*
X139094091Y-94992517D01*
X139094089Y-94992512D01*
X139043797Y-94857670D01*
X139043796Y-94857669D01*
X138974053Y-94764505D01*
X138957546Y-94742454D01*
X138842331Y-94656204D01*
X138842330Y-94656203D01*
X138842329Y-94656202D01*
X138707487Y-94605910D01*
X138707484Y-94605909D01*
X138707483Y-94605909D01*
X138647873Y-94599500D01*
X136152126Y-94599500D01*
X136092514Y-94605909D01*
X135957670Y-94656202D01*
X135957669Y-94656203D01*
X135842454Y-94742454D01*
X135756203Y-94857669D01*
X135756202Y-94857670D01*
X135705910Y-94992512D01*
X135705909Y-94992517D01*
X135699500Y-95052126D01*
X135699500Y-97547873D01*
X135400500Y-97547873D01*
X135400499Y-95052128D01*
X135394091Y-94992517D01*
X135394089Y-94992512D01*
X135343797Y-94857670D01*
X135343796Y-94857669D01*
X135274053Y-94764505D01*
X135257546Y-94742454D01*
X135142331Y-94656204D01*
X135142330Y-94656203D01*
X135142329Y-94656202D01*
X135007487Y-94605910D01*
X135007484Y-94605909D01*
X135007483Y-94605909D01*
X134947873Y-94599500D01*
X132452126Y-94599500D01*
X132392514Y-94605909D01*
X132257670Y-94656202D01*
X132257669Y-94656203D01*
X132142454Y-94742454D01*
X132056203Y-94857669D01*
X132056202Y-94857670D01*
X132005910Y-94992512D01*
X132005909Y-94992517D01*
X131999500Y-95052126D01*
X131999500Y-97547873D01*
X131700500Y-97547873D01*
X131700499Y-95052128D01*
X131694091Y-94992517D01*
X131694089Y-94992512D01*
X131643797Y-94857670D01*
X131643796Y-94857669D01*
X131574053Y-94764505D01*
X131557546Y-94742454D01*
X131442331Y-94656204D01*
X131442330Y-94656203D01*
X131442329Y-94656202D01*
X131307487Y-94605910D01*
X131307484Y-94605909D01*
X131307483Y-94605909D01*
X131247873Y-94599500D01*
X128752126Y-94599500D01*
X128692514Y-94605909D01*
X128557670Y-94656202D01*
X128557669Y-94656203D01*
X128442454Y-94742454D01*
X128356203Y-94857669D01*
X128356202Y-94857670D01*
X128305910Y-94992512D01*
X128305909Y-94992517D01*
X128299500Y-95052126D01*
X128299500Y-97547873D01*
X121700500Y-97547873D01*
X121700499Y-95847873D01*
X121999500Y-95847873D01*
X122005909Y-95907485D01*
X122056202Y-96042329D01*
X122056203Y-96042330D01*
X122056204Y-96042331D01*
X122142454Y-96157546D01*
X122257669Y-96243796D01*
X122257670Y-96243797D01*
X122368605Y-96285172D01*
X122392517Y-96294091D01*
X122452127Y-96300500D01*
X124947872Y-96300499D01*
X125007483Y-96294091D01*
X125074907Y-96268943D01*
X125142329Y-96243797D01*
X125142329Y-96243796D01*
X125142331Y-96243796D01*
X125257546Y-96157546D01*
X125343796Y-96042331D01*
X125394091Y-95907483D01*
X125400500Y-95847873D01*
X125400500Y-93847873D01*
X128299500Y-93847873D01*
X128305909Y-93907485D01*
X128356202Y-94042329D01*
X128356203Y-94042330D01*
X128356204Y-94042331D01*
X128442454Y-94157546D01*
X128557669Y-94243796D01*
X128557670Y-94243797D01*
X128631596Y-94271369D01*
X128692517Y-94294091D01*
X128752127Y-94300500D01*
X131247872Y-94300499D01*
X131307483Y-94294091D01*
X131374907Y-94268943D01*
X131442329Y-94243797D01*
X131442329Y-94243796D01*
X131442331Y-94243796D01*
X131557546Y-94157546D01*
X131643796Y-94042331D01*
X131694091Y-93907483D01*
X131700500Y-93847873D01*
X131999500Y-93847873D01*
X132005909Y-93907485D01*
X132056202Y-94042329D01*
X132056203Y-94042330D01*
X132056204Y-94042331D01*
X132142454Y-94157546D01*
X132257669Y-94243796D01*
X132257670Y-94243797D01*
X132331596Y-94271369D01*
X132392517Y-94294091D01*
X132452127Y-94300500D01*
X134947872Y-94300499D01*
X135007483Y-94294091D01*
X135074907Y-94268943D01*
X135142329Y-94243797D01*
X135142329Y-94243796D01*
X135142331Y-94243796D01*
X135257546Y-94157546D01*
X135343796Y-94042331D01*
X135394091Y-93907483D01*
X135400500Y-93847873D01*
X135699500Y-93847873D01*
X135705909Y-93907485D01*
X135756202Y-94042329D01*
X135756203Y-94042330D01*
X135756204Y-94042331D01*
X135842454Y-94157546D01*
X135957669Y-94243796D01*
X135957670Y-94243797D01*
X136031596Y-94271369D01*
X136092517Y-94294091D01*
X136152127Y-94300500D01*
X138647872Y-94300499D01*
X138707483Y-94294091D01*
X138774907Y-94268943D01*
X138842329Y-94243797D01*
X138842329Y-94243796D01*
X138842331Y-94243796D01*
X138957546Y-94157546D01*
X139043796Y-94042331D01*
X139094091Y-93907483D01*
X139100500Y-93847873D01*
X139100499Y-91352128D01*
X139094091Y-91292517D01*
X139094089Y-91292512D01*
X139043797Y-91157670D01*
X139043796Y-91157669D01*
X138957546Y-91042454D01*
X138842331Y-90956204D01*
X138842330Y-90956203D01*
X138842329Y-90956202D01*
X138707487Y-90905910D01*
X138707484Y-90905909D01*
X138707483Y-90905909D01*
X138647873Y-90899500D01*
X136152126Y-90899500D01*
X136092514Y-90905909D01*
X135957670Y-90956202D01*
X135957669Y-90956203D01*
X135842454Y-91042454D01*
X135756203Y-91157669D01*
X135756202Y-91157670D01*
X135705910Y-91292512D01*
X135705909Y-91292517D01*
X135699500Y-91352126D01*
X135699500Y-93847873D01*
X135400500Y-93847873D01*
X135400499Y-91352128D01*
X135394091Y-91292517D01*
X135394089Y-91292512D01*
X135343797Y-91157670D01*
X135343796Y-91157669D01*
X135257546Y-91042454D01*
X135142331Y-90956204D01*
X135142330Y-90956203D01*
X135142329Y-90956202D01*
X135007487Y-90905910D01*
X135007484Y-90905909D01*
X135007483Y-90905909D01*
X134947873Y-90899500D01*
X132452126Y-90899500D01*
X132392514Y-90905909D01*
X132257670Y-90956202D01*
X132257669Y-90956203D01*
X132142454Y-91042454D01*
X132056203Y-91157669D01*
X132056202Y-91157670D01*
X132005910Y-91292512D01*
X132005909Y-91292517D01*
X131999500Y-91352126D01*
X131999500Y-93847873D01*
X131700500Y-93847873D01*
X131700499Y-91352128D01*
X131694091Y-91292517D01*
X131694089Y-91292512D01*
X131643797Y-91157670D01*
X131643796Y-91157669D01*
X131557546Y-91042454D01*
X131442331Y-90956204D01*
X131442330Y-90956203D01*
X131442329Y-90956202D01*
X131307487Y-90905910D01*
X131307484Y-90905909D01*
X131307483Y-90905909D01*
X131247873Y-90899500D01*
X128752126Y-90899500D01*
X128692514Y-90905909D01*
X128557670Y-90956202D01*
X128557669Y-90956203D01*
X128442454Y-91042454D01*
X128356203Y-91157669D01*
X128356202Y-91157670D01*
X128305910Y-91292512D01*
X128305909Y-91292517D01*
X128299500Y-91352126D01*
X128299500Y-93847873D01*
X125400500Y-93847873D01*
X125400499Y-88747873D01*
X128299500Y-88747873D01*
X128305909Y-88807485D01*
X128356202Y-88942329D01*
X128356203Y-88942330D01*
X128356204Y-88942331D01*
X128442454Y-89057546D01*
X128557669Y-89143796D01*
X128557670Y-89143797D01*
X128668605Y-89185172D01*
X128692517Y-89194091D01*
X128752127Y-89200500D01*
X131247872Y-89200499D01*
X131307483Y-89194091D01*
X131374907Y-89168943D01*
X131442329Y-89143797D01*
X131442329Y-89143796D01*
X131442331Y-89143796D01*
X131557546Y-89057546D01*
X131643796Y-88942331D01*
X131694091Y-88807483D01*
X131700500Y-88747873D01*
X131999500Y-88747873D01*
X132005909Y-88807485D01*
X132056202Y-88942329D01*
X132056203Y-88942330D01*
X132056204Y-88942331D01*
X132142454Y-89057546D01*
X132257669Y-89143796D01*
X132257670Y-89143797D01*
X132368605Y-89185172D01*
X132392517Y-89194091D01*
X132452127Y-89200500D01*
X134947872Y-89200499D01*
X135007483Y-89194091D01*
X135074907Y-89168943D01*
X135142329Y-89143797D01*
X135142329Y-89143796D01*
X135142331Y-89143796D01*
X135257546Y-89057546D01*
X135343796Y-88942331D01*
X135394091Y-88807483D01*
X135400500Y-88747873D01*
X135699500Y-88747873D01*
X135705909Y-88807485D01*
X135756202Y-88942329D01*
X135756203Y-88942330D01*
X135756204Y-88942331D01*
X135842454Y-89057546D01*
X135957669Y-89143796D01*
X135957670Y-89143797D01*
X136068605Y-89185172D01*
X136092517Y-89194091D01*
X136152127Y-89200500D01*
X138647872Y-89200499D01*
X138707483Y-89194091D01*
X138774907Y-89168943D01*
X138842329Y-89143797D01*
X138842329Y-89143796D01*
X138842331Y-89143796D01*
X138957546Y-89057546D01*
X139043796Y-88942331D01*
X139094091Y-88807483D01*
X139100500Y-88747873D01*
X139399500Y-88747873D01*
X139405909Y-88807485D01*
X139456202Y-88942329D01*
X139456203Y-88942330D01*
X139456204Y-88942331D01*
X139542454Y-89057546D01*
X139657669Y-89143796D01*
X139657670Y-89143797D01*
X139768605Y-89185172D01*
X139792517Y-89194091D01*
X139852127Y-89200500D01*
X142347872Y-89200499D01*
X142407483Y-89194091D01*
X142474907Y-89168943D01*
X142542329Y-89143797D01*
X142542329Y-89143796D01*
X142542331Y-89143796D01*
X142657546Y-89057546D01*
X142743796Y-88942331D01*
X142794091Y-88807483D01*
X142800500Y-88747873D01*
X143099500Y-88747873D01*
X143105909Y-88807485D01*
X143156202Y-88942329D01*
X143156203Y-88942330D01*
X143156204Y-88942331D01*
X143242454Y-89057546D01*
X143357669Y-89143796D01*
X143357670Y-89143797D01*
X143468605Y-89185172D01*
X143492517Y-89194091D01*
X143552127Y-89200500D01*
X146047872Y-89200499D01*
X146107483Y-89194091D01*
X146174907Y-89168943D01*
X146242329Y-89143797D01*
X146242329Y-89143796D01*
X146242331Y-89143796D01*
X146357546Y-89057546D01*
X146443796Y-88942331D01*
X146494091Y-88807483D01*
X146500500Y-88747873D01*
X146500499Y-86252128D01*
X146494091Y-86192517D01*
X146494089Y-86192512D01*
X146443797Y-86057670D01*
X146443796Y-86057669D01*
X146357546Y-85942454D01*
X146242331Y-85856204D01*
X146242330Y-85856203D01*
X146242329Y-85856202D01*
X146107487Y-85805910D01*
X146107484Y-85805909D01*
X146107483Y-85805909D01*
X146047873Y-85799500D01*
X143552126Y-85799500D01*
X143492514Y-85805909D01*
X143357670Y-85856202D01*
X143357669Y-85856203D01*
X143242454Y-85942454D01*
X143156203Y-86057669D01*
X143156202Y-86057670D01*
X143105910Y-86192512D01*
X143105909Y-86192517D01*
X143099500Y-86252126D01*
X143099500Y-88747873D01*
X142800500Y-88747873D01*
X142800499Y-86252128D01*
X142794091Y-86192517D01*
X142794089Y-86192512D01*
X142743797Y-86057670D01*
X142743796Y-86057669D01*
X142657546Y-85942454D01*
X142542331Y-85856204D01*
X142542330Y-85856203D01*
X142542329Y-85856202D01*
X142407487Y-85805910D01*
X142407484Y-85805909D01*
X142407483Y-85805909D01*
X142347873Y-85799500D01*
X139852126Y-85799500D01*
X139792514Y-85805909D01*
X139657670Y-85856202D01*
X139657669Y-85856203D01*
X139542454Y-85942454D01*
X139456203Y-86057669D01*
X139456202Y-86057670D01*
X139405910Y-86192512D01*
X139405909Y-86192517D01*
X139399500Y-86252126D01*
X139399500Y-88747873D01*
X139100500Y-88747873D01*
X139100499Y-86252128D01*
X139094091Y-86192517D01*
X139094089Y-86192512D01*
X139043797Y-86057670D01*
X139043796Y-86057669D01*
X138957546Y-85942454D01*
X138842331Y-85856204D01*
X138842330Y-85856203D01*
X138842329Y-85856202D01*
X138707487Y-85805910D01*
X138707484Y-85805909D01*
X138707483Y-85805909D01*
X138647873Y-85799500D01*
X136152126Y-85799500D01*
X136092514Y-85805909D01*
X135957670Y-85856202D01*
X135957669Y-85856203D01*
X135842454Y-85942454D01*
X135756203Y-86057669D01*
X135756202Y-86057670D01*
X135705910Y-86192512D01*
X135705909Y-86192517D01*
X135699500Y-86252126D01*
X135699500Y-88747873D01*
X135400500Y-88747873D01*
X135400499Y-86252128D01*
X135394091Y-86192517D01*
X135394089Y-86192512D01*
X135343797Y-86057670D01*
X135343796Y-86057669D01*
X135257546Y-85942454D01*
X135142331Y-85856204D01*
X135142330Y-85856203D01*
X135142329Y-85856202D01*
X135007487Y-85805910D01*
X135007484Y-85805909D01*
X135007483Y-85805909D01*
X134947873Y-85799500D01*
X132452126Y-85799500D01*
X132392514Y-85805909D01*
X132257670Y-85856202D01*
X132257669Y-85856203D01*
X132142454Y-85942454D01*
X132056203Y-86057669D01*
X132056202Y-86057670D01*
X132005910Y-86192512D01*
X132005909Y-86192517D01*
X131999500Y-86252126D01*
X131999500Y-88747873D01*
X131700500Y-88747873D01*
X131700499Y-86252128D01*
X131694091Y-86192517D01*
X131694089Y-86192512D01*
X131643797Y-86057670D01*
X131643796Y-86057669D01*
X131557546Y-85942454D01*
X131442331Y-85856204D01*
X131442330Y-85856203D01*
X131442329Y-85856202D01*
X131307487Y-85805910D01*
X131307484Y-85805909D01*
X131307483Y-85805909D01*
X131247873Y-85799500D01*
X128752126Y-85799500D01*
X128692514Y-85805909D01*
X128557670Y-85856202D01*
X128557669Y-85856203D01*
X128442454Y-85942454D01*
X128356203Y-86057669D01*
X128356202Y-86057670D01*
X128305910Y-86192512D01*
X128305909Y-86192517D01*
X128299500Y-86252126D01*
X128299500Y-88747873D01*
X125400499Y-88747873D01*
X125400499Y-83647873D01*
X128299500Y-83647873D01*
X128305909Y-83707485D01*
X128356202Y-83842329D01*
X128356203Y-83842330D01*
X128356204Y-83842331D01*
X128442454Y-83957546D01*
X128557669Y-84043796D01*
X128557670Y-84043797D01*
X128668605Y-84085172D01*
X128692517Y-84094091D01*
X128752127Y-84100500D01*
X131247872Y-84100499D01*
X131307483Y-84094091D01*
X131374907Y-84068943D01*
X131442329Y-84043797D01*
X131442329Y-84043796D01*
X131442331Y-84043796D01*
X131557546Y-83957546D01*
X131643796Y-83842331D01*
X131694091Y-83707483D01*
X131700500Y-83647873D01*
X131999500Y-83647873D01*
X132005909Y-83707485D01*
X132056202Y-83842329D01*
X132056203Y-83842330D01*
X132056204Y-83842331D01*
X132142454Y-83957546D01*
X132257669Y-84043796D01*
X132257670Y-84043797D01*
X132368605Y-84085172D01*
X132392517Y-84094091D01*
X132452127Y-84100500D01*
X134947872Y-84100499D01*
X135007483Y-84094091D01*
X135074907Y-84068943D01*
X135142329Y-84043797D01*
X135142329Y-84043796D01*
X135142331Y-84043796D01*
X135257546Y-83957546D01*
X135343796Y-83842331D01*
X135394091Y-83707483D01*
X135400500Y-83647873D01*
X135699500Y-83647873D01*
X135705909Y-83707485D01*
X135756202Y-83842329D01*
X135756203Y-83842330D01*
X135756204Y-83842331D01*
X135842454Y-83957546D01*
X135957669Y-84043796D01*
X135957670Y-84043797D01*
X136068605Y-84085172D01*
X136092517Y-84094091D01*
X136152127Y-84100500D01*
X138647872Y-84100499D01*
X138707483Y-84094091D01*
X138774907Y-84068943D01*
X138842329Y-84043797D01*
X138842329Y-84043796D01*
X138842331Y-84043796D01*
X138957546Y-83957546D01*
X139043796Y-83842331D01*
X139094091Y-83707483D01*
X139100500Y-83647873D01*
X139399500Y-83647873D01*
X139405909Y-83707485D01*
X139456202Y-83842329D01*
X139456203Y-83842330D01*
X139456204Y-83842331D01*
X139542454Y-83957546D01*
X139657669Y-84043796D01*
X139657670Y-84043797D01*
X139768605Y-84085172D01*
X139792517Y-84094091D01*
X139852127Y-84100500D01*
X142347872Y-84100499D01*
X142407483Y-84094091D01*
X142474907Y-84068943D01*
X142542329Y-84043797D01*
X142542329Y-84043796D01*
X142542331Y-84043796D01*
X142657546Y-83957546D01*
X142743796Y-83842331D01*
X142794091Y-83707483D01*
X142800500Y-83647873D01*
X143099500Y-83647873D01*
X143105909Y-83707485D01*
X143156202Y-83842329D01*
X143156203Y-83842330D01*
X143156204Y-83842331D01*
X143242454Y-83957546D01*
X143357669Y-84043796D01*
X143357670Y-84043797D01*
X143468605Y-84085172D01*
X143492517Y-84094091D01*
X143552127Y-84100500D01*
X146047872Y-84100499D01*
X146107483Y-84094091D01*
X146174907Y-84068943D01*
X146242329Y-84043797D01*
X146242329Y-84043796D01*
X146242331Y-84043796D01*
X146357546Y-83957546D01*
X146443796Y-83842331D01*
X146494091Y-83707483D01*
X146500500Y-83647873D01*
X146500499Y-81152128D01*
X146494091Y-81092517D01*
X146494089Y-81092512D01*
X146443797Y-80957670D01*
X146443796Y-80957669D01*
X146357546Y-80842454D01*
X146242331Y-80756204D01*
X146242330Y-80756203D01*
X146242329Y-80756202D01*
X146107487Y-80705910D01*
X146107484Y-80705909D01*
X146107483Y-80705909D01*
X146047873Y-80699500D01*
X143552126Y-80699500D01*
X143492514Y-80705909D01*
X143357670Y-80756202D01*
X143357669Y-80756203D01*
X143242454Y-80842454D01*
X143156203Y-80957669D01*
X143156202Y-80957670D01*
X143105910Y-81092512D01*
X143105909Y-81092517D01*
X143099500Y-81152126D01*
X143099500Y-83647873D01*
X142800500Y-83647873D01*
X142800499Y-81152128D01*
X142794091Y-81092517D01*
X142794089Y-81092512D01*
X142743797Y-80957670D01*
X142743796Y-80957669D01*
X142657546Y-80842454D01*
X142542331Y-80756204D01*
X142542330Y-80756203D01*
X142542329Y-80756202D01*
X142407487Y-80705910D01*
X142407484Y-80705909D01*
X142407483Y-80705909D01*
X142347873Y-80699500D01*
X139852126Y-80699500D01*
X139792514Y-80705909D01*
X139657670Y-80756202D01*
X139657669Y-80756203D01*
X139542454Y-80842454D01*
X139456203Y-80957669D01*
X139456202Y-80957670D01*
X139405910Y-81092512D01*
X139405909Y-81092517D01*
X139399500Y-81152126D01*
X139399500Y-83647873D01*
X139100500Y-83647873D01*
X139100499Y-81152128D01*
X139094091Y-81092517D01*
X139094089Y-81092512D01*
X139043797Y-80957670D01*
X139043796Y-80957669D01*
X138957546Y-80842454D01*
X138842331Y-80756204D01*
X138842330Y-80756203D01*
X138842329Y-80756202D01*
X138707487Y-80705910D01*
X138707484Y-80705909D01*
X138707483Y-80705909D01*
X138647873Y-80699500D01*
X136152126Y-80699500D01*
X136092514Y-80705909D01*
X135957670Y-80756202D01*
X135957669Y-80756203D01*
X135842454Y-80842454D01*
X135756203Y-80957669D01*
X135756202Y-80957670D01*
X135705910Y-81092512D01*
X135705909Y-81092517D01*
X135699500Y-81152126D01*
X135699500Y-83647873D01*
X135400500Y-83647873D01*
X135400499Y-81152128D01*
X135394091Y-81092517D01*
X135394089Y-81092512D01*
X135343797Y-80957670D01*
X135343796Y-80957669D01*
X135257546Y-80842454D01*
X135142331Y-80756204D01*
X135142330Y-80756203D01*
X135142329Y-80756202D01*
X135007487Y-80705910D01*
X135007484Y-80705909D01*
X135007483Y-80705909D01*
X134947873Y-80699500D01*
X132452126Y-80699500D01*
X132392514Y-80705909D01*
X132257670Y-80756202D01*
X132257669Y-80756203D01*
X132142454Y-80842454D01*
X132056203Y-80957669D01*
X132056202Y-80957670D01*
X132005910Y-81092512D01*
X132005909Y-81092517D01*
X131999500Y-81152126D01*
X131999500Y-83647873D01*
X131700500Y-83647873D01*
X131700499Y-81152128D01*
X131694091Y-81092517D01*
X131694089Y-81092512D01*
X131643797Y-80957670D01*
X131643796Y-80957669D01*
X131557546Y-80842454D01*
X131442331Y-80756204D01*
X131442330Y-80756203D01*
X131442329Y-80756202D01*
X131307487Y-80705910D01*
X131307484Y-80705909D01*
X131307483Y-80705909D01*
X131247873Y-80699500D01*
X128752126Y-80699500D01*
X128692514Y-80705909D01*
X128557670Y-80756202D01*
X128557669Y-80756203D01*
X128442454Y-80842454D01*
X128356203Y-80957669D01*
X128356202Y-80957670D01*
X128305910Y-81092512D01*
X128305909Y-81092517D01*
X128299500Y-81152126D01*
X128299500Y-83647873D01*
X125400499Y-83647873D01*
X125400499Y-79947873D01*
X128299500Y-79947873D01*
X128305909Y-80007485D01*
X128356202Y-80142329D01*
X128356203Y-80142330D01*
X128356204Y-80142331D01*
X128442454Y-80257546D01*
X128557669Y-80343796D01*
X128557670Y-80343797D01*
X128668605Y-80385172D01*
X128692517Y-80394091D01*
X128752127Y-80400500D01*
X131247872Y-80400499D01*
X131307483Y-80394091D01*
X131374907Y-80368943D01*
X131442329Y-80343797D01*
X131442329Y-80343796D01*
X131442331Y-80343796D01*
X131557546Y-80257546D01*
X131643796Y-80142331D01*
X131694091Y-80007483D01*
X131700500Y-79947873D01*
X131700500Y-79247873D01*
X132299500Y-79247873D01*
X132305909Y-79307485D01*
X132356202Y-79442329D01*
X132356203Y-79442330D01*
X132356204Y-79442331D01*
X132442454Y-79557546D01*
X132557669Y-79643796D01*
X132557670Y-79643797D01*
X132668605Y-79685172D01*
X132692517Y-79694091D01*
X132752127Y-79700500D01*
X135247872Y-79700499D01*
X135307483Y-79694091D01*
X135374907Y-79668943D01*
X135442329Y-79643797D01*
X135442329Y-79643796D01*
X135442331Y-79643796D01*
X135557546Y-79557546D01*
X135643796Y-79442331D01*
X135694091Y-79307483D01*
X135700500Y-79247873D01*
X135700500Y-77596718D01*
X135716506Y-77552744D01*
X135828375Y-77552744D01*
X135844037Y-77571409D01*
X135848272Y-77590912D01*
X135864811Y-77801069D01*
X135923602Y-78045952D01*
X136019982Y-78278633D01*
X136019986Y-78278640D01*
X136151569Y-78493364D01*
X136151572Y-78493369D01*
X136217410Y-78570455D01*
X136217411Y-78570455D01*
X136787908Y-77999957D01*
X136820577Y-78051948D01*
X136948052Y-78179423D01*
X137000041Y-78212089D01*
X136429542Y-78782588D01*
X136506636Y-78848430D01*
X136506637Y-78848431D01*
X136721359Y-78980013D01*
X136721366Y-78980017D01*
X136954047Y-79076397D01*
X137198930Y-79135188D01*
X137198929Y-79135188D01*
X137450000Y-79154947D01*
X137701069Y-79135188D01*
X137945952Y-79076397D01*
X138178633Y-78980017D01*
X138178640Y-78980013D01*
X138393362Y-78848431D01*
X138393363Y-78848430D01*
X138470455Y-78782588D01*
X138470455Y-78782587D01*
X137899958Y-78212090D01*
X137951948Y-78179423D01*
X138079423Y-78051948D01*
X138112090Y-77999958D01*
X138682587Y-78570455D01*
X138682588Y-78570455D01*
X138748430Y-78493363D01*
X138748431Y-78493362D01*
X138880013Y-78278640D01*
X138880017Y-78278633D01*
X138976397Y-78045952D01*
X139035188Y-77801069D01*
X139054947Y-77550000D01*
X140945052Y-77550000D01*
X140964811Y-77801069D01*
X141023602Y-78045952D01*
X141119982Y-78278633D01*
X141119986Y-78278640D01*
X141251569Y-78493364D01*
X141251572Y-78493369D01*
X141317410Y-78570455D01*
X141317411Y-78570455D01*
X141887908Y-77999957D01*
X141920577Y-78051948D01*
X142048052Y-78179423D01*
X142100041Y-78212090D01*
X141529543Y-78782588D01*
X141606636Y-78848430D01*
X141606637Y-78848431D01*
X141821359Y-78980013D01*
X141821366Y-78980017D01*
X142054047Y-79076397D01*
X142298930Y-79135188D01*
X142298929Y-79135188D01*
X142550000Y-79154947D01*
X142801069Y-79135188D01*
X143045952Y-79076397D01*
X143278633Y-78980017D01*
X143278640Y-78980013D01*
X143493362Y-78848431D01*
X143493363Y-78848430D01*
X143570455Y-78782588D01*
X143570455Y-78782587D01*
X142999958Y-78212090D01*
X143051948Y-78179423D01*
X143179423Y-78051948D01*
X143212090Y-77999958D01*
X143782587Y-78570455D01*
X143782588Y-78570455D01*
X143848430Y-78493363D01*
X143848431Y-78493362D01*
X143980013Y-78278640D01*
X143980017Y-78278633D01*
X144076397Y-78045952D01*
X144135188Y-77801069D01*
X144154947Y-77550000D01*
X144135188Y-77298930D01*
X144076397Y-77054047D01*
X143980017Y-76821366D01*
X143980013Y-76821359D01*
X143848431Y-76606637D01*
X143848430Y-76606636D01*
X143782588Y-76529543D01*
X143212089Y-77100041D01*
X143179423Y-77048052D01*
X143051948Y-76920577D01*
X142999957Y-76887908D01*
X143472865Y-76415001D01*
X144858972Y-76415001D01*
X144864736Y-76477204D01*
X144864738Y-76477218D01*
X144923061Y-76682202D01*
X144923064Y-76682212D01*
X145018059Y-76872988D01*
X145018063Y-76872994D01*
X145146501Y-77043071D01*
X145304003Y-77186653D01*
X145485200Y-77298844D01*
X145485210Y-77298849D01*
X145683935Y-77375836D01*
X145849999Y-77406879D01*
X145850000Y-77406879D01*
X145850000Y-76746170D01*
X145857685Y-76749680D01*
X145964237Y-76765000D01*
X146035763Y-76765000D01*
X146142315Y-76749680D01*
X146150000Y-76746170D01*
X146150000Y-77406879D01*
X146316064Y-77375836D01*
X146514789Y-77298849D01*
X146514799Y-77298844D01*
X146695996Y-77186653D01*
X146853498Y-77043071D01*
X146981936Y-76872994D01*
X146981940Y-76872988D01*
X147076935Y-76682212D01*
X147076938Y-76682202D01*
X147135261Y-76477218D01*
X147135263Y-76477204D01*
X147141027Y-76415001D01*
X147141026Y-76415000D01*
X146477065Y-76415000D01*
X146500000Y-76336889D01*
X146500000Y-76193111D01*
X146477065Y-76115000D01*
X147141026Y-76115000D01*
X147141027Y-76114998D01*
X147135263Y-76052795D01*
X147135261Y-76052781D01*
X147076938Y-75847797D01*
X147076935Y-75847787D01*
X146981940Y-75657011D01*
X146981936Y-75657005D01*
X146853498Y-75486928D01*
X146695996Y-75343346D01*
X146514799Y-75231155D01*
X146514789Y-75231150D01*
X146316063Y-75154162D01*
X146150000Y-75123119D01*
X146150000Y-75783829D01*
X146142315Y-75780320D01*
X146035763Y-75765000D01*
X145964237Y-75765000D01*
X145857685Y-75780320D01*
X145850000Y-75783829D01*
X145850000Y-75123119D01*
X145849999Y-75123119D01*
X145683936Y-75154162D01*
X145485210Y-75231150D01*
X145485200Y-75231155D01*
X145304003Y-75343346D01*
X145146501Y-75486928D01*
X145018063Y-75657005D01*
X145018059Y-75657011D01*
X144923064Y-75847787D01*
X144923061Y-75847797D01*
X144864738Y-76052781D01*
X144864736Y-76052795D01*
X144858972Y-76114998D01*
X144858974Y-76115000D01*
X145522935Y-76115000D01*
X145500000Y-76193111D01*
X145500000Y-76336889D01*
X145522935Y-76415000D01*
X144858974Y-76415000D01*
X144858972Y-76415001D01*
X143472865Y-76415001D01*
X143570455Y-76317411D01*
X143570455Y-76317410D01*
X143493369Y-76251572D01*
X143493364Y-76251569D01*
X143278640Y-76119986D01*
X143278633Y-76119982D01*
X143045952Y-76023602D01*
X142801069Y-75964811D01*
X142801070Y-75964811D01*
X142550000Y-75945052D01*
X142298930Y-75964811D01*
X142054047Y-76023602D01*
X141821366Y-76119982D01*
X141821359Y-76119986D01*
X141606635Y-76251569D01*
X141606630Y-76251572D01*
X141529543Y-76317410D01*
X141529543Y-76317411D01*
X142100041Y-76887909D01*
X142048052Y-76920577D01*
X141920577Y-77048052D01*
X141887909Y-77100041D01*
X141317411Y-76529543D01*
X141317410Y-76529543D01*
X141251572Y-76606630D01*
X141251569Y-76606635D01*
X141119986Y-76821359D01*
X141119982Y-76821366D01*
X141023602Y-77054047D01*
X140964811Y-77298930D01*
X140945052Y-77550000D01*
X139054947Y-77550000D01*
X139035188Y-77298930D01*
X138976397Y-77054047D01*
X138880017Y-76821366D01*
X138880013Y-76821359D01*
X138748431Y-76606637D01*
X138748430Y-76606636D01*
X138682588Y-76529543D01*
X138112089Y-77100041D01*
X138079423Y-77048052D01*
X137951948Y-76920577D01*
X137899957Y-76887908D01*
X138470455Y-76317411D01*
X138470455Y-76317410D01*
X138393369Y-76251572D01*
X138393364Y-76251569D01*
X138178640Y-76119986D01*
X138178633Y-76119982D01*
X137945952Y-76023602D01*
X137701069Y-75964811D01*
X137701070Y-75964811D01*
X137450000Y-75945052D01*
X137198930Y-75964811D01*
X136954047Y-76023602D01*
X136721366Y-76119982D01*
X136721359Y-76119986D01*
X136506635Y-76251569D01*
X136506630Y-76251572D01*
X136429543Y-76317410D01*
X136429543Y-76317411D01*
X137000041Y-76887909D01*
X136948052Y-76920577D01*
X136820577Y-77048052D01*
X136787909Y-77100041D01*
X136217411Y-76529543D01*
X136217410Y-76529543D01*
X136151572Y-76606630D01*
X136151569Y-76606635D01*
X136019986Y-76821359D01*
X136019982Y-76821366D01*
X135923602Y-77054047D01*
X135864811Y-77298930D01*
X135848272Y-77509087D01*
X135828375Y-77552744D01*
X135716506Y-77552744D01*
X135717813Y-77549152D01*
X135720640Y-77547519D01*
X135703191Y-77523057D01*
X135700500Y-77503281D01*
X135700500Y-75399500D01*
X135717813Y-75351934D01*
X135761650Y-75326624D01*
X135774500Y-75325500D01*
X138528545Y-75325500D01*
X138576111Y-75342813D01*
X138600281Y-75381334D01*
X138623392Y-75472597D01*
X138704281Y-75657005D01*
X138719951Y-75692728D01*
X138851429Y-75893969D01*
X139014236Y-76070825D01*
X139203933Y-76218472D01*
X139415344Y-76332882D01*
X139642703Y-76410934D01*
X139879808Y-76450500D01*
X140120192Y-76450500D01*
X140357297Y-76410934D01*
X140584656Y-76332882D01*
X140796067Y-76218472D01*
X140985764Y-76070825D01*
X141148571Y-75893969D01*
X141280049Y-75692728D01*
X141376610Y-75472591D01*
X141399719Y-75381333D01*
X141428179Y-75339473D01*
X141471455Y-75325500D01*
X144707559Y-75325500D01*
X144714008Y-75325781D01*
X144723633Y-75326624D01*
X144753805Y-75329264D01*
X144753805Y-75329263D01*
X144753807Y-75329264D01*
X144792413Y-75318918D01*
X144798703Y-75317524D01*
X144838045Y-75310588D01*
X144842194Y-75308191D01*
X144860055Y-75300794D01*
X144864684Y-75299554D01*
X144897410Y-75276638D01*
X144902844Y-75273175D01*
X144937455Y-75253194D01*
X144963150Y-75222570D01*
X144967489Y-75217835D01*
X145388152Y-74797174D01*
X145434029Y-74775782D01*
X145440478Y-74775500D01*
X146869746Y-74775500D01*
X146869748Y-74775500D01*
X146928231Y-74763867D01*
X146994552Y-74719552D01*
X147038867Y-74653231D01*
X147050500Y-74594748D01*
X147050500Y-72855252D01*
X147038867Y-72796769D01*
X146994552Y-72730448D01*
X146950584Y-72701069D01*
X146928232Y-72686133D01*
X146928233Y-72686133D01*
X146898989Y-72680316D01*
X146869748Y-72674500D01*
X145130252Y-72674500D01*
X145101010Y-72680316D01*
X145071767Y-72686133D01*
X145005449Y-72730447D01*
X145005447Y-72730449D01*
X144961133Y-72796767D01*
X144949500Y-72855253D01*
X144949500Y-74284521D01*
X144932187Y-74332087D01*
X144927826Y-74336847D01*
X144611848Y-74652826D01*
X144565972Y-74674218D01*
X144559522Y-74674500D01*
X141471455Y-74674500D01*
X141423889Y-74657187D01*
X141399719Y-74618666D01*
X141393662Y-74594748D01*
X141376610Y-74527409D01*
X141280049Y-74307272D01*
X141148571Y-74106031D01*
X140985764Y-73929175D01*
X140796067Y-73781528D01*
X140707715Y-73733714D01*
X140584655Y-73667117D01*
X140357295Y-73589065D01*
X140120194Y-73549500D01*
X140120192Y-73549500D01*
X139879808Y-73549500D01*
X139879805Y-73549500D01*
X139642704Y-73589065D01*
X139415344Y-73667117D01*
X139203940Y-73781524D01*
X139203928Y-73781531D01*
X139014234Y-73929176D01*
X138851427Y-74106033D01*
X138719951Y-74307271D01*
X138623392Y-74527402D01*
X138600281Y-74618666D01*
X138571821Y-74660527D01*
X138528545Y-74674500D01*
X135774499Y-74674500D01*
X135726933Y-74657187D01*
X135701623Y-74613350D01*
X135700499Y-74600500D01*
X135700499Y-72496705D01*
X135716501Y-72452740D01*
X135828382Y-72452740D01*
X135844036Y-72471396D01*
X135848271Y-72490899D01*
X135864811Y-72701069D01*
X135923602Y-72945952D01*
X136019982Y-73178633D01*
X136019986Y-73178640D01*
X136151569Y-73393364D01*
X136151572Y-73393369D01*
X136217410Y-73470455D01*
X136217411Y-73470455D01*
X136787908Y-72899957D01*
X136820577Y-72951948D01*
X136948052Y-73079423D01*
X137000041Y-73112089D01*
X136429542Y-73682588D01*
X136506636Y-73748430D01*
X136506637Y-73748431D01*
X136721359Y-73880013D01*
X136721366Y-73880017D01*
X136954047Y-73976397D01*
X137198930Y-74035188D01*
X137198929Y-74035188D01*
X137450000Y-74054947D01*
X137701069Y-74035188D01*
X137945952Y-73976397D01*
X138178633Y-73880017D01*
X138178640Y-73880013D01*
X138393362Y-73748431D01*
X138393363Y-73748430D01*
X138470455Y-73682588D01*
X138470455Y-73682587D01*
X137899958Y-73112090D01*
X137951948Y-73079423D01*
X138079423Y-72951948D01*
X138112090Y-72899958D01*
X138682587Y-73470455D01*
X138682588Y-73470455D01*
X138748430Y-73393363D01*
X138748431Y-73393362D01*
X138880013Y-73178640D01*
X138880017Y-73178633D01*
X138976397Y-72945952D01*
X139035188Y-72701069D01*
X139054947Y-72450000D01*
X140945052Y-72450000D01*
X140964811Y-72701069D01*
X141023602Y-72945952D01*
X141119982Y-73178633D01*
X141119986Y-73178640D01*
X141251569Y-73393364D01*
X141251572Y-73393369D01*
X141317410Y-73470455D01*
X141317411Y-73470455D01*
X141887908Y-72899957D01*
X141920577Y-72951948D01*
X142048052Y-73079423D01*
X142100041Y-73112089D01*
X141529542Y-73682588D01*
X141606636Y-73748430D01*
X141606637Y-73748431D01*
X141821359Y-73880013D01*
X141821366Y-73880017D01*
X142054047Y-73976397D01*
X142298930Y-74035188D01*
X142298929Y-74035188D01*
X142550000Y-74054947D01*
X142801069Y-74035188D01*
X143045952Y-73976397D01*
X143278633Y-73880017D01*
X143278640Y-73880013D01*
X143493362Y-73748431D01*
X143493363Y-73748430D01*
X143570455Y-73682588D01*
X143570455Y-73682587D01*
X142999958Y-73112090D01*
X143051948Y-73079423D01*
X143179423Y-72951948D01*
X143212090Y-72899958D01*
X143782587Y-73470455D01*
X143782588Y-73470455D01*
X143848430Y-73393363D01*
X143848431Y-73393362D01*
X143980013Y-73178640D01*
X143980017Y-73178633D01*
X144076397Y-72945952D01*
X144135188Y-72701069D01*
X144154947Y-72450000D01*
X144135188Y-72198930D01*
X144076397Y-71954047D01*
X143980017Y-71721366D01*
X143980013Y-71721359D01*
X143848431Y-71506637D01*
X143848430Y-71506636D01*
X143782588Y-71429543D01*
X143212089Y-72000041D01*
X143179423Y-71948052D01*
X143051948Y-71820577D01*
X142999957Y-71787908D01*
X143570455Y-71217411D01*
X143570455Y-71217410D01*
X143493369Y-71151572D01*
X143493364Y-71151569D01*
X143278640Y-71019986D01*
X143278633Y-71019982D01*
X143045952Y-70923602D01*
X142801069Y-70864811D01*
X142801070Y-70864811D01*
X142550000Y-70845052D01*
X142298930Y-70864811D01*
X142054047Y-70923602D01*
X141821366Y-71019982D01*
X141821359Y-71019986D01*
X141606635Y-71151569D01*
X141606630Y-71151572D01*
X141529543Y-71217410D01*
X141529543Y-71217411D01*
X142100041Y-71787909D01*
X142048052Y-71820577D01*
X141920577Y-71948052D01*
X141887909Y-72000041D01*
X141317411Y-71429543D01*
X141317410Y-71429543D01*
X141251572Y-71506630D01*
X141251569Y-71506635D01*
X141119986Y-71721359D01*
X141119982Y-71721366D01*
X141023602Y-71954047D01*
X140964811Y-72198930D01*
X140945052Y-72450000D01*
X139054947Y-72450000D01*
X139035188Y-72198930D01*
X138976397Y-71954047D01*
X138880017Y-71721366D01*
X138880013Y-71721359D01*
X138748431Y-71506637D01*
X138748430Y-71506636D01*
X138682588Y-71429543D01*
X138112089Y-72000041D01*
X138079423Y-71948052D01*
X137951948Y-71820577D01*
X137899957Y-71787908D01*
X138470455Y-71217411D01*
X138470455Y-71217410D01*
X138393369Y-71151572D01*
X138393364Y-71151569D01*
X138178640Y-71019986D01*
X138178633Y-71019982D01*
X137945952Y-70923602D01*
X137701069Y-70864811D01*
X137701070Y-70864811D01*
X137450000Y-70845052D01*
X137198930Y-70864811D01*
X136954047Y-70923602D01*
X136721366Y-71019982D01*
X136721359Y-71019986D01*
X136506635Y-71151569D01*
X136506630Y-71151572D01*
X136429543Y-71217410D01*
X136429543Y-71217411D01*
X137000041Y-71787909D01*
X136948052Y-71820577D01*
X136820577Y-71948052D01*
X136787909Y-72000041D01*
X136217411Y-71429543D01*
X136217410Y-71429543D01*
X136151572Y-71506630D01*
X136151569Y-71506635D01*
X136019986Y-71721359D01*
X136019982Y-71721366D01*
X135923602Y-71954047D01*
X135864811Y-72198930D01*
X135848271Y-72409100D01*
X135828382Y-72452740D01*
X135716501Y-72452740D01*
X135717812Y-72449139D01*
X135720626Y-72447514D01*
X135703190Y-72423070D01*
X135700499Y-72403294D01*
X135700499Y-70752126D01*
X135698955Y-70737766D01*
X135694091Y-70692517D01*
X135694089Y-70692512D01*
X135643797Y-70557670D01*
X135643796Y-70557669D01*
X135557546Y-70442454D01*
X135442331Y-70356204D01*
X135442330Y-70356203D01*
X135442329Y-70356202D01*
X135307487Y-70305910D01*
X135307484Y-70305909D01*
X135307483Y-70305909D01*
X135247873Y-70299500D01*
X132752126Y-70299500D01*
X132692514Y-70305909D01*
X132557670Y-70356202D01*
X132557669Y-70356203D01*
X132442454Y-70442454D01*
X132356203Y-70557669D01*
X132356202Y-70557670D01*
X132305910Y-70692512D01*
X132305909Y-70692517D01*
X132299500Y-70752126D01*
X132299500Y-79247873D01*
X131700500Y-79247873D01*
X131700499Y-77452128D01*
X131694091Y-77392517D01*
X131694089Y-77392512D01*
X131643797Y-77257670D01*
X131643796Y-77257669D01*
X131557546Y-77142454D01*
X131442331Y-77056204D01*
X131442330Y-77056203D01*
X131442329Y-77056202D01*
X131307487Y-77005910D01*
X131307484Y-77005909D01*
X131307483Y-77005909D01*
X131247873Y-76999500D01*
X128752126Y-76999500D01*
X128692514Y-77005909D01*
X128557670Y-77056202D01*
X128557669Y-77056203D01*
X128442454Y-77142454D01*
X128356203Y-77257669D01*
X128356202Y-77257670D01*
X128305910Y-77392512D01*
X128305909Y-77392517D01*
X128299500Y-77452126D01*
X128299500Y-79947873D01*
X125400499Y-79947873D01*
X125400499Y-76247873D01*
X128299500Y-76247873D01*
X128305909Y-76307485D01*
X128356202Y-76442329D01*
X128356203Y-76442330D01*
X128362319Y-76450500D01*
X128442454Y-76557546D01*
X128557669Y-76643796D01*
X128557670Y-76643797D01*
X128660641Y-76682202D01*
X128692517Y-76694091D01*
X128752127Y-76700500D01*
X131247872Y-76700499D01*
X131307483Y-76694091D01*
X131374907Y-76668943D01*
X131442329Y-76643797D01*
X131442329Y-76643796D01*
X131442331Y-76643796D01*
X131557546Y-76557546D01*
X131643796Y-76442331D01*
X131653990Y-76415001D01*
X131683123Y-76336889D01*
X131694091Y-76307483D01*
X131700500Y-76247873D01*
X131700499Y-73752128D01*
X131700101Y-73748430D01*
X131698955Y-73737766D01*
X131694091Y-73692517D01*
X131690388Y-73682588D01*
X131643797Y-73557670D01*
X131643796Y-73557669D01*
X131637681Y-73549500D01*
X131557546Y-73442454D01*
X131442331Y-73356204D01*
X131442330Y-73356203D01*
X131442329Y-73356202D01*
X131307487Y-73305910D01*
X131307484Y-73305909D01*
X131307483Y-73305909D01*
X131247873Y-73299500D01*
X128752126Y-73299500D01*
X128692514Y-73305909D01*
X128557670Y-73356202D01*
X128557669Y-73356203D01*
X128442454Y-73442454D01*
X128356203Y-73557669D01*
X128356202Y-73557670D01*
X128305910Y-73692512D01*
X128305909Y-73692517D01*
X128299500Y-73752126D01*
X128299500Y-76247873D01*
X125400499Y-76247873D01*
X125400499Y-72547873D01*
X128299500Y-72547873D01*
X128305909Y-72607485D01*
X128356202Y-72742329D01*
X128356203Y-72742330D01*
X128356204Y-72742331D01*
X128442454Y-72857546D01*
X128557669Y-72943796D01*
X128557670Y-72943797D01*
X128668605Y-72985172D01*
X128692517Y-72994091D01*
X128752127Y-73000500D01*
X131247872Y-73000499D01*
X131307483Y-72994091D01*
X131374907Y-72968943D01*
X131442329Y-72943797D01*
X131442329Y-72943796D01*
X131442331Y-72943796D01*
X131557546Y-72857546D01*
X131643796Y-72742331D01*
X131648229Y-72730447D01*
X131686012Y-72629143D01*
X131694091Y-72607483D01*
X131700500Y-72547873D01*
X131700499Y-70052128D01*
X131694091Y-69992517D01*
X131694089Y-69992512D01*
X131643797Y-69857670D01*
X131643796Y-69857669D01*
X131557546Y-69742454D01*
X131442331Y-69656204D01*
X131442330Y-69656203D01*
X131442329Y-69656202D01*
X131307487Y-69605910D01*
X131307484Y-69605909D01*
X131307483Y-69605909D01*
X131247873Y-69599500D01*
X128752126Y-69599500D01*
X128692514Y-69605909D01*
X128557670Y-69656202D01*
X128557669Y-69656203D01*
X128442454Y-69742454D01*
X128356203Y-69857669D01*
X128356202Y-69857670D01*
X128305910Y-69992512D01*
X128305909Y-69992517D01*
X128299500Y-70052126D01*
X128299500Y-72547873D01*
X125400499Y-72547873D01*
X125400499Y-68847873D01*
X128299500Y-68847873D01*
X128305909Y-68907485D01*
X128356202Y-69042329D01*
X128356203Y-69042330D01*
X128356204Y-69042331D01*
X128442454Y-69157546D01*
X128557669Y-69243796D01*
X128557670Y-69243797D01*
X128668605Y-69285172D01*
X128692517Y-69294091D01*
X128752127Y-69300500D01*
X131247872Y-69300499D01*
X131307483Y-69294091D01*
X131374907Y-69268943D01*
X131442329Y-69243797D01*
X131442329Y-69243796D01*
X131442331Y-69243796D01*
X131557546Y-69157546D01*
X131643796Y-69042331D01*
X131694091Y-68907483D01*
X131700500Y-68847873D01*
X131999500Y-68847873D01*
X132005909Y-68907485D01*
X132056202Y-69042329D01*
X132056203Y-69042330D01*
X132056204Y-69042331D01*
X132142454Y-69157546D01*
X132257669Y-69243796D01*
X132257670Y-69243797D01*
X132368605Y-69285172D01*
X132392517Y-69294091D01*
X132452127Y-69300500D01*
X134947872Y-69300499D01*
X135007483Y-69294091D01*
X135074907Y-69268943D01*
X135142329Y-69243797D01*
X135142329Y-69243796D01*
X135142331Y-69243796D01*
X135257546Y-69157546D01*
X135343796Y-69042331D01*
X135394091Y-68907483D01*
X135400500Y-68847873D01*
X135699500Y-68847873D01*
X135705909Y-68907485D01*
X135756202Y-69042329D01*
X135756203Y-69042330D01*
X135756204Y-69042331D01*
X135842454Y-69157546D01*
X135957669Y-69243796D01*
X135957670Y-69243797D01*
X136068605Y-69285172D01*
X136092517Y-69294091D01*
X136152127Y-69300500D01*
X138647872Y-69300499D01*
X138707483Y-69294091D01*
X138774907Y-69268943D01*
X138842329Y-69243797D01*
X138842329Y-69243796D01*
X138842331Y-69243796D01*
X138957546Y-69157546D01*
X139043796Y-69042331D01*
X139094091Y-68907483D01*
X139100500Y-68847873D01*
X139399500Y-68847873D01*
X139405909Y-68907485D01*
X139456202Y-69042329D01*
X139456203Y-69042330D01*
X139456204Y-69042331D01*
X139542454Y-69157546D01*
X139657669Y-69243796D01*
X139657670Y-69243797D01*
X139768605Y-69285172D01*
X139792517Y-69294091D01*
X139852127Y-69300500D01*
X142347872Y-69300499D01*
X142407483Y-69294091D01*
X142474907Y-69268943D01*
X142542329Y-69243797D01*
X142542329Y-69243796D01*
X142542331Y-69243796D01*
X142657546Y-69157546D01*
X142743796Y-69042331D01*
X142794091Y-68907483D01*
X142800500Y-68847873D01*
X143099500Y-68847873D01*
X143105909Y-68907485D01*
X143156202Y-69042329D01*
X143156203Y-69042330D01*
X143156204Y-69042331D01*
X143242454Y-69157546D01*
X143357669Y-69243796D01*
X143357670Y-69243797D01*
X143468605Y-69285172D01*
X143492517Y-69294091D01*
X143552127Y-69300500D01*
X146047872Y-69300499D01*
X146107483Y-69294091D01*
X146174907Y-69268943D01*
X146242329Y-69243797D01*
X146242329Y-69243796D01*
X146242331Y-69243796D01*
X146357546Y-69157546D01*
X146443796Y-69042331D01*
X146494091Y-68907483D01*
X146500500Y-68847873D01*
X146500499Y-66352128D01*
X146494091Y-66292517D01*
X146494089Y-66292512D01*
X146443797Y-66157670D01*
X146443796Y-66157669D01*
X146357546Y-66042454D01*
X146242331Y-65956204D01*
X146242330Y-65956203D01*
X146242329Y-65956202D01*
X146107487Y-65905910D01*
X146107484Y-65905909D01*
X146107483Y-65905909D01*
X146047873Y-65899500D01*
X143552126Y-65899500D01*
X143492514Y-65905909D01*
X143357670Y-65956202D01*
X143357669Y-65956203D01*
X143242454Y-66042454D01*
X143156203Y-66157669D01*
X143156202Y-66157670D01*
X143105910Y-66292512D01*
X143105909Y-66292517D01*
X143099500Y-66352126D01*
X143099500Y-68847873D01*
X142800500Y-68847873D01*
X142800499Y-66352128D01*
X142794091Y-66292517D01*
X142794089Y-66292512D01*
X142743797Y-66157670D01*
X142743796Y-66157669D01*
X142657546Y-66042454D01*
X142542331Y-65956204D01*
X142542330Y-65956203D01*
X142542329Y-65956202D01*
X142407487Y-65905910D01*
X142407484Y-65905909D01*
X142407483Y-65905909D01*
X142347873Y-65899500D01*
X139852126Y-65899500D01*
X139792514Y-65905909D01*
X139657670Y-65956202D01*
X139657669Y-65956203D01*
X139542454Y-66042454D01*
X139456203Y-66157669D01*
X139456202Y-66157670D01*
X139405910Y-66292512D01*
X139405909Y-66292517D01*
X139399500Y-66352126D01*
X139399500Y-68847873D01*
X139100500Y-68847873D01*
X139100499Y-66352128D01*
X139094091Y-66292517D01*
X139094089Y-66292512D01*
X139043797Y-66157670D01*
X139043796Y-66157669D01*
X138957546Y-66042454D01*
X138842331Y-65956204D01*
X138842330Y-65956203D01*
X138842329Y-65956202D01*
X138707487Y-65905910D01*
X138707484Y-65905909D01*
X138707483Y-65905909D01*
X138647873Y-65899500D01*
X136152126Y-65899500D01*
X136092514Y-65905909D01*
X135957670Y-65956202D01*
X135957669Y-65956203D01*
X135842454Y-66042454D01*
X135756203Y-66157669D01*
X135756202Y-66157670D01*
X135705910Y-66292512D01*
X135705909Y-66292517D01*
X135699500Y-66352126D01*
X135699500Y-68847873D01*
X135400500Y-68847873D01*
X135400499Y-66352128D01*
X135394091Y-66292517D01*
X135394089Y-66292512D01*
X135343797Y-66157670D01*
X135343796Y-66157669D01*
X135257546Y-66042454D01*
X135142331Y-65956204D01*
X135142330Y-65956203D01*
X135142329Y-65956202D01*
X135007487Y-65905910D01*
X135007484Y-65905909D01*
X135007483Y-65905909D01*
X134947873Y-65899500D01*
X132452126Y-65899500D01*
X132392514Y-65905909D01*
X132257670Y-65956202D01*
X132257669Y-65956203D01*
X132142454Y-66042454D01*
X132056203Y-66157669D01*
X132056202Y-66157670D01*
X132005910Y-66292512D01*
X132005909Y-66292517D01*
X131999500Y-66352126D01*
X131999500Y-68847873D01*
X131700500Y-68847873D01*
X131700499Y-66352128D01*
X131694091Y-66292517D01*
X131694089Y-66292512D01*
X131643797Y-66157670D01*
X131643796Y-66157669D01*
X131557546Y-66042454D01*
X131442331Y-65956204D01*
X131442330Y-65956203D01*
X131442329Y-65956202D01*
X131307487Y-65905910D01*
X131307484Y-65905909D01*
X131307483Y-65905909D01*
X131247873Y-65899500D01*
X128752126Y-65899500D01*
X128692514Y-65905909D01*
X128557670Y-65956202D01*
X128557669Y-65956203D01*
X128442454Y-66042454D01*
X128356203Y-66157669D01*
X128356202Y-66157670D01*
X128305910Y-66292512D01*
X128305909Y-66292517D01*
X128299500Y-66352126D01*
X128299500Y-68847873D01*
X125400499Y-68847873D01*
X125400499Y-63747873D01*
X128299500Y-63747873D01*
X128305909Y-63807485D01*
X128356202Y-63942329D01*
X128356203Y-63942330D01*
X128356204Y-63942331D01*
X128442454Y-64057546D01*
X128557669Y-64143796D01*
X128557670Y-64143797D01*
X128668605Y-64185172D01*
X128692517Y-64194091D01*
X128752127Y-64200500D01*
X131247872Y-64200499D01*
X131307483Y-64194091D01*
X131374907Y-64168943D01*
X131442329Y-64143797D01*
X131442329Y-64143796D01*
X131442331Y-64143796D01*
X131557546Y-64057546D01*
X131643796Y-63942331D01*
X131694091Y-63807483D01*
X131700500Y-63747873D01*
X131999500Y-63747873D01*
X132005909Y-63807485D01*
X132056202Y-63942329D01*
X132056203Y-63942330D01*
X132056204Y-63942331D01*
X132142454Y-64057546D01*
X132257669Y-64143796D01*
X132257670Y-64143797D01*
X132368605Y-64185172D01*
X132392517Y-64194091D01*
X132452127Y-64200500D01*
X134947872Y-64200499D01*
X135007483Y-64194091D01*
X135074907Y-64168943D01*
X135142329Y-64143797D01*
X135142329Y-64143796D01*
X135142331Y-64143796D01*
X135257546Y-64057546D01*
X135343796Y-63942331D01*
X135394091Y-63807483D01*
X135400500Y-63747873D01*
X135699500Y-63747873D01*
X135705909Y-63807485D01*
X135756202Y-63942329D01*
X135756203Y-63942330D01*
X135756204Y-63942331D01*
X135842454Y-64057546D01*
X135957669Y-64143796D01*
X135957670Y-64143797D01*
X136068605Y-64185172D01*
X136092517Y-64194091D01*
X136152127Y-64200500D01*
X138647872Y-64200499D01*
X138707483Y-64194091D01*
X138774907Y-64168943D01*
X138842329Y-64143797D01*
X138842329Y-64143796D01*
X138842331Y-64143796D01*
X138957546Y-64057546D01*
X139043796Y-63942331D01*
X139094091Y-63807483D01*
X139100500Y-63747873D01*
X139399500Y-63747873D01*
X139405909Y-63807485D01*
X139456202Y-63942329D01*
X139456203Y-63942330D01*
X139456204Y-63942331D01*
X139542454Y-64057546D01*
X139657669Y-64143796D01*
X139657670Y-64143797D01*
X139768605Y-64185172D01*
X139792517Y-64194091D01*
X139852127Y-64200500D01*
X142347872Y-64200499D01*
X142407483Y-64194091D01*
X142474907Y-64168943D01*
X142542329Y-64143797D01*
X142542329Y-64143796D01*
X142542331Y-64143796D01*
X142657546Y-64057546D01*
X142743796Y-63942331D01*
X142794091Y-63807483D01*
X142800500Y-63747873D01*
X143099500Y-63747873D01*
X143105909Y-63807485D01*
X143156202Y-63942329D01*
X143156203Y-63942330D01*
X143156204Y-63942331D01*
X143242454Y-64057546D01*
X143357669Y-64143796D01*
X143357670Y-64143797D01*
X143468605Y-64185172D01*
X143492517Y-64194091D01*
X143552127Y-64200500D01*
X146047872Y-64200499D01*
X146107483Y-64194091D01*
X146174907Y-64168943D01*
X146242329Y-64143797D01*
X146242329Y-64143796D01*
X146242331Y-64143796D01*
X146357546Y-64057546D01*
X146443796Y-63942331D01*
X146494091Y-63807483D01*
X146500500Y-63747873D01*
X146500499Y-61252128D01*
X146494091Y-61192517D01*
X146494089Y-61192512D01*
X146443797Y-61057670D01*
X146443796Y-61057669D01*
X146357546Y-60942454D01*
X146242331Y-60856204D01*
X146242330Y-60856203D01*
X146242329Y-60856202D01*
X146107487Y-60805910D01*
X146107484Y-60805909D01*
X146107483Y-60805909D01*
X146047873Y-60799500D01*
X143552126Y-60799500D01*
X143492514Y-60805909D01*
X143357670Y-60856202D01*
X143357669Y-60856203D01*
X143242454Y-60942454D01*
X143156203Y-61057669D01*
X143156202Y-61057670D01*
X143105910Y-61192512D01*
X143105909Y-61192517D01*
X143099500Y-61252126D01*
X143099500Y-63747873D01*
X142800500Y-63747873D01*
X142800499Y-61252128D01*
X142794091Y-61192517D01*
X142794089Y-61192512D01*
X142743797Y-61057670D01*
X142743796Y-61057669D01*
X142657546Y-60942454D01*
X142542331Y-60856204D01*
X142542330Y-60856203D01*
X142542329Y-60856202D01*
X142407487Y-60805910D01*
X142407484Y-60805909D01*
X142407483Y-60805909D01*
X142347873Y-60799500D01*
X139852126Y-60799500D01*
X139792514Y-60805909D01*
X139657670Y-60856202D01*
X139657669Y-60856203D01*
X139542454Y-60942454D01*
X139456203Y-61057669D01*
X139456202Y-61057670D01*
X139405910Y-61192512D01*
X139405909Y-61192517D01*
X139399500Y-61252126D01*
X139399500Y-63747873D01*
X139100500Y-63747873D01*
X139100499Y-61252128D01*
X139094091Y-61192517D01*
X139094089Y-61192512D01*
X139043797Y-61057670D01*
X139043796Y-61057669D01*
X138957546Y-60942454D01*
X138842331Y-60856204D01*
X138842330Y-60856203D01*
X138842329Y-60856202D01*
X138707487Y-60805910D01*
X138707484Y-60805909D01*
X138707483Y-60805909D01*
X138647873Y-60799500D01*
X136152126Y-60799500D01*
X136092514Y-60805909D01*
X135957670Y-60856202D01*
X135957669Y-60856203D01*
X135842454Y-60942454D01*
X135756203Y-61057669D01*
X135756202Y-61057670D01*
X135705910Y-61192512D01*
X135705909Y-61192517D01*
X135699500Y-61252126D01*
X135699500Y-63747873D01*
X135400500Y-63747873D01*
X135400499Y-61252128D01*
X135394091Y-61192517D01*
X135394089Y-61192512D01*
X135343797Y-61057670D01*
X135343796Y-61057669D01*
X135257546Y-60942454D01*
X135142331Y-60856204D01*
X135142330Y-60856203D01*
X135142329Y-60856202D01*
X135007487Y-60805910D01*
X135007484Y-60805909D01*
X135007483Y-60805909D01*
X134947873Y-60799500D01*
X132452126Y-60799500D01*
X132392514Y-60805909D01*
X132257670Y-60856202D01*
X132257669Y-60856203D01*
X132142454Y-60942454D01*
X132056203Y-61057669D01*
X132056202Y-61057670D01*
X132005910Y-61192512D01*
X132005909Y-61192517D01*
X131999500Y-61252126D01*
X131999500Y-63747873D01*
X131700500Y-63747873D01*
X131700499Y-61252128D01*
X131694091Y-61192517D01*
X131694089Y-61192512D01*
X131643797Y-61057670D01*
X131643796Y-61057669D01*
X131557546Y-60942454D01*
X131442331Y-60856204D01*
X131442330Y-60856203D01*
X131442329Y-60856202D01*
X131307487Y-60805910D01*
X131307484Y-60805909D01*
X131307483Y-60805909D01*
X131247873Y-60799500D01*
X128752126Y-60799500D01*
X128692514Y-60805909D01*
X128557670Y-60856202D01*
X128557669Y-60856203D01*
X128442454Y-60942454D01*
X128356203Y-61057669D01*
X128356202Y-61057670D01*
X128305910Y-61192512D01*
X128305909Y-61192517D01*
X128299500Y-61252126D01*
X128299500Y-63747873D01*
X125400499Y-63747873D01*
X125400499Y-58647873D01*
X128199500Y-58647873D01*
X128205909Y-58707485D01*
X128256202Y-58842329D01*
X128256203Y-58842330D01*
X128256204Y-58842331D01*
X128342454Y-58957546D01*
X128457669Y-59043796D01*
X128457670Y-59043797D01*
X128568605Y-59085172D01*
X128592517Y-59094091D01*
X128652127Y-59100500D01*
X131147872Y-59100499D01*
X131207483Y-59094091D01*
X131274907Y-59068943D01*
X131342329Y-59043797D01*
X131342329Y-59043796D01*
X131342331Y-59043796D01*
X131457546Y-58957546D01*
X131543796Y-58842331D01*
X131594091Y-58707483D01*
X131600500Y-58647873D01*
X131899500Y-58647873D01*
X131905909Y-58707485D01*
X131956202Y-58842329D01*
X131956203Y-58842330D01*
X131956204Y-58842331D01*
X132042454Y-58957546D01*
X132157669Y-59043796D01*
X132157670Y-59043797D01*
X132268605Y-59085172D01*
X132292517Y-59094091D01*
X132352127Y-59100500D01*
X134847872Y-59100499D01*
X134907483Y-59094091D01*
X134974907Y-59068943D01*
X135042329Y-59043797D01*
X135042329Y-59043796D01*
X135042331Y-59043796D01*
X135157546Y-58957546D01*
X135243796Y-58842331D01*
X135294091Y-58707483D01*
X135300500Y-58647873D01*
X135599500Y-58647873D01*
X135605909Y-58707485D01*
X135656202Y-58842329D01*
X135656203Y-58842330D01*
X135656204Y-58842331D01*
X135742454Y-58957546D01*
X135857669Y-59043796D01*
X135857670Y-59043797D01*
X135968605Y-59085172D01*
X135992517Y-59094091D01*
X136052127Y-59100500D01*
X138547872Y-59100499D01*
X138607483Y-59094091D01*
X138674907Y-59068943D01*
X138742329Y-59043797D01*
X138742329Y-59043796D01*
X138742331Y-59043796D01*
X138857546Y-58957546D01*
X138943796Y-58842331D01*
X138994091Y-58707483D01*
X139000500Y-58647873D01*
X139000499Y-56152128D01*
X138994091Y-56092517D01*
X138975419Y-56042454D01*
X138943797Y-55957670D01*
X138943796Y-55957669D01*
X138900251Y-55899501D01*
X138857546Y-55842454D01*
X138742331Y-55756204D01*
X138742330Y-55756203D01*
X138742329Y-55756202D01*
X138607487Y-55705910D01*
X138607484Y-55705909D01*
X138607483Y-55705909D01*
X138547873Y-55699500D01*
X136052126Y-55699500D01*
X135992514Y-55705909D01*
X135857670Y-55756202D01*
X135857669Y-55756203D01*
X135742454Y-55842454D01*
X135656203Y-55957669D01*
X135656202Y-55957670D01*
X135605910Y-56092512D01*
X135605909Y-56092517D01*
X135599500Y-56152126D01*
X135599500Y-58647873D01*
X135300500Y-58647873D01*
X135300499Y-56152128D01*
X135294091Y-56092517D01*
X135275419Y-56042454D01*
X135243797Y-55957670D01*
X135243796Y-55957669D01*
X135200251Y-55899501D01*
X135157546Y-55842454D01*
X135042331Y-55756204D01*
X135042330Y-55756203D01*
X135042329Y-55756202D01*
X134907487Y-55705910D01*
X134907484Y-55705909D01*
X134907483Y-55705909D01*
X134847873Y-55699500D01*
X132352126Y-55699500D01*
X132292514Y-55705909D01*
X132157670Y-55756202D01*
X132157669Y-55756203D01*
X132042454Y-55842454D01*
X131956203Y-55957669D01*
X131956202Y-55957670D01*
X131905910Y-56092512D01*
X131905909Y-56092517D01*
X131899500Y-56152126D01*
X131899500Y-58647873D01*
X131600500Y-58647873D01*
X131600499Y-56152128D01*
X131594091Y-56092517D01*
X131575419Y-56042454D01*
X131543797Y-55957670D01*
X131543796Y-55957669D01*
X131500251Y-55899501D01*
X131457546Y-55842454D01*
X131342331Y-55756204D01*
X131342330Y-55756203D01*
X131342329Y-55756202D01*
X131207487Y-55705910D01*
X131207484Y-55705909D01*
X131207483Y-55705909D01*
X131147873Y-55699500D01*
X128652126Y-55699500D01*
X128592514Y-55705909D01*
X128457670Y-55756202D01*
X128457669Y-55756203D01*
X128342454Y-55842454D01*
X128256203Y-55957669D01*
X128256202Y-55957670D01*
X128205910Y-56092512D01*
X128205909Y-56092517D01*
X128199500Y-56152126D01*
X128199500Y-58647873D01*
X125400499Y-58647873D01*
X125400499Y-56352128D01*
X125394091Y-56292517D01*
X125394089Y-56292512D01*
X125343797Y-56157670D01*
X125343796Y-56157669D01*
X125339647Y-56152127D01*
X125257546Y-56042454D01*
X125171295Y-55977886D01*
X125142330Y-55956203D01*
X125142329Y-55956202D01*
X125007487Y-55905910D01*
X125007484Y-55905909D01*
X125007483Y-55905909D01*
X124977678Y-55902704D01*
X124947874Y-55899500D01*
X124947873Y-55899500D01*
X124124500Y-55899500D01*
X124076934Y-55882187D01*
X124051624Y-55838350D01*
X124050500Y-55825500D01*
X124050500Y-55124500D01*
X124067813Y-55076934D01*
X124111650Y-55051624D01*
X124124500Y-55050500D01*
X124694746Y-55050500D01*
X124694748Y-55050500D01*
X124753231Y-55038867D01*
X124819552Y-54994552D01*
X124863867Y-54928231D01*
X124875500Y-54869748D01*
X124875500Y-54150001D01*
X125223972Y-54150001D01*
X125229736Y-54212204D01*
X125229738Y-54212218D01*
X125288061Y-54417202D01*
X125288064Y-54417212D01*
X125383059Y-54607988D01*
X125383063Y-54607994D01*
X125511501Y-54778071D01*
X125669003Y-54921653D01*
X125850200Y-55033844D01*
X125850210Y-55033849D01*
X126048935Y-55110836D01*
X126215000Y-55141879D01*
X126215000Y-54481170D01*
X126222685Y-54484680D01*
X126329237Y-54500000D01*
X126400763Y-54500000D01*
X126507315Y-54484680D01*
X126515000Y-54481170D01*
X126515000Y-55141879D01*
X126681064Y-55110836D01*
X126879789Y-55033849D01*
X126879799Y-55033844D01*
X127018649Y-54947873D01*
X128199500Y-54947873D01*
X128205909Y-55007485D01*
X128256202Y-55142329D01*
X128256203Y-55142330D01*
X128256204Y-55142331D01*
X128342454Y-55257546D01*
X128457669Y-55343796D01*
X128457670Y-55343797D01*
X128568605Y-55385172D01*
X128592517Y-55394091D01*
X128652127Y-55400500D01*
X131147872Y-55400499D01*
X131207483Y-55394091D01*
X131274907Y-55368943D01*
X131342329Y-55343797D01*
X131342329Y-55343796D01*
X131342331Y-55343796D01*
X131457546Y-55257546D01*
X131543796Y-55142331D01*
X131594091Y-55007483D01*
X131600500Y-54947873D01*
X131899500Y-54947873D01*
X131905909Y-55007485D01*
X131956202Y-55142329D01*
X131956203Y-55142330D01*
X131956204Y-55142331D01*
X132042454Y-55257546D01*
X132157669Y-55343796D01*
X132157670Y-55343797D01*
X132268605Y-55385172D01*
X132292517Y-55394091D01*
X132352127Y-55400500D01*
X134847872Y-55400499D01*
X134907483Y-55394091D01*
X134974907Y-55368943D01*
X135042329Y-55343797D01*
X135042329Y-55343796D01*
X135042331Y-55343796D01*
X135157546Y-55257546D01*
X135243796Y-55142331D01*
X135294091Y-55007483D01*
X135300500Y-54947873D01*
X135599500Y-54947873D01*
X135605909Y-55007485D01*
X135656202Y-55142329D01*
X135656203Y-55142330D01*
X135656204Y-55142331D01*
X135742454Y-55257546D01*
X135857669Y-55343796D01*
X135857670Y-55343797D01*
X135968605Y-55385172D01*
X135992517Y-55394091D01*
X136052127Y-55400500D01*
X138547872Y-55400499D01*
X138607483Y-55394091D01*
X138674907Y-55368943D01*
X138742329Y-55343797D01*
X138742329Y-55343796D01*
X138742331Y-55343796D01*
X138857546Y-55257546D01*
X138943796Y-55142331D01*
X138994091Y-55007483D01*
X138994896Y-55000000D01*
X141495197Y-55000000D01*
X141514397Y-55366355D01*
X141514397Y-55366356D01*
X141571783Y-55728683D01*
X141666735Y-56083046D01*
X141798201Y-56425527D01*
X141798205Y-56425538D01*
X141964746Y-56752393D01*
X142164556Y-57060073D01*
X142395426Y-57345173D01*
X142419060Y-57368807D01*
X143055141Y-56732725D01*
X143067449Y-56794601D01*
X143122704Y-56877296D01*
X143205399Y-56932551D01*
X143267272Y-56944858D01*
X142631192Y-57580939D01*
X142654826Y-57604573D01*
X142939926Y-57835443D01*
X143247606Y-58035253D01*
X143574461Y-58201794D01*
X143574472Y-58201798D01*
X143916953Y-58333264D01*
X144271316Y-58428216D01*
X144633643Y-58485602D01*
X145000000Y-58504802D01*
X145366355Y-58485602D01*
X145366356Y-58485602D01*
X145728683Y-58428216D01*
X146083046Y-58333264D01*
X146425527Y-58201798D01*
X146425538Y-58201794D01*
X146752393Y-58035253D01*
X147060073Y-57835443D01*
X147345173Y-57604573D01*
X147368806Y-57580938D01*
X146732726Y-56944858D01*
X146794601Y-56932551D01*
X146877296Y-56877296D01*
X146932551Y-56794601D01*
X146944858Y-56732726D01*
X147580938Y-57368806D01*
X147604573Y-57345173D01*
X147835443Y-57060073D01*
X148035253Y-56752393D01*
X148201794Y-56425538D01*
X148201798Y-56425527D01*
X148333264Y-56083046D01*
X148428216Y-55728683D01*
X148485602Y-55366356D01*
X148485602Y-55366355D01*
X148504802Y-55000000D01*
X148485602Y-54633644D01*
X148485602Y-54633643D01*
X148428216Y-54271316D01*
X148333264Y-53916953D01*
X148201794Y-53574461D01*
X148201791Y-53574456D01*
X148035253Y-53247607D01*
X147835443Y-52939926D01*
X147604573Y-52654826D01*
X147580939Y-52631192D01*
X146944858Y-53267272D01*
X146932551Y-53205399D01*
X146877296Y-53122704D01*
X146794601Y-53067449D01*
X146732725Y-53055141D01*
X147368807Y-52419060D01*
X147345173Y-52395426D01*
X147060073Y-52164556D01*
X146752393Y-51964746D01*
X146425538Y-51798205D01*
X146425527Y-51798201D01*
X146083046Y-51666735D01*
X145728683Y-51571783D01*
X145366356Y-51514397D01*
X145000000Y-51495197D01*
X144633644Y-51514397D01*
X144633643Y-51514397D01*
X144271316Y-51571783D01*
X143916953Y-51666735D01*
X143574461Y-51798205D01*
X143574456Y-51798208D01*
X143247607Y-51964746D01*
X142939926Y-52164556D01*
X142654827Y-52395425D01*
X142631192Y-52419059D01*
X143267274Y-53055141D01*
X143205399Y-53067449D01*
X143122704Y-53122704D01*
X143067449Y-53205399D01*
X143055141Y-53267274D01*
X142419059Y-52631192D01*
X142395425Y-52654827D01*
X142164556Y-52939926D01*
X141964746Y-53247607D01*
X141798208Y-53574456D01*
X141798205Y-53574461D01*
X141666735Y-53916953D01*
X141571783Y-54271316D01*
X141514397Y-54633643D01*
X141514397Y-54633644D01*
X141495197Y-55000000D01*
X138994896Y-55000000D01*
X139000500Y-54947873D01*
X139000499Y-52452128D01*
X138994091Y-52392517D01*
X138978233Y-52350000D01*
X138943797Y-52257670D01*
X138943796Y-52257669D01*
X138857546Y-52142454D01*
X138742331Y-52056204D01*
X138742330Y-52056203D01*
X138742329Y-52056202D01*
X138607487Y-52005910D01*
X138607484Y-52005909D01*
X138607483Y-52005909D01*
X138547873Y-51999500D01*
X136052126Y-51999500D01*
X135992514Y-52005909D01*
X135857670Y-52056202D01*
X135857669Y-52056203D01*
X135742454Y-52142454D01*
X135656203Y-52257669D01*
X135656202Y-52257670D01*
X135605910Y-52392512D01*
X135605909Y-52392517D01*
X135599500Y-52452126D01*
X135599500Y-54947873D01*
X135300500Y-54947873D01*
X135300499Y-52452128D01*
X135294091Y-52392517D01*
X135278233Y-52350000D01*
X135243797Y-52257670D01*
X135243796Y-52257669D01*
X135157546Y-52142454D01*
X135042331Y-52056204D01*
X135042330Y-52056203D01*
X135042329Y-52056202D01*
X134907487Y-52005910D01*
X134907484Y-52005909D01*
X134907483Y-52005909D01*
X134847873Y-51999500D01*
X132352126Y-51999500D01*
X132292514Y-52005909D01*
X132157670Y-52056202D01*
X132157669Y-52056203D01*
X132042454Y-52142454D01*
X131956203Y-52257669D01*
X131956202Y-52257670D01*
X131905910Y-52392512D01*
X131905909Y-52392517D01*
X131899500Y-52452126D01*
X131899500Y-54947873D01*
X131600500Y-54947873D01*
X131600499Y-52452128D01*
X131594091Y-52392517D01*
X131578233Y-52350000D01*
X131543797Y-52257670D01*
X131543796Y-52257669D01*
X131457546Y-52142454D01*
X131342331Y-52056204D01*
X131342330Y-52056203D01*
X131342329Y-52056202D01*
X131207487Y-52005910D01*
X131207484Y-52005909D01*
X131207483Y-52005909D01*
X131147873Y-51999500D01*
X128652126Y-51999500D01*
X128592514Y-52005909D01*
X128457670Y-52056202D01*
X128457669Y-52056203D01*
X128342454Y-52142454D01*
X128256203Y-52257669D01*
X128256202Y-52257670D01*
X128205910Y-52392512D01*
X128205909Y-52392517D01*
X128199500Y-52452126D01*
X128199500Y-54947873D01*
X127018649Y-54947873D01*
X127060996Y-54921653D01*
X127218498Y-54778071D01*
X127346936Y-54607994D01*
X127346940Y-54607988D01*
X127441935Y-54417212D01*
X127441938Y-54417202D01*
X127500261Y-54212218D01*
X127500263Y-54212204D01*
X127506027Y-54150001D01*
X127506026Y-54150000D01*
X126842065Y-54150000D01*
X126865000Y-54071889D01*
X126865000Y-53928111D01*
X126842065Y-53850000D01*
X127506026Y-53850000D01*
X127506027Y-53849998D01*
X127500263Y-53787795D01*
X127500261Y-53787781D01*
X127441938Y-53582797D01*
X127441935Y-53582787D01*
X127346940Y-53392011D01*
X127346936Y-53392005D01*
X127218498Y-53221928D01*
X127060996Y-53078346D01*
X126879799Y-52966155D01*
X126879789Y-52966150D01*
X126681063Y-52889162D01*
X126515000Y-52858119D01*
X126515000Y-53518829D01*
X126507315Y-53515320D01*
X126400763Y-53500000D01*
X126329237Y-53500000D01*
X126222685Y-53515320D01*
X126215000Y-53518829D01*
X126215000Y-52858119D01*
X126214999Y-52858119D01*
X126048936Y-52889162D01*
X125850210Y-52966150D01*
X125850200Y-52966155D01*
X125669003Y-53078346D01*
X125511501Y-53221928D01*
X125383063Y-53392005D01*
X125383059Y-53392011D01*
X125288064Y-53582787D01*
X125288061Y-53582797D01*
X125229738Y-53787781D01*
X125229736Y-53787795D01*
X125223972Y-53849998D01*
X125223974Y-53850000D01*
X125887935Y-53850000D01*
X125865000Y-53928111D01*
X125865000Y-54071889D01*
X125887935Y-54150000D01*
X125223974Y-54150000D01*
X125223972Y-54150001D01*
X124875500Y-54150001D01*
X124875500Y-53130252D01*
X124863867Y-53071769D01*
X124860980Y-53067449D01*
X124849027Y-53049560D01*
X124819552Y-53005448D01*
X124797343Y-52990608D01*
X124753232Y-52961133D01*
X124753233Y-52961133D01*
X124723989Y-52955316D01*
X124694748Y-52949500D01*
X122955252Y-52949500D01*
X122926010Y-52955316D01*
X122896767Y-52961133D01*
X122830449Y-53005447D01*
X122830447Y-53005449D01*
X122786133Y-53071767D01*
X122778377Y-53110757D01*
X122776002Y-53122704D01*
X122774500Y-53130253D01*
X122774500Y-54869746D01*
X122786133Y-54928232D01*
X122815608Y-54972343D01*
X122830448Y-54994552D01*
X122874560Y-55024027D01*
X122896767Y-55038866D01*
X122896768Y-55038866D01*
X122896769Y-55038867D01*
X122955252Y-55050500D01*
X123325500Y-55050500D01*
X123373066Y-55067813D01*
X123398376Y-55111650D01*
X123399500Y-55124500D01*
X123399500Y-55825500D01*
X123382187Y-55873066D01*
X123338350Y-55898376D01*
X123325500Y-55899500D01*
X122452126Y-55899500D01*
X122392514Y-55905909D01*
X122257670Y-55956202D01*
X122257669Y-55956203D01*
X122142454Y-56042454D01*
X122056203Y-56157669D01*
X122056202Y-56157670D01*
X122005910Y-56292512D01*
X122005909Y-56292517D01*
X121999500Y-56352126D01*
X121999500Y-95847873D01*
X121700499Y-95847873D01*
X121700499Y-95052128D01*
X121694091Y-94992517D01*
X121694089Y-94992512D01*
X121643797Y-94857670D01*
X121643796Y-94857669D01*
X121574053Y-94764505D01*
X121557546Y-94742454D01*
X121442331Y-94656204D01*
X121442330Y-94656203D01*
X121442329Y-94656202D01*
X121307487Y-94605910D01*
X121307484Y-94605909D01*
X121307483Y-94605909D01*
X121247873Y-94599500D01*
X118752126Y-94599500D01*
X118692514Y-94605909D01*
X118557670Y-94656202D01*
X118557669Y-94656203D01*
X118442454Y-94742454D01*
X118356203Y-94857669D01*
X118356202Y-94857670D01*
X118305910Y-94992512D01*
X118305909Y-94992517D01*
X118299500Y-95052126D01*
X118299500Y-97547873D01*
X118000500Y-97547873D01*
X118000499Y-95052128D01*
X117994091Y-94992517D01*
X117994089Y-94992512D01*
X117943797Y-94857670D01*
X117943796Y-94857669D01*
X117874053Y-94764505D01*
X117857546Y-94742454D01*
X117742331Y-94656204D01*
X117742330Y-94656203D01*
X117742329Y-94656202D01*
X117607487Y-94605910D01*
X117607484Y-94605909D01*
X117607483Y-94605909D01*
X117547873Y-94599500D01*
X115052126Y-94599500D01*
X114992514Y-94605909D01*
X114857670Y-94656202D01*
X114857669Y-94656203D01*
X114742454Y-94742454D01*
X114656203Y-94857669D01*
X114656202Y-94857670D01*
X114605910Y-94992512D01*
X114605909Y-94992517D01*
X114599500Y-95052126D01*
X114599500Y-97547873D01*
X114300500Y-97547873D01*
X114300499Y-95052128D01*
X114294091Y-94992517D01*
X114294089Y-94992512D01*
X114243797Y-94857670D01*
X114243796Y-94857669D01*
X114174053Y-94764505D01*
X114157546Y-94742454D01*
X114042331Y-94656204D01*
X114042330Y-94656203D01*
X114042329Y-94656202D01*
X113907487Y-94605910D01*
X113907484Y-94605909D01*
X113907483Y-94605909D01*
X113847873Y-94599500D01*
X111352126Y-94599500D01*
X111292514Y-94605909D01*
X111157670Y-94656202D01*
X111157669Y-94656203D01*
X111042454Y-94742454D01*
X110956203Y-94857669D01*
X110956202Y-94857670D01*
X110905910Y-94992512D01*
X110905909Y-94992517D01*
X110899500Y-95052126D01*
X110899500Y-97547873D01*
X107335741Y-97547873D01*
X106732726Y-96944858D01*
X106794601Y-96932551D01*
X106877296Y-96877296D01*
X106932551Y-96794601D01*
X106944858Y-96732726D01*
X107580938Y-97368806D01*
X107604573Y-97345173D01*
X107835443Y-97060073D01*
X108035253Y-96752393D01*
X108201794Y-96425538D01*
X108201798Y-96425527D01*
X108333264Y-96083046D01*
X108428216Y-95728683D01*
X108485602Y-95366356D01*
X108485602Y-95366355D01*
X108504802Y-95000000D01*
X108485602Y-94633644D01*
X108485602Y-94633643D01*
X108428216Y-94271316D01*
X108333264Y-93916953D01*
X108306747Y-93847873D01*
X110899500Y-93847873D01*
X110905909Y-93907485D01*
X110956202Y-94042329D01*
X110956203Y-94042330D01*
X110956204Y-94042331D01*
X111042454Y-94157546D01*
X111157669Y-94243796D01*
X111157670Y-94243797D01*
X111231596Y-94271369D01*
X111292517Y-94294091D01*
X111352127Y-94300500D01*
X113847872Y-94300499D01*
X113907483Y-94294091D01*
X113974907Y-94268943D01*
X114042329Y-94243797D01*
X114042329Y-94243796D01*
X114042331Y-94243796D01*
X114157546Y-94157546D01*
X114243796Y-94042331D01*
X114294091Y-93907483D01*
X114300500Y-93847873D01*
X114599500Y-93847873D01*
X114605909Y-93907485D01*
X114656202Y-94042329D01*
X114656203Y-94042330D01*
X114656204Y-94042331D01*
X114742454Y-94157546D01*
X114857669Y-94243796D01*
X114857670Y-94243797D01*
X114931596Y-94271369D01*
X114992517Y-94294091D01*
X115052127Y-94300500D01*
X117547872Y-94300499D01*
X117607483Y-94294091D01*
X117674907Y-94268943D01*
X117742329Y-94243797D01*
X117742329Y-94243796D01*
X117742331Y-94243796D01*
X117857546Y-94157546D01*
X117943796Y-94042331D01*
X117994091Y-93907483D01*
X118000500Y-93847873D01*
X118299500Y-93847873D01*
X118305909Y-93907485D01*
X118356202Y-94042329D01*
X118356203Y-94042330D01*
X118356204Y-94042331D01*
X118442454Y-94157546D01*
X118557669Y-94243796D01*
X118557670Y-94243797D01*
X118631596Y-94271369D01*
X118692517Y-94294091D01*
X118752127Y-94300500D01*
X121247872Y-94300499D01*
X121307483Y-94294091D01*
X121374907Y-94268943D01*
X121442329Y-94243797D01*
X121442329Y-94243796D01*
X121442331Y-94243796D01*
X121557546Y-94157546D01*
X121643796Y-94042331D01*
X121694091Y-93907483D01*
X121700500Y-93847873D01*
X121700499Y-91352128D01*
X121694091Y-91292517D01*
X121694089Y-91292512D01*
X121643797Y-91157670D01*
X121643796Y-91157669D01*
X121557546Y-91042454D01*
X121442331Y-90956204D01*
X121442330Y-90956203D01*
X121442329Y-90956202D01*
X121307487Y-90905910D01*
X121307484Y-90905909D01*
X121307483Y-90905909D01*
X121247873Y-90899500D01*
X118752126Y-90899500D01*
X118692514Y-90905909D01*
X118557670Y-90956202D01*
X118557669Y-90956203D01*
X118442454Y-91042454D01*
X118356203Y-91157669D01*
X118356202Y-91157670D01*
X118305910Y-91292512D01*
X118305909Y-91292517D01*
X118299500Y-91352126D01*
X118299500Y-93847873D01*
X118000500Y-93847873D01*
X118000499Y-91352128D01*
X117994091Y-91292517D01*
X117994089Y-91292512D01*
X117943797Y-91157670D01*
X117943796Y-91157669D01*
X117857546Y-91042454D01*
X117742331Y-90956204D01*
X117742330Y-90956203D01*
X117742329Y-90956202D01*
X117607487Y-90905910D01*
X117607484Y-90905909D01*
X117607483Y-90905909D01*
X117547873Y-90899500D01*
X115052126Y-90899500D01*
X114992514Y-90905909D01*
X114857670Y-90956202D01*
X114857669Y-90956203D01*
X114742454Y-91042454D01*
X114656203Y-91157669D01*
X114656202Y-91157670D01*
X114605910Y-91292512D01*
X114605909Y-91292517D01*
X114599500Y-91352126D01*
X114599500Y-93847873D01*
X114300500Y-93847873D01*
X114300499Y-91352128D01*
X114294091Y-91292517D01*
X114294089Y-91292512D01*
X114243797Y-91157670D01*
X114243796Y-91157669D01*
X114157546Y-91042454D01*
X114042331Y-90956204D01*
X114042330Y-90956203D01*
X114042329Y-90956202D01*
X113907487Y-90905910D01*
X113907484Y-90905909D01*
X113907483Y-90905909D01*
X113847873Y-90899500D01*
X111352126Y-90899500D01*
X111292514Y-90905909D01*
X111157670Y-90956202D01*
X111157669Y-90956203D01*
X111042454Y-91042454D01*
X110956203Y-91157669D01*
X110956202Y-91157670D01*
X110905910Y-91292512D01*
X110905909Y-91292517D01*
X110899500Y-91352126D01*
X110899500Y-93847873D01*
X108306747Y-93847873D01*
X108201794Y-93574461D01*
X108201791Y-93574456D01*
X108035253Y-93247607D01*
X107835443Y-92939926D01*
X107604573Y-92654826D01*
X107580939Y-92631192D01*
X106944858Y-93267272D01*
X106932551Y-93205399D01*
X106877296Y-93122704D01*
X106794601Y-93067449D01*
X106732725Y-93055141D01*
X107368807Y-92419060D01*
X107345173Y-92395426D01*
X107060073Y-92164556D01*
X106752393Y-91964746D01*
X106425538Y-91798205D01*
X106425527Y-91798201D01*
X106083046Y-91666735D01*
X105728683Y-91571783D01*
X105366356Y-91514397D01*
X105000000Y-91495197D01*
X104633644Y-91514397D01*
X104633643Y-91514397D01*
X104271316Y-91571783D01*
X103916953Y-91666735D01*
X103574461Y-91798205D01*
X103574456Y-91798208D01*
X103247607Y-91964746D01*
X102939926Y-92164556D01*
X102654827Y-92395425D01*
X102631192Y-92419059D01*
X103267274Y-93055141D01*
X103205399Y-93067449D01*
X103122704Y-93122704D01*
X103067449Y-93205399D01*
X103055141Y-93267274D01*
X102419059Y-92631192D01*
X102395425Y-92654827D01*
X102164556Y-92939926D01*
X101964746Y-93247607D01*
X101798208Y-93574456D01*
X101798205Y-93574461D01*
X101666735Y-93916953D01*
X101571783Y-94271316D01*
X101514397Y-94633643D01*
X101514397Y-94633644D01*
X101495197Y-95000000D01*
X100000500Y-95000000D01*
X100000500Y-88747873D01*
X103499500Y-88747873D01*
X103505909Y-88807485D01*
X103556202Y-88942329D01*
X103556203Y-88942330D01*
X103556204Y-88942331D01*
X103642454Y-89057546D01*
X103757669Y-89143796D01*
X103757670Y-89143797D01*
X103868605Y-89185172D01*
X103892517Y-89194091D01*
X103952127Y-89200500D01*
X106447872Y-89200499D01*
X106507483Y-89194091D01*
X106574907Y-89168943D01*
X106642329Y-89143797D01*
X106642329Y-89143796D01*
X106642331Y-89143796D01*
X106757546Y-89057546D01*
X106843796Y-88942331D01*
X106894091Y-88807483D01*
X106900500Y-88747873D01*
X107199500Y-88747873D01*
X107205909Y-88807485D01*
X107256202Y-88942329D01*
X107256203Y-88942330D01*
X107256204Y-88942331D01*
X107342454Y-89057546D01*
X107457669Y-89143796D01*
X107457670Y-89143797D01*
X107568605Y-89185172D01*
X107592517Y-89194091D01*
X107652127Y-89200500D01*
X110147872Y-89200499D01*
X110207483Y-89194091D01*
X110274907Y-89168943D01*
X110342329Y-89143797D01*
X110342329Y-89143796D01*
X110342331Y-89143796D01*
X110457546Y-89057546D01*
X110543796Y-88942331D01*
X110594091Y-88807483D01*
X110600500Y-88747873D01*
X110899500Y-88747873D01*
X110905909Y-88807485D01*
X110956202Y-88942329D01*
X110956203Y-88942330D01*
X110956204Y-88942331D01*
X111042454Y-89057546D01*
X111157669Y-89143796D01*
X111157670Y-89143797D01*
X111268605Y-89185172D01*
X111292517Y-89194091D01*
X111352127Y-89200500D01*
X113847872Y-89200499D01*
X113907483Y-89194091D01*
X113974907Y-89168943D01*
X114042329Y-89143797D01*
X114042329Y-89143796D01*
X114042331Y-89143796D01*
X114157546Y-89057546D01*
X114243796Y-88942331D01*
X114294091Y-88807483D01*
X114300500Y-88747873D01*
X114599500Y-88747873D01*
X114605909Y-88807485D01*
X114656202Y-88942329D01*
X114656203Y-88942330D01*
X114656204Y-88942331D01*
X114742454Y-89057546D01*
X114857669Y-89143796D01*
X114857670Y-89143797D01*
X114968605Y-89185172D01*
X114992517Y-89194091D01*
X115052127Y-89200500D01*
X117547872Y-89200499D01*
X117607483Y-89194091D01*
X117674907Y-89168943D01*
X117742329Y-89143797D01*
X117742329Y-89143796D01*
X117742331Y-89143796D01*
X117857546Y-89057546D01*
X117943796Y-88942331D01*
X117994091Y-88807483D01*
X118000500Y-88747873D01*
X118299500Y-88747873D01*
X118305909Y-88807485D01*
X118356202Y-88942329D01*
X118356203Y-88942330D01*
X118356204Y-88942331D01*
X118442454Y-89057546D01*
X118557669Y-89143796D01*
X118557670Y-89143797D01*
X118668605Y-89185172D01*
X118692517Y-89194091D01*
X118752127Y-89200500D01*
X121247872Y-89200499D01*
X121307483Y-89194091D01*
X121374907Y-89168943D01*
X121442329Y-89143797D01*
X121442329Y-89143796D01*
X121442331Y-89143796D01*
X121557546Y-89057546D01*
X121643796Y-88942331D01*
X121694091Y-88807483D01*
X121700500Y-88747873D01*
X121700499Y-86252128D01*
X121694091Y-86192517D01*
X121694089Y-86192512D01*
X121643797Y-86057670D01*
X121643796Y-86057669D01*
X121557546Y-85942454D01*
X121442331Y-85856204D01*
X121442330Y-85856203D01*
X121442329Y-85856202D01*
X121307487Y-85805910D01*
X121307484Y-85805909D01*
X121307483Y-85805909D01*
X121247873Y-85799500D01*
X118752126Y-85799500D01*
X118692514Y-85805909D01*
X118557670Y-85856202D01*
X118557669Y-85856203D01*
X118442454Y-85942454D01*
X118356203Y-86057669D01*
X118356202Y-86057670D01*
X118305910Y-86192512D01*
X118305909Y-86192517D01*
X118299500Y-86252126D01*
X118299500Y-88747873D01*
X118000500Y-88747873D01*
X118000499Y-86252128D01*
X117994091Y-86192517D01*
X117994089Y-86192512D01*
X117943797Y-86057670D01*
X117943796Y-86057669D01*
X117857546Y-85942454D01*
X117742331Y-85856204D01*
X117742330Y-85856203D01*
X117742329Y-85856202D01*
X117607487Y-85805910D01*
X117607484Y-85805909D01*
X117607483Y-85805909D01*
X117547873Y-85799500D01*
X115052126Y-85799500D01*
X114992514Y-85805909D01*
X114857670Y-85856202D01*
X114857669Y-85856203D01*
X114742454Y-85942454D01*
X114656203Y-86057669D01*
X114656202Y-86057670D01*
X114605910Y-86192512D01*
X114605909Y-86192517D01*
X114599500Y-86252126D01*
X114599500Y-88747873D01*
X114300500Y-88747873D01*
X114300499Y-86252128D01*
X114294091Y-86192517D01*
X114294089Y-86192512D01*
X114243797Y-86057670D01*
X114243796Y-86057669D01*
X114157546Y-85942454D01*
X114042331Y-85856204D01*
X114042330Y-85856203D01*
X114042329Y-85856202D01*
X113907487Y-85805910D01*
X113907484Y-85805909D01*
X113907483Y-85805909D01*
X113847873Y-85799500D01*
X111352126Y-85799500D01*
X111292514Y-85805909D01*
X111157670Y-85856202D01*
X111157669Y-85856203D01*
X111042454Y-85942454D01*
X110956203Y-86057669D01*
X110956202Y-86057670D01*
X110905910Y-86192512D01*
X110905909Y-86192517D01*
X110899500Y-86252126D01*
X110899500Y-88747873D01*
X110600500Y-88747873D01*
X110600499Y-86252128D01*
X110594091Y-86192517D01*
X110594089Y-86192512D01*
X110543797Y-86057670D01*
X110543796Y-86057669D01*
X110457546Y-85942454D01*
X110342331Y-85856204D01*
X110342330Y-85856203D01*
X110342329Y-85856202D01*
X110207487Y-85805910D01*
X110207484Y-85805909D01*
X110207483Y-85805909D01*
X110147873Y-85799500D01*
X107652126Y-85799500D01*
X107592514Y-85805909D01*
X107457670Y-85856202D01*
X107457669Y-85856203D01*
X107342454Y-85942454D01*
X107256203Y-86057669D01*
X107256202Y-86057670D01*
X107205910Y-86192512D01*
X107205909Y-86192517D01*
X107199500Y-86252126D01*
X107199500Y-88747873D01*
X106900500Y-88747873D01*
X106900499Y-86252128D01*
X106894091Y-86192517D01*
X106894089Y-86192512D01*
X106843797Y-86057670D01*
X106843796Y-86057669D01*
X106757546Y-85942454D01*
X106642331Y-85856204D01*
X106642330Y-85856203D01*
X106642329Y-85856202D01*
X106507487Y-85805910D01*
X106507484Y-85805909D01*
X106507483Y-85805909D01*
X106447873Y-85799500D01*
X103952126Y-85799500D01*
X103892514Y-85805909D01*
X103757670Y-85856202D01*
X103757669Y-85856203D01*
X103642454Y-85942454D01*
X103556203Y-86057669D01*
X103556202Y-86057670D01*
X103505910Y-86192512D01*
X103505909Y-86192517D01*
X103499500Y-86252126D01*
X103499500Y-88747873D01*
X100000500Y-88747873D01*
X100000500Y-83647873D01*
X103499500Y-83647873D01*
X103505909Y-83707485D01*
X103556202Y-83842329D01*
X103556203Y-83842330D01*
X103556204Y-83842331D01*
X103642454Y-83957546D01*
X103757669Y-84043796D01*
X103757670Y-84043797D01*
X103868605Y-84085172D01*
X103892517Y-84094091D01*
X103952127Y-84100500D01*
X106447872Y-84100499D01*
X106507483Y-84094091D01*
X106574907Y-84068943D01*
X106642329Y-84043797D01*
X106642329Y-84043796D01*
X106642331Y-84043796D01*
X106757546Y-83957546D01*
X106843796Y-83842331D01*
X106894091Y-83707483D01*
X106900500Y-83647873D01*
X107199500Y-83647873D01*
X107205909Y-83707485D01*
X107256202Y-83842329D01*
X107256203Y-83842330D01*
X107256204Y-83842331D01*
X107342454Y-83957546D01*
X107457669Y-84043796D01*
X107457670Y-84043797D01*
X107568605Y-84085172D01*
X107592517Y-84094091D01*
X107652127Y-84100500D01*
X110147872Y-84100499D01*
X110207483Y-84094091D01*
X110274907Y-84068943D01*
X110342329Y-84043797D01*
X110342329Y-84043796D01*
X110342331Y-84043796D01*
X110457546Y-83957546D01*
X110543796Y-83842331D01*
X110594091Y-83707483D01*
X110600500Y-83647873D01*
X110899500Y-83647873D01*
X110905909Y-83707485D01*
X110956202Y-83842329D01*
X110956203Y-83842330D01*
X110956204Y-83842331D01*
X111042454Y-83957546D01*
X111157669Y-84043796D01*
X111157670Y-84043797D01*
X111268605Y-84085172D01*
X111292517Y-84094091D01*
X111352127Y-84100500D01*
X113847872Y-84100499D01*
X113907483Y-84094091D01*
X113974907Y-84068943D01*
X114042329Y-84043797D01*
X114042329Y-84043796D01*
X114042331Y-84043796D01*
X114157546Y-83957546D01*
X114243796Y-83842331D01*
X114294091Y-83707483D01*
X114300500Y-83647873D01*
X114599500Y-83647873D01*
X114605909Y-83707485D01*
X114656202Y-83842329D01*
X114656203Y-83842330D01*
X114656204Y-83842331D01*
X114742454Y-83957546D01*
X114857669Y-84043796D01*
X114857670Y-84043797D01*
X114968605Y-84085172D01*
X114992517Y-84094091D01*
X115052127Y-84100500D01*
X117547872Y-84100499D01*
X117607483Y-84094091D01*
X117674907Y-84068943D01*
X117742329Y-84043797D01*
X117742329Y-84043796D01*
X117742331Y-84043796D01*
X117857546Y-83957546D01*
X117943796Y-83842331D01*
X117994091Y-83707483D01*
X118000500Y-83647873D01*
X118299500Y-83647873D01*
X118305909Y-83707485D01*
X118356202Y-83842329D01*
X118356203Y-83842330D01*
X118356204Y-83842331D01*
X118442454Y-83957546D01*
X118557669Y-84043796D01*
X118557670Y-84043797D01*
X118668605Y-84085172D01*
X118692517Y-84094091D01*
X118752127Y-84100500D01*
X121247872Y-84100499D01*
X121307483Y-84094091D01*
X121374907Y-84068943D01*
X121442329Y-84043797D01*
X121442329Y-84043796D01*
X121442331Y-84043796D01*
X121557546Y-83957546D01*
X121643796Y-83842331D01*
X121694091Y-83707483D01*
X121700500Y-83647873D01*
X121700499Y-81152128D01*
X121694091Y-81092517D01*
X121694089Y-81092512D01*
X121643797Y-80957670D01*
X121643796Y-80957669D01*
X121557546Y-80842454D01*
X121442331Y-80756204D01*
X121442330Y-80756203D01*
X121442329Y-80756202D01*
X121307487Y-80705910D01*
X121307484Y-80705909D01*
X121307483Y-80705909D01*
X121247873Y-80699500D01*
X118752126Y-80699500D01*
X118692514Y-80705909D01*
X118557670Y-80756202D01*
X118557669Y-80756203D01*
X118442454Y-80842454D01*
X118356203Y-80957669D01*
X118356202Y-80957670D01*
X118305910Y-81092512D01*
X118305909Y-81092517D01*
X118299500Y-81152126D01*
X118299500Y-83647873D01*
X118000500Y-83647873D01*
X118000499Y-81152128D01*
X117994091Y-81092517D01*
X117994089Y-81092512D01*
X117943797Y-80957670D01*
X117943796Y-80957669D01*
X117857546Y-80842454D01*
X117742331Y-80756204D01*
X117742330Y-80756203D01*
X117742329Y-80756202D01*
X117607487Y-80705910D01*
X117607484Y-80705909D01*
X117607483Y-80705909D01*
X117547873Y-80699500D01*
X115052126Y-80699500D01*
X114992514Y-80705909D01*
X114857670Y-80756202D01*
X114857669Y-80756203D01*
X114742454Y-80842454D01*
X114656203Y-80957669D01*
X114656202Y-80957670D01*
X114605910Y-81092512D01*
X114605909Y-81092517D01*
X114599500Y-81152126D01*
X114599500Y-83647873D01*
X114300500Y-83647873D01*
X114300499Y-81152128D01*
X114294091Y-81092517D01*
X114294089Y-81092512D01*
X114243797Y-80957670D01*
X114243796Y-80957669D01*
X114157546Y-80842454D01*
X114042331Y-80756204D01*
X114042330Y-80756203D01*
X114042329Y-80756202D01*
X113907487Y-80705910D01*
X113907484Y-80705909D01*
X113907483Y-80705909D01*
X113847873Y-80699500D01*
X111352126Y-80699500D01*
X111292514Y-80705909D01*
X111157670Y-80756202D01*
X111157669Y-80756203D01*
X111042454Y-80842454D01*
X110956203Y-80957669D01*
X110956202Y-80957670D01*
X110905910Y-81092512D01*
X110905909Y-81092517D01*
X110899500Y-81152126D01*
X110899500Y-83647873D01*
X110600500Y-83647873D01*
X110600499Y-81152128D01*
X110594091Y-81092517D01*
X110594089Y-81092512D01*
X110543797Y-80957670D01*
X110543796Y-80957669D01*
X110457546Y-80842454D01*
X110342331Y-80756204D01*
X110342330Y-80756203D01*
X110342329Y-80756202D01*
X110207487Y-80705910D01*
X110207484Y-80705909D01*
X110207483Y-80705909D01*
X110147873Y-80699500D01*
X107652126Y-80699500D01*
X107592514Y-80705909D01*
X107457670Y-80756202D01*
X107457669Y-80756203D01*
X107342454Y-80842454D01*
X107256203Y-80957669D01*
X107256202Y-80957670D01*
X107205910Y-81092512D01*
X107205909Y-81092517D01*
X107199500Y-81152126D01*
X107199500Y-83647873D01*
X106900500Y-83647873D01*
X106900499Y-81152128D01*
X106894091Y-81092517D01*
X106894089Y-81092512D01*
X106843797Y-80957670D01*
X106843796Y-80957669D01*
X106757546Y-80842454D01*
X106642331Y-80756204D01*
X106642330Y-80756203D01*
X106642329Y-80756202D01*
X106507487Y-80705910D01*
X106507484Y-80705909D01*
X106507483Y-80705909D01*
X106447873Y-80699500D01*
X103952126Y-80699500D01*
X103892514Y-80705909D01*
X103757670Y-80756202D01*
X103757669Y-80756203D01*
X103642454Y-80842454D01*
X103556203Y-80957669D01*
X103556202Y-80957670D01*
X103505910Y-81092512D01*
X103505909Y-81092517D01*
X103499500Y-81152126D01*
X103499500Y-83647873D01*
X100000500Y-83647873D01*
X100000500Y-79947873D01*
X118299500Y-79947873D01*
X118305909Y-80007485D01*
X118356202Y-80142329D01*
X118356203Y-80142330D01*
X118356204Y-80142331D01*
X118442454Y-80257546D01*
X118557669Y-80343796D01*
X118557670Y-80343797D01*
X118668605Y-80385172D01*
X118692517Y-80394091D01*
X118752127Y-80400500D01*
X121247872Y-80400499D01*
X121307483Y-80394091D01*
X121374907Y-80368943D01*
X121442329Y-80343797D01*
X121442329Y-80343796D01*
X121442331Y-80343796D01*
X121557546Y-80257546D01*
X121643796Y-80142331D01*
X121694091Y-80007483D01*
X121700500Y-79947873D01*
X121700499Y-77452128D01*
X121694091Y-77392517D01*
X121694089Y-77392512D01*
X121643797Y-77257670D01*
X121643796Y-77257669D01*
X121557546Y-77142454D01*
X121442331Y-77056204D01*
X121442330Y-77056203D01*
X121442329Y-77056202D01*
X121307487Y-77005910D01*
X121307484Y-77005909D01*
X121307483Y-77005909D01*
X121247873Y-76999500D01*
X118752126Y-76999500D01*
X118692514Y-77005909D01*
X118557670Y-77056202D01*
X118557669Y-77056203D01*
X118442454Y-77142454D01*
X118356203Y-77257669D01*
X118356202Y-77257670D01*
X118305910Y-77392512D01*
X118305909Y-77392517D01*
X118299500Y-77452126D01*
X118299500Y-79947873D01*
X100000500Y-79947873D01*
X100000500Y-77550000D01*
X105845052Y-77550000D01*
X105864811Y-77801069D01*
X105923602Y-78045952D01*
X106019982Y-78278633D01*
X106019986Y-78278640D01*
X106151569Y-78493364D01*
X106151572Y-78493369D01*
X106217410Y-78570455D01*
X106217411Y-78570455D01*
X106787908Y-77999957D01*
X106820577Y-78051948D01*
X106948052Y-78179423D01*
X107000041Y-78212090D01*
X106429543Y-78782588D01*
X106506636Y-78848430D01*
X106506637Y-78848431D01*
X106721359Y-78980013D01*
X106721366Y-78980017D01*
X106954047Y-79076397D01*
X107198930Y-79135188D01*
X107198929Y-79135188D01*
X107450000Y-79154947D01*
X107701069Y-79135188D01*
X107945952Y-79076397D01*
X108178633Y-78980017D01*
X108178640Y-78980013D01*
X108393362Y-78848431D01*
X108393363Y-78848430D01*
X108470455Y-78782588D01*
X108470455Y-78782587D01*
X107899958Y-78212090D01*
X107951948Y-78179423D01*
X108079423Y-78051948D01*
X108112090Y-77999958D01*
X108682587Y-78570455D01*
X108682588Y-78570455D01*
X108748430Y-78493363D01*
X108748431Y-78493362D01*
X108880013Y-78278640D01*
X108880017Y-78278633D01*
X108976397Y-78045952D01*
X109035188Y-77801069D01*
X109054947Y-77550000D01*
X110945052Y-77550000D01*
X110964811Y-77801069D01*
X111023602Y-78045952D01*
X111119982Y-78278633D01*
X111119986Y-78278640D01*
X111251569Y-78493364D01*
X111251572Y-78493369D01*
X111317410Y-78570455D01*
X111317411Y-78570455D01*
X111887908Y-77999957D01*
X111920577Y-78051948D01*
X112048052Y-78179423D01*
X112100041Y-78212090D01*
X111529543Y-78782588D01*
X111606636Y-78848430D01*
X111606637Y-78848431D01*
X111821359Y-78980013D01*
X111821366Y-78980017D01*
X112054047Y-79076397D01*
X112298930Y-79135188D01*
X112298929Y-79135188D01*
X112550000Y-79154947D01*
X112801069Y-79135188D01*
X113045952Y-79076397D01*
X113278633Y-78980017D01*
X113278640Y-78980013D01*
X113493362Y-78848431D01*
X113493363Y-78848430D01*
X113570455Y-78782588D01*
X113570455Y-78782587D01*
X112999958Y-78212090D01*
X113051948Y-78179423D01*
X113179423Y-78051948D01*
X113212090Y-77999958D01*
X113782587Y-78570455D01*
X113782588Y-78570455D01*
X113848430Y-78493363D01*
X113848431Y-78493362D01*
X113980013Y-78278640D01*
X113980017Y-78278633D01*
X114076397Y-78045952D01*
X114135188Y-77801069D01*
X114151729Y-77590899D01*
X114171617Y-77547258D01*
X114155964Y-77528603D01*
X114151729Y-77509100D01*
X114135188Y-77298930D01*
X114076397Y-77054047D01*
X113980017Y-76821366D01*
X113980013Y-76821359D01*
X113848431Y-76606637D01*
X113848430Y-76606636D01*
X113782588Y-76529543D01*
X113212089Y-77100041D01*
X113179423Y-77048052D01*
X113051948Y-76920577D01*
X112999957Y-76887908D01*
X113570455Y-76317411D01*
X113570455Y-76317410D01*
X113493369Y-76251572D01*
X113493364Y-76251569D01*
X113278640Y-76119986D01*
X113278633Y-76119982D01*
X113045952Y-76023602D01*
X112801069Y-75964811D01*
X112801070Y-75964811D01*
X112550000Y-75945052D01*
X112298930Y-75964811D01*
X112054047Y-76023602D01*
X111821366Y-76119982D01*
X111821359Y-76119986D01*
X111606635Y-76251569D01*
X111606630Y-76251572D01*
X111529543Y-76317410D01*
X111529543Y-76317411D01*
X112100041Y-76887909D01*
X112048052Y-76920577D01*
X111920577Y-77048052D01*
X111887909Y-77100041D01*
X111317411Y-76529543D01*
X111317410Y-76529543D01*
X111251572Y-76606630D01*
X111251569Y-76606635D01*
X111119986Y-76821359D01*
X111119982Y-76821366D01*
X111023602Y-77054047D01*
X110964811Y-77298930D01*
X110945052Y-77550000D01*
X109054947Y-77550000D01*
X109035188Y-77298930D01*
X108976397Y-77054047D01*
X108880017Y-76821366D01*
X108880013Y-76821359D01*
X108748431Y-76606637D01*
X108748430Y-76606636D01*
X108682588Y-76529543D01*
X108112089Y-77100041D01*
X108079423Y-77048052D01*
X107951948Y-76920577D01*
X107899957Y-76887908D01*
X108470455Y-76317411D01*
X108470455Y-76317410D01*
X108393369Y-76251572D01*
X108393364Y-76251569D01*
X108178640Y-76119986D01*
X108178633Y-76119982D01*
X107945952Y-76023602D01*
X107701069Y-75964811D01*
X107701070Y-75964811D01*
X107450000Y-75945052D01*
X107198930Y-75964811D01*
X106954047Y-76023602D01*
X106721366Y-76119982D01*
X106721359Y-76119986D01*
X106506635Y-76251569D01*
X106506630Y-76251572D01*
X106429543Y-76317410D01*
X106429543Y-76317411D01*
X107000041Y-76887909D01*
X106948052Y-76920577D01*
X106820577Y-77048052D01*
X106787909Y-77100041D01*
X106217411Y-76529543D01*
X106217410Y-76529543D01*
X106151572Y-76606630D01*
X106151569Y-76606635D01*
X106019986Y-76821359D01*
X106019982Y-76821366D01*
X105923602Y-77054047D01*
X105864811Y-77298930D01*
X105845052Y-77550000D01*
X100000500Y-77550000D01*
X100000500Y-76415001D01*
X102858972Y-76415001D01*
X102864736Y-76477204D01*
X102864738Y-76477218D01*
X102923061Y-76682202D01*
X102923064Y-76682212D01*
X103018059Y-76872988D01*
X103018063Y-76872994D01*
X103146501Y-77043071D01*
X103304003Y-77186653D01*
X103485200Y-77298844D01*
X103485210Y-77298849D01*
X103683935Y-77375836D01*
X103849999Y-77406879D01*
X103850000Y-77406879D01*
X103850000Y-76746170D01*
X103857685Y-76749680D01*
X103964237Y-76765000D01*
X104035763Y-76765000D01*
X104142315Y-76749680D01*
X104150000Y-76746170D01*
X104150000Y-77406879D01*
X104316064Y-77375836D01*
X104514789Y-77298849D01*
X104514799Y-77298844D01*
X104695996Y-77186653D01*
X104853498Y-77043071D01*
X104981936Y-76872994D01*
X104981940Y-76872988D01*
X105076935Y-76682212D01*
X105076938Y-76682202D01*
X105135261Y-76477218D01*
X105135263Y-76477204D01*
X105141027Y-76415001D01*
X105141026Y-76415000D01*
X104477065Y-76415000D01*
X104500000Y-76336889D01*
X104500000Y-76193111D01*
X104477065Y-76115000D01*
X105141026Y-76115000D01*
X105141027Y-76114998D01*
X105135263Y-76052795D01*
X105135261Y-76052781D01*
X105076938Y-75847797D01*
X105076935Y-75847787D01*
X104981940Y-75657011D01*
X104981936Y-75657005D01*
X104853498Y-75486928D01*
X104695996Y-75343346D01*
X104514799Y-75231155D01*
X104514789Y-75231150D01*
X104316063Y-75154162D01*
X104150000Y-75123119D01*
X104150000Y-75783829D01*
X104142315Y-75780320D01*
X104035763Y-75765000D01*
X103964237Y-75765000D01*
X103857685Y-75780320D01*
X103850000Y-75783829D01*
X103850000Y-75123119D01*
X103849999Y-75123119D01*
X103683936Y-75154162D01*
X103485210Y-75231150D01*
X103485200Y-75231155D01*
X103304003Y-75343346D01*
X103146501Y-75486928D01*
X103018063Y-75657005D01*
X103018059Y-75657011D01*
X102923064Y-75847787D01*
X102923061Y-75847797D01*
X102864738Y-76052781D01*
X102864736Y-76052795D01*
X102858972Y-76114998D01*
X102858974Y-76115000D01*
X103522935Y-76115000D01*
X103500000Y-76193111D01*
X103500000Y-76336889D01*
X103522935Y-76415000D01*
X102858974Y-76415000D01*
X102858972Y-76415001D01*
X100000500Y-76415001D01*
X100000500Y-74594746D01*
X102949500Y-74594746D01*
X102961133Y-74653232D01*
X102990608Y-74697343D01*
X103005448Y-74719552D01*
X103049560Y-74749027D01*
X103071767Y-74763866D01*
X103071768Y-74763866D01*
X103071769Y-74763867D01*
X103130252Y-74775500D01*
X104559521Y-74775500D01*
X104607087Y-74792813D01*
X104611847Y-74797174D01*
X105032510Y-75217837D01*
X105036872Y-75222598D01*
X105062543Y-75253193D01*
X105097150Y-75273173D01*
X105102584Y-75276635D01*
X105135316Y-75299554D01*
X105139945Y-75300794D01*
X105157800Y-75308189D01*
X105161955Y-75310588D01*
X105201312Y-75317527D01*
X105207588Y-75318918D01*
X105246193Y-75329263D01*
X105285983Y-75325781D01*
X105292432Y-75325500D01*
X108528545Y-75325500D01*
X108576111Y-75342813D01*
X108600281Y-75381334D01*
X108623392Y-75472597D01*
X108704281Y-75657005D01*
X108719951Y-75692728D01*
X108851429Y-75893969D01*
X109014236Y-76070825D01*
X109203933Y-76218472D01*
X109415344Y-76332882D01*
X109642703Y-76410934D01*
X109879808Y-76450500D01*
X110120192Y-76450500D01*
X110357297Y-76410934D01*
X110584656Y-76332882D01*
X110796067Y-76218472D01*
X110985764Y-76070825D01*
X111148571Y-75893969D01*
X111280049Y-75692728D01*
X111376610Y-75472591D01*
X111399719Y-75381333D01*
X111428179Y-75339473D01*
X111471455Y-75325500D01*
X114225501Y-75325500D01*
X114273067Y-75342813D01*
X114298377Y-75386650D01*
X114299501Y-75399500D01*
X114299501Y-77503294D01*
X114282188Y-77550860D01*
X114279373Y-77552484D01*
X114296810Y-77576929D01*
X114299501Y-77596705D01*
X114299501Y-79247873D01*
X114305909Y-79307485D01*
X114356202Y-79442329D01*
X114356203Y-79442330D01*
X114356204Y-79442331D01*
X114442454Y-79557546D01*
X114557669Y-79643796D01*
X114557670Y-79643797D01*
X114668605Y-79685172D01*
X114692517Y-79694091D01*
X114752127Y-79700500D01*
X117247872Y-79700499D01*
X117307483Y-79694091D01*
X117374907Y-79668943D01*
X117442329Y-79643797D01*
X117442329Y-79643796D01*
X117442331Y-79643796D01*
X117557546Y-79557546D01*
X117643796Y-79442331D01*
X117694091Y-79307483D01*
X117700500Y-79247873D01*
X117700500Y-76247873D01*
X118299500Y-76247873D01*
X118305909Y-76307485D01*
X118356202Y-76442329D01*
X118356203Y-76442330D01*
X118362319Y-76450500D01*
X118442454Y-76557546D01*
X118557669Y-76643796D01*
X118557670Y-76643797D01*
X118660641Y-76682202D01*
X118692517Y-76694091D01*
X118752127Y-76700500D01*
X121247872Y-76700499D01*
X121307483Y-76694091D01*
X121374907Y-76668943D01*
X121442329Y-76643797D01*
X121442329Y-76643796D01*
X121442331Y-76643796D01*
X121557546Y-76557546D01*
X121643796Y-76442331D01*
X121653990Y-76415001D01*
X121683123Y-76336889D01*
X121694091Y-76307483D01*
X121700500Y-76247873D01*
X121700499Y-73752128D01*
X121700101Y-73748430D01*
X121698955Y-73737766D01*
X121694091Y-73692517D01*
X121690388Y-73682588D01*
X121643797Y-73557670D01*
X121643796Y-73557669D01*
X121637681Y-73549500D01*
X121557546Y-73442454D01*
X121442331Y-73356204D01*
X121442330Y-73356203D01*
X121442329Y-73356202D01*
X121307487Y-73305910D01*
X121307484Y-73305909D01*
X121307483Y-73305909D01*
X121247873Y-73299500D01*
X118752126Y-73299500D01*
X118692514Y-73305909D01*
X118557670Y-73356202D01*
X118557669Y-73356203D01*
X118442454Y-73442454D01*
X118356203Y-73557669D01*
X118356202Y-73557670D01*
X118305910Y-73692512D01*
X118305909Y-73692517D01*
X118299500Y-73752126D01*
X118299500Y-76247873D01*
X117700500Y-76247873D01*
X117700499Y-72547873D01*
X118299500Y-72547873D01*
X118305909Y-72607485D01*
X118356202Y-72742329D01*
X118356203Y-72742330D01*
X118356204Y-72742331D01*
X118442454Y-72857546D01*
X118557669Y-72943796D01*
X118557670Y-72943797D01*
X118668605Y-72985172D01*
X118692517Y-72994091D01*
X118752127Y-73000500D01*
X121247872Y-73000499D01*
X121307483Y-72994091D01*
X121374907Y-72968943D01*
X121442329Y-72943797D01*
X121442329Y-72943796D01*
X121442331Y-72943796D01*
X121557546Y-72857546D01*
X121643796Y-72742331D01*
X121648229Y-72730447D01*
X121686012Y-72629143D01*
X121694091Y-72607483D01*
X121700500Y-72547873D01*
X121700499Y-70052128D01*
X121694091Y-69992517D01*
X121694089Y-69992512D01*
X121643797Y-69857670D01*
X121643796Y-69857669D01*
X121557546Y-69742454D01*
X121442331Y-69656204D01*
X121442330Y-69656203D01*
X121442329Y-69656202D01*
X121307487Y-69605910D01*
X121307484Y-69605909D01*
X121307483Y-69605909D01*
X121247873Y-69599500D01*
X118752126Y-69599500D01*
X118692514Y-69605909D01*
X118557670Y-69656202D01*
X118557669Y-69656203D01*
X118442454Y-69742454D01*
X118356203Y-69857669D01*
X118356202Y-69857670D01*
X118305910Y-69992512D01*
X118305909Y-69992517D01*
X118299500Y-70052126D01*
X118299500Y-72547873D01*
X117700499Y-72547873D01*
X117700499Y-70752128D01*
X117694091Y-70692517D01*
X117694089Y-70692512D01*
X117643797Y-70557670D01*
X117643796Y-70557669D01*
X117557546Y-70442454D01*
X117442331Y-70356204D01*
X117442330Y-70356203D01*
X117442329Y-70356202D01*
X117307487Y-70305910D01*
X117307484Y-70305909D01*
X117307483Y-70305909D01*
X117247873Y-70299500D01*
X114752126Y-70299500D01*
X114692514Y-70305909D01*
X114557670Y-70356202D01*
X114557669Y-70356203D01*
X114442454Y-70442454D01*
X114356203Y-70557669D01*
X114356202Y-70557670D01*
X114305910Y-70692512D01*
X114305909Y-70692517D01*
X114299500Y-70752126D01*
X114299500Y-72403281D01*
X114282187Y-72450847D01*
X114279359Y-72452479D01*
X114296809Y-72476942D01*
X114299500Y-72496718D01*
X114299500Y-74600500D01*
X114282187Y-74648066D01*
X114238350Y-74673376D01*
X114225500Y-74674500D01*
X111471455Y-74674500D01*
X111423889Y-74657187D01*
X111399719Y-74618666D01*
X111393662Y-74594748D01*
X111376610Y-74527409D01*
X111280049Y-74307272D01*
X111148571Y-74106031D01*
X110985764Y-73929175D01*
X110796067Y-73781528D01*
X110707715Y-73733714D01*
X110584655Y-73667117D01*
X110357295Y-73589065D01*
X110120194Y-73549500D01*
X110120192Y-73549500D01*
X109879808Y-73549500D01*
X109879805Y-73549500D01*
X109642704Y-73589065D01*
X109415344Y-73667117D01*
X109203940Y-73781524D01*
X109203928Y-73781531D01*
X109014234Y-73929176D01*
X108851427Y-74106033D01*
X108719951Y-74307271D01*
X108623392Y-74527402D01*
X108600281Y-74618666D01*
X108571821Y-74660527D01*
X108528545Y-74674500D01*
X105440479Y-74674500D01*
X105392913Y-74657187D01*
X105388153Y-74652826D01*
X105072174Y-74336847D01*
X105050782Y-74290971D01*
X105050500Y-74284521D01*
X105050500Y-72855253D01*
X105050500Y-72855252D01*
X105038867Y-72796769D01*
X104994552Y-72730448D01*
X104950584Y-72701069D01*
X104928232Y-72686133D01*
X104928233Y-72686133D01*
X104898989Y-72680316D01*
X104869748Y-72674500D01*
X103130252Y-72674500D01*
X103101010Y-72680316D01*
X103071767Y-72686133D01*
X103005449Y-72730447D01*
X103005447Y-72730449D01*
X102961133Y-72796767D01*
X102949500Y-72855253D01*
X102949500Y-74594746D01*
X100000500Y-74594746D01*
X100000500Y-72450000D01*
X105845052Y-72450000D01*
X105864811Y-72701069D01*
X105923602Y-72945952D01*
X106019982Y-73178633D01*
X106019986Y-73178640D01*
X106151569Y-73393364D01*
X106151572Y-73393369D01*
X106217410Y-73470455D01*
X106217411Y-73470455D01*
X106787908Y-72899957D01*
X106820577Y-72951948D01*
X106948052Y-73079423D01*
X107000041Y-73112090D01*
X106429543Y-73682588D01*
X106506636Y-73748430D01*
X106506637Y-73748431D01*
X106721359Y-73880013D01*
X106721366Y-73880017D01*
X106954047Y-73976397D01*
X107198930Y-74035188D01*
X107198929Y-74035188D01*
X107450000Y-74054947D01*
X107701069Y-74035188D01*
X107945952Y-73976397D01*
X108178633Y-73880017D01*
X108178640Y-73880013D01*
X108393362Y-73748431D01*
X108393363Y-73748430D01*
X108470455Y-73682588D01*
X108470455Y-73682587D01*
X107899958Y-73112090D01*
X107951948Y-73079423D01*
X108079423Y-72951948D01*
X108112090Y-72899958D01*
X108682587Y-73470455D01*
X108682588Y-73470455D01*
X108748430Y-73393363D01*
X108748431Y-73393362D01*
X108880013Y-73178640D01*
X108880017Y-73178633D01*
X108976397Y-72945952D01*
X109035188Y-72701069D01*
X109054947Y-72450000D01*
X110945052Y-72450000D01*
X110964811Y-72701069D01*
X111023602Y-72945952D01*
X111119982Y-73178633D01*
X111119986Y-73178640D01*
X111251569Y-73393364D01*
X111251572Y-73393369D01*
X111317410Y-73470455D01*
X111317411Y-73470455D01*
X111887908Y-72899957D01*
X111920577Y-72951948D01*
X112048052Y-73079423D01*
X112100041Y-73112089D01*
X111529542Y-73682588D01*
X111606636Y-73748430D01*
X111606637Y-73748431D01*
X111821359Y-73880013D01*
X111821366Y-73880017D01*
X112054047Y-73976397D01*
X112298930Y-74035188D01*
X112298929Y-74035188D01*
X112550000Y-74054947D01*
X112801069Y-74035188D01*
X113045952Y-73976397D01*
X113278633Y-73880017D01*
X113278640Y-73880013D01*
X113493362Y-73748431D01*
X113493363Y-73748430D01*
X113570455Y-73682588D01*
X113570455Y-73682587D01*
X112999958Y-73112090D01*
X113051948Y-73079423D01*
X113179423Y-72951948D01*
X113212090Y-72899958D01*
X113782587Y-73470455D01*
X113782588Y-73470455D01*
X113848430Y-73393363D01*
X113848431Y-73393362D01*
X113980013Y-73178640D01*
X113980017Y-73178633D01*
X114076397Y-72945952D01*
X114135188Y-72701069D01*
X114151728Y-72490912D01*
X114171623Y-72447254D01*
X114155963Y-72428590D01*
X114151728Y-72409087D01*
X114135188Y-72198930D01*
X114076397Y-71954047D01*
X113980017Y-71721366D01*
X113980013Y-71721359D01*
X113848431Y-71506637D01*
X113848430Y-71506636D01*
X113782588Y-71429543D01*
X113212089Y-72000041D01*
X113179423Y-71948052D01*
X113051948Y-71820577D01*
X112999957Y-71787908D01*
X113570455Y-71217411D01*
X113570455Y-71217410D01*
X113493369Y-71151572D01*
X113493364Y-71151569D01*
X113278640Y-71019986D01*
X113278633Y-71019982D01*
X113045952Y-70923602D01*
X112801069Y-70864811D01*
X112801070Y-70864811D01*
X112550000Y-70845052D01*
X112298930Y-70864811D01*
X112054047Y-70923602D01*
X111821366Y-71019982D01*
X111821359Y-71019986D01*
X111606635Y-71151569D01*
X111606630Y-71151572D01*
X111529543Y-71217410D01*
X111529543Y-71217411D01*
X112100041Y-71787909D01*
X112048052Y-71820577D01*
X111920577Y-71948052D01*
X111887909Y-72000041D01*
X111317411Y-71429543D01*
X111317410Y-71429543D01*
X111251572Y-71506630D01*
X111251569Y-71506635D01*
X111119986Y-71721359D01*
X111119982Y-71721366D01*
X111023602Y-71954047D01*
X110964811Y-72198930D01*
X110945052Y-72450000D01*
X109054947Y-72450000D01*
X109035188Y-72198930D01*
X108976397Y-71954047D01*
X108880017Y-71721366D01*
X108880013Y-71721359D01*
X108748431Y-71506637D01*
X108748430Y-71506636D01*
X108682588Y-71429543D01*
X108112089Y-72000041D01*
X108079423Y-71948052D01*
X107951948Y-71820577D01*
X107899957Y-71787908D01*
X108470455Y-71217411D01*
X108470455Y-71217410D01*
X108393369Y-71151572D01*
X108393364Y-71151569D01*
X108178640Y-71019986D01*
X108178633Y-71019982D01*
X107945952Y-70923602D01*
X107701069Y-70864811D01*
X107701070Y-70864811D01*
X107450000Y-70845052D01*
X107198930Y-70864811D01*
X106954047Y-70923602D01*
X106721366Y-71019982D01*
X106721359Y-71019986D01*
X106506635Y-71151569D01*
X106506630Y-71151572D01*
X106429543Y-71217410D01*
X106429543Y-71217411D01*
X107000041Y-71787909D01*
X106948052Y-71820577D01*
X106820577Y-71948052D01*
X106787909Y-72000041D01*
X106217411Y-71429543D01*
X106217410Y-71429543D01*
X106151572Y-71506630D01*
X106151569Y-71506635D01*
X106019986Y-71721359D01*
X106019982Y-71721366D01*
X105923602Y-71954047D01*
X105864811Y-72198930D01*
X105845052Y-72450000D01*
X100000500Y-72450000D01*
X100000500Y-68847873D01*
X103499500Y-68847873D01*
X103505909Y-68907485D01*
X103556202Y-69042329D01*
X103556203Y-69042330D01*
X103556204Y-69042331D01*
X103642454Y-69157546D01*
X103757669Y-69243796D01*
X103757670Y-69243797D01*
X103868605Y-69285172D01*
X103892517Y-69294091D01*
X103952127Y-69300500D01*
X106447872Y-69300499D01*
X106507483Y-69294091D01*
X106574907Y-69268943D01*
X106642329Y-69243797D01*
X106642329Y-69243796D01*
X106642331Y-69243796D01*
X106757546Y-69157546D01*
X106843796Y-69042331D01*
X106894091Y-68907483D01*
X106900500Y-68847873D01*
X107199500Y-68847873D01*
X107205909Y-68907485D01*
X107256202Y-69042329D01*
X107256203Y-69042330D01*
X107256204Y-69042331D01*
X107342454Y-69157546D01*
X107457669Y-69243796D01*
X107457670Y-69243797D01*
X107568605Y-69285172D01*
X107592517Y-69294091D01*
X107652127Y-69300500D01*
X110147872Y-69300499D01*
X110207483Y-69294091D01*
X110274907Y-69268943D01*
X110342329Y-69243797D01*
X110342329Y-69243796D01*
X110342331Y-69243796D01*
X110457546Y-69157546D01*
X110543796Y-69042331D01*
X110594091Y-68907483D01*
X110600500Y-68847873D01*
X110899500Y-68847873D01*
X110905909Y-68907485D01*
X110956202Y-69042329D01*
X110956203Y-69042330D01*
X110956204Y-69042331D01*
X111042454Y-69157546D01*
X111157669Y-69243796D01*
X111157670Y-69243797D01*
X111268605Y-69285172D01*
X111292517Y-69294091D01*
X111352127Y-69300500D01*
X113847872Y-69300499D01*
X113907483Y-69294091D01*
X113974907Y-69268943D01*
X114042329Y-69243797D01*
X114042329Y-69243796D01*
X114042331Y-69243796D01*
X114157546Y-69157546D01*
X114243796Y-69042331D01*
X114294091Y-68907483D01*
X114300500Y-68847873D01*
X114599500Y-68847873D01*
X114605909Y-68907485D01*
X114656202Y-69042329D01*
X114656203Y-69042330D01*
X114656204Y-69042331D01*
X114742454Y-69157546D01*
X114857669Y-69243796D01*
X114857670Y-69243797D01*
X114968605Y-69285172D01*
X114992517Y-69294091D01*
X115052127Y-69300500D01*
X117547872Y-69300499D01*
X117607483Y-69294091D01*
X117674907Y-69268943D01*
X117742329Y-69243797D01*
X117742329Y-69243796D01*
X117742331Y-69243796D01*
X117857546Y-69157546D01*
X117943796Y-69042331D01*
X117994091Y-68907483D01*
X118000500Y-68847873D01*
X118299500Y-68847873D01*
X118305909Y-68907485D01*
X118356202Y-69042329D01*
X118356203Y-69042330D01*
X118356204Y-69042331D01*
X118442454Y-69157546D01*
X118557669Y-69243796D01*
X118557670Y-69243797D01*
X118668605Y-69285172D01*
X118692517Y-69294091D01*
X118752127Y-69300500D01*
X121247872Y-69300499D01*
X121307483Y-69294091D01*
X121374907Y-69268943D01*
X121442329Y-69243797D01*
X121442329Y-69243796D01*
X121442331Y-69243796D01*
X121557546Y-69157546D01*
X121643796Y-69042331D01*
X121694091Y-68907483D01*
X121700500Y-68847873D01*
X121700499Y-66352128D01*
X121694091Y-66292517D01*
X121694089Y-66292512D01*
X121643797Y-66157670D01*
X121643796Y-66157669D01*
X121557546Y-66042454D01*
X121442331Y-65956204D01*
X121442330Y-65956203D01*
X121442329Y-65956202D01*
X121307487Y-65905910D01*
X121307484Y-65905909D01*
X121307483Y-65905909D01*
X121247873Y-65899500D01*
X118752126Y-65899500D01*
X118692514Y-65905909D01*
X118557670Y-65956202D01*
X118557669Y-65956203D01*
X118442454Y-66042454D01*
X118356203Y-66157669D01*
X118356202Y-66157670D01*
X118305910Y-66292512D01*
X118305909Y-66292517D01*
X118299500Y-66352126D01*
X118299500Y-68847873D01*
X118000500Y-68847873D01*
X118000499Y-66352128D01*
X117994091Y-66292517D01*
X117994089Y-66292512D01*
X117943797Y-66157670D01*
X117943796Y-66157669D01*
X117857546Y-66042454D01*
X117742331Y-65956204D01*
X117742330Y-65956203D01*
X117742329Y-65956202D01*
X117607487Y-65905910D01*
X117607484Y-65905909D01*
X117607483Y-65905909D01*
X117547873Y-65899500D01*
X115052126Y-65899500D01*
X114992514Y-65905909D01*
X114857670Y-65956202D01*
X114857669Y-65956203D01*
X114742454Y-66042454D01*
X114656203Y-66157669D01*
X114656202Y-66157670D01*
X114605910Y-66292512D01*
X114605909Y-66292517D01*
X114599500Y-66352126D01*
X114599500Y-68847873D01*
X114300500Y-68847873D01*
X114300499Y-66352128D01*
X114294091Y-66292517D01*
X114294089Y-66292512D01*
X114243797Y-66157670D01*
X114243796Y-66157669D01*
X114157546Y-66042454D01*
X114042331Y-65956204D01*
X114042330Y-65956203D01*
X114042329Y-65956202D01*
X113907487Y-65905910D01*
X113907484Y-65905909D01*
X113907483Y-65905909D01*
X113847873Y-65899500D01*
X111352126Y-65899500D01*
X111292514Y-65905909D01*
X111157670Y-65956202D01*
X111157669Y-65956203D01*
X111042454Y-66042454D01*
X110956203Y-66157669D01*
X110956202Y-66157670D01*
X110905910Y-66292512D01*
X110905909Y-66292517D01*
X110899500Y-66352126D01*
X110899500Y-68847873D01*
X110600500Y-68847873D01*
X110600499Y-66352128D01*
X110594091Y-66292517D01*
X110594089Y-66292512D01*
X110543797Y-66157670D01*
X110543796Y-66157669D01*
X110457546Y-66042454D01*
X110342331Y-65956204D01*
X110342330Y-65956203D01*
X110342329Y-65956202D01*
X110207487Y-65905910D01*
X110207484Y-65905909D01*
X110207483Y-65905909D01*
X110147873Y-65899500D01*
X107652126Y-65899500D01*
X107592514Y-65905909D01*
X107457670Y-65956202D01*
X107457669Y-65956203D01*
X107342454Y-66042454D01*
X107256203Y-66157669D01*
X107256202Y-66157670D01*
X107205910Y-66292512D01*
X107205909Y-66292517D01*
X107199500Y-66352126D01*
X107199500Y-68847873D01*
X106900500Y-68847873D01*
X106900499Y-66352128D01*
X106894091Y-66292517D01*
X106894089Y-66292512D01*
X106843797Y-66157670D01*
X106843796Y-66157669D01*
X106757546Y-66042454D01*
X106642331Y-65956204D01*
X106642330Y-65956203D01*
X106642329Y-65956202D01*
X106507487Y-65905910D01*
X106507484Y-65905909D01*
X106507483Y-65905909D01*
X106447873Y-65899500D01*
X103952126Y-65899500D01*
X103892514Y-65905909D01*
X103757670Y-65956202D01*
X103757669Y-65956203D01*
X103642454Y-66042454D01*
X103556203Y-66157669D01*
X103556202Y-66157670D01*
X103505910Y-66292512D01*
X103505909Y-66292517D01*
X103499500Y-66352126D01*
X103499500Y-68847873D01*
X100000500Y-68847873D01*
X100000500Y-63747873D01*
X103499500Y-63747873D01*
X103505909Y-63807485D01*
X103556202Y-63942329D01*
X103556203Y-63942330D01*
X103556204Y-63942331D01*
X103642454Y-64057546D01*
X103757669Y-64143796D01*
X103757670Y-64143797D01*
X103868605Y-64185172D01*
X103892517Y-64194091D01*
X103952127Y-64200500D01*
X106447872Y-64200499D01*
X106507483Y-64194091D01*
X106574907Y-64168943D01*
X106642329Y-64143797D01*
X106642329Y-64143796D01*
X106642331Y-64143796D01*
X106757546Y-64057546D01*
X106843796Y-63942331D01*
X106894091Y-63807483D01*
X106900500Y-63747873D01*
X107199500Y-63747873D01*
X107205909Y-63807485D01*
X107256202Y-63942329D01*
X107256203Y-63942330D01*
X107256204Y-63942331D01*
X107342454Y-64057546D01*
X107457669Y-64143796D01*
X107457670Y-64143797D01*
X107568605Y-64185172D01*
X107592517Y-64194091D01*
X107652127Y-64200500D01*
X110147872Y-64200499D01*
X110207483Y-64194091D01*
X110274907Y-64168943D01*
X110342329Y-64143797D01*
X110342329Y-64143796D01*
X110342331Y-64143796D01*
X110457546Y-64057546D01*
X110543796Y-63942331D01*
X110594091Y-63807483D01*
X110600500Y-63747873D01*
X110899500Y-63747873D01*
X110905909Y-63807485D01*
X110956202Y-63942329D01*
X110956203Y-63942330D01*
X110956204Y-63942331D01*
X111042454Y-64057546D01*
X111157669Y-64143796D01*
X111157670Y-64143797D01*
X111268605Y-64185172D01*
X111292517Y-64194091D01*
X111352127Y-64200500D01*
X113847872Y-64200499D01*
X113907483Y-64194091D01*
X113974907Y-64168943D01*
X114042329Y-64143797D01*
X114042329Y-64143796D01*
X114042331Y-64143796D01*
X114157546Y-64057546D01*
X114243796Y-63942331D01*
X114294091Y-63807483D01*
X114300500Y-63747873D01*
X114599500Y-63747873D01*
X114605909Y-63807485D01*
X114656202Y-63942329D01*
X114656203Y-63942330D01*
X114656204Y-63942331D01*
X114742454Y-64057546D01*
X114857669Y-64143796D01*
X114857670Y-64143797D01*
X114968605Y-64185172D01*
X114992517Y-64194091D01*
X115052127Y-64200500D01*
X117547872Y-64200499D01*
X117607483Y-64194091D01*
X117674907Y-64168943D01*
X117742329Y-64143797D01*
X117742329Y-64143796D01*
X117742331Y-64143796D01*
X117857546Y-64057546D01*
X117943796Y-63942331D01*
X117994091Y-63807483D01*
X118000500Y-63747873D01*
X118299500Y-63747873D01*
X118305909Y-63807485D01*
X118356202Y-63942329D01*
X118356203Y-63942330D01*
X118356204Y-63942331D01*
X118442454Y-64057546D01*
X118557669Y-64143796D01*
X118557670Y-64143797D01*
X118668605Y-64185172D01*
X118692517Y-64194091D01*
X118752127Y-64200500D01*
X121247872Y-64200499D01*
X121307483Y-64194091D01*
X121374907Y-64168943D01*
X121442329Y-64143797D01*
X121442329Y-64143796D01*
X121442331Y-64143796D01*
X121557546Y-64057546D01*
X121643796Y-63942331D01*
X121694091Y-63807483D01*
X121700500Y-63747873D01*
X121700499Y-61252128D01*
X121694091Y-61192517D01*
X121694089Y-61192512D01*
X121643797Y-61057670D01*
X121643796Y-61057669D01*
X121557546Y-60942454D01*
X121442331Y-60856204D01*
X121442330Y-60856203D01*
X121442329Y-60856202D01*
X121307487Y-60805910D01*
X121307484Y-60805909D01*
X121307483Y-60805909D01*
X121247873Y-60799500D01*
X118752126Y-60799500D01*
X118692514Y-60805909D01*
X118557670Y-60856202D01*
X118557669Y-60856203D01*
X118442454Y-60942454D01*
X118356203Y-61057669D01*
X118356202Y-61057670D01*
X118305910Y-61192512D01*
X118305909Y-61192517D01*
X118299500Y-61252126D01*
X118299500Y-63747873D01*
X118000500Y-63747873D01*
X118000499Y-61252128D01*
X117994091Y-61192517D01*
X117994089Y-61192512D01*
X117943797Y-61057670D01*
X117943796Y-61057669D01*
X117857546Y-60942454D01*
X117742331Y-60856204D01*
X117742330Y-60856203D01*
X117742329Y-60856202D01*
X117607487Y-60805910D01*
X117607484Y-60805909D01*
X117607483Y-60805909D01*
X117547873Y-60799500D01*
X115052126Y-60799500D01*
X114992514Y-60805909D01*
X114857670Y-60856202D01*
X114857669Y-60856203D01*
X114742454Y-60942454D01*
X114656203Y-61057669D01*
X114656202Y-61057670D01*
X114605910Y-61192512D01*
X114605909Y-61192517D01*
X114599500Y-61252126D01*
X114599500Y-63747873D01*
X114300500Y-63747873D01*
X114300499Y-61252128D01*
X114294091Y-61192517D01*
X114294089Y-61192512D01*
X114243797Y-61057670D01*
X114243796Y-61057669D01*
X114157546Y-60942454D01*
X114042331Y-60856204D01*
X114042330Y-60856203D01*
X114042329Y-60856202D01*
X113907487Y-60805910D01*
X113907484Y-60805909D01*
X113907483Y-60805909D01*
X113847873Y-60799500D01*
X111352126Y-60799500D01*
X111292514Y-60805909D01*
X111157670Y-60856202D01*
X111157669Y-60856203D01*
X111042454Y-60942454D01*
X110956203Y-61057669D01*
X110956202Y-61057670D01*
X110905910Y-61192512D01*
X110905909Y-61192517D01*
X110899500Y-61252126D01*
X110899500Y-63747873D01*
X110600500Y-63747873D01*
X110600499Y-61252128D01*
X110594091Y-61192517D01*
X110594089Y-61192512D01*
X110543797Y-61057670D01*
X110543796Y-61057669D01*
X110457546Y-60942454D01*
X110342331Y-60856204D01*
X110342330Y-60856203D01*
X110342329Y-60856202D01*
X110207487Y-60805910D01*
X110207484Y-60805909D01*
X110207483Y-60805909D01*
X110147873Y-60799500D01*
X107652126Y-60799500D01*
X107592514Y-60805909D01*
X107457670Y-60856202D01*
X107457669Y-60856203D01*
X107342454Y-60942454D01*
X107256203Y-61057669D01*
X107256202Y-61057670D01*
X107205910Y-61192512D01*
X107205909Y-61192517D01*
X107199500Y-61252126D01*
X107199500Y-63747873D01*
X106900500Y-63747873D01*
X106900499Y-61252128D01*
X106894091Y-61192517D01*
X106894089Y-61192512D01*
X106843797Y-61057670D01*
X106843796Y-61057669D01*
X106757546Y-60942454D01*
X106642331Y-60856204D01*
X106642330Y-60856203D01*
X106642329Y-60856202D01*
X106507487Y-60805910D01*
X106507484Y-60805909D01*
X106507483Y-60805909D01*
X106447873Y-60799500D01*
X103952126Y-60799500D01*
X103892514Y-60805909D01*
X103757670Y-60856202D01*
X103757669Y-60856203D01*
X103642454Y-60942454D01*
X103556203Y-61057669D01*
X103556202Y-61057670D01*
X103505910Y-61192512D01*
X103505909Y-61192517D01*
X103499500Y-61252126D01*
X103499500Y-63747873D01*
X100000500Y-63747873D01*
X100000500Y-58647873D01*
X110899500Y-58647873D01*
X110905909Y-58707485D01*
X110956202Y-58842329D01*
X110956203Y-58842330D01*
X110956204Y-58842331D01*
X111042454Y-58957546D01*
X111157669Y-59043796D01*
X111157670Y-59043797D01*
X111268605Y-59085172D01*
X111292517Y-59094091D01*
X111352127Y-59100500D01*
X113847872Y-59100499D01*
X113907483Y-59094091D01*
X113974907Y-59068943D01*
X114042329Y-59043797D01*
X114042329Y-59043796D01*
X114042331Y-59043796D01*
X114157546Y-58957546D01*
X114243796Y-58842331D01*
X114294091Y-58707483D01*
X114300500Y-58647873D01*
X114599500Y-58647873D01*
X114605909Y-58707485D01*
X114656202Y-58842329D01*
X114656203Y-58842330D01*
X114656204Y-58842331D01*
X114742454Y-58957546D01*
X114857669Y-59043796D01*
X114857670Y-59043797D01*
X114968605Y-59085172D01*
X114992517Y-59094091D01*
X115052127Y-59100500D01*
X117547872Y-59100499D01*
X117607483Y-59094091D01*
X117674907Y-59068943D01*
X117742329Y-59043797D01*
X117742329Y-59043796D01*
X117742331Y-59043796D01*
X117857546Y-58957546D01*
X117943796Y-58842331D01*
X117994091Y-58707483D01*
X118000500Y-58647873D01*
X118299500Y-58647873D01*
X118305909Y-58707485D01*
X118356202Y-58842329D01*
X118356203Y-58842330D01*
X118356204Y-58842331D01*
X118442454Y-58957546D01*
X118557669Y-59043796D01*
X118557670Y-59043797D01*
X118668605Y-59085172D01*
X118692517Y-59094091D01*
X118752127Y-59100500D01*
X121247872Y-59100499D01*
X121307483Y-59094091D01*
X121374907Y-59068943D01*
X121442329Y-59043797D01*
X121442329Y-59043796D01*
X121442331Y-59043796D01*
X121557546Y-58957546D01*
X121643796Y-58842331D01*
X121694091Y-58707483D01*
X121700500Y-58647873D01*
X121700499Y-56152128D01*
X121694091Y-56092517D01*
X121675419Y-56042454D01*
X121643797Y-55957670D01*
X121643796Y-55957669D01*
X121600251Y-55899501D01*
X121557546Y-55842454D01*
X121442331Y-55756204D01*
X121442330Y-55756203D01*
X121442329Y-55756202D01*
X121307487Y-55705910D01*
X121307484Y-55705909D01*
X121307483Y-55705909D01*
X121247873Y-55699500D01*
X118752126Y-55699500D01*
X118692514Y-55705909D01*
X118557670Y-55756202D01*
X118557669Y-55756203D01*
X118442454Y-55842454D01*
X118356203Y-55957669D01*
X118356202Y-55957670D01*
X118305910Y-56092512D01*
X118305909Y-56092517D01*
X118299500Y-56152126D01*
X118299500Y-58647873D01*
X118000500Y-58647873D01*
X118000499Y-56152128D01*
X117994091Y-56092517D01*
X117975419Y-56042454D01*
X117943797Y-55957670D01*
X117943796Y-55957669D01*
X117900251Y-55899501D01*
X117857546Y-55842454D01*
X117742331Y-55756204D01*
X117742330Y-55756203D01*
X117742329Y-55756202D01*
X117607487Y-55705910D01*
X117607484Y-55705909D01*
X117607483Y-55705909D01*
X117547873Y-55699500D01*
X115052126Y-55699500D01*
X114992514Y-55705909D01*
X114857670Y-55756202D01*
X114857669Y-55756203D01*
X114742454Y-55842454D01*
X114656203Y-55957669D01*
X114656202Y-55957670D01*
X114605910Y-56092512D01*
X114605909Y-56092517D01*
X114599500Y-56152126D01*
X114599500Y-58647873D01*
X114300500Y-58647873D01*
X114300499Y-56152128D01*
X114294091Y-56092517D01*
X114275419Y-56042454D01*
X114243797Y-55957670D01*
X114243796Y-55957669D01*
X114200251Y-55899501D01*
X114157546Y-55842454D01*
X114042331Y-55756204D01*
X114042330Y-55756203D01*
X114042329Y-55756202D01*
X113907487Y-55705910D01*
X113907484Y-55705909D01*
X113907483Y-55705909D01*
X113847873Y-55699500D01*
X111352126Y-55699500D01*
X111292514Y-55705909D01*
X111157670Y-55756202D01*
X111157669Y-55756203D01*
X111042454Y-55842454D01*
X110956203Y-55957669D01*
X110956202Y-55957670D01*
X110905910Y-56092512D01*
X110905909Y-56092517D01*
X110899500Y-56152126D01*
X110899500Y-58647873D01*
X100000500Y-58647873D01*
X100000500Y-55000000D01*
X101495197Y-55000000D01*
X101514397Y-55366355D01*
X101514397Y-55366356D01*
X101571783Y-55728683D01*
X101666735Y-56083046D01*
X101798201Y-56425527D01*
X101798205Y-56425538D01*
X101964746Y-56752393D01*
X102164556Y-57060073D01*
X102395426Y-57345173D01*
X102419060Y-57368807D01*
X103055141Y-56732725D01*
X103067449Y-56794601D01*
X103122704Y-56877296D01*
X103205399Y-56932551D01*
X103267272Y-56944858D01*
X102631192Y-57580939D01*
X102654826Y-57604573D01*
X102939926Y-57835443D01*
X103247606Y-58035253D01*
X103574461Y-58201794D01*
X103574472Y-58201798D01*
X103916953Y-58333264D01*
X104271316Y-58428216D01*
X104633643Y-58485602D01*
X105000000Y-58504802D01*
X105366355Y-58485602D01*
X105366356Y-58485602D01*
X105728683Y-58428216D01*
X106083046Y-58333264D01*
X106425527Y-58201798D01*
X106425538Y-58201794D01*
X106752393Y-58035253D01*
X107060073Y-57835443D01*
X107345173Y-57604573D01*
X107368806Y-57580938D01*
X106732726Y-56944858D01*
X106794601Y-56932551D01*
X106877296Y-56877296D01*
X106932551Y-56794601D01*
X106944858Y-56732726D01*
X107580938Y-57368806D01*
X107604573Y-57345173D01*
X107835443Y-57060073D01*
X108035253Y-56752393D01*
X108201794Y-56425538D01*
X108201798Y-56425527D01*
X108333264Y-56083046D01*
X108428216Y-55728683D01*
X108485602Y-55366356D01*
X108485602Y-55366355D01*
X108504802Y-55000000D01*
X108502070Y-54947873D01*
X110899500Y-54947873D01*
X110905909Y-55007485D01*
X110956202Y-55142329D01*
X110956203Y-55142330D01*
X110956204Y-55142331D01*
X111042454Y-55257546D01*
X111157669Y-55343796D01*
X111157670Y-55343797D01*
X111268605Y-55385172D01*
X111292517Y-55394091D01*
X111352127Y-55400500D01*
X113847872Y-55400499D01*
X113907483Y-55394091D01*
X113974907Y-55368943D01*
X114042329Y-55343797D01*
X114042329Y-55343796D01*
X114042331Y-55343796D01*
X114157546Y-55257546D01*
X114243796Y-55142331D01*
X114294091Y-55007483D01*
X114300500Y-54947873D01*
X114599500Y-54947873D01*
X114605909Y-55007485D01*
X114656202Y-55142329D01*
X114656203Y-55142330D01*
X114656204Y-55142331D01*
X114742454Y-55257546D01*
X114857669Y-55343796D01*
X114857670Y-55343797D01*
X114968605Y-55385172D01*
X114992517Y-55394091D01*
X115052127Y-55400500D01*
X117547872Y-55400499D01*
X117607483Y-55394091D01*
X117674907Y-55368943D01*
X117742329Y-55343797D01*
X117742329Y-55343796D01*
X117742331Y-55343796D01*
X117857546Y-55257546D01*
X117943796Y-55142331D01*
X117994091Y-55007483D01*
X118000500Y-54947873D01*
X118299500Y-54947873D01*
X118305909Y-55007485D01*
X118356202Y-55142329D01*
X118356203Y-55142330D01*
X118356204Y-55142331D01*
X118442454Y-55257546D01*
X118557669Y-55343796D01*
X118557670Y-55343797D01*
X118668605Y-55385172D01*
X118692517Y-55394091D01*
X118752127Y-55400500D01*
X121247872Y-55400499D01*
X121307483Y-55394091D01*
X121374907Y-55368943D01*
X121442329Y-55343797D01*
X121442329Y-55343796D01*
X121442331Y-55343796D01*
X121557546Y-55257546D01*
X121643796Y-55142331D01*
X121694091Y-55007483D01*
X121700500Y-54947873D01*
X121700499Y-52452128D01*
X121694091Y-52392517D01*
X121678233Y-52350000D01*
X121643797Y-52257670D01*
X121643796Y-52257669D01*
X121557546Y-52142454D01*
X121442331Y-52056204D01*
X121442330Y-52056203D01*
X121442329Y-52056202D01*
X121307487Y-52005910D01*
X121307484Y-52005909D01*
X121307483Y-52005909D01*
X121247873Y-51999500D01*
X118752126Y-51999500D01*
X118692514Y-52005909D01*
X118557670Y-52056202D01*
X118557669Y-52056203D01*
X118442454Y-52142454D01*
X118356203Y-52257669D01*
X118356202Y-52257670D01*
X118305910Y-52392512D01*
X118305909Y-52392517D01*
X118299500Y-52452126D01*
X118299500Y-54947873D01*
X118000500Y-54947873D01*
X118000499Y-52452128D01*
X117994091Y-52392517D01*
X117978233Y-52350000D01*
X117943797Y-52257670D01*
X117943796Y-52257669D01*
X117857546Y-52142454D01*
X117742331Y-52056204D01*
X117742330Y-52056203D01*
X117742329Y-52056202D01*
X117607487Y-52005910D01*
X117607484Y-52005909D01*
X117607483Y-52005909D01*
X117547873Y-51999500D01*
X115052126Y-51999500D01*
X114992514Y-52005909D01*
X114857670Y-52056202D01*
X114857669Y-52056203D01*
X114742454Y-52142454D01*
X114656203Y-52257669D01*
X114656202Y-52257670D01*
X114605910Y-52392512D01*
X114605909Y-52392517D01*
X114599500Y-52452126D01*
X114599500Y-54947873D01*
X114300500Y-54947873D01*
X114300499Y-52452128D01*
X114294091Y-52392517D01*
X114278233Y-52350000D01*
X114243797Y-52257670D01*
X114243796Y-52257669D01*
X114157546Y-52142454D01*
X114042331Y-52056204D01*
X114042330Y-52056203D01*
X114042329Y-52056202D01*
X113907487Y-52005910D01*
X113907484Y-52005909D01*
X113907483Y-52005909D01*
X113847873Y-51999500D01*
X111352126Y-51999500D01*
X111292514Y-52005909D01*
X111157670Y-52056202D01*
X111157669Y-52056203D01*
X111042454Y-52142454D01*
X110956203Y-52257669D01*
X110956202Y-52257670D01*
X110905910Y-52392512D01*
X110905909Y-52392517D01*
X110899500Y-52452126D01*
X110899500Y-54947873D01*
X108502070Y-54947873D01*
X108485602Y-54633644D01*
X108485602Y-54633643D01*
X108428216Y-54271316D01*
X108333264Y-53916953D01*
X108201794Y-53574461D01*
X108201791Y-53574456D01*
X108035253Y-53247607D01*
X107835443Y-52939926D01*
X107604573Y-52654826D01*
X107580939Y-52631192D01*
X106944858Y-53267272D01*
X106932551Y-53205399D01*
X106877296Y-53122704D01*
X106794601Y-53067449D01*
X106732725Y-53055141D01*
X107368807Y-52419060D01*
X107345173Y-52395426D01*
X107060073Y-52164556D01*
X106752393Y-51964746D01*
X106425538Y-51798205D01*
X106425527Y-51798201D01*
X106083046Y-51666735D01*
X105728683Y-51571783D01*
X105366356Y-51514397D01*
X105000000Y-51495197D01*
X104633644Y-51514397D01*
X104633643Y-51514397D01*
X104271316Y-51571783D01*
X103916953Y-51666735D01*
X103574461Y-51798205D01*
X103574456Y-51798208D01*
X103247607Y-51964746D01*
X102939926Y-52164556D01*
X102654827Y-52395425D01*
X102631192Y-52419059D01*
X103267274Y-53055141D01*
X103205399Y-53067449D01*
X103122704Y-53122704D01*
X103067449Y-53205399D01*
X103055141Y-53267274D01*
X102419059Y-52631192D01*
X102395425Y-52654827D01*
X102164556Y-52939926D01*
X101964746Y-53247607D01*
X101798208Y-53574456D01*
X101798205Y-53574461D01*
X101666735Y-53916953D01*
X101571783Y-54271316D01*
X101514397Y-54633643D01*
X101514397Y-54633644D01*
X101495197Y-55000000D01*
X100000500Y-55000000D01*
X100000500Y-52130004D01*
X100000547Y-52127363D01*
X100010037Y-51861641D01*
X100010743Y-51853759D01*
X100049931Y-51581193D01*
X100052175Y-51570883D01*
X100129385Y-51307930D01*
X100133074Y-51298038D01*
X100246913Y-51048763D01*
X100251969Y-51039501D01*
X100400138Y-50808946D01*
X100406455Y-50800507D01*
X100585930Y-50593382D01*
X100593382Y-50585930D01*
X100800507Y-50406455D01*
X100808946Y-50400138D01*
X101039501Y-50251969D01*
X101048760Y-50246914D01*
X101298038Y-50133074D01*
X101307930Y-50129385D01*
X101570883Y-50052175D01*
X101581193Y-50049931D01*
X101853767Y-50010742D01*
X101861641Y-50010037D01*
X102127364Y-50000547D01*
X102130005Y-50000500D01*
X123824552Y-50000500D01*
X124666055Y-50000948D01*
G37*
%TD.AperFunction*%
%TD*%
M02*
