M48
; DRILL file {KiCad 7.0.10-7.0.10~ubuntu22.04.1} date Wed 03 Jan 2024 05:58:36 PM PST
; FORMAT={-:-/ absolute / inch / decimal}
; #@! TF.CreationDate,2024-01-03T17:58:36-08:00
; #@! TF.GenerationSoftware,Kicad,Pcbnew,7.0.10-7.0.10~ubuntu22.04.1
; #@! TF.FileFunction,Plated,1,2,PTH
FMAT,2
INCH
; #@! TA.AperFunction,Plated,PTH,ViaDrill
T1C0.0118
; #@! TA.AperFunction,Plated,PTH,ComponentDrill
T2C0.0197
; #@! TA.AperFunction,Plated,PTH,ComponentDrill
T3C0.0394
; #@! TA.AperFunction,Plated,PTH,ComponentDrill
T4C0.0591
; #@! TA.AperFunction,Plated,PTH,ComponentDrill
T5C0.0630
; #@! TA.AperFunction,Plated,PTH,ComponentDrill
T6C0.1260
%
G90
G05
T1
X3.9764Y-2.0472
X3.9764Y-2.2441
X3.9764Y-2.4409
X3.9764Y-2.6378
X3.9764Y-2.8346
X3.9764Y-3.0315
X3.9764Y-3.2283
X3.9764Y-3.4252
X3.9764Y-3.622
X3.9764Y-3.8189
X4.0157Y-2.0079
X4.0157Y-3.8976
X4.2126Y-2.0079
X4.2126Y-3.8976
X4.4094Y-2.0079
X4.4094Y-3.8976
X4.6063Y-2.0079
X4.6063Y-3.8976
X4.8031Y-2.0079
X4.8031Y-3.8976
X5.0Y-2.0079
X5.0Y-3.8976
X5.1969Y-2.0079
X5.1969Y-3.8976
X5.3937Y-2.0079
X5.3937Y-3.8976
X5.5906Y-2.0079
X5.5906Y-3.8976
X5.7874Y-2.0079
X5.7874Y-3.8976
X5.8661Y-2.0472
X5.8661Y-2.2441
X5.8661Y-2.4409
X5.8661Y-2.6378
X5.8661Y-2.8346
X5.8661Y-3.0315
X5.8661Y-3.2283
X5.8661Y-3.4252
X5.8661Y-3.622
X5.8661Y-3.8189
T2
X4.0394Y-2.1654
X4.0394Y-3.7402
X4.067Y-2.0985
X4.067Y-2.2322
X4.067Y-3.6733
X4.067Y-3.807
X4.1339Y-2.0709
X4.1339Y-2.2598
X4.1339Y-3.6457
X4.1339Y-3.8346
X4.1417Y-2.4606
X4.1417Y-2.6614
X4.1417Y-3.2441
X4.1417Y-3.4449
X4.2007Y-2.0985
X4.2007Y-2.2322
X4.2007Y-3.6733
X4.2007Y-3.807
X4.2283Y-2.1654
X4.2283Y-3.7402
X4.2874Y-2.4606
X4.2874Y-2.6614
X4.2874Y-3.2441
X4.2874Y-3.4449
X4.4331Y-2.1142
X4.4331Y-2.2598
X4.4331Y-2.4606
X4.4331Y-2.6614
X4.4331Y-3.2441
X4.4331Y-3.4449
X4.4331Y-3.6457
X4.4331Y-3.7913
X4.5669Y-2.8346
X4.5669Y-2.9528
X4.5669Y-3.0709
X4.5787Y-2.1142
X4.5787Y-2.2598
X4.5787Y-2.4606
X4.5787Y-2.6614
X4.5787Y-3.2441
X4.5787Y-3.4449
X4.5787Y-3.6457
X4.5787Y-3.7913
X4.7244Y-2.1142
X4.7244Y-2.2598
X4.7244Y-2.4606
X4.7244Y-2.6614
X4.7244Y-2.8071
X4.7244Y-2.9528
X4.7244Y-3.0984
X4.7244Y-3.2441
X4.7244Y-3.4449
X4.7244Y-3.6457
X4.7244Y-3.7913
X4.8701Y-2.2874
X4.8701Y-2.4055
X4.8701Y-2.5236
X4.8701Y-2.6417
X4.8701Y-2.7598
X4.8701Y-2.878
X4.8701Y-2.9961
X4.8701Y-3.1142
X4.8701Y-3.2323
X4.8701Y-3.3504
X4.8701Y-3.4685
X4.8701Y-3.5866
X4.8701Y-3.7047
X5.1142Y-2.1142
X5.1142Y-2.2598
X5.1181Y-2.4606
X5.1181Y-2.6614
X5.1181Y-2.8071
X5.1181Y-2.9528
X5.1181Y-3.0984
X5.1181Y-3.2441
X5.1181Y-3.4449
X5.1181Y-3.6457
X5.1181Y-3.7913
X5.2598Y-2.1142
X5.2598Y-2.2598
X5.2638Y-2.4606
X5.2638Y-2.6614
X5.2638Y-3.2441
X5.2638Y-3.4449
X5.2638Y-3.6457
X5.2638Y-3.7913
X5.2756Y-2.8346
X5.2756Y-2.9528
X5.2756Y-3.0709
X5.4055Y-2.1142
X5.4055Y-2.2598
X5.4094Y-2.4606
X5.4094Y-2.6614
X5.4094Y-3.2441
X5.4094Y-3.4449
X5.4094Y-3.6457
X5.4094Y-3.7913
X5.5551Y-2.4606
X5.5551Y-2.6614
X5.5551Y-3.2441
X5.5551Y-3.4449
X5.6142Y-2.1654
X5.6142Y-3.7402
X5.6418Y-2.0985
X5.6418Y-2.2322
X5.6418Y-3.6733
X5.6418Y-3.807
X5.7008Y-2.4606
X5.7008Y-2.6614
X5.7008Y-3.2441
X5.7008Y-3.4449
X5.7087Y-2.0709
X5.7087Y-2.2598
X5.7087Y-3.6457
X5.7087Y-3.8346
X5.7755Y-2.0985
X5.7755Y-2.2322
X5.7755Y-3.6733
X5.7755Y-3.807
X5.8031Y-2.1654
X5.8031Y-3.7402
T3
X4.0945Y-2.9026
X4.0945Y-3.0026
X4.875Y-2.126
X4.975Y-2.126
X5.748Y-2.9026
X5.748Y-3.0026
T4
X4.3307Y-2.9528
X5.5118Y-2.9528
T5
X4.2303Y-2.8524
X4.2303Y-3.0531
X4.4311Y-2.8524
X4.4311Y-3.0531
X5.4114Y-2.8524
X5.4114Y-3.0531
X5.6122Y-2.8524
X5.6122Y-3.0531
T6
X4.1339Y-2.1654
X4.1339Y-3.7402
X5.7087Y-2.1654
X5.7087Y-3.7402
M30
