%TF.GenerationSoftware,KiCad,Pcbnew,7.0.10-7.0.10~ubuntu22.04.1*%
%TF.CreationDate,2024-01-03T17:58:32-08:00*%
%TF.ProjectId,YamhillProtoBoard1x1,59616d68-696c-46c5-9072-6f746f426f61,A*%
%TF.SameCoordinates,Original*%
%TF.FileFunction,Soldermask,Bot*%
%TF.FilePolarity,Negative*%
%FSLAX46Y46*%
G04 Gerber Fmt 4.6, Leading zero omitted, Abs format (unit mm)*
G04 Created by KiCad (PCBNEW 7.0.10-7.0.10~ubuntu22.04.1) date 2024-01-03 17:58:32*
%MOMM*%
%LPD*%
G01*
G04 APERTURE LIST*
%ADD10C,1.000000*%
%ADD11C,0.800000*%
%ADD12C,6.400000*%
%ADD13R,1.700000X1.700000*%
%ADD14O,1.700000X1.700000*%
%ADD15C,2.500000*%
%ADD16C,2.600000*%
G04 APERTURE END LIST*
D10*
%TO.C,REF\u002A\u002A*%
X105200000Y-62500000D03*
%TD*%
%TO.C,REF\u002A\u002A*%
X105200000Y-82400000D03*
%TD*%
%TO.C,REF\u002A\u002A*%
X144800000Y-82400000D03*
%TD*%
%TO.C,REF\u002A\u002A*%
X116300000Y-57400000D03*
%TD*%
%TO.C,REF\u002A\u002A*%
X120000000Y-92600000D03*
%TD*%
%TO.C,REF\u002A\u002A*%
X112600000Y-92600000D03*
%TD*%
%TO.C,REF\u002A\u002A*%
X112600000Y-96300000D03*
%TD*%
%TO.C,REF\u002A\u002A*%
X120000000Y-67600000D03*
%TD*%
%TO.C,REF\u002A\u002A*%
X130000000Y-87500000D03*
%TD*%
%TO.C,REF\u002A\u002A*%
X130000000Y-96300000D03*
%TD*%
%TO.C,REF\u002A\u002A*%
X129900000Y-57400000D03*
%TD*%
%TO.C,REF\u002A\u002A*%
X129900000Y-53700000D03*
%TD*%
%TO.C,REF\u002A\u002A*%
X116300000Y-62500000D03*
%TD*%
%TO.C,REF\u002A\u002A*%
X130000000Y-67600000D03*
%TD*%
%TO.C,REF\u002A\u002A*%
X120000000Y-96300000D03*
%TD*%
%TO.C,REF\u002A\u002A*%
X144800000Y-62500000D03*
%TD*%
%TO.C,REF\u002A\u002A*%
X137400000Y-62500000D03*
%TD*%
%TO.C,REF\u002A\u002A*%
X133700000Y-67600000D03*
%TD*%
%TO.C,REF\u002A\u002A*%
X120000000Y-82400000D03*
%TD*%
%TO.C,REF\u002A\u002A*%
X141100000Y-62500000D03*
%TD*%
%TO.C,REF\u002A\u002A*%
X120000000Y-78700000D03*
%TD*%
%TO.C,REF\u002A\u002A*%
X120000000Y-75000000D03*
%TD*%
%TO.C,REF\u002A\u002A*%
X105200000Y-67600000D03*
%TD*%
%TO.C,REF\u002A\u002A*%
X141100000Y-82400000D03*
%TD*%
%TO.C,REF\u002A\u002A*%
X133700000Y-87500000D03*
%TD*%
%TO.C,J2*%
X116000000Y-78000000D03*
X116000000Y-75000000D03*
X116000000Y-72000000D03*
%TD*%
%TO.C,REF\u002A\u002A*%
X144800000Y-87500000D03*
%TD*%
%TO.C,REF\u002A\u002A*%
X112600000Y-82400000D03*
%TD*%
%TO.C,REF\u002A\u002A*%
X120000000Y-62500000D03*
%TD*%
%TO.C,REF\u002A\u002A*%
X116300000Y-53700000D03*
%TD*%
D11*
%TO.C,H1*%
X102600000Y-55000000D03*
X103302944Y-53302944D03*
X103302944Y-56697056D03*
X105000000Y-52600000D03*
D12*
X105000000Y-55000000D03*
D11*
X105000000Y-57400000D03*
X106697056Y-53302944D03*
X106697056Y-56697056D03*
X107400000Y-55000000D03*
%TD*%
D13*
%TO.C,J3*%
X104000000Y-73725000D03*
D14*
X104000000Y-76265000D03*
%TD*%
D10*
%TO.C,REF\u002A\u002A*%
X120000000Y-87500000D03*
%TD*%
%TO.C,REF\u002A\u002A*%
X112600000Y-57400000D03*
%TD*%
%TO.C,REF\u002A\u002A*%
X130000000Y-78700000D03*
%TD*%
%TO.C,REF\u002A\u002A*%
X130000000Y-82400000D03*
%TD*%
%TO.C,REF\u002A\u002A*%
X137400000Y-82400000D03*
%TD*%
%TO.C,REF\u002A\u002A*%
X108900000Y-62500000D03*
%TD*%
%TO.C,REF\u002A\u002A*%
X116300000Y-82400000D03*
%TD*%
D15*
%TO.C,J1*%
X110000000Y-75000000D03*
D16*
X107450000Y-72450000D03*
X107450000Y-77550000D03*
X112550000Y-72450000D03*
X112550000Y-77550000D03*
%TD*%
D10*
%TO.C,REF\u002A\u002A*%
X112600000Y-53700000D03*
%TD*%
%TO.C,REF\u002A\u002A*%
X120000000Y-71300000D03*
%TD*%
%TO.C,REF\u002A\u002A*%
X116300000Y-92600000D03*
%TD*%
%TO.C,REF\u002A\u002A*%
X116300000Y-67600000D03*
%TD*%
%TO.C,REF\u002A\u002A*%
X108900000Y-67600000D03*
%TD*%
%TO.C,REF\u002A\u002A*%
X137400000Y-96300000D03*
%TD*%
D13*
%TO.C,J5*%
X146000000Y-73725000D03*
D14*
X146000000Y-76265000D03*
%TD*%
D10*
%TO.C,REF\u002A\u002A*%
X133700000Y-82400000D03*
%TD*%
%TO.C,REF\u002A\u002A*%
X137300000Y-53700000D03*
%TD*%
%TO.C,REF\u002A\u002A*%
X133700000Y-96300000D03*
%TD*%
%TO.C,REF\u002A\u002A*%
X130000000Y-92600000D03*
%TD*%
%TO.C,REF\u002A\u002A*%
X116300000Y-87500000D03*
%TD*%
D11*
%TO.C,H2*%
X142600000Y-55000000D03*
X143302944Y-53302944D03*
X143302944Y-56697056D03*
X145000000Y-52600000D03*
D12*
X145000000Y-55000000D03*
D11*
X145000000Y-57400000D03*
X146697056Y-53302944D03*
X146697056Y-56697056D03*
X147400000Y-55000000D03*
%TD*%
D10*
%TO.C,REF\u002A\u002A*%
X133700000Y-92600000D03*
%TD*%
%TO.C,REF\u002A\u002A*%
X105200000Y-87500000D03*
%TD*%
%TO.C,REF\u002A\u002A*%
X120000000Y-57400000D03*
%TD*%
D11*
%TO.C,H4*%
X142600000Y-95000000D03*
X143302944Y-93302944D03*
X143302944Y-96697056D03*
X145000000Y-92600000D03*
D12*
X145000000Y-95000000D03*
D11*
X145000000Y-97400000D03*
X146697056Y-93302944D03*
X146697056Y-96697056D03*
X147400000Y-95000000D03*
%TD*%
D10*
%TO.C,REF\u002A\u002A*%
X130000000Y-75000000D03*
%TD*%
%TO.C,J11*%
X123700000Y-58100000D03*
X123700000Y-61100000D03*
X123700000Y-64100000D03*
X123700000Y-67100000D03*
X123700000Y-70100000D03*
X123700000Y-73100000D03*
X123700000Y-76100000D03*
X123700000Y-79100000D03*
X123700000Y-82100000D03*
X123700000Y-85100000D03*
X123700000Y-88100000D03*
X123700000Y-91100000D03*
X123700000Y-94100000D03*
%TD*%
D11*
%TO.C,H3*%
X102600000Y-95000000D03*
X103302944Y-93302944D03*
X103302944Y-96697056D03*
X105000000Y-92600000D03*
D12*
X105000000Y-95000000D03*
D11*
X105000000Y-97400000D03*
X106697056Y-93302944D03*
X106697056Y-96697056D03*
X107400000Y-95000000D03*
%TD*%
D10*
%TO.C,REF\u002A\u002A*%
X130000000Y-71300000D03*
%TD*%
%TO.C,REF\u002A\u002A*%
X137400000Y-92600000D03*
%TD*%
%TO.C,REF\u002A\u002A*%
X112600000Y-62500000D03*
%TD*%
%TO.C,REF\u002A\u002A*%
X144800000Y-67600000D03*
%TD*%
%TO.C,REF\u002A\u002A*%
X108900000Y-87500000D03*
%TD*%
%TO.C,REF\u002A\u002A*%
X112600000Y-87500000D03*
%TD*%
%TO.C,REF\u002A\u002A*%
X137400000Y-67600000D03*
%TD*%
%TO.C,REF\u002A\u002A*%
X141100000Y-67600000D03*
%TD*%
%TO.C,REF\u002A\u002A*%
X137300000Y-57400000D03*
%TD*%
%TO.C,REF\u002A\u002A*%
X130000000Y-62500000D03*
%TD*%
%TO.C,REF\u002A\u002A*%
X116300000Y-96300000D03*
%TD*%
%TO.C,J6*%
X134000000Y-78000000D03*
X134000000Y-75000000D03*
X134000000Y-72000000D03*
%TD*%
%TO.C,REF\u002A\u002A*%
X133600000Y-57400000D03*
%TD*%
%TO.C,REF\u002A\u002A*%
X133700000Y-62500000D03*
%TD*%
%TO.C,REF\u002A\u002A*%
X112600000Y-67600000D03*
%TD*%
%TO.C,REF\u002A\u002A*%
X108900000Y-82400000D03*
%TD*%
%TO.C,REF\u002A\u002A*%
X141100000Y-87500000D03*
%TD*%
%TO.C,REF\u002A\u002A*%
X120000000Y-53700000D03*
%TD*%
%TO.C,REF\u002A\u002A*%
X137400000Y-87500000D03*
%TD*%
D15*
%TO.C,J4*%
X140000000Y-75000000D03*
D16*
X137450000Y-72450000D03*
X137450000Y-77550000D03*
X142550000Y-72450000D03*
X142550000Y-77550000D03*
%TD*%
D13*
%TO.C,J10*%
X123825000Y-54000000D03*
D14*
X126365000Y-54000000D03*
%TD*%
D10*
%TO.C,REF\u002A\u002A*%
X133600000Y-53700000D03*
%TD*%
G36*
X102003031Y-51750149D02*
G01*
X102018420Y-51750905D01*
X102030531Y-51752098D01*
X102038917Y-51753342D01*
X102102343Y-51782651D01*
X102139854Y-51841597D01*
X102139542Y-51911466D01*
X102101505Y-51970075D01*
X102037820Y-51998815D01*
X102020722Y-52000000D01*
X102000000Y-52000000D01*
X102000000Y-98000000D01*
X102020722Y-98000000D01*
X102087761Y-98019685D01*
X102133516Y-98072489D01*
X102143460Y-98141647D01*
X102114435Y-98205203D01*
X102055657Y-98242977D01*
X102038903Y-98246660D01*
X102030517Y-98247903D01*
X102018428Y-98249093D01*
X102003039Y-98249850D01*
X101996947Y-98250000D01*
X100133328Y-98250000D01*
X100066289Y-98230315D01*
X100020534Y-98177511D01*
X100009644Y-98134846D01*
X100000316Y-98004418D01*
X100000000Y-97995572D01*
X100000000Y-52004427D01*
X100000316Y-51995581D01*
X100009644Y-51865154D01*
X100034061Y-51799690D01*
X100089994Y-51757818D01*
X100133328Y-51750000D01*
X101996947Y-51750000D01*
X102003031Y-51750149D01*
G37*
G36*
X101943039Y-97769685D02*
G01*
X101988794Y-97822489D01*
X102000000Y-97874000D01*
X102000000Y-98000000D01*
X148000000Y-98000000D01*
X148000000Y-97874000D01*
X148019685Y-97806961D01*
X148072489Y-97761206D01*
X148124000Y-97750000D01*
X149876000Y-97750000D01*
X149943039Y-97769685D01*
X149988794Y-97822489D01*
X150000000Y-97874000D01*
X150000000Y-97995572D01*
X149999684Y-98004418D01*
X149980275Y-98275785D01*
X149977757Y-98293297D01*
X149920872Y-98554794D01*
X149915888Y-98571770D01*
X149822361Y-98822524D01*
X149815011Y-98838617D01*
X149686758Y-99073496D01*
X149677193Y-99088380D01*
X149516811Y-99302624D01*
X149505225Y-99315994D01*
X149315994Y-99505225D01*
X149302624Y-99516811D01*
X149088380Y-99677193D01*
X149073496Y-99686758D01*
X148838617Y-99815011D01*
X148822524Y-99822361D01*
X148571770Y-99915888D01*
X148554794Y-99920872D01*
X148293297Y-99977757D01*
X148275785Y-99980275D01*
X148004418Y-99999684D01*
X147995572Y-100000000D01*
X102004428Y-100000000D01*
X101995582Y-99999684D01*
X101724214Y-99980275D01*
X101706702Y-99977757D01*
X101445205Y-99920872D01*
X101428229Y-99915888D01*
X101177475Y-99822361D01*
X101161382Y-99815011D01*
X100926503Y-99686758D01*
X100911619Y-99677193D01*
X100697375Y-99516811D01*
X100684005Y-99505225D01*
X100494774Y-99315994D01*
X100483188Y-99302624D01*
X100322806Y-99088380D01*
X100313241Y-99073496D01*
X100184988Y-98838617D01*
X100177638Y-98822524D01*
X100084111Y-98571770D01*
X100079127Y-98554794D01*
X100022242Y-98293297D01*
X100019724Y-98275785D01*
X100000316Y-98004418D01*
X100000000Y-97995572D01*
X100000000Y-97874000D01*
X100019685Y-97806961D01*
X100072489Y-97761206D01*
X100124000Y-97750000D01*
X101876000Y-97750000D01*
X101943039Y-97769685D01*
G37*
G36*
X149933711Y-51769685D02*
G01*
X149979466Y-51822489D01*
X149990356Y-51865154D01*
X149999684Y-51995581D01*
X150000000Y-52004427D01*
X150000000Y-97995572D01*
X149999684Y-98004418D01*
X149990356Y-98134846D01*
X149965939Y-98200310D01*
X149910006Y-98242182D01*
X149866672Y-98250000D01*
X148003053Y-98250000D01*
X147996961Y-98249850D01*
X147981571Y-98249093D01*
X147969480Y-98247903D01*
X147961095Y-98246660D01*
X147897667Y-98217357D01*
X147860149Y-98158415D01*
X147860455Y-98088546D01*
X147898486Y-98029933D01*
X147962167Y-98001186D01*
X147979278Y-98000000D01*
X148000000Y-98000000D01*
X148000000Y-52000000D01*
X147979278Y-52000000D01*
X147912239Y-51980315D01*
X147866484Y-51927511D01*
X147856540Y-51858353D01*
X147885565Y-51794797D01*
X147944343Y-51757023D01*
X147961081Y-51753343D01*
X147969466Y-51752099D01*
X147981579Y-51750905D01*
X147996969Y-51750149D01*
X148003053Y-51750000D01*
X149866672Y-51750000D01*
X149933711Y-51769685D01*
G37*
G36*
X148004418Y-50000316D02*
G01*
X148275785Y-50019724D01*
X148293297Y-50022242D01*
X148554794Y-50079127D01*
X148571770Y-50084111D01*
X148822524Y-50177638D01*
X148838617Y-50184988D01*
X149073496Y-50313241D01*
X149088380Y-50322806D01*
X149302624Y-50483188D01*
X149315994Y-50494774D01*
X149505225Y-50684005D01*
X149516811Y-50697375D01*
X149677193Y-50911619D01*
X149686758Y-50926503D01*
X149815011Y-51161382D01*
X149822361Y-51177475D01*
X149915888Y-51428229D01*
X149920872Y-51445205D01*
X149977757Y-51706702D01*
X149980275Y-51724214D01*
X149999684Y-51995581D01*
X150000000Y-52004427D01*
X150000000Y-52126000D01*
X149980315Y-52193039D01*
X149927511Y-52238794D01*
X149876000Y-52250000D01*
X148124000Y-52250000D01*
X148056961Y-52230315D01*
X148011206Y-52177511D01*
X148000000Y-52126000D01*
X148000000Y-52000000D01*
X102000000Y-52000000D01*
X102000000Y-52126000D01*
X101980315Y-52193039D01*
X101927511Y-52238794D01*
X101876000Y-52250000D01*
X100124000Y-52250000D01*
X100056961Y-52230315D01*
X100011206Y-52177511D01*
X100000000Y-52126000D01*
X100000000Y-52004427D01*
X100000316Y-51995581D01*
X100019724Y-51724214D01*
X100022242Y-51706702D01*
X100079127Y-51445205D01*
X100084111Y-51428229D01*
X100177638Y-51177475D01*
X100184988Y-51161382D01*
X100313241Y-50926503D01*
X100322806Y-50911619D01*
X100483188Y-50697375D01*
X100494774Y-50684005D01*
X100684005Y-50494774D01*
X100697375Y-50483188D01*
X100911619Y-50322806D01*
X100926503Y-50313241D01*
X101161382Y-50184988D01*
X101177475Y-50177638D01*
X101428229Y-50084111D01*
X101445205Y-50079127D01*
X101706702Y-50022242D01*
X101724214Y-50019724D01*
X101995582Y-50000316D01*
X102004428Y-50000000D01*
X147995572Y-50000000D01*
X148004418Y-50000316D01*
G37*
M02*
